<svg data-name="Layer 1" xmlns="http://www.w3.org/2000/svg" viewBox="0 0 262.7 36.6"><path d="M3.5 34.7c2.3-11.2 6.8-21.7 10-32.5.8-2.2-2.7-3.1-3.3-1C6.8 12.1 2.3 22.6 0 33.7c-.5 2.3 3 3.2 3.4 1z"/><path d="M10.7 2.2c2 5.5 4.3 10.9 6 16.5s4.7 10.3 6.7 15.7c.7 2.1 4.1 1.2 3.4-1-2-5.3-5-10.2-6.6-15.7S16 6.7 14 1.3c-.8-2.2-4.2-1.3-3.4 1z"/><path d="M6.2 24.7h6.4c1.9 0 4.3 0 6-1 1.9-1.2.1-4.3-1.8-3-1.3.7-3.4.5-4.8.5H6a1.8 1.8 0 0 0 0 3.5zM33 4.5c1.2 4.6 0 9.4.1 14 0 5.1 1.3 10 0 15-.4 2.3 3 3.2 3.5 1 1.1-4.8.6-9.8.2-14.6-.5-5.5 1-11-.4-16.4-.5-2.2-4-1.3-3.4 1z"/><path d="M34.9 5.2c3.9 0 13.6-.1 12.2 6-1 4-8 3.5-10.9 3-2.2-.2-2.2 3.4 0 3.7 5.4.7 13.7 0 14.5-6.9 1-8.5-9.8-9.3-15.8-9.3a1.8 1.8 0 0 0 0 3.5z"/><path d="M36 18c5.3-.2 14 1.5 13 8.6-.9 5.5-9.6 4.8-13.6 4.7a1.8 1.8 0 0 0 0 3.6c6.3 0 16.6-.1 17.1-8.6.5-9-9-12.1-16.5-11.8-2.3.1-2.3 3.7 0 3.6zM74.3 2.7c-9.2 1.6-15.5 7.2-15 16.9.4 8.4 6.5 15.4 15.2 15 17.3-.6 18.2-33 .8-32.4-2.2.1-2.2 3.6 0 3.6 6.4-.2 8.9 6.6 9 12 .3 6.4-3.2 12.5-9.9 13.3-7 .9-11-5.4-11.6-11.5C61.8 11.4 68 7.3 75.3 6c2.2-.4 1.3-3.8-1-3.4zM94 4c.1 6 .2 11.7.8 17.6a45 45 0 0 1 .1 5.7l-.2 5c-1.8 1.4.8 3.8 2.5 2.4 2-1.5 1.3-7 1.3-9.1a61 61 0 0 0-.8-9.1c-.5-4.2 0-8.4-.1-12.5-.1-2.3-3.6-2.3-3.6 0z"/><path d="M96.3 5.3a22.7 22.7 0 0 1 9.2.3c2.7.7 5.4 3.6 3.8 6.5-2 3.6-9.6 3.6-13.2 4.2-2.3.3-1.3 3.7.9 3.4 5.4-.8 14.9-1.2 16.2-8 .7-3.8-1.8-7.3-5-8.8-4-1.9-8.7-1.6-12.9-1-2.2.4-1.3 3.8 1 3.5z"/><path d="M103 19.3c4.3 1.1 6.2 5 6.9 9 .4 2.2.3 5 1.8 6.8s4-.7 2.5-2.5c-.7-.9-.6-3.4-.8-4.5a17.5 17.5 0 0 0-1.1-4.8 13 13 0 0 0-8.3-7.4c-2.2-.6-3.1 2.8-1 3.4zM121.9 2.8c-2 10.5 1.6 21 .3 31.5l3.5-.5a2 2 0 0 0-1-1.3c-2-1.1-3.8 2-1.8 3.1l-.7-.9c.6 2.1 3.3 1.4 3.5-.4 1.3-10.2-2.2-20.4-.4-30.6.4-2.2-3-3.2-3.4-1zM157 3.3C150.1.5 141.5 1 136.6 6.8a18 18 0 0 0-2 18.6c2.4 5.4 12.1 11 18 9 6.1-2 5-9.3 5.2-14.5a1.8 1.8 0 0 0-1.3-1.7c-2.7-.4-5.5-.3-8.2-.6-2.3-.2-2.3 3.3 0 3.5 2.4.3 4.8.2 7.2.5l-1.3-1.7c0 3 1.3 10.6-3 11.1-5.7.7-12.4-3.9-14.2-9-1.5-4.5-.1-10 2.9-13.5 3.7-4.4 11.3-3.7 16-1.8 2.1.9 3-2.5 1-3.4zM166.4 4c0 5 0 10.2-.2 15.2s-.8 10 .1 15l1.2-2.2 2.1 1.2v-.4c-.6-2.2-4-1.2-3.5 1v.4a1.8 1.8 0 0 0 2.3 1.2 1.8 1.8 0 0 0 1.3-2.2c-.8-4.6-.2-9.3 0-14 .3-5 .2-10.1.2-15.2 0-2.3-3.5-2.2-3.5 0zM183.4 34.8c0-10.4-1.3-20.8-1.3-31.2 0-2.3-3.6-2.3-3.6 0 .1 10.4 1.3 20.8 1.4 31.2 0 2.3 3.5 2.3 3.5 0zM204.6 34.6c-.6-10.2-.9-20.7-1-31 0-2.2-3.5-2.2-3.5 0 0 10.3.4 20.8 1 31 0 2.3 3.6 2.3 3.5 0z"/><path d="M179.6 4.1c5 4.3 8.5 11.2 12 16.8 1.6 2.8 2.9 5.8 4.8 8.4 1.2 1.7 3.4 3.9 3.7 6s3.8 1.3 3.5-1c-.3-1.8-1.8-3.5-2.9-5a87.4 87.4 0 0 1-5.3-8.7c-3.5-6.4-7.8-14.2-13.3-19-1.7-1.4-4.2 1-2.5 2.6zM213.2 35.1c.7-5 3.1-9.8 5-14.6 1.1-3.1 2-6.3 3.2-9.3 1-2.9 2.4-5.2 2.8-8.3.3-2.2-3.3-2.2-3.5 0-.4 2.9-2.3 6.3-3.4 9-1 2.5-1.7 5-2.5 7.6-1.7 5-4.2 9.5-5 14.7-.4 2.2 3 3.2 3.4 1z"/><path d="M221.3 3c2 5.7 4.7 11.3 6.7 17.1.9 2.7 1.5 5.5 2.4 8.2.8 2.1 2 4 2.7 6.2l3-1.8-.2-.1a1.8 1.8 0 0 0-2.5 2.5l.2.2a1.8 1.8 0 0 0 3-1.8c-.6-2.1-1.8-4-2.7-6.1-1-2.7-1.6-5.5-2.4-8.2-1.8-5.9-4.7-11.4-6.7-17.2-.8-2.1-4.2-1.2-3.5 1z"/><path d="M216 24.7c2.8 0 5.5 0 8.2-.2 2-.1 5-.2 6.3-2s-1.7-3.7-3-1.9c.3-.4-1.3.1-1.7.2-1.3.2-2.6.2-4 .3h-5.7a1.8 1.8 0 0 0 0 3.6zM242.8 2.8c-.7 5.3.4 10.3 1 15.5s0 10.3 1 15.5c.3 2.2 3.8 1.3 3.4-1-.9-4.7-.6-9.7-.8-14.5s-1.8-9.6-1.1-14.5c.3-2.3-3.1-3.2-3.4-1z"/><path d="M246.8 35.6c2.7.3 5.5.5 8.3.6 2.1 0 5.4.3 7-1.3s-.8-4-2.5-2.5c-.6.5-4.6.2-5.8.2-2.4-.1-4.8-.3-7.1-.6s-2.2 3.3 0 3.6z"/></svg>