<svg data-name="Layer 1" xmlns="http://www.w3.org/2000/svg" viewBox="0 0 320.9 36.7"><path d="M0 4.1C0 14 .6 24 .6 33.9a1.8 1.8 0 0 0 3.6 0c0-9.9-.6-19.9-.7-29.8a1.8 1.8 0 0 0-3.5 0z"/><path d="M1.8 5.3c3.2 0 6.8-.1 9.8 1.3s4.8 4.7 1.5 7-8.3.5-11 3.2a1.8 1.8 0 0 0 2.5 2.5c1-1 5.8-1 7.6-1.4a8.2 8.2 0 0 0 6.1-6C20.6 3 7.3 1.7 1.8 1.7a1.8 1.8 0 0 0 0 3.6z"/><path d="M3.3 19c4.8 0 13.4-.8 13.4 6.1 0 5.5-8.6 8.5-13 7.7-2.1-.4-3.1 3-.8 3.4 6.8 1.3 15.6-2.7 17.2-10 .8-3.7-1.5-7-4.3-9.2-3.2-2.3-8.8-1.7-12.5-1.6a1.8 1.8 0 0 0 0 3.5zM28 5c-1 9.3.8 18.6.9 28a1.8 1.8 0 0 0 1.3 1.6l-1-.9A1.8 1.8 0 0 0 31 35c4.3.4 11.2 2 15.1-.8 1.9-1.4.1-4.4-1.8-3.1-3.1 2.2-9.7.7-13.3.4l1.7 1.3v-.3a1.7 1.7 0 0 0-1.3-1.2h-.2l1.2 1.7c-.1-9.3-1.8-18.7-1-28 .3-2.3-3.2-2.3-3.5 0zM53.1 33.8c3.1-10.3 7.6-20 11.5-29.8l-3.2.4c6 9.2 7.9 20 10.7 30.3.6 2.2 4 1.3 3.4-1C72.6 23 70.6 12 64.5 2.7a1.8 1.8 0 0 0-3.3.4c-3.9 10-8.4 19.6-11.5 29.8-.6 2.2 2.8 3.1 3.5 1z"/><path d="M56.4 24.8c4.1.2 8.2-1 12.3-.4 2.2.4 3.1-3 .9-3.4-4.5-.8-8.7.5-13.2.3-2.3-.1-2.3 3.4 0 3.5zM102.8 2.4c-11.6-2.4-26 4.4-23.3 18C81.8 32 93 39.8 104.3 34.4c2-1 .3-4.1-1.8-3.1-8.5 4.2-16.5-1.4-19-9.7C79.6 10 91.8 3.7 101.8 5.8c2.2.5 3.1-3 1-3.4zM114.7 34.2c-.3-10.5 1.1-21.1-1-31.5-.5-2.2-4-1.3-3.5 1 2.1 10 .7 20.3 1 30.5 0 2.3 3.5 2.3 3.5 0z"/><path d="M116 20.9c5.5-5.2 12-10.9 15.2-17.8 1-2-2.1-3.8-3-1.7-3.2 6.6-9.4 12-14.7 17-1.7 1.5.8 4 2.5 2.5z"/><path d="M117.8 18.7c2.1 2.3 3.3 5.4 5 8.1s3.8 5.3 5.6 8c1.3 2 4.4.1 3.1-1.8-2-3-4.4-5.8-6.3-9-1.6-2.6-2.8-5.4-4.8-7.8-1.6-1.7-4 .8-2.6 2.5zM172.5 33.7c-4.3-4-7.7-8.8-11.2-13.5-2.2-3.1-4.6-6-6-9.7A7.4 7.4 0 0 1 155 8c-.1-3.5 9.3-1 4.2 3.9a47.5 47.5 0 0 1-5.5 4c-3.2 2.3-5.3 4.7-6.3 8.5s.9 6.8 3.6 9.1c3.2 2.7 6.6 1.9 10.3 1.2 6.1-1 11.5-10.3 11.4-16.1 0-2.3-3.6-2.3-3.5 0 0 4.7-4.2 11.3-8.9 12.7-5.3 1.7-10.7-1.2-9-7.4.8-3.2 4.5-5.3 7.1-7 2.2-1.5 6.5-4.3 6.2-7.5-.4-3-2.2-6-5.3-6.8-6.9-1.8-9 5-6.7 10.3 1.7 3.8 4.3 7 6.7 10.4a95.7 95.7 0 0 0 10.8 13c1.6 1.6 4.1-1 2.5-2.5zM186.6 4.4c3.6 9.6 4.5 19.9 6.8 29.9a1.8 1.8 0 0 0 1.7 1.3h.2a1.8 1.8 0 0 0 1.8-1.4c1.8-4.8 4.1-9.5 6.1-14.3 2.2-5 3-10.6 5-15.8l-3.5-.4c.4 10.6 3.9 20.7 7 30.8a1.8 1.8 0 0 0 3.3.4 14.3 14.3 0 0 0 1.3-2.6c1-2-2.1-3.8-3-1.8a14.3 14.3 0 0 1-1.3 2.6l3.2.4c-3-9.7-6.5-19.5-7-29.8a1.8 1.8 0 0 0-3.4-.5c-2 5.2-3.2 10.6-5 15.8-1.6 4.9-4.3 9.5-6.1 14.3l1.7-1.3h-.2l1.7 1.3c-2.4-10-3.3-20.3-6.9-29.9-.8-2.1-4.2-1.2-3.4 1z"/><path d="M215.4 34.9c4.8-10.5 9-21.3 11.1-32.7.4-2.2-3-3.1-3.4-1C221 12.4 217 23 212.4 33.2c-1 2 2.1 3.9 3 1.8zM250.8 3c-1 4.4-.3 8.8.1 13.3.6 5.8.1 11.8.1 17.7a1.8 1.8 0 0 0 3.5 0c0-5.5.2-11 0-16.4-.1-4.6-1.4-9.1-.2-13.7.5-2.2-2.9-3.1-3.5-.9zM231 4.5c0 5.2.2 10.4-.2 15.6-.3 4.8-1 9.5.2 14.4.5 2.2 4 1.2 3.4-1-1-4.4-.4-9 0-13.4.4-5.2.1-10.4.1-15.6a1.8 1.8 0 0 0-3.5 0z"/><path d="M234.2 19.7a52.2 52.2 0 0 0 17.6.8c2.2-.3 1.2-3.7-1-3.4a47 47 0 0 1-15.7-.8c-2.2-.5-3.2 3-1 3.4zM264.2 4.1c0 10.4-1.5 20.7.1 31 .3 2.3 3.8 1.3 3.4-1-1.5-10 0-20 0-30 0-2.3-3.4-2.3-3.5 0zM283.2 4c-1 4.3-.4 8.5-.3 12.7l.2 17.1a1.8 1.8 0 0 0 3.6 0l-.2-15.2c0-4.4-1-9.2 0-13.6.6-2.2-2.8-3.2-3.3-1z"/><path d="M273.1 6h23a1.8 1.8 0 0 0 0-3.5h-23a1.8 1.8 0 0 0 0 3.6zM302.3 5.2c.5 9.3 0 19-.5 28.3 0 2.3 3.5 2.3 3.6 0 .4-9.3 1-19 .4-28.3-.1-2.3-3.7-2.3-3.5 0z"/><path d="M304.1 6.3c4.8 0 9.5.3 14.2 0 2.3-.1 2.3-3.7 0-3.5-4.7.3-9.4 0-14.2 0a1.8 1.8 0 0 0 0 3.5zM304 20c4.5.5 9 .1 13.5 0 2.3 0 2.3-3.6 0-3.5-4.5 0-9 .4-13.5 0-2.3-.3-2.3 3.3 0 3.5zM303.6 35.3c5.1.5 10.4 0 15.6 0a1.8 1.8 0 0 0 0-3.5c-5.2 0-10.4.5-15.6 0-2.3-.3-2.3 3.3 0 3.5z"/></svg>