<svg data-name="Layer 1" xmlns="http://www.w3.org/2000/svg" viewBox="0 0 208.7 36.2"><path d="M10.4 2.5c0 5.5 1 11 1.2 16.5.3 7.2-1.8 12.4-10 11.7-2.2-.2-2.2 3.3 0 3.5C20.5 35.8 13.9 13.7 14 2.5c0-2.3-3.5-2.3-3.5 0zM23.4 33.9C28 24.4 29.8 14 33.3 4l-3.3.5c6 9.2 9.6 19.6 12.5 30a1.8 1.8 0 0 0 3.4-.9 112 112 0 0 0-12.8-31 1.8 1.8 0 0 0-3.3.5c-3.3 9.6-5 19.7-9.5 29-1 2 2 3.8 3 1.8z"/><path d="M27 24c4.3-.4 8.8-1.2 13-.4 2.2.3 3.2-3 1-3.5-4.7-.7-9.3 0-14 .3-2.2.3-2.2 3.8 0 3.6zM55.7 33.4c0-10.2 1-20.4 1-30.6L55 4.6a27.2 27.2 0 0 1 8.4-.1c4.4.7 5 4.3 5 8-.2 6.4-10 4.8-14.2 6-2.2.8-1.2 4.2 1 3.5 6.4-2 16 0 16.7-9.5C72.7 2 63.7-.1 55 1a1.8 1.8 0 0 0-1.8 1.7c0 10.2-1 20.4-1 30.6 0 2.2 3.4 2.2 3.5 0zM77.2 33.5c3.9-10 7.7-20 10.8-30.2l-3.2.4a76 76 0 0 1 10.1 30.8c.3 2.2 3.9 2.2 3.6 0A80.2 80.2 0 0 0 87.8 1.9a1.8 1.8 0 0 0-3.2.5c-3.1 10.2-7 20.2-10.8 30.1-.9 2.2 2.6 3 3.4 1z"/><path d="M80 24.6c4.1-.7 8.4-1.4 12.5-.7 2.3.4 3.2-3 1-3.4-4.8-.8-9.6-.1-14.4.7-2.2.4-1.3 3.8 1 3.4zM111 33.9c.6-10.2.8-20.5 1.6-30.7l-3.3.9c2.3 5.4 6 10 8.6 15.3a68 68 0 0 0 9.3 15.2c1.2 1.3 3 .1 3-1.2 1.2-10.5-.8-21.2-.5-31.7 0-2.3-3.5-2.3-3.6 0-.2 10.5 1.7 21.2.6 31.7l3-1.3c-3.8-4.3-6.3-9.4-8.8-14.5s-6.2-9.9-8.5-15.3c-.8-1.8-3.2-.6-3.3.9-.8 10.2-1 20.5-1.7 30.7-.2 2.3 3.3 2.3 3.5 0zM137.4 2.8c0 5.3.2 10.5.3 15.7l.1 10V32c0 .5-.3 2.2.2 1.2-1.1 2 2 3.8 3 1.8.6-1 .4-2.5.4-3.6l-.1-9.7c-.1-6.3-.4-12.6-.4-18.9a1.8 1.8 0 0 0-3.5 0z"/><path d="M139.5 4.2c3.4 0 6.8.3 10.2.5l3.6.1h1.5c.8.1.6.4-.1 0l.9-3.4h-.4c-2.3 0-2.3 3.6 0 3.6h.4a1.8 1.8 0 0 0 .8-3.3c-1.2-.9-4.1-.5-5.5-.6-3.8-.1-7.6-.4-11.4-.4-2.3 0-2.2 3.5 0 3.5zM139.5 18.8l6.9-.1h5.4c.6 0 1.2.4.6-.1 1.7 1.6 4.2-1 2.5-2.5-1.3-1.3-4.2-1-5.9-1h-9.4a1.8 1.8 0 0 0 0 3.6zM139.5 35.9l10.5.3c2.3 0 5.4.1 7.2-1.6s-.9-4-2.5-2.5c-1.3 1.2-5.5.6-7 .5l-8.1-.3c-2.3 0-2.3 3.6 0 3.6zM178.4 1.9c-7.3-2-19.4 1.8-14.5 11.4 1.9 3.7 6.8 5.8 10.1 7.8 2.5 1.6 5 3.4 3.1 6.5-2.6 4.4-9 3.4-12.8 1.6-2.1-1-4 2.1-1.8 3 5 2.3 10.7 3 15.4-.3 3.2-2.3 4.6-6.5 2.4-10-2.5-3.9-7.8-5.5-11.4-8.3-2.8-2.3-3.6-6 0-8 2.5-1.3 6-1 8.5-.4 2.2.6 3.2-2.8 1-3.4zM188.8 2.8c-.1 7 .4 13.9.7 20.9v6.9c0 .2-.4 2 .2 1.2l2.1-.3.3.2c-1-2-4.1-.2-3 1.8a2.3 2.3 0 0 0 1 1 1.8 1.8 0 0 0 2.1-.2c1.8-2.1 1-6.5 1-9-.2-7.5-1-15-.8-22.5 0-2.3-3.5-2.2-3.6 0z"/><path d="M190.4 4.5a47.6 47.6 0 0 0 7.6.4c2 0 5.2-.5 7 .6 1.8 1.2 3.6-1.9 1.7-3s-4.3-1-6.4-1.2c-3 0-6 .3-9-.2-2.2-.3-3.1 3.1-.9 3.4zM191.3 19.5l6.1-.8 3.4-.3h1.4c1.1 0 .8.4.2-.5 1.3 2 4.4.1 3-1.8s-3.8-1.3-5.6-1.1c-2.9.2-5.7.6-8.5 1-2.2.3-2.3 3.8 0 3.5zM190 34.7a32 32 0 0 0 17.4 0c2.2-.7 1.3-4-1-3.4a28.6 28.6 0 0 1-15.4 0c-2.2-.7-3.1 2.7-1 3.4z"/></svg>