<svg data-name="Layer 1" xmlns="http://www.w3.org/2000/svg" viewBox="0 0 184.9 36.8"><path d="M3.5 34l.2-30.5a1.8 1.8 0 0 0-3.5 0L0 33.9a1.8 1.8 0 0 0 3.5 0zM32.8 34c-.5-5.3-1.5-10.5-2.5-15.7-1-4.7-1-9.4-2.6-14-.7-2.1-4.1-1.2-3.4 1 1.4 4 1.7 8.2 2.3 12.4.7 5.4 2.2 10.7 2.7 16.2.2 2.3 3.8 2.3 3.5 0z"/><path d="M17.6 33.2c3.2-9.4 6-19 8.8-28.5.6-2.2-2.8-3.1-3.4-1-2.8 9.7-5.6 19.2-8.8 28.6-.7 2.2 2.7 3.1 3.4 1z"/><path d="M16.7 31.9C12.2 22.2 8.8 12 4.8 2.2 4 .2.6 1.1 1.4 3.2 5.5 13.4 9 23.7 13.6 33.7c1 2 4 .2 3-1.8zM51.8 1.1c-5-.1-9.1 4.2-11.8 8.1-3 4.3-2.3 10.5-.6 15 3.4 9 14.4 14 22.6 7.7 6.7-5.2 6.4-15.1 3-22.3-2.7-6-8.8-12.5-15.8-8.2-1.9 1.2-.1 4.2 1.8 3 4.8-3 8.7 2.4 10.7 6.3 2.4 4.8 3.1 11.3.3 16-4.6 7.7-14.6 4.5-18.4-1.8A15.3 15.3 0 0 1 42 13.6c1-3.9 5.6-9 9.8-9 2.3.1 2.3-3.4 0-3.5zM75.9 3.5c.9 10-1.7 20.1.3 30.1l3.3-1.3a9.2 9.2 0 0 1-.9-1.7c-.9-2-4-.3-3 1.8a9.2 9.2 0 0 0 .8 1.7c1 1.8 3.6.5 3.2-1.4-2-9.7.7-19.5-.2-29.2-.2-2.3-3.7-2.3-3.5 0z"/><path d="M78 5c5 0 9.8.3 14 3.8A14.8 14.8 0 0 1 96.7 19c.7 9.3-9.5 16.8-18.1 13.2-2.1-.8-3 2.6-1 3.5 10.9 4.4 21.8-4.8 22.6-15.5.4-4.9-1.8-9.6-5-13.2C91 2 84.2 1.4 78 1.4A1.8 1.8 0 0 0 78 5zM107.6 4c1 6 .8 12.3.8 18.5 0 3 .7 7 0 9.8h3.5v-.2c-.8-2.1-4.2-1.2-3.5 1v.2c.6 1.5 3 1.8 3.5 0 .7-3.4 0-7.4 0-10.8 0-6.5.2-13-.9-19.5-.4-2.3-3.8-1.3-3.4 1z"/><path d="M109.2 5.4a58.5 58.5 0 0 1 9.5-.1c1.6 0 5 .7 6.5-.3 1.9-1.2.1-4.3-1.8-3 .6-.5.6-.3 0-.2h-6.8a51.9 51.9 0 0 0-8.3.2c-2.3.4-1.3 3.8 1 3.5zM110.3 19.3a47.6 47.6 0 0 1 13.4-.5c2.3.3 2.3-3.3 0-3.5a50.7 50.7 0 0 0-14.3.6c-2.3.5-1.3 3.9 1 3.4zM109.1 34.3a36.4 36.4 0 0 0 9.2.8c2.1 0 6.2.3 7.8-1.5s-1-4.2-2.5-2.5c-.8.8-4.9.4-6 .4a30 30 0 0 1-7.6-.6c-2.2-.6-3.1 2.8-1 3.4zM137.2 34.5c0-6.2.3-12.5.5-18.8 0-2.7 1.9-11.8-.8-13.8C135 .6 133.2 3.6 135 5c-1.2-.9-.8-1.6-.8 0v3.3l-.2 9.6-.5 16.7c0 2.3 3.6 2.3 3.6 0z"/><path d="M136.8 5.5c4.5 0 14.3-.1 12.2 7.2-1.2 4-7.5 6.5-11.2 5.4-2.2-.6-3.1 2.8-1 3.4 6.1 1.8 14-2.5 15.8-8.5a8.5 8.5 0 0 0-3.6-9c-3.7-2.3-8-2-12.2-2-2.3 0-2.3 3.5 0 3.5z"/><path d="M144.9 21.6c.5-.2 2.8 5.6 3 6.4.7 2.2 1.3 4.5 1.8 6.7s4 1.3 3.5-.9c-1-4-3.6-18.3-10.2-15.2-2 1-.2 4 1.8 3zM163.3 34.5c-.5-10.4 1.2-20.9-.7-31.2-.4-2.3-3.8-1.3-3.4.9 1.8 10 0 20.2.5 30.3.1 2.3 3.7 2.3 3.6 0zM185 34.3c-.2-6-.8-12-1-18-.1-4.7.7-9.3-.5-13.8a1.8 1.8 0 0 0-3.5 1c1.3 4.5.4 9.4.5 14.2.2 5.5.8 11 .9 16.6 0 2.3 3.5 2.3 3.5 0z"/><path d="M159.7 5l6 6.6c2.6 3 4.3 7 6.4 10.4 2.6 4.7 6.8 8.5 9.2 13.2 1.1 2 4.2.2 3-1.8-2.6-5.2-7-9.5-10-14.6a106.3 106.3 0 0 0-12.1-16.3c-1.5-1.7-4 .8-2.5 2.5z"/></svg>