<svg data-name="Layer 1" xmlns="http://www.w3.org/2000/svg" viewBox="0 0 278.1 36.8"><path d="M9.7 2.8c-17.1 6-10 38 9.2 31C36.3 27.6 22.5-5.8 10.2 3c-1.8 1.3 0 4.4 1.8 3 7.4-5.3 18.9 19.8 5 24.8S-1.7 10.5 10.5 6.2c2.2-.7 1.2-4.2-1-3.4zM35.7 2.5v19.3c0 3.8-1 7.9 1.8 11s11.4 3 15.1 2c2.2-.5 1.3-4-1-3.3-3.2.8-12.2 1-12.5-3.8-.4-8.3.2-16.8.2-25.2a1.8 1.8 0 0 0-3.6 0zM62.4 5.2V3.8c0-1.9-3.2-2.4-3.5-.4-.7 4.6-.2 9.4 0 14l.3 8.5c0 .9.4 4.5-.2 5-1.7 1.5.8 4 2.5 2.6 2.5-2.2 1.3-9 1.2-11.7-.2-5.7-1.2-11.8-.4-17.5L58.8 4v1.3a1.8 1.8 0 0 0 3.6 0z"/><path d="M61 6.2c8.4-1.6 19.8 4.8 18.4 14.4-1 7.3-10.7 16.3-17.9 10.7-1.7-1.5-4.2 1-2.5 2.5 9.4 7.4 20.7-1.7 23.6-11.2C86.5 9.9 71 .6 60.2 2.8c-2.3.4-1.3 3.8.9 3.4zM120.7 3.4c-5-5.6-17.3-2.8-17.3 5.6 0 5 3.1 7.8 7.1 10 3 1.7 9.5 4.8 5.7 9-3.5 3.9-8.8 1.2-12.5-.4-2.1-.9-3 2.6-1 3.4 5 2.1 8.7 3.5 13.9 1 3.3-1.5 5.6-6 3.7-9.4-2.6-4.7-7.7-5.7-11.6-9-6.3-5.5 4.5-13.3 9.5-7.7 1.5 1.7 4-.8 2.5-2.5zM150 30.6c-7.9 1.4-18.3-1.4-18.3-11 0-3.7 1.8-7.4 4-10.2 3.8-4.7 9.1-4 14.4-2.8 2.2.6 3.1-2.8.9-3.4-5.9-1.3-11.2-2-16 2a20.1 20.1 0 0 0-6.8 13.2c-1 12.8 12 17.5 22.8 15.6 2.3-.3 1.3-3.8-1-3.4zM157.7 2.7v31.7a1.8 1.8 0 0 0 3.5 0V2.7a1.8 1.8 0 0 0-3.5 0zM178 2.5c0 6.2-.5 12.4-.2 18.6l.2 6.5c0 1.2.7 4.3 0 5.4-1.1 2 2 3.8 3.1 1.8 1.7-3 .4-8.5.3-11.6-.3-7 0-13.8.1-20.7 0-2.3-3.5-2.3-3.5 0z"/><path d="M158.8 19.4c3.3 1.5 7.5 1.5 11 1.8 2.4.1 8.1 1.1 9.6-1.5a1.8 1.8 0 0 0-3-1.7c.2-.5.6-.5 0-.3a12.5 12.5 0 0 1-2.2.1 71 71 0 0 1-5-.2c-2.8-.2-6.2-.1-8.7-1.2-2-.9-3.8 2.2-1.7 3zM204 1.4c-15.5-2.8-21.3 23.3-9.3 30.7 8.9 5.5 19.3-.2 23.2-8.7a15.5 15.5 0 0 0-.5-14.4c-2.8-4.8-8-6.5-12.5-8.8-2-1-3.9 2-1.8 3 7.6 3.9 14.9 7.4 12 17.5a13 13 0 0 1-19.3 7.9c-8.3-5.1-3.4-25.7 7.3-23.8 2.2.4 3.2-3 1-3.4zM233.6 2.3c-9.2.5-10.7 12-10.4 19.4.4 8.8 7 14.4 15.6 13.1 9-1.3 14.2-12.3 12.8-20.4S241.6-1.7 233.2.6A1.8 1.8 0 0 0 234 4c6.7-1.8 11.8 4.4 13.8 10.1 2.3 6.7-2.4 14.6-8.8 17C223.5 37 223 6.4 233.6 5.8c2.3-.1 2.3-3.7 0-3.6zM258.9 2.9a285 285 0 0 0-1.1 14.1c-.3 5.5.5 10.9.7 16.4a1.8 1.8 0 0 0 1.3 1.7c4.6.8 13.3 3.3 17.5.4 1.9-1.3.1-4.4-1.8-3.1-3.2 2.2-11.3-.1-14.8-.8l1.3 1.7c-.1-4.9-.8-9.7-.7-14.6 0-5.3.6-10.6 1-15.8.3-2.3-3.3-2.3-3.5 0z"/></svg>