<svg data-name="Layer 1" xmlns="http://www.w3.org/2000/svg" viewBox="0 0 1684.8 1519.7"><path d="M139.6 1330.3c27.2 21.2 62 71.5 102 52.7 21.3-9.9 21.5-34.7 13.6-53.5-12-29-41.2-44.2-64.7-62.7-5-4-12.2 3.3-7 7.3 19.5 15.5 43.5 28 57.3 49.4 11 17 16 43.3-7.6 52.2-17 6.4-35.9-8.3-48.1-18.3-13.3-10.8-24.8-23.8-38.4-34.4-5-4-12.1 3.3-7 7.3zM307.8 1308c-19.2-12-31.6-31.2-49-45-6-4.6-11.9-9.2-17.5-14.2a62.7 62.7 0 0 1-8.4-8.7c-2.9-3.7-2-2.4 2.4-1.6a155.5 155.5 0 0 1 43.6 18c12.7 7.1 28.4 19.5 43.7 18.8 34-1.6-25-71-29.6-76.9a69 69 0 0 1-10.6-19.4q-3.2-2.2.5-.9a33.6 33.6 0 0 1 6.8 2.8 182.6 182.6 0 0 1 23.7 14c17.1 11.8 33.4 25 50 37.6 5.1 3.9 12.2-3.4 7-7.3-17.4-13-34.4-26.5-52.1-39-8.1-5.7-33.1-25.4-43.6-16.5-15.1 13 21.8 49.3 28.6 58.4a213 213 0 0 1 14.3 21.6 33.6 33.6 0 0 1 5.3 14.5c.2 3.8-14.4-2.7-15-3-13-6-78.7-50.1-86.8-26.1-4.2 12.1 20.3 27.5 27.7 33.2 19.2 14.9 33.2 35.6 54 48.7 5.5 3.5 10.4-5.4 5-8.9zM386.8 1189.1c-8.2-.3-15.7-9.1-21.1-14.4a283.2 283.2 0 0 1-19.8-22.5c-9.6-11.7-20.2-23-29.2-35.4a46.4 46.4 0 0 1-6.1-10.6c-1.5-3.9 6.5-2.2 8.8-2 9.7.6 19.1 4 28.6 6 28.1 5.4 56.5 9.6 83.8 17.8a5 5 0 0 0 5.7-2.4l.3-.6a5 5 0 0 0-2-6.9l-1.3-.6c-5.9-2.7-11 6.1-5 8.8l1.4.7-1.9-7-.3.6 5.7-2.5c-32.5-9.7-66.3-13.2-99.1-21.2-11.8-2.8-43.8-7.1-33.3 15.2 8 17 23.4 30.8 35.1 45.3s29.2 41 49.7 41.8c6.5.3 6.5-9.8 0-10.1z"/><path d="M359 1167c9.2-19.3 22.2-36.4 31.3-55.7 2.7-6-6-11-8.9-5-9 19.3-22 36.6-31.2 55.7-2.8 6 6 10.9 8.8 5zM378.5 975.2a63.7 63.7 0 0 0-7 75.6c13.1 20.1 42.5 39.3 67 28.6 18.8-8.2 47.8-44 28-63.9-7.4-7.4-23.8-16.8-35-15.6-11.8 1.2-15.5 24.5-19.8 33-3 5.9 5.8 10.9 8.8 5 4.7-9.2 8-19 12.5-28.4-.8 1.5 4.3 1.6 7.2 2.6 7.2 2.4 15.6 5.8 20.2 12.2 7 9.5-3 23.9-8.7 31.4-7 9-15.5 15.8-27.1 16.4-19.8 1.2-38.4-15.8-47.6-31.7-9.9-16.9-4.2-44.4 8.8-58.2 4.5-4.8-2.9-11.8-7.2-7zM419.2 898.3c-8.7 13.4-11.3 29.5-19.2 43.3a5.1 5.1 0 0 0 3.2 7.4 240.7 240.7 0 0 1 62 29.2c7.5 4.7 23.1 22.1 33.2 19.3s12-21.6 16.4-29.4c5.5-9.5 17-22.3 13.5-34.2-1.8-6.3-11.6-3.5-9.8 2.7 2.5 8.6-10.7 22.9-14.5 30.2a94.2 94.2 0 0 0-4.8 12.6c-3.4 9.6-6 7-13 1.5a237.3 237.3 0 0 0-80.4-41.7l3.1 7.4c7.9-13.8 10.5-30 19.1-43.4 3.6-5.5-5.3-10.4-8.8-5z"/><path d="M453.6 963.9a96.9 96.9 0 0 0 14.3-20c3.9-6.3 9.8-15.1 8.3-23-1.2-6.4-11-3.6-9.7 2.8.7 3.5-6 12.8-8.2 16.4a80.9 80.9 0 0 1-12 16.7c-4.7 4.5 2.6 11.6 7.3 7zM78.5 1377.4c10.5 16.8 27.2 29 40 44 10.5 12.2 22.9 30 38.8 35.3 3.8 1.3 7.3-1.6 9.5-4.3a85.4 85.4 0 0 1 14.7-16.1c6.6-5.1 20.7-12 21.7-21.3.7-6.5-9.5-6.4-10.1 0 0-1-6.8 4.9-7.9 5.7l-12 9.3a47.8 47.8 0 0 0-9.6 9.6c-1.7 2.4-3.4 5-5.2 7.3.4-.4-7.2-5.7-8-6.4-11.5-9.1-20.5-21.3-30-32.3-10.7-12.3-24.4-21.8-33.1-35.7-3.5-5.6-12.2-.3-8.7 5.2zM1.7 1422.5c15.8 34 44.2 60.1 59 94.6 2.7 6 11.3.6 8.8-5.3-15-34.4-43.3-60.6-59.1-94.5-2.8-6-11.4-.7-8.7 5.2z"/><path d="M8.5 1425.5c13.4-16.3 45.3-28.2 60.3-7.5 13 18-12.2 42.4-27.1 50-5.8 3-.7 11.8 5.2 8.8 22.6-11.6 46.6-41.8 28.9-66.4-18.1-25-58.3-11.7-74.6 8.1-4 5 3.2 12 7.3 7zM471.6 818.3c10.8-25.4 25.5-49.3 33.8-75.6 2-6.3-7.8-8.8-9.8-2.6-8.2 25.6-22.4 48.6-32.8 73.3-2.5 6 6.3 11 8.8 5z"/><path d="M485.4 784.6c31.7 16 66 26.1 97.2 43.2 5.7 3.2 10.7-5.6 5-8.8-31.3-17.1-65.5-27.2-97.2-43.2-5.8-3-10.8 5.9-5 8.8zM611.7 789.8c-14.4-14.2-25.9-31-41.2-44.2s-33-26.2-43-44.8l-5.6 7.5c42 5.6 84.4 8.5 125.8 17 6.4 1.4 9-8.4 2.6-9.7-41.5-8.6-84-11.5-125.8-17a5.1 5.1 0 0 0-5.7 7.5c9.9 18.1 26.2 31 41.7 44.2 16.5 14.1 28.7 31.7 44.1 46.8 4.7 4.6 11.7-2.7 7-7.3z"/><path d="M573.2 760.4c7.4.7 13.2-12 16.2-16.9 5.2-8.6 9.7-17.7 14.6-26.6 3.1-5.8-5.6-10.7-8.9-5-3.9 6.9-7.4 14-11.3 20.9-2.3 4-4.7 8-7.3 12a47.8 47.8 0 0 1-2.8 3.9c-1.6 1.9-2.5 1.2-.6 1.4-6.5-.5-6.4 9.6 0 10.1zM558.6 658.3c12.5-25.3 36.7-43.2 45.2-70.7 1.8-6.1-8-8.7-9.8-2.5-8.1 26.4-32.1 44-44.2 68.3-2.8 5.8 6 10.8 8.9 5zM627.4 565.6c2.7-7.9 13.1-13.2 19.4-17.7a118 118 0 0 0 15.3-12.8c7.9-7.9 20.9-18.7 23.3-30 1.3-6.4-8.5-9-9.8-2.6s-8.9 13-13.3 17.7a130.7 130.7 0 0 1-15.7 15.3c-10.2 8-24.5 14.7-29 27.6-2.1 6.2 7.7 8.6 9.8 2.5z"/><path d="M581.8 629.3c30.6 15.8 60.7 33 88.4 53.6 5.1 3.8 12.2-3.4 7-7.3a648 648 0 0 0-90.5-55.2c-5.8-3-10.7 5.8-5 8.9zM652.8 539.1c9.7 14.1 23.7 23.8 35.8 35.5 13.5 13 24.6 28.2 38.6 40.7 4.8 4.3 11.8-3 7-7.3-13-11.5-23.4-25.4-35.5-37.7s-27.4-22-37.3-36.4c-3.6-5.4-12.3-.1-8.6 5.3zM740.7 452.8c-39.2 18.1-37.4 68.5-8.5 95.2 21.5 19.6 63.8 22.9 82-2.7 14.3-20.3 5-50.5-7.4-69.1-14.3-21.8-39.6-34.8-65.3-25.6-6.1 2.2-3.5 12 2.7 9.7 39.2-14.2 73.7 34 65.5 70-5.9 25.6-39.4 26.5-59 17.7-35-15.7-42.2-69.2-4.7-86.5 5.9-2.8.6-11.4-5.3-8.7zM863.6 380.2c-13.3 3.8-29 8.7-36.6 21.4a49.8 49.8 0 0 0-4.6 38.9c6.1 24.9 28.2 47 54.3 49 31.2 2.3 48.9-32 48.7-58.8-.3-29.4-35.2-55.2-63.4-51.7-6.4.9-6.4 11 0 10.2 23.7-3 51.4 17.5 53.2 41.5s-16 52-42.3 48.3c-19.4-2.8-34-21.2-40-38.7a41.1 41.1 0 0 1 1.1-30.8c5.7-12.2 20.5-16.2 32.3-19.5 6.3-1.8 3.5-11.6-2.8-9.8zM987 303.8c7.5 29.1 22.2 60 42 82.6 16.8 19.3 44.3 10.6 58.4-7.1 15.1-18.8.4-51.5-7-70.9a281.2 281.2 0 0 0-12.5-27.7c-3.3-6.5-7.6-15.7-15-18.1-6.3-2-8.8 7.7-2.6 9.7 4.3 1.5 8.4 12.4 10.2 16.2 3.3 6.5 6.3 13.2 9 20 6.5 16.5 20.2 45.3 11.2 62.5-4.5 8.5-14.7 13.9-23.6 16.2-12.7 3.3-21.7-7.4-27.8-16.7a230.9 230.9 0 0 1-32.8-69.4c-1.6-6.4-11.4-3.6-9.7 2.7zM1148.2 350c-18.7-29.6-21.5-66-40-95.8l-5.5 7.5c22.3 9 42.1 21.2 62 34.5 7.3 5 15 9.3 22.4 14 5.3 3.4 16.2 8.4 18.8 14.4s12.3 3.3 9.8-2.7c-6-14-27.2-22.7-39.4-30.3-23.3-14.4-45.2-29.3-71-39.7-4.3-1.7-7.7 4-5.6 7.6 18.4 29.8 21.2 66.1 39.9 95.8 3.5 5.5 12.1.3 8.7-5.3z"/><path d="M1215.5 321.8c-10.8-17.5-17.8-38.7-25.9-57.6-6.4-15-12.3-30.8-20.4-45-3.2-5.8-12-.6-8.7 5.1 8.7 15.2 14.9 32 21.7 48.1 7.8 18.1 14.3 38 24.6 54.6 3.5 5.5 12.1.3 8.7-5.2zM1203 208.1c14.1 32.7 34.3 62.5 46.7 96 2.2 6 12 3.4 9.7-2.7-12.7-34.4-33.3-65-47.8-98.5-2.6-6-11.2-.7-8.7 5.2zM1233.1 190.3c10.3 14.4 26 24 37.4 37.7 13 15.8 24.1 33 39.7 46.6a5.1 5.1 0 0 0 8.4-2.5c11.3-39.1-3.5-81.2-9.4-120-1-6.3-10.8-3.5-9.8 2.8 5.7 37 20.2 77.5 9.4 114.8l8.5-2.5c-14.1-12.4-24.9-27.6-36.4-42.3a174.2 174.2 0 0 0-17-19.1c-7.4-7-16-12.3-22-20.8-3.8-5.3-12.5 0-8.7 5.2zM1382.7 123.2a135.1 135.1 0 0 0-37.3 17c-9 6.2-10.3 12.4-7 22.3 4.4 12.7 11 24.8 16.9 36.8 7.7 15.9 15 32 22.8 47.7a5.1 5.1 0 0 0 7 1.7c16.6-9.6 35.3-14.8 52-24.2 5.7-3.2.5-11.9-5.3-8.6-16.6 9.2-35.3 14.5-51.9 24l7 1.8a2942.6 2942.6 0 0 1-33.1-68.9 153.4 153.4 0 0 1-6.2-15.1c-2-5.9 0-6.8 5.4-10.4a118.4 118.4 0 0 1 32.6-14.6c6.3-1.8 3.5-11.6-2.7-9.7z"/><path d="M1360.5 195.8c15.7-6 32-11.7 46.8-19.7 5.7-3.2.5-11.9-5.2-8.7-14 7.6-29.4 13-44.3 18.6-6 2.3-3.4 12 2.7 9.8zM1545.7 44.3c-30-2.6-61.5 36.7-29.9 57 18.3 11.7 40.7-1.7 58.6 11.9 22.8 17.3-17.8 44.9-34.6 43.8-6.5-.5-6.4 9.7 0 10 28.1 1.9 68.5-35.5 41.6-61.1-15.8-15-36.1-6.1-54.4-10.8-12.8-3.3-17.6-14-11.4-25.8a32.3 32.3 0 0 1 30-15c6.5.5 6.4-9.6 0-10.1zM1622 .4a134.6 134.6 0 0 0-36 19.6c-8.7 6.8-10 12.7-5.9 22.5 12 28.2 30 55.2 45.3 81.5a5 5 0 0 0 7 1.7c15.8-10.7 34.1-17.2 50.1-27.7 5.5-3.6.2-12.3-5.2-8.7-16 10.5-34.3 17-50.2 27.7l7 1.7q-19.4-33-37.8-66.4a153.7 153.7 0 0 1-7.2-14.6c-2.4-5.7-.8-6.8 4.2-10.7a119.1 119.1 0 0 1 31.5-16.9c6-2.2 3.4-12-2.7-9.7z"/><path d="M1605.4 74a359.7 359.7 0 0 0 45.2-25.2c5.4-3.6.2-12.2-5.2-8.7a359.7 359.7 0 0 1-45.2 25.3c-6 2.7-.7 11.4 5.2 8.7zM1412.9 112.2c8.1 15 14.8 30.6 21.6 46.1 7.6 17.5 17.8 33.6 25.7 51 2.7 6 11.3.7 8.7-5.2-7.4-16-17-31-24.1-47.2-7.5-16.8-14.4-33.8-23.2-50-3.1-5.7-11.9-.5-8.7 5.3z"/><path d="M1418 115.2c20.7-7.2 49.5-26 57.8 6.3 5.4 20.6-32.4 22.3-39.7 37.2-2.8 6 6 10.8 8.9 5 5.2-10.6 23.2-12.8 32-20 11-9 10.7-21.4 5.5-33.7-12.9-31-45.5-12-67.2-4.5-6.1 2.2-3.4 12 2.7 9.8z"/><path d="M1469.3 148.6c14.7-10.3 37.6 27.8 46.9 35.8 5 4.3 12-3 7-7.3-13.6-11.7-36.5-53-59.1-37.1-5.4 3.7-.1 12.3 5.2 8.6z"/></svg>