<svg xmlns="http://www.w3.org/2000/svg" width="595.28" height="841.89"><path d="M365.84 444.17l.02-1.06c-11.05-.19-19.5-1.07-27.43-2.88-4.25-.97-8.54-2.26-12.69-3.5-4.8-1.43-9.76-2.92-14.78-3.96-29.13-6.03-53.63.24-72.85 18.64-.9.28-1.78.67-2.64 1.2l1.1 1.8c.4-.23.8-.43 1.2-.6l.46.45 1-.97c3.8-1.02 8.04.1 11.86 1.12l.24.06c2.16.57 4.45 1.11 6.67 1.64 3.01.7 6.13 1.44 9.06 2.29.9.26 1.79.55 2.67.85-.69.66-1.43 1.43-2.04 2.06-.35.36-.64.67-.84.86l-1.17 1.15c-1.47 1.43-2.99 2.9-4.33 4.51a46.77 46.77 0 0 1-3.51 3.7c-1.02 1-1.98 1.94-2.87 3.02-1.65 2-8.26 7.85-10.28 9.3l1.24 1.73c2.2-1.58 8.87-7.48 10.68-9.68.81-.99 1.74-1.89 2.71-2.84a49.7 49.7 0 0 0 3.66-3.87 58.31 58.31 0 0 1 4.18-4.35l1.18-1.15c.21-.2.52-.53.88-.9.81-.85 1.97-2.05 2.76-2.73 2.4.9 4.8 1.9 7.26 2.96l1.96.83a24.2 24.2 0 0 0 3.96 1.85c-.67 1.83-1.23 3.8-1.14 5.51.1 1.65-.28 3.46-.64 5.2-.12.57-.24 1.14-.34 1.7-.62 3.38-1.33 6.72-2.13 9.92l-.1.4c-1.16 4.76-2.21 7.72-3.11 8.82l1.64 1.35c1.48-1.8 2.67-6.11 3.54-9.67l.1-.38c.8-3.24 1.53-6.63 2.15-10.07l.33-1.64c.39-1.87.8-3.82.69-5.74-.08-1.38.45-3.17 1.04-4.76 1.96.53 4.04.85 6.2.91 1.84.2 3.78.32 5.86.32a73 73 0 0 0 3.31-.08c.22 1.52.85 3.08 1.43 4.5l.55 1.39 1.1 3.1c.44 1.27.88 2.54 1.35 3.8 2.52 6.75 3.77 12.49 3.93 18.05l2.12-.06c-.16-5.8-1.45-11.76-4.06-18.73-.46-1.25-.9-2.5-1.34-3.76l-1.1-3.13-.58-1.45a19.6 19.6 0 0 1-1.27-3.85c21.27-1.4 43.66-9.46 61.77-22.31l-.62-.87zm-40.7-5.4c4.18 1.25 8.5 2.54 12.82 3.53 7.25 1.66 14.94 2.55 24.56 2.85-17.3 11.55-38.15 18.78-58 20.08 7.22-3.05 12.17-9.19 12.17-16.25 0-6.01-3.58-11.36-9.09-14.7l2.93.57c4.93 1.02 9.85 2.5 14.6 3.92zm-41.01 24c-.66-.26-1.3-.54-1.95-.81-5-2.95-8.26-7.66-8.26-12.98 0-8.92 9.12-16.17 20.32-16.17 11.2 0 20.33 7.25 20.33 16.17s-9.12 16.16-20.33 16.16l-.82-.03c-3.4-.4-6.43-1.15-9.3-2.33zm-25.64-8.73c-2.2-.52-4.48-1.06-6.61-1.63l-.24-.06c-2.96-.78-6.35-1.68-9.71-1.57a70.18 70.18 0 0 1 41.44-17.8c-6.9 3.13-11.57 9.13-11.57 16 0 3.79 1.42 7.31 3.85 10.23a79.12 79.12 0 0 0-8-2.85 200.8 200.8 0 0 0-9.16-2.32zM187.86 445.64c2.2-3.64 4.48-7.41 6.81-11.05l.57-.88c3.1-4.83 6.04-9.39 7.88-15.05.39-1.18.82-2.43 1.28-3.72 1.38-3.96 2.95-8.45 3.43-12.34l-2.11-.26c-.45 3.66-1.98 8.04-3.33 11.9-.46 1.3-.9 2.57-1.29 3.76-1.75 5.4-4.62 9.85-7.65 14.56l-.56.88a466.78 466.78 0 0 0-6.85 11.1c-3.72 6.17-7.57 12.55-11.82 18.47-10.13 14.09-7.31 21.18-3.17 24.64 2.8 2.35 6.15 2.53 9.38 2.71 1.47.08 2.85.16 4.15.43 4.78 1 6.9 3.88 9.38 7.84l.38-.24.66.77a.82.82 0 0 1-.7.17c.17.06.33.09.48.09.24 0 .47-.08.67-.23.34-.25.5-.65.48-1.17l-.02-.28-.14-.24c-2.68-4.27-5.17-7.63-10.75-8.79-1.46-.3-3-.39-4.47-.47-3.02-.17-5.87-.32-8.13-2.22-5.02-4.2-3.84-11.52 3.52-21.76 4.3-6 8.18-12.41 11.92-18.62zM280.22 390.69c4.05-.23 8.5 0 12.81.22l1.83.1c1.95.09 3.88.16 5.8.22 3.75.13 7.29.26 10.95.58 3.27.29 5.94.59 8.4.95.52.07 1.35.23 2.28.4 3.46.63 5.01.88 5.7.76l-.35-2.1c-.55.05-3.43-.48-4.97-.76-.96-.17-1.82-.33-2.35-.4-2.5-.37-5.22-.68-8.53-.97-3.72-.33-7.45-.46-11.06-.58-1.9-.07-3.83-.14-5.77-.23l-1.82-.1c-4.37-.22-8.88-.45-13.04-.22-2.91.17-9.96 1.23-12.57 7.52l1.96.8c2.15-5.16 8.22-6.05 10.73-6.19zM192.86 543.86l.82-1.96-9.66-4.08c2.3-9.3 2.42-14.93.4-18.2-1.83-2.92-5.08-3.6-8.53-4.32a29.7 29.7 0 0 1-6.41-1.86c-1.7-.78-3.2-1.83-4.65-2.84-6.71-4.72-11.68-6.44-23.3 9.29l-7.75-3.27-.83 1.96 11.57 4.88c-2.2 7.54.7 15.04 7.59 19.32a20.72 20.72 0 0 0 10.9 3.04c5.53 0 11.58-2.13 16.99-7.4l12.86 5.44zm-29.25-31.52c1.53 1.07 3.1 2.18 4.99 3.03 2.35 1.07 4.75 1.57 6.86 2.01 3.24.68 5.8 1.21 7.15 3.37 1.66 2.67 1.48 7.85-.58 16.23l-38.5-16.24c11.02-14.75 14.84-12.08 20.08-8.4zm-10.38 28.63c-5.97-3.7-8.53-10.16-6.74-16.68l31.36 13.23c-8.43 7.69-18.32 7.37-24.62 3.46zM133.1 555.24l.53 2.06c18.32-4.63 34.19 9.6 38.24 17.9l1.9-.94c-4.3-8.81-21.17-23.95-40.67-19.02zM436.38 584.12l21.12-2.32-13.16-30.45-7.96 32.77zm18.03-4.12l-15.24 1.68 5.74-23.66 9.5 21.98z"/><path d="M508.14 416.45c6.29-10.91 2.3-25.09-2.24-37.96l-1.08.38a54.19 54.19 0 0 0 2.52-26.7 59.67 59.67 0 0 0-18.13-34.3c-7.57-7-23.77-16.94-35.54-14.37a11.33 11.33 0 0 0-8.91-2.84c2.01-2.57 6.15-5.6 8.45-6.85a50.38 50.38 0 0 1 16.31-5.66c4.33-.7 8.67-.34 12.89 1.1 1.7.57 3.19 1.39 4.96 2.73l.48.36c.15.12.27.22.42.32a5.64 5.64 0 1 0 1.5-1.53l-.66-.5-.46-.34a18.73 18.73 0 0 0-5.56-3.06 28.61 28.61 0 0 0-13.9-1.18c-5.95.97-11.51 2.9-17 5.9-2.7 1.48-8.83 5.8-10.35 9.45a11.43 11.43 0 0 0-6.4 6.56 11.47 11.47 0 0 0-3.62-3.98c1.6-5.82 6.48-13.56 10.28-17.4a40.08 40.08 0 0 1 16.59-10.1c12.28-3.98 24.22-5.04 34.3-3.14a5.64 5.64 0 1 0 .63-2.07c-13.03-2.57-26.26.17-35.59 3.2a42.14 42.14 0 0 0-17.45 10.61c-3.86 3.92-8.82 11.61-10.68 17.85a11.3 11.3 0 0 0-3.62-.87c-.03-1.45.87-5.03 1.23-6.5.2-.77.35-1.4.42-1.77.6-3.2 1.5-6.26 2.7-9.1a47.4 47.4 0 0 1 10-14.49c7.93-7.9 20.3-15.43 31.92-16.49a5.64 5.64 0 1 0-.05-2.12c-12.23 1.08-25.13 8.89-33.37 17.1a48.9 48.9 0 0 0-10.47 15.18 46.64 46.64 0 0 0-2.82 9.54c-.06.33-.21.92-.4 1.64-.83 3.35-1.3 5.58-1.26 7.04-.8.1-1.58.27-2.32.52 1.6-3.05 3-6.68 3.31-7.86 1.07-4 .5-9.87-2.64-13.36s-6.86-5.01-10.66-4.57c1.47-1.25 2.8-2.45 3.67-3.25a9.45 9.45 0 0 0 3.3-6.82c.06-3.04-1.43-6.23-4.2-8.98-2.41-2.41-5.1-3.36-7.99-2.81-3 .57-5.86 2.7-8.4 5.45a17.59 17.59 0 0 0-3.01-8.9c-.36-.5-.75-.93-1.14-1.32 1.6-1.96 2.84-5.13 3.7-7.71h.1c1.77 0 4.39-.88 6.91-1.73 1-.33 1.94-.65 2.7-.86a78.94 78.94 0 0 1 15.97-2.77c4.68-.28 9.16.72 13.5 1.83a9.4 9.4 0 1 0 4.48-1.14l-.29.02-2.07-.53c-4.99-1.3-10.14-2.64-15.75-2.3a81.08 81.08 0 0 0-16.42 2.84c-.8.23-1.77.55-2.8.9-1.88.63-4.13 1.38-5.62 1.57v-.02l.32-.99a57.97 57.97 0 0 0 2.28-9.28c1.65-10.98-1-17.95-7.87-20.74-3.23-1.3-6.12-1.25-8.6.18-1.9 1.1-3.3 2.86-4.3 4.76-1.08-3.95-3.16-8.91-4.74-10.92-4.17-5.31-9.7-7.17-14.79-4.98-10.66 4.6-7.9 20.16-3.43 32.96-.34.04-.69.1-1.05.17a42.3 42.3 0 0 0-.2-2.47c-.3-2.66-2.2-10.26-6.78-10.26-.74 0-1.5.21-2.25.63-1.38-4.65-5.97-6.59-9.84-7.38-3.17-.66-7.1-.02-10.01 1.62-.2.1-.37.23-.55.34a9.8 9.8 0 0 0-1.98-4.7c-1.57-2.1-4.4-4.35-7.2-3.74-1 .22-1.86.45-2.65.72a8.07 8.07 0 0 0-2.9-4.6c-4.54-3.8-12.64-4.76-15.72-4.2-.94.16-1.9.35-2.87.56-7.54-7.59-17.98-6.52-23.8-4.74-1.67-2.26-4.48-3.85-8.21-4.58-6.23-1.23-13.57.18-17.85 3.44-1.61 1.22-7.16 5.54-10.98 9.73-9.58 10.53-17.87 24.74-24.65 42.25a63.66 63.66 0 0 0-1.82 5.4c-.12-3.1-.01-6.1.82-8.62l-.14-.04c.2-.83.3-1.66.3-2.46V227.1a7.45 7.45 0 0 0-.4-2.8c-1.65-4.82-8.2-7.47-18.46-7.47-9.26 0-20.66 2.17-32.09 6.1-3 1.04-5.91 2.17-8.72 3.37-.44-.54-.95-1.02-1.44-1.48-.5-.47-.98-.91-1.37-1.4-.35-.44-.67-.88-.99-1.31-.74-1.03-1.52-2.1-2.55-3.03-2.02-1.8-3.63-3.72-5.35-5.75-.74-.88-1.5-1.78-2.3-2.69l-.57-.63-.75.41c-1.63.91-3.3 2.23-5.1 4.04a123.14 123.14 0 0 0-6.11 7.2 2.57 2.57 0 0 0-1.8-.14c-1.5.51-2.97 1.84-4.4 3.12-.82.74-1.6 1.45-2.29 1.9a26.3 26.3 0 0 0-3.64 2.98c-.31.3-.64.6-.98.9-.18.17-.44.34-.72.54-1.06.73-2.51 1.74-2.43 3.25.05.9.73 1.71 1.55 2.45a85.26 85.26 0 0 0-5.03 7.99l-.57 1.02c-.62 1.1-1.26 2.23-1.75 3.46-.83 2.05-.77 2.77 1.22 3.65l.54.24c1.78.81 3.4 1.16 4.96 1.5 1.27.27 2.47.53 3.77 1.03 2.57.98 5.72 1.38 7.88 1.44l.56 11.25.05.3c1.02 2.96 3.82 5.13 8.1 6.38-.6 7.14-9 17.1-13.39 20.78-1.8 1.5-3.83 2.92-5.8 4.29-4.57 3.18-9.3 6.47-12.12 11.55a59.58 59.58 0 0 0-2.97 6.22l-.1-.06a20.63 20.63 0 0 0-1.7 3.69c-1.07 1.68-2.55 3.25-5.33 5.23-4.74 3.37-7.7 7.36-9.03 12.25-5.4 4.08-14.33 16.16-12.9 22.85l.1.43c-4.53 5.68-9.75 16.32-10.5 23.63-.81 7.84 1.4 15.08 3.94 22.43 4.06 11.77 11.33 20.7 19.02 30.16l.72.88c1.42 1.75 3 3.47 4.66 5.29 3.24 3.52 6.57 7.16 8.7 11.03a335.34 335.34 0 0 0-6.78 40.83c-3.48 35.3.38 65.2 11.47 88.89 17.65 37.69 47.31 46.25 48.56 46.6l.11.02a167.87 167.87 0 0 0 31.37 2.25c14.25 13.46 21.91 27.56 25.54 47-10.76 18.72-17.5 38.3-19.83 58.3l2.11.23.11-.84 93.6-58.12.5.95c18.96-9.66 63.38-32.3 132.4-34.91l-.03-1.07-.04-1.06h-.09c-2.23-19.75-6.72-35.43-14.17-52.68l-.15-1.05c-6.11.84-12.3 1.98-18.4 3.36l-16.07-24.5c19.07-2.8 34.89-6.23 48.17-10.43l-6.63 27.33 21.12-2.33-11.27-26.05c9.28-3.12 17.5-6.7 24.45-10.7l-1.24 3.61 21.24-.35-10.28-31.54-8.65 25.18a116.5 116.5 0 0 1-16.73 8.28l-10.08-30.92-10.96 31.9 19.42-.33a165.5 165.5 0 0 1-8.02 2.91l-1.05-2.43-.73 3.02c-13.84 4.48-30.43 8.08-50.7 11-9.21 1.31-17.9 2.32-24.46 3.06h-.07c-3.06.35-6.04.67-8.92.98-12.29 1.34-23.02 2.51-30.23 4.06 3.84-4.03 7.64-8.26 11.38-12.7 4.2-4.97 8.22-10.1 12.1-15.3v.14c1.68-.08 3.48-.02 5.38.06 1.35.05 2.71.1 4.08.1 2.59 0 5.2-.18 7.77-.9 5.93-1.62 14.1-6.46 17.54-12.2l.93-1.53c2.27-3.74 4.42-7.28 5.74-11.56.83-2.7 2.42-8.42 1.96-11.1l1.14-.31c1.36-.37 2.72-.74 4.05-1.12 10.98-3.14 24.57-4.03 36.61-2.44l-4.78 13.93 21.24-.35-10.15-31.12 9.13-1.87-15.9-29.1-4.9 33.36 11.37-2.33-5.3 15.43c-12.43-1.7-26.53-.8-37.9 2.45l-4.03 1.1c-6.1 1.66-12.4 3.38-17.85 6.56-1.48.87-2.9 1.9-4.25 2.91-1.03.76-2.1 1.54-3.17 2.23 21.86-35.32 37.46-71.52 48.04-96.06l2.28-5.28-1.95-.85-2.28 5.29c-10.96 25.42-27.33 63.39-50.45 99.85a5.75 5.75 0 0 0-1.68 2.5l.08.03a350.43 350.43 0 0 1-26.47 36.1c-46.35 55-100.38 77.82-160.58 67.88-1.82-.52-30.11-9.04-47.16-45.44-10.92-23.33-14.72-52.86-11.27-87.77 2.98-30.26 11.44-64.56 25.22-102.44 2.14 1.14 4.38 3.43 6.4 5.5.96.97 1.86 1.9 2.7 2.65l2.21 1.92c-.33.35-.6.75-.84 1.1-.14.22-.27.42-.4.58l-1.03 1.28c-1.39 1.75-2.7 3.39-4.29 4.81-1.83 1.63-3.85 3.1-5.81 4.51-1.29.93-2.62 1.89-3.9 2.9l1.31 1.67c1.25-.99 2.56-1.93 3.83-2.85 2-1.44 4.08-2.94 5.99-4.64 1.73-1.55 3.15-3.34 4.53-5.07l1.01-1.27c.17-.2.35-.46.52-.72a7 7 0 0 1 .7-.92 95.46 95.46 0 0 0 4.71 3.68l.6.42c.68.51 1.38 1.01 2.12 1.47l.22.13c.7.46 1.42.9 2.14 1.32-1.53 2.3-2.47 5.35-3.3 8.1-.39 1.23-.75 2.4-1.13 3.4a50.92 50.92 0 0 1-2.71 5.93c-1.02 1.92-2.18 4.1-2.56 6.29l2.1.36c.32-1.86 1.34-3.79 2.33-5.65l.8-1.52c.88-1.76 1.59-3.5 2.03-4.65.4-1.06.77-2.27 1.16-3.55.82-2.65 1.73-5.62 3.14-7.66a54.69 54.69 0 0 0 14.3 5.32c1.1 1.39 1.83 5.73 2.2 7.88l.21 1.25c.36 1.96.55 4.14.55 6.3 0 .36.04.9.08 1.5.07.96.26 3.53-.07 4.03l1.5 1.5c.96-.97.9-2.97.7-5.69-.05-.54-.08-1.01-.08-1.34 0-2.29-.2-4.6-.59-6.68l-.2-1.23c-.45-2.64-.93-5.15-1.65-7 .7.13 1.4.24 2.1.35 4.46.64 9.1 1.45 12.57 3.75.56.37 1.3.76 2.13 1.2a29.66 29.66 0 0 1 7.04 4.73l2.7 2.58-.94-3.62c-.38-1.48-.82-3.3-1.3-5.27-1.84-7.63-4.13-17.13-6.37-20.29-5.32-7.5-12.57-12.74-20.1-17.4a27.31 27.31 0 0 0-5.27-3.16l-1.4-.82c-8.13-4.77-15.8-9.3-21.66-15.75 3.3-7.96 6.8-16.06 10.51-24.3.56 3.82 2.32 6.46 7.85 4.28 4.04-1.62 6.09-5.13 7.05-8.99l2.09 1.35c3.04 2 6 4.2 8.88 6.32 1.55 1.16 3.12 2.31 4.71 3.46l1.37.98c3.56 2.53 7.23 5.14 10.3 7.9 1.46 1.3 6.12 5.96 4.54 11.51l2.05.59c1.91-6.75-3.48-12.2-5.18-13.7-3.15-2.82-6.87-5.47-10.47-8.04l-1.37-.97a381.72 381.72 0 0 1-4.69-3.44c-2.9-2.13-5.88-4.35-8.98-6.4l-2.42-1.55-.57.88c.31-1.7.44-3.47.44-5.14l.03-4.12.42.99 2.82-1.24c1.9-.85 3.7-1.65 6-2.45l.28-.1c.09.85.2 1.71.33 2.57.97 5.76 6.37 9.02 11.51 4.74 4.48-3.74 5.12-11.86 4.26-17.46l.6.87c2.2-1.5 4.02-2.8 5.67-4.02.05.59.11 1.17.2 1.75.97 6.42 4.45 11.65 11.8 8.15 5.8-2.77 7.21-10.45 6.64-16.25-.28-2.83-1.26-6.74-2.64-10.8l.87.6a51.58 51.58 0 0 0 5.91-11.05 83.66 83.66 0 0 0 3.98-13.35l.13.38c1.95 5.27 5.84 9.4 10.66 11.33 1.92.77 3.9 1.16 5.87 1.16 2.15 0 4.3-.49 6.4-1.4.28.44.6.87.96 1.27 2.37 2.67 6.07 4 11.22 4 2 0 4.22-.22 6.65-.6.16.22.31.45.5.67 2.74 3.37 7.25 5.15 13.35 5.32 1.66 3.4 4.77 7.22 9.1 8.98 1.28.52 2.9.94 4.77.94 2.24 0 4.85-.6 7.72-2.3 1.25 4.48 6.63 8.03 11.52 9.2 1.3.31 2.55.46 3.74.46 2.38 0 4.51-.6 6.25-1.76-.2 2.78.71 4.51 1.56 5.49a7.08 7.08 0 0 0 5.46 2.23c1.3 0 2.64-.27 3.96-.77.01 1.6.52 3.17 1.52 4.6 2.42 3.5 7.26 5.75 10.79 6.18.56.07 1.12.1 1.67.1 4 0 7.73-1.77 11.1-5.29 4.23-4.4 6.17-7.7 9.11-12.71l.09-.14c4.93-8.4 7.5-15.33 10.46-23.36 1.14-3.1 2.33-6.3 3.72-9.79 3.03-7.55 4.25-15 3.84-23.44l-.04-1.3c-.14-4.55-.38-13.04-5-16.33a6.88 6.88 0 0 0-2.97-1.2c-6.13-17.1-5.45-27.84 2-31.05 6.14-2.65 10.95 2.65 12.27 4.34 1.82 2.31 4.6 9.66 4.96 13.1-.57 1.8-.87 3.46-1.03 4.55-.82 5.8-.95 10.69-.4 14.95.07.63.14 1.46.22 2.42.34 4.18.86 10.34 3.25 13.45-2.35 3.96-2.85 9.16-2.94 11.82-.95.05-1.87.18-2.7.4a17.05 17.05 0 0 0-11.01 9.05 16.35 16.35 0 0 0-.68 13.65l.05-.03c-.4.34-.81.7-1.23 1.13l-.94.97c-2.22 2.29-4.51 4.65-6.35 7.4-2.33 3.47-6.5 12.22-4.58 17.14a5.69 5.69 0 0 0 3.67 3.52c.78.25 1.63.36 2.5.36 2.96 0 6.26-1.25 8.66-2.47-1.78 2.9-3.26 6.77-1.7 10.2 1.34 2.97 3.37 4.48 6.03 4.48 2.79 0 5.7-1.67 8.44-3.46 4.7-3.09 10.3-6.77 14.32-11.53a11.8 11.8 0 0 0 1.74 8.72 11.4 11.4 0 0 0-14.82 10.84 11.4 11.4 0 0 0 17.12 9.82 26.36 26.36 0 0 0 6.55 7.94 26.1 26.1 0 0 0-10.79-2.36 12.47 12.47 0 0 0-9.1-3.95c-6.9 0-12.51 5.62-12.51 12.52 0 5.68 3.8 10.48 9 12a11.4 11.4 0 0 0-10.6 11.35 11.4 11.4 0 1 0 14.79-10.87 12.52 12.52 0 0 0 11.84-12.48c0-2.33-.65-4.5-1.76-6.38a24.12 24.12 0 0 1 22.38 24.01c0 9.77-5.96 18.56-14.93 22.25a11.4 11.4 0 0 0-10.6-7.27 11.4 11.4 0 0 0 0 22.77c3.84 0 7.24-1.92 9.3-4.85a11.4 11.4 0 0 0 6.8 11.49l-17.74 35.48 25.58 2.54-7.82-38c1.38.6 2.91.93 4.52.93 5.34 0 9.9-3.62 11.07-8.79v-.01a11.38 11.38 0 0 0 20.96-6.14l-.01-.17a11.37 11.37 0 0 0 20.65-6.6 11.4 11.4 0 0 0-22.77 0v.18a11.37 11.37 0 0 0-20.33 3.96 11.25 11.25 0 0 0-4.81-4.15 24.1 24.1 0 0 1 23.65-28.56c3.88 0 7.55.89 10.91 2.63l.2.15h.05c.95.68 1.92 1.27 2.9 1.75l.08.05.04.02c1.62 1.2 3.08 2.6 4.36 4.16a11.35 11.35 0 0 0 10.8 14.98 11.4 11.4 0 0 0 7.44-20c-.28-.23-.57-.46-.87-.67a11.39 11.39 0 0 0 10.94-11.36 11.4 11.4 0 0 0-9.57-11.23 11.38 11.38 0 0 0-5.92-20.78 11.19 11.19 0 0 0 3.21-7.9 11.4 11.4 0 0 0-11.38-11.39c-2.04 0-4.01.58-5.74 1.59a11.31 11.31 0 0 0-1.94-8.57c10.86-1.5 25.43 7.6 32.42 14.06a57.5 57.5 0 0 1 17.48 33.06c3.95 26.1-10.87 44.52-27.48 60.54-3.43 3.3-7.3 6.26-11.04 9.12-3.1 2.36-6.3 4.81-9.3 7.48l-.45.4c-4.24 3.79-8.63 7.67-13.7 10.06L434 419.22l-9.79 38.47 13.21-1.53-4.9 33.3 11.38-2.33-10.8 31.4 21.25-.35-4.34-13.3.3-.25c6.35-5.43 14.32-9.2 22.03-12.86 4.81-2.27 9.78-4.63 14.34-7.37 1.19-.7 2.43-1.41 3.7-2.14 4.46-2.52 9.35-5.31 13-9.08.45 6.8.72 20.03-5.2 27.16-3.1 3.75-7.29 7.45-11.33 11.02-1.6 1.43-3.13 2.77-4.56 4.1-10.14 9.42-20.38 16.35-31.3 21.18l.85 1.94c11.15-4.92 21.58-11.98 31.9-21.57 1.4-1.3 2.92-2.64 4.52-4.06 4.1-3.62 8.34-7.37 11.56-11.25 6.49-7.82 6.28-21.25 5.5-30.84.39-.5.75-1.03 1.07-1.58 3.69-6.18 2.1-21.92 1.37-28.96 3.86-6.96 1.48-19.27.37-23.87zm-55.83 132.31l-15.33.26 7.9-23.02 7.43 22.76zm-50.8 2.8l7.92-23.01 7.42 22.76-15.33.26zm2.2 32.66l5.73-23.65 9.5 21.97-15.24 1.68zm-.55-118.99l11.48 21.01-15.02 3.07 3.54-24.08zm-2.5 53.68l7.9-23.02 7.43 22.76-15.34.26zm-64.74 3.96a37.81 37.81 0 0 0 4.46-3.03 46.36 46.36 0 0 1 4.07-2.8c4.29-2.5 9.24-4.07 14.2-5.46.13 1.57-1.05 6.84-2 9.92-1.24 4.03-3.32 7.46-5.53 11.09l-.93 1.53c-3.05 5.08-10.67 9.71-16.28 11.26-3.63 1-7.48.85-11.2.71a94.3 94.3 0 0 0-3.98-.1 389.6 389.6 0 0 0 14.5-21.3c.8-.69 1.8-1.3 2.7-1.82zm-2.6 50.2c6.4-.71 14.8-1.7 23.74-2.96l16.17 24.65c-15.13 3.43-59.1 13.83-121.53 63.32l.66.83-.68-.82c-26.73 22.25-50.63 48.72-69.29 76.69 9.7-63.32 64.38-122.02 150.92-161.7zm-58.37 106.71l.49.95c-23.15-12.61-59.81-6.05-61.3 36.16a740.13 740.13 0 0 1 44.15-26.97c-25 14.7-65.55 41.38-76.45 48.84l.14-1.09.72.47c18.75-28.6 43.07-55.72 70.33-78.41l.28-.21c20.42 12.42 66.96.93 82.4-50.45a214.2 214.2 0 0 1 38.57-12.37l.92-.2c5.12-1.18 10.3-2.17 15.45-2.97-28.6 13.45-47.6 22.7-56.17 62.46-28.47 7.98-48.37 18.11-59.53 23.8zm17.3-102.2l.22.91c7.02-1.72 18.48-2.97 31.76-4.41l2.53-.28c-58.14 27.66-101.4 64.04-125.7 104.6-3.76-18.03-11.14-31.54-24.22-44.36 42.06-1.84 80.72-20.75 115.4-56.47zM156.79 224.94c11.21-3.87 22.36-6 31.4-6 9.14 0 15.14 2.2 16.46 6.04 1.27 3.7-1.88 8.95-8.64 14.4-7.15 5.75-17.46 11.11-29.04 15.1-11.2 3.86-22.36 6-31.4 6-9.13 0-15.13-2.2-16.45-6.04-1.27-3.7 1.87-8.95 8.64-14.4 7.15-5.75 17.46-11.11 29.03-15.1zm-24.76 9.42a.94.94 0 0 1 .32-.55l.19.22-.5.33zm-3.57-18.4a23.92 23.92 0 0 1 3.9-3.25c.59.66 1.15 1.33 1.7 1.98 1.76 2.09 3.42 4.06 5.54 5.97.87.78 1.55 1.7 2.26 2.69.34.46.68.92 1.04 1.38.49.61 1.05 1.13 1.59 1.64.3.28.58.55.84.82-4.23 1.9-8.16 3.97-11.7 6.15-.67-.95-2.27-2.69-6.07-6.05-.33-.3-.78-.74-1.29-1.26-1.3-1.3-2.5-2.45-3.58-3.29 1.27-1.6 4.52-5.53 5.77-6.79zm-20.23 16.73c.35-.24.68-.47.94-.7l1-.93c1.07-.99 2.08-1.92 3.36-2.76.81-.53 1.66-1.29 2.55-2.1 1.2-1.08 2.58-2.31 3.64-2.68.97-.11 4.03 3 5.05 4.02.55.55 1.03 1.02 1.38 1.34 2.32 2.05 4.94 4.58 5.71 5.6a67.88 67.88 0 0 0-5.43 3.9c-3.37 2.72-5.9 5.4-7.52 7.94l-.16-1.1c-.41 0-1.68-.6-5.62-4.5l-.34-.33c-.6-.6-1.15-1.23-1.73-1.91-.47-.56-.96-1.14-1.49-1.69-.25-.26-.6-.55-1.01-.88-.53-.43-1.75-1.42-1.84-1.82-.02-.33 1.13-1.13 1.51-1.4zm-2.27 19.74c-1.52-.33-2.96-.64-4.53-1.36l-.56-.25-.4-.17.29-.74c.44-1.1 1.02-2.12 1.64-3.2l.58-1.05a83.35 83.35 0 0 1 4.8-7.64l.26.25c.48.5.93 1.03 1.4 1.58.58.69 1.18 1.4 1.86 2.06l.33.33c3.35 3.31 5.3 4.8 6.69 5.06-1.52 2.73-1.96 5.28-1.29 7.55a23.66 23.66 0 0 1-6.99-1.3c-1.45-.55-2.79-.84-4.08-1.12zm13.87 15.54l-.47-9.55c3.05 2.72 8.61 4.18 16.22 4.18 9.27 0 20.66-2.17 32.09-6.1 11.8-4.07 22.34-9.57 29.67-15.47 3.42-2.75 5.96-5.46 7.59-8.04v5.35c0 10.74-19.9 23.4-38.62 29.86-11.52 3.96-22.73 6.02-31.51 5.81-8.16-.2-13.6-2.4-14.97-6.04zM85.7 328.35c1.2-.86 2.19-1.66 3.01-2.43-1.1 7.9 1.17 17.95 6.87 30.43.95 2.1 1.99 4.19 2.99 6.21 1.82 3.68 3.7 7.48 5.15 11.4.76 2.06 1.58 4.82 2.37 7.5 1 3.36 1.95 6.53 2.85 8.7a613.13 613.13 0 0 0-7.6 21.76c-1.13-11.01-6.87-21.9-12.48-32.5-4.79-9.03-9.3-17.56-11.16-26.12-2.54-11.7-.15-19.16 8-24.95zm-10.9 13.87c-.38 3.41-.11 7.22.82 11.53 1.92 8.84 6.72 17.9 11.36 26.67 6.55 12.37 13.32 25.15 12.36 37.72-1.55 4.91-3 9.76-4.34 14.54-.63-1.63-1.53-3.66-2.68-6.18-.81-1.78-1.58-3.47-1.87-4.35-1.01-3.1-2.11-5.93-3.28-8.94-.6-1.54-1.2-3.09-1.8-4.7-2.34-6.29-4.85-11.68-7.5-17.4-1.73-3.7-3.52-7.53-5.24-11.62-.8-1.89-1.85-3.97-2.97-6.18-2.1-4.15-4.28-8.44-5.05-12.04-1.06-4.93 5.28-14.32 10.2-19.05zm7.24 100.88c-1.65-1.8-3.2-3.5-4.58-5.2l-.72-.87c-7.57-9.31-14.73-18.1-18.66-29.51-2.46-7.12-4.6-14.12-3.84-21.52.66-6.35 5.1-15.73 9.14-21.32a83.27 83.27 0 0 0 4.38 9.6c1.1 2.17 2.14 4.22 2.91 6.04 1.74 4.12 3.53 7.97 5.27 11.7a226.37 226.37 0 0 1 7.44 17.24c.6 1.61 1.2 3.17 1.8 4.72 1.16 2.98 2.26 5.8 3.25 8.83.33 1 1.08 2.65 1.96 4.57 1.28 2.81 3.63 7.97 3.52 9.2a444.51 444.51 0 0 0-4.07 16c-2.17-3.34-5.02-6.45-7.8-9.48zm60.78-58.81c1.7 1 3.38 2 5.07 3.04a21.8 21.8 0 0 1 7.15 9.15c1.6 4.06 1.41 8-.5 11.08-2.15 3.47-6.26 5.45-11.28 5.45-3.9 0-8.08-1.24-11.79-3.47a61.9 61.9 0 0 1-2.4-1.66c-7.3-5.62-10.28-14.26-6.6-20.2 2.14-3.45 6.25-5.44 11.27-5.44 2.98 0 6.11.72 9.08 2.05zm24.63 19.9c2 2.83 4.34 12.5 6.04 19.56l.52 2.16a39.69 39.69 0 0 0-4.96-2.97c-.8-.41-1.48-.77-1.95-1.08-3.83-2.54-8.74-3.42-13.44-4.09a56.58 56.58 0 0 1-10.86-2.65l.46.02c5.77 0 10.54-2.35 13.08-6.46 2.28-3.67 2.52-8.28.68-12.97a21.12 21.12 0 0 0-1.76-3.47c4.6 3.37 8.83 7.2 12.2 11.95zm-31.44-23.94c-.76-.08-1.52-.14-2.27-.14-5.77 0-10.54 2.36-13.08 6.46-2.62 4.23-2.4 9.6.06 14.57l-.47-.41c-.79-.7-1.67-1.6-2.6-2.56-2.2-2.24-4.66-4.74-7.18-6.02 2.9-7.9 6.04-15.97 9.4-24.18 4.6 4.86 10.3 8.73 16.14 12.28zm-5-43.77c0 1.03.01 2.07.07 3.08l-1.04-.47a780.5 780.5 0 0 0-19.97 48.02c-.63-1.86-1.29-4.08-1.94-6.26-.8-2.7-1.64-5.5-2.42-7.63-1.48-4.02-3.4-7.88-5.24-11.6-.99-2-2.02-4.08-2.96-6.15-6.56-14.37-8.46-25.28-5.78-33.18a31.54 31.54 0 0 0 1.97-4.06c.69-1.6 1.47-3.41 2.72-5.66 2.58-4.65 7.1-7.8 11.48-10.84 2-1.4 4.08-2.83 5.95-4.4 4.69-3.94 13.22-14.07 14.12-21.9.6.13 1.2.24 1.85.33-2.32 13.9-4.37 21.27-7.5 27l.93.5c-3.55 4.3-7.12 14.8-9.97 19.93-2.7 4.9-4.75 9.72-5.54 15.13-.82 5.57-1.5 13.74 6.36 11.9 4.99-1.17 9.94-5.24 12-9.78 2.6-5.7 1.42-13.47.19-19.46-1.12-5.45-.98-12.53-3.04-17.72l.93.51c3.27-5.97 5.39-13.55 7.75-27.78a46.22 46.22 0 0 0 4.12.18c2.47 0 5.11-.18 7.87-.5.94 4.34 2.01 20.18-1.4 30.2l1.02.34c-6.01 10.25-12.53 17.71-12.53 30.27zm68.58-54.5a49.45 49.45 0 0 1-5.25 9.96c-1.83-5.16-4.23-10.4-6.51-13.77-2.95 4.74-6.18 11.92-7.3 16.23-1.21 4.65-2.1 9.7-1.83 14.7l-.64-.85c-1.67 1.25-3.5 2.56-5.74 4.1-.72-3.62-3.84-16.45-6.63-20.16-6.82 8.22-10.22 19.52-9.38 30.36l-.44-.97c-.14.07-.3.12-.52.2-2.3.8-4.14 1.62-6.08 2.48-.76.34-1.54.69-2.37 1.04 0-2.58-.08-5.16-.47-7.65-.58-3.48-.76-8.84-2.89-11.44l1 .34c3.51-10.33 2.48-26.07 1.48-31.16 5.28-.74 10.95-2.02 16.77-3.8 2.25 5.58 3.07 10.36 1.84 20.47l2.11.26c1.26-10.43.37-15.63-1.92-21.4.72-.23 1.45-.45 2.18-.7 6.4-2.21 12.31-4.83 17.53-7.69 1.75 4.53 2.47 9.51 2.23 15.6l2.13.08c.25-6.51-.55-11.85-2.5-16.73 7.94-4.58 14.06-9.7 17.52-14.65-.04 2.34.13 4.77.3 7.16.09 1.26.17 2.5.23 3.7a32.63 32.63 0 0 0-.12 5.61c-.67 7.07-2.94 14.06-4.73 18.68zm17.54-2.84c-4.27-1.71-7.72-5.39-9.46-10.1a21 21 0 0 1-1.2-5.88 38.83 38.83 0 0 0 .1-5.23 52.23 52.23 0 0 1 3.3-13.09c6.6-17.02 14.98-31.4 24.25-41.58a85.26 85.26 0 0 1 10.68-9.47c3.78-2.87 10.57-4.16 16.15-3.06 2.86.57 5.1 1.71 6.5 3.27a15 15 0 0 0-1.05.47c-2.79 1.42-5.7 4.37-8.27 6.98l-1.54 1.55c-12.43 12.26-20.8 31.6-24.47 45.6-.44 1.67-1 3.53-1.59 5.5-2.48 8.25-5.45 18.2-2.86 24.86a13.46 13.46 0 0 1-10.54.18zm14.03 1.6c-4.8-5.4-1.35-16.84 1.4-26.02.6-2 1.17-3.87 1.62-5.57 3.6-13.74 11.78-32.68 23.9-44.64.5-.48 1.02-1.01 1.56-1.57 2.34-2.37 5.24-5.32 7.73-6.58.14-.07 13.78-6.35 23.56 2.22-2.9.8-5.8 1.97-8.58 3.84-8.1 5.46-15.19 14.24-19.81 20.37-7.82 10.35-13.28 23.77-16.7 41.03-1.27 6.37-2.24 14.07.45 19.75-7.41 1.08-12.5.13-15.13-2.84zm18.42 4.13c-4.1-5.03-3.04-13.67-1.66-20.64 3.36-16.94 8.7-30.07 16.31-40.16 4.54-6.01 11.48-14.6 19.31-19.89 4.16-2.8 8.75-3.91 13.08-4.68 2.76-.5 10.17.55 13.98 3.75a5.9 5.9 0 0 1 2.25 3.75 39.3 39.3 0 0 0-3.87 2.11c-6.07 3.62-13.72 8.57-19.08 14.78-8.82 10.23-15.25 22.07-21.47 33.52-1.51 2.8-3.02 5.58-4.57 8.35-4.28 7.65-5.38 14.1-3.82 22.25.08.42.2.88.36 1.36-4.97-.3-8.61-1.8-10.82-4.5zm21.6 13.67c-5.15-2.1-8.44-7.76-9.05-10.93-1.48-7.72-.48-13.55 3.58-20.81 1.56-2.78 3.07-5.57 4.6-8.37 6.15-11.35 12.52-23.1 21.2-33.15 5.16-5.98 12.63-10.8 18.56-14.34 2.85-1.7 4.5-2.63 7.9-3.37 1.45-.32 3.52.89 5.04 2.93 1.37 1.85 1.9 3.81 1.37 4.97-4.46 3.26-8.1 7.84-11.02 13.95-1.8 3.77-4.22 7.33-6.55 10.78-2.53 3.75-5.15 7.63-7.1 11.89-1.52 3.32-2.77 6.78-3.97 10.13-1.71 4.75-3.48 9.66-6.03 14.1-3.16 5.52-7.43 12.98-7.14 20.5-3.93 2.6-7.76 3.2-11.39 1.72zm23.71 7.75c-5.24-1.26-9.8-5.11-10.14-8.59-.71-7.2 3.63-14.78 6.8-20.31 2.65-4.61 4.45-9.61 6.19-14.45 1.19-3.3 2.42-6.73 3.9-9.97 1.88-4.1 4.45-7.9 6.94-11.58 2.37-3.51 4.82-7.14 6.7-11.05 3.34-6.96 7.6-11.84 13.01-14.9a13.23 13.23 0 0 1 8.54-1.39c5.36 1.1 8.14 3.53 8.52 7.38-2.2 4.11-4.06 10.57-5.04 15.22-1.28 6.07-2.5 11.8-5.74 17.88-1.21 2.28-2.41 4.57-3.61 6.87-5.36 10.24-10.89 20.82-17.89 29.92l-1.29 1.66c-2.45 3.1-5.14 6.53-6.52 10.23-2.85 4.33-8.2 3.6-10.37 3.08zm12.66 4.85c-.9-1.03-1.25-2.58-1-4.47.57-4.34 3.93-8.61 6.9-12.38l1.3-1.67c7.12-9.25 12.7-19.92 18.09-30.24a961 961 0 0 1 3.6-6.85c3.39-6.35 4.69-12.5 5.95-18.44 1.12-5.33 3.22-12.19 5.41-15.68a2.85 2.85 0 0 1 1.55-.56c2.48 0 4.33 5.37 4.67 8.38.66 5.86.05 13.44-1.6 19.77-2.7 10.32-9.02 21.3-14.59 30.98l-2 3.5c-1.03 1.79-2.08 3.8-3.19 5.94-4.2 8.04-9.41 18.05-16.53 21.94a9.95 9.95 0 0 1-4.7 1.3c-1.64-.01-3-.55-3.86-1.52zm57.95-62.22l.05 1.34c.4 8.13-.78 15.29-3.7 22.55-1.4 3.5-2.59 6.72-3.74 9.84-2.93 7.93-5.46 14.79-10.3 23.02l-.08.14c-2.97 5.05-4.76 8.1-8.81 12.32-3.4 3.54-7 5.02-11 4.55-3.02-.37-7.32-2.44-9.29-5.28a5.85 5.85 0 0 1-1.06-4.45c7.45-4.34 12.72-14.41 16.96-22.55 1.1-2.11 2.14-4.11 3.15-5.88.65-1.14 1.31-2.3 2-3.48 5.63-9.8 12.02-20.9 14.8-31.51 1.3-5 1.98-10.76 1.92-15.92 2.04-.5 3.68-.29 4.99.64 3.76 2.69 4 10.78 4.11 14.67zm24.21 133.68a9.27 9.27 0 0 1-18.52 0 9.27 9.27 0 0 1 18.52 0zm-6.54-12.96a10.4 10.4 0 1 1 .01-20.77 10.4 10.4 0 0 1 0 20.77zm9.25 85.3l13.62-27.26 6.02 29.2-19.64-1.94zm60.28-63.69a9.27 9.27 0 0 1 0 18.52 9.27 9.27 0 0 1 0-18.51zm-6.62-88.55a9.27 9.27 0 0 1 7.72 14.37l-.04.04-.11.17a9.25 9.25 0 0 1-16.83-5.32c0-5.1 4.16-9.26 9.26-9.26zm14.57 74.06a22.94 22.94 0 0 1-5.54-2.05l-.08-.04c-1-.73-2.02-1.36-3.06-1.87l-.08-.04-.09-.06a24.06 24.06 0 0 1-9.73-19.38c0-9 5.1-17.3 13.06-21.4 2 1.93 4.64 3.06 7.42 3.17a11.34 11.34 0 0 0-3.22 7.91 11.4 11.4 0 0 0 9.58 11.23 11.38 11.38 0 0 0-.18 18.7c-3.14.12-6.03 1.5-8.08 3.83zm-15.27-39.37a26.21 26.21 0 0 0-1.37-14.24 11.3 11.3 0 0 0 7.8-1.37 11.36 11.36 0 0 0 1.9 8.5 26.1 26.1 0 0 0-8.33 7.11zm-10.68-23.98a9.27 9.27 0 0 1-18.52 0 9.2 9.2 0 0 1 1.76-5.42c.16-.13.28-.3.38-.5a9.24 9.24 0 0 1 16.38 5.92zm-20.5-1.76a11.87 11.87 0 0 0-17.66-2.84c.36-1.14.6-2.3.7-3.46 2.04-1 3.96-2.52 5.34-3.99l.04.04a16.1 16.1 0 0 1 2.35-1.96c1.43-.88 3.89-1.02 5.55-.87 1.6.15 3.58.75 4.34 1.97.83 1.33 1.43 3 1.56 4.35.1.94.07 1.36.03 1.55a11.3 11.3 0 0 0-2.25 5.21zm-19.82 6.28a9.76 9.76 0 0 1 19.5 0 9.76 9.76 0 0 1-19.5 0zm-6.74-37.89c2.1-.95 4.27-1.93 6.25-2.22 4.37-.65 9.54.48 11 5.6 1.35 4.8.34 10.45-2.72 15.08a16.3 16.3 0 0 1-4.9 4.41c-.13-1.71-.59-3.32-1.37-4.66-1.9-3.24-5.52-4.34-9.84-2.87l-.16.07a26.32 26.32 0 0 0-4.97 3.5c1.28-4.12 1.3-9.75-1.54-12.97 1.39-1.92 4.95-4.5 6.46-5.15.58-.24 1.18-.51 1.8-.79zm33.3 2.77c2.61 2.9 3.07 8.04 2.18 11.4-.52 1.96-2.92 7.54-4.67 9.98a13.16 13.16 0 0 0-1.78-4.78c-1.43-2.3-4.64-2.83-5.96-2.95-.8-.08-3.1-.2-5.21.45 2.14-4.54 2.7-9.61 1.43-14.08-.15-.51-.33-.98-.53-1.43 3.23-2.43 8.9-4.86 14.55 1.42zm-13.9-25.76c2.2-.41 4.19.31 6.1 2.22 2.36 2.34 3.63 4.98 3.58 7.44-.04 1.96-.92 3.74-2.61 5.3-3 2.74-6.91 6.08-9 7.3-2.79-3.43-7.61-4.18-11.54-3.6-1.04.16-2.1.48-3.16.87 3.48-7.37 10.18-18.31 16.63-19.53zm-11.14 6.12h.02a72.9 72.9 0 0 0-7.63 12.9c-.21-2.67-.69-5.94-1.49-7.2-1.58-2.47-4.12-3.59-6.69-3.89.14-4.49 1.29-9.94 4.15-12.8a6.7 6.7 0 0 1 4.95-2.02h.03c1.6 0 3.03.88 4.27 2.6 2.25 3.09 3.12 8.13 2.39 10.4zm-16.1-23.7c-.08-1-.16-1.87-.24-2.52-.52-4.07-.39-8.78.4-14.38.78-5.43 2.92-9.64 5.74-11.26 1.89-1.09 4.15-1.1 6.74-.06 5.93 2.4 8.07 8.44 6.57 18.46a55.88 55.88 0 0 1-2.2 8.91l-.33 1.03c-.68 2.18-2.2 7.02-4.07 9.24a6.4 6.4 0 0 0-3.16-.86h-.03c-2.53 0-4.7.89-6.46 2.64l-.52.58c-1.7-2.8-2.16-8.32-2.44-11.79zm-13.62 35.84a14.92 14.92 0 0 1 9.62-7.95c2.98-.74 7.2-.49 9.21 2.66.62.97 1.2 5.22 1.29 8.29l-1.28.57c-1.55.65-5.42 3.28-7.26 5.72-2.27-1.37-4.64-.8-6.78-.28-.86.2-1.67.4-2.46.48l-.04-.05-.09.07-.2.01.01.12c-.64.45-1.26.83-1.87 1.2l-.94.58a14.28 14.28 0 0 1 .79-11.42zm-11.3 40.8a3.6 3.6 0 0 1-2.36-2.27c-1.37-3.53 1.71-11.21 4.37-15.18 1.74-2.6 3.86-4.78 6.11-7.1l.95-.98a15.54 15.54 0 0 1 3.48-2.61c.56-.34 1.14-.7 1.74-1.1.79-.12 1.56-.3 2.3-.49 2.7-.65 4.44-.96 6.17.83 2.72 2.8 2.18 8.38 1.16 11.44a20.08 20.08 0 0 1-2.89 5.3l-1.7 1.75a157.87 157.87 0 0 0-4.62 4.9 34.56 34.56 0 0 1-3.32 2.47c-2.68 1.74-8.15 4.1-11.4 3.04zm22.1 9.36c-2.35 1.54-5.04 3.1-7.27 3.1-1.13 0-2.79-.33-4.1-3.21-1.7-3.75 1.72-8.69 3.27-10.64.7-.87 1.43-1.72 2.17-2.56a40.21 40.21 0 0 0 6.53-6.87l.55-.58c2.92-3.04 5.23-5.45 8.7-7.35 3.32-1.1 5.83-.43 7.24 1.96 1.7 2.9 1.45 7.64-.6 11.28-3.55 6.37-10.73 11.08-16.5 14.87zm4.53 9.81a9.27 9.27 0 0 1 13.32-8.31h.02a9.3 9.3 0 0 1 5.18 8.31 9.13 9.13 0 0 1-3.75 7.44 9.27 9.27 0 0 1-14.76-7.44zm16.74 8.58a11.4 11.4 0 0 0 3.9-8.58c0-2.2-.66-4.3-1.81-6.1a11.89 11.89 0 0 0 15.54-9.6 11.38 11.38 0 0 0 20.2-2.18 11.45 11.45 0 0 0 5.24 4.89 24.1 24.1 0 0 1-43.07 21.58zm-7.47 68.64a9.27 9.27 0 0 1 0-18.52 9.27 9.27 0 0 1 0 18.52zm11.19-11.31c5.03-2.02 9.2-5.51 12.09-9.87a26.25 26.25 0 0 0-.16 8.41 11.37 11.37 0 0 0-11.79 4.57 11.5 11.5 0 0 0-.14-3.12zm30.09-3.18a9.27 9.27 0 0 1 0 18.52 9.27 9.27 0 0 1 0-18.51zm-11.38 12.82c0 .69-.1 1.4-.27 2.11a9.16 9.16 0 0 1-9 7.15 9.27 9.27 0 1 1 9.26-9.25zm-2.69-29.27a25.98 25.98 0 0 0-9.25-25 26.32 26.32 0 0 0 31.65-7.94 25.94 25.94 0 0 0 6.11 22.06 26.2 26.2 0 0 0-28.5 10.87zm60.43 2.73a9.27 9.27 0 1 1-17.87-3.43 9 9 0 0 1 1.31-2.26 9.16 9.16 0 0 1 7.3-3.57 9.27 9.27 0 0 1 9.26 9.26zm6.14-20.64a9.27 9.27 0 0 1-18.52 0 9.27 9.27 0 0 1 18.52 0zM479.98 343a9.27 9.27 0 0 1-18.52 0 9.27 9.27 0 0 1 18.52 0zm-16.95-28.52a9.27 9.27 0 0 1 0 18.51 9.21 9.21 0 0 1-7.67-14.44l.05-.08c.04-.06.1-.12.13-.19a9.31 9.31 0 0 1 7.49-3.8zm42.74 125.1c-3.98 6.65-12.23 12.9-16.8 16.04-2.57 1.77-5.14 3.58-7.7 5.38-4.08 2.86-8.3 5.83-12.52 8.62l-2.53 1.7c-4.8 3.26-10.24 6.94-15.4 8.33l.47 1.79-7.55-13.81c2.35-.52 4.36-2.35 6.17-4 .76-.7 1.47-1.35 2.15-1.85a70.38 70.38 0 0 1 5.47-3.55 71.3 71.3 0 0 0 5.7-3.7c7.47-5.55 14.85-11.63 21.98-17.51a732.2 732.2 0 0 1 16.59-13.41 25.7 25.7 0 0 0 4.71-4.72c1.55 7.4 2.05 16.05-.74 20.7zm-71.22-13.88l12.1 27.25-19.6 2.28 7.5-29.53zm15.21 29.03l-5.63-12.7c5.37-2.51 9.89-6.52 14.26-10.42l.45-.4c2.93-2.61 6.1-5.03 9.17-7.37 3.79-2.9 7.7-5.89 11.23-9.28 9.97-9.63 19.86-20.77 25.04-34.23 5.2 14.93 9.27 31.46-3.79 41.6-5.6 4.35-11.2 8.98-16.63 13.45-7.11 5.87-14.47 11.93-21.9 17.45-1.74 1.3-3.67 2.46-5.53 3.59a72.13 72.13 0 0 0-5.64 3.65c-.76.57-1.52 1.26-2.32 1.99-1.87 1.71-3.8 3.48-5.82 3.58l-5.18-9.48 12.3-1.44zm-11.14 7.96l11.48 21-15.02 3.08 3.54-24.08zm-2.5 53.68l7.9-23.02 3.6 11.04-.16.24.3.2 3.69 11.28-15.33.26zm68.46-48.17c-3.23 5.4-9.6 9.03-15.23 12.22a175.8 175.8 0 0 0-3.75 2.17c-4.47 2.69-9.4 5.02-14.15 7.27-7.7 3.64-15.63 7.41-22.13 12.86l-5.1-15.65 9.13-1.87-1.93-3.52c5.5-1.5 11.07-5.26 16-8.6l2.51-1.69c4.24-2.8 8.47-5.78 12.56-8.65 2.56-1.8 5.12-3.6 7.7-5.37 4.14-2.85 11.23-8.2 15.73-14.22.7 7.3 1.59 20.14-1.34 25.05zM113.14 208.97c2.29 2.42 4.88 5.16 5.32 5.87l1.8-1.12c-.52-.86-2.46-2.92-5.58-6.21-2.6-2.75-6.55-6.92-6.92-7.75l.02.06-2.06.52c.23.94 1.97 2.88 7.42 8.63zM96.24 213.06l1.38 1.17c2.47 2.08 7.6 6.43 8.64 7.82l1.7-1.27c-1.09-1.46-5.2-4.99-8.97-8.18l-1.36-1.15c-.31-.28-.7-.66-1.12-1.08-1.52-1.5-2.69-2.6-3.78-2.9l-.59 2.04c.66.19 2 1.5 2.87 2.37.46.46.89.88 1.23 1.18zM90.89 224.9c1.4.58 2.78 1.27 4.13 1.95 1.55.78 3.16 1.58 4.8 2.23l.78-1.98c-1.56-.61-3.12-1.4-4.62-2.15a65.1 65.1 0 0 0-5.4-2.5c-1.48-.68-3.17-1.44-4.74-1.5l-.09 2.12c1.16.05 2.65.72 3.96 1.31.41.19.8.37 1.18.52z"/><path d="M197.55 216.31a12.16 12.16 0 1 0-.02-24.32 12.16 12.16 0 0 0 .02 24.32zM220.93 209.33a10.36 10.36 0 1 0 0-20.72 10.36 10.36 0 0 0 0 20.72z"/><path d="M206.59 214.52a6.67 6.67 0 1 0 13.33-.01 6.67 6.67 0 0 0-13.33.01z"/><ellipse cx="293.06" cy="449.44" rx="6.73" ry="6.08"/><ellipse cx="139.68" cy="398.76" rx="6.73" ry="6.08"/></svg>