<svg xmlns="http://www.w3.org/2000/svg" width="383.44" height="439.29"><path fill="none" d="M89.36 397.24a2.94 2.94 0 1 0 0-5.89c-1.61 0-2.92 1.33-2.92 2.95s1.31 2.94 2.92 2.94zM68.38 330.49c1.88 0 3.41-1.94 3.41-4.33s-1.53-4.33-3.41-4.33-3.42 1.95-3.42 4.33 1.53 4.33 3.42 4.33zM82.98 355.65c-3.27 0-5.94 2.02-5.94 4.5s2.67 4.52 5.94 4.52 5.94-2.02 5.94-4.51-2.67-4.51-5.94-4.51zM87.97 262.62c-.2-.26-.6-.68-1.1-.68h-.03c-.6.02-1.09.3-1.47.83-.95 1.34-1.07 3.91-.9 5.93 1.71-1.16 3.83-2.88 4.13-3.85.15-.49-.06-1.5-.63-2.23z"/><ellipse fill="none" cx="67.4" cy="300.04" rx="2.44" ry="2.62"/><path fill="none" d="M64.96 307.54c0 2.02 1.12 3.72 2.44 3.72s2.44-1.7 2.44-3.72-1.12-3.72-2.44-3.72-2.44 1.7-2.44 3.72zM85.26 254.92c.39-3.24.57-9.14-1.08-12.14-.64-1.16-1.55-1.81-2.64-1.9-1.38-.12-2.93.7-4.06 2.12-1.2 1.52-1.48 5.36-.66 8.92.72 3.1 2.11 5.34 3.82 6.17.9-.74 1.86-1.4 2.8-2.06.64-.44 1.25-.8 1.82-1.1zM64.96 287.73c0 4.42 1.77 7.38 3.42 7.38s3.41-2.97 3.41-7.38c0-2.29-.47-4.18-1.16-5.48a8.88 8.88 0 0 1-3.59-1.27c-1.14 1.1-2.08 3.53-2.08 6.75z"/><path fill="none" d="M79.74 258.9c-2.49-1.49-3.6-4.8-4.05-6.71-.91-3.94-.54-8.1.88-9.91 1.36-1.73 3.3-2.7 5.07-2.56a4.5 4.5 0 0 1 3.56 2.5c1.89 3.43 1.53 9.61 1.29 12.12a8.42 8.42 0 0 1 2.76-.68c1.5-3.1.35-10.61-.92-13.54-.93-2.14-3.58-6.92-8.18-5.23-3.16 1.15-4.9 3.94-5.8 6.08-1.75 4.16-1.86 9.54-.27 13.07 1.25 2.78 2.65 5 4.14 6.62.46-.65.97-1.23 1.52-1.76zM77.15 275.08c.32 3.2.72 7.2 3.34 8.88 1.95 1.26 4.43 1.31 6.83 1.36 1.41.03 2.87.07 4.22.34 6.11 1.23 13.06 3.4 18.3 10.14.66.86 1.3 1.75 1.88 2.68-.8-2.4-2.13-4.83-3.87-7.55-2.96-4.63-7.18-5.6-11.65-6.63a36.83 36.83 0 0 1-7.02-2.13 9.44 9.44 0 0 1-6.2-3.33c-3.2-3.74-4.76-8.36-4.06-12.07.53-2.75 2.27-4.97 5.05-6.42a5.87 5.87 0 0 1 5.26-.26 6.82 6.82 0 0 1 3.63 4.8c.1.4.11.83.1 1.24.54-.48.94-1.13 1.16-1.99.75-2.88-.57-6.75-1.54-7.9a3.8 3.8 0 0 0-2.68-1.4l-.01.01h-.01c-1.58-.13-3.5.57-5.78 2.14-3.02 2.08-5.07 3.67-6.13 6.62-1.14 3.21-1.19 7.9-.87 10.95l.05.52zM69.55 280.84a1.87 1.87 0 0 0-1.17-.5l-.1.02c.4.2.82.35 1.27.48zM323.68 22.6c1.57 3.34 4.99 6.3 8.3 7.2 3.1.84 6.91-.86 10.6-2.5 4.04-1.81 7.86-3.52 11.03-2.24 3.18 1.28 6 3.98 8.55 6.66-.04-.63.07-1.17.23-1.58a5.41 5.41 0 0 1 2.13-2.46 7.4 7.4 0 0 1-.86-.12c-2.1-.44-3.5-1.5-5-2.63-1.76-1.33-3.59-2.7-6.86-3.32-3.01-.56-6.65 1.23-9.87 2.82-3.4 1.68-6.33 3.13-8.46 2.04-4.65-2.39-4.15-7.35-3.94-9.46l.02-.18-2.9.04c-1.2.01-2.38.02-3.46.07-.77 2.11-.19 4.22.5 5.66zM267.28 214.6c1.43 0 3.67-2.22 5.01-3.55.37-.37.7-.7.98-.95 1.46-1.33 2.7-2.78 4-4.32l.84-.99c.19-.22.56-.6 1.01-1.07.88-.9 3.18-3.28 3.34-3.94a5.4 5.4 0 0 0-.52-.95c-1.56 2.9-7.1 7.54-7.94 8.05-1.94 1.17-4.93 2.48-7.27 2.78a2.73 2.73 0 0 1-1.82-.42 4.26 4.26 0 0 0-.1 3.8c.3.59 1 1.56 2.47 1.56zM233.2 250.15a9.02 9.02 0 0 1-1.13 1.91c4.13-1.42 7.15-3.66 9.5-5.4l.78-.57a32.74 32.74 0 0 1-5.54-1.52c-.95-.33-2.09-.72-3.68-1.23 1.15 1.78 1.17 3.91.08 6.8zM276.57 212.57l-1.13 1.36c-1.46 1.87-3.68 4.49-6.17 5.64-.45.2-.92.31-1.39.31-1 0-1.98-.46-2.81-1.34-.2-.2-.37-.43-.53-.67a3.18 3.18 0 0 0-.08 2.44c.48 1.37 1.7 2.61 2.74 2.76 2.18.31 4.54-2.6 5.82-4.17l.19-.24c2.9-3.56 6.15-7.56 7.93-11.72a183.47 183.47 0 0 1-4.57 5.63z"/><path fill="none" d="M268.78 218.51c1.7-.78 3.58-2.51 5.75-5.3l1.15-1.38c4.86-5.8 7.32-9.16 7.34-9.95-.03-.21-.07-.42-.12-.62-.6.8-1.56 1.84-2.94 3.27-.44.45-.8.81-.97 1.02l-.84.99a46.64 46.64 0 0 1-4.1 4.42l-.94.91c-1.65 1.65-3.92 3.9-5.83 3.9-.96 0-1.82-.32-2.5-.9a4 4 0 0 0 1.13 2.87c.42.44 1.53 1.4 2.87.77zM264.56 207.14c.36.74 1.08 1.48 2.02 1.36 2.17-.27 4.98-1.5 6.82-2.62 1.18-.71 6.9-5.8 7.7-7.98-.2-.16-.4-.3-.64-.43-.7 1.75-3.39 3.42-5.77 4.9-.99.62-1.92 1.2-2.55 1.7-.57.44-3.03 2.25-5.36 2.25-.56 0-1.12-.1-1.64-.36a3.1 3.1 0 0 1-.84-.6c-.1.52-.04 1.16.26 1.78zM223.07 242.42a6.54 6.54 0 0 0-2.72 3.25c-.96 2.55-.14 5.51 2.05 7.79 3.23.1 6.03-.3 8.46-1 .6-.7 1.4-1.84 1.68-2.56 1.18-3.12 1-5.19-.61-6.94a32.83 32.83 0 0 0-8.16-.61l-.7.07zm3.15 3.47c.44 0 .87.08 1.3.24 1.6.6 2.5 2.19 2 3.53-.36.95-1.36 1.57-2.55 1.57-.43 0-.86-.08-1.29-.24-1.6-.61-2.51-2.2-2-3.53.35-.96 1.35-1.57 2.54-1.57zM143.2 386.98c-.79.07-1.58.1-2.38.1-3.27 0-6.68-.54-10-1.07-4.05-.64-7.88-1.24-11.27-.88a84.44 84.44 0 0 0-4.01 3.04l-.82.63c2.6.36 5.18.82 7.68 1.28 8.6 1.57 16.73 3.06 25.34.46 2.08-.63 9.1-2.96 12.18-6.64 2.02-2.42 4.33-7.7 4.36-10.48-1.2.57-2.39 1.1-3.58 1.55-.34 7.63-10.52 11.36-17.5 12z"/><path fill="none" d="M221.4 253.41c-2-2.4-2.7-5.38-1.71-8a7.06 7.06 0 0 1 1.87-2.73c-4.17.94-7.83 3.8-12.63 7.56l-.23.18a43.55 43.55 0 0 0 12.7 3zM131 384.86c4.06.65 8.26 1.32 12.08.96 4.46-.42 15.64-3.1 16.41-10.43-2.61.9-5.24 1.5-7.9 1.83-.08.4-.26.8-.56 1.2-1.93 2.5-8.09 4.1-10.3 4.24-.87.06-2.1.11-3.49.11-3.6 0-8.33-.37-10.95-2.08l.59-.9a196.67 196.67 0 0 1-5.57 4.07c3.03-.05 6.28.46 9.7 1zM265.66 204.92c1.58.79 4.09-.46 5.76-1.77.68-.53 1.64-1.13 2.66-1.76 2.12-1.32 4.76-2.96 5.31-4.36a6.8 6.8 0 0 0-.93-.22c-3.13-.48-6.4.57-9.56 1.59-1.22.39-2.46.78-3.71 1.1-.38.96-1.56 4.41.47 5.42zM116.83 162.73c-1.64 0-2.97 1.42-2.97 3.17 0 1.74 1.33 3.16 2.97 3.16s2.97-1.42 2.97-3.16c0-1.75-1.33-3.17-2.97-3.17zM96.55 184.71v.11a2.9 2.9 0 0 0 2.44 1.36c1.6 0 2.92-1.34 2.92-2.97s-1.31-2.97-2.92-2.97a2.93 2.93 0 0 0-2.88 2.55c.27.58.44 1.23.44 1.92zM111.88 145.08a13.6 13.6 0 0 1 1.69-.05c-.85-.16-1.63-.25-2.3-.25-2.9 0-6.14 1.93-8.63 4.42a16.9 16.9 0 0 1 9.24-4.12zM111.52 169.29c-2 0-3.64 1.55-3.64 3.45s1.63 3.45 3.64 3.45c2.02 0 3.65-1.54 3.65-3.45s-1.63-3.45-3.65-3.45zM105.26 182c1.9 0 3.45-1.51 3.45-3.36s-1.55-3.36-3.45-3.36-3.46 1.5-3.46 3.36 1.55 3.35 3.46 3.35zM88.74 261.14a4.74 4.74 0 0 0-4.23.23c-2.49 1.3-3.98 3.2-4.44 5.62-.65 3.37.81 7.62 3.8 11.1 4.62 5.36 11.8 2.43 17.06.3l.42-.18c3.11-1.27 6.65-2.71 10.17-.96.26.12.5.27.75.43-1.83-2.44-4.64-4.16-8.04-3.85-1.35.12-3.07.56-4.89 1.02-6 1.51-13.47 3.4-15.6-3.49-.5-1.64-1.05-6.82.68-9.26a2.97 2.97 0 0 1 2.38-1.32c.75-.04 1.52.37 2.1 1.13.75.99 1.1 2.37.81 3.29-.52 1.72-4 4.08-5.09 4.78a6.08 6.08 0 0 0 1.34 3.15c2.87-1.43 6.43-5.12 5.77-7.98a5.68 5.68 0 0 0-2.99-4zM179.89 29.19c.32.86.99 1.43 1.92 1.64 1.1.27 3.86-1 4.5-2.26.18-.36.13-.61-.18-.87l.2-.23a8.1 8.1 0 0 0-5.84-2.2 4.47 4.47 0 0 0-.6 3.92z"/><path fill="none" d="M113.65 168.62a4.41 4.41 0 0 1-.95-2.72 4.24 4.24 0 0 1 4.13-4.33c.55 0 1.08.12 1.56.33a4.15 4.15 0 0 1 .83-5l-.05.02c-.19-1.52-5.16-5.68-7.62-5.52-3.53.21-5.56 2.4-7.23 4.74-2.14 2.98-3.36 5.65-2.42 8.96.5 1.71 2.98 4.84 5.25 5.74.18-.38.42-.73.7-1.05-1.56-.5-2.75-2.54-3.1-3.85-.75-2.8.32-5.37 1.33-7.3 1.12-2.14 2.39-4.56 5.26-4.22 2.4.29 4.57 2.77 4.63 5.32l-1 .03c-.05-2.02-1.87-4.13-3.75-4.35-2.18-.27-3.14 1.56-4.25 3.68-.93 1.77-1.91 4.12-1.26 6.58.3 1.12 1.33 2.84 2.48 3.18.27.07.54.06.8-.03l.38-.2c.1-.06.19-.13.28-.22l.05.06a4.96 4.96 0 0 1 3.95.15z"/><path fill="none" d="M106.71 172.74c0-.33.04-.65.1-.95-2.65-1.03-5.31-4.46-5.87-6.41-1.12-3.92.57-7.04 2.56-9.82 1.73-2.42 4.03-4.92 8-5.16 2.65-.19 7.64 3.67 8.53 5.92a4.23 4.23 0 0 1 3.73-.26 4.2 4.2 0 0 1-1.24-2.95c0-.88.29-1.7.77-2.4a19.8 19.8 0 0 0-4.44-3.17 11.13 11.13 0 0 0-6.88-1.46 16.2 16.2 0 0 0-10.92 6.25 21.3 21.3 0 0 0-3.29 6.05c-.5 2.65-.49 5.45.15 8.03.3 1.22 1.44 3.98 2.66 5.8.66.72 1.4 1.3 2.26 1.66.31-.14.62-.5.91-1.11l.9.43c-.2.4-.41.72-.64.98l.3.05a4.71 4.71 0 0 1 2.77.26 4.46 4.46 0 0 1-.36-1.74zM127.19 156.32c1.93 0 3.5-1.44 3.5-3.21s-1.57-3.21-3.5-3.21-3.5 1.44-3.5 3.2c0 1.78 1.57 3.22 3.5 3.22zM130.92 226.27c.09-.12.19-.21.28-.32l-1.17.07c-2.52.16-4.78.3-6.68.2a96.32 96.32 0 0 0 6.48 4.58 6.38 6.38 0 0 1 1.09-4.53zM142.97 225.95c-3.4 1.17-5.74 3.96-5.74 7.03 0 .77.15 1.52.42 2.23a58.97 58.97 0 0 0 13.09 4.62c3.21-1.28 5.28-3.92 5.28-6.85 0-1.42-.48-2.79-1.4-3.99l-.63-.31a34.2 34.2 0 0 0-10.19-2.65l-.83-.08zm4.2 5.04c1.73 0 3.13 1.17 3.13 2.6s-1.4 2.6-3.13 2.6-3.12-1.17-3.12-2.6 1.4-2.6 3.12-2.6z"/><path fill="none" d="M131.5 226.69a5.63 5.63 0 0 0-.84 4.64 75.13 75.13 0 0 0 6.1 3.45 6.98 6.98 0 0 1-.24-1.8c0-2.95 1.94-5.66 4.93-7.15-3.21-.2-6.3-.1-9.18.06-.27.21-.54.47-.78.8z"/><ellipse fill="none" cx="69.38" cy="274.85" rx="2.41" ry="2.77"/><path fill="none" d="M111 278.29c-3.05-1.52-6.19-.24-9.22 1l-.41.17-1.4.56c2.6 2.96 7.65 5.8 10.9 6.6 1.84.46 3.39 1.07 4.74 1.88.26-3.82-1.47-8.66-4.6-10.21zM161.59 233.6a28.6 28.6 0 0 0-5.73-4c.57 1.06.87 2.22.87 3.38 0 2.92-1.84 5.6-4.79 7.1 1.36.26 2.75.47 4.17.63 3.26-.46 5.26-3.75 5.48-7.11zM191.64 310.37l-.13-.92c-.19-1.39-.82-2.39-1.79-2.8-.97-.43-2.21-.2-3.4.64-.26.18-.5.4-.75.61-.8.7-1.72 1.49-3.12 1.25-1.12-.2-1.57-.9-1.97-1.54-.23-.36-.44-.7-.78-1-1.7-1.48-4-1.66-7.22-.57l-1.9.63c-2.1.68-4.28 1.4-6.24 2.3-2.26 1.04-4.35 2.54-6.37 4-2.35 1.69-4.77 3.42-7.53 4.5 2.14.52 4.73.7 8.01.53 1.98-.1 3.72-.83 5.56-1.6.8-.34 1.61-.68 2.46-.98.32-.1.66-.24 1.01-.39a9.63 9.63 0 0 1 3-.87c1.03-.05 1.86.33 2.68.69.43.19.84.37 1.26.48 2.27.6 5.09.3 7.57.03l.86-.1c1.02-.1 1.8-.18 2.77-1.31l.76.65a4.36 4.36 0 0 1-3.38 1.65c1.13 2.04 3.78 4.29 6.12 4.49 1.28.1 2.31.16 3.29.17.18-3.6-.3-7.13-.77-10.54z"/><path fill="none" d="M181.91 316.37c-2.52.28-5.36.56-7.75-.07-.5-.13-.96-.34-1.4-.54-.75-.33-1.44-.64-2.23-.6-.82.04-1.8.44-2.67.8-.37.15-.73.3-1.06.4-.82.3-1.63.63-2.4.96-1.84.77-3.74 1.57-5.9 1.68-.82.04-1.6.06-2.34.06-2.96 0-5.32-.32-7.32-1l.02-.06c-.23.06-.46.12-.7.16.72.72 1.41 1.48 2.12 2.3 1.6 1.84 3.24 3.74 5.33 4.84 1 .53 1.87 1.12 2.72 1.7 1.43.98 2.78 1.9 4.46 2.3l.24.07c1.32.31 2.56.61 3.96.48.76-.08 1.41-.33 2.1-.6.62-.24 1.27-.5 2.02-.63 1.83-.33 3.17.33 4.47.98 1.06.52 2.05 1.02 3.29.96 2.5-.1 4.55-1.1 6.25-3.06 1.11-1.28 2.45-4.18 2.55-6.06a10.87 10.87 0 0 1-5.76-5.07zM157.97 240.87c3.04.22 6.2.15 9.47-.26a34.26 34.26 0 0 0-5.2-6.4c-.34 2.83-1.86 5.5-4.27 6.66zM92.76 187.73c1.35 0 2.45-1.17 2.6-2.67a4.12 4.12 0 0 1-.46-1.85l.02-.2a2.55 2.55 0 0 0-2.16-1.31c-1.45 0-2.63 1.35-2.63 3.01s1.18 3.02 2.63 3.02zM122.15 156.9c-1.7 0-3.1 1.37-3.1 3.06 0 1.7 1.4 3.07 3.1 3.07s3.1-1.38 3.1-3.07a3.08 3.08 0 0 0-3.1-3.06zM139.96 166.68c-1.4 3.07-1.78 5.43-1.23 7.63a14 14 0 0 0 1.58 3.68c.34.57.67 1.06 1.18 1.56.18.2.78.73.9.82l-.03.02h.01l.06-.05.07.1c2.93.92 8.64 2.15 12.67.1 2.12-1.07 3.53-2.95 4.22-5.58a11.17 11.17 0 0 1-11.26 2.86 8.26 8.26 0 0 1-5.15-4.65c-1.75-4.05 1.44-9.84 3.74-13.5-2.79 1.53-5.5 4.27-6.76 7.01z"/><path fill="none" d="M158.26 160.52c.1-1.9-.53-3.34-1.89-4.27-2.32-1.6-6.05-1.31-8.53-.2-1.98.87-4.81 2.28-6.61 4.43a89.15 89.15 0 0 1-3.04 3.42c-.22.23-.83 1.12-1.37 1.9a29.27 29.27 0 0 1-1.67 2.3c.29 1.62.76 3.42 1.43 5.42a14.96 14.96 0 0 0 2.14 3.99 13.88 13.88 0 0 1-1.12-2.92c-.8-3.2.36-6.32 1.3-8.39 1.8-3.95 6.44-7.88 10.33-8.76 1.42-.33 4.66 0 5.67 1.48.35.52.6 1.38-.21 2.55-1.46 2.12-6.85 2.52-9.1 2.5-.34.68-.66 1.38-.94 2.1 3.57 2.1 7.48 1.83 10.94.94 1.46-.32 2.56-4.37 2.67-6.49z"/><path fill="none" d="M153.73 160.81c.52-.76.3-1.1.2-1.23-.6-.9-3.22-1.28-4.45-1a8.7 8.7 0 0 0-.83.23 64.13 64.13 0 0 0-2.44 4c2.55-.07 6.58-.63 7.52-2zM188.72 169.57c-1.42-.41-2.88-.83-4.31-1.67a21.47 21.47 0 0 0-4.03-1.66c-2.1-.72-4.28-1.45-5.9-2.95-3.12-2.85-3.87-7.78-4.28-10.42-.72-4.72-1.72-16.4 4.6-22.98 5.57-5.8 13.93-9.2 22.67-9.32l-1.44-.48c-1.67-.57-3.4-1.16-4.83-1.3a44.2 44.2 0 0 0-13.58.78c-7.2 1.54-13.57 7.7-15.5 15-.86 3.2-1.9 7.95-1.07 12.23.35 1.8 1.27 3.23 2.25 4.75.94 1.46 1.91 2.97 2.29 4.8.07.34.11.67.17 1.01h.01l.01.15c.14.85.25 1.69.34 2.5.3 2.65.6 5.16 2.23 7.58 1.82 2.7 4.76 4.31 9.25 5.05l1.06.17c6.67 1.08 15.8 2.56 18.47 10.65.76 2.32 1.02 4.84 1.27 7.26.17 1.66.34 3.37.68 4.96.9 4.33 2.84 6.64 7.38 8.85 3.87 1.87 6.87 3.83 8.95 6.91-.65-2.75-3.17-5.23-5.49-7.49-.91-.9-1.77-1.74-2.48-2.56-2.88-3.35-3.02-6.07-3.01-10.22 0-3.43-.97-6.95-3.05-11.05-1.24-2.44-3.54-4.54-5.77-6.57l-1.46-1.34c-1.65-1.56-3.49-2.09-5.43-2.64z"/><path fill="none" d="M164.45 156.58c-.32-1.54-1.13-2.85-2.01-4.22-1.77.31-3.85-.04-5.87-.4-1.18-.2-2.3-.4-3.28-.44-2.7-.12-5.57-.06-8.3 1.18-2.11.95-3.84 2.16-5.78 4.01-.36.36-.74.69-1.1 1-1.28 1.14-2.39 2.11-2.9 3.79a12.61 12.61 0 0 0-.3 5l.96-1.37c.64-.92 1.2-1.73 1.47-2.02a90.13 90.13 0 0 0 3-3.38c1.95-2.33 4.94-3.82 7.02-4.75 2.79-1.23 7-1.53 9.67.31 1.69 1.16 2.51 3 2.39 5.3-.05.92-.47 3.8-1.56 5.74l.7-.23c2.4-.85 6.52-4.47 6.07-8.42-.05-.36-.1-.73-.18-1.1zM112.85 122.13a2.76 2.76 0 0 0 2.8-2.65 4.28 4.28 0 0 1-.54-1.64 2.84 2.84 0 0 0-2.26-1.11c-1.56 0-2.82 1.21-2.82 2.7s1.27 2.7 2.82 2.7zM288.87 114.61c-2.13 0-3.86 1.49-3.86 3.3s1.73 3.31 3.86 3.31c2.12 0 3.85-1.48 3.85-3.3s-1.73-3.3-3.85-3.3zM116.74 119.16c.62.9 1.7 1.52 2.92 1.52 1.92 0 3.49-1.5 3.49-3.35 0-1.84-1.57-3.34-3.5-3.34s-3.49 1.5-3.49 3.34l.02.12c.32.5.51 1.08.56 1.7zM137.34 156.85c.35-.32.71-.63 1.07-.97.94-.91 1.85-1.67 2.76-2.32l-.2.06c-.35-1.15-.76-3.9-.6-5.63.23-2.55.96-5.09 2-6.97 2.29-4.14 6.64-6.1 10.49-7.84l1.5-.7a23.17 23.17 0 0 1-2.38-2.65c-1.2.8-2.58 1.43-3.93 2.01-1.93.84-3.93 1.72-5.35 3.2-2.2 2.28-4 4.87-5.4 7.7-2.1 4.29-3.79 11.9-2 16.15.6-.76 1.3-1.4 2.04-2.04zM132.98 136.57c-3.4 2.32-8.6 4.01-12.05 4.01-.4 0-.78-.02-1.13-.07-5.76-.78-8.42-7.53-9.13-14.22-.72 5.2.07 11.9 3.82 14.76 1.8 1.37 8.66 2.63 13.08 1.47 1.98-.52 3.25-1.43 3.8-2.7l.1.05c.5-1.33 1.05-2.45 1.4-3.1l.11-.2z"/><path fill="none" d="M136.27 142.22a31.88 31.88 0 0 1 5.6-7.99c1.57-1.65 3.68-2.56 5.72-3.45a22.83 22.83 0 0 0 3.7-1.9c-.5-.71-.98-1.48-1.43-2.29l.02.13c-6.4.89-13.26 5.44-15.98 10.59-.76 1.44-2.53 5.15-2.44 8.37.04 1.47.77 2.86 1.53 4.32l.62 1.24c.45-3.36 1.52-6.71 2.66-9.02zM276.94 142.22c0 1.85 1.76 3.35 3.92 3.35s3.92-1.5 3.92-3.35c0-1.84-1.76-3.34-3.92-3.34s-3.92 1.5-3.92 3.34z"/><path fill="none" d="M280.86 146.57c-2.72 0-4.92-1.95-4.92-4.35 0-.54.12-1.05.33-1.52a4.66 4.66 0 0 1-3.87 1.95c-1.7 0-3.16-.84-3.94-2.07a5.4 5.4 0 0 1-4.96 3.04c-2.97 0-5.37-2.18-5.37-4.87 0-.48.1-.94.24-1.37h-.07c-.02-1.17-.75-2.75-1.33-4.02l-.47-1.06c-.94-2.23-1.68-3.8-3.34-5.21-2.27-1.94-8.13-6.6-13.67-7.85l.08-.36a45.95 45.95 0 0 1-10.32 1.17h-.53l.01.07c-1.33.19-5.37 2.04-7.33 3.16-1.35.76-2.24 2.11-3.11 3.43-.4.6-.8 1.22-1.25 1.77l-.9-.73c.4-.5.78-1.08 1.18-1.68.94-1.43 1.92-2.91 3.5-3.8 1.18-.67 3.5-1.81 5.41-2.57-.75-.2-1.55-.5-2.4-.88a7.5 7.5 0 0 1-3.81.98 5.34 5.34 0 0 1-3.2-.86c-.26-.2-.57-.54-.9-.96-.25.08-.54.12-.87.12-1.81 0-4.47-1.03-4.9-1.3a9 9 0 0 1-1.2-.94l-.22.07-.1-.18.02.12a8.56 8.56 0 0 1-6.56-2.08 8.03 8.03 0 0 1-2.52-.7l-.67-.26c-.29-.1-.55-.22-.8-.33-1.67 1.27-3.79.72-5.52.26-.57-.15-1.1-.3-1.6-.37a32.6 32.6 0 0 0-8.9 0c-4.6.58-12.46 2.4-13.92 4.79l-.99-.6c2.27-3.72 14.64-5.33 14.76-5.34a33.8 33.8 0 0 1 9.23 0c.55.09 1.14.24 1.71.4 1.48.38 2.9.74 4.04.2a7.16 7.16 0 0 1-.92-.73h-.1c-1.17 0-2.99-1.48-3.98-2.46-.1.02-.21.04-.33.04-.64 0-1.5-.3-2.67-.9a6.57 6.57 0 0 1-1.97-1.94l-.02.05-.8-.21c-1.76-.45-3.43-.88-5.07-2.49l-.46.03c-1.33 0-2.4-.35-3.4-.92-.86.6-2.2.75-3.03.83l-.37.05c-.23.03-.44.04-.64.04l-.39-.03c-.04.12-.1.24-.19.35-.38.47-1.2.8-2.22.98-.03.4-.18.78-.46 1.15-.35.46-.86.85-1.43 1.18-.15 1.64-.9 3.87-2.22 5.17.45.57.44 1.13.33 1.52-.03.1-.08.19-.13.28.13.15.26.32.35.56.22.54.24 1.27.17 2.05 1.64 1.14 2.02 4.37 1.64 6.32a21 21 0 0 1 8.78-4.33 45.37 45.37 0 0 1 13.94-.8c1.56.15 3.35.77 5.09 1.36 2.25.77 4.59 1.57 6.25 1.3l.11.74c2.85.61 5.4 1.83 7.5 3.62 1.4 1.2 2.58 2.73 3.72 4.21a24.45 24.45 0 0 0 3.78 4.18c5.4-3.65 15.39-8.88 24.37-5.19 6.42 2.64 9.49 9.75 11.86 16.21.81 2.23 2.3 5.08 3.95 6.35.73-2.72 1.93-5.18 3.53-6.84l.84.8c-3.92 4.08-5.3 13.8-2.69 18.93.63 1.23 2.88 5.17 5.49 4.29 1-.35 2.54-1.82 3.04-2.67a6.03 6.03 0 0 1-3.96-2.02c-1.08-1.23-2.2-3.59-1.48-7.8.9-5.18 2.37-10.36 7-13.14l.6 1a10.67 10.67 0 0 0-3.4 3.26l.55-.28a3.8 3.8 0 0 0 3.34 2.23 7.28 7.28 0 0 0 5.94-3.18l.98.63a8.5 8.5 0 0 1-6.95 3.71c-.22.86.42 2.25 1.18 2.81.96.72 2.34.4 3.43.05 1.84-.61 5.66-3.04 5.9-4.53l1.15.18c-.36 2.22-4.9 4.86-6.69 5.45-.55.18-1.2.36-1.9.42-.21 1.09-.27 2.15.45 2.49.87.4 2.83-.05 3.85-.52.95-.44 5.48-3.03 6.35-4.17l.92.71c-1.13 1.48-6.07 4.18-6.78 4.51-.56.26-2.06.8-3.41.8a3.9 3.9 0 0 1-.9-.12c-.48.65-.6 1.18-.33 1.56.6.87 2.9 1.2 4.25.83.9-.26 1.8-.73 2.67-1.19l.82-.42.25-.12c.94-.47 2.71-1.35 3.42-1.96l.76.89c-.82.7-2.6 1.58-3.67 2.11l-.24.12c-.27.13-.53.27-.8.42-.93.48-1.89.98-2.9 1.27-.45.12-1 .2-1.6.2-.5 0-1.02-.06-1.53-.17-.7 1.05-1.57 3.25-.9 4.21.78 1.11 3.32.42 4.08.18 2.05-.65 4.04-1.73 5.95-2.78 1.01-.55 2.06-1.12 3.08-1.6l.5 1.04c-1 .48-1.98 1.02-3.02 1.58-1.97 1.07-4 2.18-6.16 2.87-1.04.33-1.97.49-2.76.49-.7 0-1.28-.14-1.76-.39-.67.71-.96 2.9-.32 3.7.62.79 2.71.68 4.37.2 1.5-.46 3.27-1 4.97-1.66 1.87-.73 3.23-1.41 3.81-1.93l.77.88c-.88.77-2.75 1.58-4.16 2.13a65.91 65.91 0 0 1-5.06 1.69c-.24.07-1.52.43-2.85.43-.38 0-.75-.05-1.12-.12-.56.81-.72 1.54-.42 2.17.46.99 2.02 1.75 3.72 1.82 2.33.08 6.15-.88 8.32-2.12l.57 1.01a20.02 20.02 0 0 1-8.93 2.27 6.56 6.56 0 0 1-3.83-1.34c-.61.45-1.52 1.35-1.26 2.67.27 1.35 1.29 1.44 3.05 1.48l.55.01c2.73.1 6.12-.58 8.17-1.18l.33 1.11a30.53 30.53 0 0 1-8.54 1.23l-.53-.01a7.01 7.01 0 0 1-2.64-.4c-.3.6-.3 1.35.05 2.1.38.81 1.1 1.39 1.73 1.4.9 0 1.74-.1 2.66-.22 1.23-.15 2.5-.3 3.82-.17a9.3 9.3 0 0 1 5.48 2.45c7.68-17.2 7.16-30.8-1.63-42.6a4.88 4.88 0 0 1-4.66 3.02zM294.88 137.88c1.78 0 3.23-1.57 3.23-3.5s-1.45-3.5-3.23-3.5-3.23 1.57-3.23 3.5 1.45 3.5 3.23 3.5zM292.26 122.22c-1.88 0-3.4 1.76-3.4 3.92s1.52 3.92 3.4 3.92 3.4-1.76 3.4-3.92-1.52-3.92-3.4-3.92zM292.52 141.23v-.11h.04c.1-.26.16-.53.16-.82 0-1.49-1.44-2.7-3.21-2.7s-3.22 1.21-3.22 2.7 1.44 2.7 3.22 2.7c1.38 0 2.56-.74 3-1.77z"/><path fill="none" d="M368.27 54.86l-1.69-.35c-3-.61-5.6-1.15-8.95-1.15h-.01c-3.58 0-6.48 2.41-9.55 4.97-2.95 2.46-6 5-9.84 5.42-.6.06-1.18.1-1.74.1-3.16 0-5.65-1.05-7.93-3.3l-.08-.08c-2.12-2.1-3.8-3.76-6.56-4.84-7.94-3.12-14.8-.22-22.94 3.9l-.12-.25-.2.33c-1.22 2.14-2.53 3.67-4.8 4.2-.17.37-.37.72-.59 1.03.7 1.73-.26 5.58-1.51 10.03a41.65 41.65 0 0 0-.63 2.38c-.72 3.64-3.3 7.45-7.88 11.64-4.46 4.09-12.61 5.93-18.36 5.63-2.52-.13-4.96-1.05-7.32-1.93-1-.38-2.02-.76-3.02-1.07-1.43-.45-2.87-.94-4.3-1.43-1.68-.57-3.42-1.16-5.13-1.68-5.96-1.8-11.88.1-17.61 1.92l-1.69.53c-2.2.69-3.46 1.73-5.06 3.04-.59.48-1.2.98-1.9 1.5l-1.45 1.04c-2.12 1.47-4.3 3-5.34 5.2 3.5 1.01 6.3.78 8.03-.02 28.69-13.96 39.71-3.06 41.63-.73.92 1.12 1.71 2.56 1.18 3.27a38.1 38.1 0 0 1-10.6 9.56 19.4 19.4 0 0 0 2.97 1.83 20.1 20.1 0 0 1 3.7 2.35 20.15 20.15 0 0 1 4.95 6.22c.3.6 1.17 2.96 1.83 5.25 1.01 3.54.94 4.8.72 5.34.84.5 1.5 1.22 1.92 2.07a4.48 4.48 0 0 1 2.99-2.07c.81-1.15-.86-10.27-1.72-11.74-2.64-4.47-8.14-9.31-13.1-11.5l.47-1.07c5.15 2.28 10.89 7.32 13.63 11.98.55.94 2.6 9.07 1.9 12.23a4.7 4.7 0 0 1 3.5 1.66c.65-.64 2-3.36 2.25-4.5.36-1.78-.28-4.06-.84-6.06-.15-.54-.3-1.06-.42-1.56a31.65 31.65 0 0 0-8.76-15.07l.8-.83a32.82 32.82 0 0 1 9.09 15.62l.4 1.53c.6 2.13 1.29 4.54.86 6.6-.1.55-1.4 4.14-2.8 5.24.18.43.29.9.29 1.38 0 .5-.12.97-.3 1.41a5.02 5.02 0 0 1 3.96-2.13l.11-.54c.09.02.2.02.37-.12 1.63-1.4 2.24-9.78 2.14-11.74-.36-7.27-2.57-12.44-6.77-15.81l.73-.9c4.47 3.58 6.83 9.03 7.2 16.65.05.97-.2 10.33-2.44 12.56 1.5.3 2.72 1.2 3.36 2.39v-.09c0-2.04 1.88-3.7 4.2-3.7.74 0 1.4.18 2 .46a4.64 4.64 0 0 1 .57-6.02c-2.34-.11-4.22-2.26-4.22-4.9 0-1.64.74-3.1 1.86-4a5.4 5.4 0 0 1-.84.08c-2.68 0-4.86-1.93-4.86-4.3s2.18-4.3 4.86-4.3 4.86 1.93 4.86 4.3c0 1.36-.73 2.56-1.84 3.35.12-.02.24-.05.37-.05 2.43 0 4.41 2.21 4.41 4.92 0 1.52-.63 2.86-1.6 3.76a4.38 4.38 0 0 1 4.04 4.48c0 1.51-.71 2.84-1.78 3.66l.08-.02c.5 2.98 2.01 7.06 6.39 9.62 3.89 2.27 6.6-.57 9.46-3.58l.14-.16a25.4 25.4 0 0 0 5.17-8.32 16.2 16.2 0 0 1 3.78-5.35l.07-.08c.97-.9 1.9-1.58 2.62-1.9a11.1 11.1 0 0 1 7.45-.54c-.97-1-1.9-1.93-2.78-2.5-1.34-.88-2.61-1.18-3.77-.89-1.47.37-2.85 1.7-4.01 3.85-1.59 2.92-3.5 6.35-5.69 9.57-1.02 1.5-3.8 5.6-7.38 5.6-.68 0-1.4-.15-2.12-.49-4.4-2.03-4.95-9.14-5.02-10.54l-.06-1.15c-.18-3.86-.35-7.5-1.23-11.17l-.23-.96c-.8-3.43-1.81-7.7-4.65-9.7l.39-.54c-1.55 1.39-3 2.33-4.38 2.84a6.1 6.1 0 0 1-2.18.37c-.47 0-.93-.04-1.39-.07-.7-.06-1.35-.11-2.05-.04l-.12-1.16c.8-.08 1.55-.02 2.27.04 1.04.08 2.03.16 3.06-.23 1.76-.65 3.67-2.09 5.82-4.4 2.96-3.16 5.3-6.92 7.25-10.2 4.09-6.83 8.84-11.69 14.97-15.29a13.38 13.38 0 0 1 10.02-.93 6.54 6.54 0 0 1 4.18 3.66c1.05 2.56-.35 6.19-1.68 7.94-1.13 1.5-2.6 1.88-4.02 2.23l.66.12c1.5.3 2.6.52 4.2-.7 2.86-2.2 4.5-5.09 4.47-7.94-.01-2.52-1.32-4.8-3.76-6.63-4.9-3.63-13.06-.6-17.44 1.02-6.79 2.52-12.76 8.97-16.09 14.17a41.3 41.3 0 0 1-7.75 9.13c-2.8 2.51-7.35 5.05-11.1 5.05-.24 0-.48-.01-.72-.04l.11-1.15c3.73.35 8.6-2.63 10.94-4.72a40.18 40.18 0 0 0 7.54-8.9c3.43-5.36 9.6-12.01 16.66-14.63 2.52-.93 6.22-2.3 9.94-2.69-.96-.1-1.93-.19-2.89-.19h-.02c-3.81 0-7.38 0-10.6 1.86a25.76 25.76 0 0 0-5.34 3.96l-.1.1c-3.83 3.8-3.63 4.64-3.6 4.72l-1 .6c-.63-1.07.46-2.85 3.77-6.14l.1-.1a26.85 26.85 0 0 1 5.6-4.15c3.48-2 7.2-2.01 11.14-2.01h.03c2.47 0 4.91.43 7.28.85 4.74.83 9.22 1.62 13.5-.91a34.8 34.8 0 0 0 8.81-7.47c.48-.58 1.13-1.24 1.82-1.94 1.27-1.3 2.75-2.82 3.56-4.26-1.74.8-3.38 2.28-4.96 3.72-.87.8-1.7 1.54-2.54 2.19l-1.11.85c-2.21 1.72-4.3 3.34-7.25 4.2a19.34 19.34 0 0 1-11.06-.1c-.8-.26-1.56-.53-2.32-.8-2.5-.88-4.86-1.71-7.7-1.59-6.87.3-13.97 1.1-18.79 7.29a65.23 65.23 0 0 0-4.7 7.3c-.87 1.48-1.76 3.02-2.73 4.5l-.74 1.17c-2.22 3.5-5.25 8.27-8.92 9.72l-.43-1.08c3.32-1.32 6.24-5.9 8.36-9.26l.76-1.18c.94-1.46 1.83-2.98 2.7-4.46a66.1 66.1 0 0 1 4.78-7.43c5.12-6.58 12.52-7.42 19.65-7.73 3.08-.13 5.53.74 8.15 1.66.74.26 1.5.53 2.28.77a18.15 18.15 0 0 0 10.39.1c2.73-.8 4.64-2.28 6.85-4l1.12-.86c.8-.61 1.61-1.35 2.47-2.12 1.8-1.65 3.67-3.35 5.8-4.15l.49-.16c0-.05.03-.1.03-.16l.35.04c.94-.26 1.9-.4 2.84-.53 1.17-.17 2.28-.34 3.32-.72a52.26 52.26 0 0 1-3.56-.42c-2.9-.43-5.38.44-8.03 2.82-2.48 2.23-5 4.08-7.8 6.1-6.05 4.36-12.9 1.68-18.93-.69-.8-.3-1.58-.62-2.35-.9-7.36-2.75-15.82-1.94-21.57 2.06-3.1 2.15-5.06 4.7-5.85 7.56a32 32 0 0 1-4 9.33c-1.94 2.94-4.74 5.9-6.95 8.14-2.42 2.45-6.08 5.75-9.9 6.18l-.13-1.16c3.46-.38 6.9-3.51 9.2-5.84 2.18-2.2 4.92-5.1 6.8-7.96 1.61-2.44 2.84-5.3 3.86-9 .86-3.14 2.98-5.9 6.3-8.2 6.06-4.21 14.95-5.07 22.65-2.2l2.36.9c6.05 2.38 12.3 4.83 17.84.84a88.8 88.8 0 0 0 7.7-6.02c2.89-2.6 5.74-3.59 8.97-3.1 3.51.52 6.46.74 9.44.14.73-.15 2.08-.57 3.5-1.1-1.8.14-3.78.03-5.78-.36zM122.06 121.1a4.05 4.05 0 0 0 2.02 1.37c2.18.78 5.23.76 6.54-.04 1.4-.86 2.61-3.06 2.88-5.22.1-.89.03-1.65-.18-2.3-.72 1.7-2.65 2.94-4.94 2.94a5.57 5.57 0 0 1-4.42-2.03 4.26 4.26 0 0 1-1.9 5.29zM274.28 160.59a2.92 2.92 0 0 1-1.24-.96c-.38-.55-.61-1.47.24-2.74-.9-.82-.78-2.23-.6-3.22-.5-.09-.97-.26-1.42-.6-1.07-.8-1.9-2.57-1.64-3.92a4.95 4.95 0 0 1-3.03-2.41c-1.55 2.57-2.22 5.67-2.72 8.57-.52 2.97-.1 5.33 1.2 6.83a4.87 4.87 0 0 0 3.8 1.64l.51-.01.08.5c.23 1.5-2.59 3.95-3.96 4.42l-.37.1c-1.59 2.1-4.04 3.99-6.59 5.03a4 4 0 0 1-1.52.33c-1.82 0-3.4-1.49-4.71-4.44-2.3-5.19-2-10.28-1.7-15.66l.14-2.41c.19-3.86.16-7.88-2.33-10.89-2.76-3.32-5.18-5.54-8.73-6.4-3.33-.8-7.17-.5-11.4.92-4.33 1.45-7.18 3.36-9.55 6.42l-.92-.71c2.48-3.2 5.6-5.3 10.1-6.8 4.45-1.5 8.5-1.81 12.04-.96 4.29 1.03 6.97 3.92 9.35 6.8 2.76 3.32 2.8 7.59 2.6 11.68l-.13 2.42c-.3 5.24-.6 10.19 1.59 15.12 1.4 3.14 2.9 4.26 4.73 3.5a15.67 15.67 0 0 0 5.52-3.93c-2.45-.5-4.26-3.5-5.02-4.98-1.64-3.2-1.85-7.9-.94-12.19-2.55-1.6-4.28-5.87-4.75-7.17-2.29-6.23-5.22-13.08-11.2-15.54-8.7-3.57-18.56 1.8-23.66 5.33l-.15-.21-.26.38c-1.79-1.25-3.2-3.08-4.57-4.85a27 27 0 0 0-3.56-4.04 16.5 16.5 0 0 0-10.15-3.78c-9.09-.4-17.97 2.95-23.72 8.94-5.96 6.21-4.99 17.45-4.3 22 .54 3.47 1.33 7.37 3.92 9.74 1.45 1.33 3.5 2.03 5.5 2.7 1.45.5 2.96 1 4.24 1.76 1.3.77 2.63 1.15 4.04 1.55 1.3.37 2.62.76 3.9 1.46 1.7.7 4.66-.07 7.53-.8 2.93-.76 5.95-1.54 8.12-.94 2.51.7 4.44 3.03 5.94 5.5a22.72 22.72 0 0 0-2.85-5.95c-1.27-1.81-3.9-4.92-7.23-5.31-1.37-.16-2.57.29-3.84.77-.66.24-1.35.5-2.07.68-1.7.4-3.47.35-5.19.3a73.5 73.5 0 0 0-1.31-.04c-4.5-.05-7.06-.58-10.36-3.57-6.05-5.49-8.52-18.74-2.67-25.82l.02.01c1.54-2.72 3.9-4.85 7.03-5.51l.32-.07c7.47-1.58 14.52-3.07 21.63 1.56 6.21 4.05 7.82 9.39 9.69 15.58l.29.96c2-3.08 4.97-5.2 7.68-6.9 4.15-2.58 7.84-2.16 12.12-1.67 2.93.33 5.11 1.4 6.49 3.21 2.77 3.63 1.88 9.4 1.09 14.5-.17 1.1-.33 2.15-.45 3.13-.61 5.16-.78 8.88 2.35 13.34a14.78 14.78 0 0 0 4.55 4.17l.18.1c.84.5 1.5.9 2.4 1.05 1.57.26 2.81.42 3.55.44a37.74 37.74 0 0 0 5.33-5.8c2.96-3.75 6.1-6.7 9.41-9.81l.83-.78c.22-.63.5-1.2.76-1.65z"/><path fill="none" d="M305.48 112.39c1.24 2.6 1.2 6.44 1.19 9.53v1.8c0 .89-.02 1.85-.04 2.84-.07 2.72-.14 5.54.44 7.83a3.8 3.8 0 0 0 2.56 2.74c1.5.49 3.2.13 4.45-.92 1.95-1.66 2.47-4.22 3.02-6.93.32-1.62.66-3.3 1.35-4.77.34-.75.79-1.38 1.3-1.92a10.62 10.62 0 0 1-3.8.06c-4.95-.74-5.52-3.2-6.1-7.49-.25-1.77-.65-3.72-1.78-4.74-.56-.5-2.16-1.05-2.93-.74-.24.1-.34.25-.37.54l-.98-.08c.7.67 1.29 1.4 1.69 2.25z"/><path fill="none" d="M297.36 107.41c-.36.37-.71.72-1.06 1.04 3.13 2.28 4.19 6.73 5.03 10.31l.23.95c.9 3.78 1.08 7.47 1.26 11.39l.06 1.15c.17 3.55 1.41 8.18 4.35 9.54 2.48 1.15 5.12-.39 8.05-4.7 2.15-3.18 4.05-6.58 5.62-9.48 1.34-2.47 2.94-3.96 4.75-4.42 1.5-.38 3.07-.03 4.7 1.04 1.11.73 2.23 1.88 3.4 3.1 2.03 2.1 4.11 4.26 6.2 4.26h.06c1.02-.01 2-.55 2.97-1.65.1-.1.2-.23.27-.38a4.7 4.7 0 0 1-1.47.5c-2.53.43-5.56-.98-6.62-2.17-.57-.64-1.08-1.32-1.57-1.97-1.3-1.74-2.53-3.38-4.64-4-3.5-1.05-7.78-.5-9.45 3.08a20.28 20.28 0 0 0-1.26 4.51c-.56 2.78-1.14 5.66-3.4 7.58a5.96 5.96 0 0 1-5.56 1.15 4.94 4.94 0 0 1-3.34-3.57c-.61-2.44-.54-5.34-.47-8.14.02-.98.04-1.92.03-2.8v-1.82c.03-2.96.05-6.66-1.07-9.03-1.13-2.38-4.17-3.96-6.61-5.23l-.46-.24z"/><path fill="none" d="M314.24 144.7l-.14.16c-2.17 2.27-4.55 4.78-7.55 4.78-1.04 0-2.14-.3-3.34-1-4.58-2.67-6.28-6.87-6.88-10.05-.46.18-.94.29-1.45.29-.62 0-1.2-.15-1.73-.4.36.54.57 1.16.57 1.82 0 .3-.04.57-.12.84h.07c-.07 3.4 1.35 6.4 4 8.49a12.46 12.46 0 0 0 10.75 2.14c3.15-.86 4.83-3.45 6.6-6.2.46-.7.91-1.4 1.39-2.07 1.9-2.67 2.89-5.7 3.53-8.1l-.3.62a26.43 26.43 0 0 1-5.4 8.68z"/><path fill="none" d="M305.25 153.34c-2.99 0-5.97-.97-8.3-2.8-2.5-1.96-4-4.67-4.35-7.74a4.46 4.46 0 0 1-3 1.2c.3 1.13 1.27 3.26 1.97 4.34a12.7 12.7 0 0 0 3.34 3.52c2.7 1.96 4.27 2.08 7.75 1.9a14.3 14.3 0 0 0 3-.43l-.4.01zM268.86 138.62c0 1.67 1.6 3.03 3.54 3.03s3.54-1.36 3.54-3.03-1.59-3.02-3.54-3.02l-.29.02a1.09 1.09 0 0 1-1.2.27c-1.2.48-2.05 1.52-2.05 2.73zM155.31 133.33l-1.97.9c-3.86 1.75-7.85 3.56-9.95 7.36a17.49 17.49 0 0 0-1.87 6.5c-.13 1.44.19 3.74.49 4.9.79-.5 1.61-.95 2.5-1.35a13.5 13.5 0 0 1 1.75-.64c-.36-3.28 2.17-7.4 4.05-9.42a30.41 30.41 0 0 1 4.47-3.74 8.46 8.46 0 0 1 2.55-1.21c.3-.1.6-.2.91-.32l.02-.14c.19 0 .35 0 .54.06l1.48.48-1.43.6c-.4.17-.78.3-1.15.42-.75.25-1.46.49-2.23 1.05-1.4 1.02-3 2.18-4.3 3.59-1.83 1.96-3.98 5.61-3.78 8.34 2.02-.42 4.03-.44 5.95-.35 1.06.05 2.21.25 3.43.46 1.73.3 3.5.6 4.98.47a12.43 12.43 0 0 1-1.84-4.27c-.72-3.76-.1-7.79.63-10.94-1.6-.28-3.43-1.25-5.23-2.75zM258.22 118.78c-1.04-.9-2.29-1.56-3.5-2.21-1.1-.6-2.24-1.2-3.2-1.98l.66-.8c-1.2.73-2.45 1.4-3.74 2.02 3.49.9 6.56 5.27 8.66 8.27.32.45.61.87.88 1.23 2.19 3 2.78 5.75 3.32 9a5.77 5.77 0 0 1 4.1-.1c.45-1.1-1.74-8.04-2.5-9.57a19 19 0 0 0-4.68-5.86zM265.5 134.24l.02-.06-.07.05h.04zM118.57 121.64c.06 2.86 1.46 5.7 3.57 7.14a5.76 5.76 0 0 0 5.7.5c7.37-3.04 9.42-11.14 8.13-16.07a6 6 0 0 1-2.44-.66c.07.28.1.57.1.86.74.94 1.06 2.3.86 3.92-.3 2.48-1.69 4.93-3.35 5.96a7.1 7.1 0 0 1-3.55.76c-1.28 0-2.66-.21-3.85-.64a4.82 4.82 0 0 1-2.62-1.88c-.46.15-.95.25-1.47.25-.37 0-.73-.06-1.08-.14z"/><path fill="none" d="M114.69 122.77c.02 4.5.6 9.79 4.33 11.99 4.03 2.37 9.9 0 12.85-2.16 6.17-4.53 13.04-14.36 9.43-22.36-.57 1.57-2.24 2.75-4.3 2.95 1.25 5.31-1 13.8-8.78 17.02-1.05.43-2 .6-2.87.6-1.6 0-2.87-.58-3.77-1.2-2.47-1.69-4.08-5.04-4.03-8.35-.36-.18-.7-.4-1-.66a3.83 3.83 0 0 1-1.86 2.17zM149.46 101.18c-.32 0-.62-.03-.92-.08.38.65.62 1.38.68 2.17.4-.74.83-1.48 1.33-2.22-.35.07-.72.13-1.1.13zM149.46 100.18c.83 0 1.59-.26 2.2-.66.35-.47.74-.94 1.15-1.4.1-.28.17-.57.17-.87 0-1.62-1.58-2.93-3.53-2.93-1.94 0-3.52 1.31-3.52 2.93 0 1.61 1.58 2.93 3.53 2.93z"/><path fill="none" d="M149.35 125.63a27.02 27.02 0 0 1-1.72-4.2 23.77 23.77 0 0 1-.23-13.68 5.47 5.47 0 0 1-5.93.83c.02.15.06.3.06.45.05 0 .09 0 .14.02l.2.06.1.2c4.38 8.6-2.93 19.27-9.51 24.1-2.56 1.88-6.13 3.34-9.45 3.34-1.6 0-3.14-.34-4.5-1.13-4.06-2.39-4.76-7.8-4.82-12.48a4.02 4.02 0 0 1-2.22-.16c.05 2.56.7 15.48 8.47 16.54 3.93.53 12.59-2.6 14.89-6.02l.22.14c3.46-3.97 9-7.16 14.3-8z"/><path fill="none" d="M128.38 116.69c2.26 0 4.1-1.45 4.1-3.23s-1.84-3.23-4.1-3.23-4.1 1.45-4.1 3.23 1.84 3.23 4.1 3.23zM152.39 100.22a22.48 22.48 0 0 0-3.8 20.91c2.36 7.6 8.16 13.36 12.19 13.98l.2-.84a21.27 21.27 0 0 1 2.6-5.85c-.52.3-.99.56-1.38.74l-.42-.9c1.1-.52 2.67-1.5 3.91-2.69.3-.34.61-.68.93-1 .4-.51.71-1.03.89-1.56.48-1.48.23-4.2-.75-5.4-.25 1.13-.67 2.22-1.1 2.89-1.84 2.95-4.55 4.22-6.71 4.99l-.34-.95c2.13-.76 4.54-1.9 6.2-4.57.76-1.2 1.52-4.02 1.05-5.21l-.02-.05a7.78 7.78 0 0 1-3.09 1.83l-.48.13c-1.77.45-3.57.87-5 .87-.6 0-1.13-.07-1.57-.26l.38-.92c1.29.53 4.31-.24 5.94-.66l.49-.13c.8-.2 2.82-1.28 3.1-2.28.04-.16.04-.38-.17-.64-.23.13-.48.25-.74.32a7.8 7.8 0 0 1-2.08.26c-1.5 0-3.05-.32-4.47-.61-.88-.18-1.72-.35-2.48-.44l.12-1c.8.1 1.65.27 2.56.46 2.09.43 4.26.87 6.08.37 1.55-.43 2.61-2.75 2.95-4.61-.82.33-1.61.54-2.11.6-.35.04-.7.06-1.05.06-1.87 0-3.84-.56-6-1.72l.48-.88c2.4 1.29 4.46 1.78 6.45 1.55.95-.11 3.15-.87 3.94-1.93.1-.14.17-.27.22-.4a17.58 17.58 0 0 1-4.63-.26c-2.57-.5-4.2-1.53-4.61-2.87l.96-.3c.29.97 1.69 1.76 3.84 2.18 1.6.32 3.29.36 4.6.22v-.01a.6.6 0 0 0 .08 0c1.08-.12 1.9-.36 2.2-.68-.36-.13-.73-.3-1.14-.52-2.52-1.29-4.26-2.7-5.34-4.3l.83-.55c.98 1.45 2.6 2.75 4.97 3.96 1 .52 1.58.78 2.58.65l.4-.05a7.89 7.89 0 0 0 2.2-.46c-.26-.18-.5-.38-.76-.59l-.2-.17c-1.58-1.32-4.24-3.54-4-5.85l1 .1c-.19 1.79 2.3 3.87 3.64 4.98l.2.17c1.26 1.06 2.43 1.75 3.98 1.87-1.2-1.44-2.77-3.72-3.03-6.21l1-.1c.2 1.92 1.42 4.22 3.36 6.3 1.45 1.57 2.92 2.02 4.58 2.44-1.13-1.59-2.84-4.45-1.78-5.93l.81.58c-.62.87.72 3.45 2.36 5.55l.27.35c.5.65 1.07 1.4 1.7 1.72.75.39 1.27.59 1.63.7-1.18-1.74-2.28-4.22-2.2-6.22l1 .03c-.07 1.65.85 4.04 2.26 5.96.51.68 1.77 1.74 2.74 2.33a10.82 10.82 0 0 1-1.51-5.56l1-.03c.08 2.52.72 4.48 1.92 5.82.45.52.96.92 1.55 1.27l.28-.37a.33.33 0 0 0-.25-.06c.12-.03.38-.1.64.05.26.16.34.42.39.6l.06.3-.02.02.36.15.71.27c.32.13.65.26.98.37a9.82 9.82 0 0 1-2-6h1c0 2.51 1 4.85 2.72 6.42a7.54 7.54 0 0 0 5.38 1.94l-.05-.05c-1.1-1.35-2.28-3.9-2.32-5.56l1-.02c.03 1.3 1 3.6 2.1 4.95a8.76 8.76 0 0 0 1.93 1.74c.63.4 3.4 1.23 4.6 1.16-1.2-1.78-2.45-4.2-2.54-5.23l1-.08c.1 1.14 2.48 5.39 3.7 6.35.97.77 3.55.88 5.3.12-1.28-.8-3.32-2.63-3.1-4.26l.99.14c-.15 1.1 1.87 2.93 3.03 3.5a11.8 11.8 0 0 0 4.63 1.37l.28-.05.01.07h.06c13.58.17 26.04-5.6 33.47-15.48.04-.31-.78-2.1-3.1-3.9-3.78-2.93-15.1-8.52-38.48 2.87-3.19 1.47-9.63 1.25-17.34-4.26-5.2-3.5-29.98-14.28-42.36-5.83a37.8 37.8 0 0 0-7.16 6.22 4 4 0 0 1-1.28 1.56zm81.4 9.96c.15 0 .38.06.83.16 1.03.24 2.94.67 4.1.48 1.86-.3 3.64-1.45 5.2-2.46l.35-.23c3.95-2.53 6.75-3.25 11.53-2.92l.72.04-.3.66c-1.5 3.4-3.46 5.43-5.64 5.87-1.87.37-3.83-.41-5.83-2.31l.69-.73c1.75 1.67 3.42 2.36 4.94 2.06 2.11-.42 3.64-2.63 4.62-4.64-4.08-.18-6.65.55-10.19 2.82l-.35.22c-1.64 1.06-3.5 2.27-5.58 2.61-.26.04-.53.06-.82.06-1.25 0-2.71-.33-3.66-.55-.32-.07-.56-.13-.67-.14l.06-1zM263.5 142.62c2.4 0 4.36-1.74 4.36-3.87 0-1.47-.94-2.74-2.3-3.4-.14 0-.3-.02-.48-.1l.04-.09a4.82 4.82 0 0 0-1.63-.28 4.4 4.4 0 0 0-4.03 2.4v.07h-.03c-.19.44-.3.9-.3 1.4 0 2.13 1.96 3.87 4.37 3.87zM143.8 107.9c2.34 0 4.25-1.87 4.25-4.17s-1.9-4.18-4.25-4.18-4.26 1.87-4.26 4.18 1.91 4.17 4.26 4.17z"/><path fill="none" d="M257.04 126l-.89-1.26c-2.18-3.1-5.47-7.8-8.81-7.94l.02-.51c-2 .88-4.08 1.62-6.23 2.2 5.34 1.68 10.64 5.87 12.78 7.71 1.85 1.59 2.68 3.34 3.66 5.65.13.32.3.66.46 1.03.43.94.9 1.97 1.18 2.97.25-.3.54-.57.85-.82-.15-.03-.3-.09-.45-.15l.42-1.06c-.5-2.88-1.1-5.22-2.99-7.82zM136.37 112.21c2.28 0 4.13-1.4 4.13-3.14 0-.57-.21-1.1-.56-1.55a5.35 5.35 0 0 1-.38-.41 4.68 4.68 0 0 0-3.19-1.18c-2.28 0-4.13 1.41-4.13 3.14s1.85 3.14 4.13 3.14z"/><path d="M123.5 229.4l-.8.6c4.74 6.24 13.78 12.86 30.83 12.86 3.97 0 8.37-.36 13.25-1.16.86-.1 1.72-.21 2.6-.36l-.17-.98-.22.03c-3.73-6.04-8.58-10.41-14.42-13a35.57 35.57 0 0 0-10.62-2.77c-5.03-.56-9.8-.27-14-.01-3.44.2-6.4.39-8.46 0l-.03.14c-.97-.77-1.85-1.5-2.62-2.12-.73-.6-1.36-1.12-1.9-1.54l-.62.78 1.89 1.53c.88.73 1.9 1.56 3.05 2.46l-.03.15.26.04c7.36 5.79 19.72 14.27 35.27 15.73-18.75.88-28.38-5.95-33.26-12.38zm43.94 11.2c-3.26.42-6.43.49-9.47.27 2.41-1.15 3.93-3.83 4.27-6.65a34.19 34.19 0 0 1 5.2 6.39zm-15.5-.53c2.95-1.5 4.8-4.17 4.8-7.09 0-1.16-.3-2.32-.88-3.38a28.6 28.6 0 0 1 5.73 4c-.22 3.36-2.22 6.65-5.48 7.1-1.42-.15-2.8-.36-4.17-.63zm2.05-11.39l.64.31a6.53 6.53 0 0 1 1.4 4c0 2.92-2.08 5.57-5.3 6.84a58.97 58.97 0 0 1-13.08-4.62 6.3 6.3 0 0 1-.42-2.23c0-3.07 2.34-5.86 5.74-7.03l.83.08c3.8.43 7.14 1.3 10.2 2.65zm-12.54-2.85c-2.99 1.49-4.93 4.2-4.93 7.15 0 .61.1 1.21.25 1.8a75.13 75.13 0 0 1-6.11-3.45c-.5-1.87.09-3.6.83-4.64.24-.33.5-.59.78-.8 2.88-.16 5.97-.26 9.18-.06zm-11.42.2l1.17-.08c-.1.1-.2.2-.28.32a6.38 6.38 0 0 0-1.1 4.53 96.42 96.42 0 0 1-6.47-4.57c1.9.08 4.16-.05 6.68-.2z"/><path d="M128.6 220.46h-1.68v1h1.68c10.95-.03 27.52-.07 33.71 8.53l.81-.58c-6.49-9.02-23.36-8.98-34.53-8.95zM177.42 242.37c0 2.45-.58 4.25-1.75 5.36-1.02.98-2.53 1.44-4.47 1.35l-.05 1 .5.01c2 0 3.58-.55 4.71-1.64 1.37-1.3 2.06-3.35 2.06-6.08h-1z"/><path d="M160.25 210.75c-9.89-5.15-24.3-3.59-41.7 4.51l-.22.11.3.64.23-.1c17.18-8.01 31.38-9.58 41.06-4.53 7.1 3.7 11.65 10.98 13.53 21.67l.7-.13c-1.93-10.9-6.6-18.37-13.9-22.17z"/><ellipse cx="147.17" cy="233.59" rx="3.13" ry="2.6"/><path d="M234.98 252.57c-6.02 3.38-17.8 2.63-25.7-.03l-.32.94a48.23 48.23 0 0 0 14.75 2.33c4.53 0 8.8-.7 11.76-2.36l-.5-.88zM215.06 239.77l.36.93c8.35-3.18 13.16-3.18 22.37.01l.32-.94c-9.47-3.29-14.43-3.29-23.05 0zM225.68 250.99c.43.15.86.23 1.3.23 1.18 0 2.18-.61 2.54-1.56.5-1.34-.4-2.93-2-3.53a3.65 3.65 0 0 0-1.3-.24c-1.19 0-2.19.61-2.55 1.57-.5 1.34.4 2.92 2.01 3.53zM116.04 198.43c.02-.1.07-.18.1-.26l-.16.2.06.06zM184.83 205.54c-2.33-2-4.69-3.06-7.43-4.33-5.33-2.46-10.73-4.88-15.99-7.65-4.62-2.43-9.28-4.65-14.31-5.72-2.13-.45-4.95-.2-7.13-.1-2.45.11-4.98.12-7.2 1.1-2.17.96-4.25 1.99-6.52 2.7-2.35.74-3.95 1.77-5.95 3.11-1.19.8-3.57 2.07-4.15 3.52 1.31-1.46 4.5-2.68 6.13-3.48 2.35-1.17 4.56-2.5 7.08-3.44 2.41-.9 4.78-1.75 7.38-2.23 2.22-.42 4.84.21 7.09.53 2.25.32 4.14 1.7 6.23 2.59 2.35.99 4.8 1.66 6.98 2.9 1.9 1.08 3.58 2.67 5.35 3.9 2.16 1.5 4.7 2.72 7.1 3.8 2.64 1.19 5.38 2.09 8.01 3.22 2.04.88 3.92 2.74 6.02 3.3.9.24 2.19.1 2.7-.84.7-1.3-.57-2.18-1.39-2.88zM115.9 198.48l.08-.1a.91.91 0 0 0-.23-.18l.15.28zM176.28 274.24l1.2-1.09-.69-.73-1.17 1.07c-3.05 2.74-7.22 6.5-7.46 11.12-.12 2.45.9 4.89 3.03 7.24l.74-.67c-1.98-2.18-2.88-4.31-2.77-6.52.22-4.2 4.2-7.8 7.13-10.42zM180.94 287.7c-2.3.26-4.47 1.48-4.86 2.7l.95.3c.2-.65 1.88-1.76 4.03-2.01a6.1 6.1 0 0 1 6.2 3.08l.86-.51a7.06 7.06 0 0 0-7.18-3.56zM187.22 295.52c-1.4 3.8-1.23 5.77-.45 7.9l.94-.35c-.7-1.9-.85-3.7.45-7.2l-.94-.35zM192.63 310.24l-.13-.92c-.23-1.73-1.1-3.03-2.38-3.6-1.3-.56-2.9-.3-4.37.75-.29.2-.56.44-.83.68-.76.66-1.36 1.18-2.3 1.01-.68-.11-.93-.5-1.3-1.09a5.2 5.2 0 0 0-.96-1.2c-1.97-1.73-4.65-1.98-8.2-.78l-1.9.63c-2.12.7-4.33 1.41-6.34 2.34a40.62 40.62 0 0 0-6.53 4.1c-2.65 1.9-5.38 3.86-8.54 4.81-5.26 1.58-10.48-2.63-13.94-5.42l-.63.78c3.15 2.54 7.7 6.2 12.63 5.98.9.82 1.73 1.78 2.62 2.8 1.65 1.91 3.36 3.88 5.61 5.08a27 27 0 0 1 2.62 1.64c1.51 1.03 2.94 2 4.8 2.45l.23.06c1.35.32 2.73.65 4.3.5.9-.09 1.64-.38 2.37-.66.6-.24 1.17-.46 1.83-.58 1.5-.27 2.64.3 3.84.9a7.79 7.79 0 0 0 3.78 1.06 9.33 9.33 0 0 0 6.96-3.4 13.54 13.54 0 0 0 2.78-6.48l.39.05c1.44.13 2.59.18 3.68.18l.6.5.03-.5c.17 0 .35 0 .52-.02h.35c1.55-.03 3.26-.12 3.85-1.01l-.83-.56c-.35.53-2.37.56-3.04.57h-.36l-.44.01c.19-3.67-.3-7.22-.77-10.66zm-7.51 17.26a8.36 8.36 0 0 1-6.25 3.06c-1.24.06-2.23-.44-3.3-.96-1.3-.65-2.64-1.32-4.46-.98-.75.14-1.4.39-2.02.63-.69.27-1.34.52-2.1.6-1.4.13-2.64-.17-3.96-.49l-.24-.05c-1.68-.4-3.03-1.33-4.46-2.3a28.03 28.03 0 0 0-2.72-1.7c-2.09-1.11-3.73-3.01-5.33-4.85-.7-.82-1.4-1.58-2.11-2.3.23-.04.46-.1.69-.17l-.02.07c2 .68 4.36 1 7.31 1 .75 0 1.53-.02 2.35-.06 2.15-.1 4.05-.9 5.9-1.68.77-.33 1.58-.67 2.4-.95l1.06-.41c.86-.36 1.85-.76 2.67-.8.8-.04 1.48.27 2.22.6.45.2.91.4 1.41.54 2.39.63 5.23.35 7.75.07a10.86 10.86 0 0 0 5.76 5.07c-.1 1.88-1.44 4.78-2.55 6.06zM183 316.26a4.37 4.37 0 0 0 3.37-1.66l-.76-.65c-.96 1.13-1.74 1.21-2.77 1.32l-.85.09c-2.48.27-5.3.57-7.57-.03-.42-.1-.83-.29-1.26-.48-.82-.36-1.65-.74-2.68-.69-1 .05-2.06.49-3 .87-.36.15-.7.29-1.01.4-.85.29-1.67.64-2.47.97-1.84.78-3.57 1.5-5.55 1.6-3.28.17-5.87 0-8.01-.52 2.76-1.09 5.18-2.82 7.53-4.51 2.02-1.45 4.1-2.95 6.37-4 1.96-.9 4.13-1.61 6.24-2.3l1.9-.63c3.23-1.1 5.52-.9 7.22.58.33.3.55.63.78 1 .4.62.85 1.34 1.96 1.53 1.4.24 2.32-.55 3.13-1.25.25-.2.5-.42.76-.61 1.17-.83 2.41-1.07 3.4-.64.96.42 1.6 1.41 1.78 2.8l.13.92c.47 3.41.95 6.94.76 10.54-.97 0-2-.06-3.28-.17-2.34-.2-4.99-2.45-6.12-4.48zM238.06 111.87c.29 0 .56-.02.82-.06 2.07-.34 3.94-1.55 5.58-2.61l.35-.23c3.54-2.26 6.1-3 10.2-2.8-.99 2-2.52 4.2-4.63 4.62-1.52.31-3.2-.38-4.94-2.05l-.69.72c2 1.9 3.96 2.69 5.83 2.32 2.18-.44 4.14-2.47 5.65-5.87l.29-.66-.72-.05c-4.78-.32-7.58.4-11.53 2.93l-.35.23c-1.56 1-3.34 2.15-5.2 2.46-1.16.2-3.07-.24-4.1-.48-.45-.1-.68-.15-.83-.16l-.06 1c.1 0 .35.06.67.14.95.22 2.41.55 3.66.55zM331.23 7.62l-.67.74a9.4 9.4 0 0 0 6.36 2.55A8.72 8.72 0 0 0 343 8.55c1.06-1.13.92-2.05.43-2.53-3.5-3.43-8.9-1.6-14.12.18-3.35 1.14-6.52 2.22-8.8 1.72l-.21.98c2.54.56 5.84-.57 9.33-1.76 4.93-1.68 10.03-3.41 13.1-.4.21.2-.09.73-.46 1.12-1.71 1.83-6.7 3.63-11.04-.24zM92.76 188.9a3.81 3.81 0 0 0 3.51-2.63 4.02 4.02 0 0 0 2.72 1.07 4.11 4.11 0 0 0 4.01-4.78 4.57 4.57 0 0 0 6.87-3.92c0-.6-.12-1.18-.34-1.71.6.27 1.28.43 2 .43a4.72 4.72 0 0 0 4.8-4.62c0-1.07-.4-2.05-1.04-2.84.48.2 1 .32 1.54.32a4.24 4.24 0 0 0 4.13-4.32c0-.76-.2-1.46-.52-2.07a4.24 4.24 0 0 0 4.8-6.76c.6.26 1.25.41 1.95.41 1.69 0 3.16-.85 3.98-2.12.09 1.13-.03 2.4-.4 5.17-.4 3.05-.88 5.08-2.43 7.69a14.85 14.85 0 0 1-12.85 7.15l-.03 1 .43.01c5.25 0 10.56-3.03 13.3-7.65 1.64-2.74 2.17-4.95 2.58-8.07.54-4.19.57-5.1.06-7.34l.02-.21c0-2.41-2.09-4.38-4.66-4.38-1.04 0-1.99.33-2.76.87-2.62-3.5-9.58-5.82-13.16-5.82-4.7 0-9.82 4.32-12.26 8.39a18.47 18.47 0 0 0-2.21 5.96 13.6 13.6 0 0 0-.58 7.22c.49 2.2 1.62 5.22 3.47 7.34.8 1.2 1.72 2.13 2.68 2.23l.19.01.08-.01a4.49 4.49 0 0 0-1.91 4.57 4 4 0 0 0-5.5 2.08 3.57 3.57 0 0 0-2.47-1.04c-2.09 0-3.79 1.88-3.79 4.18s1.7 4.18 3.8 4.18zm12.5-14.78c-.33 0-.64.03-.95.1l-.31-.05c.23-.27.44-.57.64-.98l-.9-.44c-.3.6-.6.98-.91 1.11a6.44 6.44 0 0 1-2.25-1.65 22.88 22.88 0 0 1-2.67-5.8 18.96 18.96 0 0 1-.15-8.03 21.28 21.28 0 0 1 3.3-6.05 16.2 16.2 0 0 1 10.91-6.26c2.53-.23 4.65.22 6.88 1.47a19.8 19.8 0 0 1 4.44 3.18 4.15 4.15 0 0 0-.77 2.39 4.2 4.2 0 0 0 1.24 2.95 4.25 4.25 0 0 0-3.73.26c-.89-2.25-5.88-6.1-8.54-5.92-3.96.24-6.26 2.74-7.99 5.16-1.99 2.78-3.68 5.9-2.56 9.82.56 1.95 3.22 5.38 5.88 6.4a4.4 4.4 0 0 0 .25 2.7 4.7 4.7 0 0 0-1.81-.36zm4.44-5.65l-.05-.05c-.09.08-.18.15-.28.21l-.38.2c-.26.1-.52.1-.8.03-1.15-.33-2.18-2.06-2.48-3.18-.65-2.45.33-4.8 1.26-6.58 1.11-2.11 2.07-3.94 4.25-3.68 1.88.22 3.7 2.34 3.75 4.35l1-.03c-.06-2.54-2.23-5.03-4.63-5.31-2.87-.35-4.14 2.07-5.25 4.21-1.02 1.93-2.09 4.51-1.34 7.3.35 1.31 1.54 3.35 3.1 3.85-.27.32-.52.67-.7 1.06-2.27-.9-4.75-4.03-5.24-5.75-.95-3.3.28-5.97 2.41-8.96 1.67-2.34 3.7-4.53 7.24-4.74 2.45-.15 7.42 4 7.61 5.52h.06a4.15 4.15 0 0 0-.84 4.99c-.48-.22-1-.34-1.56-.34a4.24 4.24 0 0 0-4.13 4.33c0 1.03.37 1.97.95 2.72a4.9 4.9 0 0 0-3.95-.15zm1.82 7.72c-2 0-3.64-1.55-3.64-3.45s1.63-3.45 3.64-3.45c2.02 0 3.65 1.54 3.65 3.45s-1.63 3.45-3.65 3.45zm5.31-7.13c-1.64 0-2.97-1.42-2.97-3.16 0-1.75 1.33-3.17 2.97-3.17s2.97 1.42 2.97 3.17c0 1.74-1.33 3.16-2.97 3.16zm5.32-6.03c-1.7 0-3.1-1.38-3.1-3.06 0-1.7 1.4-3.07 3.1-3.07s3.1 1.38 3.1 3.06a3.08 3.08 0 0 1-3.1 3.07zm5.04-13.13c1.93 0 3.5 1.44 3.5 3.2 0 1.78-1.57 3.22-3.5 3.22s-3.5-1.44-3.5-3.21 1.57-3.21 3.5-3.21zm-15.92-5.12c.67 0 1.45.09 2.3.25-.55-.02-1.11 0-1.69.05a16.9 16.9 0 0 0-9.24 4.12c2.5-2.49 5.74-4.42 8.63-4.42zm-6.01 30.5c1.9 0 3.45 1.5 3.45 3.36s-1.55 3.35-3.45 3.35-3.46-1.5-3.46-3.35 1.55-3.36 3.46-3.36zm-6.27 4.96c1.6 0 2.92 1.33 2.92 2.97s-1.31 2.96-2.92 2.96a2.9 2.9 0 0 1-2.45-1.35l.01-.1c0-.7-.17-1.35-.44-1.93a2.93 2.93 0 0 1 2.88-2.55zm-6.23 1.46c.9 0 1.69.52 2.16 1.3l-.02.2c0 .68.18 1.3.46 1.86-.15 1.5-1.25 2.67-2.6 2.67-1.45 0-2.62-1.35-2.62-3.02s1.17-3.01 2.62-3.01z"/><path d="M253.38 216.18l-.24-.35c-.98-1.31-2.56-3-3.92-4.05-1.8-1.38-4.25-1.33-6.44-1.4-2.82-.1-5.47-.88-8.22-.3-2.73.57-5.57-.64-8.11.9-.36.21-.67.48-.93.77l-.16-.48c-9.41 3.12-14.09 13.52-16.43 25.4l-.09.1.06.05c-.83 4.23-1.36 8.64-1.7 12.98l-.17.13.14.17c-.56 7.23-.62 14.23-.66 19.78-.03 4.47-.06 8-.31 10.18-.88 7.6-7.3 13.1-15.28 13.1v1c8.49 0 15.33-5.88 16.27-13.98.26-2.24.29-5.8.32-10.3.04-5.24.1-11.8.57-18.62 5.56 2.15 10.3 3.08 14.35 3.2l.24.25.2-.23.58.02c9.24 0 14.86-4.17 18.72-7.04l1.38-1.01-.36-.51.2-1.1a31.71 31.71 0 0 1-6.12-1.61c-.75-.26-1.61-.56-2.73-.92l.05-.23a35.5 35.5 0 0 0-10.9-1.14c-5.52.32-9.91 3.7-15.43 8.02.36-4.16.9-8.38 1.7-12.4 5.67-6.69 11.09-10.12 16.12-10.2 6.33-.13 10.93 5.08 13.96 8.51.61.7 1.14 1.3 1.63 1.8l.5-.5c-.47-.48-1-1.08-1.6-1.77-3.08-3.5-7.72-8.76-14.3-8.76h-.2c-5 .09-10.3 3.28-15.8 9.47 2.32-10.55 6.65-19.56 14.76-22.64-.37.83-.09 1.62 1.52 1.7 2.1.1 4.1-.48 6.01-.93 1.96-.46 4.45-.12 6.52-.12 2.16 0 4.36.05 6.44.26 1.78.17 3.24.3 4.68 1.47 1.08.88 1.8 1.94 2.82 2.82-18.24 74.32-46.38 110.25-63.47 132.08-29.3 37.4-52.2 26.85-68.92 19.14l-.49 1.06c7.04 3.24 16.4 7.56 26.93 7.56 1.07 0 2.16-.06 3.26-.15-.06.11-.13.23-.22.34-1.62 2.1-7.35 3.67-9.44 3.8-2.35.15-10.27.46-13.72-1.77 2-1.54 3.66-2.97 4.52-4.13l-.93-.7c-1.47 1.98-5.82 5.1-9.66 7.84l-1.76 1.26-.1.01v.06a88.44 88.44 0 0 0-4.22 3.2c-4.31 3.54-9.2 6.68-13.91 9.72-1.8 1.16-3.6 2.32-5.36 3.49-2.6 1.74-5.17 3.66-7.65 5.52-3.6 2.7-7.32 5.48-11.17 7.7-.86.5-1.76.99-2.67 1.49-5.56 3.02-11.87 6.45-12.86 13.5l1.15.16c.9-6.47 6.94-9.75 12.26-12.64.93-.5 1.84-1 2.7-1.5 3.91-2.26 7.66-5.06 11.29-7.78 2.46-1.85 5.02-3.76 7.6-5.48 1.75-1.17 3.54-2.32 5.33-3.48 4.24-2.72 8.58-5.55 12.57-8.67l-.08.56c2.76.37 5.52.88 8.2 1.36 5.27.97 10.37 1.9 15.53 1.9 3.4 0 6.82-.4 10.35-1.47 2.76-.83 9.54-3.18 12.73-7 2.1-2.51 4.92-8.58 4.6-11.8 8.44-4.34 16.72-11.75 25.05-22.38 17.88-22.83 47.8-61.03 65.96-142.19l-1.14-.25c-.62 2.77-1.25 5.48-1.9 8.15zm-16.57 28.39c1.97.68 3.06 1.05 5.54 1.52l-.78.57c-2.35 1.74-5.36 3.98-9.5 5.4.47-.63.93-1.35 1.14-1.91 1.09-2.9 1.07-5.03-.08-6.8 1.6.5 2.73.9 3.68 1.22zm-5.06-1.66l.18.05c1.6 1.75 1.79 3.82.61 6.94-.27.72-1.08 1.86-1.68 2.55-2.43.7-5.23 1.12-8.46 1-2.2-2.27-3-5.23-2.05-7.78a6.54 6.54 0 0 1 2.72-3.25l.7-.07c2.57-.14 5.2.04 7.98.56zm-10.19-.23a7.05 7.05 0 0 0-1.87 2.74c-.99 2.61-.3 5.6 1.72 8a43.58 43.58 0 0 1-12.71-3l.23-.17c4.8-3.76 8.46-6.63 12.63-7.57zm-100 141c1.83-1.3 3.68-2.63 5.32-3.9l-.59.91c2.62 1.71 7.35 2.09 10.95 2.09 1.4 0 2.62-.06 3.5-.12 2.2-.13 8.36-1.75 10.29-4.24.3-.4.48-.8.56-1.2 2.66-.32 5.3-.93 7.9-1.83-.77 7.34-11.94 10.02-16.4 10.43-3.83.36-8.03-.31-12.09-.95-3.4-.55-6.66-1.06-9.69-1 .09-.07.16-.13.25-.18zm38.36.22c-3.07 3.68-10.1 6.01-12.18 6.64-8.61 2.6-16.74 1.11-25.34-.46-2.5-.46-5.08-.92-7.68-1.28l.82-.63c1.1-.91 2.5-1.95 4.01-3.04 3.38-.36 7.22.24 11.27.88 3.32.53 6.73 1.07 10 1.07.8 0 1.6-.03 2.37-.1 6.99-.65 17.17-4.38 17.5-12.01 1.2-.45 2.4-.98 3.6-1.55-.04 2.78-2.35 8.06-4.37 10.48zM213.44 89.55c3.09-3.46 6.02-5.74 9.49-7.4a30.93 30.93 0 0 1 10.86-3.12c1.74-.17 2.92-.07 4.85.41.19.05.71.26 1.22.47 2.4.97 3.3 1.25 3.87.96l.24-.07.11-.23a.8.8 0 0 0 .06-.66.74.74 0 0 0-.45-.42.5.5 0 0 1 .28.39l-.51.08-.07-.2-.17.05c-.4.04-2.1-.65-2.93-.98-.69-.28-1.12-.45-1.37-.51a13.77 13.77 0 0 0-5.25-.44 32.02 32.02 0 0 0-11.24 3.22c-3.62 1.73-6.66 4.1-9.86 7.68-.34.38-.8.84-1.3 1.36-2.43 2.48-5.75 5.88-5.26 8.44l1.14-.22c-.37-1.96 2.96-5.37 4.95-7.4l1.34-1.4zM288.4 73.93c-.82 2.4-2.4 3.78-4.23 5.37-5.19 4.5-12.03 7.22-18.3 7.26v1.16c6.55-.04 13.67-2.86 19.06-7.54 1.88-1.63 3.65-3.18 4.57-5.88l.2-.57c1.2-3.36 1.74-5.47.93-6.26l-.83.81c.18.28.12 1.39-1.2 5.06l-.2.59zM233.13 69.05c-9.58-1.95-17.48-1.6-24.85 1.07a28.82 28.82 0 0 0-11.38 7.75c-3.69 4.12-5.06 7.66-5.06 13.05H193c0-5.07 1.3-8.4 4.77-12.27a27.65 27.65 0 0 1 10.9-7.44c7.17-2.6 14.86-2.93 24.22-1.02 2.21.45 6.07 1.03 7.1-.19.18-.21.44-.67.17-1.38l-1.08.41c.02.07.06.18.02.22-.36.43-2.7.47-5.97-.2zM183.31 75.11c.5-.35.98-.74 1.47-1.14 1.26-1.01 2.56-2.06 4.07-2.47l-.3-1.12c-1.75.48-3.15 1.6-4.5 2.69-.47.38-.94.76-1.42 1.1-2.55 1.84-8.43 6.78-7.78 13.03l1.15-.12c-.58-5.64 4.92-10.25 7.31-11.97z"/><path d="M379.56 51.23l-.04-.04-.73.9c.15.13.17.2.17.26-.39.37-1.09.78-1.71 1.01-2.27.86-5.54 1-8.75.36l-1.68-.35c-3.07-.63-5.72-1.17-9.2-1.18-4 0-7.2 2.67-10.3 5.25-2.81 2.35-5.73 4.78-9.21 5.15-3.68.4-6.3-.46-8.73-2.87l-.08-.08c-2.13-2.1-3.98-3.92-6.95-5.1-7.99-3.13-14.8-.58-22.67 3.34 1.67-2.86 3.73-6.58 3.86-10.27.59-.35 1.03-.76 1.77-2.15.64-1.23.96-3.03.08-4.58a5.7 5.7 0 0 0 1.18-2.93c1.1-1.01 2.33-2.65 2.22-3.9 1.5-.94 2.5-2.48 3.35-4.06l.03-.05a6.52 6.52 0 0 0 3.65-2.18c1.22 1.1 2.6 2.19 4.13 3.21 1.58 1.06 2.84 2.96 4.06 4.8 2.7 4.05 5.75 8.64 12.86 4.26l.9-.55-.99-.35c-8.36-2.97-18.59-15.98-18.05-21.2.42-.55 1.7-.8 3.37-.93a8.4 8.4 0 0 0 .68 6.03c1.69 3.59 5.37 6.77 8.94 7.74 3.44.93 7.42-.85 11.26-2.56 3.85-1.72 7.48-3.34 10.26-2.22 3.6 1.45 6.82 4.91 9.66 7.97 3.3 3.56 6.18 6.66 9.28 6.66.23 0 .46-.02.7-.05 2.45-.38 4.61-2.72 6.82-7.36l-.9-.43c-2.02 4.26-4.01 6.48-6.07 6.8-2.75.42-5.7-2.64-8.8-5.98-.77-1.1-.98-2.14-.6-3.1.48-1.28 1.98-2.39 4-3.04.35-.09.7-.18 1.05-.3h.04c1.86-.61 3.75-1.63 5.69-2.67 2.95-1.6 6.01-3.25 9.33-3.65l-.12-1c-3.5.43-6.65 2.13-9.69 3.77a32.23 32.23 0 0 1-5.85 2.68c-.22.05-.44.1-.65.17-1.1.26-2.2.34-3.26.12-1.89-.4-3.15-1.34-4.6-2.45-1.78-1.33-3.78-2.85-7.28-3.5-3.34-.63-7.15 1.25-10.5 2.9-3.03 1.5-5.89 2.9-7.56 2.05-4.05-2.08-3.61-6.4-3.4-8.48l.02-.3c7.2-.23 15.44-1.32 19.32-7.77l.07-.11v-.14c0-2.39-2.13-4.73-5.85-6.42-5.36-2.43-12.77-3.02-20.34-1.61-9.52 1.77-19.02 6.61-27.53 14.06-4.17 4.89-6.55 11.48-8.85 17.86-3.9 10.83-7.6 21.07-19.6 20.36-.8.02-2.56-.27-4.75-.62-10.67-1.73-35.64-5.77-46.75 8.95l.8.6c10.74-14.24 35.3-10.26 45.8-8.57 2.29.37 3.95.64 4.84.64h.03c12.71.75 16.53-9.83 20.57-21.02 2.27-6.3 4.62-12.8 8.62-17.5C314.23.38 333.3-1.44 343.67 3.27c3.23 1.47 5.18 3.46 5.27 5.37-4.37 7.06-14.72 7.16-22.3 7.23-4.59.05-7.9.08-8.82 1.63l-.06.18c-.8 5.81 9.51 18.41 17.71 22-5.65 3.02-7.97-.47-10.63-4.47-1.27-1.92-2.59-3.9-4.33-5.06-7.78-5.22-10.65-11-9.47-14.03.9-2.3 4.03-3.14 8.83-2.4l.15-.98c-7.15-1.12-9.28 1.41-9.91 3.02-1.18 3.01.8 7.29 4.97 11.32-1.3 1.6-3.33 2.3-6 2.04-1.39-.13-3.48-.9-4.57-1.67l-.58.81c1.25.9 3.47 1.7 5.06 1.86a12 12 0 0 0 1.93.01c-.88 1.54-1.95 2.95-3.58 3.53-2.25.8-4.87.14-7.18-.45h-.02l-.23.97c1.54.4 3.34.85 5.1.85.91 0 1.81-.12 2.67-.43l.07-.03c-.3 1.23-2.04 2.99-2.75 3.31-1.99.9-4.93 1.1-7.16.48l-.27.97c.97.26 2.03.4 3.1.4 1.67 0 3.35-.32 4.7-.92-.58 1.62-2.2 3.19-3.44 3.91-1.7 1-3.5.98-5.58.93l-1.22-.01v1l1.2.01 1.17.02c1.71 0 3.35-.15 4.94-1.08.69-.41 1.52-1.06 2.26-1.86a4.07 4.07 0 0 1-.27 3.26c-.75 1.42-1.07 1.59-1.64 1.9-.22.12-.46.26-.76.47-2.17 1.52-4.48 1.52-7.5 1.04l-.16.98c1 .16 2.06.3 3.13.3 1.66 0 3.37-.33 5-1.44a15.13 15.13 0 0 1-1.14 4.22l-.01-.02c-1.84 1.85-6.34 1.45-8.35.71l-.35.94c1 .37 2.63.7 4.3.7 1.28 0 2.58-.2 3.66-.68a59.12 59.12 0 0 1-2.08 3.76l-.03.04-.1-.13c-.66.52-2.93 1.09-3.77 1.09h-.02c-1.48-.02-3.1-.47-4.82-1.33l-.45.89c1.86.93 3.63 1.42 5.26 1.44h.02c.65 0 2.03-.28 3.13-.68-1.18 2.06-2.36 3.4-4.53 3.76-1.77.28-5.5.08-6.65-1.35l-.78.63c1.15 1.43 3.78 1.83 5.78 1.83.37 0 .72-.01 1.03-.04-1.69 2.63-4.9 3.39-6.28 2.98-1.5-.45-4.6-2.13-5.59-3.36l-.78.63c1.15 1.43 4.43 3.2 6.08 3.69.14.04.3.07.46.09-1.98 1.4-5.1 1.87-6.86.9a30.4 30.4 0 0 1-5.01-4.23l-.77.64c.73.87 3.88 3.67 5.3 4.46.3.17.64.3 1 .4-1.36 1.01-4.56 2.06-6.18 1.48-2.83-1.02-4.32-3.32-5.63-5.34-.3-.48-.6-.93-.9-1.34l-.81.58c.28.4.57.84.86 1.3 1.18 1.81 2.62 4.02 5.12 5.3a6.73 6.73 0 0 1-5.55-.75c-.93-.67-4.52-5.45-4.86-6.32l-.93.36c.35.9 3.07 4.58 4.55 6.16-2.08.51-5.01-.25-7.61-2.04-1.26-.87-2.45-3.2-3.32-4.9-.39-.78-.73-1.44-1.01-1.85l-.83.56c.25.36.58 1 .95 1.74.88 1.72 1.95 3.81 3.23 4.94-5.32.18-8.96-6.4-10-8.55l-.3.07-.05-.34c.13-.01.23.03.24.04l-.35-.3-.32.24c-.15.1-.3.32-.13.73.8 1.66 3.07 5.77 6.49 7.86-1.73.44-5.48.42-7.26-.3a11.38 11.38 0 0 1-5.99-6.69l-.96.28c.86 2.99 3.75 6.22 6.58 7.35 1.07.42 2.9.66 4.64.66 1.7 0 3.32-.22 4.15-.68a7.58 7.58 0 0 0 4.5.5c2 1.19 4.14 1.83 6 1.83a6.2 6.2 0 0 0 2.25-.4 7.7 7.7 0 0 0 4 1.09c1.15 0 2.26-.25 3.15-.8.37.1.78.17 1.23.17 2.26 0 5.24-1.18 6.27-2.42.2.01.41.03.62.03 1.45 0 3-.4 4.3-1.12.26 1.75-1.95 4.48-3.17 5.97l-.3.37c-1.58 1.97-4.2 4.61-7.71 6a26.09 26.09 0 0 1-10.15 1.66c-2.34-.18-4.26-1.14-6.29-2.17-.53-.27-1.07-.54-1.62-.8l-.5 1.06c.55.25 1.08.52 1.6.78 2.04 1.03 4.15 2.1 6.72 2.29.4.03.8.04 1.23.04 2.96 0 6.66-.68 9.44-1.78 3.75-1.48 6.52-4.27 8.2-6.35l.29-.36c1.48-1.83 3.97-4.9 3.36-7.2l-.5.13c.44-.28.82-.61 1.16-.97 1.38-.2 3-.87 4.3-2.12.17 1.94-1.1 6.5-1.71 8.66-.3 1.08-.54 1.93-.65 2.46-.66 3.35-3.2 7.05-7.52 11.02-4.23 3.87-12.02 5.6-17.52 5.32-2.34-.13-4.7-1-6.97-1.86-1-.38-2.05-.77-3.08-1.1-1.43-.44-2.85-.93-4.28-1.41-1.69-.58-3.43-1.17-5.17-1.7-6.29-1.9-12.4.05-18.3 1.93l-1.67.53c-2.42.75-3.83 1.91-5.46 3.25-.57.46-1.17.96-1.85 1.46l-1.43 1.02c-2.27 1.6-4.62 3.24-5.78 5.77l.39.17a28.46 28.46 0 0 1-7.59-3.97c-.46-.32-1.08-.69-1.82-1.1l.82-.42c-1.08-2.07-.42-6.03 1.79-10.86 2.03-4.42 4.18-7.73 8.03-9.5 3.3-1.5 7.64-2.48 12.93-2.91 1.94-.16 3.95.41 5.9.97l.84.24c1.2.33 2.39.57 3.55.8.82.16 1.64.32 2.47.52.59.14 1.33.4 2.12.69 2.04.73 4.35 1.56 6 1l.33-.1.06-.34c.07-.4-.07-.62-.18-.8l-.57.17-.01-.03c-1.26.43-3.47-.36-5.24-1-.82-.29-1.59-.56-2.24-.72-.84-.2-1.68-.37-2.52-.53-1.13-.23-2.3-.46-3.46-.78l-.83-.24c-2.05-.58-4.18-1.19-6.32-1.01-5.42.44-9.9 1.45-13.31 3.02-4.43 2.02-6.75 6.03-8.6 10.07-1.65 3.58-3.27 8.43-1.91 11.57a74.25 74.25 0 0 0-17.02-6.39c-7.3-1.74-17.44-2.85-24.3 1.84a40.51 40.51 0 0 0-6.33 5.27c-.22-2-2.13-3.56-4.48-3.56-2.5 0-4.53 1.76-4.53 3.93 0 .45.1.88.27 1.29a5.42 5.42 0 0 0-6.61 6.78 6.1 6.1 0 0 0-2.22-.42c-2.84 0-5.16 1.87-5.16 4.17 0 .25.04.5.1.74a6 6 0 0 0-2.93-.74c-2.9 0-5.26 1.97-5.26 4.39 0 .45.1.87.25 1.28a4.63 4.63 0 0 0-3.71-1.85c-2.2 0-4.03 1.5-4.49 3.5a3.95 3.95 0 0 0-2.32-.77 3.87 3.87 0 0 0-3.92 3.8c0 1.32.69 2.48 1.73 3.16l-.17-.05c-1.84 5.6-1.69 15.44 3.4 19.3 1.47 1.13 5.56 2.15 9.54 2.15 1.54 0 3.05-.15 4.4-.5a8.18 8.18 0 0 0 2.94-1.36c-.3 1.18-.5 2.4-.47 3.59.05 1.73.87 3.3 1.66 4.83.62 1.18 1.2 2.3 1.42 3.46-.04 2.27.3 4.4 1.19 6.03-.18.35-.34.72-.47 1.13-.91 3.04-.46 7.2 1.38 12.73.53 1.58 1.5 3.33 2.66 4.78l.26.33c.44.58 1 1.3 1.63 1.72.42.27 5.01 2.1 9.8 2.1 1.91 0 3.87-.3 5.59-1.1 3.15-1.48 5-4.36 5.49-8.57l.23-1.95-1.26 1.52c-.79.95-2.03 2.26-3.5 3.1a9.98 9.98 0 0 1-7.88.9 7.15 7.15 0 0 1-4.45-4.02c-.68-1.58-.45-3.54.2-5.53a13.03 13.03 0 0 0 6.55 1.68c2.91 0 5.73-.8 8.15-1.66 1.97-.7 4.85-2.93 6.17-5.81.3 2.35.74 4.6 2.26 6.86 2.65 3.93 7 5.05 10.03 5.55l1.06.17c6.38 1.03 15.11 2.45 17.55 9.87.73 2.2.98 4.65 1.22 7.01.18 1.69.36 3.43.7 5.08 1.12 5.35 3.9 7.66 8.02 9.65 4.48 2.18 7.6 4.34 9.5 8.28-.06.28-.13.56-.24.84l.73.26.36 1 .04-.01.1.37a.3.3 0 0 1-.22-.04c.07.06.23.2.48.2h.08c.3-.04.48-.27.54-.35l.18-.24-.1-.29c-.22-.68-.47-1.32-.75-1.92.6-4.16-2.98-7.67-5.92-10.55-.9-.88-1.74-1.7-2.41-2.49-2.62-3.04-2.74-5.46-2.74-9.46 0-3.62-1-7.3-3.17-11.58-1.33-2.63-3.83-4.9-6.02-6.9l-1.44-1.32-.05-.04c1.73-.05 3.75-.57 5.86-1.1 2.77-.72 5.65-1.46 7.51-.95 2.7.75 4.74 3.88 6.23 6.7a.74.74 0 0 0-.06.04l.3.42.05.08.33.45a.34.34 0 0 1-.22.06c.05.01.14.03.24.03.1 0 .23-.02.36-.1.24-.14.33-.4.37-.57l.05-.21-.1-.19-.09-.17c.07-.12.13-.26.16-.43.42-2.1-2.6-7.42-3.26-8.34-1.39-1.98-4.27-5.35-8.05-5.8-1.65-.2-3.04.32-4.38.83-.66.25-1.28.48-1.94.64-1.54.37-3.24.32-4.88.27-.44-.02-.9-.03-1.33-.03-4.28-.06-6.55-.53-9.6-3.28-3.75-3.4-6-10.17-5.5-16.21l.09 1.06c.35 3.14 1.9 6.47 3.05 8.7a8.92 8.92 0 0 0 3.55 3.86c.87.8 1.93 1.36 3.13 1.64.91.2 1.92.3 2.97.3 2.87 0 6.01-.74 8.05-2.03 1.33-.85 2.58-1.95 2.66-4.2.02-.81-.26-2.47-1.05-3.33a2.6 2.6 0 0 0-.25-.65l-.37.21a1.43 1.43 0 0 0-1.1.04l.46 1.06a.3.3 0 0 1 .17-.03c0 .16-.04.32-.12.49-.56 1.2-2.78 2.34-4.06 2.59-1.97.37-3.56-.08-4.63-1.33-1.4-1.67-1.73-4.64-.77-7.24.9-2.5 2.76-4.14 5.06-4.52 3.62-.6 7.27.33 9.53 2.4 1.73 1.6 2.4 3.91 3.05 6.15.5 1.75 1.03 3.56 2.08 4.97l.93-.69c-.92-1.24-1.4-2.88-1.9-4.6-.68-2.4-1.4-4.87-3.38-6.68-2.52-2.31-6.54-3.34-10.5-2.7-2.73.46-4.9 2.37-5.97 5.27-1.1 3.02-.71 6.4.99 8.39a5.3 5.3 0 0 0 4.2 1.87 8 8 0 0 0 1.53-.15c1.23-.24 3.76-1.34 4.73-2.97.13.48.22 1 .2 1.4-.05 1.43-.62 2.32-2.12 3.27-2.4 1.52-6.7 2.23-9.78 1.63l.01-.02-.75-.35c-.87-.39-1.63-.74-2.31-1.13a6.83 6.83 0 0 1-1.55-2.3c-1.52-3.59-.78-8.62.78-11.22 4.36-7.27 11.8-7.6 19.18-6.89 4.2.41 6.15 1.82 8.35 6.05a22.7 22.7 0 0 1 1.95 6.44c.09.54.08 1.45.07 2.34-.02 2 0 3.26.5 3.82l.87-.77c-.23-.32-.22-2.02-.2-3.04 0-.98 0-1.9-.1-2.54a23.85 23.85 0 0 0-2.06-6.78c-2.1-4.03-4.1-6.17-9.26-6.67-7.4-.72-15.6-.4-20.3 7.44-1.54 2.58-2.34 7.08-1.33 10.84l-.1-.17c-1.1-2.15-2.6-5.35-2.94-8.3-.65-5.8 2.26-12.8 8.1-14.04l.33-.07c7.53-1.6 14.04-2.97 20.75 1.4 5.86 3.82 7.34 8.72 9.2 14.94l.59 1.92.09-.03-.06.1 1.04.52c1.81-3.57 4.94-5.85 8.05-7.79 3.8-2.37 7.31-1.97 11.37-1.52 2.64.3 4.5 1.2 5.7 2.77 2.47 3.24 1.62 8.75.86 13.62a91.3 91.3 0 0 0-.45 3.16c-.65 5.43-.82 9.35 2.55 14.15a15.96 15.96 0 0 0 4.9 4.5l.19.11c.87.52 1.69 1 2.8 1.2a50 50 0 0 0 2.34.33 14.18 14.18 0 0 1-6.78 2.39c-6.55.6-9.89-5.44-10.75-10.8-.39-2.38-.05-4.82.27-7.18.13-.9.25-1.82.34-2.72.06-.57.15-1.24.25-1.95.47-3.28 1.11-7.77-1.18-9.87-1.92-1.75-6.87-3.93-9.44-3.89-2.54.07-4.94 1.53-6.73 2.8-.92.65-1.61 1.5-2.28 2.3a9.68 9.68 0 0 1-1.73 1.81l.67.95c.75-.53 1.34-1.25 1.96-2.01.62-.76 1.26-1.54 2.05-2.1 1.66-1.17 3.86-2.53 6.1-2.59 2.25-.02 6.93 2.04 8.62 3.6 1.84 1.67 1.25 5.8.81 8.83-.1.74-.2 1.42-.26 2-.08.9-.2 1.79-.33 2.69-.33 2.44-.68 4.96-.27 7.52.9 5.57 4.3 11.81 10.97 11.81.34 0 .68-.01 1.03-.04 6.68-.62 10.44-4.75 14.33-9.67 2.8-3.56 5.79-6.4 8.94-9.36 0 .59.12 1.15.43 1.6-.22.25-.4.56-.54.92l-.04-.07c-1.19.68-4.43 6.02-4.46 6.07a61.8 61.8 0 0 1-6.5 9.21c-3.94 4.42-10.72 8.02-17 6.1-4.26-1.32-6.94-2.77-8.9-6.73-1.48-3-2.62-8.58-1.17-11.78a19.57 19.57 0 0 0 2.4-5.2c.76-2.89.72-7.4-.86-10.06-1.8-3.03-5.87-4.9-9.27-4.24-2.5.48-4.19 2.36-5.82 4.18a21 21 0 0 1-2.35 2.36l.73.9c.88-.7 1.7-1.61 2.48-2.48 1.5-1.68 3.07-3.41 5.18-3.82 2.9-.56 6.5 1.1 8.05 3.7 1.36 2.3 1.44 6.47.73 9.17a17.53 17.53 0 0 1-1.98 4.4l-.03-.01c-.1.16-.19.34-.27.52-.58.94-1.21 1.87-1.83 2.78-.38.55-.75 1.1-1.1 1.64-.33.5-.69.97-1.05 1.45-.88 1.16-1.78 2.35-2.19 3.8-.6 2.1-.72 4.34-.82 6.31-.14 2.66.82 5.5 2.23 7.96-1.29-1.07-2.5-2.2-2.98-3.58-2.47-7.03-1.16-13.64 3.79-19.1 1.58-1.76 6.39-7.08 3.44-11.08-.9-1.24-2.75-2.05-5.06-2.22-2.7-.2-5.27.5-6.54 1.78l.82.82c1-1.02 3.33-1.6 5.64-1.44 1.94.14 3.5.8 4.2 1.75 1.6 2.18.5 5.32-3.37 9.6-5.17 5.73-6.6 12.92-4.02 20.27.67 1.9 2.34 3.28 3.96 4.62 1.46 1.2 2.83 2.33 3.2 3.65l.72-.2 3.26 3.26-2.9-4.54c-.2-.3-.42-.52-.63-.73a8.11 8.11 0 0 1-.22-.23l-.02.02c-2.42-2.77-4.56-6.86-4.36-10.54.1-2.01.22-4.09.78-6.07.35-1.23 1.15-2.29 2-3.4.37-.5.75-1 1.09-1.52.35-.54.72-1.08 1.09-1.62l.08-.13c-.22 3.37.8 7.26 1.93 9.56 2.13 4.32 5.13 5.96 9.6 7.33 1.3.4 2.62.58 3.94.58 5.51 0 10.89-3.22 14.27-7.01a62.72 62.72 0 0 0 6.63-9.4 57.96 57.96 0 0 1 3.1-4.6 3.6 3.6 0 0 0 .59 2.28c.14.18.32.33.51.46-.83 1.35-.67 2.41-.35 3.1.04.09.1.17.16.25-1.33 1-1.94 2.37-1.65 3.78.1.55.31.97.57 1.3a3.5 3.5 0 0 0-.05 3.3c.58 1.25 1.67 2.06 2.77 2.07.95.01 1.9-.1 2.82-.21 1.16-.15 2.36-.3 3.56-.17a8.26 8.26 0 0 1 5.1 2.42l-.03.06.17.08c.64.63 1.21 1.35 1.77 2.12a16 16 0 0 0-3.46-.53l-1.14-.1a38.75 38.75 0 0 0-15.72 1.58l-1.7.53a35.55 35.55 0 0 1-5.92 1.52 4.67 4.67 0 0 1-3.55-1.23 3.52 3.52 0 0 1-1.27-2.71l-1.16-.04a4.66 4.66 0 0 0 1.65 3.62 5.77 5.77 0 0 0 4.49 1.51c2.06-.27 4.12-.93 6.12-1.56l1.68-.53a37.63 37.63 0 0 1 15.26-1.54l1.17.1c1.96.16 3.8.31 4.97 1.52 1.78 1.86 1.72 3.58 1.48 6.24-.23 2.57-1.35 4.79-2.54 7.14-1.06 2.1-2.17 4.3-2.54 6.72-.18 1.23-.57 3.78 1.15 5.15.92.74 3.38.96 4.73.77-.82 1.66-2.77 3.61-4.67 4.2-.96.3-1.78.2-2.43-.32-1.29-1.02-1.67-3.82-1.48-6.14a7.4 7.4 0 0 1 .92-2.9c.05-.12.11-.16.24-.26.2-.15.52-.38.63-.94.1-.53-.15-1.24-.42-2a6.64 6.64 0 0 1-.3-.96c-.15-.95-.2-1.98-.26-3.07-.06-1-.12-2.01-.25-3l-.07-.48c-.46-2.96-1.67-5.56-5.54-6.16-3.4-.53-6.8.57-10.1 1.62-2.29.74-4.66 1.5-6.94 1.67-3.12.23-5.95-.53-7.59-2.01-1.67-1.52-2.33-3.79-2.97-5.98l-.1-.36-1.12.33.1.35c.66 2.24 1.4 4.78 3.31 6.52 2.7 2.44 6.81 2.42 8.46 2.3.71-.05 1.43-.16 2.15-.3-.44 1.34-.71 3-.27 4.32-.72 1-.57 2.44-.05 3.52.14.3.32.57.51.82a5.37 5.37 0 0 0-.25 5.1l.1.16c-.38.94-.31 2 .05 2.95a4.07 4.07 0 0 0-.57 4.02c.63 1.8 2.2 3.31 3.68 3.52.17.03.33.04.5.04 2.62 0 4.95-2.87 6.41-4.66l.16-.2c3.28-4.02 7-8.58 8.67-13.42.08-.23.3-.7.53-1.15l.03.54c.06 1.07.12 2.18.27 3.18.05.33.2.75.35 1.19.16.43.42 1.16.38 1.39-.02.1-.03.1-.18.22-.16.12-.4.3-.6.66a8.5 8.5 0 0 0-1.03 3.33c-.07.89-.32 5.38 1.92 7.16.62.48 1.34.73 2.14.73.44 0 .89-.07 1.36-.22 2.58-.8 5.08-3.61 5.71-5.65l.08-2.92-1.09 1.97c-.48.35-3.59.26-4.39-.38-1.04-.84-.96-2.45-.72-4.07.34-2.25 1.36-4.25 2.43-6.38 1.18-2.34 2.4-4.76 2.66-7.55.26-2.88.27-4.94-1.75-7.09a26.76 26.76 0 0 0-2.84-3.9c8.06-17.82 7.56-31.92-1.58-44.2.52.49 1.18.84 1.93 1.02.23 1.37 1.49 4 2.21 5.12a14 14 0 0 0 3.62 3.83 9.9 9.9 0 0 0 6.64 2.18c.57 0 1.19-.02 1.86-.06 2.04-.1 4.68-.47 7.05-2.41 2.92-1.21 4.6-3.8 6.23-6.31.45-.69.9-1.37 1.36-2.03 2.08-2.91 3.11-6.2 3.78-8.74.25-.93.94-3.2 2.09-4.45a9.65 9.65 0 0 1 2.3-1.7c3.24-1.5 6.95-.76 9.07.55 1.7 1.63 3.49 2.96 5.43 2.92 1.34-.02 2.63-.7 3.82-2.04.6-.67.84-1.45 1.4-3.33l.06-.2-.55-.17-.54-.23a3.32 3.32 0 0 1-2.64 2.14 7.34 7.34 0 0 1-5.56-1.8c-.53-.6-1.03-1.27-1.5-1.9-1.36-1.81-2.76-3.68-5.24-4.42a11.97 11.97 0 0 0-4.61-.47 23.5 23.5 0 0 0 2.36-2.06c3.16-3.11 5.36-6.12 6.72-9.19l.46-1.04c1.11-2.56 2.37-5.47 4.7-6.85 1.65-.99 3.21-1.5 4.77-1.58.8-.03 1.52.12 2.29.28.76.16 1.54.32 2.43.29 5.22-.2 11.18-5.8 13.46-9.77.82-1.42 1.66-3.35.99-4.5l-1 .57c.18.33.06 1.03-.29 1.91a1.7 1.7 0 0 0-.22-.8l-1 .6c.03.05.12.21.02.56-.38 1.36-2.93 3.4-4.14 4.05-2.62 1.44-5.44 1.28-8.86.6-3.25-.64-6.96-.1-10.19 1.47a21.7 21.7 0 0 0-7.55 6.86c-1.04 1.66-1.34 3.59-1.63 5.45-.3 1.85-.6 3.76-1.63 5.37-1 1.56-3.22 3.27-5.2 3.43-1 .09-1.86-.23-2.52-.96-1.02-1.12-.75-2.86-.47-4.7.19-1.3.4-2.63.14-3.81-.3-1.4-1.54-6.08-5.28-7.42-3.43-1.22-7.88-.46-10.36 1.78l.78.86c2.18-1.97 6.13-2.63 9.19-1.54 2.52.9 4 3.97 4.53 6.55.21.99.03 2.16-.15 3.4-.31 2.03-.63 4.13.76 5.66a4.03 4.03 0 0 0 3.47 1.34c2.44-.2 4.95-2.19 6.09-3.96 1.16-1.82 1.48-3.85 1.8-5.82.28-1.83.55-3.55 1.46-5.01a20.36 20.36 0 0 1 7.08-6.43 15.53 15.53 0 0 1 9.45-1.37c3.18.63 6.54.97 9.64-.72.55-.3 1.7-1.09 2.73-2.05-2.64 3.35-7.2 7.09-11.15 7.24-.72.03-1.42-.12-2.14-.27a9.71 9.71 0 0 0-2.6-.3c-1.74.09-3.48.65-5.3 1.74-2.65 1.57-3.99 4.66-5.17 7.39l-.45 1.03c-1.31 2.93-3.43 5.82-6.48 8.83-2.93 2.9-5.77 4.7-10.09 4.06-4.17-.63-4.56-2.34-5.13-6.5-.27-1.98-.74-4.18-2.15-5.45-.8-.72-2.87-1.46-4.14-.95-.6.24-.97.74-1.06 1.4-1.54-1.42-3.55-2.48-5.3-3.38l-.16-.1c2.86-3.15 5.13-6.8 7.04-9.99 3.97-6.65 8.6-11.38 14.56-14.88a12.3 12.3 0 0 1 9.05-.83 5.34 5.34 0 0 1 3.47 3c.77 1.85-.17 5-1.52 6.8-.9 1.2-2.08 1.48-3.44 1.8-.66.17-1.33.33-2.02.6l-.14-.08-.08-.06-.65.97.14.09c.09.05.1.06.1.07l.28.46.47-.23.28-.1v.37c.9-.02 1.66.14 2.4.3 1.6.31 3.1.62 5.13-.93 3.16-2.42 4.95-5.65 4.93-8.86-.02-2.9-1.48-5.51-4.23-7.56a9 9 0 0 0-1-.63c3.65.48 7.33.48 10.85-1.6a35.97 35.97 0 0 0 9.13-7.74c.44-.54 1.07-1.19 1.74-1.87 1.7-1.73 3.59-3.67 4.25-5.59.77-.2 1.58-.31 2.42-.43 1.54-.22 3.14-.45 4.6-1.22l1-.52-.06-.03c1.32 0 2.6-.11 3.9-.38.08-.01 7.86-2.08 9.14-4.44.24-.26.42-.55.48-.87.1-.47-.08-.94-.48-1.3l-.36.38zm-52.9-34.36c.92 0 1.9-.02 2.88-.04l-.01.18c-.21 2.11-.72 7.07 3.94 9.46 2.13 1.09 5.06-.36 8.46-2.04 3.22-1.58 6.86-3.38 9.87-2.82 3.27.62 5.1 2 6.86 3.32 1.49 1.13 2.9 2.2 5 2.63.29.06.57.1.86.12a5.41 5.41 0 0 0-2.13 2.46c-.16.41-.27.95-.23 1.58-2.54-2.68-5.37-5.38-8.55-6.66-3.17-1.28-7 .43-11.04 2.24-3.68 1.64-7.5 3.34-10.59 2.5-3.31-.9-6.73-3.85-8.3-7.2-.68-1.43-1.26-3.54-.5-5.66 1.08-.05 2.27-.06 3.47-.07zM264.9 209.25a2.8 2.8 0 0 0 1.82.4c2.34-.29 5.33-1.6 7.27-2.77.83-.5 6.38-5.14 7.94-8.05.2.3.37.62.52.96-.16.65-2.46 3.03-3.34 3.93-.45.47-.82.85-1.01 1.08l-.85.98c-1.3 1.54-2.53 2.99-3.99 4.32l-.98.95c-1.34 1.33-3.58 3.56-5.01 3.56a2.67 2.67 0 0 1-2.46-1.57 4.26 4.26 0 0 1 .09-3.8zm.23-3.29c.52.26 1.07.37 1.64.37 2.33 0 4.8-1.82 5.36-2.27.63-.49 1.56-1.07 2.55-1.69 2.38-1.47 5.06-3.15 5.77-4.9.23.13.45.27.64.43-.8 2.18-6.52 7.27-7.7 7.98-1.83 1.11-4.65 2.35-6.82 2.62-.94.12-1.66-.62-2.02-1.36a2.84 2.84 0 0 1-.26-1.78c.23.23.51.44.84.6zm2.14 9.8c1.91 0 4.18-2.24 5.83-3.89l.94-.91c1.52-1.38 2.83-2.93 4.1-4.42l.84-.99.97-1.02a38.64 38.64 0 0 0 2.94-3.27c.05.2.09.4.12.62-.01.8-2.48 4.14-7.34 9.95a72 72 0 0 0-1.15 1.39c-2.17 2.78-4.06 4.51-5.75 5.3-1.34.62-2.45-.34-2.87-.78a3.99 3.99 0 0 1-1.12-2.87c.67.58 1.53.9 2.49.9zm1.62-17.36c3.16-1.02 6.43-2.07 9.56-1.59.34.05.64.13.93.22-.56 1.4-3.19 3.03-5.31 4.36a32.65 32.65 0 0 0-2.66 1.76c-1.67 1.3-4.18 2.56-5.76 1.77-2.03-1.01-.85-4.46-.47-5.42 1.25-.31 2.49-.71 3.7-1.1zm4.31 20.26l-.2.24c-1.27 1.57-3.63 4.48-5.8 4.17-1.04-.15-2.27-1.39-2.75-2.76-.2-.55-.38-1.52.08-2.44.16.24.34.47.53.67a3.9 3.9 0 0 0 2.81 1.34c.47 0 .94-.1 1.39-.31 2.49-1.15 4.72-3.77 6.18-5.64l1.12-1.36c1.93-2.3 3.43-4.14 4.57-5.63-1.78 4.16-5.02 8.16-7.93 11.72zM160.83 92.44c12.38-8.45 37.16 2.32 42.36 5.83 7.7 5.5 14.15 5.74 17.34 4.26 23.38-11.39 34.7-5.8 38.48-2.86 2.32 1.8 3.14 3.58 3.1 3.9-7.43 9.86-19.89 15.64-33.47 15.47h-.06v-.07a4.4 4.4 0 0 0-.3.05c-1.28-.04-2.85-.5-4.63-1.38-1.15-.56-3.17-2.39-3.02-3.5l-1-.13c-.21 1.63 1.83 3.46 3.11 4.26-1.75.76-4.33.65-5.3-.12-1.23-.96-3.6-5.21-3.7-6.35l-1 .08c.09 1.03 1.33 3.45 2.54 5.23a12.6 12.6 0 0 1-4.6-1.16 8.8 8.8 0 0 1-1.93-1.74c-1.1-1.35-2.07-3.66-2.1-4.95l-1 .02c.04 1.66 1.23 4.2 2.32 5.56l.05.05a7.55 7.55 0 0 1-5.38-1.94 8.64 8.64 0 0 1-2.72-6.41h-1c0 2.23.72 4.33 2 6l-.98-.38c-.25-.1-.48-.2-.7-.27l-.37-.15.02-.03-.07-.29c-.04-.18-.12-.44-.38-.6-.26-.15-.52-.08-.64-.05.06 0 .17 0 .25.06l-.28.37a6.34 6.34 0 0 1-1.55-1.27c-1.2-1.34-1.84-3.3-1.92-5.82l-1 .03c.07 2.26.58 4.12 1.5 5.56a11.63 11.63 0 0 1-2.73-2.33c-1.41-1.92-2.33-4.31-2.27-5.96l-1-.03c-.07 2 1.03 4.48 2.21 6.21-.37-.1-.88-.3-1.64-.7a6.08 6.08 0 0 1-1.69-1.71l-.27-.35c-1.64-2.1-2.98-4.68-2.36-5.55l-.81-.58c-1.06 1.48.65 4.34 1.78 5.93-1.66-.42-3.13-.87-4.58-2.44-1.94-2.08-3.17-4.38-3.37-6.3l-1 .1c.27 2.5 1.83 4.77 3.04 6.21-1.55-.12-2.72-.81-3.98-1.87l-.2-.17c-1.34-1.11-3.83-3.2-3.64-4.97l-1-.1c-.24 2.3 2.41 4.52 4 5.84l.2.17.76.6c-.67.29-1.62.4-2.2.45l-.4.05c-1 .13-1.57-.13-2.59-.65-2.36-1.2-3.98-2.5-4.96-3.96l-.83.55c1.08 1.6 2.82 3.01 5.34 4.3.41.22.78.39 1.13.52-.3.32-1.12.56-2.2.68a16.15 16.15 0 0 1-4.68-.2c-2.14-.43-3.54-1.22-3.83-2.18l-.96.29c.4 1.34 2.04 2.36 4.6 2.87a17.59 17.59 0 0 0 4.64.25c-.05.14-.12.27-.22.41-.8 1.06-2.99 1.82-3.94 1.93-2 .23-4.04-.26-6.45-1.55l-.48.88a12.72 12.72 0 0 0 6 1.72c.35 0 .7-.02 1.04-.06.5-.06 1.3-.27 2.12-.6-.34 1.86-1.4 4.18-2.95 4.6-1.83.51-4 .07-6.09-.36-.9-.19-1.75-.36-2.55-.45l-.12.99c.76.09 1.6.26 2.47.44 1.43.29 2.98.6 4.48.6a7.8 7.8 0 0 0 2.08-.25c.26-.07.5-.18.74-.32.2.26.2.48.16.64-.27 1-2.28 2.08-3.1 2.28l-.48.13c-1.63.42-4.65 1.2-5.94.66l-.38.92c.44.19.97.26 1.58.26 1.42 0 3.22-.42 4.99-.87l.48-.13a7.8 7.8 0 0 0 3.09-1.83l.02.05c.47 1.2-.3 4-1.04 5.21-1.67 2.68-4.07 3.81-6.2 4.57l.33.95c2.16-.77 4.87-2.04 6.72-5 .41-.66.84-1.75 1.09-2.87.98 1.2 1.23 3.91.74 5.4a5.13 5.13 0 0 1-.88 1.54c-.32.33-.63.67-.93 1.01a16.06 16.06 0 0 1-3.91 2.69l.42.9c.39-.18.86-.43 1.38-.74a21.24 21.24 0 0 0-2.6 5.85l-.2.84c-4.03-.62-9.84-6.38-12.2-13.98a22.48 22.48 0 0 1 3.8-20.91 4 4 0 0 0 1.29-1.56 37.8 37.8 0 0 1 7.16-6.22zm98.6 44.91h.03v-.06a4.4 4.4 0 0 1 4.04-2.41c.57 0 1.12.1 1.62.28l-.04.1c.18.07.34.1.48.1a3.83 3.83 0 0 1 2.3 3.39c0 2.13-1.96 3.87-4.36 3.87s-4.37-1.74-4.37-3.87c0-.5.11-.96.3-1.4zm.63-2.32c-.31.25-.6.51-.85.82-.28-1-.75-2.03-1.18-2.97-.17-.37-.33-.71-.46-1.03-.98-2.3-1.8-4.06-3.66-5.65-2.14-1.83-7.44-6.03-12.78-7.71a43.39 43.39 0 0 0 6.23-2.2l-.02.5c3.35.16 6.63 4.85 8.81 7.95.32.46.62.89.9 1.26 1.89 2.6 2.49 4.94 2.99 7.82l-.43 1.06c.15.06.3.12.45.15zm5.43-.8h-.04l.07-.05-.03.06zm-.08-.02a5.79 5.79 0 0 0-4.11.1c-.54-3.25-1.13-6-3.32-9-.27-.36-.56-.78-.88-1.23-2.1-3-5.17-7.37-8.66-8.27a41.37 41.37 0 0 0 3.74-2.02l-.65.8c.95.78 2.1 1.39 3.2 1.98 1.2.65 2.45 1.32 3.49 2.2a19 19 0 0 1 4.67 5.87c.77 1.53 2.96 8.47 2.52 9.57zm-105.5 12.81a12.43 12.43 0 0 0 1.84 4.27c-1.48.14-3.25-.17-4.98-.47-1.22-.2-2.37-.4-3.42-.46a23.55 23.55 0 0 0-5.95.35c-.21-2.72 1.94-6.38 3.76-8.34a29.5 29.5 0 0 1 4.3-3.59c.78-.56 1.49-.8 2.24-1.05.37-.12.75-.25 1.15-.41l1.43-.6-1.48-.5c-.19-.06-.35-.05-.54-.05l-.02.14c-.3.12-.61.22-.9.32-.81.27-1.64.54-2.56 1.21a30.41 30.41 0 0 0-4.47 3.74c-1.88 2.02-4.4 6.14-4.05 9.42-.59.17-1.17.38-1.75.64-.89.4-1.7.84-2.5 1.35-.3-1.16-.62-3.46-.49-4.9.22-2.35.92-4.78 1.87-6.5 2.1-3.8 6.09-5.6 9.95-7.35.67-.3 1.33-.6 1.97-.91 1.8 1.5 3.63 2.47 5.23 2.75-.73 3.16-1.35 7.18-.63 10.94zm-24.86-13.38l-.22-.14c-2.3 3.41-10.96 6.55-14.9 6.02-7.76-1.06-8.41-13.98-8.47-16.54a4 4 0 0 0 2.23.16c.06 4.68.76 10.09 4.82 12.48 1.36.8 2.9 1.13 4.5 1.13 3.32 0 6.88-1.46 9.45-3.34 6.58-4.83 13.88-15.5 9.51-24.1l-.1-.2-.2-.06c-.05-.02-.1-.02-.14-.02 0-.16-.04-.3-.06-.45a5.48 5.48 0 0 0 5.92-.83 23.78 23.78 0 0 0 .24 13.68 27.02 27.02 0 0 0 1.72 4.2 25.38 25.38 0 0 0-14.3 8.01zm-18.5-13.04c.3.26.64.48 1 .66-.05 3.31 1.56 6.66 4.03 8.35.9.61 2.17 1.2 3.77 1.2.86 0 1.82-.17 2.87-.6 7.79-3.21 10.03-11.7 8.78-17.02 2.06-.2 3.73-1.38 4.3-2.95 3.6 8-3.26 17.83-9.43 22.36-2.96 2.17-8.82 4.53-12.85 2.16-3.73-2.2-4.3-7.5-4.33-11.99a3.83 3.83 0 0 0 1.87-2.17zm4.58.92a4.82 4.82 0 0 0 2.6 1.89c1.2.43 2.58.64 3.87.64a7.1 7.1 0 0 0 3.54-.77c1.67-1.02 3.04-3.47 3.35-5.95a5.24 5.24 0 0 0-.85-3.92c0-.3-.04-.58-.11-.86.71.38 1.55.6 2.45.66 1.28 4.92-.76 13.03-8.14 16.07a5.75 5.75 0 0 1-5.7-.5c-2.1-1.44-3.5-4.28-3.57-7.14a4.61 4.61 0 0 0 2.56-.11zm28.1-18.25a5.28 5.28 0 0 0-.69-2.17 5.23 5.23 0 0 0 2.01-.05c-.5.74-.94 1.48-1.33 2.22zm.23-8.95c1.94 0 3.52 1.31 3.52 2.93 0 .3-.07.59-.17.86-.41.47-.8.94-1.16 1.41-.6.4-1.36.66-2.2.66-1.94 0-3.52-1.32-3.52-2.93 0-1.62 1.58-2.93 3.53-2.93zm-5.66 5.23c2.34 0 4.25 1.87 4.25 4.18s-1.9 4.17-4.25 4.17-4.26-1.87-4.26-4.17 1.91-4.18 4.26-4.18zm-7.43 6.38c1.3 0 2.44.46 3.2 1.17.11.15.23.29.37.42.35.46.56.98.56 1.55 0 1.73-1.85 3.14-4.13 3.14s-4.13-1.4-4.13-3.14 1.85-3.14 4.13-3.14zm-7.99 4.3c2.26 0 4.1 1.45 4.1 3.23s-1.84 3.23-4.1 3.23-4.1-1.45-4.1-3.23 1.84-3.23 4.1-3.23zm0 7.62c2.29 0 4.22-1.23 4.94-2.93.21.64.29 1.4.18 2.29-.27 2.16-1.48 4.36-2.88 5.23-1.31.8-4.36.81-6.54.03a4.06 4.06 0 0 1-2.02-1.36 4.26 4.26 0 0 0 1.9-5.29 5.57 5.57 0 0 0 4.42 2.03zm-8.72-3.86c1.92 0 3.49 1.5 3.49 3.34a3.42 3.42 0 0 1-3.5 3.34c-1.22 0-2.29-.6-2.91-1.51a3.7 3.7 0 0 0-.56-1.71l-.01-.12a3.42 3.42 0 0 1 3.48-3.34zm-9.63 5.44c0-1.49 1.27-2.7 2.82-2.7.93 0 1.75.44 2.26 1.11.08.6.26 1.14.55 1.64a2.76 2.76 0 0 1-2.81 2.65 2.76 2.76 0 0 1-2.82-2.7zm21.34 20.39c-.55 1.27-1.82 2.18-3.8 2.7-4.42 1.16-11.28-.1-13.08-1.47-3.74-2.86-4.54-9.55-3.82-14.76.71 6.69 3.37 13.44 9.14 14.22.34.05.72.07 1.12.07 3.45 0 8.66-1.69 12.05-4l-.11.18c-.35.66-.89 1.78-1.39 3.1l-.11-.04zm1.62 10.18c-.76-1.47-1.49-2.85-1.53-4.32-.1-3.22 1.67-6.93 2.44-8.37 2.72-5.15 9.59-9.7 15.98-10.6l-.02-.12c.45.8.93 1.58 1.43 2.3-1.08.73-2.35 1.3-3.7 1.89-2.04.88-4.15 1.8-5.73 3.45a31.93 31.93 0 0 0-5.6 8 31.1 31.1 0 0 0-2.65 9c-.2-.41-.4-.82-.62-1.23zm4.32-7.26a30.75 30.75 0 0 1 5.4-7.7c1.4-1.48 3.41-2.35 5.34-3.2 1.36-.58 2.74-1.2 3.93-2.01.76.99 1.57 1.87 2.39 2.65l-1.51.7c-3.84 1.74-8.2 3.7-10.49 7.84a18.4 18.4 0 0 0-2 6.97c-.16 1.72.25 4.49.6 5.63l.2-.06c-.91.65-1.81 1.4-2.76 2.32-.35.34-.71.66-1.07.97-.73.65-1.44 1.28-2.04 2.04-1.78-4.25-.1-11.86 2.01-16.15zm5.67 30.43a8.26 8.26 0 0 0 5.15 4.65 11.17 11.17 0 0 0 11.26-2.86c-.69 2.64-2.1 4.5-4.22 5.59-4.03 2.05-9.74.81-12.67-.11l-.07-.1-.06.06.01-.03-.9-.81c-.5-.5-.83-1-1.17-1.57a13.98 13.98 0 0 1-1.58-3.68c-.55-2.2-.17-4.55 1.23-7.63 1.25-2.74 3.97-5.48 6.76-7.01-2.3 3.66-5.49 9.45-3.74 13.5zm6.5-14.6c1.23-.27 3.84.1 4.45 1 .09.14.32.48-.2 1.24-.94 1.37-4.97 1.93-7.52 2a64.13 64.13 0 0 1 2.44-4c.28-.1.56-.18.83-.24zm-4.83 7.5c.28-.71.6-1.42.95-2.1 2.24.02 7.63-.38 9.08-2.5.81-1.17.56-2.03.21-2.54-1-1.5-4.24-1.81-5.67-1.5-3.88.89-8.51 4.82-10.32 8.77-.94 2.07-2.1 5.19-1.3 8.4.24.94.6 1.9 1.12 2.91a14.97 14.97 0 0 1-2.14-3.99c-.67-2-1.14-3.8-1.44-5.42.3-.33.76-.97 1.68-2.3.54-.78 1.15-1.66 1.37-1.9a89.15 89.15 0 0 0 3.04-3.42c1.8-2.14 4.63-3.56 6.6-4.44 2.5-1.1 6.22-1.39 8.54.2 1.35.94 1.99 2.38 1.89 4.29-.12 2.1-1.21 6.16-2.67 6.48-3.46.89-7.37 1.16-10.94-.95zm13.9.02l-.68.24a15.8 15.8 0 0 0 1.55-5.75c.12-2.3-.7-4.13-2.39-5.3-2.67-1.83-6.88-1.54-9.67-.3-2.08.92-5.07 2.42-7.02 4.75-.89 1.05-1.9 2.2-3 3.38-.28.3-.83 1.1-1.47 2.02-.29.41-.64.93-.96 1.36-.21-1.96-.11-3.61.3-5 .51-1.67 1.62-2.64 2.9-3.77l1.1-1a19.76 19.76 0 0 1 5.78-4.03c2.73-1.23 5.6-1.3 8.3-1.17.98.05 2.1.24 3.29.45 2.01.35 4.09.7 5.86.4.88 1.36 1.7 2.66 2.01 4.21.08.37.13.73.19 1.1.45 3.95-3.69 7.57-6.08 8.41zm37.06 7.47c2.23 2.02 4.53 4.12 5.77 6.56 2.08 4.1 3.05 7.62 3.05 11.05 0 4.16.13 6.87 3.01 10.22.7.82 1.57 1.67 2.48 2.56 2.32 2.26 4.84 4.75 5.49 7.5-2.08-3.09-5.08-5.05-8.95-6.92-4.54-2.2-6.47-4.52-7.38-8.85-.34-1.6-.51-3.3-.68-4.95-.25-2.43-.51-4.94-1.27-7.26-2.66-8.1-11.8-9.57-18.47-10.65l-1.06-.18c-4.5-.74-7.43-2.34-9.25-5.05-1.63-2.42-1.92-4.93-2.23-7.58-.09-.81-.2-1.65-.34-2.5v-.15h-.02c-.06-.34-.1-.67-.17-1.01-.38-1.83-1.35-3.34-2.3-4.8-.97-1.51-1.9-2.95-2.24-4.75-.82-4.28.21-9.03 1.06-12.23 1.94-7.3 8.32-13.46 15.5-15a44.2 44.2 0 0 1 13.6-.78c1.42.14 3.15.73 4.82 1.3l1.44.48c-8.74.12-17.1 3.52-22.67 9.32-6.32 6.59-5.32 18.26-4.6 22.98.4 2.65 1.16 7.58 4.27 10.43 1.63 1.5 3.8 2.23 5.91 2.94 1.46.5 2.85.96 4.03 1.66 1.43.84 2.89 1.26 4.3 1.67 1.95.55 3.79 1.08 5.44 2.65l1.46 1.34zm67.67-.73a37.83 37.83 0 0 1-5.33 5.8 30.6 30.6 0 0 1-3.55-.44 6.74 6.74 0 0 1-2.4-1.05l-.18-.1a14.78 14.78 0 0 1-4.55-4.18c-3.13-4.46-2.96-8.17-2.35-13.34.12-.98.28-2.03.45-3.13.79-5.09 1.68-10.86-1.1-14.5-1.37-1.8-3.55-2.88-6.48-3.2-4.28-.5-7.97-.91-12.12 1.68-2.71 1.69-5.68 3.8-7.68 6.89l-.3-.97c-1.86-6.18-3.47-11.52-9.68-15.57-7.11-4.64-14.16-3.14-21.63-1.56l-.32.06c-3.13.67-5.5 2.8-7.03 5.52l-.02-.01c-5.85 7.08-3.38 20.33 2.67 25.82 3.3 2.98 5.86 3.51 10.36 3.57l1.31.03c1.72.06 3.5.1 5.19-.3.73-.17 1.4-.43 2.07-.68 1.27-.48 2.47-.92 3.84-.77 3.33.4 5.96 3.5 7.23 5.32a22.75 22.75 0 0 1 2.85 5.94c-1.5-2.46-3.43-4.8-5.94-5.5-2.17-.6-5.2.19-8.12.94-2.87.74-5.84 1.5-7.54.8-1.28-.7-2.6-1.08-3.9-1.45-1.4-.4-2.73-.79-4.03-1.55-1.28-.76-2.8-1.27-4.25-1.77-1.98-.67-4.04-1.36-5.5-2.7-2.58-2.37-3.37-6.27-3.9-9.74-.7-4.54-1.67-15.78 4.3-22 5.74-5.99 14.62-9.32 23.7-8.93a16.5 16.5 0 0 1 10.16 3.77 27 27 0 0 1 3.56 4.04c1.37 1.77 2.78 3.6 4.56 4.85l.27-.38.15.21c5.1-3.52 14.96-8.9 23.65-5.32 5.99 2.46 8.92 9.3 11.2 15.53.48 1.3 2.2 5.57 4.76 7.18-.91 4.28-.7 8.99.94 12.18.76 1.5 2.57 4.48 5.02 4.99a15.68 15.68 0 0 1-5.52 3.93c-1.84.75-3.33-.36-4.73-3.5-2.2-4.94-1.9-9.88-1.6-15.12.06-.8.1-1.61.14-2.43.2-4.09.16-8.36-2.6-11.68-2.38-2.87-5.06-5.76-9.35-6.8-3.54-.85-7.6-.53-12.05.96-4.5 1.5-7.6 3.6-10.09 6.8l.92.71c2.37-3.05 5.22-4.97 9.54-6.41 4.24-1.42 8.08-1.73 11.4-.93 3.56.86 5.98 3.1 8.74 6.4 2.49 3.01 2.52 7.03 2.33 10.9l-.13 2.4c-.32 5.4-.62 10.48 1.69 15.66 1.3 2.96 2.89 4.44 4.71 4.44a4 4 0 0 0 1.52-.32c2.55-1.05 5-2.93 6.6-5.04.11-.03.23-.05.36-.1 1.37-.47 4.2-2.91 3.96-4.4l-.08-.52-.51.02a4.86 4.86 0 0 1-3.8-1.64c-1.3-1.5-1.72-3.87-1.2-6.84.5-2.9 1.17-6 2.72-8.56a4.95 4.95 0 0 0 3.03 2.4c-.27 1.36.57 3.13 1.64 3.93.44.33.93.51 1.42.6-.18.99-.3 2.4.6 3.22-.85 1.27-.62 2.18-.24 2.73.28.42.72.73 1.24.97a9.18 9.18 0 0 0-.76 1.64l-.83.78c-3.31 3.12-6.45 6.06-9.4 9.82zm23.87 13.32a9.31 9.31 0 0 0-5.48-2.45c-1.32-.14-2.59.02-3.81.17-.92.11-1.77.22-2.67.2-.64 0-1.35-.57-1.73-1.4a2.39 2.39 0 0 1-.05-2.09c.8.36 1.77.39 2.64.4l.54.02h.58c2.74 0 5.86-.61 7.95-1.23l-.33-1.11c-2.05.6-5.44 1.27-8.16 1.18l-.56-.02c-1.76-.03-2.77-.12-3.05-1.47-.26-1.33.65-2.23 1.27-2.67a6.56 6.56 0 0 0 4.18 1.34c2.57 0 6.32-.98 8.58-2.27l-.58-1.01a18.85 18.85 0 0 1-8.31 2.12c-1.7-.07-3.27-.83-3.73-1.82-.3-.63-.14-1.36.42-2.17.37.07.74.12 1.12.12 1.33 0 2.61-.37 2.85-.44a65.76 65.76 0 0 0 5.06-1.68c1.41-.55 3.28-1.36 4.16-2.13l-.76-.88c-.6.52-1.95 1.2-3.82 1.93a64.3 64.3 0 0 1-4.97 1.65c-1.65.49-3.75.6-4.36-.19-.64-.81-.36-2.99.31-3.7.48.25 1.06.39 1.76.39.8 0 1.72-.17 2.76-.5a35.5 35.5 0 0 0 6.16-2.86c1.04-.57 2.03-1.1 3.03-1.58l-.5-1.05c-1.03.49-2.07 1.06-3.09 1.6-1.91 1.05-3.9 2.13-5.95 2.79-.76.24-3.3.93-4.07-.18-.68-.96.19-3.16.9-4.21.5.1 1.02.16 1.52.16.6 0 1.15-.07 1.6-.2 1.02-.28 1.97-.78 2.9-1.27l.8-.41.25-.12c1.06-.53 2.84-1.42 3.66-2.12l-.75-.88c-.72.6-2.48 1.48-3.43 1.96l-.25.12-.82.42c-.87.46-1.77.93-2.67 1.18-1.35.38-3.65.05-4.25-.82-.26-.38-.15-.91.33-1.56.29.07.58.1.9.1 1.35 0 2.85-.52 3.41-.78.71-.33 5.65-3.03 6.78-4.51l-.92-.71c-.87 1.14-5.4 3.72-6.35 4.16-1.02.48-2.98.94-3.85.53-.72-.34-.66-1.4-.44-2.5a8.56 8.56 0 0 0 1.9-.41c1.77-.6 6.33-3.23 6.69-5.45l-1.15-.19c-.24 1.5-4.06 3.92-5.91 4.53-1.1.36-2.47.68-3.43-.04-.76-.57-1.4-1.96-1.18-2.81h.26a8.51 8.51 0 0 0 6.7-3.71l-.99-.63a7.28 7.28 0 0 1-5.94 3.18 3.8 3.8 0 0 1-3.34-2.23l-.55.28c.86-1.28 1.96-2.4 3.4-3.26l-.6-1c-4.63 2.77-6.1 7.96-7 13.15-.73 4.2.4 6.55 1.48 7.79a6.03 6.03 0 0 0 3.96 2.02 7.73 7.73 0 0 1-3.04 2.67c-2.6.88-4.85-3.07-5.48-4.3-2.62-5.12-1.24-14.84 2.68-18.92l-.84-.8c-1.6 1.65-2.8 4.11-3.53 6.84-1.65-1.27-3.14-4.13-3.95-6.35-2.37-6.46-5.43-13.57-11.85-16.21-9-3.7-18.98 1.53-24.38 5.19a24.41 24.41 0 0 1-3.77-4.18c-1.15-1.48-2.33-3.01-3.73-4.21-2.1-1.8-4.65-3.01-7.5-3.62l-.11-.74c-1.66.26-4-.53-6.25-1.3-1.73-.6-3.53-1.21-5.1-1.37-4.6-.45-9.3-.18-13.93.81a21.01 21.01 0 0 0-8.78 4.32c.39-1.94 0-5.17-1.64-6.32.08-.77.05-1.5-.17-2.05a1.8 1.8 0 0 0-.34-.55c.04-.1.1-.19.12-.29.1-.39.12-.94-.32-1.51 1.31-1.3 2.06-3.53 2.21-5.17a4.8 4.8 0 0 0 1.43-1.18c.28-.37.43-.76.46-1.15 1.02-.19 1.84-.51 2.22-.99.09-.1.15-.22.2-.34.12 0 .25.03.39.03.2 0 .4-.02.63-.05l.37-.04c.84-.09 2.17-.23 3.02-.84 1 .58 2.08.93 3.4.93.16 0 .31-.02.47-.03 1.65 1.6 3.31 2.04 5.07 2.49l.8.2.02-.05a6.58 6.58 0 0 0 1.97 1.94c1.17.6 2.03.9 2.67.9.12 0 .23-.01.33-.03 1 .98 2.82 2.47 3.98 2.47l.1-.02c.29.27.59.52.92.75-1.15.53-2.56.17-4.03-.22-.57-.15-1.16-.3-1.72-.4-2.62-.42-5.9-.42-9.23 0-.12.02-12.48 1.62-14.76 5.34l1 .6c1.46-2.39 9.3-4.2 13.9-4.78 3.23-.41 6.39-.41 8.9 0 .5.07 1.04.22 1.61.37 1.74.45 3.85 1 5.52-.27.26.12.51.24.8.34.21.07.44.17.67.26.79.32 1.67.66 2.53.7a8.56 8.56 0 0 0 6.55 2.07l-.01-.12.1.19.2-.08c.4.37.82.7 1.2.95.44.27 3.1 1.3 4.91 1.3.33 0 .62-.05.88-.12.32.41.63.75.9.96.73.58 1.93.86 3.19.86a7.5 7.5 0 0 0 3.82-.99c.84.38 1.64.69 2.4.89-1.91.75-4.23 1.9-5.41 2.56-1.59.9-2.56 2.37-3.5 3.8a21 21 0 0 1-1.2 1.68l.9.73c.45-.54.86-1.17 1.26-1.77.87-1.31 1.77-2.67 3.1-3.43 1.98-1.11 6.01-2.97 7.34-3.15v-.08h.53c3.53 0 7-.4 10.32-1.17l-.09.37c5.54 1.26 11.4 5.9 13.67 7.84 1.66 1.42 2.4 2.99 3.34 5.22l.47 1.06c.58 1.27 1.3 2.84 1.33 4.01h.07c-.14.44-.24.9-.24 1.38 0 2.68 2.4 4.87 5.37 4.87a5.4 5.4 0 0 0 4.96-3.04 4.64 4.64 0 0 0 3.94 2.06c1.64 0 3.07-.78 3.87-1.95-.2.48-.33 1-.33 1.53 0 2.4 2.2 4.34 4.92 4.34 2.19 0 4.03-1.28 4.67-3.03 8.78 11.82 9.3 25.42 1.62 42.62zm-16.23-50.26c.14.04.28.07.41.07.3 0 .56-.12.78-.34l.3-.02c1.94 0 3.53 1.35 3.53 3.02s-1.59 3.03-3.54 3.03-3.54-1.36-3.54-3.03c0-1.21.85-2.25 2.06-2.73zm9.94 2.99c2.16 0 3.92 1.5 3.92 3.34 0 1.85-1.76 3.35-3.92 3.35s-3.92-1.5-3.92-3.35c0-1.84 1.76-3.34 3.92-3.34zm5.43 1.42c0-1.49 1.44-2.7 3.22-2.7s3.21 1.21 3.21 2.7c0 .29-.06.56-.16.82h-.05v.1c-.44 1.04-1.62 1.78-3 1.78-1.78 0-3.22-1.2-3.22-2.7zm5.97-10.24c-1.88 0-3.4-1.76-3.4-3.92s1.52-3.92 3.4-3.92 3.4 1.76 3.4 3.92-1.52 3.92-3.4 3.92zm2.62.82c1.78 0 3.23 1.57 3.23 3.5s-1.45 3.5-3.23 3.5-3.23-1.57-3.23-3.5 1.45-3.5 3.23-3.5zm7.78 22.89c-3.48.17-5.05.05-7.75-1.91a12.7 12.7 0 0 1-3.34-3.52 19.52 19.52 0 0 1-1.97-4.34 4.46 4.46 0 0 0 3-1.2 11.31 11.31 0 0 0 4.35 7.74c2.33 1.83 5.31 2.8 8.3 2.8l.42-.01c-.89.23-1.87.38-3.01.44zm13.75-10.27c-.48.67-.93 1.37-1.39 2.07-1.77 2.75-3.45 5.34-6.6 6.2-3.68.99-7.8.17-10.75-2.14a10.24 10.24 0 0 1-4-8.49h-.07c.08-.27.12-.55.12-.84 0-.66-.21-1.28-.56-1.82.52.25 1.1.4 1.72.4.51 0 1-.11 1.45-.29.6 3.18 2.3 7.37 6.88 10.05 1.2.7 2.3 1 3.34 1 3 0 5.39-2.5 7.55-4.78l.15-.16a26.46 26.46 0 0 0 5.4-8.68c.09-.21.2-.42.3-.62-.65 2.4-1.63 5.43-3.54 8.1zm-11.64-33.28c.03-.29.13-.44.37-.54.77-.31 2.37.24 2.93.74 1.13 1.02 1.53 2.97 1.77 4.74.59 4.29 1.16 6.75 6.12 7.49a10.62 10.62 0 0 0 3.8-.06 7.1 7.1 0 0 0-1.31 1.92c-.69 1.47-1.03 3.15-1.35 4.77-.55 2.71-1.07 5.27-3.02 6.93a4.7 4.7 0 0 1-4.45.92 3.8 3.8 0 0 1-2.56-2.74c-.58-2.3-.51-5.1-.44-7.83.02-1 .04-1.95.03-2.85v-1.8c.03-3.08.06-6.91-1.18-9.52-.4-.85-1-1.58-1.7-2.25l1 .08zm-.34 2.66c1.12 2.38 1.1 6.07 1.07 9.03v1.81c.01.89-.01 1.83-.04 2.8-.06 2.8-.13 5.7.48 8.15a4.94 4.94 0 0 0 3.34 3.57 5.96 5.96 0 0 0 5.55-1.15c2.27-1.92 2.85-4.8 3.4-7.58.34-1.63.65-3.17 1.27-4.5 1.67-3.6 5.95-4.14 9.45-3.1 2.1.63 3.34 2.27 4.64 4 .49.66 1 1.34 1.56 1.98 1.07 1.2 4.1 2.6 6.63 2.18a4.71 4.71 0 0 0 1.47-.5c-.08.14-.17.26-.27.37-.98 1.1-1.95 1.63-2.97 1.65h-.05c-2.1 0-4.19-2.16-6.2-4.26a22.09 22.09 0 0 0-3.42-3.1c-1.62-1.07-3.2-1.42-4.7-1.04-1.8.46-3.4 1.94-4.74 4.42-1.57 2.9-3.47 6.3-5.62 9.47-2.93 4.32-5.57 5.86-8.06 4.71-2.93-1.36-4.17-5.99-4.34-9.54l-.06-1.15c-.18-3.92-.35-7.62-1.27-11.39l-.22-.95c-.85-3.58-1.9-8.03-5.03-10.31.35-.32.7-.67 1.06-1.04l.45.24c2.45 1.27 5.49 2.85 6.62 5.23zm66.12-56.56c-2.98.6-5.93.37-9.44-.15-3.23-.48-6.09.5-8.98 3.1a89.1 89.1 0 0 1-7.7 6.02c-5.53 4-11.78 1.54-17.83-.83-.8-.3-1.59-.62-2.36-.9-7.7-2.88-16.6-2.02-22.65 2.2-3.32 2.3-5.44 5.06-6.3 8.2a30.89 30.89 0 0 1-3.86 9c-1.88 2.85-4.62 5.75-6.8 7.96-2.3 2.32-5.75 5.46-9.2 5.84l.13 1.15c3.82-.42 7.48-3.72 9.9-6.17 2.21-2.25 5-5.2 6.94-8.14a32 32 0 0 0 4-9.33c.8-2.87 2.76-5.42 5.86-7.56 5.75-4 14.21-4.81 21.57-2.07l2.34.9c6.04 2.37 12.9 5.06 18.94.7a90 90 0 0 0 7.8-6.1c2.65-2.38 5.13-3.25 8.03-2.82 1.24.19 2.42.33 3.55.42-1.03.38-2.14.55-3.31.71-.94.14-1.9.27-2.84.53l-.35-.03c0 .05-.03.1-.03.16l-.5.16c-2.12.8-3.99 2.5-5.8 4.14-.85.78-1.66 1.52-2.46 2.13l-1.12.86c-2.2 1.72-4.12 3.2-6.85 4-3.4.97-7.1.94-10.39-.1-.79-.25-1.54-.51-2.28-.77-2.62-.92-5.07-1.8-8.15-1.66-7.13.3-14.53 1.15-19.65 7.73a66.02 66.02 0 0 0-4.8 7.43c-.85 1.47-1.74 3-2.68 4.46l-.76 1.18c-2.13 3.35-5.04 7.94-8.36 9.26l.42 1.08c3.68-1.46 6.71-6.23 8.92-9.72l.75-1.17c.96-1.48 1.86-3.02 2.73-4.5 1.43-2.46 2.91-5 4.7-7.3 4.82-6.19 11.92-7 18.78-7.29 2.85-.12 5.2.71 7.7 1.6.76.26 1.53.53 2.33.78a19.34 19.34 0 0 0 11.06.1c2.95-.85 5.04-2.48 7.25-4.2l1.1-.85a38.9 38.9 0 0 0 2.55-2.19c1.58-1.44 3.22-2.91 4.96-3.7-.81 1.43-2.3 2.95-3.57 4.24-.68.7-1.33 1.36-1.8 1.94a34.8 34.8 0 0 1-8.83 7.48c-4.27 2.53-8.75 1.74-13.5.9-2.36-.41-4.8-.84-7.27-.84h-.03c-3.94 0-7.67 0-11.14 2.01a26.89 26.89 0 0 0-5.6 4.15l-.1.1c-3.31 3.29-4.4 5.07-3.76 6.13l1-.6c-.04-.07-.24-.91 3.58-4.7l.1-.1c1.41-1.4 3.16-2.7 5.36-3.97 3.2-1.86 6.78-1.86 10.58-1.86h.03c.96 0 1.92.08 2.89.2-3.72.38-7.42 1.75-9.94 2.68-7.05 2.61-13.23 9.27-16.66 14.63a40.18 40.18 0 0 1-7.55 8.9c-2.34 2.09-7.2 5.07-10.93 4.71l-.11 1.16c.24.02.48.04.73.04 3.73 0 8.29-2.54 11.09-5.05a41.34 41.34 0 0 0 7.75-9.13c3.33-5.2 9.3-11.66 16.08-14.17 4.4-1.63 12.56-4.65 17.44-1.02 2.45 1.82 3.75 4.11 3.77 6.63.02 2.85-1.61 5.74-4.48 7.93-1.6 1.23-2.69 1-4.2.7l-.65-.12c1.42-.34 2.88-.72 4.02-2.22 1.33-1.76 2.73-5.38 1.67-7.95a6.54 6.54 0 0 0-4.17-3.65 13.4 13.4 0 0 0-10.02.93c-6.13 3.6-10.89 8.46-14.97 15.29-1.96 3.28-4.3 7.04-7.25 10.2-2.16 2.3-4.06 3.75-5.82 4.4-1.04.39-2.02.3-3.06.22-.72-.05-1.47-.12-2.27-.03l.12 1.16c.7-.08 1.35-.02 2.05.03.46.04.92.08 1.39.08.7 0 1.42-.09 2.18-.37a14.17 14.17 0 0 0 4.37-2.84l-.38.54c2.84 2 3.84 6.27 4.65 9.7l.23.95c.88 3.67 1.05 7.31 1.23 11.17l.06 1.15c.06 1.4.63 8.51 5.02 10.55a5 5 0 0 0 2.12.48c3.58 0 6.36-4.09 7.38-5.6 2.18-3.21 4.1-6.64 5.69-9.57 1.16-2.14 2.54-3.47 4-3.84 1.17-.3 2.44 0 3.78.88.88.58 1.8 1.5 2.78 2.5-2.24-.6-4.97-.61-7.45.54-.71.33-1.65 1-2.61 1.91h-.01l-.07.08a16.22 16.22 0 0 0-3.78 5.35 25.4 25.4 0 0 1-5.17 8.32l-.14.15c-2.87 3.02-5.57 5.86-9.46 3.59-4.38-2.56-5.9-6.64-6.4-9.62l-.08.01a4.58 4.58 0 0 0 1.78-3.65c0-2.41-1.79-4.37-4.03-4.48.97-.9 1.6-2.24 1.6-3.76 0-2.71-1.98-4.92-4.41-4.92-.13 0-.25.03-.38.04a4.12 4.12 0 0 0 1.84-3.34c0-2.38-2.18-4.3-4.85-4.3-2.68 0-4.86 1.93-4.86 4.3s2.18 4.3 4.86 4.3c.29 0 .56-.03.84-.07a5.1 5.1 0 0 0-1.86 4c0 2.63 1.88 4.78 4.22 4.9a4.6 4.6 0 0 0-.57 6 4.62 4.62 0 0 0-2-.45c-2.32 0-4.21 1.66-4.21 3.7l.01.08a4.84 4.84 0 0 0-3.36-2.39c2.24-2.22 2.49-11.59 2.44-12.55-.38-7.62-2.73-13.07-7.2-16.66l-.73.9c4.2 3.38 6.41 8.55 6.77 15.82.1 1.96-.51 10.33-2.15 11.73-.16.15-.27.15-.36.13l-.11.54c-1.7.08-3.15.91-3.96 2.13.18-.44.3-.91.3-1.4 0-.5-.12-.96-.3-1.39 1.4-1.1 2.7-4.7 2.81-5.25.42-2.05-.25-4.47-.85-6.6-.15-.52-.3-1.04-.42-1.53a32.83 32.83 0 0 0-9.08-15.62l-.8.84a31.65 31.65 0 0 1 8.75 15.07l.43 1.56c.56 2 1.2 4.27.83 6.05-.23 1.15-1.6 3.87-2.24 4.51a4.7 4.7 0 0 0-3.5-1.66c.69-3.16-1.35-11.29-1.9-12.23-2.75-4.66-8.48-9.7-13.63-11.98l-.47 1.06c4.95 2.2 10.46 7.04 13.1 11.51.86 1.47 2.53 10.59 1.71 11.74a4.49 4.49 0 0 0-2.99 2.06 5.05 5.05 0 0 0-1.9-2.07c.2-.53.28-1.8-.73-5.33a44 44 0 0 0-1.83-5.25 20.15 20.15 0 0 0-4.96-6.23c-1.13-.97-2.43-1.67-3.7-2.35a19.5 19.5 0 0 1-2.97-1.82 38.08 38.08 0 0 0 10.6-9.56c.54-.7-.25-2.15-1.17-3.27-1.92-2.33-12.95-13.23-41.63.73-1.73.8-4.53 1.03-8.03.02 1.04-2.2 3.22-3.73 5.33-5.2l1.46-1.05c.7-.51 1.31-1.02 1.9-1.5 1.6-1.3 2.86-2.34 5.06-3.03l1.68-.53c5.73-1.83 11.66-3.72 17.61-1.92 1.72.52 3.46 1.1 5.13 1.68 1.44.49 2.87.98 4.31 1.42 1 .32 2.03.7 3.02 1.07 2.36.89 4.8 1.8 7.31 1.94 5.76.3 13.9-1.54 18.37-5.63 4.58-4.2 7.15-8 7.88-11.64.1-.5.34-1.37.62-2.38 1.25-4.45 2.23-8.3 1.52-10.03.22-.32.42-.66.6-1.02 2.26-.54 3.57-2.07 4.8-4.21l.18-.33.13.24c8.14-4.11 15-7.01 22.94-3.9 2.75 1.09 4.43 2.75 6.56 4.85l.08.08a10.63 10.63 0 0 0 7.93 3.3c.56 0 1.14-.04 1.74-.1 3.84-.42 6.89-2.96 9.84-5.42 3.07-2.56 5.96-4.98 9.54-4.98h.01c3.36 0 5.95.54 8.96 1.16l1.69.34c2 .4 3.97.51 5.77.36-1.4.54-2.76.96-3.5 1.1zm-81.68 64.9c-2.13 0-3.86-1.48-3.86-3.3s1.73-3.3 3.86-3.3c2.12 0 3.85 1.48 3.85 3.3s-1.73 3.3-3.85 3.3zM101.06 207.62c-2.63 1.17-5.07-.05-6.3-.87-2.66-1.8-4.45-4.94-4.37-7.67l-1.16-.03c-.1 3.15 1.86 6.63 4.88 8.66a8.46 8.46 0 0 0 4.7 1.54c.94 0 1.86-.18 2.72-.56 3.82-1.7 8.44-7.95 6.94-12.48l-1-3.01-.13 3.17c-.14 3.33-2.87 7.26-5.96 8.59-1.3.56-3.24.9-5.04-.69-1.74-1.52-3.11-5.1-3.14-8.15 0-1.36.24-3.22 1.5-4.34l-.79-.87c-1.24 1.13-1.89 2.93-1.87 5.22.03 3.4 1.54 7.28 3.53 9.02a5.67 5.67 0 0 0 6.27.88c1.8-.77 3.46-2.28 4.68-4.08-1.3 2.53-3.56 4.83-5.46 5.67zM91.14 217.26c1.52.81 3.13.56 4.54.34 1.24-.2 2.4-.38 3.38.12 1.62.84 2.83 3.44 2.84 5.2 0 3.28-.96 6.25-3.03 9.37l-2.34 3.53 3.2-2.77c.48-.4.94-.77 1.4-1.12 1.48-1.14 2.89-2.22 3.71-4.33.71-1.81.9-3.75.56-5.46-.76-3.73-2.15-6.46-4.13-8.12a13.82 13.82 0 0 0-4.21-2.2c-.7-.25-1.41-.33-2.1-.4a7.52 7.52 0 0 1-1.97-.4c-1.1-.45-2.26-1.76-2.87-3.28-.46-1.14-.53-2.22-.2-2.97l-1.06-.47c-.47 1.04-.4 2.42.18 3.88.74 1.82 2.11 3.35 3.51 3.91.75.3 1.53.4 2.28.48.65.07 1.27.14 1.84.34 1.08.38 2.65 1 3.86 2 1.75 1.46 3.04 4.04 3.73 7.46.3 1.5.13 3.2-.5 4.8a7.3 7.3 0 0 1-2.39 3.1c1.15-2.4 1.7-4.79 1.7-7.35-.01-2.14-1.4-5.16-3.48-6.23-1.31-.68-2.72-.46-4.09-.24-1.35.21-2.63.41-3.8-.22-1.99-1.06-5.3-4.57-4.56-6.89l-1.1-.35c-1 3.1 2.79 7.03 5.1 8.27zM69.38 270.92c-1.97 0-3.57 1.76-3.57 3.93s1.6 3.93 3.57 3.93 3.58-1.76 3.58-3.93-1.6-3.93-3.58-3.93zm0 6.7c-1.32 0-2.4-1.24-2.4-2.77s1.07-2.77 2.4-2.77 2.42 1.24 2.42 2.77-1.09 2.77-2.42 2.77zM63.8 307.54c0 2.7 1.61 4.88 3.6 4.88s3.6-2.19 3.6-4.88c0-1.82-.74-3.38-1.83-4.22a3.8 3.8 0 0 0 1.83-3.28c0-2.08-1.61-3.78-3.6-3.78s-3.6 1.7-3.6 3.78c0 1.4.74 2.62 1.83 3.27a5.33 5.33 0 0 0-1.84 4.23zm1.16-7.5c0-1.44 1.1-2.62 2.44-2.62s2.44 1.18 2.44 2.62-1.1 2.62-2.44 2.62-2.44-1.17-2.44-2.62zm4.88 7.5c0 2.02-1.12 3.72-2.44 3.72s-2.44-1.7-2.44-3.72 1.12-3.72 2.44-3.72 2.44 1.7 2.44 3.72zM68.38 331.65c2.52 0 4.58-2.46 4.58-5.49s-2.06-5.49-4.58-5.49-4.59 2.46-4.59 5.5 2.06 5.48 4.59 5.48zm0-9.81c1.88 0 3.41 1.94 3.41 4.32s-1.53 4.33-3.41 4.33-3.42-1.94-3.42-4.33 1.53-4.33 3.42-4.33z"/><path d="M61.8 266.68c.1 3.62.3 10.25 4.29 13.62-1.38 1.46-2.3 4.2-2.3 7.43 0 4.8 2.02 8.54 4.59 8.54s4.58-3.75 4.58-8.54c0-2.06-.38-3.93-1-5.39l.25.02c1.14 0 2.37-.16 3.68-.44-.35 30.43 5.92 51.95 19.12 65.66l.83-.8c-13.09-13.61-19.24-35.14-18.77-65.69a7.26 7.26 0 0 0 2.8 3.85c2.22 1.44 4.87 1.5 7.43 1.55 1.42.03 2.76.06 4.01.31 6.2 1.25 12.62 3.3 17.6 9.71 1.73 2.23 3.25 4.56 3.61 6.95-.01 1.27-.2 2.57-.58 3.94l-.27.53 1 .58a7.74 7.74 0 0 0 1-5.21c-.01-4.93-2.35-9.1-4.84-13-3.21-5.03-7.66-6.05-12.37-7.14-1.3-.3-2.62-.6-3.94-1 2.18-.28 4.35-.96 6.32-1.7 2.68 3.29 8.14 6.39 11.75 7.3 4.63 1.15 7.21 3.18 9.54 7.5 2.25 4.16 5.47 12.87 3.25 19.07a8.89 8.89 0 0 1-5.24 5.4c-2.36.97-4.98.96-7.52.94h-.96v1.16h1.92c2.35 0 4.74-.1 7-1.02a10 10 0 0 0 5.89-6.08c2.36-6.59-.98-15.69-3.32-20.03a16.09 16.09 0 0 0-4.44-5.45c.31-2.45-.17-5.38-1.35-7.8-1.25-4.77-5.5-9.29-11.24-8.77-1.43.13-3.2.57-5.06 1.04-4.45 1.12-9.34 2.35-12.2.26 2.16-1.2 4.84-3.62 5.78-6.25a4.74 4.74 0 0 0 2.61-3.3c.81-3.14-.53-7.46-1.77-8.93a5 5 0 0 0-3.01-1.77c1.48-3.86.11-11.34-1.07-14.07-2.2-5.07-5.81-7.26-9.65-5.86-2.81 1.03-5.05 3.35-6.47 6.72-1.9 4.5-2 10.13-.26 14a24.91 24.91 0 0 0 4.57 7.17c-.27.48-.51.98-.71 1.54-.4 1.14-.68 2.45-.85 3.8-3.4-.93-6.14-5.34-7.3-9.25-.83-2.82-.76-5.75-.64-8.27.1-1.98.24-4.99 1.2-6.9l-1.03-.52c-1.08 2.13-1.23 5.28-1.33 7.37-.13 2.61-.2 5.65.7 8.65.97 3.32 3.8 9 8.27 10.07-.2 2.3-.15 4.63.04 6.5l.05.52.06.56c-.07 1.68-.1 3.33-.14 4.96-1.69.4-3.22.54-4.58.43-.8-1.23-1.82-1.96-2.95-1.96-.48 0-.94.13-1.38.38-3.75-3-3.94-9.43-4.05-12.92-.02-.73-.04-1.33-.08-1.76-.53-5.18-.92-11.88.8-17.77l-1.11-.33c-1.78 6.09-1.39 12.93-.85 18.22.04.4.06.98.08 1.67zm53.81 21.82a17.14 17.14 0 0 0-4.74-1.88c-3.25-.8-8.3-3.64-10.9-6.6l1.4-.56.41-.17c3.03-1.24 6.17-2.52 9.22-1 3.14 1.55 4.87 6.39 4.61 10.2zm-29.64-15.37a6.1 6.1 0 0 1-1.35-3.15c1.1-.7 4.56-3.07 5.1-4.78.27-.92-.07-2.3-.82-3.29-.59-.76-1.35-1.17-2.1-1.13-.97.03-1.79.49-2.38 1.32-1.73 2.44-1.19 7.61-.68 9.26 2.12 6.89 9.6 5 15.6 3.49 1.82-.46 3.54-.9 4.88-1.02 3.41-.3 6.22 1.4 8.05 3.85-.24-.16-.5-.3-.75-.44-3.53-1.74-7.06-.3-10.18.97l-.41.17c-5.25 2.14-12.45 5.07-17.06-.3-3-3.47-4.45-7.72-3.8-11.1.46-2.42 1.95-4.3 4.43-5.6a4.74 4.74 0 0 1 4.24-.24 5.67 5.67 0 0 1 2.98 4.01c.67 2.86-2.9 6.55-5.75 7.98zm-1.5-4.43c-.18-2.02-.05-4.59.9-5.93a1.8 1.8 0 0 1 1.47-.83h.03c.5 0 .9.42 1.1.68.56.73.78 1.75.63 2.23-.3.97-2.42 2.7-4.14 3.85zm-10.39-14.66c-1.59-3.53-1.48-8.91.27-13.07.9-2.14 2.64-4.93 5.8-6.08 4.6-1.69 7.25 3.1 8.18 5.23 1.27 2.93 2.42 10.43.91 13.54-.8.04-1.72.25-2.75.68.24-2.5.6-8.69-1.3-12.12a4.5 4.5 0 0 0-3.55-2.5c-1.77-.14-3.7.84-5.07 2.56-1.42 1.8-1.8 5.97-.88 9.9.44 1.93 1.56 5.23 4.05 6.72-.55.53-1.06 1.11-1.52 1.76a24.61 24.61 0 0 1-4.14-6.62zm6.56 4.05c-1.7-.83-3.1-3.07-3.82-6.17-.82-3.56-.54-7.4.66-8.92 1.13-1.43 2.68-2.24 4.06-2.13 1.09.1 2 .75 2.64 1.91 1.65 3 1.47 8.9 1.08 12.14-.57.3-1.18.67-1.82 1.11-.94.66-1.9 1.32-2.8 2.06zm-2.67 5.52c1.06-2.96 3.12-4.54 6.13-6.62 2.28-1.57 4.2-2.27 5.78-2.15l.01.01a3.8 3.8 0 0 1 2.7 1.4c.96 1.14 2.28 5 1.53 7.9-.22.85-.62 1.5-1.16 1.98a6.82 6.82 0 0 0-3.73-6.04 5.87 5.87 0 0 0-5.26.25c-2.78 1.46-4.52 3.68-5.04 6.43-.71 3.7.84 8.33 4.06 12.07a9.44 9.44 0 0 0 6.2 3.33 36.83 36.83 0 0 0 7.01 2.13c4.47 1.02 8.7 2 11.65 6.63a34.46 34.46 0 0 1 3.87 7.55 31.49 31.49 0 0 0-1.89-2.68c-5.22-6.74-12.18-8.9-18.29-10.14-1.35-.28-2.8-.3-4.22-.34-2.4-.05-4.88-.1-6.83-1.36-2.62-1.69-3.02-5.68-3.34-8.88l-.05-.52c-.31-3.04-.27-7.74.87-10.95zm-6.18 24.12c0 4.42-1.76 7.38-3.41 7.38s-3.42-2.97-3.42-7.38c0-3.22.94-5.66 2.08-6.75a8.88 8.88 0 0 0 3.6 1.27c.68 1.3 1.15 3.2 1.15 5.48zm-2.24-6.9a7.51 7.51 0 0 1-1.27-.47l.1-.01c.39 0 .79.17 1.17.49z"/><path d="M68.36 268.25c.58.6 2.4 2.22 3.8 2.48l.2-1.15c-.87-.16-2.4-1.34-3.16-2.14-.86-.9-1.73-2.08-2.38-3.22-1.16-2.05-1.84-4.96-1.86-7.97H63.8c.02 3.21.75 6.33 2.01 8.54a18 18 0 0 0 2.55 3.46zM82.98 354.65c-3.82 0-6.94 2.47-6.94 5.5s3.11 5.52 6.94 5.52 6.94-2.47 6.94-5.51-3.11-5.51-6.94-5.51zm0 10.02c-3.27 0-5.94-2.02-5.94-4.51s2.67-4.51 5.94-4.51 5.94 2.02 5.94 4.5-2.67 4.52-5.94 4.52zM89.36 398.24a3.94 3.94 0 0 0 0-7.89 3.94 3.94 0 0 0 0 7.9zm0-6.89c1.61 0 2.92 1.32 2.92 2.95s-1.3 2.94-2.92 2.94a2.94 2.94 0 1 1 0-5.89zM64.78 390.4c3.96.23 7.83-.58 11.2-2.36 1.96-1.03 3.8-2.4 5.45-4.07.22-.22.45-.51.69-.82.4-.52.85-1.11 1.26-1.27.19-.07.48-.03.8.02.63.1 1.7.26 2.15-1.05.3-.88-.01-2.3-.37-3.7l-.07-.3a8.28 8.28 0 0 0-6.06-6.26c-6.11-1.67-12.36-1.67-18.4-1.67-4.86 0-10.04.6-15.12 4.95-3.6 3.1-8.84 15.07-10.81 19.58l-.55 1.25c-1.18 2.61-8.35 14.02-10.14 15.9-1.4 1.5-10.97 9.16-19.45 7.28l-.21.97c.95.21 1.92.31 2.9.31 7.5 0 15.34-5.6 17.49-7.86 1.88-2 9.1-13.46 10.32-16.2l.56-1.25c1.94-4.45 7.1-16.27 10.54-19.22 4.56-3.91 9.08-4.71 14.46-4.71 5.98 0 12.16 0 18.15 1.64a7.23 7.23 0 0 1 5.35 5.53l.07.31c.2.8.63 2.45.4 3.12-.17.48-.34.5-1.07.39-.4-.06-.87-.13-1.3.04-.67.26-1.21.97-1.7 1.6-.2.26-.4.53-.6.72a21.25 21.25 0 0 1-5.2 3.9 20.4 20.4 0 0 1-10.69 2.24c-3.02-.18-11.8-1.85-11.8-5.4h-1c0 1.28.75 2.32 1.89 3.17h-.06c0 .52-.23.72-.42.84-1.58.95-6.76-1.02-8.11-1.75l-.48.88c.67.36 3.59 1.65 6.1 2.02-.28 1.1-.8 1.9-1.59 2.36-1.96 1.13-5.13.16-7.34-.66l-.35.94a16.6 16.6 0 0 0 5.46 1.23c.84 0 1.65-.15 2.36-.47a6.06 6.06 0 0 1-2.39 3.6c-1.01.66-1.89.7-3.24.7-.35 0-.85-.1-1.34-.18-.85-.16-1.59-.29-2.09-.1l.36.94c.24-.1 1 .04 1.55.14a8.51 8.51 0 0 0 4-.06v.08c-.2.95-2.16 2.65-2.94 2.95-1.7.66-4.09.4-5.42-.59l-.6.8a6.73 6.73 0 0 0 3.91 1.16c.86 0 1.72-.15 2.47-.44.27-.1.68-.36 1.12-.69-.08 1.69-.42 4.29-2.02 5.11-1.58.8-4.27.07-5.32-.82l-.65.76a7.3 7.3 0 0 0 4.31 1.4c.5 0 .99-.06 1.45-.2-.32 1.7-1.06 3.44-2.32 3.77-1.88.5-4.19-1.35-5.1-2.17l-.66.74c1.1 1 3.1 2.51 5.1 2.51.3 0 .61-.03.92-.11l.22-.08c-.3 1.15-1.89 2.41-3.14 2.83-1.7.57-4.16-.35-5.72-1.45l-.58.82c1.4.99 3.37 1.8 5.14 1.8.42 0 .82-.06 1.21-.16.06.3-.05.63-.17.87a4.6 4.6 0 0 1-2.46 2.16c-1.72.45-4.82-.53-5.44-2.03l-.93.38c.74 1.78 3.41 2.76 5.44 2.76.17 0 .33-.02.49-.03-.08.2-.2.38-.33.52a4.5 4.5 0 0 1-2.61 1.47h-.03c-1.06-.04-2.21-.47-3.33-.88a16.8 16.8 0 0 0-2.62-.81l-.19.98c.8.15 1.6.45 2.46.77 1.06.39 2.16.78 3.25.89.05.39-.06.8-.34 1.21a5.63 5.63 0 0 1-3.6 2.15c-1.8.08-4.18-1.13-5.5-2.33l-.68.74a10.43 10.43 0 0 0 5.58 2.57c-.03.5-.2.92-.5 1.23-.55.58-1.58.83-2.8.7-1.64-.17-2.85-.88-4.24-1.7l-1.17-.68-.48.88c.4.22.77.44 1.14.66 1.43.84 2.78 1.63 4.6 1.83-.03.1-.08.2-.2.32-.81.8-3.15 1.11-4 .93-1.07-.23-1.88-.79-2.75-1.37-.68-.46-1.38-.94-2.23-1.27l-.36.94c.74.28 1.37.7 2.03 1.16.9.6 1.84 1.24 3.1 1.52.18.03.4.05.65.06-.19.54-.61 1.06-1.23 1.5-.93.65-2.1.93-2.85.69a15.77 15.77 0 0 1-4.08-2.3c-.6-.4-1.19-.82-1.8-1.2l-.53.84c.6.38 1.18.78 1.75 1.18 1.28.9 2.6 1.81 4.19 2.36a2.8 2.8 0 0 1-2.46 1.25c-2.68-.06-5.83-3.14-6.32-4.19l-.9.42c.49 1.07 2.66 3.27 5.04 4.26-.33.78-.91 1.2-1.8 1.25-2.7.15-6.93-2.93-7.58-4.66l-.93.35c.74 1.98 5.15 5.31 8.33 5.31h.23a2.9 2.9 0 0 0 2.72-1.91c.4.1.8.16 1.2.17h.1c1.03 0 2.4-.4 3.43-2.05h.02c.9 0 1.93-.34 2.81-.96a3.9 3.9 0 0 0 1.68-2.35c1.16-.13 2.52-.5 3.25-1.23.3-.3.46-.64.52-1 1.1-.05 2.04-.4 2.64-1.01.36-.37.75-1 .78-1.96a6.73 6.73 0 0 0 4.03-2.54c.4-.6.57-1.21.52-1.8a5.82 5.82 0 0 0 2.83-1.75c.4-.46.6-.94.64-1.4a5.81 5.81 0 0 0 2.72-2.57c.3-.6.36-1.15.21-1.64 1.67-.81 3.4-2.53 3.2-4.15 1.34-1.26 1.76-3.61 1.88-4.44l-.14-.02c1.96-1.28 2.28-4.33 2.3-6.67a4.77 4.77 0 0 0 1.42-2.13c.05-.24.04-.47-.02-.67l.35-.2c1.5-.98 2.95-3.24 2.9-5.14a4.92 4.92 0 0 0 1.4-2.61h.23c.7 0 1.31-.1 1.78-.39.32-.19.68-.54.83-1.13 3.17 1.84 8.2 2.56 9.99 2.66z"/><path d="M73.89 381.77c-2.51 1.63-3.87.62-5.92-.9l-.1-.07-.6.8.1.08c1.37 1.01 2.62 1.93 4.16 1.93.85 0 1.8-.28 2.9-1 .51-.33.97-.67 1.41-1 1.24-.92 2.3-1.72 3.99-1.85l.02-1c-.86-.1-1.62-.49-2.42-.9-.55-.28-1.12-.57-1.73-.77-1.99-.64-3.73-.13-5.31.52-1 .4-1.96.93-2.9 1.45-.68.36-1.35.73-2.04 1.06-.64.3-1.35.52-2.04.73-.72.21-1.47.44-2.17.78l.44.9c.62-.3 1.3-.51 2.02-.73a15.1 15.1 0 0 0 2.18-.78c.7-.33 1.4-.71 2.09-1.09.95-.52 1.86-1.02 2.8-1.4 1.62-.66 3.03-1 4.62-.49.54.18 1.04.44 1.58.71l.9.45c-.99.39-1.8.99-2.62 1.6-.43.32-.87.65-1.36.97zM143.54 66.07c2.64-4.36 8-8.46 13.67-10.45 4.46-1.57 9.08-1.26 13.96-.94 1.03.07 2.07.14 3.1.19 2.5.12 5-.04 7.4-.2.88-.06 1.75-.12 2.63-.16 3.7-.2 6.4-.67 8.5-1.5 1.96-.76 4.34-2.12 4.96-4.27l.85.13c.82.15 1.74.31 2.59.31.75 0 1.44-.13 1.94-.5.41-.32.65-.77.7-1.35l-1-.09c-.02.3-.12.5-.31.64-.72.54-2.54.22-3.75 0l-.88-.13a6.73 6.73 0 0 0-1.08-3.18c.91.23 2.31.53 3.62.53.81 0 1.59-.12 2.18-.44a2 2 0 0 0 1.02-1.23l-.96-.27c-.08.27-.25.47-.54.62-1.32.72-4.34.07-5.91-.42l-.07.22c-.65-.9-1.38-1.7-2.06-2.32 2.09-.05 4.32-.37 5.76-2.05.1-.11.15-.14.2-.16.46-.23.38-.62.32-.93l-.9.17a.34.34 0 0 1 .13-.14c-.15.08-.3.18-.51.41-1.5 1.76-4.19 1.73-6.55 1.7h-.83c-3.02 0-5.02-.53-7.93-2.08-1.62-.86-2.83-2-4.1-3.22a37.2 37.2 0 0 0-2.21-1.99 10.57 10.57 0 0 1-2.75-2.98c-.2-.35-.37-.82-.55-1.31a6.78 6.78 0 0 0-1.21-2.32c4.87-6.37 12.69-8.19 23.91-5.52l.45.1c2.08.5 3.88.92 5.45 1.96l.27-.42-.26.42c7.5 4.67 11.62 10.4 12.22 17.02.71 7.72-3.6 16.46-11.82 24v-.02c-.5.16-1.54-.15-2.47-.43a10.3 10.3 0 0 0-2.45-.51c-1.41.02-2.84.2-4.22.37l-2.1.24c-4.35.42-8.03 2.05-11.94 3.78l-.68.31v-.03-.14l-1-.1v.2c-1.85.61-4.83.44-7.05.3l-.78-.04a30.7 30.7 0 0 0-.89-.03c-1.15-.02-2.33-.05-3.22-.5-.56-.3-1.02-.77-1.5-1.28s-.98-1.04-1.61-1.4l-.5.88c.5.28.93.73 1.38 1.2.53.55 1.06 1.12 1.77 1.48.78.4 1.69.52 2.58.58-.05.07-.09.14-.16.2-1.1 1.03-4.29 1.02-5.82.87-3.05-.3-4.95-1.14-6.57-2.93l-.74.68c2.23 2.46 4.9 3.02 7.22 3.25l.55.04-.03.08c-.68 1.05-3.16 1.74-4.37 1.97a8.4 8.4 0 0 1-6.85-1.88l-.65.75a9.55 9.55 0 0 0 6.05 2.25c-.52.68-2.4 1.7-3.88 2.16-1.8.55-3.41.25-5.13-.06-.62-.12-1.26-.24-1.92-.32l-.12 1c.64.07 1.25.19 1.86.3 1.04.2 2.1.39 3.21.39.77 0 1.56-.1 2.4-.35.02 0 1.06-.35 2.16-.9.03.09.05.2.03.4-.16 1.34-1.98 3.49-2.97 3.76-1.27.36-2.97.37-4.62.38-1.06 0-2.05.01-2.96.1l.1 1c.86-.09 1.84-.1 2.87-.1 1.7-.01 3.48-.03 4.88-.42.23-.06.47-.19.72-.34-.14 1.6-.6 2.79-1.89 3.57-.98.6-2.01.52-3.1.44a6.8 6.8 0 0 0-2.98.24l.35.94c.82-.3 1.66-.24 2.56-.18 1.2.09 2.43.18 3.7-.59.38-.23.68-.5.96-.79.28 1.82.03 3.95-1.1 5.1-.77.8-1.86 1-3.25.6l-.28.95c.58.17 1.1.24 1.57.24 1.3 0 2.15-.54 2.68-1.09 1.59-1.61 1.78-4.62 1.17-6.9a7.9 7.9 0 0 0 .66-3.4c.96-.98 1.8-2.36 1.92-3.4.06-.43-.02-.76-.14-1 .81-.51 1.5-1.13 1.65-1.8l.52-.07c.4-.07 3.97-.76 5.04-2.4.12-.2.2-.4.25-.6h.08c1.57 0 3.8-.19 4.9-1.2.28-.26.46-.56.57-.9l.85.03.77.05c1.02.05 2.2.12 3.36.12.74 0 1.47-.03 2.16-.1a20.5 20.5 0 0 0-7.65 6.75c-2.16 3.05-4.8 9.08-3.28 13.19l1.1-.4c-1.37-3.66 1.2-9.37 3.13-12.12 2.9-4.1 5.67-5.82 10.44-7.93 3.81-1.69 7.41-3.28 11.57-3.68.71-.07 1.42-.16 2.14-.25 1.35-.16 2.74-.34 4.1-.36h.01c.54 0 1.32.24 2.08.47.46.14.92.27 1.35.37l-.17.19c-6.21-.9-12.68 1.58-18.4 3.77l-.68.27c-4.13 1.58-7.1 3.83-9.1 6.87-1.61 2.45-3.93 7.67-3.8 11.08l.02.48.47.07a3.69 3.69 0 0 0 .84.03l-.05-1.16h-.12c.12-3.04 2.11-7.58 3.61-9.86 1.86-2.83 4.66-4.94 8.54-6.43l.7-.26c5.68-2.19 12.13-4.67 18.14-3.66l.18.03c-.92.41-1.84.85-2.73 1.33-7.61 4.04-15.12 12.26-14.71 21.54l1.16-.06c-.38-8.71 7.04-16.71 14.1-20.46 7.4-3.93 15.98-5.54 25.49-4.8l.13.02c2.4.19 4.66.37 6.68 1.38.47.24 1.08.74 1.72 1.26 1.35 1.11 2.75 2.27 4.05 2.03l.4-.08.07-.4c.04-.25.06-.52.04-.85l-1.16.06v.1c-.77-.2-1.8-1.05-2.66-1.76-.7-.57-1.35-1.1-1.94-1.4-2.22-1.12-4.7-1.31-7.1-1.5l-.14-.01c-8.43-.67-16.17.5-23.03 3.44l.09-.24c.09-.24.17-.56.01-.84l-.05-.07c.45.06.87.05 1.23-.07l-.2-.55.34.37c8.56-7.8 13.04-16.9 12.3-24.99-.63-6.95-4.9-12.92-12.68-17.76v-.01h-.01c-1.71-1.13-3.68-1.6-5.76-2.09l-.45-.1c-11.86-2.82-20.1-.77-25.22 6.25l.4.3-.27.41c.55.37.9 1.3 1.22 2.2.2.53.38 1.03.62 1.45.73 1.3 1.72 2.25 2.99 3.27.77.63 1.47 1.3 2.15 1.94a19.42 19.42 0 0 0 4.32 3.38c3.08 1.64 5.2 2.19 8.4 2.19h.99l-.06.08c1.71 1.3 4.66 4.81 4.21 6.94-.39 1.87-2.62 3.1-4.42 3.8-2 .8-4.6 1.25-8.19 1.43l-2.64.16c-2.38.16-4.84.33-7.3.2-1.02-.04-2.05-.11-3.07-.18-4.77-.32-9.7-.65-14.36.99-4.67 1.64-10.86 5.36-14.2 10.87-3.54 5.86-4.29 13.25-4.29 18.42h1c0-5.05.72-12.25 4.15-17.9z"/><path d="M178.95 29.54a3.59 3.59 0 0 0 3.17 2.33c1.7 0 4.36-1.43 5.08-2.85.09-.18.14-.35.17-.53l.11.11a16.7 16.7 0 0 1 2.48 3.5l.28.62c.22.5.46 1.08.8 1.44.28.3 1.37.92 1.96.92a.5.5 0 0 0 .22-.05l.26-.57-.5.12-.04-.04.08-.45a3.58 3.58 0 0 1-1.25-.61c-.22-.23-.43-.72-.61-1.15a17.61 17.61 0 0 0-2.93-4.4c-2.97-3.27-6.32-4.35-10.26-3.27l.27.96c.35-.1.69-.15 1.02-.21a5.36 5.36 0 0 0-.3 4.13zm7.38-2.07l-.2.23c.3.26.36.51.17.87-.63 1.25-3.4 2.53-4.5 2.27a2.58 2.58 0 0 1-1.91-1.65 4.47 4.47 0 0 1 .6-3.92 8.1 8.1 0 0 1 5.84 2.2z"/></svg>