<svg xmlns="http://www.w3.org/2000/svg" width="224.9" height="275.5"><path fill="none" d="M197.4 233.4c3.4 7.4 2.9 12.5 1.2 15.9l.2-.2c1.3-1.6 2.4-5.9 1.8-11-2.2-19-20.5-17-33.9-15.6-4 .4-7.4.8-10 .6-9.6-1-16.1-6.3-17.5-9l-2.6 1.7c2.3 4 8.8 11 18.7 11.1 2.5 0 5.9-.3 9.4-.6 4.3-.4 8.9-.8 13.3-.8l.1-.2.3.2c8.5 0 16.2 1.6 19 7.9z"/><path fill="none" d="M170.8 244.3c2.5-.8 4.8-2 6.6-3.8l.6-.8a13 13 0 0 0 2.2-9.3 6.4 6.4 0 0 0-2.1-3.9c-4.5 0-9.2.4-13.3.8-3.6.4-7 .6-9.5.7-10.3-.1-17.1-7.5-19.5-11.7-3.6 2-7.3 3.6-10.4 4.3 2 1.8 5.1 2.4 8.2 2.9 2.6.5 5 .9 6.9 2 1.9 1.2 4 3.3 6.4 5.8 6 6.2 13.7 13.8 23.9 13z"/><path fill="none" d="M124.3 229.7l3.5.1c5 .1 10.3.2 14.4 2.5 2.6 1.4 4.8 3.7 7 5.8 1.7 1.7 3.5 3.5 5.5 4.9 2.7 1.9 7.3 2.7 11.9 2.1-8.6-1.2-15.3-8-20.4-13.1a41.3 41.3 0 0 0-6.2-5.6c-1.7-1-4-1.5-6.6-1.9-3.4-.6-7-1.2-9.2-3.6l-1.6.3h-.4c-2.6.3-5.2.5-7.8.5h-2.7c.4 6.2 7 7.8 12.6 8z"/><path fill="none" d="M109 221.3l-4-1a6.6 6.6 0 0 0-1.6 5.4 9.8 9.8 0 0 0 4.8 6.5c2.3 1.2 7.9 1.9 13.7 2.6 4.7.6 9.5 1.2 13 2 6.2 1.7 11 5 14 6.8l2.1 1.3a21.6 21.6 0 0 0 17.7 1c-1.6.3-3.3.4-4.9.4-3.7 0-7.3-.8-9.7-2.5-2-1.4-3.8-3.2-5.6-5a33.1 33.1 0 0 0-6.8-5.6c-3.9-2.2-9-2.3-13.9-2.4h-3.5c-8.5-.4-13.3-3.7-13.6-9.3l-1.6-.2zM130.6 182.4c3.5-2.6 5.4-6 5.1-9.3l-.7.9a33.6 33.6 0 0 1-1.5 1.9 21 21 0 0 1-5.2 4.3h-.1c-.8.5-1.6 1-2.4 1.2-2.4.8-4 .7-6.3.4h-.2c-3.7-.3-7.6 1.4-10.3 4.7h1c.5 0 1 0 1.5.2l1.5.2c.5 0 1-.2 1.6-.4l1.5-.5a22 22 0 0 0 3.4-.8l1.7-.6c1.3-.4 2.6-.9 4-1.1h1.7l1.2.1c.8 0 1.5-.5 2.2-1l.3-.2z"/><path fill="none" d="M119.3 181.4h.2c-1.8-1.4-3.2-2.9-4-4.4l.4-.1c.8 1.5 2.2 3 4.2 4.5v.1a11.4 11.4 0 0 0 7.8-1.6c1.5-3.4.5-8 0-10.2-1.1.5-2.5.9-4.2 1.1-.9.2-1.8 0-2.6 0-1.3-.2-2.5-.3-3.7.4-1 .6-2 1.6-2.8 2.5l-1.9 1.8-.9.7c-1.3 1-2.5 2.1-3.9 3a50.5 50.5 0 0 1-5.2 3.2c-2 1.1-2.2 3-2.2 4.8 1-.2 2.2-.2 3.4-.2l2.8-.1 1-.2.8-.1c2.8-3.6 7-5.6 10.8-5.2zM142 172.9l-.2-3.4a31 31 0 0 1-3.4 1.9c-.8.4-1.6.8-2.3 1.4.4 3.6-1.5 7.2-5.3 10l-.3.1c-.5.4-1 .8-1.7 1l.6 1c.6 1.1 1.2 2.3.8 3.5h1.3c.5 0 1.1.1 1.6 0 1.3-.4 2.6-1.3 3.9-2.3l1.2-1c3.9-2.7 3.8-6.4 3.8-10.7v-1.5z"/><path fill="none" d="M146.2 145a52.1 52.1 0 0 1-5.9-17.8 21 21 0 0 1-8.3-8.9c-.3 1.3-.8 2.3-1.4 2.5l.1.5c1 3 2.2 5.9 3.4 8.7 1.8 4.3 3.7 8.8 4.4 13.4.3 2.1.4 3.1-.9 4 .2.4.1 1-.4 2-2 3.4-9.2 10.8-12.9 10.8a2 2 0 0 1-.8-.2v-.1l-.4.2a4.1 4.1 0 0 1-3.6 0l.2-.3c1 .5 2.2.5 3.2 0a8 8 0 0 0 3.8-5l.2-.7c.3-1.1.6-2 1.2-3.2l.9-1-1.8.3c-.6 0-1.1 0-1.7-.2-2.2-.6-4.6-2.4-5.2-4.8-1.6-1.9-3.5-3.2-5.4-4.6-3-2.1-5.7-4.2-7.4-7.7-.7-1.5-1.2-3-1.6-4.3-.5-1.9-3-2.8-5.1-3.7l-1.7-.7a20 20 0 0 1-4.9 16 59 59 0 0 1 .8 14.5c.4.2 1 .1 1.7-.3 2.2-1.3 5.1-5.7 5.2-7.5v-.4c-.6-4 2.4-5.8 5.2-7.5.9-.6 1.7-1 2.4-1.6l.2.3c-.7.6-1.6 1.1-2.4 1.6-2.7 1.7-5.6 3.5-5 7.1.1 1.4.7 3 1.2 4.5l.5 1.5c.6 1.7 1.8 3.8 3 5.4.8 1 1.5 1.2 2.9 1.2h.7l2.6.2v.1l.2.2-.5.1-2.3-.1h-.8c-1.4-.1-2.2-.3-3-1.4a18.9 18.9 0 0 1-3.7-7.1l-1-3.2c-.7 2.2-3.2 5.7-5.2 7-.5.3-1 .4-1.4.4l-.6-.1c0 1.4-.3 2.8-.5 4-2 9.3-7.4 14.5-15.7 15.3a8.5 8.5 0 0 1-3 0h-.1c-.8 0-1.7-.3-2.6-.6-5.2 5.7-11.5 7.6-15.1 5.8-2.2 4.2-7.7 5.2-12.3 5.2-1.5 0-3-.2-4-.3a49.3 49.3 0 0 0 15 4.8l1.1.2h1.7c3 0 6.1-1 9.4-2h.2l.4-.3.8-.2c2-.7 4-1.4 6-1.9h.2l.8-.2c2-.5 4-.7 5.7-.7h.5v2.2c.4 7.5 3.3 13.6 6 19.4l1 2c1 2.1 2 4.4 2.8 6.8a64.5 64.5 0 0 0 16 5.7c4.3.8 8.7.3 13 0l.3-.1c6.5-.7 19.9-7.4 23.5-14.2a36.6 36.6 0 0 0 3.6-17.6c0-2.3.1-4.6.4-7.2l.8-9.3.7-8.4v-.8l1-10.6c-2.3-1.7-4.4-4-6.3-7zm-34.5 12l-.3.3-.7-.7.3-.2c1.2-1.4 2.4-2.7 4.3-3.4 1-.3 2.3-.4 3.2-.3.4 0 .9.3 1.4.5l1.3.4-.1.1.8.6c-.4.6-1.3.3-2.4-.2l-1-.4c-.9-.1-2 0-2.9.3-1.6.5-2.7 1.7-3.9 3zm34.6 7c-.2 2.1-2.3 4-4.2 5.2.1 1.2.3 2.4.3 3.7v3.6c.7 1.3 1 4.7 1 5 0 2.1-.9 3.6-1.8 4.9a28.4 28.4 0 0 1-9.4 8l-3 1c-1 .3-2 .6-3 1.2l-1.4.8a12 12 0 0 1-4 2c-.9.3-1.8.4-2.6.4-3.6 0-6.9-1.6-10-3.3a21.5 21.5 0 0 1-8-8.5l.4-.2c1.1 2.9 5.2 6.8 7.9 8.3 3.7 2.1 7.7 4 12.2 3 1.5-.3 2.7-1.2 4-2l1.2-.9c1-.6 2.2-1 3.3-1.2l2.8-1a28 28 0 0 0 9.3-7.9 6.8 6.8 0 0 0 1.6-4.5c0-1-.2-2.9-.5-4-.2 3-1 5.8-4 8l-1.2.8c-1.3 1-2.6 2-4 2.4h-1.7l-1.7.1c-.5.2-1 .7-1.3 1.2l-.6.7a14.6 14.6 0 0 1-11.6 3.8h-.5c-1.8-.2-3.7-.4-5.2-1.9a81.2 81.2 0 0 1-4.3-5l.3-.2c1 1.3 2.7 3.3 4.3 5 1.3 1.3 3 1.4 5 1.6h.4c4.2.5 8.7-1 11.3-3.5l.6-.7c.4-.6.8-1.1 1.5-1.3h.1c.5-1.2-.2-2.4-.8-3.5l-.6-1.2-.3.1H127c-.6-.1-1.1-.2-1.7-.1-1.3.2-2.6.7-3.8 1.1l-1.7.6c-1.2.4-2.3.6-3.5.8l-1.4.4-1.8.5-1.6-.2-1.4-.2a15.3 15.3 0 0 0-3.3.4l-2.8.1a16 16 0 0 0-3.4.2v.2h-.4c-1.7.3-2.9 1-4.3 2l-.8.4-.2-.3a65.3 65.3 0 0 1 5.3-2.6c0-2 .2-4 2.4-5.3l1.4-.8 3.8-2.3 3.9-3 .9-.8 1.8-1.7a15 15 0 0 1 2.9-2.5c1.3-.8 2.7-.7 4-.5.8 0 1.6.2 2.5 0 2.7-.4 4.6-1 5.6-2a18 18 0 0 0 2-2.6c2-2.7 4-5.4 7.6-3.3h.1c1.3.7 2 1.1 3.5 1.2h.6c.9.1 3 .4 3.1-.2l.4.2-.3.3z"/><path fill="none" d="M143 164.1h-.6c-1.5-.1-2.3-.5-3.6-1.2-3.4-2-5.2.5-7.1 3.1-.7 1-1.4 2-2.2 2.7l-1.3.9c.6 2 1.6 6.5.3 10a23.2 23.2 0 0 0 5.3-4.8c.6-1.4.9-4.8.8-6h.4c0 .7 0 3.3-.5 5.2l.1-.3 1-1.1v-.1h.3c.7-.6 1.5-1 2.4-1.5a39 39 0 0 0 3.4-2h.2c1.8-1.3 3.7-3 4-4.8h-2.8zM77.9 107.3c2.6 4 4.5 9.9 5.5 13 4.7 16.1 7.7 43.7-.8 52l-.6.5c7.3-2.1 10.3-8.4 11.4-13.9 3.6-17.2-6-44.6-15.5-51.6zM174.6 182a71 71 0 0 1 2.6 2.1 28.5 28.5 0 0 1 10.1 18c1.3-7 1.3-11-3.6-18l-2.6-3.2c-2.8-3.3-6.3-7.4-6.4-11.5h-1c-2.1 0-4.4-.2-6.5-.5-1.4 6.2 2.7 9.4 7.4 13.1zM112.8 107.4v.1l.1.8c.6 3.8 1.7 6.8 3.8 10.7a61.6 61.6 0 0 1 4.8 11c1.2 3 2.4 6.3 4 9.4l.8 1.6c1.1 2.4 2.5 5.2 4.6 6.6h.1l.2.2.2.2c1.5.8 3 .7 4.8-.2 2.3-1.1 2.3-1.7 2-4.3-.8-4.6-2.7-9-4.5-13.4a89.3 89.3 0 0 1-3.3-8.7c-1.8-5.6-4.5-10.9-7.2-16-1.6-2.9-3-5.6-4.3-8.4-1 .4-1.8 1-2.6 1.7-1.9 1.3-3.8 2.7-6.2 2.5a18 18 0 0 1 2.6 6.2zM49.4 215.2c4.1 4.5 9.8 7 15.2 9.5 6.5 3 13 6 17.3 12-.9-2-2-4.5-3.4-7-1.2-2.2-4.5-3.8-8.7-5.7A51.2 51.2 0 0 1 53.2 213a48.3 48.3 0 0 1-9-17.3c-1.6-4.6-3.1-9-5.5-11.5h.2l-.3-.3h-.1a57 57 0 0 1-2.7-1.7c1.3 2.7 2.5 6.6 3.8 11 2.4 7.8 5.1 16.8 9.8 22zM78 216.5v1l-.2.5v.4l3 5.1v-.1c0-.3 0-.6.2-.9v-.2l.2-1v-.1l.2-1.3v-.2l.2-1.4v-.1l.3-2.8v-.1-1.4-1c-.2-5-2-8.5-3.5-11.5-.6-1.2-1.2-2.3-1.6-3.4l-.5-1.4-.2-.5-.2-1-.1-.5-.2-.9v-.6l-.1-.8v-.7-.8-.7-.9a12.6 12.6 0 0 1 .2-1.7l.1-.7.1-.6-5.4 1.7-1.1.4V191.7l.2.4v.3l.2.4v.2l.3.7 2.6 5L74 201a29.7 29.7 0 0 1 3.5 8.6v.7l.2 1v.1l.2 1v1l.1.4v.6l.1.5v1.6z"/><path fill="none" d="M130.4 149l-.4.4c-.5.5-1 1-1.5 1.8-.7 1-1 2-1.2 3l-.3.8a9 9 0 0 1-3.1 4.7c3 .8 10.7-6.6 13-10.6.4-.8.5-1.3.4-1.4l-1 .5c-1 .5-1.9.8-2.8.8-.8 0-1.5-.3-2.3-.7l-.7.7h-.1zM121 138.4l-.3 1.5c-.2 1.2-.2 2.2-.1 3.3v1.3c.2 2.5 2.7 4.5 5 5 1.6.5 3 .3 4.2-.5l.3-.3.6-.7c-2.2-1.5-3.6-4.3-4.8-6.9l-.7-1.5c-1.6-3.1-2.9-6.4-4-9.5l-.5-1 .2.4c.5 1.6.6 3.3.5 5.1 0 1.3-.3 2.5-.5 3.8zM97 117.7c1.7-1.2 2-4.2 2-6.3l.1-.5.3-2.6.4-4.2c-3.8 1-8.7 0-10.5-1-1.4-.7-3-1.1-4.5-1.3 4.7 4.5 9.5 9.9 12.3 15.9zM68.2 216.8l-.9-.5a66.4 66.4 0 0 1-8.2-5.5 22 22 0 0 1-4.4-4.8c-.9-1.2-1.5-2.6-2-4l-1-1.9-.9-2c-1.8-3.7-4-8.3-6.5-11.2l-2.9-1.3c1.6 2.6 2.9 6 4.2 9.7 2 5.7 4.3 12.2 8.6 16.8 5 5.3 11.2 8.2 16.2 10.6 2.3 1 4.4 2 6 3l-3.3-5.6h.1a48.5 48.5 0 0 0-5-3.3zM26 174c.8.4 1.8 1.2 3 2.2 1.5 1.1 3.3 2.6 5.5 4l.2.2 4.2 2.6.1.1c1.4.4 14.7 2.5 18-4l.5.2A5 5 0 0 1 56 178a2.7 2.7 0 0 1-2.3-2.8c0-1.5 1.2-2.7 2.7-2.7 1.5 0 2.7 1.2 2.7 2.7 0 .8-.4 1.6-1 2 7.4 4.3 34.3-18 10.3-70.2l-3.1 1.8c15.7 62.6-25 71-29.7 57.6a2.7 2.7 0 0 1-1.2-2.4c0-1.5 1.2-2.7 2.7-2.7 1.4 0 2.6 1.2 2.6 2.7 0 1.3-.8 2.4-2 2.7 7 7.7 36.6 2.5 27.6-57.9l-.4.3c-.9.5-1.7 1-2.5 1.3 4.5 47.3-23.1 54-27.3 40.6a2.8 2.8 0 0 1-1.2-2.3v-.1c-4.2-.7-7.5.6-9.3 2.1-1 .8-1.5 1.6-1.5 2.3 1.2 3.4 1.5 6 1.3 7.9 3.3 5 3.6 8.3 3.2 10.2a5.4 5.4 0 0 1-1.6 3z"/><path fill="none" d="M74.6 103.8l1.7 1.3c4.9 2.2 10.4 10.4 14.4 21.6 1.4 4 2.5 8.2 3.3 12.3 10.7-14.2-.8-28-10.7-37.2-2.9 0-5.8.9-8.7 2z"/><path fill="none" d="M68.4 107c19 33.5 14 55.5 5.3 66l2 .5h1l1.7-.1c1.4-.3 2.5-.9 3.6-1.9 7.7-7.6 5.2-34.4.4-50.9-2.8-9.5-6.1-15.5-9-16.2l-5 2.5zM156 77l-1.8.4a57 57 0 0 0-10.2 2.9c17.5 2.9 30.6-1.5 35.3-12 3-6.6 1.6-14.2-3.2-18-5-4.1-12.2-3.2-20 2.4l2.2-.2c3 0 5.4 1 7 3a11 11 0 0 1 2 10.6 16.6 16.6 0 0 1-11.4 11z"/><path fill="none" d="M162.3 30.8l-1.4 4.1a51.4 51.4 0 0 1-2.8 7.2c-1.4 2.1-3 4.2-5 5.5-.5.3-4.6 2.8-6.8 2.8h-.2c-.1 1.9-1.7 4.6-7.6 7.7l-1 .5.3-1c.3-.9.1-1.6-.4-2a3.8 3.8 0 0 0-3.5-.9c-2.4.7-3.3 2.4-2.8 4.8 1.1 4.7 7.4 7.3 12.2 6.4-.3-3 .4-6.4 2.7-8.5 2-2 5-3.5 8-4.3 12.4-10 20-5.9 22.8-3.7 1.7 1.5 3 3.4 4 5.6 1.8-.4 3.5-.2 5 .7 1.6-10.2-2.3-16.2-6-19.4-6-5.4-14.4-6.5-17.5-5.5zM188 94.3c5.8-.8 9.4-4.2 9.5-9 0-1.9-1-5.2-2.9-6l-.9-.2c-1.2 0-2.6 1-3 2-.2.9-.2 1.8-.1 2.8 0 1.5.1 3-.9 4.5-1.1 1.6-5.1 2.7-6.5 3a22 22 0 0 1-11.3-1.7 26 26 0 0 0 5.8 3.1c4 1.4 7.4 1.9 10.3 1.5z"/><path fill="none" d="M152.6 46.7c1.8-1.1 3.4-3.2 4.7-5.2.5-.7 1.7-4.2 2.6-6.9l1.4-4-1.4-.2c-1.8-.4-3.8-.8-5.1-1.6-2-1.3-4.2-1.6-7-1.6-5.9-.1-10.9 3.6-14 6.8l-.8.7c-1.4 1.4-2.6 2.5-3.2 4.3-.7 1.7-.8 3.2-1 5v.6c3.2-1.1 6.8-1.2 10-.6 4 .8 6.8 2.8 7.3 5.3 1 .3 4-1 6.5-2.6zM194 21.4c2.6 2.7 4.5 7 4.6 13.3 0 1.7-.5 3.2-1.4 4.2-.7.7-1.6 1.1-2.5 1.1-.4 0-.8 0-1.2-.2-.1 3.5.8 6.6 2.4 7.5.8.5 1.6.4 2.6-.3 4.2-2.6 4.8-11 3-17.2-1.6-5-4.3-8-7.5-8.4zM195.3 267c-2 0-3.6 1.3-3.6 3 0 1.5 1.6 2.9 3.6 2.9s3.6-1.4 3.6-3-1.6-2.9-3.6-2.9z"/><path fill="none" d="M192.8 20.3c4.2-.2 7.7 3.2 9.5 9.2a24 24 0 0 1 .5 12.5c4.8-6.3 3.4-13.8.4-18.6-3.6-5.7-9.3-8.4-14.1-6.6l.3 1.7c1.2.4 2.4 1 3.4 1.8zM197.3 67.7c3-.3 5.5 1 7 4 2.8 5.3 2 14.7-1.4 20.4a23 23 0 0 0 7.2-16.8c.4-9.2-2.9-18.2-4.8-19.6a4.7 4.7 0 0 0-5.3-.5c-2.8 1.7-4 6.3-3.3 12.6h.6zM214.6 94.7c.5 3.6-1.4 6.3-5.2 7.4 1.5 4.1 3.8 6.2 6 5.7s4.1-3.3 3.7-7.1c-.6-6-2.7-12.6-6-14-1.2-.5-2.5-.3-4 .6 2.6 1 5 4.1 5.5 7.4z"/><path fill="none" d="M177 22.5a10.7 10.7 0 0 0-2.8 5.6 14 14 0 0 1 10.3-5.5c2 0 3.6.7 4.8 2 1.7 1.8 2.5 4.8 2.4 8.8 0 2.2.5 4 1.3 4.9.5.5 1 .7 1.7.7.6 0 1.3-.3 1.8-.8.8-.9 1.2-2 1.1-3.4-.1-11.8-6.6-16-12.1-16-3.3 0-6.4 1.4-8.6 3.7zM132.8 113.3v.4l-.5 3a21 21 0 0 0 7.8 9.1 83 83 0 0 1-.8-12.7c.1-11.9 2.7-21.5 6.6-25.2.4-.7.7-1.3 1.2-1.8-3.1-.1-6.2 0-8.9 1a65.3 65.3 0 0 0-6.7 17.6 16 16 0 0 1 1.3 8.6z"/><path fill="none" d="M147 144.5c3 4.8 7.7 9.7 15.2 9.2l-.7-.3c-10.6-5-16.6-32-17.4-48.7-.1-3.3-.2-9.6 1-14.2-6.7 9.9-7 39 2 54zM146.8 206.5c-.4.8-1 1.7-1.7 2.5.5 1.8 4 6.1 14 7.1 3.7.4 8-.3 12.7-1 7.2-1 14.6-2 19.8.5l-.6-.7c-7.1-5.4-13.3-4.8-21.8-4-7.4.9-15.7.8-22.2-4.8l-.2.4z"/><path fill="none" d="M147.5 205.2c6.2 5.5 14.4 5.5 21.6 4.8 7.4-.8 13.2-1.4 19.3 2-2-2.3-4.2-4.4-6.4-6.4-2.6-2.3-8-2-13.9-1.7-7.5.4-15.2.8-18.7-4.1-.4 1.7-1 3.5-2 5.4z"/><path fill="none" d="M158.4 184c-2.9-1.8-5.4-3.4-7.3-4.8l-.1 1.8c1.9 1.5 4.4 3.2 7.5 5.3 6.4 4.3 15.2 10.2 24.2 18.5v.1c3 2.8 6 6 9 9.3h.2v.1l3.1 3.9.2.1 2.5 3.4a106.6 106.6 0 0 0-39.3-37.7zM128 45l-.2-.1v-1c.2-1.8.4-3.4 1-5.2.8-2 2.1-3.4 3.5-4.7l.7-.7c3.1-3 7.9-6.7 13.5-7 1.4-1.1 2-2.6 2-4.2-.2-2.3-2-4.9-4.4-6.2-2.8-1.4-8.3-2-10.8.4 1.6.7 2.4 1.6 2.6 2.7.3 2.2-2.5 4.4-4.8 6.2l-2 1.7a24.5 24.5 0 0 0-6 14c-.2 2.5.2 4 .9 6.3 1.2-1 2.5-1.7 4-2.3z"/><path fill="none" d="M149.4 22c0 1.2-.1 2.8-1.4 4.2 2.3 0 4.8.2 7.3 1.7 1.2.7 3.1 1.1 4.8 1.5l1.9.4c2.3-.7 6.7-.4 11.1 1.3V31a12 12 0 0 1 3.1-9 12.6 12.6 0 0 1 12.2-3.7A17.2 17.2 0 0 0 180 5.7a17.1 17.1 0 0 0-14.7-.6c1.7 4.2 1.4 8-1 11.8-.6 1.1-5.4 6.8-7.9 6.9v-1c1.7 0 6.2-5 7.1-6.4 2.2-3.5 2.5-7 .8-11-.8-2-3-3.8-5.2-4.3-1.8-.4-4.3.3-5.5 2 .7.2 1.3.7 1.6 1.4.5.9.5 2 .1 2.9-.7 1.8-2.9 2.4-4.4 2.9l-1.5.3c-1.2.2-2.5.5-3.2 1.3-.5.7-1.2 3.2-.7 3.8 2.1 1.5 3.6 4 3.8 6.3zM130.7 87.1c2.2-1.8 4.4-3.7 7-5.1l4.2-2V80h.2a57 57 0 0 1 13.6-3.8c4.8-1.3 9.1-5.4 10.6-10.3a10 10 0 0 0-1.7-9.7 8 8 0 0 0-6.3-2.6c-4.6 0-9.3 2.4-11.7 4.7-2.9 2.6-2.8 7.5-1.8 10 .5 1.4 1.2 2.2 2 2.2.5 0 1-.3 1.6-1 2.6-3.1 5.7-4.2 7.7-4.2 1.6 0 2.8.6 3.2 1.7.3.8.3 2.4-2.4 4.7a27.4 27.4 0 0 1-10.2 4.4c-3.6 1-7.7 2.3-12 4.6a31.6 31.6 0 0 0-6.3 5c-3 2.9-5.8 5.5-9.4 6 .9.3 1.7.5 2.6.5 3.1 0 5.9-2.3 9.1-5z"/><path fill="none" d="M143.4 67c-5.2.9-12-2-13.2-7.3-.7-3 .5-5 3.4-6 1.5-.4 3.4 0 4.5 1 .5.6.8 1.3.8 2 4.3-2.4 6.5-4.9 6.2-7.1-.3-2-2.8-3.9-6.6-4.6-5.6-1.1-13.2.3-16.4 6a11.8 11.8 0 0 0 1 12.7c1.9 2.6 7.8 8.5 21.1 5.7l-.3-.8c-.3-.5-.4-1.1-.5-1.7zM130.5 120.5c.5-.3 1-1.2 1.3-2.8v-.3a34.4 34.4 0 0 0 .6-4.2c.4-3.5-.2-6.7-1.5-9l-.2-.2c-.8-1.3-2-2.3-3.2-3.4a31.9 31.9 0 0 1-2.8-2.7c-1-1.2-1.6-2-3.6-1.7-.6 0-1.3.3-1.9.6 1.3 2.8 2.8 5.6 4.3 8.5 2.6 4.8 5.2 9.8 7 15.2zM102.4 253.5c5 1.6 9.2.4 15.7-1.3 2.7-.8 5.8-1.6 9.4-2.4-2.8-.3-5.5-.4-8.2-.4a39 39 0 0 1-20.9-4.9 6.2 6.2 0 0 0-.6 5.1c.7 1.8 2.2 3.1 4.6 3.9z"/><path fill="none" d="M112 258.8l3.6-1.3c7-2.6 16.4-6 23.6-4.2-1.8-1.1-3.7-2-6-2.6l-2.7-.4c-4.9.9-8.8 2-12.2 2.8-4.3 1.2-7.7 2.1-11 2.1-1.8 0-3.4-.2-5.2-.8-3.4-1-4.7-3-5.2-4.4-.7-1.8-.4-4 .7-6l-1.6-1c-2.3 4.2-2.8 6.7 1.3 10.7 3.8 3.6 9.6 6.8 14.7 5z"/><path fill="none" d="M116 258.5l-3.7 1.3-1.1.2c2.8 5.7 10.8 2.8 18.5 0 5.2-2 10.2-3.8 13.7-3.1l-1.5-1.4c-7-4-18 0-26 3zM94.3 229.6h.1c.4-5.9-.6-10.5-2-14.4l-1.7-4.4c1.2 15.7 1.4 27-4.1 37.6l-.3.5c.2 1.3.3 2.6.3 4 5.2-9.4 7.3-16.9 7.8-23l-.1-.3z"/><path fill="none" d="M175.9 272.8c-3 1-6.3.6-9.7-1.3-6.1-3.3-10.5-8.8-14.8-14.2-4.8-6-9.4-11.6-15.5-13-4.4-.9-8.8-1.2-13-1.4-10.5-.6-20.4-1.2-27.6-11.7a47 47 0 0 1-1.8 8.4c9.1 8.2 16.9 8.5 25.9 8.8 4.4.1 9 .2 14 1.4a20 20 0 0 1 9 4.8 43 43 0 0 1 3.6 3.6l2 2.2c3.6 4.1 7.3 8.3 13.1 11.5 5.2 2.8 10.7 3.4 15 1.5 2.2-1 4.1-2.7 5.6-5a13.3 13.3 0 0 1-5.8 4.4z"/><path fill="none" d="M130 260.9c-4.6 1.7-9.3 3.4-13.1 3.4-3 0-5.4-1-6.8-4.1h-1c-2.5 0-4.9-.7-7-1.9 1.1 3.8 5.7 9.7 9 11.5 3.6 2 9.3-.7 12.4-2.5.9-.5 1.8-1 2.7-1.7 5.7-3.5 13.3-8.3 20-5.8l-.8-.9c-2.8-2.6-9-.4-15.4 2zM22 175.5c-1.4 0-2.8-.5-4-1.4-3.8 3.7-2.3 13.2-1 15.6l.5.9c1.3 2.2 2.6 4.8 6.4 6 1.4.5 6.6 0 7.8-1.6-3-8.6-6.1-17-8.8-19.6h-.8zM85.8 246h.2-.2zM86.6 222.8l.2-1 .1-1 .1-1 .1-.8v-1.1a14.6 14.6 0 0 0 0-1.9v-.8-1-.8l-.1-1v-.7l-.2-1-.1-.8a34.7 34.7 0 0 0-.3-1.7l-.2-1.1-.1-.6-.3-1.2-.1-.5-.3-1.4v-.3l-.5-1.7c-1-4.7-2.2-9.5-2.4-15v-1.2a26 26 0 0 0-5.5.7l-.1.7-.2 1a16.6 16.6 0 0 0-.2 1.5v1.5c-.1.3 0 .6 0 .8v2.1l.2.9.1.5.3 1v.3l.6 1.4 1.5 3.3a26.4 26.4 0 0 1 3.7 12.6v2.3l-.1.4v.5l-.1.4v.9l-.1.5-.1.4v.5l-.1.4v.5l-.1.4-.1.4v.4l-.1.4-.1.4v.4l-.2.3v.4l-.1.3v.3l-.1.2-.1.3-.1.2 2.8 6.1.3-.6.4-1 .4-1.2a35.2 35.2 0 0 0 .6-2.2l.3-1 .2-1 .2-1zM107.4 120c-2.3 3-2.2 7 .5 12.7 1.6 3.5 4.3 5.5 7.3 7.6 1.7 1.3 3.5 2.5 5 4.2v-1.3l.1-3.4.3-1.5c.2-1.3.4-2.5.4-3.7a14 14 0 0 0-.5-5l-.3-1.3-.3-1.5a16 16 0 0 0-.4-.8l-.3-.5v-.1c-.8-2-1.7-4.2-2.8-6.2-2.2-4-3.3-7-3.9-10.7l-.2 1.9c0 1.4-.1 3-1 4.4-.9 1.4-1.8 2.6-2.8 3.8l-1.1 1.4z"/><path fill="none" d="M84.7 252l.4-1.8c-2.2-8.8-12-13.5-21.5-18a55 55 0 0 1-17-10.8c-3.6-4-7.1-13.5-10.5-22.6-3.9-10.3-7.9-21-11.9-23.5 3.4 4.2 7.2 15.8 10.6 26 2.3 7 4.4 13.5 6 15.9 9 14.9 21 19.3 29.9 22.6 7.9 2.9 13.6 5 12.7 12.6l-.1.6c.2.2 1 .4 2.3.5 0-1-.1-1.8-.3-2.6l-.6 1.1zM208.3 102c-.6-1.2-3.5-.3-7 .7-3.9 1.2-8.8 2.7-14 2.7-7.6 0-15.8-3-22.8-14.1l.8-.5c11.6 18.2 26.6 13.7 35.7 11 3.9-1.2 6.8-2.1 8-.6 4.6-1.2 5-4.5 4.7-6.3-.5-3.5-3.5-6.7-6.1-6.8-1.6 2.5-3.8 5-6.8 6.7a18 18 0 0 1-12 5h-1.2a30 30 0 0 1-21-9.8l.6-.7c6.4 6.5 14 9.8 21.5 9.4 5.1-.2 9.6-2.2 12.2-5.5 4.1-5 5.4-15.6 2.6-21-1.4-2.6-3.4-3.8-6.1-3.5-2.1.3-3.4 1.6-4 2.7a9.2 9.2 0 0 0-1 7 4 4 0 0 1 1.3-.3c.5 0 1 0 1.3.3 2.5 1.1 3.6 5 3.5 6.9-.2 6.3-5.5 9.3-10.4 10l-2.2.1c-2.5 0-5.3-.5-8.5-1.6-1.5-.6-7.7-3.4-8-5.6V88c-2.7.4-5.6.4-8.7 0 8.6 27.3 20 35.5 28 35.5 4.3 0 7.6-2.4 8.9-5.3-1.2 0-2.3-.7-2.7-1.9-.5-1.4.2-3 1.6-3.5 1-.4 2.2 0 3 .8 3.9-2.3 7.8-2.2 10.2-1.3.8.3 1.4.7 1.9 1.1.1-1.5.3-3.3.7-5.3-1.6-1-3-3.1-4-6zM215.7 125c1.5 1 3.3 1 4.8-.2 4-2.7 4.5-12.5-.4-23.4 0 3.6-1.7 6.8-4.4 7.4l-1 .1a4 4 0 0 1-1.5-.3c-1.5 8.2-.6 14.3 2.5 16.4z"/><path fill="none" d="M223 123.5c-.5.9-1.1 1.6-2 2.2-1 .7-2 1-3.1 1-1 0-1.9-.2-2.7-.8-.5-.3-1.1-.9-1.7-1.8-1.2 5.2-.5 9 1.9 10.5 1.7 1.2 4.3.7 6.1-1 2-1.8 3.4-5.4 1.5-10zM185.2 76.5c3.8-6.3 4.6-14.4 1.7-18.4-1.4-2-3.4-2.6-5.9-2.2 1.3 4 1.1 8.6-.8 12.8-3.9 8.7-13.3 13.5-26.1 13.5-3.7 0-7.7-.4-11.9-1.2a39.3 39.3 0 0 0-11 7c-3 2.6-6.1 5.1-9.6 5.1-.9 0-1.7-.1-2.6-.5.6.5 1.3 1 2 1.1 4.1 1.1 9.7-2.4 11.2-4 6.6-6.7 17.7-4.6 25.9-3 11.8 2.3 21.7-1.4 27-10.2zM199 200.4V211c.2 1.8 0 3.3 0 4.8 0 1.9-.2 3.6 0 5.9l2.5 5.1v-.3a74.8 74.8 0 0 1-.5-12.8 63 63 0 0 0-.1-12c-.8-5.4-1.9-11-4.3-15-1.2-1.8-3.2-3.3-5.2-4.7l-1.6-1.1.9 1.3c3.7 5.7 7.6 11.6 8.2 18zM175.7 169.3c0 3.7 3.3 7.6 6.2 10.9 1 1.2 2 2.3 2.6 3.3 6 8.3 5 13 3.1 22.2v.2c1.6 1.8 3.2 3.7 4.7 5.8.7-2.3.6-5.7.5-8.8V200c-.1-4.8-.2-8-1.8-12.3-1-2.6-2.1-5-3.2-7.3-2-4-3.8-8-4.6-12.9a19 19 0 0 1-7.5 1.8z"/><path fill="none" d="M145.1 104.6c.8 17.2 7 43.3 16.8 47.9 1.3.6 2.6.7 3.9.6a27 27 0 0 0 2.7-.9l1.7-1.1c-11.7-7-23.3-26-16.3-64.2l-5.5-.7c-2.5 1.7-3.7 8.5-3.3 18.4zM178.3 258.6c-2 0-3.6-1.8-3.6-4 0-2 1.6-3.8 3.6-3.8s3.6 1.8 3.6 3.9v.2c1 1.2 6.7 1.5 11.6-1.6 3.5-2.1 8.4-7.6 3-19.5-2.4-5.5-9.3-7.1-17-7.3.8 1 1.4 2.2 1.7 3.7.6 3.4-.4 7.6-2.4 10.2l-.6.6-.2.2c-1.3 1.5-3 2.8-4.9 3.7-1.8 1-4.6 2.2-6.8 2.8a22.7 22.7 0 0 1-17.9-3.2c-2.9-1.9-7.7-5-13.8-6.6-3.4-1-8.2-1.5-12.8-2-6-.8-11.6-1.5-14-2.8-2.3-1.3-4.8-4-5.4-7.2-.3-2 .2-4.1 1.5-6-3.3-1-6.9-2.3-10.2-4 1.2 3.9 2.1 8.3 1.7 13.7 7 11 17 11.7 27.5 12.3 4.3.2 8.8.5 13.2 1.5 6.5 1.4 11.1 7.2 16 13.3a51.4 51.4 0 0 0 14.5 13.9c3.2 1.7 6.2 2.2 9 1.2 3.3-1.2 6.3-4.4 8.8-9.7a9 9 0 0 1-6.1-3.5z"/><path fill="none" d="M161.1 154.8c-2.8 0-5.3-.8-7.6-2.2l-1 10c2.5 1.6 8 3.7 14 4.7l1 .2c2.5.4 5 .6 7.3.5h1a16.4 16.4 0 0 0 8.2-2.6c3.4-2.5 4.3-6.8 2.5-12.8-3.1 2.3-9.2 2.3-15.4-1a10.5 10.5 0 0 1-5.4 2.5c-1.6.4-3.1.7-4.6.7zM83.7 232.3a109.4 109.4 0 0 0-7-13.5h.1c-4-6.6-8.7-13.3-13.3-19.8-2.1-2.9-4.2-5.7-6.1-8.6-1 0-1.8-.2-2.6-.3 6.3 9 13.4 19.5 19.3 29.3h.2a5.4 5.4 0 0 1 .2.4 196.9 196.9 0 0 1 5.1 9v.1l.1.1c4 7.5 6 13 6.3 17 .5-4-.2-8.5-2.2-13.7zM52.7 43.9A4.6 4.6 0 0 0 56 47c5.4-1.5 11 .3 15 2.1l.8.4c1.8.8 3.5 1.6 4.8 3.3 1.2 1.4 1.9 3 2.6 4.5l.5 1h-.2c1.5 0 3 .4 4.5.9-.1-2.4-.2-4-1.2-6.2a23.9 23.9 0 0 0-10.3-11.2l-2.3-1c-2.8-.9-6.2-2-6.6-4.3-.1-1 .4-2.1 1.6-3.3-3.1-1.4-8.1 1-10.3 3.3-1.8 2-2.7 5-2 7.3zM89.8 102.2c2 1 8.3 2.4 11.8 0 1.3-.9 2-2.2 2.4-3.8l-.3.3c-2 2.6-4.1 3.5-6.4 3.5-2.3 0-4.7-1-7.4-2a35 35 0 0 0-12.4-2.9c-8.7 5.1-16.9 7.7-24 7.7a21 21 0 0 1-15.8-6.4A17.8 17.8 0 0 1 32.8 87c-2.5.4-4.1 1.7-4.8 4-1.4 4.8 1.9 12.2 7.5 16.8 8 6.4 18.4 6.6 28.9.4 7.2-4.2 17-10 25.4-5.9zM13.8 76.7c-2 0-3.6-1.5-4.4-3.8-2.1-6.6-1.4-11.2 0-14.2C6.6 60.2 5 64 5.2 69c.2 6.5 3.4 14.2 8.3 15.3 1 .3 2 0 2.5-.6 1.2-1.4 1.1-4.6-.1-8-.6.6-1.3.9-2.1.9z"/><path fill="none" d="M20.6 52.6c-3.7 0-7.2 1.8-9.3 4.8-1.8 2.6-3.5 7.4-1 15.1.7 2.2 2.3 3.1 3.5 3.1.7 0 1.4-.3 1.8-1 .4-.6 1-2.2-.1-5.3-1.6-4.4-1.6-7.8 0-10.1 1.3-2 3.8-3.2 7-3.2 3 0 5.8 1 7.8 2.3-2-3.5-5.5-5.7-9.7-5.7zM32.8 85.9c.1-2.4.8-4.6 2-6.6 1.8-3 7.7-9.4 22.7-4.3 3.2-.2 6.6.4 8.9 1.4 2.9 1.2 4.6 4.2 5.3 7 4.8-.7 9.9-5.3 9.4-10.1-.3-2.5-1.7-3.7-4.1-3.6-1.3 0-2.6 1-3.1 2-.3.6-.3 1.3.2 2l.6 1-1-.2c-6.6-1-9-3-9.7-4.8-.6.3-1.5.4-2.4.4-2.2 0-4.7-.5-5-.6-2.4-.5-4.6-2-6.6-3.5a50 50 0 0 1-4.9-5.8 88.7 88.7 0 0 0-2.7-3.4c-3.2.1-10.8 4-14.8 11.1-2.4 4.3-4.2 11.3.7 20.3 1-1.3 2.6-2 4.5-2.3z"/><path fill="none" d="M10.2 57.3l.3-.5c.7-1 1.5-1.7 2.3-2.4l-.2-1.7c-5 0-9.6 4.4-11.1 11-1.3 5.5-.3 13 6.3 17.4a24 24 0 0 1-3.6-12c-.2-6.2 2-10.6 6-11.8zM100.4 108.4l-.3 2.6v.5c-.2 2.3-.5 5.7-2.6 7 .7 1.7 1.2 3.4 1.5 5.2l2 .9c1.7.6 3.6 1.4 4.6 2.7-.5-3 0-5.6 1.5-7.6l1-1.3.5-.5c-2.3-1.2-4-2.5-5.5-5a17.9 17.9 0 0 1-2.4-7.6l-.3 3zM66 77.3c-3.4-1.5-9-2-13.1-.2a7.8 7.8 0 0 0-4.5 4.3 10 10 0 0 0 1.5 9.8A15.3 15.3 0 0 0 65 97c2.1-.3 5.3-.8 9.5-.8h3l.1.1a35.7 35.7 0 0 1 12.8 3c4.3 1.7 7.8 3 11 .4-3.3.8-6.3-.7-9.4-2.4-2.3-1.2-4.7-2.4-7.4-2.9-4.8-.7-9-.4-12.8-.2-4.3.2-7.9.4-11-.8-3-1-3.7-2.4-3.8-3.3-.1-1 .4-1.8 1.3-2.4 2-1.3 5.8-1.6 9.8.8.6.4 1.4.7 2 .3.8-.5 1.1-1.8 1-3.5-.2-3-1.9-6.7-5-8z"/><path fill="none" d="M69.4 62.1c-3.3 2-5.1 4.5-4.7 6.6.4 2.2 3.3 3.8 8.1 4.7-.2-.8-.1-1.5.2-2.2a4.8 4.8 0 0 1 4-2.5c2.9-.2 4.8 1.5 5 4.5.6 5.4-5 10.4-10.1 11.3v2.7c13.5-2 17.2-9.5 18.1-12.7 1.4-4.6.1-9.4-3.1-12.2-5-4.4-12.5-3.2-17.5-.2z"/><path fill="none" d="M69 61.3c2.6-1.7 6-2.8 9.5-2.9l-.3-.6c-.7-1.6-1.3-3-2.4-4.3a11 11 0 0 0-4.4-3c-.3 0-.7-.2-1-.4-4-1.9-10-3.7-15.4-1.7-2.7 1-4.6 2-6.2 4-1 1.1-2.7 2.2-4.2 3.2l-1.3.7 2.6 3.3 4.6 5.6c2 1.5 4 2.9 6.2 3.3 2.5.5 6.1.9 7 .3-.4-2.5 1.6-5.4 5.2-7.5zM52.5 76.2c.9-.4 1.8-.7 2.8-.8-9.2-2.7-16.3-1.1-19.7 4.4-3.3 5.3-2 13 2.8 18.1 7.8 8.4 21.7 8 37.2-.7a55 55 0 0 0-12.3 1c-5.3.6-11-2-14.2-6.4a11 11 0 0 1-1.6-10.7 9 9 0 0 1 5-5zM32.3 60.8c3.6-3.1 7.7-5 10.1-5l1.6-1.1c1.5-1 3.2-2 4.1-3 1.8-2.2 4.1-3.3 6.4-4.1a5.4 5.4 0 0 1-2.7-3.4c-.6-2.3 0-5.1 1.5-7.3.3-.8-1.2-2.9-1.9-3.4-.9-.5-2.2-.3-3.4 0l-1.5.1c-1.6 0-3.8.2-5.1-1.3-.7-.7-1-1.7-.9-2.7.2-.8.5-1.4 1-2-1.6-1-4.2-.9-5.8.1a8 8 0 0 0-3.5 5.9c-.2 4.2 1.1 7.4 4.3 10 1.3 1.1 7.2 4.2 8.8 3.6l.3 1-.8.1c-2.7 0-8-3.2-8.9-3.9-3.4-2.7-5-6.3-4.7-10.8A17.2 17.2 0 0 0 17.6 39a17.5 17.5 0 0 0-3.9 14.6c2-1.3 4.4-2 7-2 5.5 0 10 3.4 11.5 8.8l.1.3zM18.2 173a6.2 6.2 0 0 0 5.5 1.2h.1c.4-.2.8-.3 1-.6 1-.6 1.6-1.6 1.9-2.8.3-1.6 0-4.4-2.5-8.6-.3 1-.7 1.8-1 2.3a5 5 0 0 1-4.1 2 6 6 0 0 1-4-1.6c-.3 4.7 1.7 7.1 3 8.2zM17 147.5c2.4-.3 3.8-3 4-7.4h-.7c-3.6 0-6-1.9-6.7-5.2-.6-3.3.7-7 2.8-8.9-1.6-.3-3 0-4 .8-2.6 2.5-2.4 9.4-1.1 15.2.9 3.8 3.6 5.8 5.7 5.5z"/><path fill="none" d="M14.6 134.7c.3 1.8 1.6 4.8 6.5 4.4.6-1.8 3.6-2 7.7-2.2 9.4-.5 25-1.3 30-22.5l1 .2c-5.1 22-21.3 22.8-31 23.3-3.7.2-6.6.3-6.9 1.7 0 3.2-.6 5.6-1.8 7.1a45 45 0 0 1 2.4 4.8c.3-.6.8-1.1 1.4-1.7 2-1.6 5.7-3 10.2-2.3.4-1 1.3-1.7 2.4-1.7 1.5 0 2.7 1.2 2.7 2.8 0 1.2-.8 2.3-2 2.6 6.2 6.8 26.3 3.1 25.1-40.9a32 32 0 0 1-8.2 2.9v.2c.5 2.1-4.4 7-5.7 8a23.3 23.3 0 0 1-9.6 5 16 16 0 0 1-3.3.3c-4.7 0-8.2-2.2-9.7-6.2-.7-1.7-.9-5.8 1-7.7.6-.6 1.5-1 2.5-1a9 9 0 0 0-3.1-6.1c-1-.8-2.6-1.7-4.7-1.2-2.6.6-4.2 2.4-4.6 5.3-1 6.1 3.7 15.7 9.2 19 3.5 2.2 8.4 2.6 13.3 1 7.2-2.1 13.3-7.9 17.2-16.1l.9.4a30.2 30.2 0 0 1-17.9 16.7c-2 .7-4 1-6 1-2.5 0-4.9-.6-6.9-1.5-3.5-.7-6.3-2.2-8.6-4.1-2.5 1-4.2 5-3.5 8.5zM17.7 165.3c1.9.5 3.6 0 4.7-1.4 2.2-3 1-9.2-3-16.4a4.1 4.1 0 0 1-2.8 1c-2.5 0-5-2.2-6-5.5-1.1 12 2.6 21 7.1 22.3z"/><path fill="none" d="M27.5 113.5c-1.4 1.5-1.4 5-.8 6.7 1.9 4.8 6.3 5.5 8.8 5.5 1 0 2 0 3.1-.3 2.9-.6 6-2.2 9.2-4.9 1.3-1 3.3-3.1 4.5-4.9-2.9 2.7-7 5-10 5.4-1 .2-2.2.3-3.2.3-2 0-3.3-.3-4-.9-1.4-1-1.9-2.5-2.3-4-.3-.9-.5-1.7-1-2.5-.5-.6-1.5-1-2.5-1-.7 0-1.4.2-1.8.6zM23.9 128.4c-5-4.2-8.9-12.8-8-18.7.5-3.3 2.4-5.4 5.4-6.2h.6c-1.4-6.4-4-10.3-7.2-10.9-1.9-.4-3.8.5-4.9 2.2-1.3 2-1.5 11.7 1.9 20.2 1.9 5 5.5 11 12.2 13.4z"/><path d="M143 163.7h-.5c-1.5-.1-2.2-.5-3.5-1.2-3.8-2-5.7.6-7.6 3.3a18 18 0 0 1-2.1 2.6c-1 1-3 1.6-5.6 2-.9.2-1.7 0-2.6 0-1.2-.2-2.6-.3-4 .5-1 .6-2 1.6-2.8 2.5l-1.8 1.7-.9.8a56 56 0 0 1-4 3c-1.2 1-2.4 1.6-3.7 2.3l-1.4.8c-2.2 1.3-2.4 3.4-2.4 5.3-1.8.4-3 1.2-4.5 2.1l-.8.5.2.3.8-.5c1.4-.8 2.6-1.6 4.3-2h.4c1-.3 2.2-.3 3.4-.3l2.8-.1 1-.2 2.3-.2c.4 0 1 0 1.4.2l1.6.2c.6 0 1.2-.3 1.8-.5l1.4-.4c1.2-.2 2.3-.4 3.5-.8l1.7-.6c1.2-.4 2.5-.9 3.8-1.1h1.7l1.2.1h.3l.6 1.1c.6 1.1 1.3 2.3.8 3.4h-.2c-.6.3-1 .8-1.4 1.4l-.6.6c-2.6 2.7-7 4.1-11.3 3.7h-.5c-1.8-.3-3.6-.4-4.9-1.8a91.3 91.3 0 0 1-4.3-4.9l-.3.3c1 1.3 2.7 3.3 4.3 5 1.5 1.4 3.4 1.6 5.2 1.7h.5l1.5.2c3.8 0 7.7-1.5 10-3.9l.7-.7c.4-.5.8-1 1.3-1.2h1.7l1.7-.1c1.4-.4 2.7-1.4 4-2.4l1.2-.9c3-2.1 3.8-4.9 4-8 .3 1.2.5 3 .5 4.1.1 2-.7 3.3-1.6 4.5a28 28 0 0 1-9.3 7.9l-2.8 1a12 12 0 0 0-4.6 2c-1.2 1-2.4 1.7-3.9 2-4.5 1.1-8.5-.8-12.2-2.9a21.4 21.4 0 0 1-8-8.3l-.3.2c1.2 3 5.3 7 8 8.5 3.1 1.7 6.4 3.3 10 3.3l2.6-.3c1.5-.4 2.8-1.3 4-2l1.3-1c1-.5 2.1-.8 3.2-1.1l2.9-1c4-2.3 7.2-5 9.4-8a7.2 7.2 0 0 0 1.7-4.8c0-.4-.2-3.8-1-5v-2.2-1.5c0-1.3 0-2.5-.2-3.7 2-1.2 4-3 4.2-5.2l.3-.3-.4-.2c-.1.5-2.2.3-3.1.2zm-35.4 23l-1 .2H104c-1.2 0-2.4.1-3.4.3 0-1.8.2-3.7 2.2-4.8l1.4-.8 3.8-2.3 4-3.1.8-.7 1.9-1.8c.9-1 1.7-1.8 2.8-2.5 1.2-.7 2.4-.6 3.7-.4.8 0 1.7.2 2.6 0 1.7-.2 3-.6 4.1-1 .6 2 1.6 6.7.1 10.1-.7.5-1.5.8-2.2 1.1-2.1.8-3.6.7-5.6.5-2-1.6-3.4-3.1-4.2-4.6l-.3.2c.7 1.4 2 2.9 3.9 4.3h-.2c-3.9-.4-8 1.6-10.8 5.1l-.9.2zm20.5-3.1h-1.2c-.6-.1-1.1-.2-1.7-.1-1.4.2-2.7.7-4 1.1-.5.2-1 .5-1.7.6a22 22 0 0 1-3.4.8l-1.5.5-1.6.4-1.5-.2-1.5-.3-1 .1c2.7-3.3 6.6-5 10.3-4.7h.2a12.6 12.6 0 0 0 8.7-1.6 21 21 0 0 0 5.3-4.3 32.2 32.2 0 0 0 2.3-2.8c.2 3.4-1.6 6.7-5.2 9.3l-.3.2c-.7.5-1.4 1-2.2 1zm10 1.6l-1.1.9c-1.3 1-2.6 2-4 2.3h-2.8c.4-1.2-.2-2.4-.8-3.5l-.6-1c.7-.2 1.2-.6 1.7-1l.3-.2c3.8-2.7 5.7-6.3 5.3-10 .7-.5 1.5-1 2.3-1.3l1.1-.6 2.3-1.3.2 3.4v1.5c0 4.3 0 8-3.8 10.8zm3.8-16.3h-.2v.1a32.2 32.2 0 0 1-3.4 2c-1 .4-1.7.9-2.4 1.4h-.2v.2a7.4 7.4 0 0 0-1.2 1.4c.4-1.9.5-4.5.5-5.2h-.4c0 1.2-.2 4.6-.8 6a20.8 20.8 0 0 1-5.3 4.8c1.3-3.5.3-8-.3-10 .5-.3 1-.6 1.3-1 .8-.7 1.5-1.6 2.2-2.6 1.9-2.6 3.7-5 7-3.2h.1c1.3.8 2 1.2 3.6 1.3h.7c1 .1 2.1.2 2.8 0-.3 2-2.2 3.6-4 4.8zM118.4 153.7l1.1.4c1 .5 2 .8 2.4.2l-.8-.6h.1l-1.3-.5c-.5-.3-1-.5-1.4-.5-.9-.1-2.2 0-3.2.3-1.9.7-3 2-4.3 3.4l-.3.2.7.7.3-.3c1.2-1.3 2.3-2.5 4-3 .8-.3 2-.4 2.7-.3zM195.3 266c-2.6 0-4.6 1.8-4.6 4 0 2.1 2 3.9 4.6 3.9 2.6 0 4.6-1.8 4.6-4 0-2.1-2-3.9-4.6-3.9zm0 6.9c-2 0-3.6-1.4-3.6-3s1.6-2.9 3.6-2.9 3.6 1.3 3.6 3c0 1.5-1.6 2.9-3.6 2.9zM96.3 54c4 0 7.2-2.4 7.2-5.4 0-3-3.2-5.4-7.2-5.4s-7.1 2.5-7.1 5.4c0 3 3.2 5.5 7.1 5.5z"/><path d="M223.6 122.3c2.2-5.3.9-14.8-3.8-23.8-.8-5.3-2.8-11.2-6.3-12.7-1.6-.7-3.3-.4-5.2.9 2-3.8 2.6-7.9 2.7-11.3.5-9.4-2.7-18.8-5.1-20.6a5.7 5.7 0 0 0-6.4-.5c-2 1.1-4.9 4.4-3.8 13.8a6.7 6.7 0 0 0-3.2 2.8 10 10 0 0 0-1 7.9 4 4 0 0 0-1.7 2c-.3 1-.2 2-.2 3.1 0 1.4.1 2.7-.7 3.9-.8 1.2-4 2.2-6 2.6l-2.1.2a22 22 0 0 1-10.4-2.8A23 23 0 0 0 186 77c4.1-6.7 4.8-15 1.7-19.5a7 7 0 0 0-1-1.2c2-10.9-2.3-17.3-6.2-20.8-1.9-1.7-4-3-6.3-4V31c.2-3 5.6-7.3 10.3-7.3 1.7 0 3 .6 4 1.7 1.6 1.6 2.4 4.3 2.3 8-.1 3.3.8 4.9 1.5 5.7l.2.1c-.2 4.3 1 8 2.9 9 .4.3.9.5 1.5.5s1.3-.2 2.1-.7a7.9 7.9 0 0 0 2.8-3.2c7.2-7.2 5.7-16.2 2.2-21.9-3.8-6-10-8.8-15.2-7a17.5 17.5 0 0 0-8.3-11 18 18 0 0 0-15.6-.6 8.9 8.9 0 0 0-5.4-4c-2.4-.6-5.7.4-7 2.9l-.3.6.7.1c.7.1 1.2.6 1.5 1.1.4.7.4 1.4.1 2-.6 1.4-2.4 2-3.9 2.4-.3.2-.8.3-1.3.3-1.3.3-2.9.6-3.7 1.7-.4.5-1.2 2.3-1.2 3.7-3.3-1.7-9.8-2.2-12.3 1.2l-.5.5.7.3c1.6.6 2.5 1.3 2.6 2.1.2 1.6-2.4 3.8-4.4 5.3l-2 1.8c-3.4 3.4-5.8 9-6.4 14.6-.3 2.9.3 4.6 1.1 7.2-.7.7-1.4 1.6-2 2.6a12.9 12.9 0 0 0 1 13.6c1.7 2.4 6.2 7 15.4 7 2.1 0 4.5-.3 7.2-.9.6.7 1.3 1.1 2 1.1.8 0 1.6-.4 2.3-1.4 2.4-2.8 5.2-3.8 7-3.8 1.2 0 2 .4 2.3 1 .3.9-.5 2.2-2.1 3.6-2.5 2-5.9 3-9.8 4.2-3.7 1.1-7.9 2.4-12.2 4.7a33.6 33.6 0 0 0-6.6 5.2c-3.2 3.1-6.3 6-10.3 5.7-.4-.7-.7-1.5-1-2.5l-1 .3.8 2.1.5 1a6.6 6.6 0 0 0 6 3.4c4.2 0 8.8-3 10.2-4.5 1.2-1.1 2.5-2 4-2.7-2.4 4.4-5 10-6 15.8a20 20 0 0 0-3.1-3.2l-1.8-1.6-1-1c-1-1.3-1.7-2.3-4-2-1.8.4-3.4 1.5-5 2.6-1.8 1.4-3.6 2.7-6 2.5v.3c-.9-1.2-2-2.3-3.1-3l-.2.3c3 1.8 5 5.8 5.6 9.1l-.3 2.9c-.1 1.4-.2 2.8-1 4.2l-2.2 3c-2.2-1.2-4-2.4-5.4-4.9a18 18 0 0 1-2.4-9l1.2-.7c2.2-1.5 3.2-4.1 3-7.7.3-2.5-.2-5.7-.6-8.4l-.4-3.4h-1l.4 3.6c.6 4 1.5 10-1 11.1-3.6 1.7-6.7.1-10.3-1.8a24.8 24.8 0 0 0-7.7-3c-4.9-.7-9.2-.4-13-.2-4.1.2-7.6.4-10.6-.7-2-.7-3-1.6-3.1-2.5-.1-.7.5-1.2.8-1.5 1.8-1.1 5.3-1.2 8.8.9 1.5.9 2.5.6 3 .2.6-.3 1-.8 1.2-1.4 14.4-2 18.2-10 19.2-13.4 1.5-5 .2-10.2-3.3-13.3-.9-.7-1.8-1.3-2.8-1.8 0-2.7 0-4.5-1.2-7a25 25 0 0 0-10.7-11.8l-2.5-1c-2.4-.7-5.6-1.8-5.9-3.4-.1-.8.5-1.8 1.8-3l.5-.4-.5-.4c-3.6-2.2-9.5.3-12.1 3.1a7.6 7.6 0 0 0-2.3-3.1c-1.1-.8-2.7-.5-4-.3l-1.5.2c-1.5 0-3.3.2-4.3-1-.5-.5-.7-1.2-.6-1.9.1-.6.5-1.2 1.1-1.6l.6-.3-.5-.5c-2-1.9-5.4-1.7-7.5-.4a9.1 9.1 0 0 0-3.8 5.7c-5.7-.3-11 1.9-14.6 5.8a17.9 17.9 0 0 0-4.2 13.2C7 51.6 2.2 56.4.6 63.4-1 70 .4 79 9.5 83.3a7.6 7.6 0 0 0 4.8 2.2 3 3 0 0 0 2.4-1c1.5-1.8 1.4-5.7-.2-9.6.7-1.4.7-3.5-.2-6-1.5-4-1.5-7.1-.1-9.2 1.6-2.3 4.6-2.7 6.2-2.7 3.9 0 7.9 1.8 8.8 3.9l.2.6a24.3 24.3 0 0 0-4.8 6c-2.5 4.5-4.4 12 1 21.6l-.6 1.5c-1.6 5.3 1.8 13 7.8 17.9a22.3 22.3 0 0 0 18.2 4.8c-2.5 3.1-7.5 6.2-11 6.7-.9.2-2 .3-3 .3-1.7 0-2.9-.3-3.5-.7-1-.8-1.5-2-1.8-3.4-.3-1-.6-2-1.3-2.9a3.9 3.9 0 0 0-2.2-1.3 10 10 0 0 0-3.5-7.1 6.5 6.5 0 0 0-4-1.5C21 94 17 92 15 91.6c-2.3-.4-4.6.6-5.9 2.7-1.7 2.4-1.7 12.4 1.8 21.1 1.2 3.2 3.2 6.8 6.2 9.7-2.2-.5-4-.2-5.2 1-2.8 2.6-2.8 8.8-1.9 14.1-1.5 10 .3 19.5 4.2 23.8-.4 4 .7 7.4 3 9.5-4 4.2-2.4 14-.9 16.7l.5.9c1.2 2.2 2.7 5 7 6.5l1.8.2c2.1 0 5-.5 6.5-1.8l1.9 5.7a108 108 0 0 0 6 16c9.2 15.2 21.5 19.7 30.4 23 7.8 2.9 12.9 4.8 12.1 11.6l-.1.6a4 4 0 0 1-1.8 2.1 5 5 0 0 1-2.5.8c-.6 0-1.6-.2-2.1-1a1 1 0 0 1-.2-.4l.1-.9a3 3 0 0 0-3-3 3 3 0 0 0-3 3 3 3 0 0 0 3 3.1v.1c.6 2 3.5 3.6 6.5 3.6a7 7 0 0 0 6.3-3.4l1-1.8.4-.8c2.9-5.1 4.8-9.6 6.1-13.7l2.2 1.7c-2.8 5-3 7.8 1.3 12.1 1.3 1.2 2.7 2.3 4.3 3.3.7 4.2 6.2 11.1 9.7 13a7 7 0 0 0 3.5.8c3.5 0 7.5-2 9.9-3.4l2.7-1.6c6.1-3.9 14.5-9 21.2-4.7 3.3 3.8 7.1 8 12.7 11 3.4 1.8 6.8 2.7 10 2.7 2 0 4-.4 5.8-1.2 4.4-2 7.5-6.1 9-12.1a14 14 0 0 0 7.5-2.5c10.5-6.7 13.8-19.2 10.2-26.3 0-2-.3-4.4-.6-6.9-.4-3.7-.8-7.5-.7-10.6l.2-2a63 63 0 0 0-.2-12.3 41 41 0 0 0-4.4-15.3c-1.3-2-3.4-3.6-5.5-5-1.7-1.3-3.3-2.4-4.4-3.8a35.7 35.7 0 0 1-3.3-10.5l.5-.3c4.2-3 5.2-8.1 3-15.2a5 5 0 0 0 .8-1.8c1.2-.6 1.7-2 1.3-3.4-.5-1.4-2-2.2-3.4-1.7a2.8 2.8 0 0 0-.2 5.2c-5.6 6.5-38.1-5.5-32.3-62.9l3.5.7c5.4 64.3 46.4 58.4 46.6 44.2.5-.7.7-1.7.4-2.6-.5-1.5-2-2.2-3.4-1.7-1.4.5-2.1 2-1.7 3.5.5 1.2 1.6 2 2.8 1.8-1.3 3.2-5.5 5.9-10.8 5.9-10.8 0-26.5-11-33.9-51.1h.5l2.8.5c11 46.1 39.2 43 38.8 29 .6-.7.7-1.7.4-2.6 3.7-2.1 7.3-2 9.5-1.2 1 .4 1.9 1 2.1 1.6a18 18 0 0 0 1.3 7.9c-2.3 8.8.7 11.8 2 12.7a5 5 0 0 0 2.8.8c1.6 0 3.2-.7 4.6-2 2.3-2.1 4-6.4 1.4-12zM213 86.7c3.3 1.4 5.4 8 6 14 .4 3.8-1.5 6.6-3.6 7.1-2.4.5-4.6-1.6-6.1-5.7 3.7-1 5.7-3.8 5.2-7.4-.4-3.3-2.9-6.4-5.5-7.4 1.5-.9 2.8-1.1 4-.6zM200 55.2c1.6-1 3.7-.8 5.3.5 2 1.4 5.2 10.4 4.8 19.6a23 23 0 0 1-7.2 16.8c3.4-5.7 4.2-15.1 1.4-20.4-1.5-3-4-4.3-7-4l-.6.1c-.7-6.3.5-11 3.3-12.6zm-16.8 36.2c1.4-.3 5.4-1.4 6.5-3 1-1.5 1-3 .9-4.5 0-1-.1-2 .2-2.8.3-1 1.7-2 3-2 .3 0 .5 0 .8.2 1.9.8 3 4.1 3 6-.2 4.8-3.8 8.2-9.6 9-3 .4-6.3-.1-10.3-1.5a26 26 0 0 1-5.8-3.1c3.5 1.5 8.2 2.2 11.3 1.7zm-3.3-55.1c3.6 3.2 7.5 9.2 5.8 19.4-1.4-.9-3-1.1-5-.7-.8-2.2-2.2-4.1-4-5.6-2.6-2.2-10.3-6.2-22.8 3.7-2.9.8-5.8 2.4-8 4.3-2.2 2-3 5.5-2.6 8.5-4.8 1-11-1.7-12.2-6.4-.5-2.4.4-4 2.8-4.8 1.2-.3 2.7 0 3.5.8.5.5.7 1.2.4 2l-.3 1.1 1-.5c5.9-3 7.5-5.8 7.6-7.8h.2c2.2 0 6.3-2.4 6.8-2.7 2-1.3 3.6-3.4 5-5.5.6-.8 1.5-3.5 2.8-7.2l1.4-4.1c3-1 11.5 0 17.6 5.5zm-14.6 19.1a9 9 0 0 0-7-2.9c-.7 0-1.4 0-2.2.2 7.8-5.6 15-6.5 20-2.5 4.8 4 6.2 11.5 3.2 18-4.7 10.6-17.8 15-35.3 12a57 57 0 0 1 10.2-2.8l1.7-.3c5.2-1.4 9.8-5.8 11.3-11a11 11 0 0 0-1.9-10.7zm-19.2-6c-.5-2.6-3.3-4.6-7.4-5.4-3-.6-6.7-.5-10 .6l.1-.7c.2-1.7.3-3.2 1-4.9.6-1.8 1.8-3 3.2-4.3l.7-.7c3.2-3.2 8.2-7 14-6.8 2.9 0 5 .3 7 1.6 1.4.8 3.4 1.2 5.2 1.6.5 0 1 .2 1.4.3l-1.4 4c-1 2.6-2 6-2.6 6.8-1.3 2-2.9 4-4.7 5.2-2.4 1.5-5.6 2.9-6.5 2.6zm52.4-2.4c-1 .7-1.8.8-2.6.3-1.6-1-2.5-4-2.4-7.5l1.2.2c.9 0 1.8-.4 2.5-1.1 1-1 1.5-2.5 1.4-4.2 0-6.4-2-10.6-4.6-13.3 3.2.4 6 3.5 7.4 8.4 2 6.2 1.3 14.6-2.9 17.2zm4.7-23.6c3 4.8 4.4 12.3-.4 18.6 1-3.8.8-8.5-.5-12.5-1.8-6-5.3-9.4-9.5-9.2a12 12 0 0 0-3.4-1.8c0-.6-.2-1.2-.3-1.7 4.8-1.8 10.5.9 14 6.6zm-5.6 11.4c0 1.4-.3 2.5-1.1 3.4-.5.5-1.2.8-1.8.8-.6 0-1.2-.2-1.7-.7-.8-1-1.3-2.7-1.3-4.9.1-4-.7-7-2.4-8.8a6.5 6.5 0 0 0-4.8-2 14 14 0 0 0-10.3 5.5c.4-2.1 1.3-4 2.8-5.6 2.1-2.3 5.2-3.7 8.5-3.7 5.5 0 12 4.2 12.1 16zm-51.3-22.9c.7-.8 2-1 3.2-1.3l1.5-.3c1.5-.5 3.7-1.1 4.4-3 .4-.9.4-2 0-2.8-.4-.7-1-1.2-1.7-1.5a5.7 5.7 0 0 1 5.5-1.9c2.2.5 4.4 2.3 5.2 4.3 1.7 4 1.4 7.4-.8 11-.9 1.4-5.4 6.3-7 6.4v1c2.4-.1 7.2-5.8 7.8-6.9 2.4-3.8 2.7-7.6 1-11.8a17 17 0 0 1 14.7.6c3 1.7 6.9 5.2 8.3 12.5a12.6 12.6 0 0 0-12.1 3.7 12 12 0 0 0-3.2 9v.2c-4.4-1.7-8.8-2-11.1-1.3l-2-.4c-1.6-.4-3.5-.8-4.7-1.5a14 14 0 0 0-7.3-1.7c1.3-1.4 1.5-3 1.4-4.2a9.1 9.1 0 0 0-3.8-6.3c-.5-.6.2-3.1.7-3.8zm-23.2 29c.5-5.3 2.9-10.7 6-14l2-1.7c2.3-1.8 5.1-4 4.8-6.2-.2-1.1-1-2-2.6-2.7 2.5-2.4 8-1.8 10.8-.4a8.2 8.2 0 0 1 4.3 6.2c.1 1.6-.5 3-2 4.1-5.5.4-10.3 4-13.4 7l-.7.8c-1.4 1.3-2.7 2.6-3.5 4.7-.6 1.8-.8 3.4-1 5.1v1l.1.1c-1.4.6-2.7 1.3-3.9 2.3-.7-2.2-1.1-3.8-1-6.2zm0 22.8a11.8 11.8 0 0 1-1-12.6c3.2-5.8 10.8-7.2 16.4-6.1 3.8.7 6.3 2.5 6.6 4.6.3 2.2-1.9 4.7-6.2 7.2a3 3 0 0 0-.8-2c-1-1-3-1.5-4.5-1-2.9.8-4.1 3-3.4 6 1.2 5.2 8 8 13.2 7.1a9.4 9.4 0 0 0 .8 2.5c-13.3 2.8-19.2-3-21.1-5.7zm5.3 22c2-1.9 4-3.8 6.3-5 4.3-2.4 8.4-3.6 12-4.7 4-1.2 7.6-2.2 10.2-4.4 2.7-2.3 2.7-4 2.4-4.7-.4-1-1.6-1.7-3.2-1.7-2 0-5.1 1.1-7.7 4.2-.6.7-1.1 1-1.6 1-.8 0-1.5-.8-2-2.1-1-2.6-1-7.5 1.8-10.1 2.4-2.3 7.1-4.7 11.7-4.7a8 8 0 0 1 6.3 2.6 10 10 0 0 1 1.7 9.7A15.6 15.6 0 0 1 154 76.4a56.9 56.9 0 0 0-12 3.5v.1c-1.4.6-2.8 1.2-4.2 2-2.7 1.4-5 3.3-7.1 5.1-3.2 2.7-6 5-9.1 5-.9 0-1.7-.2-2.6-.5 3.6-.5 6.4-3.1 9.4-6zm9.8 1.4c2.7-1 5.8-1.1 8.9-1-.5.5-.8 1.1-1.2 1.8-4 3.7-6.5 13.3-6.6 25.2 0 4.4.2 8.7.8 12.7a21 21 0 0 1-7.8-9 41.9 41.9 0 0 0 .5-3.5 16 16 0 0 0-1.3-8.6 65.2 65.2 0 0 1 6.7-17.6zm6 17.6c.7 16.7 6.7 43.7 17.3 48.7l.7.3c-7.5.5-12.3-4.4-15.1-9.2-9-15-8.7-44.1-2-54-1.2 4.6-1.1 10.9-1 14.2zm29.8 78.1l2.6 2a27.4 27.4 0 0 1 10 20c-9.7-10.4-20.2-17-27.7-21.6-3.1-2-5.8-3.7-7.7-5.2a673.5 673.5 0 0 0 1.2-13.9c2.8 1.7 8 3.6 13.8 4.6-1.5 6.8 3 10.4 7.8 14.1zm19.8 20l-.1-2.8a32.5 32.5 0 0 0-3.3-16.4c3.5 5.4 7 10.9 7.5 16.9.2 2.2.2 4 .2 5.9v9.5c-.1 1.3-.2 2.6-.1 4.1a89 89 0 0 0-5-7.4c1-2.4 1-6.3.8-9.7zm4 18.9l-2.6-3.3-.2-.2c-1-1.3-2-2.7-3.2-3.9v-.1c-3-3.4-6-6.5-9-9.3h-.1c-9-8.4-17.8-14.3-24.2-18.6-3-2-5.6-3.8-7.5-5.3l.1-1.8c1.9 1.4 4.4 3 7.3 4.8a106.6 106.6 0 0 1 39.3 37.7zM168 203.9c5.8-.3 11.3-.6 13.9 1.7 2.2 2 4.3 4.1 6.4 6.4-6.1-3.4-11.9-2.8-19.3-2-7.2.7-15.4.7-21.6-4.8.8-1.9 1.5-3.7 1.9-5.4 3.5 4.9 11.2 4.5 18.7 4zm-18.4-5.5c.6-3.3.8-6.5.9-10l.3-6.2 7 5c5.8 3.8 13.6 9 21.5 16-3-.7-7-.5-11.3-.3-7.7.4-15.6.8-18.4-4.5zm19.5 12.6c8.5-1 14.7-1.5 21.8 4l.6.6c-5.2-2.6-12.6-1.5-19.8-.4-4.7.6-9 1.3-12.6 1-10.1-1-13.6-5.4-14.1-7.2a14 14 0 0 0 2-3c6.4 5.7 14.7 5.8 22 5zm-2-42.1c2.2.3 4.4.5 6.5.5h1c.1 4 3.6 8.2 6.4 11.5 1 1.1 2 2.2 2.6 3.2 5 7 5 11 3.6 18-1-6.9-4.4-13.2-10.1-18a71 71 0 0 0-2.6-2c-4.7-3.8-8.8-7-7.4-13.2zm-15.6-6.2l-.1.8-.7 8.4-.8 9.3c-.3 2.6-.3 5-.4 7.2-.2 6.1-.4 11.4-3.6 17.6-3.6 6.8-17 13.5-23.5 14.2h-.4c-4.2.4-8.6.9-12.8 0-4.9-.8-10.8-3-16-5.6l-3-6.8-.9-2c-2.7-5.8-5.6-11.9-6-19.4v-2.2h-.5a26 26 0 0 0-5.7.7l-.7.1-.3.1c-2 .5-4 1.2-6 1.9l-.8.2-.4.2h-.2a30 30 0 0 1-10.6 2.1 3 3 0 0 1-.5 0l-1.1-.2a45 45 0 0 1-15-4.8l4 .2c4.6 0 10-1 12.3-5.1 3.6 1.8 9.9 0 15-5.8l2.7.6a9 9 0 0 0 3.1 0c8.3-.8 13.7-6 15.7-15.2l.5-4.1.6.1c.4 0 .9-.1 1.4-.4 2-1.3 4.5-4.8 5.2-7a35.4 35.4 0 0 0 4.6 10.3c1 1.1 1.7 1.3 3.1 1.3h.8a47.9 47.9 0 0 0 2.8.1l-.2-.2v-.1l-2.6-.1h-.7c-1.4-.1-2-.3-2.9-1.3a18.3 18.3 0 0 1-3-5.4l-.5-1.5c-.5-1.5-1-3.1-1.3-4.5-.5-3.6 2.4-5.4 5.1-7l2.4-1.7-.2-.3c-.7.6-1.5 1-2.4 1.6-2.8 1.7-5.8 3.5-5.2 7.5v.4c0 1.8-3 6.2-5.2 7.5-.7.4-1.3.5-1.7.3a59 59 0 0 0-.8-14.4 20 20 0 0 0 5-16l1.6.6c2.1.9 4.6 1.8 5.1 3.7a26 26 0 0 0 1.6 4.3c1.7 3.5 4.5 5.6 7.4 7.7 1.9 1.4 3.8 2.7 5.4 4.5v.1c.6 2.4 3 4.2 5.2 4.8l1.7.2a5 5 0 0 0 1.8-.4l-.9 1.1c-.6 1.1-.9 2-1.2 3.2l-.2.7a8 8 0 0 1-3.8 5c-1 .4-2.1.4-3.2 0l-.2.3a4.1 4.1 0 0 0 4-.2c.2.2.5.3.8.3 3.7 0 11-7.4 12.9-10.9.5-.9.6-1.5.4-1.9 1.3-.9 1.2-1.9 1-4-.8-4.7-2.7-9.1-4.5-13.4-1.2-2.8-2.5-5.8-3.4-8.7l-.1-.5c.6-.3 1.1-1.2 1.4-2.5a21 21 0 0 0 8.3 8.9c1.2 7 3.2 13.2 6 17.8 1.8 3.1 3.9 5.4 6.2 7l-1 10.7zm-27.3 68l3.5.1c5 .1 10 .2 14 2.4 2.4 1.4 4.6 3.5 6.7 5.6 1.8 1.8 3.6 3.6 5.6 5 2.4 1.7 6 2.5 9.7 2.5 1.6 0 3.3-.1 4.9-.5l-2.7 1a21.6 21.6 0 0 1-17-3.2c-3-1.9-8-5-14.1-6.7-3.5-1-8.3-1.5-13-2-5.8-.8-11.4-1.5-13.7-2.7a9.8 9.8 0 0 1-4.8-6.5c-.3-2 .2-3.7 1.6-5.4a44.6 44.6 0 0 0 5.7 1.2c.3 5.6 5 8.9 13.6 9.3zm-12.6-9h2.7c2.6 0 5.2-.2 7.8-.5h.4l1.6-.3c2.3 2.4 5.8 3 9.2 3.6 2.5.4 4.9.8 6.6 2 1.8 1 3.8 3 6.2 5.5 5 5.1 11.8 12 20.4 13.1-4.6.6-9.2-.2-12-2.1-1.9-1.4-3.7-3.2-5.4-5-2.2-2-4.4-4.3-7-5.7-4.1-2.3-9.3-2.4-14.4-2.5h-3.5c-5.6-.3-12.2-2-12.6-8.2zm35.2 9.6a41.4 41.4 0 0 0-6.4-5.7 19.7 19.7 0 0 0-7-2.1c-3-.5-6-1-8.1-2.9 3-.7 6.8-2.3 10.4-4.3a23.5 23.5 0 0 0 19.5 11.7c2.6 0 6-.3 9.5-.7 4.1-.4 8.8-.8 13.3-.8 1.3 1.1 1.9 2.7 2.1 3.9.5 3-.4 7-2.2 9.3l-.6.8c-1.8 1.7-4.1 3-6.6 3.8-10.2.8-17.8-6.8-24-13zm31.4-5.8l-.2-.2-.1.2c-4.4 0-9 .4-13.3.8-3.5.3-6.9.7-9.4.6-9.9 0-16.4-7-18.7-11.1l2.6-1.6c1.4 2.6 8 7.9 17.6 8.9 2.5.2 5.9-.2 10-.6 13.3-1.4 31.6-3.4 33.8 15.6.6 5.1-.5 9.4-1.8 11l-.2.2c1.7-3.4 2.2-8.5-1.2-16-2.8-6.2-10.5-7.8-19-7.8zM78 214.9v-.5-.6l-.1-.4-.1-.8v-.2l-.2-1-.1-1-.2-.8c0-.4 0-.8-.2-1.2-.6-2.7-2-5-3.2-7.4l-1.2-2.3a446.2 446.2 0 0 1-2.9-5.7v-.2l-.2-.4v-.3l-.1-.4v-.3l-.1-.4v-.3-.4-.7-.3-.5-.5l1.1-.4 5.4-1.7v.6l-.2.7a22.9 22.9 0 0 0-.3 3.3v1.5a8.8 8.8 0 0 0 .2 1.4l.2.9v.5l.3 1 .2.5.5 1.4c.4 1.1 1 2.2 1.6 3.4a25.7 25.7 0 0 1 3.5 12.5v1.5l-.3 2.8v.1l-.2 1.4v.2l-.2 1.3-.2 1.1v.2l-.2.9v.1l-3-5.1v-.4a33.8 33.8 0 0 0 .2-1v-.5-1-.6zm-1.6 10.9c-1.6-1-3.7-2-6-3.1-5-2.4-11.3-5.3-16.2-10.6-4.3-4.6-6.6-11-8.6-16.8a53.4 53.4 0 0 0-4.2-9.7c1 .4 2 1 3 1.3 2.4 3 4.6 7.5 6.4 11.3l1 2 .8 1.9c.6 1.3 1.2 2.7 2 4a22 22 0 0 0 4.5 4.7c2.6 2.1 5.5 3.9 8.2 5.5l1 .5c1.5 1 3.4 2 5 3.2H73l3.3 5.8zm-52-65c.2-1.9 0-4.5-1.3-7.9 0-.7.6-1.5 1.5-2.3 1.8-1.5 5.1-2.8 9.3-2.1 0 1 .4 1.9 1.2 2.4 4.2 13.4 31.8 6.7 27.3-40.6a39.9 39.9 0 0 0 2.9-1.6c9 60.4-20.7 65.6-27.6 57.9 1.2-.3 2-1.4 2-2.7 0-1.5-1.2-2.7-2.6-2.7a2.7 2.7 0 0 0-2.7 2.7c0 1 .5 1.9 1.2 2.4 4.7 13.3 45.4 5 29.7-57.6l3-1.8c24.1 52.2-2.8 74.5-10.1 70.3.5-.5.9-1.3.9-2 0-1.6-1.2-2.8-2.7-2.8a2.7 2.7 0 0 0-2.7 2.7c0 1.4 1 2.6 2.3 2.8.4.6.9 1 1.5 1.4l-.5-.2c-3.3 6.5-16.6 4.4-18 4h-.1l-4.2-2.7-.1-.2h-.1c-2.2-1.4-4-2.9-5.5-4-1.2-1-2.2-1.8-3-2.2.8-.8 1.4-1.8 1.6-3 .4-2 .1-5.2-3.2-10.2zM94 139c-.8-4-1.9-8.2-3.3-12.3-4-11.2-9.5-19.4-14.4-21.6a7 7 0 0 0-1.7-1.3c2.9-1.1 5.8-2 8.7-2 9.9 9.2 21.4 23 10.7 37.2zm-9.2-37.2c1.5.2 3 .6 4.5 1.3 1.8 1 6.7 2 10.5 1l-.4 4.2-.3 2.6v.5c-.2 2-.4 5.1-2 6.3-2.8-6-7.6-11.4-12.3-15.9zm8.6 57.1c-1.1 5.5-4.1 11.8-11.4 13.9l.6-.6c8.5-8.2 5.5-35.8.8-51.8-1-3.2-3-9.1-5.5-13.1 9.4 7 19.1 34.4 15.5 51.6zm-11-38.3c4.8 16.5 7.3 43.3-.4 51-1 .9-2.2 1.5-3.6 1.8h-2.7c-.6 0-1.3-.2-2-.4 8.8-10.5 13.7-32.5-5.3-66 1.6-1 3.2-1.8 5-2.6 2.9.7 6.2 6.7 9 16.2zm-44 63.3l.1.1h.1l.3.2-.2.1c2.4 2.5 4 6.9 5.6 11.5 2 5.8 4.4 12.5 8.9 17.3A51.2 51.2 0 0 0 69.8 224c4.2 2 7.5 3.5 8.7 5.6a97 97 0 0 1 3.4 7.2 39.4 39.4 0 0 0-17.3-12c-5.4-2.6-11-5.1-15.2-9.6-4.7-5-7.4-14-9.8-22a80.7 80.7 0 0 0-3.8-11c.9.7 1.8 1.3 2.6 1.7zm82.5-54.4l-.2-.4.4 1c1.2 3.1 2.5 6.4 4 9.5l.8 1.5c1.2 2.6 2.6 5.4 4.8 7a4.2 4.2 0 0 1-1 .9c-1 .8-2.5 1-4 .6-2.4-.6-4.9-2.6-5.1-5.1v-1.3-3.3l.3-1.5.5-3.8a14 14 0 0 0-.5-5zm10.3 18.8c.8.4 1.5.7 2.3.7 1 0 1.9-.3 2.9-.8l.9-.5c.1.1 0 .6-.5 1.4-2.2 4-10 11.4-13 10.6a9 9 0 0 0 3.2-4.7l.3-.8c.3-1 .5-2 1.2-3 .4-.8 1-1.3 1.5-1.8l.4-.4.8-.7zm-10-52.1c1.9-.3 2.6.5 3.5 1.7a14.8 14.8 0 0 0 2.8 2.7 17.6 17.6 0 0 1 3.4 3.7 14.9 14.9 0 0 1 1.4 9.4 35 35 0 0 1-.5 3.7v.3c-.4 1.6-.8 2.5-1.3 2.8a95.8 95.8 0 0 0-7-15.2c-1.5-3-3-5.7-4.3-8.5.6-.3 1.3-.5 2-.6zm-11.1 5c2.4.2 4.3-1.2 6.2-2.5A20 20 0 0 1 119 97c1.3 2.8 2.7 5.5 4.3 8.4 2.7 5.1 5.5 10.4 7.2 16 .9 3 2.1 6 3.3 8.7 1.8 4.3 3.7 8.8 4.4 13.4.4 2.6.4 3.2-1.9 4.3-1.8 1-3.3 1-4.8.2l-.2-.2-.2-.2h-.1a16.8 16.8 0 0 1-4.6-6.6l-.8-1.6a95.8 95.8 0 0 1-5.7-13.7c-.9-2.2-1.9-4.5-3-6.7a30.7 30.7 0 0 1-4-11.5 18 18 0 0 0-2.7-6.3zm1.2 13.6c.9-1.5 1-3 1-4.4l.2-2c.6 3.8 1.7 6.8 3.9 10.8l2.9 6.2-.1.1.3.4.4 1 .3 1.4c0 .5.2 1 .3 1.3.5 1.6.6 3.2.5 5 0 1.2-.2 2.4-.4 3.7l-.3 1.5c-.2 1.3-.1 2.3-.1 3.4v1.3c-1.5-1.7-3.3-3-5-4.2-3-2.1-5.7-4.1-7.3-7.6-2.7-5.6-2.8-9.8-.5-12.7l1-1.4c1-1.2 2-2.4 2.9-3.8zM103 113c1.5 2.5 3.2 3.8 5.5 5l-.4.5-1.1 1.3c-1.6 2-2 4.5-1.5 7.6-1-1.3-3-2-4.7-2.7l-1.9-.9a24 24 0 0 0-1.5-5.2c2.1-1.3 2.4-4.7 2.6-7v-.5a71.1 71.1 0 0 1 .6-5.7c.3 2.8 1 5.4 2.4 7.6zM70 88.8c-.7.4-1.5 0-2.1-.3-4-2.4-7.9-2.1-9.8-.8-1 .6-1.4 1.5-1.3 2.4 0 1 .8 2.2 3.7 3.3 3.2 1.2 6.8 1 11 .8 3.8-.2 8.1-.5 12.9.2 2.7.5 5 1.7 7.4 3 3.1 1.6 6.1 3.1 9.5 2.3-3.3 2.7-6.8 1.3-11.1-.4a35.7 35.7 0 0 0-12.8-3h-3.1c-4.2 0-7.4.4-9.5.7l-1.6.3c-5 .4-10.4-2-13.4-6a10 10 0 0 1-1.5-9.9c.8-1.9 2.3-3.3 4.5-4.3 4.2-1.8 9.7-1.3 13.1.2 3.1 1.3 4.8 5 5 8 .1 1.7-.2 3-1 3.5zm-21 3a16.2 16.2 0 0 0 16 6.2 55 55 0 0 1 10.5-.8c-15.5 8.8-29.4 9-37.2.7-4.9-5.2-6-12.8-2.8-18 3.4-5.6 10.5-7.2 19.7-4.5-1 .1-2 .4-2.8.8a9 9 0 0 0-5 4.9A11 11 0 0 0 49 91.8zM87 62.3c3.2 2.8 4.5 7.6 3.1 12.2-1 3.2-4.6 10.7-18 12.6a9 9 0 0 0 0-2l-.1-.6c5.1-.9 10.7-6 10.2-11.3-.3-3-2.2-4.7-5.2-4.5a4.8 4.8 0 0 0-3.9 2.5c-.3.7-.4 1.4-.2 2.2-4.8-.9-7.7-2.5-8.1-4.7-.4-2 1.4-4.6 4.7-6.6 5-3 12.6-4.2 17.5.2zm-23.2 6.5c-.9.6-4.5.2-7-.3a17 17 0 0 1-6.1-3.3c-.7-.5-3-3.4-4.7-5.6l-2.6-3.3 1.3-.7c1.5-1 3.2-2 4.2-3.3 1.6-1.9 3.6-2.9 6.2-3.9 5.4-2 11.4-.2 15.4 1.7l1 .5a11 11 0 0 1 4.4 3c1.1 1.3 1.7 2.7 2.4 4.2l.3.6a20 20 0 0 0-9.6 2.9c-3.6 2.1-5.6 5-5.2 7.5zm-8.9-32.2C57 34.2 62 32 65.1 33.3c-1.2 1.2-1.7 2.3-1.6 3.3.5 2.2 3.8 3.4 6.6 4.3l2.3 1c4.1 2 8 6.3 10.3 11.2 1 2.2 1.1 3.8 1.2 6.2-1.5-.5-3-.8-4.5-.9h.2l-.5-1c-.7-1.6-1.4-3-2.6-4.5-1.3-1.7-3-2.5-4.8-3.3l-.9-.4a22.1 22.1 0 0 0-15-2 4.6 4.6 0 0 1-3-3.3c-.7-2.3.2-5.3 2-7.3zm-53.3 27c1.5-6.5 6-11 11.1-11l.2 1.8a11.6 11.6 0 0 0-2.6 2.9c-4 1.2-6.2 5.6-6 11.9a24 24 0 0 0 3.6 12c-6.6-4.4-7.6-12-6.3-17.5zM16 83.9c-.6.7-1.4.9-2.5.6-4.9-1-8-8.8-8.3-15.3C5 64 6.6 60.2 9.4 58.7c-1.4 3-2.1 7.6 0 14.2.8 2.3 2.5 3.8 4.4 3.8.8 0 1.5-.3 2-.9 1.3 3.4 1.4 6.6.2 8zM22.5 56c-3.2 0-5.7 1.1-7 3.2-1.6 2.3-1.6 5.7 0 10 1.1 3.2.5 4.8 0 5.5-.3.6-1 1-1.7 1-1.2 0-2.8-1-3.5-3.2-2.5-7.7-.8-12.5 1-15.1 2.1-3 5.6-4.8 9.3-4.8 4.2 0 7.8 2.2 9.7 5.7a14 14 0 0 0-7.8-2.3zm-1.9-4.4c-2.5 0-4.9.8-6.9 2.1-1-7.3 1.5-12 3.9-14.6 3.3-3.7 8.3-5.7 13.6-5.5-.2 4.5 1.3 8 4.7 10.8 1 .8 6.2 4 9 4l.7-.2-.3-1c-1.6.6-7.5-2.5-8.8-3.6a11.1 11.1 0 0 1-4.3-10 8 8 0 0 1 3.5-5.9c1.6-1 4.2-1.2 5.9 0a3.3 3.3 0 0 0-.2 4.6c1.3 1.5 3.5 1.4 5.1 1.3l1.5-.2c1.2-.2 2.6-.4 3.4.1.7.5 2.2 2.6 2 3.4a9.3 9.3 0 0 0-1.6 7.3c.3 1 1 2.5 2.7 3.4-2.3.8-4.6 1.9-6.4 4-.9 1.2-2.6 2.2-4 3.1l-1.7 1c-2.4.1-6.5 2-10 5l-.2-.2c-1.5-5.4-6-8.9-11.6-8.9zm7 16.3c4-7.2 11.6-11 14.8-11.1l2.7 3.4A50 50 0 0 0 50 66c2 1.5 4.2 3 6.5 3.5.4 0 3 .6 5 .6 1 0 1.9-.1 2.5-.4.8 1.8 3.1 3.9 9.6 4.8l1.1.2-.6-1c-.5-.7-.5-1.4-.2-2 .5-1 1.8-2 3-2 2.5 0 4 1.1 4.2 3.6.5 4.8-4.6 9.4-9.4 10.2-.7-2.9-2.4-6-5.3-7.1-2.3-1-5.7-1.6-9-1.4h.1c-15-5.1-20.9 1.3-22.7 4.3-1.2 2-1.9 4.2-2 6.6-1.9.2-3.4 1-4.5 2.3-4.9-9-3.1-16-.7-20.3zm8 39.8c-5.7-4.6-9-12-7.6-16.8.7-2.3 2.3-3.6 4.8-4 .1 4.1 1.8 8.4 5 11.7a21 21 0 0 0 15.8 6.4c7 0 15.2-2.6 24-7.7 1.3.1 2.8.2 4.3.5a35 35 0 0 1 8 2.4c2.7 1 5.1 2 7.4 2 2.3 0 4.4-1 6.4-3.5l.3-.3c-.3 1.6-1.1 3-2.4 3.8-3.5 2.4-9.9 1-11.8 0-8.4-4.2-18.2 1.7-25.4 5.9-10.5 6.2-21 6-28.9-.4zm-3.8 6.2c.5.8.7 1.6 1 2.6.4 1.4.9 3 2.3 4 .7.5 2 .8 4 .8 1 0 2.2-.1 3.1-.3 3.2-.5 7.2-2.7 10-5.4a26.7 26.7 0 0 1-4.4 5 22.5 22.5 0 0 1-9.2 4.8c-1 .2-2.1.3-3.1.3-2.5 0-7-.7-8.8-5.5-.6-1.7-.6-5.2.8-6.7.4-.4 1-.6 1.8-.6 1 0 2 .4 2.5 1zM11.7 115c-3.4-8.5-3.2-18.2-1.9-20.2 1.1-1.7 3-2.6 5-2.2 3.1.6 5.7 4.5 7.1 10.8l-.6.1c-3 .8-4.9 2.9-5.4 6.2-.9 5.9 3 14.5 8 18.7A22.3 22.3 0 0 1 11.7 115zm6.4 11.2c2.3 2 5.1 3.4 8.6 4 2 1 4.4 1.6 6.9 1.6 2 0 4-.3 6-1a30.2 30.2 0 0 0 17.9-16.7l-.9-.4c-4 8.2-10 14-17.2 16.2a16.4 16.4 0 0 1-13.3-1c-5.5-3.4-10.1-13-9.2-19 .4-3 2-4.8 4.6-5.4 2-.5 3.7.4 4.7 1.2a9 9 0 0 1 3.1 6.2c-1 0-1.9.3-2.4.9-2 1.9-1.8 6-1.1 7.7 1.5 4 5 6.2 9.7 6.2 1 0 2.2 0 3.3-.3 3-.7 6.2-2.3 9.6-5 1.3-1 6.2-5.9 5.7-8v-.2c2.7-.6 5.5-1.5 8.2-2.9 1.2 44-18.9 47.7-25 40.9a2.7 2.7 0 0 0-.7-5.4c-1.2 0-2.1.7-2.5 1.7-4.5-.8-8.2.7-10.2 2.3l-1.4 1.7a45 45 0 0 0-2.4-4.8c1.2-1.5 1.8-4 1.8-7 .3-1.5 3.2-1.6 7-1.8 9.6-.5 25.8-1.4 31-23.3l-1-.2c-5 21.2-20.7 22-30.1 22.5-4 .2-7.1.4-7.7 2.2-4.9.4-6.2-2.6-6.5-4.4-.7-3.4 1-7.5 3.5-8.5zm-5.6.6c1-.9 2.3-1.1 4-.8a9.8 9.8 0 0 0-2.9 8.9c.7 3.3 3.1 5.2 6.7 5.2h.6c0 4.4-1.5 7.1-3.9 7.4-2 .3-4.8-1.7-5.7-5.5-1.3-5.8-1.5-12.7 1.2-15.2zm-2 16.2c1.1 3.3 3.6 5.6 6.1 5.6h.6c.8-.2 1.6-.6 2.2-1.1 4 7.2 5.2 13.3 3 16.4-1 1.4-2.8 2-4.7 1.4-4.5-1.3-8.2-10.3-7.1-22.3zM15 165c.8.6 1.6 1.1 2.5 1.4l1.6.2a5 5 0 0 0 4-2c.4-.5.8-1.2 1-2.3 2.6 4.2 2.9 7 2.6 8.6a4.3 4.3 0 0 1-1.8 2.8c-.3.3-.7.4-1 .5h-.2a6.2 6.2 0 0 1-5.5-1.1c-1.4-1-3.4-3.4-3.2-8.1zm9 31.7c-3.9-1.2-5.2-3.8-6.5-6l-.4-.9c-1.4-2.4-2.9-11.9.8-15.6 1.3.9 2.7 1.4 4.2 1.4l.8-.1c2.7 2.5 5.9 11 8.8 19.6-1.2 1.6-6.4 2-7.8 1.6zM83.2 253l.1-.6c.9-7.6-4.8-9.7-12.7-12.6-8.9-3.3-21-7.7-30-22.6-1.5-2.4-3.6-9-5.9-15.8a111.6 111.6 0 0 0-10.6-26c4 2.3 8 13 11.9 23.4a86.3 86.3 0 0 0 10.5 22.6c4 4.4 10.3 7.5 17 10.7 9.5 4.6 19.3 9.3 21.5 18l-.4 2 .6-1.2c.2.8.3 1.7.3 2.6-1.3-.1-2-.3-2.3-.5zm2.7-7h-.2.2c-.3-4-2.4-9.5-6.3-17v-.2l-.2-.3c-1.4-2.6-3.1-5.6-5-8.7l-.2-.4H74c-6-9.8-13-20.2-19.3-29.3.8.1 1.7.3 2.6.3l6 8.6c4.7 6.5 9.5 13.2 13.4 19.7a65.7 65.7 0 0 1 7 13.5v.1c2 5.2 2.7 9.7 2.2 13.7zm0-20.2l-.4 1.2-.3 1-.4 1.1-.4 1.1-.3.6c-.8-2-1.7-4-2.8-6v-.1-.2l.2-.3v-.2l.1-.3v-.3l.1-.4.1-.3v-.4l.2-.4v-.4-.4l.2-.4v-.5-.4l.1-.4.1-.5v-.4l.1-.5v-.5l.1-.4v-.4-.5l.1-.4v-.5-.4-.4l.1-.3v-.7-.7c-.2-5.2-2-8.8-3.7-12-.5-1-1.1-2.1-1.5-3.2l-.5-1.4-.1-.3-.3-1v-.5l-.2-1v-.5l-.2-.8v-.7-.8-.7-.8a18.6 18.6 0 0 1 .3-1.6l.2-.9v-.7c2-.4 3.8-.7 5.5-.7v1.2c.3 5.5 1.4 10.3 2.5 15l.4 1.7v.3l.4 1.4.1.5.3 1.2v.6l.3 1.1.1.6.2 1.1v.7l.2 1v.8l.2 1v2.6a13.5 13.5 0 0 1 0 1.9v1.9l-.2 1-.1 1-.2 1-.2 1-.2 1-.3 1zm.6 27.2c0-1.5-.1-2.8-.3-4l.3-.6c5.5-10.6 5.3-22 4-37.6a34.5 34.5 0 0 1 3.8 18.7l-.1.1.1.3a58.3 58.3 0 0 1-7.8 23zm10.7.7c-4-4-3.6-6.5-1.3-10.7l1.6 1c-1 2-1.4 4.2-.7 6 .5 1.4 1.8 3.4 5.2 4.4 1.8.6 3.4.8 5.2.8 3.3 0 6.7-.9 11-2 3.4-1 7.3-2 12.2-3l2.7.5c2.3.6 4.2 1.5 6 2.6-7.2-1.8-16.5 1.6-23.6 4.2l-3.6 1.3c-5.1 1.7-11-1.5-14.7-5.1zm1.1-9.2a39 39 0 0 0 21 4.9c2.6 0 5.3.1 8.1.4-3.6.8-6.7 1.6-9.4 2.4-6.5 1.7-10.7 2.9-15.7 1.3-2.4-.8-4-2.1-4.6-3.9-.5-1.5-.3-3.3.6-5zm43.5 11l1.5 1.4c-3.5-.7-8.5 1.1-13.7 3-7.7 2.9-15.7 5.8-18.5.1l1.1-.2 3.6-1.3c8-3 19-7 26-3zm-15.7 10.1l-2.7 1.7c-3 1.8-8.8 4.5-12.4 2.5a25.3 25.3 0 0 1-9-11.5c2.1 1.2 4.5 2 7 2l1-.1c1.4 3 3.8 4.1 6.8 4.1 3.8 0 8.5-1.7 13.1-3.4 6.5-2.4 12.6-4.6 15.4-2l.8 1c-6.7-2.5-14.3 2.2-20 5.7zm49.8 7.8c-4.2 1.9-9.7 1.3-14.9-1.5-5.8-3.2-9.5-7.4-13-11.5l-2-2.2a43.1 43.1 0 0 0-3.6-3.6 20 20 0 0 0-9.1-4.8c-5.1-1.2-9.6-1.3-14-1.4-9-.3-16.8-.6-26-8.8 1-3 1.6-5.9 1.9-8.4 7.2 10.5 17.1 11 27.6 11.7 4.2.2 8.6.5 13 1.4 6.1 1.4 10.7 7 15.5 13 4.3 5.4 8.7 10.9 14.8 14.2 3.4 1.9 6.7 2.3 9.7 1.3 2-.8 4-2.2 5.8-4.4-1.5 2.3-3.4 4-5.7 5zm-.5-1.6c-2.7 1-5.7.5-8.9-1.2a51.4 51.4 0 0 1-14.5-13.9c-4.9-6.1-9.5-11.9-16-13.3-4.4-1-8.9-1.3-13.2-1.5-10.5-.6-20.5-1.2-27.5-12.3.4-5.4-.5-9.8-1.7-13.6 3.3 1.6 6.9 3 10.2 4a7.5 7.5 0 0 0-1.5 6c.6 3.1 3.1 5.8 5.4 7 2.4 1.4 8 2.1 14 2.8 4.6.6 9.4 1.2 12.8 2 6.1 1.7 11 4.8 13.8 6.7l2.2 1.3a22.7 22.7 0 0 0 22.5-.9c2-1 3.6-2.2 5-3.7l.1-.1.6-.7c2-2.6 3-6.8 2.4-10.2a7.6 7.6 0 0 0-1.7-3.7c7.7.2 14.6 1.8 17 7.3 5.4 12 .5 17.4-3 19.5-4.9 3.1-10.7 2.8-11.7 1.6v-.2c0-2.1-1.5-3.9-3.5-3.9s-3.6 1.8-3.6 3.9c0 2.1 1.6 3.9 3.6 3.9a9 9 0 0 0 6.1 3.5c-2.5 5.3-5.5 8.6-8.9 9.7zm26.6-38.2v.2c4.3 8.1-1.6 20-9.7 25-2.5 1.7-8.6 4.6-13-.5 1-.3 1.9-1.2 2.2-2.3.8.5 2 .7 3.6.7 2.6 0 6-.7 8.8-2.5 1.2-.8 2.6-1.9 3.7-3.5.6 0 1.2-.3 1.8-1 1.8-2 2.6-6.8 2-11.7-2.2-20-21.9-18-34.9-16.5-4 .4-7.4.8-9.7.6-9.7-1-16-6.4-16.9-8.5 1.6-1.2 3.1-2.5 4.3-3.8 1 2.3 5 6.3 14.8 7.3 3.7.4 8.1-.2 12.9-1 8.7-1.2 17.7-2.6 22.3 2.7 2.6 3.3 5.2 6.9 7.5 10.7l.3 4zM191.4 182c2 1.4 4 2.9 5.2 4.8 2.4 4 3.5 9.5 4.3 14.9.5 3.8.3 8.1 0 12v2.1c-.2 3.1.2 7 .6 10.7v.3l-2.6-5.1h.2c-.3-2.3-.2-4-.1-5.9 0-1.5.2-3 0-4.8v-4.7-6c-.7-6.5-4.6-12.4-8.3-18.1l-.9-1.3 1.6 1zm-3.6-1.7c1 2.3 2.2 4.7 3.2 7.3 1.6 4.2 1.7 7.5 1.7 12.3v2.9c.2 3 .3 6.5-.4 8.8-1.5-2-3.1-4-4.7-5.8v-.2c1.9-9.3 2.8-13.9-3-22.2l-2.7-3.3c-2.9-3.3-6.1-7.2-6.2-10.9a19 19 0 0 0 7.5-1.8c.8 4.9 2.6 8.8 4.6 12.9zm-1.3-27.8c1.8 6 1 10.3-2.5 12.8h-.1a16.4 16.4 0 0 1-9 2.5c-2.4.2-5 0-7.4-.4l-1-.2c-6-1-11.5-3-14-4.7l1-10c2.3 1.4 4.8 2.2 7.6 2.2 1.5 0 3-.3 4.6-.7 1.8-.2 3.6-1 5.4-2.5 6.2 3.3 12.3 3.3 15.4 1zm-16.3-1.5l-1.7 1.1-2.7.9c-1.3.1-2.6 0-3.9-.6-9.8-4.6-16-30.7-16.8-47.9-.4-9.9.8-16.7 3.3-18.4l5.5.7c-7 38.2 4.6 57.2 16.3 64.2zM158 86.7c-8.2-1.6-19.3-3.7-25.9 3-1.5 1.6-7 5.1-11.2 4-.7-.2-1.4-.6-2-1 .9.3 1.7.4 2.6.4 3.5 0 6.5-2.5 9.7-5.2a39.3 39.3 0 0 1 11-7c4.1.9 8 1.3 11.8 1.3 12.8 0 22.2-4.7 26.1-13.5a18 18 0 0 0 .8-12.8c2.5-.4 4.5.3 5.9 2.2 2.9 4 2.1 12.1-1.7 18.4-5.4 8.8-15.3 12.5-27.1 10.2zm53.5 26.7c-.5-.4-1.1-.8-1.9-1-2.4-1-6.3-1-10.3 1.2a2.6 2.6 0 0 0-2.9-.8c-1.4.5-2.1 2-1.7 3.5.5 1.2 1.6 2 2.7 1.9a9.3 9.3 0 0 1-8.8 5.3c-8 0-19.4-8.2-28-35.4 3.1.3 6 .3 8.7-.1v.2c.3 2.2 6.5 5 8 5.6a26.1 26.1 0 0 0 10.7 1.5c5-.7 10.2-3.7 10.4-10 0-1.9-1-5.8-3.5-7l-1.3-.2a4 4 0 0 0-1.3.2c-.6-2.2-.3-4.9 1-6.9.6-1 1.9-2.4 4-2.7 2.7-.3 4.7 1 6 3.5 2.9 5.4 1.6 16-2.5 21a16.6 16.6 0 0 1-12.2 5.5c-7.5.4-15.1-3-21.5-9.4l-.6.7a30 30 0 0 0 21 9.8h1.2a18 18 0 0 0 12-5c3-1.8 5.2-4.2 6.8-6.7 2.6 0 5.6 3.3 6 6.8.3 1.8 0 5-4.6 6.3-1.2-1.5-4.1-.6-8 .6-9 2.7-24.1 7.2-35.7-11l-.8.5c7 11 15.2 14 22.7 14 5.3 0 10.2-1.4 14-2.6 3.6-1 6.5-1.9 7-.7 1.1 3 2.5 5 4.1 6.1-.4 2-.6 3.8-.7 5.3zm1.6-4.8a4.2 4.2 0 0 0 2.4.2c2.8-.6 4.6-3.8 4.5-7.4 5 10.9 4.3 20.7.4 23.4-1.5 1.1-3.3 1.2-4.8.2-3-2-4-8.2-2.5-16.4zm8.3 25c-1.8 1.7-4.4 2.2-6.1 1-2.4-1.5-3-5.3-2-10.5.7.9 1.3 1.5 1.8 1.8.8.6 1.7.8 2.7.8 1 0 2.2-.3 3.2-1a7 7 0 0 0 1.9-2.2c1.9 4.7.5 8.3-1.5 10.1z"/><path d="M193 212.6c1.7 2.3 3.4 4.8 5 7.5v-4.2c0-1.5.2-3 0-4.7v-4.8-6c-.6-5.9-4.1-11.4-7.6-16.8a32.5 32.5 0 0 1 3.3 16.4v2.9c.2 3.4.4 7.3-.7 9.7zM172 216.2c-4.8.7-9.2 1.3-13 1-9.8-1-13.6-5.1-14.7-7.4a30.1 30.1 0 0 1-4.3 3.8c.9 2 7.2 7.5 16.9 8.5 2.3.2 5.8-.2 9.7-.6 13-1.4 32.7-3.5 35 16.5.5 4.9-.3 9.7-2.1 11.8-.6.6-1.2 1-1.8 1a12.8 12.8 0 0 1-3.7 3.4 17.2 17.2 0 0 1-8.8 2.5c-1.5 0-2.8-.2-3.6-.7-.3 1.1-1.2 2-2.2 2.3 4.4 5.1 10.5 2.2 13 .6 8-5.2 14-17 9.8-25.1l-.1-.2-.3-4c-2.3-4-4.9-7.5-7.5-10.8-4.6-5.3-13.6-4-22.3-2.6zM152.4 164.1a1720.4 1720.4 0 0 0-1.2 14c1.9 1.4 4.6 3.1 7.7 5 7.5 4.7 18 11.3 27.7 21.7a27.4 27.4 0 0 0-10-20l-2.6-2c-4.8-3.7-9.3-7.3-7.8-14-5.7-1-11-3-13.8-4.7zM168 202.9c4.3-.2 8.4-.4 11.4.4-8-7-15.7-12.3-21.5-16.2-2.8-1.9-5.2-3.5-7-5l-.3 6.3c-.1 3.5-.3 6.7-1 10 3 5.3 10.8 4.9 18.5 4.5z"/></svg>