<svg xmlns="http://www.w3.org/2000/svg" width="595.3" height="841.9"><path d="M287.8 379V379.2a25.5 25.5 0 0 1-3.2-8.7l-.6-2.2-.8-3.3-1.2 3.2c-1 2.8-3.4 5.7-5.3 7.6l-.5.6v-.4l-2 2.9c-2.2 3-3 5.8-2.8 9 .3 3.1 1.5 4.4 4.2 4.4l1.5-.1c.8-.1 1.7-.6 2.7-1 .7-.4 1.6-.8 2-.8.4 0 1.3.8 2 1.4 1.3 1.1 2.7 2.3 4.2 2.3 1.3 0 2.3-.9 3-2.6 1.2-3-.6-7.3-1.8-9.7l-1.4-2.8zm-9.5-1.7c1.4-1.5 3-3.5 4.4-5.6a26 26 0 0 0 3.2 8.6l1.2 2.1c-.6 2.6-1.4 2.6-1.7 2.6-.5 0-1.2-.2-2-.5l-1.2-.4a7 7 0 0 0-2-.3h-1.4l-1 .1c-.7 0-1-.1-1.1-.3-.4-.3-.7-1.3-.7-3.7l2.3-2.6zM274.8 346v-1.2c-.6-1.4-1.3-2.6-2-3.8l-.6-1.4v.6c-3.1-4.3-7.8-7-13.3-7.3a31 31 0 0 0-2.4-.1c-8.2 0-12.3 3.7-13.2 12.3v.5l-.1.5a35.3 35.3 0 0 0-.2 3.9c0 3.3-1 6.5-2 9.6-2.4 7.5-4.8 15.2 9.5 20 2 .6 4 1 5.9 1 13 0 20.2-15.2 20.2-25.7 0-3.3-.9-6.4-1.8-8.8zM256.5 335h2.2a16 16 0 0 1 13.5 9.4v.8c0 15.9-7.7 24-15.1 23.6h-1l-.4-.1-.6-.2h-.4l-.5-.2-.4-.2-.5-.2-.4-.2-.5-.3-.3-.2-.5-.4-.3-.3-.4-.3-.3-.4-.5-.4-.2-.3a13.5 13.5 0 0 1-2.1-3.4l-.2-.4-.3-.8-.1-.3a25 25 0 0 1-.3-1l-.2-.4-.2-.7a36.8 36.8 0 0 1-1.2-11.2v-.7-.8c1-7.4 4.1-10.4 11.2-10.4zM328.5 353v-.2l-.1-.2c-.7-1.6-1.5-3.1-2.4-4.5l-.3-.6v.3a17.9 17.9 0 0 0-14.9-7.4c-8.2 0-14 5.2-16 14.2l-.5 3.8c-.4 4.7-.4 11.6 1.5 17.6 2 6.2 5.3 9.8 10.2 10.9 1.6.3 3.2.5 4.7.5 6.1 0 11.3-3 14.9-8.5 2.9-4.5 4.6-10.5 4.6-16.4 0-3-.9-5.8-1.7-8.1V353zm-17.7-10.5h1.5a16 16 0 0 1 13.4 9.4v1.2c0 10.7-3 19.3-7.5 23.1a9.3 9.3 0 0 1-5.7 2.2h-.5c-3.3-.1-6.3-1.8-9-4.8l-.8-1-.2-.4-.5-.8-.3-.3-.4-.8-.3-.4-.4-.8-.2-.4-.4-.8-.2-.5-.3-.7-.2-.5-.3-.8-.2-.5-.2-.7-.2-.6-.2-.7-.1-.6-.2-.6v-.7l-.2-.6-.1-.6v-.5l-.2-.7v-.5-.7-.4-.7-.3-.7-.3c.8-3.8 3.8-12.5 14-12.5zM185.6 355.3c1 0 1.8.8 2.8 1.5l1.6 1.2.4.2.6.3 1.6.5-.2-1.6c0-.5-.2-.9-.6-1.1-.3-.2-.6-.2-.8-.2l-1.2-1c-1.2-.9-2.6-2-4.3-2-1.4.1-3 1-5.3 2.5l-2 1.1c-6.2 3-7.3 2.7-10.2-3l-.3-.4-.5-.1c-1.8-.4-3.3.1-4.7.5-.9.3-1.7.6-2.7.7-1.7 0-2.7-.5-4.1-1.2l-1.3-.6c-4.7-2-7.5-1.6-11.8 2l1.3 1.6c3.7-3 5.7-3.4 9.7-1.6l1.2.5c1.4.8 2.8 1.5 5.1 1.4 1.2 0 2.3-.4 3.3-.7 1-.4 2-.7 3.1-.6 2 3.8 3.8 5.5 6.3 5.5 1.7 0 3.8-.8 6.6-2l2.1-1.3c1.4-.8 3.4-2 4.2-2.1zM144.8 336.2l.7.4c.9.5 1.9 1.1 3 1.1h.2l.3-.1-.5-1v-.3l-.1-.7c-.4 0-1.2-.5-1.8-.8l-.9-.5-1.2-.7-2.1-1.1c-2-.8-4 0-5.6.5l-.9.3-5.4 2.1-2-1c-1-.7-2.3-1.3-4-1-1 0-3.1 1.2-5.3 2.5a13 13 0 0 0-4.5-3.3c-3-1-5.3.1-7.4 1-2.4 1.3-4 1.8-6 .1-5.3-4.5-8.5-2.9-13.2.4l1.2 1.8c4.6-3.2 6.5-4 10.7-.5 3.1 2.6 5.8 1.3 8.3.2 1.8-.9 3.6-1.7 5.8-1 1.2.4 3 2.1 4.6 3.8 2.3 2.3 4.5 4.5 6.6 4.5h.8l-.6-2.1c-1 .3-3-1.6-4.8-3.4 2.8-1.5 3.8-2 4.2-2 .9-.1 1.5.2 2.7.9 5.6 3.1 7.2 3.7 8 3.7l.3-.1.7-.7-2-.8c.3-.4.7-.6 1-.6-.3 0-1.1-.3-2.7-1 1.2-.6 2.7-1.1 3.7-1.5l1-.3c1.2-.5 2.7-1 3.9-.6a23.6 23.6 0 0 1 3.3 1.8zM488.9 374.8c4.5-.2 9-2.4 13.1-4.3l3.3-1.5 1.4-.7.4-.2 1 .4.5.3c.7.3 1.6 1 2.3 1.8l1.6 1.3c3.5 2.5 6.4 4.2 9.4 5.4l.8-2c-2.1-.8-4.2-2-6.6-3.5 4.2-2.2 10.3-5.8 14.4-8.7a35 35 0 0 0 17.8 9l.4-2.2c-5.3-1-12.9-4-17.2-8.9l-.6-.7-.8.6c-4.4 3-11.7 7.4-16 9.5l-.3-.2-1.4-1.2c-1-.8-1.9-1.7-3-2.2l-.4-.2c-1.6-.8-2-.9-3.3-.2l-1.3.6-3.3 1.6c-4 1.9-8.2 3.9-12.3 4-2 .1-3.7-.3-5.7-1.4-.7-.3-1.5-1-2.3-1.8-1.5-1.3-3-2.6-4.7-2.8-2-.3-4 1.2-5.8 2.5l-2 1.3-3.8 1.8a41 41 0 0 0-5.4 2.6l1.1 1.8c1.6-1 3.3-1.7 5.1-2.5a54.9 54.9 0 0 0 6.2-3.3c1.5-1 3.1-2.3 4.3-2.1 1 .1 2.4 1.3 3.6 2.3.9.8 1.8 1.6 2.7 2.1a13 13 0 0 0 6.8 1.7zM555 386.6c-.6-.5-1.2-1-1.5-1.5l-.9-1.4c-.4-.8-.8-1.6-1.5-2.3l-.6-.5-1.4.8a69 69 0 0 1-13.5 6.4c-1.5-1-3-2.2-4.4-3.4-3.5-2.8-6-.8-8 1l-2.1 1.6c-1.8 1.1-3.5 2.4-5.1 3.7l-4.9 3.5 1.2 1.7 5-3.5c1.6-1.3 3.2-2.5 5-3.6l2.2-1.7c2.3-2 3.3-2.7 5.4-1 5.2 4.2 11.4 8.6 17.5 8.9h.7v-2.1a20 20 0 0 1-10.1-3.5 92 92 0 0 0 12.1-6.2l.6 1.1 1.1 1.9 1.7 1.7 1.5 1.5 1.9-1c-.4-.7-1.2-1.4-2-2.1zM498 441.5l-.4-2-1.5 1.4c-1.4 1.5-3.3 2.5-5.2 3.6l-2.6 1.4a125 125 0 0 1-21.4 9.6l-3.5 1.2-2.8.9c-2.6.7-5.6 1.6-7.6 3.1l1.2 1.7c1.8-1.3 4.4-2 7-2.8l3-1 3.4-1c2.6-1 5.4-1.8 8-3a127 127 0 0 0 16.2-8.3c1.6-.8 3.2-1.6 4.6-2.7 2.4 6.3 11 11.4 14.7 13.4a66 66 0 0 0 28 7.5h1.5v-2.1h-2.4c-8.8-.5-18-3-26-7.3-3-1.6-13-7.3-14.2-13.6zM456.9 358.2a51 51 0 0 1-3-2l-3-2.9-.3-.2c-1.6-1.5-2.6-1.3-4-.7l-.8.4-7.4 2.3-.6.2-1.2-1.3-.2-.3c-.5-.5-1-1.3-2.1-1.3-.6 0-1.3.2-2.3.7l-.4.2c-.5-2.2-1.3-8 1.1-14.9l.5-1.5-1.6.1c-8.8.7-22 8-22.8 17.6h-.7l-1 .2-2.8.5c-1.5.3-3 .6-4.4.6v2.2a24 24 0 0 0 4.9-.7l2.5-.5 1.1-.1c2.5-.4 5-.8 7.6-1.4l.8-.3c.7-.2.7-.2 1 0 .4.3.7.7 1 1.2l.8 1c1.2 1.3 2.6 2.4 3.9 3.4a26 26 0 0 1 3.3 2.7l2.3 2.4.6.5.5-.6.6.8a1 1 0 0 1-.8.1l.6.2.4-.3c.2-.1.5-.4.5-1v-.4l-.9-.9-2.3-2.2a28 28 0 0 0-4.4-3.7l7-2.4 1.1-.4 1-.5 1.2-.5.5.5.3.4a27.8 27.8 0 0 0 7.1 5.8l1 .6.5.2 1 .6s-.2-.2-.2-.5c0-.2 0-.5.2-.6l1.6 1.5c.2-.3.4-.7.3-1.1-.1-.8-1-1.3-2-1.8l-.4-.2-1-.5-2.2-1.4-1.3-1a225.6 225.6 0 0 0 7.9-2.6c1-.4 1-.4 1.6.2l.3.3 3.2 2.9 3.1 2.2 1.2.7.7-.8 1 .1c0-.6 0-.7-1.7-1.8zm-27.3 6.7l.5.6h-.7c0-.2 0-.4.2-.6zm-9-9.8c-.4-.6-.8-1.2-1.4-1.6-1.3-1-2.3-.7-3.1-.4l-.6.2-4.5 1c1-7.5 11.3-13.7 19.2-15a29 29 0 0 0-.6 14.8l-7.7 2.6-.7-.8-.6-.8zM396.5 341.5l-1-.7c-.6-.6-1.2-1-1.6-1.6a43.6 43.6 0 0 0 6.8-2.6l1-.6.3.3.5.5a21.2 21.2 0 0 0 6 3.8c.8.3 1.6.7 2.3 1.2l1.3-1.7c-.9-.7-1.9-1-2.9-1.5l-1.3-.5c-1.5-.8-2.7-1.8-4-3-.2 0-.3-.2-.4-.3-.5-.4-1-1-2.2-.9-.6.1-1.2.5-1.8 1l-.6.3c-1 .6-4.6 1.7-6.5 2.2l-.6-1-1.4-2.1-.7-.8c-.5-.6-1-1-1.1-1.6l-.3-1.2-1.2.5-4 2c-2.2 1.3-5 2.8-7 3.5l-.6-.6-2.3-2.3c-1.2-1-2.2-1.6-3.8 0l-1.5 1.5-1.8 1.8-2.6 2.2c-2 1.6-4 3.1-5.4 5l1.6 1.3a30 30 0 0 1 5-4.6c1-.7 2-1.5 2.8-2.3l2-2a29.9 29.9 0 0 1 1.7-1.7c.2 0 .4.3.5.4l2.3 2.2 1 .9v.6h.5l1.6 1.4 1.6 1c1.2.9 4.5 3.1 4.8 3.9v-.3l2 .5c.4-1.5-1.4-3-5.6-5.8a31 31 0 0 1-1.5-1l-.5-.5c2-.8 4.2-2 6.2-3.2l3-1.5c.2.5.6 1 1 1.3l.6.7 1.2 1.8 1.2 1.8c.8 1 1.7 2 3 3.2l1.2.8c.6.4 1.2.8 1.5 1.3l1.8-1.1a6.6 6.6 0 0 0-2.1-2zM292 228.7c3.3 1 7.1 4 8.5 6.1l.5.8 1.8-1-.4-.8a8 8 0 0 1 .2-5.8c.9-2.1 2.2-3.6 3.5-4l-.4-2c-2 .5-4 2.4-5 5.2-.5 1-.8 2.4-.9 3.8-2-1.9-4.8-3.6-7.2-4.4-2.2-.7-4-.6-5.3.1l1 1.9c.8-.5 2-.4 3.6 0zM331.5 231.8c3 0 6 3.7 7.5 7.2l1.3 2.8.7-3c1.1-4.2 2.5-6 4.5-6.1v-2.1c-3.2 0-4.9 2.8-5.8 5.2-2-3.3-5-6.2-8.3-6.2v2.2h.1zM365.1 231.2l2-.4c0-1.4 1-3.8 2.5-4.9.8-.5 1.5-.7 2.2-.4l.9-2c-1.4-.5-3-.3-4.3.7-1 .7-2 1.9-2.5 3.2-1.6-2.8-3.8-4.4-6.5-4.5v2.1c3.8.2 5.3 4.8 5.7 6.2zM222.2 226.8c2 0 5.5 5.1 6.8 7.7l1.5 3 .5-3.3c.2-1.2 1.7-2.9 3.3-3.7 1-.5 2-.7 2.6-.4l1-1.9c-1.3-.6-3-.4-4.6.4a9.7 9.7 0 0 0-3.5 3.1c-1.5-2.6-4.6-7-7.6-7-.8 0-2 .2-3 1.8l2 1c.4-.7.8-.7 1-.7zM127 453l3.2-2.7c3.9-3.2 7.8-6.6 9.1-12.4h.4c2.7 0 5-1.2 6.9-3.4 3.1-3.9 4.2-10.5 2.8-17.3-2.1-10.1-17-23.3-17.7-23.8l-1-1-.7 1.3a71 71 0 0 0-5.7 23.3c0 6.3 2.7 12.9 7 17-1.9 3.3-4.1 5.1-6.6 5.1-2.9 0-6-2.4-7.7-6.1l-14.7-31.7c6.7-3 15-8.2 18-17.3h.1v-.4-.1h-.1l-.6-1.6L64 402.2l.5 1.6-.2.3c3 1.5 7.7 2.4 13.3 2.4 3.8 0 8-.4 12.2-1.3l12.7 31.4c1 2.1.4 4.7-1.5 6.8-2.3 2.4-7 4.2-13 2 .4-3-.1-6.2-1.4-9.3-3.3-8-20.4-21-21.1-21.5l-1.4-1-.3 1.7a96 96 0 0 0-2 24.3c1.2 8.2 8.7 15.4 16.1 15.4.6 0 1.1 0 1.6-.2 1.6-.2 3-.7 4.2-1.6 5.6 6.5 13.2 7 20.6 7.5l4.3.3c3.4.4 7.3 1 11 2.9l1.2.7.3-1.4c1-4.9 3.6-7.8 6-10.1zm-59.5-49.9l50-18.1c-3.2 7.6-10.8 12.2-16.8 14.7a56 56 0 0 1-33.2 3.4zm17.1 48c-1.5-2-2.8-4.3-3.9-7.1 1.9 1.3 3.8 2.4 5.6 3.1l1.2.5c2 .6 4 1 5.7 1 4 0 7.3-1.7 9.2-3.8 2.6-2.7 3.3-6.1 2-9l-12.6-31c2.9-.7 5.8-1.6 8.5-2.7L115 434c2.3 4.5 6 7.3 9.6 7.3 2.3 0 5.5-1 8.2-5.8l.7-1.2c1.2-2.4 2.1-5.4 2.8-9 1.3 4.5 1.6 8.2 1.1 11.4-1 5.7-4.6 8.8-8.5 12l-2.6 2.3c-2-1.5-4.3-2.3-6.9-2.3a13 13 0 0 0-9.5 4.2 9.3 9.3 0 0 0-2.4 6l-3.1-.2c-7.6-.5-14.7-1-19.8-7.5zM183.7 453.5v-.4c-.1.4-1.2 1.6-1.8 2.1l-1 1.2h-.1c-.9-.1-1.8-.6-2.8-1-1-.5-2.1-1-3.2-1.2-1.5-.3-4.5-.4-6.1 1-.8.7-1.2 1.7-1 2.8.3 3.2 2.6 4.8 5 6a490.8 490.8 0 0 1-3.8 4.4l1.7 1.2a89.3 89.3 0 0 1 4.1-4.6c1.1.5 2.1 1 2.8 1.7a7 7 0 0 1 1.9 6c-.3 2-1.2 3.5-2.6 4.2a9.2 9.2 0 0 1-6.4.8c-1.9-.5-2.9-1.7-4.3-3.5 0-.1 0-.2-.2-.3.7-.8 1.2-1.6 1.2-2.5h-2c-.1.4-1 1.5-1.4 2l-.5.6-.8 1-1.4 1.8 1.7 1.3 1.4-1.8.5-.7c1.3 1.7 2.7 3.5 5.3 4.1a11.4 11.4 0 0 0 7.9-.9c2-1 3.4-3.2 3.7-5.9.4-3-.6-6-2.5-7.7-.8-.8-1.8-1.3-2.8-1.9.7-.9.7-1 .6-1.4l-.4-.7-1.2 1.7h-.1c-.4-.5-.4-1-.3-1.3l-.6.8c-2.3-1.1-4.2-2.3-4.4-4.6-.1-.6.1-.8.3-1 .8-.7 2.8-.8 4.3-.5.8.1 1.7.5 2.7 1l2.4 1c-.6 1-1.3 2-2 2.6l1.4 1.6c1-.8 1.8-2 2.5-3.3l.4-.6h.1l.6-.9 1-1c1.8-1.9 2.5-2.7 2.3-3.7l-2 .5zM214.6 487.3c-.2-3.8-.9-8.3-2-12.8l-.2-.8-.5-2.3a12 12 0 0 1 3.6-.8v-2.1c-1.4 0-2.8.3-4.1.8l-.2-1-.5-2.3-.6-2.6v-.8l-.2-1 3 .8.7-2a211 211 0 0 0-12-3.2l-.4 2.1 3.7.9c-1 1-1.8 2.4-2.6 3.6a32.5 32.5 0 0 1-3 4.3c-2.2-1.6-4.5-2.9-6.4-3.3l-.5 2c1.8.5 3.8 1.6 5.5 3-2.3 3-4.5 6.1-5.8 9.8l-2.6-.3.1 2.2c1.3-.1 3.5.5 5.2 1l1.7.4.5-2-1.6-.5-1.2-.3c1.2-3.3 3.2-6.2 5.4-9 1.4 1.5 2.6 3 3.1 4.5l.6 1.9 1.2-1.5a13.2 13.2 0 0 1 5.4-3.8l.5 2 .2.8c1 4.3 1.6 8.6 1.8 12.2l-2.4-.1v2.1l4.5.2h1.6v-2l-1.5-.1zm-6.7-16.6c-1.1.6-2.6 1.5-3.9 2.7-.7-1.4-1.8-2.7-3.1-4l1.5-2c.6-.7 1.2-1.6 1.7-2.5 1-1.4 1.8-2.8 3-3.8v-.1l.4.3c.3.5.4.8.4 1.5l.1.9.6 2.8.5 2.1.3 1.5-1.5.6zM227.5 483l1.3-5.4c.8 0 1.5.2 2.2.3l.5.1.4-.3.4-1.2-.6-.4-.4.4.1-.7a36 36 0 0 0-2.2-.3 90.7 90.7 0 0 0 1.2-7c.2-1.2.5-2.8 1-4 1.5.7 3 1.3 4.3 1.3v-2.1c-1 0-2.7-.8-3.9-1.3l-1.3-.5c-.6-.2-1.3-.5-2.1-1l-.5-.2-1.4-.9-1 2 1.2.7.7.4 2 .9a17.6 17.6 0 0 0-1.3 5.5l-.5 3.2-.5 2.7h-.1c-1.3-.2-3-.5-4.2 0l.9 2c.5-.3 2.1 0 3 0a105.1 105.1 0 0 0-2.2 9.2l-.2 1.4c-1.1-.2-2.6-.4-3.6-.2l.3 2c.8 0 2.7.3 4.1.6l2.4.3c.8 0 1.5.1 2.2.3l.6-2c-.9-.3-1.8-.4-2.7-.4l-1.3-.1.3-1.4.9-4zM251.6 495.7c-.4.8-.5.8-.8.8-1 0-2.3-.6-3.4-1l-.4-.1-2-.9a21.3 21.3 0 0 0-6.6-2h-.8a50.1 50.1 0 0 0 1.5-4.9 206 206 0 0 0 2.2-6.4c1.3-3.8 2.2-7.7 3.1-11.4l.2-.9.5.2 1-1.8-2.9-1.3-1.4-.9c-.6-.5-1.2-1-2-1.2l-.7 2c.5.2 1 .5 1.5 1 .5.3 1 .8 1.8 1l.2.2-.3 1.2c-.9 3.8-1.8 7.5-3 11.3l-.1.3-1-.3c-1.2-.4-2.6-1-4-.8l.3 2.1c.9 0 2 .4 3 .7l1 .3a241.5 241.5 0 0 1-2 5.9l-1 3.2a15 15 0 0 0-4.2-.7v2.1c1.5 0 2.4.3 4 .8.9.3 1.9.4 2.8.5l2.4.4c1.3.3 2.5.9 3.7 1.4l2 .8.5.2a13.7 13.7 0 0 0 4.1 1.1c1.7 0 2.2-1 2.7-2l.2-.4-1.8-1-.3.5zm-16-3.7s.3-.3.7-.3v.5h-.5l-.3-.2zM278.9 480.9c-1.6-1.1-6.3-3.2-8.7-1.8-.8.4-1.6 1.3-1.5 3.2.2 2 2.3 5 4.5 5.9a3 3 0 0 0 3.2-.6l-1.4-1.5c-.2.2-.5.3-1 .1-1.4-.5-3-3-3.2-4 0-1 .3-1.2.4-1.3 1.3-.7 5 .7 6.4 1.7 4.7 3.4 5.6 12.3 3.3 17.4-1.4 2.8-3.7 4.2-6.5 5.5-1.6.9-2.1 1-4.4.8-1.4 0-3-.6-4.7-1.4-2.4-1.1-4-3.1-5-5.8-.9-2.7-1-5.9-.3-8.9l4.2.5.2-2.1-3.8-.4c.2-.8.5-1.5.9-2.2a8.3 8.3 0 0 1 2.6-3.1l.2-.2c.7-.5 2-1.4 3.1-1.4V479c-1.9.1-3.4 1.2-4.3 1.9l-.3.1c-1.3 1-2.2 2.1-3.2 4-.5.8-.8 1.8-1.2 2.8l-3.6-.4-.3 2.1 3.4.4c-.7 3.3-.6 6.8.4 9.7 1.1 3.3 3.2 5.8 6 7.1a17.8 17.8 0 0 0 7 1.8c1.6 0 2.5-.4 4-1.2 3-1.4 5.9-3 7.5-6.6 2.8-5.9 1.6-16-4-20zM335.2 512.8l9.7-5.9-1.1-1.8-2.7 1.6c-.5-.6-1-1.2-1.3-1.9-1-1.6-2.1-3.2-4.8-4-2-.7-4.8-.8-6.9.6-1.2.8-2 2.1-2 3.8-.2 2.5 1.3 4.2 2.8 5.7l-3.1 2.8 1.4 1.6 3.3-3 .5.4c2.5 2.3 4 4.9 4.3 7.7v.4c.3 1.5.8 4.5-.3 5.4-1 .7-4 .9-6.4.7-2.6-.3-4-1-4.7-2.1l-.7-1.7-1-2.3 3.2-1.3-.7-2-9 3.5.8 2 3.6-1.5c.5.6.8 1.4 1 2.3l1 2c1.3 2.4 4 3 6.3 3.2h2.1c2 0 4.5-.1 5.8-1.2 2-1.6 1.5-5.2 1.2-7.3v-.4c-.6-3.3-2.2-6.3-5-9l-.4-.2.2-.2-1.4-1.6-.4.3c-1.3-1.2-2.4-2.4-2.3-4 0-1 .4-1.8 1.2-2.3 1.3-.9 3.4-.8 5-.3 2 .6 2.7 1.7 3.6 3.2.3.6.8 1.2 1.3 1.8L334 511l1.1 1.8zM449.2 564.4l-3.6-12.2 4.5-1.5-.4-2c-.8.1-2.8.7-4.7 1.4l-4.4-15.1 2.8.1.1-2.1-10.8-.6-.1 2.1 5.2.3-7.7 13c-1.8-1.2-4.2-2.5-6-2.4l.1 2c1.2 0 3.2 1.2 4.8 2.2l-6.4 10.9-3.2-.5-.3 2 11.4 1.8.3-2.1-6-.9 6-9.9.2.2c2 1.6 3 3.9 4 6l1 2.3 1-1.5a13.9 13.9 0 0 1 6.6-5l3.6 12.4-3.6 1.5.8 2 8.7-3.7-.8-2-3 1.3zm-8.5-12.5c-1.5.9-3 1.8-4.3 3.4a16.6 16.6 0 0 0-4.5-6.3l7-12L443 551c-1 .4-2 .7-2.3 1zM468.6 560l7.7-26.2 3.7-1.2-.6-2-9.5 3.1.7 2 3.3-1-7.2 24.2-12.4-22.4 3.8-1.7-1-2-9 4.2.8 2 3.5-1.6 13.2 23.9-7 3 .9 2 13.7-6-.8-2zM305.2 515l.6 2c.7-.2 1.2-.1 1.6.3.4.4.5 1.2.3 1.8a1 1 0 0 1-1 .7c-1 0-2.2-1.9-3.7-5.6l-.3-.8-.6-1.4c-.7-1.7-1.5-3.5-2.6-5a17 17 0 0 0 7.9-9c1-2.4 1.9-5.2.9-7.6-.7-1.6-2.2-2.8-4.5-3.7-3-1.2-10.4-2.7-13.8 0l1.3 1.6c.6-.5 1.5-.8 2.5-.9a73.8 73.8 0 0 0-3.4 14.9c-2-.5-4-.7-4.8 0-.4.3-.7.7-.7 1.2 0 .7.4 1.4 1 2a11 11 0 0 0 3.4 1.8l-1 3.3c-.5 1.3-1 2-1.4 2.2-.4.1-1.2-.1-2.3-.7l-1 1.8c.8.5 2 1 3 1l1-.1c1.5-.5 2.2-2 2.7-3.4l1-3.4c2.1.4 4.3.4 6.1-.2 1.2 1.4 2 3.2 2.7 5l.6 1.5.3.7c1.1 2.6 3 7 5.6 7h.1c1.3 0 2.4-.8 3-2a4 4 0 0 0-.8-4.2c-.9-1-2.3-1.2-3.7-.8zm-17.8-11l2.6.3-.2.7v.3c-1-.4-1.7-.8-2.4-1.4zm4.4 1.9l.1-.4.1-.6 3.2 1.2c-1.1 0-2.3 0-3.4-.2zm5.5-1c-.9-.6-2.8-1.4-4.8-2 .3-1.6.6-3 .7-4.6.3-2.1 1.8-7.8 3-11 2.4.1 5.2.7 6.8 1.4 1.8.7 2.9 1.5 3.3 2.6.6 1.3.3 3-.9 6a14.6 14.6 0 0 1-7.4 8 8 8 0 0 0-.7-.4zM317.6 497.8c.1-2.3-.8-4.3-2.4-5.3l-1.1 1.8c1.4.9 1.4 2.9 1.4 3.5h2.1zM352.2 519.4h-.2c-3 0-5.3 2.4-5.3 5.3s2.4 5.3 5.3 5.3h.2c2.9 0 5.3-2.4 5.3-5.3s-2.4-5.3-5.3-5.3zM378.3 536.9c-2-.4-4.2-.8-6-1.6l-.8 2c2 .9 4.2 1.3 6.4 1.7 1.8.3 3.6.7 5.2 1.3-1 1-3 2.5-4.3 3.3-1 .6-4.7 2.7-7.4 2.3-1.1-.1-2-.7-2.7-1.6-2-2.7-2.5-8.8-1.4-17.1.6-4.2 7.3-4 8.6-4 3.7.2 5.6 1.3 8.6 2.9l1 .5-3.6 3.5 1.4 1.5 8.4-8-1.4-1.5-4 3.8.5-1-1.3-.7c-3-1.6-5.3-3-9.4-3.1-4.9-.3-10.2 1.1-10.9 5.8-.9 6.3-1.3 14.6 1.8 18.7a6 6 0 0 0 5 2.5c3.2 0 6.5-1.8 7.9-2.7 1-.6 5-3.3 5.9-5l.5-1-1-.5c-2.2-1-4.7-1.5-7-2zM415.2 549.7l-.3 2c2 .3 2.2 1.8 2.2 2.2 0 1.1-.7 2.5-2.3 2.8-1.9.4-3.3-1.9-4.8-4.7l-1-1.6c-.6-1-1.1-2.3-1.6-3.4-.7-1.6-1.4-3.2-2.5-4.6 1.7-.2 3.3-.7 4.6-1.5 1.8-1 2.8-2.6 3.2-4.6.6-3.2-.5-6-3-8.3-3.7-3.3-10-4.6-14.7-3.2l.6 2 1.6-.3a52.6 52.6 0 0 1-1 7.2c-.3 1.4-.5 2.9-.6 4.4-1.7-.1-3.2.1-4.5 1l-3.4 2.5 4.1-.5a4.4 4.4 0 0 1 .7 0c.5 0 1.4.4 2.7.6l-.4 3.8-.8 7.7-4.4-.7-.3 2.1 9.1 1.6.4-2.1-2.7-.5.8-7.9.4-3.6c1.4.2 3 .4 4.7.4 1.7 1.3 2.5 3.2 3.4 5.4a29.1 29.1 0 0 0 2.7 5.1c1.4 2.5 3.2 5.9 6.2 5.9l1-.1c2.8-.6 4-3 3.9-5a4.4 4.4 0 0 0-4-4.1zm-13.4-9.7a22 22 0 0 0-4.1-1.5 83 83 0 0 1 .8-5.8c.3-2 .8-4.5.8-6.3 3.2 0 6.7 1.2 9 3.2a6.6 6.6 0 0 1 2.3 6.3c-.3 1.4-1 2.4-2.2 3.2-1.5 1-3.6 1.3-5.8 1.3l-.8-.4zM508.3 537.3c.3.4.4 1.7 0 2.9-.2 1.2-1 2.3-1.8 3.4v.1a14.4 14.4 0 0 1-6.5 4.5l-3 1.2-2.3.8-2.2.7a22.4 22.4 0 0 0-3.7 1.4l-1.7-10.2 3.5-.9.7-.1 1-.2c2.7-.5 6.4-1.1 7.2-5 0 0 .4-1.7 0-2.8l-2 .8v1.7c-.5 2.2-2.5 2.7-5.5 3.2l-1 .2-.8.1-3.4.8-1.4-8.3a8 8 0 0 1 1.4-1.1c2.3-1.5 5-1.9 7.6-2.3h.8c1.9-.4 3.4-.8 4.5-1.5.2-.1 3.8-2.3 2.8-4.4l-2 1v-.3c0 .4-1 1.4-1.9 1.8-.9.6-2.1 1-3.8 1.2l-.7.1c-2.8.4-5.8.9-8.5 2.6-1.3.9-2.4 2-3.5 3.8l-.4.5c-.8 1.2-1.7 2.6-1.7 4h2.1c0-.7.8-2 1.4-2.8l.1-.2 1.2 6.7c-1 .6-4 2.5-4.3 4.5l2 .4c.2-.7 1.5-1.9 2.6-2.6l1.8 10.6c-1.5 1.2-3 2.8-3.9 4.2l1.7 1.2c1.4-2 3.9-4.5 6-5.3l2.3-.7 2.5-.8a96 96 0 0 1 5.3-2c2.4-1 5.5-2.5 7.4-5.3 1-1.3 1.9-2.6 2.2-4.2.2-.6.7-3.2-.4-4.7l-1.7 1.3z"/><path d="M532.5 212.4c-3.5-4.2-18.8-4.1-49.2-4-21 0-47.1.1-79.4-1.2l-12.5-.6c-63.2-2.7-149.9-6.4-185.5 8.8-21.3 9-22.8 31.5-24.2 51.4-1 14.5-1.9 27.1-10.5 30.8-23.8 10-55.4 14.5-74.3 17.2l-.7.1c-.6-2.7-1.4-5.3-2.3-7.7l-.4-1.3-1 .6-50.5 5.7-.2.6c-6.5 18.5-4.3 49.3 4 58.8l.3.3 48.1 4.4.2-1.6.5.7.7-1.8a45 45 0 0 0 2-7.1h-.2l10.2 1c20.3 1.8 51 4.7 62.9 16 8.6 8.4 7.9 21.8 7.1 34.9-.5 9.8-1 19.1 3 25-16-.5-29.2 2-38.9 8.8-11.3 8-17 21.7-17 40.9v3.6h.3c2 10.6 10.1 20.2 23.2 27.2 13.6 7.2 32 11.2 51.9 11.2h.2c5.5-1 8.6-3 9-5.6l6-24a781 781 0 0 1 32.4 11.5c-3.8 2.3-5.2 7.4-4.5 11.6l.2 1c-14.1 3-38.4 14.2-56.9 29.8l-1.5 1.3 1.9.6a143.8 143.8 0 0 0 36 5.5c4.4 0 8.5-.4 12.2-1-13 10.1-28.8 31.3-29.5 32.3l-1 1.3 1.6.3c.2 0 6.4 1.3 15.3 1.3 14 0 35-3 49.8-18.8a15 15 0 0 0 6.5 1.5c.8 0 1.6 0 2.3-.2 0 .2.2.3.3.5 2.2 3.4 8.8 4.4 13 4.4l2-.1a21 21 0 0 0 10.6-3.8l1-1c.7-.6.9-.8 2-.7.7 0 1.3.1 2 .3 1.1.1 2.2.3 3.6.3a16 16 0 0 0 11.4-5.2c1.6-1.9 2.6-4.2 3-6.7h1a18 18 0 0 0 6.3-1.4c5.3 9.8 18 17.5 37.9 23.1 14.9 4.2 28.4 5.6 28.6 5.6l2 .2-1-1.8c-.4-.8-10.4-18.5-20.8-29 30.4 9.5 55.3 14.2 75.7 14.2 15.7 0 28.7-2.8 39.5-8.4 15.3-8 26.2-22 32.2-41.5l-1-.3 1-.1c-.8-12.7-3.9-23.5-9.1-32.3v-.2l-.2-.2a51.8 51.8 0 0 0-14.9-15.8 59 59 0 0 0-15-7.4l40.5 3 2-.1.2-.2c5-3.8 10.7-14.7 15.8-30.6l.6-.7-.3-.2a350 350 0 0 0 14-76.5c3.1-38 3-109.3-31.5-158.4zM97.2 317c19-2.7 50.7-7.2 74.8-17.4 9.8-4.1 10.7-17.3 11.8-32.6 1.3-19.2 2.9-41 23-49.6 35.1-15 121.5-11.2 184.5-8.5l12.6.5c32.2 1.3 58.4 1.2 79.4 1.2 27 0 44.7-.1 47.5 3.2 20.7 29.4 28.8 67 31.4 100.5l-.3-.2c-1.3 2.2-12.6 2.3-17.4 2.4H541c-25 1.3-50.5 1.6-73.8 1.7l3.4-17.9 18.3 11.4 1.2-1.8-8.7-5.3 5.3-26.9 9.6 5.8 1-1.9-4.3-2.6 2.7-15-1-.1-.7-1-12.8 9-2.5-1.5-1.1 1.8 6.3 3.8-25 14.7-5.7-3.6-1.2 1.8 16 9.9-23.7 19.5-6.9.3 1-21.6 16 10 1.2-1.7-7-4.4 9.5-33.4 15.7 11 1.3-1.7-6.7-4.7 7-29 8.6 5.6 1.2-1.7-9-6 8-11.3-1.8-1.2-8 11.3-.1-.3-.3.2-9.1-6-1.2 1.7 8.4 5.5-24.7 16.3-3.4-2.3-1.2 1.7 12.9 9.1-15.5 10.4 1-1.7-6.7-3.7 4-28.5 13.5 9.3 1.2-1.8-8.5-5.8 2.5-13.5-1-.2-.6-.9-12.2 6.9-10-6.8-1.2 1.7 14.1 9.7-27.4 16-13-7.2-1 1.9 23.2 12.7-31.8 18.8-15.5-8.6-1 1.8 29.3 16.3-41.8 28.9-12-.6c-1.4-9.4-3.6-17.4-5-22.1l16.9-38.8-.9-.5a155.6 155.6 0 0 0-88.8-15.4c-29.2 3.1-53.7 13.3-64.1 26.7l-.5.6 25.1 33c-1.7 4-3 7.7-4.1 11.2l-.4-.2c-2 3.2-17 2-25 1.3-2.9-.3-5.2-.5-6.6-.5-8.9 0-17.8.6-26.3 1-8.7.6-17.6 1.2-26.6 1.2h-28.2c-6.8 0-17.5 0-23.6 2l.6-1.9 9.4-1.4zm370.7-13.8l-2.9 15h-7.9l10.8-15zm-13.4 15h-6.8l16.5-13.6-9.7 13.6zm31.2-43.6l-2.5-1.5 7-4.8-4.5 6.3zm7-6.3l-1.7 9.5-3.5-2 5.3-7.5zm-23.2 29l-8.5-5.3 21.2-12.5-12.7 17.7zm14.5-16.7l-4.5 22.8-8.2-5 12.7-17.8zm-83.9 15l-3.3 26.8-1.5.1c-4.7.2-9.5.2-14.3 0l19.1-26.9zm-21.7 27l-16-1h-1.6l36-25-18.4 26zm47.3-17.8l6.2-4.4-4 5.6-2.2-1.2zm1 3l-3.5 5-4.7-2.8 5.3-3.8 2.9 1.6zm-3-4.1l-9.6-5.3 3.3-14.6 18.1 11.4-11.9 8.5zm-8.2-21.2l-3.3 14.8-9.5-5.3 8.6-12 4.2 2.6zm-3-4.3l5.8-8-2.3 10.1-3.5-2.1zm5.4 3.3l3.5-15.5L440 276l-14.8 10-7.4-4.7zm4.6-17.3l13.3-18.7-3.3 24.1-10-5.4zm-1.9-1l-9.5-5.3 22.6-13.2-13 18.5zm-9.9 13.9l-4.2-2.7-1.1 1.8 4.1 2.6-8.7 12.2-12.4-6.9 29.8-17.5-7.5 10.5zm-8.2 17.2l19.2 10.7-5.3 3.8-6-3.5-1.1 1.8 5.2 3-15.4 11 3.4-26.8zm14 17l5.5 3.2-4.2 6h-.2c-5.3.6-10.7 1.2-16.2 1.6l15.2-10.8zm7.3 4.2l6.3 3.7c-3.2.2-6.4.6-9.5 1l3.2-4.7zm1.3-1.7l3.5-5 1.3.8 1-1.9-1.1-.6 6.5-9.2-1 20.8-1.5.1-8.7-5zm2.2-26.3l26-17.6-16.5 23.5-9.5-6zm27.5-16l-8 28.2-8.2-5.1 16.2-23zm2.5-7.2l-8-5.7 22.4-14.8-14.4 20.5zm15-17.7l-5.8 24.2-7.5-5.3 13.3-18.9zm-37-9l9.4-5.3-2 10.3-7.3-5zm-66 133.2c.3 1.3.6 2.5 1 3.3l2-.7c-1.7-4.8-4-16.5-.9-22 1-1.7 2.2-2.7 4-3 3.3-.8 5.8-.4 7.2 1.2 2.7 3 2 9.5.4 14.2l2 .6a32 32 0 0 0 1.5-7.5c4.8-.3 7.7 1.2 9.2 2.6a7 7 0 0 1 2.5 5c0 1.4-.8 2.8-2.4 4.1-4 3.2-11.9 4.4-18.4 2.8l-.5 2c1.6.5 3.3.7 5 .8l-26.2 35.2h.1c-5 1-12 2.2-18.4 3l31.9-41.6zm-6 3.8l.5-.2-.3.4-.1-.2zm-28.8 38l-5.8.3-1.3-.9a82.4 82.4 0 0 1-6.6-5.1l-1.8-1.5c3.6-2.3 6-4.6 7.2-7 2.1-4.1 3-8.7 3.5-12.7 2.5-2 4.6-4.4 6.4-6.9v.6c2.5 0 5.4-1.7 8-3.1a39 39 0 0 1 3.3-1.8l6.5-2.9 4.4-2 .7 1c2.1 3 3.2 4.4 3.8 5.1l-28.3 37zm-4.3-30.2l.2-1.7c1-8.7 2-16.9 8.3-23.3l-1.5-1.5c-7 7-8 15.9-9 24.5l-.5 4.6a39 39 0 0 1-3.4 12.4 19 19 0 0 1-7 6.6l-.2-.2-1.7-1.5c-.4-.2-.5-.4-.6-.5-.6-.8-1.2-.6-2-.4h-.5c-1.2.4-2.4 1-3.6 1.6-1 .4-1.8.9-2.6 1.1l-2.1.8c-8.4 3-18 6.2-26.5 6.3l-1.8-1c-5.4-3-15.5-8.5-18-12.8l-.6-1-1 .6a18 18 0 0 1-4.5 1.6l-3.8-.7c-2.4-.4-5.1-.9-7.7-1.7a20 20 0 0 1-8-5.5c-4-4-6.3-11.1-6.3-19 0-4.1.4-6.4 1.6-10.8.6-2 1.4-4 2.3-6.2l1-2.6c2-5.2 3-11.4 3-19.7h-2.1a51.5 51.5 0 0 1-3.9 21.5l-.3.9c-5.6-15.2-6.7-28.8 2.8-50.2 3.7-6.2 22.8-11 48.6-12.2 4.5-.2 8.8-.2 13-.2-1.1 2-1.3 4.5-1.6 7-.1 2-.3 3.8-.9 5.2-.3.9-.4 2-.4 3.1 0 2.8 0 5.1-4.3 6.1l-.6.1-.2.6a7.8 7.8 0 0 0-.2 4c.1 1 .2 1.8.1 2.6-.3 1.8-1.4 3.1-2.7 4.5l1.5 1.5c1.5-1.5 3-3.2 3.3-5.6.2-1.1 0-2.2 0-3.2-.2-1-.3-1.8-.2-2.6 5.5-1.4 5.5-5.4 5.5-8 0-.9 0-1.8.2-2.3.4-.9.6-1.9.7-2.9 2 0 4.7.5 6.2 2 1 1.1 1.6 3.2 1.6 6v.6c-.1 1-.2 2 .7 3l1.5 1.4c.4.3.8.5 1 .8l.3.3c1.6 1.7 2.8 3 2.8 5.1 0 1.4-.7 4.8-1.4 5.2h.2l-.5 2 .5.1c.4 0 .8-.1 1.1-.4 1.7-1.3 2.3-6 2.3-7 0-2.9-1.7-4.6-3.5-6.5l-.2-.2c-.4-.5-.9-.8-1.3-1.1l-1.1-1c-.4-.5-.4-.8-.3-1.5v-.8c0-3.4-.7-6-2.2-7.4-2-2-5-2.8-7.4-2.7v-.8c.3-3 .6-5.8 2.3-7.2 19 .3 35.3 3 43.7 7.2 4.4 14.3 15.6 59.8-8.1 83zm-101-80l-23.6-31c10.3-12.6 34-22.3 62.1-25.3a154 154 0 0 1 86.8 14.7l-15.9 36.4c-11.2-5.4-34.4-8-59.9-6.9-20 1-43 4.6-49.4 12zm-135 13l-5.6.7c1.1-2.9 2.5-5.2 3.8-6.6.7 1.9 1.2 3.8 1.7 5.8zm-47 54.6c-7.7-9.3-9.5-38-3.6-55.7l46.4-5.3c-1.5 2-2.9 4.7-4 8.1a66.2 66.2 0 0 0 7.8 56.9l.1.2-46.7-4.2zm47.1 1a49.4 49.4 0 0 1-3.2-5.4l4.4.7-1.2 4.7zm85.5 47.6c.7-12.9 1.5-27.5-7.9-36.5-12.3-11.9-43.5-14.8-64.1-16.7A125 125 0 0 1 90 363a67.7 67.7 0 0 1-3.5-40.2c5.3-2.6 17.6-2.5 24.2-2.5H139c9 0 18-.6 26.7-1 8.5-.6 17.4-1.2 26.2-1.2l6.5.5c10.5.9 20.2 1.5 24.7-.6a56.5 56.5 0 0 0-.7 27.5l-2-1.7-.4-.4-.1-.2c-2.5-2-4.4-3-8-2.9-1.6 0-3 .4-4.4.8-1.6.5-3.2 1-4.4.6-1.2-.3-2-1-2.7-1.7-1.1-1-2.3-2-4.7-2.3-3-.2-7.8 1.4-9.5 4l1.8 1.1c1.2-1.8 5.2-3.1 7.5-3 1.7.2 2.4 1 3.4 1.8s2 1.7 3.6 2.2c1.9.5 3.8 0 5.6-.6 1.2-.4 2.5-.7 3.7-.8 3 0 4.4.6 6.5 2.4.2.3.5.7 1.3.9l3 .5a84 84 0 0 0 3.6 11.5l-.8 2.5c-1.3 4.6-1.7 7.1-1.7 11.4 0 8.4 2.5 16.1 6.9 20.5 2.1 2.2 5 4.8 8.8 6 2.3.7 4.5 1.2 6.6 1.5l-3.2.6c-5.2.8-10.6 1.6-15.3 3.3l.1.3-11.5-15.5a32 32 0 0 0-.4-22.6 14.6 14.6 0 0 0-8.6-7.8 8 8 0 0 0-8 1.8c-3.2 3-4.8 8-4.2 13.4-1.9-1-3.8-1-5.4-.8-4.7 1-7.9 5.5-7.9 11.1 0 2.1 1 4 2.6 5.6 3 2.7 8.3 4.1 12.5 4.5l44.7 61.5a278 278 0 0 0-58-11.4c-4.7-5.2-4.2-14.9-3.6-25.1zm19.7-24.9h1.4l-.2-2.1c-4 .3-11.5-.9-15-4.1a5.3 5.3 0 0 1-2-4c0-5.3 3.2-8.4 6.2-9 2-.4 3.8.2 5.4 1.5v.1h.1c1.4 1 2.5 2.7 3.4 4.7l2-.8c-1-2.3-2.3-4-3.6-5.2-1-5.4.2-10.6 3.3-13.4 1.8-1.6 3.9-2 6-1.4 3.2 1.1 5.7 3.4 7.3 6.7 3.1 6.4 2.3 15.5 0 21.6l1 .3-.8.7 55.9 74.7c-8.7-2.9-17-5.5-25.3-8l-45.1-62.3zm7.8 135.5v.1c-.5 1.6-3 3-7.3 3.8-39 0-69.4-15.6-73-37.2a70.1 70.1 0 0 1 32.3-3.4l-3.9 17.4c-.6 1.6-.3 3.3.8 5 3.9 5.7 19 10.2 34.2 10.2h1l1.4-8c8.2 4 14.5 8.5 14.5 11.8v.3zm-44-20.7c1.9 0 4.2.2 6.9.7 6.4 1.3 14 3.8 20.6 6.9l-1.3 6.9c-14-.2-28.1-4.3-31.6-9.3-.5-.8-.7-1.5-.6-2.2l.2-1c.5-1.4 2.6-2 5.7-2zm45 17c-5.1-7.3-24.4-15.8-37.7-18.4-5.6-1-9.8-1-12.4 0l3.2-14.4c14.1 1.4 31.1 5.4 52 12.1l-5.2 20.7zm41.9-7.3l-.1-.2c9.4 3.5 19 7.3 28.7 11.2-1 2.3-1.5 4.7-1.7 7.3v.4l-11.1.3h-3.8a37.6 37.6 0 0 0-8.8.7c-.2-.3-.7-.6-1.4-1l-.9-.6-.4-.4c-2.7-2.3-4.8-4.1-5.4-7.5-.6-4 .9-8.8 4.9-10.2zm-60.8 41.7a145.3 145.3 0 0 1 54.8-28.2c1.1 2.4 3 4 5 5.8l.6.4c.2.3.7.5 1.1.8-2.2.9-4.3 2.4-5 5-.9 3.8 2.5 8 4.7 9.8l2 2c-16.2 16-54.2 6.8-63.2 4.4zm19 38.1c4.2-5.6 20.8-26.6 32.1-33.3a31.7 31.7 0 0 0 13.6-7.8c.7.6 1.6 1.3 2.8 2 3.4 2.3 5.8 6.2 7 9.2.4 1 .7 2.3 1 3.7.8 3 1.6 6.4 3.4 8.3l1.2 1c-20.9 21.6-53.4 18.1-61.2 17zm72.2-20c-.7 1.4-1 2.5-1 3.5-1.9.5-7 0-9.7-2.9-1.4-1.5-2.2-4.6-2.9-7.3a22.1 22.1 0 0 0-9-14c-1.8-1.3-2.6-2.1-3.6-3.1l-2.5-2.3c-2.3-2-4.5-5.2-3.9-7.7.8-3 4.6-4 7.4-4.5 2.2-.4 4.4-.4 6.8-.4h3.9c5.8-.2 10-.3 11-.2.7 7.8 5.7 14.7 13 18.1 0 2.3-1.9 6-3.2 8.8l-1.2 2.4c-1.4 3.2-3 6.2-5 9.7zm8-29.8a16 16 0 0 0 12.2 5.6c6.3 0 12-3.8 14.7-9.6l4 1.6a21 21 0 0 1-20.2 11.6c-11.6-.6-20.6-10-20-20.8 0-2 .5-4 1.2-5.8 1.5.5 3 1 4.6 1.7a17 17 0 0 0 3.6 15.8zm35.8 28.8a13.9 13.9 0 0 1-13 4l-2.3-.2c-2-.2-2.8.6-3.6 1.3l-.8.8c-2.6 2-6.6 3.1-9.5 3.4-3.7.3-11.2-.4-13-3.3-.7-1-.6-2.3.3-3.9a113.2 113.2 0 0 0 6.3-12.2c1.4-2.7 3-6.1 3.3-8.8a24 24 0 0 0 24-4.3c4.7 3.5 10.2 9.4 10.8 14.9.3 3.2-.6 6-2.5 8.3zm4.6-7.5v-1c-.6-6.1-6.1-12.2-11.4-16.2 1.6-1.8 3-3.8 4-6l23.4 9h-.2c.8 2-1 6.7-2.7 8.8a14.9 14.9 0 0 1-5.1 3.6c-1.2.5-5 2.2-8 1.8zm72 27c-10-1.2-51.9-7.6-62.7-27.1 1.7-.8 3.9-2.1 5.4-4a16 16 0 0 0 3.4-9.4c10.5 3.9 20.9 7.5 31 10.8 9.4 7.7 19.6 24.3 22.8 29.8zM528.2 532c-6 19.2-16.1 32.4-31 40.1-25 13-62.5 10.6-118.3-7.4-28-9-57.5-20.8-86.1-32.3-27.3-10.9-53.1-21.2-77.3-29.1l-.7-.3a258.9 258.9 0 0 0-54.2-12.6 74.1 74.1 0 0 0-33.9 3.2v-.5c0-18.7 5.3-31.5 16.1-39.2 31.5-22.2 106.2 4.4 178.5 30.2l33 11.6 4.7 1.6.3.1.7.2.3.2.7.2c8.1 2.8 16 5.4 23.2 7.7l1.4.4h.2c1.4.5 2.7 1 4 1.3l.3.1.7.2a632.8 632.8 0 0 0 33.9 9.4h.4l.5.2c18.2 4.2 33.5 6.3 46.4 6.3 5.5 0 10.5-.3 15-1.1 15.3-2.5 26.4-9.4 32.9-20.4 6 10.8 7.8 22.4 8.3 30zm-143-65c2.5-1 5.6-1.8 7-1.7 1.4.2 3 1.3 4 2.4 1 1.3 2 3 2.5 5.2l.1.2c.6 2 1 3.7 3.1 5l3 1.4c2.2.8 4.3 1.7 5 3.8 1 3.5-2.5 6.8-5.9 8.6-3.1 1.6-6.9 2.3-10.5 3l-1.9.4a19.3 19.3 0 0 0-10.6-12 20.8 20.8 0 0 1 1.8-8.7c.5-1.3 1.2-2.5 2-3.5l.2-.3c.3-.4.7-.9.7-1.8 0-.6-.3-1.4-.5-2zm26.7 15.6c-.9-3-3.7-4.1-6.2-5.1l-2.6-1.2c-1.2-.8-1.6-1.6-2-3 7.7-9.8 20.1-15.4 42.3-19.3a42.5 42.5 0 0 1-31.3 31.6c.1-1 0-2-.2-3zm-3.6 28c-5.3-1.4-11-3-16.8-4.9a17.9 17.9 0 0 0 .6-8.4l1.8-.3c3.8-.7 7.7-1.5 11.1-3.3a18 18 0 0 0 4-2.8c1.8-.1 3.6 1.6 3.9 3.1.3 2.3 0 4.4-1.2 6.1l-.3.4a21.1 21.1 0 0 0-3 5.8c-.6 1.7-.4 3 0 4.3zm-35.8-23.8c-5.5 0-10.5 3.4-12.8 8.5l-3.6-1.3c1-2.2 2.4-4.3 4.3-6 3.3-2.8 7.6-4.4 12.1-4.4 8.3 0 15.6 5.5 17.3 13.2a15.7 15.7 0 0 1-.3 8.3l-3.2-1 .3-2.7c0-8-6.3-14.5-14-14.5zm-34.1-11.4c-.2-1.6-.3-3.4.4-4.2.4-.4 1-.5 1.8-.5 2 0 3.4.7 5.1 1.7 1 .5 2 .8 3.1 1h.5l1.3.2a31 31 0 0 0 7.6 13.6 18.6 18.6 0 0 0-4.1 6.1l-20.2-7 .7-.5 1-.6c.8-.7 1.4-1.4 1.8-2.3.8-1.7 1.1-3.5 1-5.8v-1.7zm45-6l-.3.4c-1 1.1-1.7 2.5-2.3 4a27.1 27.1 0 0 0-2 8.7 20.6 20.6 0 0 0-19 3.3 28 28 0 0 1-6.3-10.2c-2-5.1-2-8.6-.2-9.7 1.3-1 3.4-.8 5.2-.5 1 0 2 .4 2.9.7 1 .3 2.2.7 3.4.8 2.8.3 5.1-.9 7.3-2 1.8-.9 3.5-1.7 5.3-1.8 1.7-.2 3.5 1 4.5 2.2.5.5.8 1.3 1.1 2l.1.3.5 1.4-.3.4zm-42.8-.9c-1.5 0-2.6.4-3.3 1.3-1.4 1.4-1.2 3.7-1 5.7v1.6c0 2-.2 3.5-.9 5-.2.5-.6 1-1.2 1.4-.1.2-.4.3-.6.4-.5.3-1 .6-1.5 1.2l1.3 1-11.3-4-13.3-4.7.2-.3a43 43 0 0 1-13.8-19.4h3.3c22.8 0 34.7-.1 42.1 10.8zm125 38.6c9.3-.7 16.7-3.2 20.2-6.7v20.1c-14.8 2.3-34.1.6-58.9-5.1l1-22c4.5 8.9 17.4 13.7 37.6 13.7zm-12-2.9v-15.1c19.5-2 29.2 1.3 31.7 4.8.3.4.4.8.5 1.3v1.2l-.2.8c-1.4 3-7.6 6.8-20.1 7.7-3.6 0-7.7-.1-12-.6zm65-4.2c-6 10.9-16 17.5-30.6 20.2v-23.6c.2-1.4-.1-2.7-1-4-3.8-5.3-16.8-7.4-34.6-5.6l-1 .1V504c-11.6-1.8-23.2-6.5-23.2-18.2 0-3.6 14.4-10.6 34.8-11.3h5.8l9.6.7a52.7 52.7 0 0 1 40.2 24.8zm44.4-152.5h-.1c-1.9-.4-2.9-2.1-4.1-4.7l-.5-.9-.2-.5c-1.2-2.3-1.5-2.7-4-2.8h-.6a63.7 63.7 0 0 0-12.4 2.6c-.9-1-1.8-1.8-2.7-2.2-1.8-.9-4.9.5-9.4 2.6l-3.7 1.5c-.6-.7-1.1-1.5-1.9-2.2-2.5-2.3-4-1.2-5.5-.1l-1.7 1.1c-1.8 1-3.6 1.7-5.6 2.4l-3.4 1.3.8 2c1.1-.5 2.3-1 3.4-1.3 1.9-.7 3.8-1.5 5.8-2.5.8-.4 1.4-1 2-1.3 1.4-1 1.5-1.1 2.8 0 .8.7 1.4 1.6 2 2.6.7 1.2 1.6 2.7 3.1 3.8l3.6 2.3 3 2 1.2-1.8-3-2-3.5-2.3a7.7 7.7 0 0 1-2-2.1l3.4-1.5c2.4-1 6.7-3 7.7-2.6 1.2.6 2.7 2.6 4 4.3l2.8 3.3 1.4-1.6a21.5 21.5 0 0 1-3.2-4c2.9-.6 9.4-2.3 10.9-2.2h.6c1.4.1 1.4.1 2.2 1.7l.2.5.5.9c1.2 2.5 2.7 5.4 6 5.9a392.9 392.9 0 0 1-6.9 64.4c-1.5-.8-4.6-3.5-5.8-5l-1.6-2.5c-1-1.7-2.1-3.5-3.6-4.7l-.6-.5-.6.5c-5.8 4-12.5 6.6-19 9-4 1.5-8 3-11.8 5l1 1.9c3.7-1.9 7.7-3.4 11.5-4.9 6.4-2.4 13-5 18.8-8.8.9 1 1.7 2.3 2.5 3.6l1.7 2.7c.7.8 4.4 4.8 7.1 5.8-2.3 11.6-5 22-7.9 31-2.3 2-7.2 3.2-10.6 3.9l-1.9.4a86 86 0 0 1-8.3 1.6l-1.6.3c-1.5.3-3.5.6-4.6.2l-.8 2c.7.2 1.4.3 2.2.3 1.2 0 2.5-.2 3.6-.4l1.5-.3c2.8-.4 5.6-1 8.5-1.6l1.9-.4c2.8-.6 6.3-1.4 9-2.8-4.5 13.6-9.5 23-13.8 26.6h-1.1l-55.4-4-7.1-.6H463c-18.8.6-36.7 7-36.8 13.3L425 515c-4.5-1-9.2-2.3-14.1-3.6v-.2c-.5-1.5-.8-2.7-.3-4.2.5-2 1.6-3.5 2.8-5.2l.2-.4c1.5-2.2 2-4.8 1.6-7.6-.4-2.2-2.2-4-4.3-4.7l.6-1a44.9 44.9 0 0 0 34.5-35l.4-1.6-1.6.3c-22.8 3.8-36 9.4-44.3 19.3-.6-1.9-1.5-3.4-2.5-4.6a9.2 9.2 0 0 0-5.4-3.2 25 25 0 0 0-8 1.8l.3 1a8.3 8.3 0 0 0-7.5-5c-2.2 0-4.1 1-6 2-2 1-4 2-6.2 1.8-.5 0-1-.2-1.4-.3a61.2 61.2 0 0 0-44.5-32l-1.2-.1v1.3c0 12.2 4.6 19.4 8.5 23.4-7.1-1.6-16.2-1.6-27.9-1.6h-6.3l.5 1.5c3.1 8.9 7 14.3 11.6 18.8-10.6-3.8-21-7.4-31.2-10.8l-16.9-22.8c6.8-2.1 14.5-6.4 20.7-10l2.1 2.4c4.3 5 10 11.6 15.4 11.6h.6l-.2-2.2c-4.4.5-10.3-6.3-14.1-10.8-1.1-1.2-2-2.3-2.9-3.1l-.5-.6-.8.4c-6.4 3.8-14.7 8.5-21.6 10.5l-26.2-35c4.3-1.5 9.4-2.4 14.3-3.1 5.4-.9 10.1-1.6 13.2-3a65.1 65.1 0 0 0 18.4 12.6l2 1.2c3.4 1.8 8 3.2 12.2 4.5a123.4 123.4 0 0 1 10 3.3c1.7.5 3.4 1 5.1 1.7 2 .7 4.7 1.8 5.2 2.2-.1-.1-.3-.4-.3-.8l1 .2.4 1c.5-.2.7-.6.7-1.1 0-.6 0-1.3-6.3-3.5l-5.1-1.8-4.7-1.5a138 138 0 0 0-5.4-1.7c-2.7-.8-5.4-1.7-8-2.7 7.8-.8 15.9-3.6 23.1-6l2.2-.8c1-.4 2-.8 2.8-1.3 1.1-.5 2.2-1.1 3.2-1.3l.4-.1h.2l.8.6 1.4 1.2 1.1 1 2.7 2.2a86 86 0 0 0 6.7 5.3 128 128 0 0 0 24.9 12.9c8.4 3.4 17 3.9 24.9 3.9v-2.2c-7.8 0-16-.4-24.1-3.7-7.8-3.2-14.3-6.3-20-9.7 8.7-.6 21.4-2.7 27.7-4.2l1.8-.4c5.6-1.3 12.4-2.9 17.1-5.7 1.8 3.8 6 9 8.4 11a144.6 144.6 0 0 0 12.1 10.6c4.4 3.5 9.6 6 14.7 8.4l.7.3c10.9 5.2 19.3 8 25.3 8.6l.2-2.1a80 80 0 0 1-24.5-8.4l-.8-.4c-5-2.3-10-4.7-14.3-8-2.7-2.1-5.2-4.5-7.7-6.7l-2.4-2.2c8.4-.8 25.4-4.5 31.9-9.4 2 3.4 5.5 6.3 8.3 8.3 4.3 2.9 12.3 7 17.2 9.1a125.2 125.2 0 0 0 37.8 6.5l-.1-2.1c-8 .6-29-3-36.8-6.3a120 120 0 0 1-16.9-9c-2.9-2-6.6-5-8.2-8.6l-.7-1.4-1 1c-5.3 5.2-26.2 9.6-33.7 10a36 36 0 0 1-8-11l-.4-1.4-1.2.8c-4.4 3-11.7 4.7-17.5 6l-1.8.5h-.2l15.7-21c4.3-.8 8.3-2.6 12.2-4.3l2.1-1 2.6-1c3.3-1.3 6.8-2.7 9.5-5l4.4 3.2a71.2 71.2 0 0 1 6.3 4.8 49 49 0 0 0 5.8 4.5c1 .6 2 1.2 3 2 2.1 1.4 4.3 3 6.7 3.9a46 46 0 0 0 14.4 2.4h.4c.5-.2.8-.5.9-1 0-.2 0-.6-.4-1l.2.4h-1v-.5c-3.2-.1-9.1-.5-13.8-2.3-2-.8-4.2-2.3-6.2-3.7l-2.6-1.7 6.1-2.2c2.7-.9 5.2-1.7 6.9-2.5 1.8-.8 3.4-1.7 5.3-2.9l3.3-2c1.5 2.8 3.6 4.7 5.4 6.4l.7.6c2.6 2.4 5.3 4.7 9 6.5 1.3.7 6.9 3 12.2 5 5.6 2 8.6 2.7 10.2 2.7 1.3 0 1.7-.4 2-1l-1.8-1 .2-.2c-2 .8-16.6-4.9-22-7.4a32.7 32.7 0 0 1-8.3-6.1l-.7-.7c-2-1.8-4.2-3.7-5.5-6.7l-.4-1-1 .5-4.4 2.6a43 43 0 0 1-5 2.8c-1.6.7-4.2 1.5-6.8 2.4-2.8 1-5.7 1.9-7.5 2.7l-4-3.1c-1-1-2-1.9-3.2-2.7l-3.2-2.3c-1.7-1.2-3.5-2.4-5-3.7l-.7-.7-.7.7c-2.5 2.6-6 4-9.5 5.3l-2.6 1.1-2.1 1c-3.1 1.3-6.3 2.7-9.5 3.5l8.1-11c5 0 9.7-1.5 12.7-3.8 2-1.7 3.1-3.7 3.1-5.9a9 9 0 0 0-3.2-6.5 14.1 14.1 0 0 0-10.6-3.1c0-2.5-.7-4.9-2.3-6.6-2-2.2-5.1-2.9-9.3-2a7.9 7.9 0 0 0-5.3 4c-2.6 4.7-2 12.2-1 17.8l-4.5 6-3.4-4.7-1.2-1.6-.5-.7-.8.3-5.2 2.4-6.4 2.9c-1 .4-2.3 1.1-3.5 1.8-2 1-4 2.2-5.7 2.7 10.5-15.7 10.6-37 8.2-54.1 5.5.1 11.2.5 16.8.8a419.8 419.8 0 0 0 33 .8c7.5-.3 15.1-1.2 22.5-2 9.5-1 19.3-2.2 29-2.2a1962.1 1962.1 0 0 0 97.6-1.8c7.7 0 14.7-.4 17.8-2.2.8 11 1 21.6.8 31.2zm-122.4 48.2c.1-.4.4-.5.5-.6l.2.5h-.7z"/><path d="M340.7 468.5c-1.5 0-2.6.4-3.3 1.3-1.4 1.4-1.2 3.7-1 5.7v1.6c0 2-.2 3.5-.9 5-.2.5-.6 1-1.2 1.4-.1.2-.4.3-.6.4-.5.3-1 .6-1.5 1.2l1.3 1-11.3-4-13.3-4.7.2-.3a43 43 0 0 1-13.8-19.4h3.3c22.8 0 34.7-.1 42.1 10.8zM443.5 454a42.5 42.5 0 0 1-31.3 31.6c.1-1 0-2-.2-3-.9-3-3.7-4.1-6.2-5.1l-2.6-1.2c-1.2-.7-1.6-1.6-2-3 7.7-9.8 20.1-15.4 42.3-19.3zM401 596.5c-10-1.3-51.9-7.7-62.7-27.2 1.7-.8 3.9-2.1 5.4-4a16 16 0 0 0 3.4-9.4c10.5 3.9 20.9 7.5 31 10.8 9.4 7.7 19.6 24.3 22.8 29.8zM269.5 581c-20.9 21.6-53.4 18.1-61.2 17 4.3-5.7 20.9-26.7 32.2-33.4a31.7 31.7 0 0 0 13.6-7.8c.7.6 1.6 1.3 2.8 2 3.4 2.3 5.8 6.2 7 9.2.4 1 .7 2.3 1 3.7.8 3 1.6 6.4 3.4 8.3l1.2 1z"/><path d="M252.6 555.3c-16.2 16-54.2 7-63.2 4.5a145.3 145.3 0 0 1 54.8-28.2c1.1 2.4 3 4 5 5.8l.6.4c.2.3.7.5 1.1.8-2.2.9-4.3 2.4-5 5-.9 3.8 2.5 8 4.7 9.8l2 2zM94 374.1L47.1 370c-7.7-9.3-9.5-38-3.6-55.7l46.4-5.3c-1.5 2-2.9 4.7-4 8.1-.6 1.5-1 3.2-1.4 4.8a66.2 66.2 0 0 0 9.2 52l.1.3z"/></svg>