<svg xmlns="http://www.w3.org/2000/svg" width="271.8" height="332.4"><path d="M216.7 158l11-7.9c-2.8-1-4.5-4.3-4.8-7.4l-11.3 8.2c1 1.5 1.3 3.2 1.4 4.8a18.5 18.5 0 0 1 4.2 3l-.5-.7z"/><path d="M251.3 237.6c-9.5-12-22.4-19.3-41.8-23.9a14 14 0 0 1 2.7-2l1-.6 1.5-1 2.2-1.6.6-.4c1.5-1 3.2-2.2 3.5-3.9.1-.8-.1-1.7-.8-2.7-1.6-2.2-5-2.7-7.5-2l2.2-7.4 1.5-4.9.4-1.8c.2-1 .4-1.8.8-2.6l.7-1.1.8-1.2c.8-1.5 1.8-3.7 1.3-5.9l-.6-1.8c-.3-1.1-.7-2.2-.7-3.6a37.3 37.3 0 0 1 0-6c0-1.6-.6-3.2-1.9-4.4l12.7-9-1.1-.3 9-5.2h.2l21.8-12.6c.5 0 .9-.3 1-.8.7-1.2.1-3.4-.8-4.7-1.6-2.5-3.1-3.5-4.3-3.2-.3 0-.5.2-.7.4l-31.2 18.3v-.8l-4.2 3c5.3-6.1 4.3-12.9 3.2-19.5a27 27 0 0 1 0-12.8c1.6-4.7 3.5-8 5.2-11.3 3-5.4 5.5-10 5.6-19 0-8.6-7-15.4-13.6-22a56 56 0 0 1-9-10 53 53 0 0 1-5.6-13.8 29 29 0 0 0-11.8-18.3c-10.5-8-20.1-7.8-29.4-7.8-4.3 0-8.9.1-13.4-.7-5-.9-8.4-2.7-11.8-4.4A30.5 30.5 0 0 0 121 .1c-22.7 1.4-32 15.4-38.2 24.6a24.5 24.5 0 0 1-6.5 7.8l-2 .6C60 37.9 51.6 49 49.2 66v.3c-1 6.5-4.5 9.8-8.2 13.2-2 1.8-4 3.7-5.6 6a28 28 0 0 0-3.9 22.5 36.6 36.6 0 0 0 16.8 23l.7 1.4a67.4 67.4 0 0 1 5.4 13.6c2.9 9.4 4.3 14.2 25.5 18.8 1.7 6.5 5.3 13 10 18.8a5 5 0 0 0-2.1 3.3c-.1 0-9 7.7-26.4 15-3.4 1.5-6.9 2.7-10.5 4A86.9 86.9 0 0 0 12 229C-4.5 246.8.8 290.8.8 291.3l1-.1c0-.5-5.3-44 11-61.5 12.5-13.5 25.6-18.2 38.3-22.8 3.7-1.3 7.2-2.5 10.6-4a113.1 113.1 0 0 0 25.9-14.6 5 5 0 0 0 2 3.6 5 5 0 0 0-3.7 4.9 5 5 0 0 0 2.6 4.3 5 5 0 1 0-1.3 9.4c-3 .4-5.4 3-5.4 6.1 0 2.6 1.5 4.7 3.8 5.7a6.1 6.1 0 0 0 0 11.3 6.8 6.8 0 0 0-3.8 6.3c0 2.6 1.3 4.9 3.4 6A867.3 867.3 0 0 0 59 296.2c.3-1.5.4-2.8.4-4V289a65.9 65.9 0 0 0-.2-7l-.3-4.5-.3-6-.1-2-.1-1.2c0-2.1-.2-4.5-1-6.3l-.9.4c.7 1.6.8 3.9.9 5.9v1.3l.2 2c0 2 .2 4 .4 6a60 60 0 0 1 .3 7.3v7.3c.1 1.2 0 2.5-.3 3.9v-.1l-.1-.6-.3-2.7-.3-3.3v-.5c-.3-2-.4-4-.8-6l-.4-3.8a57.6 57.6 0 0 0-1.8-9.8l-.4-1.4c0-.7-.2-1.3-.4-2l-.5-1c-.2-.6-.5-1.3-.5-1.9h-1c0 .8.3 1.6.6 2.3l.4 1 .5 1.8c0 .5.2 1 .3 1.4.6 2.3 1.1 4.3 1.4 6.3l.4 3.4c.1 1.3.2 2.6.5 3.9.3 1.9.5 4 .6 5.9v.5a194.4 194.4 0 0 0 .8 6.6c.3 2.3.3 3.6.1 3.9L50.7 314l.9.4A818.5 818.5 0 0 1 90.9 238l.2-.2 1.2-2.2v-.1l.2-.2a620.5 620.5 0 0 1 8.2-13.6l.5-.7a28.7 28.7 0 0 1 10-9.3c7.2-3 31.9-9.9 35.2-10.7 3.5-.8 4.5-2.2 5.9-5.3a99 99 0 0 0 4.7-13.9l.2-.5c.7-2.6 2-4.8 4-7.3a49.7 49.7 0 0 1 9.3-7.5 53 53 0 0 1 8.2-5.1l-.4-.9a54.4 54.4 0 0 0-8.4 5.2l-3.6 2.4c-1.3.9-4.8 4.2-5.8 5.3a19.3 19.3 0 0 0-4.3 7.6l-.2.5a98.3 98.3 0 0 1-4.6 13.8c-1.4 2.9-2.2 4-5.3 4.8l-9.3 2.5A55.3 55.3 0 0 1 91 183.5a49.7 49.7 0 0 1-10.2-18.6c.5-.3 1-.8 1.5-1.6l.3-.6c1.5-2.7 5.3-12.1-1.4-29.9-.5-1.3-1.3-2.8-2.3-4.5-3.7-6.6-8.9-15.7-.7-27.5 1.6-2.4 3.6-3.8 5.4-5.2C87 93.3 90 91 90 84.2c0-1.4-.2-3.1-.5-5A32.3 32.3 0 0 1 90.7 60 79.7 79.7 0 0 0 139 77h.5c1.5 0 2.8 1.6 4.8 4 4.2 4.9 11.2 13.2 30 18 .8.3 1.4.6 1.8 1l.1.1.2.3c.5.7.7 1.5 1 2.4l.5 2c-10.2-6.1-23.5-3-31.6-1l-4 1 .2 1.4a69 69 0 0 0 4.1-1c8.3-2 22.1-5.3 32 1.7l.2-.3.7 1c-.2 2.1.1 4.4.6 6.7-1.8-1-5.6-2.9-10.8-4l-1.6-.2a34.4 34.4 0 0 0-26 6.6l.6.8a35.7 35.7 0 0 1 13.5-6.2 33.2 33.2 0 0 1 13.3 0 31.4 31.4 0 0 1 11.3 4.3l1.1 4.3c2.3 8 4.5 16.4-1.7 23.9-1.7 0-3.7 0-4.6 1.4-1.3 2 .8 4 1.6 4.7l2.7 2.3a22 22 0 0 0-3.1.6l-1.9.4c-1.7.4-3.5.7-4.6 2.3l-.3.8v.1c.3 2 3.1 3.3 5.7 3.8 1.6.3 2.8.2 3.6-.2l.5 1c1 1.6 3 2.8 4.3 3l.1 5-.3-.2c-1 2-4.2 4.6-6 6.1l-.2.1-.8.7c-1.9 1.6-4.8 4-6.8 2.8l-.5.8c.6.4 1.2.5 1.8.5l1.1-.1-.2 1.2c-.6 3-2 10.4-4 13.7-.2 0-.3.2-.4.3-.3.5-.6.9-1 1-.3.3-.7.3-1.1.1l-.4 1a2.3 2.3 0 0 0 2-.2l.8-.6c0 .6.2 1.1.3 1.6l.5 2.2c.2 2 .2 3.8 0 5.3-.4 2.7-2 4.8-3.7 7l-.8 1.2c-2.4 3.2-5 6-8 8.1l-4 3.3-5.7 4.4c-3.4 2.3-7 3.6-11.5 4.1l-3.1.5c-2.7.5-5.5 1-8.1.3l-.3 1c1 .3 2.1.4 3.2.4 1.8 0 3.6-.4 5.3-.7a42.5 42.5 0 0 1 4.7-.7c.1 1-.9 2.4-1.6 3.3l-.2.4a12 12 0 0 1-3.7 3l-.3.2c-3.2 2-7 2.4-10.7 1.1l-.4 1a13.7 13.7 0 0 0 6.9.6l-29 88.3.9.3 22.9-69.5 3 .3 4 .4c2.5 0 4.1.2 5.2 2.4l.9-.4c-1.3-2.7-3.4-3-6-3l-4-.3-2.8-.3 6-18.4h-.2c1.4-.4 2.6-1 3.9-1.7l.2-.2c1.5-.9 2.9-1.8 4-3.2l.2-.4.2-.2c2 1 4.8 1.3 6.9 1.4h.5a34 34 0 0 0 8.5 0c5-.6 10.4-1.7 14.2-5 0 1.3.3 2.6.8 3.8a7 7 0 0 0-2.4 5.4 7 7 0 0 0 2.5 5.4 6 6 0 0 0-3 1.8l-3.4.4-2.9.2c-2.3.4-4.2 1-6 2.1a30 30 0 0 0-8.6 8.3l.8.6a29 29 0 0 1 8.3-8c1.7-1 3.5-1.7 5.7-2l2.8-.3 2.5-.2a7.1 7.1 0 0 0 1.3 9c-3.2.3-5.7 3.2-5.7 6.8 0 1.7.6 3.2 1.5 4.4l-1-.1c-3.4 0-6.2 3-6.2 6.8 0 1 .2 2 .6 2.9-.7-.3-1.5-.5-2.3-.5-3.4 0-6.2 3-6.2 6.8v.5c-1-.7-2-1-3.3-1-2.8 0-5.2 2-6 4.8a6.2 6.2 0 0 0-5.4-3.6 6.2 6.2 0 0 0-5.5 3.6 6.3 6.3 0 0 0-6-4.8c-3.4 0-6.1 3-6.1 6.7s2.7 6.8 6.2 6.8c2.3 0 4.4-1.4 5.4-3.6.8 2.8 3.2 4.9 6 4.9s5.2-2 6-4.9c1 2.2 3 3.6 5.4 3.6 3.4 0 6.2-3 6.2-6.8v-.5c1 .6 2 1 3.3 1 3.4 0 6.2-3 6.2-6.7 0-1-.2-2-.6-3 .7.3 1.5.5 2.3.5 3.4 0 6.2-3 6.2-6.7 0-1.7-.6-3.2-1.5-4.4h1c3.4 0 6.2-3 6.2-6.7 0-2.2-1-4.1-2.4-5.3 3.2-.3 5.7-3.2 5.7-6.8a7 7 0 0 0-2.5-5.4l1.9-.8c.5 1 5 22.3 8.5 39.3 3.7 17.8 6 28.8 6.3 29.5l1-.3c-.3-.8-3.4-15.3-6.3-29.4a1119 1119 0 0 0-8.7-39.7l-.2-.4c-.8-1.6-2-3.2-3-4.7a29.3 29.3 0 0 1-3.6-5.5c-.7-1.7-1-3.3-.8-5 .1-1.3.6-2.8 1-4.3.4-1.4.8-3 1-4.5v-3.9c0-2 0-3.8.5-5.7.7-2.7 2-5 3.3-7.4a24 24 0 0 0 3.8-10.6l.3-3 .1-.5a11 11 0 0 1 1.4-3.7c1-1.7 2.6-3.4 4.2-5.1l2-2.2.1-.1v-.2c.4-4 .2-8 0-11.8v-7h-.6c-.8 0-3-1-3.9-2.5a7.4 7.4 0 0 1-1-4l-1-.2c-.1 1 0 1.9.3 2.6-.4.4-1.6.5-3.2.2-2.1-.4-4.5-1.6-4.7-2.8v-.4c1-1.2 2.4-1.5 4-1.8l2-.4c1.8-.6 5.3-1.1 7.1-.7 1.7.3 4 2.4 5.5 4.3s2.7 3.7 3 6c.3 1.3.3 2.6.3 4 0 1.3 0 2.8.3 4.2a48.5 48.5 0 0 0 2.8 9.4c.6 1.3 1.1 2.4 1.1 4 0 2.4-1.2 4.8-2.4 7l-.8 2.5c-.4 1.3-1.3 4.1-1.8 4.4l.2 1c1-.2 1.6-2 2.5-5.1.3-1 .6-2 .9-2.4 1-2.2 2.4-4.8 2.4-7.3 0-2-.6-3.2-1.2-4.5l-.8-1.8c-.7-1.8-1.3-4.2-2-7.4-.2-1.3-.2-2.7-.2-4a22 22 0 0 0-.4-5 16 16 0 0 0 2.3-2 3.9 3.9 0 0 0 1-4.5c-1-2.5-4.3-2-6.8-1.7l-1.9.2c-1.2-1-2.5-2-3.8-2.3a11.8 11.8 0 0 0-3-.1c-.4-.2-2.2-1.6-3.5-2.9-1.6-1.4-2-2.5-1.5-3.4.7-1 2.9-1 4.4-.9h.2c2.5.2 5 .1 7.3 0h4c2.6 0 4.2 1.6 6 3.5l1.4 1.2c.4.5 1 1 1.7 1.5 1.7 1.4 3.8 3.1 4.4 4.7 1 2.5.7 6.6.5 10a175.8 175.8 0 0 1-.5 7.3c0 2-.2 3.8-.3 5.8v3.2c0 2.7.1 5.3-1.4 7.7l-2.4 3.6c-1.3 1.6-2.5 3.3-3.5 5.2l.9.5c1-1.8 2.2-3.5 3.4-5.2l2.5-3.6c1.6-2.6 1.6-5.5 1.5-8.3v-3c0-2 .2-4 .3-5.8l.4-6v-1.4c.3-3.4.5-7.6-.5-10.4-.7-1.8-2.8-3.5-4.7-5l-1.7-1.5-.6-.7a18.2 18.2 0 0 0 2.3-2.6l.8-1v.2c1.3.7 3.3 2.1 4.9 3.2l.7.5c3.4 2.4 4 5.3 4 9.3l.1 2.7v6.7c-.2 1.2-.2 2.5-.3 3.8 0 1.3.3 2.4.7 3.5l.5 1.8c.3 1.6-.1 2.6-.7 3.9l-.5 1.1a60.3 60.3 0 0 1-2.7 6.3l-1 2.1c-.7 1.5-1.5 3.1-2 4.7l1 .2c.4-1.4 1.2-3 1.9-4.4l1-2.2 1-2.3c.7-1.3 1.3-2.7 1.8-4l.5-1.1c.5-1.4 1-2.6.7-4.5l-.5-1.9c-.4-1-.7-2-.7-3.2l.2-3.8.2-3v-3.8l-.1-2.6v-.8a19 19 0 0 1 3 2.1 5.7 5.7 0 0 1 2 4.3v6c0 1.5.4 2.6.8 3.8l.5 1.8c.5 1.8-.5 3.8-1.2 5.1l-.7 1.1-.8 1.2c-.5 1-.7 2-.8 2.9l-.5 1.7a573 573 0 0 0-5.8 20c-1.2 4.7-2.7 10.9-3.6 17.2v.2c-.7 4.2-1.4 8.8-.4 13 .9 3.6 1.9 5.3 2.7 6.7.8 1.4 1.5 2.5 1.9 4.9l.1 3c0 1.5 0 3 .6 4.6.5 1.4 3.4 7 6.8 13.5a292 292 0 0 1 8.9 17.5c1 2.9 6.1 16.1 10 23.8l1-.4c-4-7.7-9-20.9-10-23.7-1-2.4-5-10.1-9-17.7-3.2-6.1-6.3-12-6.8-13.3-.5-1.4-.5-2.8-.5-4.3 0-1 0-2-.2-3.2a13 13 0 0 0-2-5.2c-.7-1.4-1.7-3-2.5-6.4l-.1-.5 4.7-2.8.6-.5 5.3-3.2-.4-.8c-1.4.7-3.8 2.2-5.4 3.2l-.7.5-4.3 2.6c-.5-3.6 0-7.6.6-11.1v-.2c.6-3.4 1.2-6.7 1.9-9.7 38.3 8.7 54 29.2 62 80.9l1-.2c-4.2-26.9-10.7-45.2-20.5-57.7zM86.7 196.8c0-2.2 1.7-4 3.8-4.3a5 5 0 0 0 2.2.5h.2a4.2 4.2 0 0 1-2 8c-2.3 0-4.2-1.9-4.2-4.2zM85 206c0-2.4 2-4.3 4.3-4.3a4.3 4.3 0 0 1 0 8.5c-2.4 0-4.3-1.9-4.3-4.2zm-2.4 10.5c0-2.8 2.4-5.2 5.3-5.2 2.8 0 5.2 2.4 5.2 5.2a5.2 5.2 0 0 1-10.5 0zm0 11.3c0-2.8 2.4-5.1 5.3-5.1 2.8 0 5.2 2.3 5.2 5.1s-2.3 5.1-5 5.2H88h-.2c-2.8 0-5-2.4-5-5.2zm7.6 9.1l-.2.5-1.1 1.9-.9 1.5-1 1.6-.7 1.3-.7 1.3c-1.8-1-3-3-3-5.2 0-3.2 2.4-5.8 5.3-5.8 1.2 0 2.3.5 3.3 1.3l-1 1.6zm6.6-46.3c7.3 6 19.2 12.9 36.2 13-8.3 2.4-18.1 5.3-22.3 7a29.4 29.4 0 0 0-10.5 9.7l-.5.8c-.2.3-3.2 5-8 13.3l-1.5-.9a6.2 6.2 0 1 0 0-11.3 6.1 6.1 0 1 0 0-11.3 5 5 0 1 0 1.5-9.3 5 5 0 1 0 2.2-9c1.2-.3 2.2-1 2.9-2zm-.6-.5a4.3 4.3 0 0 1-3.2 2 5 5 0 0 0-2.1-.5h-.3a4.2 4.2 0 0 1-.3-7.4c1.9 2.2 3.8 4.1 5.9 5.9zm22.8 109.7c-3 0-5.2-2.6-5.2-5.8 0-3.2 2.3-5.7 5.2-5.7 2.8 0 5.2 2.5 5.2 5.7s-2.4 5.8-5.2 5.8zm11.4 1.3c-2.9 0-5.2-2.6-5.2-5.8s2.3-5.8 5.2-5.8 5.2 2.6 5.2 5.8-2.3 5.8-5.2 5.8zm11.4-1.3c-2.9 0-5.2-2.6-5.2-5.8 0-3.2 2.3-5.7 5.2-5.7a5 5 0 0 1 3.6 1.6 7 7 0 0 0 1.4 2.5l.2 1.6c0 3.2-2.3 5.8-5.2 5.8zm9.5-6.3a5 5 0 0 1-3.6-1.6c-.3-1-.8-1.8-1.4-2.5a6 6 0 0 1-.2-1.6c0-3.2 2.3-5.8 5.2-5.8 2.9 0 5.2 2.6 5.2 5.8 0 3.1-2.3 5.7-5.2 5.7zm13.1-15c0 3.2-2.3 5.8-5.2 5.8-2.9 0-5.2-2.6-5.2-5.7s2.3-5.8 5.2-5.8c2.9 0 5.2 2.6 5.2 5.8zm5.7-11c0 3.2-2.3 5.8-5.2 5.8s-5.2-2.6-5.2-5.8 2.3-5.8 5.2-5.8 5.2 2.6 5.2 5.8zm3.3-12c0 3.1-2.3 5.7-5.2 5.7-2.8 0-5.2-2.6-5.2-5.8 0-3.2 2.4-5.7 5.2-5.7h.1c.7.2 1.3.4 2 .4 1.8.9 3.1 3 3.1 5.3zm-6.2-16.5c0 .2.2.4.3.5l.3.6.5.9.3.5a86.6 86.6 0 0 0 1 1.3l1 1.3.7 1c0 .2.2.3.3.4l.5.7.2.4a10.4 10.4 0 0 1 .8 1.2l.2.5c-.8.5-1.7.8-2.7.8h-.1c-.6-.2-1.2-.4-2-.4-1.8-1-3.1-3-3.1-5.3a6 6 0 0 1 1.8-4.4zm16.7-61c-.3 1.2-1.5 2.4-2.4 3.3l-.3.3c-.5.6-1.2 1-1.8 1.4-.5.2-.9.2-1.3.2l-1.2.3.3 1c.3-.2.6-.2 1-.3.5 0 1 0 1.6-.3.8-.4 1.5-1 2.2-1.6l.2-.3 1.6-1.8v1.4l-2 2c-1.5 1.7-3.2 3.5-4.3 5.3-.8 1.4-1.3 2.9-1.5 4.4-.3.5-1.1 1-1.6 1.4l-.4.3c-.8.5-1.8.5-2.7.5h-.5v1h.8c1 0 2 0 3-.7l.3-.3.8-.5a37.5 37.5 0 0 0-.2 2.8 23 23 0 0 1-3.5 9c-1.3 2.3-2.7 4.8-3.4 7.6-.5 2-.5 4-.5 6 0 1.2 0 2.4-.2 3.7-.1 1.4-.5 3-1 4.4-.3 1.4-.7 2.8-.9 4.3-3.5 3.7-9.2 4.8-14.3 5.3-3 .4-5.9.4-8.3.2h-.5a19 19 0 0 1-6.4-1.4c.6-1 1.2-2 1-3a25 25 0 0 0 9.3-4c2-1.3 4-2.9 5.8-4.4l4-3.2c3-2.2 5.8-5 8.2-8.3l.8-1.2c1.7-2.2 3.4-4.5 3.8-7.5a23.5 23.5 0 0 0-.8-10.3 46.4 46.4 0 0 0 4.5-15.7h-.2c1.5-.7 3-2 4.2-3l.7-.6h.2c1.8-1.5 4.5-3.7 5.8-5.7 0 2.7.2 5.4.1 8zm5.8-23c2.3-.2 5.1-.6 5.8 1.2.5 1.3.2 2.5-.7 3.4a65.7 65.7 0 0 0-2 1.7 16.2 16.2 0 0 0-4.1-6l1-.2zm65.7-30.8l.2-.2.3-.2h.1c.8 0 2 1 3.1 2.8 1 1.3 1.2 3.1.8 3.8 0 .2-.2.3-.4.3-.8 0-1.8-1-3-2.8-1-1.3-1.4-2.9-1.1-3.7zm-22 12.8l21-12.3a7 7 0 0 0 1.3 3.8c.7 1 1.6 2.2 2.6 2.8l-20.8 12c-.7-.2-1.6-.7-2.3-1.6-1.2-1.4-2-3.3-1.8-4.7zm-1 .6c.1 1.5.9 3.4 2 4.8.7.7 1.3 1.2 2 1.5l-8.9 5c-2-1-3.4-3.5-3.7-6.2l8.6-5.1zM121 1c8.5-.6 13 1.7 17.7 4.1 3.4 1.8 6.9 3.6 12 4.5 4.7.8 9.2.8 13.6.7 9.2 0 18.6-.1 28.8 7.6 8.1 6.2 9.6 11.3 11.4 17.7 1.2 4 2.5 8.6 5.7 14 2 3.5 5.5 6.8 9.2 10.4 6.5 6.4 13.3 13 13.3 21.2 0 8.7-2.6 13.2-5.4 18.5-1.7 3.1-3.7 6.7-5.3 11.5-1.4 4.2-.7 8.8 0 13.3 1.1 7.5 2.3 15.2-6.5 22 3.2-7.4 1.6-15.1.1-22-.7-3.5-1.4-6.8-1.4-9.7 0-2.2.5-5 1-8.3 1.2-7.3 2.9-17.4.4-28.2-1.2-5-5.3-9.2-9.3-13.2-3-3.1-5.8-6-7-9-1.3-2.9-2.4-5.7-3.4-8.4-2.8-7.5-5.3-14-9.7-19.1-4.4-5-17.3-8.4-27.7-11.1l-6.7-1.8c-2.6-.8-5.2-2-8-3.4-4-2-8.2-4-13.1-5-6.7-1.2-11-1-15.5-.6-3.8.2-7.8.5-13.6-.1 5-3 11.4-5.1 19.4-5.6zM91.1 15c7.6 2.9 15 2.5 22.2 2a68 68 0 0 1 16 .5c4.8.9 8.9 3 12.8 4.9a50.8 50.8 0 0 0 14.5 5.2c8.9 2.3 20 5.2 24.1 10 3.5 4 5 9.4 6.6 14.5 1 3.6 2.2 7.3 3.9 10.6a34 34 0 0 0 7 8c4 3.8 8.1 7.7 9.3 12.6 2.3 10 .6 15.1-.9 19.6-.8 2.4-1.5 4.6-1.5 7.2 0 3.6.7 7.3 1.4 10.8 1.1 5.8 2.2 11.2.4 16.3a21 21 0 0 0-1.1-.4c0-.8-.2-1.7-.6-2.6-.7-1.4-1.7-1.8-2.4-1.9-.5 0-1 0-1.5.2.4-4.2-.6-7.6-1.6-11.3a29.2 29.2 0 0 1-1.2-17.1c.9-4.2 1.8-9-.7-19.7a29.6 29.6 0 0 0-8.4-13c-2.3-2.4-4.4-4.8-5.8-7.4-1.7-3.1-3-6.7-4.4-10-2-5.3-3.7-9.8-6-11.4a65.5 65.5 0 0 0-20.1-7.8l-5.7-1.6c-2.6-.7-5.2-2-8-3.4-4-2-8.1-4-13-5-5.5-1-11.5-.6-17.8-.2-8 .6-16.4 1.1-23.7-1.4a75 75 0 0 1 6.2-8.1zM32.4 108a27 27 0 0 1 9.1-27.5c3.7-3.5 7.5-7 8.5-13.9v-.3a39 39 0 0 1 13.7-26.5c-8.8 9-9.6 22.5-10 29.3l-.2 3.2c-1 6.7-3.2 9-6 12-1.4 1.3-3 2.9-4.4 5-8.5 12.3-.8 30.3 4.2 40.2a35.8 35.8 0 0 1-15-21.5zm22.8 38a78 78 0 0 0-5.4-13.8c-4.5-8.7-15-29.1-6-42.3 1.5-2.1 3-3.6 4.4-5 2.8-3 5.3-5.4 6.3-12.5l.2-3.2c.5-8.9 1.8-29.5 21.2-35.5.1 2.9.6 5.7 1.6 8.6-18.9 5.6-17.9 20.8-17.3 29 .1 2 .3 3.5.1 4.5-1 6.8-3.2 9-6 12-1.4 1.4-3 3-4.4 5.1-10.2 14.6 0 32.7 3.9 39.5l.5.9c2.2 3.9 4 7.4 5.6 10.5 4.9 9.3 8 15.3 13.4 18.6-14.2-4-15.6-8.3-18-16.5zm24.5 18c-9.3-2.3-12.6-8.5-19-20.7-1.5-3.1-3.4-6.6-5.5-10.5l-.5-1c-3.8-6.6-13.8-24.2-4-38.3 1.4-2.1 2.9-3.6 4.3-5 2.8-3 5.3-5.5 6.3-12.5.1-1.1 0-2.7-.1-4.7-.6-8.5-1.6-22.7 16.7-28.1.9 2.3 2 4.5 3.5 6.7C69.3 54.7 69.9 66.3 70.3 74c0 2 .2 3.7 0 4.9a18 18 0 0 1-6 12c-1.4 1.3-3 2.9-4.4 5-10.1 14.7 0 32.7 4 39.5l.4 1c4.6 8 8 13 10.6 16.6 3.4 4.8 5 7 4.8 10.9zm2-1.6l-.3.4a5 5 0 0 1-.7 1c0-4.1-1.6-6.5-5-11.3-2.5-3.5-6-8.5-10.5-16.6l-.5-.9c-3.8-6.6-13.8-24.3-4-38.3 1.5-2.2 2.9-3.6 4.3-5A19 19 0 0 0 71.3 79c.2-1.2 0-3 0-5-.4-7.5-1-18.8 10.7-23.3 1 1.5 2.2 3 3.6 4.4-8 4.4-7.1 13.7-6.5 20.4.3 2.4.5 4.5.3 5.9-1 6.7-3.3 9-6.1 12-1.3 1.3-2.9 2.9-4.4 5-9.3 13.5.6 29 5.4 36.5l1.6 2.7c8.4 15.1 6.9 22.2 5.8 24.7zm8.1-102.8c-3.3 7.2-2.2 14.5-1.4 19.8.3 2 .5 3.6.5 5 0 6.2-2.6 8.1-5.9 10.5-1.8 1.4-3.9 2.9-5.6 5.4-8.5 12.3-3 22.1.7 28.6a45.4 45.4 0 0 1 5.5 28.2 44.6 44.6 0 0 0-8.5-22.6c-4.6-7.3-14.3-22.5-5.4-35.4 1.5-2 3-3.5 4.3-5a19 19 0 0 0 6.3-12.5c.3-1.5 0-3.6-.2-6-.6-6.6-1.5-15.6 6.2-19.6a46.7 46.7 0 0 0 4.2 4l-.7-.4zM88 56.2a86 86 0 0 0 18.5 1c6.9 0 13.9-.1 19.8 1 16.6 3 25.3 13.6 30.5 20a42 42 0 0 0 3.5 4 87.8 87.8 0 0 1 13.3 14.3c-1.7-1.3-3.2-2-4.9-2.7-3-1.4-6.4-3-12.7-8.6-1.2-1-2.4-2.7-3.7-4.5-3.9-5.5-9.2-13-22.7-16a39.4 39.4 0 0 0-16.6.2c-4.5.8-8.8 1.6-13.5.1A60.5 60.5 0 0 1 88 56.2zm57 24c-2.1-2.5-3.5-4.1-5.5-4.1h-.5a79 79 0 0 1-36.7-9.4c3.7.4 7.2-.2 10.9-.8 4.8-.8 9.9-1.7 16.2-.3a34 34 0 0 1 22 15.6c1.4 2 2.6 3.6 4 4.8 6.3 5.7 10 7.4 12.9 8.7 2 .9 3.6 1.6 5.6 3.2-18-4.8-24.8-12.8-28.9-17.6zm34.9 26.2c-1-1.3-1.3-2.6-1.6-3.8a6.6 6.6 0 0 0-1.2-3A84 84 0 0 0 161 81.5l-3.5-4a50.7 50.7 0 0 0-31-20.3c-6-1.1-13.1-1-20-1-7.6 0-14.8.2-19.9-1.4a38.5 38.5 0 0 1-7.5-11.3 67.8 67.8 0 0 0 28.5 3.6h11.2c5.2.4 9 2.3 12.5 4 2.2 1.2 4.3 2.3 6.5 2.7l6.8 1.2c4.9.7 8.7 1.3 11.9 3.5 3.1 2.2 4.5 6.2 6 10.4a38 38 0 0 0 4.1 9c1.5 2.3 3.1 4.4 4.7 6.4 6 8 11.3 15 8.6 22.1zm8 37.5h-7c6.1-7.8 3.7-16.5 1.6-24.2-1.2-4.4-2.3-8.5-2-12.2 3.5-7.9-2.3-15.6-8.4-23.8a37.3 37.3 0 0 1-8.6-15.2c-1.6-4.3-3-8.4-6.5-10.8-3.3-2.4-7.3-3-12.3-3.7l-6.7-1.1c-2-.5-4.1-1.5-6.3-2.6a31 31 0 0 0-12.8-4.1c-3.6-.2-7.4-.2-11.3-.1-10.4 0-21 .2-29-4a27 27 0 0 1-1.7-8.5c7.8 2.8 18 2.6 28 2.5 7.2-.1 13.9-.2 19 .7 4.8 1 8.4 2.8 11.8 4.6 2.5 1.3 5 2.6 7.6 3.3 3.9 1.2 7.2 1.6 10 2 4.7.5 8.4 1 12.3 3.8 1.6 1.1 3 4.3 4.5 8 1.6 4 3.4 8.3 6.1 12 1.5 2 3.1 3.6 4.7 5.2a26 26 0 0 1 7.8 12c1.6 5.8 1.2 10.9.8 15.9-.4 3.7-.7 7.3-.1 11 .2 2 .6 4 .9 5.8 1.5 9 2.9 17.5-1.4 23.5h-1zm3.5-.7l-.6.6h-.7c4-6.2 2.6-14.6 1.2-23.5l-1-5.9a48 48 0 0 1 .1-10.7c.5-5.1 1-10.3-.7-16.2a27 27 0 0 0-8-12.5 48.2 48.2 0 0 1-4.7-5.1c-2.6-3.6-4.4-8-6-11.7-1.6-4-3-7.2-4.8-8.5-4.2-3-8.1-3.4-12.7-4-2.9-.4-6.1-.8-9.9-2-2.6-.7-5-1.9-7.4-3.2a40.6 40.6 0 0 0-12-4.6c-5.3-1-12-1-19.2-.8-9.8.1-20 .3-27.5-2.3 2-1.5 3.8-4.2 6-7.5l.8-1.2a60 60 0 0 0 24.3 1.6c6.3-.4 12.2-.8 17.5.2 4.8.9 9 3 12.9 4.9a50.5 50.5 0 0 0 13.8 5c7.5 2.1 14.7 4 19.9 7.8 2 1.3 3.7 6 5.6 10.8 1.4 3.4 2.7 7 4.4 10.2a38 38 0 0 0 6 7.7 29 29 0 0 1 8.1 12.5 39 39 0 0 1 .8 19.2c-.4 2-.8 3.9-.8 6.2 0 4.5 1 8 2 11.4 1 3.7 2 7.2 1.5 11.5-.7.4-1.3 1-1.7 1.5l-2 2.5a83.5 83.5 0 0 1-4.6 5.4c-.2 0-.4.4-.6.7zm9.5 1.6l-.7.8a17 17 0 0 1-1.6 1.8c-1.9-1.8-3.6-3.4-6.5-3.5v-.1l.6-.6c.7-.6 1.3-1.3 1.8-2 1-1 2-2.3 2.9-3.5l2-2.4c.8-1 2.1-2 3.3-1.9.7.1 1.2.6 1.6 1.4 1.3 2.6-.4 5.7-1.2 7l-.5.8c-.5.7-1 1.5-1.7 2.2zm6.8 2l.1.3c-1.6-1.1-3.5-2.5-5-3.2l.6-.8.5-.8c.6-.8 1.5-2.5 1.8-4.3 2.6.7 4.3 1.7 4.1 3.8a8 8 0 0 1-1 3.8l-.2.3c-.3.4-.6.9-.9 1zm.8.8l.4-.4.2-.4.3-.3.2-.4c.9-1.1 1-2.7 1.2-4.2.3-2.4-1.4-3.6-3-4.3 1.9-5.3.8-11.1-.3-16.8-.7-3.5-1.4-7.1-1.4-10.6 0-2.4.7-4.5 1.5-6.8 1.4-4.5 3.3-10 .9-20.3-1.3-5.1-5.5-9.1-9.5-13-2.9-2.6-5.5-5-7-7.8a56.7 56.7 0 0 1-3.7-10.3c-1.6-5.3-3.2-10.8-6.8-15-4.4-5-15.2-7.8-24.6-10.3l-6.3-1.7c-2.6-.7-5.2-2-8-3.4-4-2-8.2-4-13.1-5a68 68 0 0 0-16.2-.4c-7 .4-14.2.8-21.5-1.8 2.3-2.5 5-4.8 8.3-6.9 6.6.8 11 .5 15.1.3 4.5-.3 8.7-.6 15.2.6 4.8.9 8.9 2.9 12.8 4.9a51.3 51.3 0 0 0 15 5.3c9.7 2.5 23 6 27.1 10.7 4.3 5 6.8 11.4 9.6 18.9 1 2.7 2 5.5 3.3 8.5 1.3 3 4.2 6 7.3 9.2 3.9 3.9 7.9 8 9 12.7a70 70 0 0 1-.4 27.9c-.5 3.3-1 6.1-1 8.4 0 3 .7 6.3 1.5 9.9 1.5 7.5 3.3 16-1.4 23.8l-2 1.5c-.7-1-1.6-1.7-2.7-2.5zm8.2 10.7c-1-1-2.5-2-3.7-2.6-.1-1.6-.5-3.3-1.4-4.8l11.3-8.2c.3 3.1 2 6.3 4.8 7.5l-11 7.8.5.7-.5-.4zm-6.1 49l1.7-6.5c2.1-1 5.7-.7 7 1.3.6.7.8 1.4.7 2-.2 1.2-1.7 2.3-3 3.2l-.6.4a155.3 155.3 0 0 1-4.7 3.2c-.8.5-1.7 1-2.4 1.7l1.3-5.4z"/><path fill="#1A1A1A" d="M221.9 111.3c-1.4 4.2-.7 8.8 0 13.3 1.1 7.5 2.3 15.2-6.5 22 3.2-7.4 1.6-15.1.1-22-.7-3.5-1.4-6.8-1.4-9.7 0-2.2.5-5 1-8.3 1.2-7.3 2.9-17.4.4-28.2-1.2-5-5.3-9.2-9.3-13.2-3-3.1-5.8-6-7-9-1.3-2.9-2.4-5.7-3.4-8.4-2.8-7.5-5.3-14-9.7-19.1-4.4-5-17.3-8.4-27.7-11.1l-6.7-1.8c-2.6-.8-5.2-2-8-3.4-4-2-8.2-4-13.1-5-6.7-1.2-11-1-15.5-.6-3.8.2-7.8.5-13.6-.1 5-3 11.4-5.1 19.4-5.6 8.5-.6 13 1.7 17.7 4.1 3.4 1.8 6.9 3.6 12 4.5 4.7.8 9.2.8 13.6.7 9.2 0 18.6-.1 28.8 7.6 8.1 6.2 9.6 11.3 11.4 17.7 1.2 4 2.5 8.6 5.7 14 2 3.5 5.5 6.8 9.2 10.4 6.5 6.4 13.3 13 13.3 21.2 0 8.7-2.6 13.2-5.4 18.5-1.7 3.1-3.7 6.7-5.3 11.5z"/><path fill="#1A1A1A" d="M213.2 148.6l-2 1.5c-.7-1-1.6-1.7-2.7-2.5l.4-.4.2-.4.3-.3.2-.4c.9-1.1 1-2.7 1.2-4.2.3-2.4-1.4-3.6-3-4.3 1.9-5.3.8-11.1-.3-16.8-.7-3.5-1.4-7.1-1.4-10.6 0-2.4.7-4.5 1.5-6.8 1.4-4.5 3.3-10 .9-20.3-1.3-5.1-5.5-9.1-9.5-13-2.9-2.6-5.5-5-7-7.8a56.7 56.7 0 0 1-3.7-10.3c-1.6-5.3-3.2-10.8-6.8-15-4.4-5-15.2-7.8-24.6-10.3l-6.3-1.7c-2.6-.7-5.2-2-8-3.4-4-2-8.2-4-13.1-5a68 68 0 0 0-16.2-.4c-7 .4-14.2.8-21.5-1.8 2.3-2.5 5-4.8 8.3-6.9 6.6.8 11 .5 15.1.3 4.5-.3 8.7-.6 15.2.6 4.8.9 8.9 2.9 12.8 4.9a51.3 51.3 0 0 0 15 5.3c9.7 2.5 23 6 27.1 10.7 4.3 5 6.8 11.4 9.6 18.9 1 2.7 2 5.5 3.3 8.5 1.3 3 4.2 6 7.3 9.2 3.9 3.9 7.9 8 9 12.7a70 70 0 0 1-.4 27.9c-.5 3.3-1 6.1-1 8.4 0 3 .7 6.3 1.5 9.9 1.5 7.5 3.3 16-1.4 23.8z"/><path fill="#1A1A1A" d="M206.5 121c1.1 5.8 2.2 11.2.4 16.3a21 21 0 0 0-1.1-.4c0-.8-.2-1.7-.6-2.6-.7-1.4-1.7-1.8-2.4-1.9-.5 0-1 0-1.5.2.4-4.2-.6-7.6-1.6-11.3a29.2 29.2 0 0 1-1.2-17.1c.9-4.2 1.8-9-.7-19.7a29.6 29.6 0 0 0-8.4-13c-2.3-2.4-4.4-4.8-5.8-7.4-1.7-3.1-3-6.7-4.4-10-2-5.3-3.7-9.8-6-11.4a65.5 65.5 0 0 0-20.1-7.8l-5.7-1.6c-2.6-.7-5.2-2-8-3.4-4-2-8.1-4-13-5-5.5-1-11.5-.6-17.8-.2-8 .6-16.4 1.1-23.7-1.4a75 75 0 0 1 6.2-8.1c7.6 2.8 15 2.4 22.2 2a68 68 0 0 1 16 .4c4.8.9 8.9 3 12.8 4.9a50.8 50.8 0 0 0 14.5 5.2c8.9 2.3 20 5.2 24.1 10 3.5 4 5 9.4 6.6 14.5 1 3.6 2.2 7.3 3.9 10.6a34 34 0 0 0 7 8c4 3.8 8.1 7.7 9.3 12.6 2.3 10 .6 15.1-.9 19.6-.8 2.4-1.5 4.6-1.5 7.2 0 3.6.7 7.3 1.4 10.8z"/><path fill="#1A1A1A" d="M200.3 133.1c-.7.4-1.3 1-1.7 1.5l-2 2.5a83.5 83.5 0 0 1-4.6 5.4c-.2 0-.4.4-.6.7l-.6.6h-.7c4-6.2 2.6-14.6 1.2-23.5l-1-5.9a48 48 0 0 1 .1-10.7c.5-5.1 1-10.3-.7-16.2a27 27 0 0 0-8-12.5 48.2 48.2 0 0 1-4.7-5.1c-2.6-3.6-4.4-8-6-11.7-1.6-4-3-7.2-4.8-8.5-4.2-3-8.1-3.4-12.7-4-2.9-.4-6.1-.8-9.9-2-2.6-.7-5-1.9-7.4-3.2a40.6 40.6 0 0 0-12-4.6c-5.3-1-12-1-19.2-.8-9.8.1-20 .3-27.5-2.3 2-1.5 3.8-4.2 6-7.5l.8-1.2a60 60 0 0 0 24.3 1.6c6.3-.4 12.2-.8 17.5.2 4.8.9 9 3 12.9 4.9a50.5 50.5 0 0 0 13.8 5c7.5 2.1 14.7 4 19.9 7.8 2 1.3 3.7 6 5.6 10.8 1.4 3.4 2.7 7 4.4 10.2a38 38 0 0 0 6 7.7 29 29 0 0 1 8.1 12.5 39 39 0 0 1 .8 19.2c-.4 2-.8 3.9-.8 6.2 0 4.5 1 8 2 11.4 1 3.7 2 7.2 1.5 11.5z"/><path fill="#1A1A1A" d="M189 143.9h-8c6-7.8 3.6-16.5 1.5-24.2-1.2-4.4-2.3-8.5-2-12.2 3.5-7.9-2.3-15.6-8.4-23.8a37.3 37.3 0 0 1-8.6-15.2c-1.6-4.3-3-8.4-6.5-10.8-3.3-2.4-7.3-3-12.3-3.7l-6.7-1.1c-2-.5-4.1-1.5-6.3-2.6a31 31 0 0 0-12.8-4.1c-3.6-.2-7.4-.2-11.3-.1-10.4 0-21 .2-29-4a27 27 0 0 1-1.7-8.5c7.8 2.8 18 2.6 28 2.5 7.2-.1 13.9-.2 19 .7 4.8 1 8.4 2.8 11.8 4.6 2.5 1.3 5 2.6 7.6 3.3 3.9 1.2 7.2 1.6 10 2 4.7.5 8.4 1 12.3 3.8 1.6 1.1 3 4.3 4.5 8 1.6 4 3.4 8.3 6.1 12 1.5 2 3.1 3.6 4.7 5.2a26 26 0 0 1 7.8 12c1.6 5.8 1.2 10.9.8 15.9-.4 3.7-.7 7.3-.1 11 .2 2 .6 4 .9 5.8 1.5 9 2.9 17.5-1.4 23.5z"/><path fill="#1A1A1A" d="M179.9 106.4c-1-1.3-1.3-2.6-1.6-3.8a6.6 6.6 0 0 0-1.2-3A84 84 0 0 0 161 81.5l-3.5-4a50.7 50.7 0 0 0-31-20.3c-6-1.1-13.1-1-20-1-7.6 0-14.8.2-19.9-1.4a38.5 38.5 0 0 1-7.5-11.3 67.8 67.8 0 0 0 28.5 3.6h11.2c5.2.4 9 2.3 12.5 4 2.2 1.2 4.3 2.3 6.5 2.7l6.8 1.2c4.9.7 8.7 1.3 11.9 3.5 3.1 2.2 4.5 6.2 6 10.4a38 38 0 0 0 4.1 9c1.5 2.3 3.1 4.4 4.7 6.4 6 8 11.3 15 8.6 22.1z"/><path fill="#1A1A1A" d="M173.9 98c-18-5-24.8-13-28.9-17.7-2.1-2.6-3.5-4.2-5.5-4.2h-.5a79 79 0 0 1-36.7-9.4c3.7.4 7.2-.2 10.9-.8 4.8-.8 9.9-1.7 16.2-.3a34 34 0 0 1 22 15.6c1.4 2 2.6 3.6 4 4.8 6.3 5.7 10 7.4 12.9 8.7 2 .9 3.6 1.6 5.6 3.2z"/><path fill="#1A1A1A" d="M173.6 96.5c-1.7-1.3-3.2-2-4.9-2.7-3-1.4-6.4-3-12.7-8.6-1.2-1-2.4-2.7-3.7-4.5-3.9-5.5-9.2-13-22.7-16a39.4 39.4 0 0 0-16.6.2c-4.5.8-8.8 1.6-13.5.1A60.5 60.5 0 0 1 88 56.2a86 86 0 0 0 18.5 1c6.9 0 13.9-.1 19.8 1 16.6 3 25.3 13.6 30.5 20a42 42 0 0 0 3.5 4 87.8 87.8 0 0 1 13.3 14.3zM63.7 39.7c-8.8 9-9.6 22.5-10 29.3l-.2 3.2c-1 6.7-3.2 9-6 12-1.4 1.3-3 2.9-4.4 5-8.5 12.3-.8 30.3 4.2 40.2a35.8 35.8 0 0 1-15-21.5 27 27 0 0 1 9.2-27.5c3.7-3.5 7.5-7 8.5-13.9v-.3a39 39 0 0 1 13.7-26.5z"/><path fill="#1A1A1A" d="M73.3 162.3c-14.2-4-15.6-8.3-18-16.5a78 78 0 0 0-5.5-13.7c-4.5-8.7-15-29.1-6-42.3 1.5-2.1 3-3.6 4.4-5 2.8-3 5.3-5.4 6.3-12.5l.2-3.2c.5-8.9 1.8-29.5 21.2-35.5.1 2.9.6 5.7 1.6 8.6-18.9 5.6-17.9 20.8-17.3 29 .1 2 .3 3.5.1 4.5-1 6.8-3.2 9-6 12-1.4 1.4-3 3-4.4 5.1-10.2 14.6 0 32.7 3.9 39.5l.5.9c2.2 3.9 4 7.4 5.6 10.5 4.9 9.3 8 15.3 13.4 18.6z"/><path fill="#1A1A1A" d="M89.8 59.5c-3.3 7.2-2.2 14.5-1.4 19.8.3 2 .5 3.6.5 5 0 6.2-2.6 8.1-5.9 10.5-1.8 1.4-3.9 2.9-5.6 5.4-8.5 12.3-3 22.1.7 28.6a45.4 45.4 0 0 1 5.5 28.2 44.6 44.6 0 0 0-8.5-22.6c-4.6-7.3-14.3-22.5-5.4-35.4 1.5-2 3-3.5 4.3-5a19 19 0 0 0 6.3-12.5c.3-1.5 0-3.6-.2-6-.6-6.6-1.5-15.6 6.2-19.6a46.7 46.7 0 0 0 4.2 4l-.7-.4z"/><path fill="#1A1A1A" d="M79.1 75.5c.3 2.4.5 4.5.3 5.9-1 6.7-3.3 9-6.1 12-1.3 1.3-2.9 2.9-4.4 5-9.3 13.5.6 29 5.4 36.5l1.6 2.7c8.4 15.1 6.9 22.2 5.8 24.7l-.3.4a5 5 0 0 1-.7 1c0-4.1-1.6-6.5-5-11.3-2.5-3.5-6-8.5-10.5-16.6l-.5-.9c-3.8-6.6-13.8-24.3-4-38.3 1.5-2.2 2.9-3.6 4.3-5A19 19 0 0 0 71.3 79c.2-1.2 0-3 0-5-.4-7.5-1-18.8 10.7-23.3 1 1.5 2.2 3 3.6 4.4-8 4.4-7.1 13.7-6.5 20.4z"/><path fill="#1A1A1A" d="M75 153c3.3 4.8 4.8 7 4.7 10.9-9.3-2.3-12.6-8.5-19-20.7-1.5-3.1-3.4-6.6-5.5-10.5l-.5-1c-3.8-6.6-13.8-24.2-4-38.3 1.4-2.1 2.9-3.6 4.3-5 2.8-3 5.3-5.5 6.3-12.5.1-1.1 0-2.7-.1-4.7-.6-8.5-1.6-22.7 16.7-28.1.9 2.3 2 4.5 3.5 6.7C69.3 54.7 69.9 66.3 70.3 74c0 2 .2 3.7 0 4.9a18 18 0 0 1-6 12c-1.4 1.3-3 2.9-4.4 5-10.1 14.7 0 32.7 4 39.5l.4 1c4.6 8 8 13 10.6 16.6z"/><path d="M255.2 44.6c0 2.5-1 4.7-2.2 6.8-1 1.9-2 3.8-2.1 6-.1 2.1 1.1 4.2 2.3 6.2 1 1.7 2 3.2 2.1 4.8.3 3.2-.5 6.3-1.2 9.3-.7 3.1-1.5 6-.8 8.8.5 2 1.9 3.6 3.2 5.2 1.2 1.4 2.4 2.7 2.6 4 1 4.9.3 6.9-.6 9.2a18 18 0 0 0-1.2 4.1l1 .2c.2-1.6.7-2.8 1.1-4 .9-2.3 1.7-4.5.7-9.7-.4-1.6-1.6-3-2.8-4.5-1.3-1.5-2.7-3-3-4.8-.7-2.4 0-5.3.7-8.3.8-3 1.5-6.2 1.3-9.6-.2-1.7-1.2-3.5-2.3-5.2-1.1-1.9-2.3-3.8-2.2-5.7.2-2 1.1-3.7 2-5.5 1.2-2.3 2.4-4.6 2.4-7.3-.1-3-1.5-5.5-3-8.3-1.6-3.3-3.4-6.7-2.8-10.8l-1-.1c-.6 4.4 1.2 8 3 11.4 1.4 2.6 2.7 5.1 2.8 7.8z"/><path d="M264.3 42c0 2.6-1.4 5.7-2.9 8.8a22.9 22.9 0 0 0-2.6 7.3c-.2 2.2.7 4.4 1.6 6.6.7 1.7 1.4 3.4 1.5 4.9.3 3.7-.5 5.7-1.2 7.6-.6 1.6-1.2 3.1-1 5.5 0 2.2 1.3 4.3 2.6 6.4.9 1.5 1.8 2.9 2 4 .7 3.4-.7 7.3-2.2 11.5-1.2 3.4-2.5 7-2.5 10.3h1c0-3.2 1.2-6.6 2.4-10 1.5-4 3-8.3 2.2-12-.3-1.3-1.1-2.7-2-4.3-1.3-2-2.6-4-2.6-6-.1-2.1.4-3.5 1-5 .7-2 1.5-4.2 1.2-8 0-1.8-.8-3.5-1.5-5.3-.8-2-1.7-4.2-1.6-6.2.2-1.9 1.3-4.3 2.6-7 1.5-3 3-6.3 3-9-.1-2.5-2-4.3-3.8-6.2-3.5-3.6-7.4-7.6-3.4-17l-1-.3c-4.1 9.9.2 14.4 3.7 18 1.9 1.8 3.4 3.4 3.5 5.5z"/><path d="M268.4 40.1a46 46 0 0 1-1.3 9.6c-.5 2.5-1 4.8-1 6.6-.2 2.3.4 4.2 1 6.2.5 1.4 1 2.8 1 4.3.3 3.9-.6 6-1.5 8-.7 1.6-1.4 3.1-1.3 5.3.1 2.5 1.3 6.7 2.3 10 .5 1.8 1 3.3 1.1 4.2.7 3.3-1 6.5-2.7 9.8-1.6 3.1-3.3 6.3-3.3 9.7h1c0-3.2 1.6-6.3 3.1-9.2 1.9-3.5 3.6-6.9 2.9-10.5l-1.2-4.2c-1-3.3-2.2-7.4-2.2-9.8-.1-2 .5-3.3 1.2-4.9.9-2 1.9-4.4 1.6-8.4-.1-1.6-.6-3.2-1-4.6-.7-2-1.2-3.8-1.1-5.8.1-1.8.6-4 1-6.5.8-3.4 1.5-6.9 1.4-9.8-.1-3-1.6-6.2-3.1-9.4l-1-2-.8.5 1 2c1.4 3 2.9 6.1 3 9zM81.8 108a30 30 0 0 1 14.8-3.4 33.3 33.3 0 0 1 24 10.3l.7-.7a36.7 36.7 0 0 0-12.8-8.4 34.3 34.3 0 0 0-13.5-2.1c-6.9.3-12.3 2.5-13.7 3.4l.5.8z"/><path d="M120 116.1l-.3-.4a18.8 18.8 0 0 0-11-8l-.4-.2-.4-.1A36.9 36.9 0 0 0 96 106h-.4l-1.4.2c-4.2.3-8.3 1.2-11.1 2.5l-.5.2.2.4c1 1.6 2.2 3.2 3.7 4.5L84 117l.7.6 2.6-3.3c1 .8 2 1.6 3.2 2.2L89 121l.9.3 1.5-4.2a27 27 0 0 0 4.3 1.7l-1.1 4.3.9.3 1-4.3 4.3.8v4.3h1V120a29.5 29.5 0 0 0 4.4 0l-.2 4.2h1l.1-4.3a34 34 0 0 0 4-.6l.6 4 .9-.1-.6-4 3.7-1.2 1 3.2 1-.3-1.1-3.2 2.9-1.3.5-.3zm-25-9h.7a6.6 6.6 0 0 0 12.4 2.5l.4-1 1 .3a7.3 7.3 0 0 1-14.6-1.3v-.5zm20.8 9.8c-1.4.6-3 1-4.4 1.4a29 29 0 0 1-20-2.3c-3.2-1.7-5.7-4-7.4-6.7 2.6-1 6-1.8 9.7-2.1v.4a8.6 8.6 0 0 0 17 1.8c3.4 1.5 6 3.6 7.9 6.4l-2.8 1.1zM114.7 103.1a78 78 0 0 0 3.9 1.7l.5-1.3-3.8-1.7c-8-3.6-21.3-9.6-32.9-4.3l.6 1.3c11-5 24 .8 31.7 4.3zM180.3 117.1a35.5 35.5 0 0 0-10.7-4.2h-.3l-1-.3h-.5c-4.2-.9-8.5-1-12.2-.5h-.5v.1l-1.6.3c-4.4 1-7.9 3-10.4 6l-.3.3.4.3a39 39 0 0 0 2.6 1.8l-1.5 3 .8.4 1.6-3c1.1.7 2.3 1.2 3.5 1.7l-1.2 4 .9.2 1.1-3.8 3.9 1.2-.6 4.3h1l.5-4.1c1.5.3 2.9.5 4.4.6l-.7 4.2 1 .2.6-4.3a25.2 25.2 0 0 0 4.3-.2l.4 4.4h1l-.4-4.5c1.5-.2 3-.6 4.5-1l.8 4.4 1-.2-1-4.5c1.3-.5 2.5-1 3.6-1.7l2 3.6.9-.5-2.1-3.6a18 18 0 0 0 4.3-3.9l.3-.4-.4-.3zm-25-4a5.2 5.2 0 0 0 .2 1 6.5 6.5 0 0 0 11.8 1.5 8.2 8.2 0 0 0 .8-2l.8.1-.1.5a7.3 7.3 0 0 1-14.6-.9l1-.2zm15.8 10a26 26 0 0 1-8.8 1.5 30.6 30.6 0 0 1-18.1-6c2.2-2.3 5.1-4 8.8-5a8.7 8.7 0 0 0 13.7 6.5c1.8-1.4 3-3.4 3.4-5.7v-.4a35 35 0 0 1 9.2 3.6c-2 2.4-4.8 4.3-8.2 5.5zM141.6 154.8c-.9-.7-2-1.2-3.3-1.2-1.7 0-3 .6-3.7 1.7a4.4 4.4 0 0 1-4 2.2c-1.3 0-2.4-.6-3.3-1.6l-.2-.2-.3-.5a5 5 0 0 0-3.4-1.1c-1.2 0-2.4.4-3.3 1.2a5.3 5.3 0 0 1 1-9l-.4-1a6.3 6.3 0 0 0-.9 11l.3.2.3-.2c.8-.8 1.9-1.2 3-1.2a4 4 0 0 1 2.6.8l.4.4.2.3c1 1.2 2.4 1.9 4 1.9 2.1 0 4-1.1 4.8-2.7.7-1 2-1.2 3-1.2s2 .5 2.9 1.2l.2.3.4-.2a6.3 6.3 0 0 0-1-11l-.4 1a5.3 5.3 0 0 1 1.1 9zM146 172.4c-1.2-1-6.9-6.2-8.8-6.4-1.4-.1-3 .8-4.4 1.7-1 .6-2.1 1.2-3 1.2-.6 0-1.8-.9-2.9-1.6-1.1-.8-2.2-1.6-3.1-1.8h-.6c-3.2 0-9.8 6-11 7H108v1h4.1a25 25 0 0 0 17.5 8.4h.4a23 23 0 0 0 16.4-8.5h3.4v-1h-3.8zm-22.8-6h.4c.7.2 1.7 1 2.7 1.7 1.3.9 2.5 1.8 3.5 1.8s2.3-.6 3.6-1.4c1.3-.8 2.6-1.6 3.7-1.5 1.1 0 4.8 3 7.4 5.4h-30.7c2.5-2.2 7.2-6 9.4-6zM130 181h-.4c-5.5 0-11-2.6-16-7.5h31.4a21.7 21.7 0 0 1-15 7.5z"/><linearGradient id="a" gradientUnits="userSpaceOnUse" x1="108.2" y1="4.9" x2="136" y2="4.9"><stop offset="0"/><stop offset=".1" stop-color="#3e3e3e"/><stop offset=".3" stop-color="#7b7b7b"/><stop offset=".4" stop-color="#a7a7a7"/><stop offset=".4" stop-color="#c2c2c2"/><stop offset=".5" stop-color="#ccc"/><stop offset=".6" stop-color="silver"/><stop offset=".6" stop-color="#a0a0a0"/><stop offset=".8" stop-color="#6c6c6c"/><stop offset=".9" stop-color="#252525"/><stop offset="1"/></linearGradient><path fill="url(#a)" stroke="#000" stroke-miterlimit="10" d="M136 3.4l-.3 6c-1.6-.7-3.3-1.2-5.1-1.5-9.8-1.8-14.4-.3-22.4-.3V3A48 48 0 0 1 121 .6c6.9-.5 11.1 1 15 2.8z"/><linearGradient id="b" gradientUnits="userSpaceOnUse" x1="108.2" y1="43.5" x2="133.9" y2="43.5"><stop offset="0"/><stop offset=".1" stop-color="#3e3e3e"/><stop offset=".3" stop-color="#7b7b7b"/><stop offset=".4" stop-color="#a7a7a7"/><stop offset=".4" stop-color="#c2c2c2"/><stop offset=".5" stop-color="#ccc"/><stop offset=".6" stop-color="silver"/><stop offset=".6" stop-color="#a0a0a0"/><stop offset=".8" stop-color="#6c6c6c"/><stop offset=".9" stop-color="#252525"/><stop offset="1"/></linearGradient><path fill="url(#b)" stroke="#000" stroke-miterlimit="10" d="M134 39.9l-.8 11.7c-2.5-1.3-5.2-2.8-8.4-3.8-1.8-.6-3.7-1-5.9-1.1-3.4-.2-7-.2-10.7-.1v-11c6-.1 11.5 0 16 .8 3.8.7 6.9 2 9.7 3.5z"/><g><linearGradient id="c" gradientUnits="userSpaceOnUse" x1="82.4" y1="78.9" x2="89.2" y2="60.3"><stop offset="0"/><stop offset=".1" stop-color="#3e3e3e"/><stop offset=".3" stop-color="#7b7b7b"/><stop offset=".4" stop-color="#a7a7a7"/><stop offset=".4" stop-color="#c2c2c2"/><stop offset=".5" stop-color="#ccc"/><stop offset=".6" stop-color="silver"/><stop offset=".6" stop-color="#a0a0a0"/><stop offset=".8" stop-color="#6c6c6c"/><stop offset=".9" stop-color="#252525"/><stop offset="1"/></linearGradient><path fill="url(#c)" stroke="#000" stroke-miterlimit="10" d="M89.4 81.4L80 77.1c-.5-5.8-1.8-14 3-19l6.4 4.9c-2.2 6.9-.7 13.6 0 18.4z"/><linearGradient id="d" gradientUnits="userSpaceOnUse" x1="83.8" y1="150.3" x2="77.7" y2="133.5"><stop offset="0"/><stop offset=".1" stop-color="#3e3e3e"/><stop offset=".3" stop-color="#7b7b7b"/><stop offset=".4" stop-color="#a7a7a7"/><stop offset=".4" stop-color="#c2c2c2"/><stop offset=".5" stop-color="#ccc"/><stop offset=".6" stop-color="silver"/><stop offset=".6" stop-color="#a0a0a0"/><stop offset=".8" stop-color="#6c6c6c"/><stop offset=".9" stop-color="#252525"/><stop offset="1"/></linearGradient><path fill="url(#d)" stroke="#000" stroke-miterlimit="10" d="M84.7 149.3l-2.5 1.5c-1-3.5-2.7-7.9-5.6-13.1l-1.8-3 5.8-2.3.4.9a55.1 55.1 0 0 1 3.7 16z"/><linearGradient id="e" gradientUnits="userSpaceOnUse" x1="72.9" y1="118.4" x2="72.9" y2="95.9"><stop offset="0"/><stop offset=".1" stop-color="#3e3e3e"/><stop offset=".3" stop-color="#7b7b7b"/><stop offset=".4" stop-color="#a7a7a7"/><stop offset=".4" stop-color="#c2c2c2"/><stop offset=".5" stop-color="#ccc"/><stop offset=".6" stop-color="silver"/><stop offset=".6" stop-color="#a0a0a0"/><stop offset=".8" stop-color="#6c6c6c"/><stop offset=".9" stop-color="#252525"/><stop offset="1"/></linearGradient><path fill="url(#e)" stroke="#000" stroke-miterlimit="10" d="M78 100.8a21 21 0 0 0-3.8 17.6h-7.3A22.3 22.3 0 0 1 72 96l8 2.5c-.7.7-1.4 1.5-2 2.4z"/><linearGradient id="f" gradientUnits="userSpaceOnUse" x1="77.7" y1="154" x2="71.1" y2="136.1"><stop offset="0"/><stop offset=".1" stop-color="#3e3e3e"/><stop offset=".3" stop-color="#7b7b7b"/><stop offset=".4" stop-color="#a7a7a7"/><stop offset=".4" stop-color="#c2c2c2"/><stop offset=".5" stop-color="#ccc"/><stop offset=".6" stop-color="silver"/><stop offset=".6" stop-color="#a0a0a0"/><stop offset=".8" stop-color="#6c6c6c"/><stop offset=".9" stop-color="#252525"/><stop offset="1"/></linearGradient><path fill="url(#f)" stroke="#000" stroke-miterlimit="10" d="M82.2 150.8l-5.6 3.6c-2.4-3.4-6-8-10.6-16.2l8.8-3.4 1.8 2.9c3 5.2 4.7 9.6 5.6 13.2z"/><linearGradient id="g" gradientUnits="userSpaceOnUse" x1="64.2" y1="118.4" x2="64.2" y2="93.1"><stop offset="0"/><stop offset=".1" stop-color="#3e3e3e"/><stop offset=".3" stop-color="#7b7b7b"/><stop offset=".4" stop-color="#a7a7a7"/><stop offset=".4" stop-color="#c2c2c2"/><stop offset=".5" stop-color="#ccc"/><stop offset=".6" stop-color="silver"/><stop offset=".6" stop-color="#a0a0a0"/><stop offset=".8" stop-color="#6c6c6c"/><stop offset=".9" stop-color="#252525"/><stop offset="1"/></linearGradient><path fill="url(#g)" stroke="#000" stroke-miterlimit="10" d="M69.5 99a22.3 22.3 0 0 0-2.6 19.4h-9.6a26.6 26.6 0 0 1 6-25.3L72 96 69.5 99z"/><linearGradient id="h" gradientUnits="userSpaceOnUse" x1="71.6" y1="158.1" x2="64.6" y2="138.8"><stop offset="0"/><stop offset=".1" stop-color="#3e3e3e"/><stop offset=".3" stop-color="#7b7b7b"/><stop offset=".4" stop-color="#a7a7a7"/><stop offset=".4" stop-color="#c2c2c2"/><stop offset=".5" stop-color="#ccc"/><stop offset=".6" stop-color="silver"/><stop offset=".6" stop-color="#a0a0a0"/><stop offset=".8" stop-color="#6c6c6c"/><stop offset=".9" stop-color="#252525"/><stop offset="1"/></linearGradient><path fill="url(#h)" stroke="#000" stroke-miterlimit="10" d="M76.6 154.4l-6.8 4.3c-3.6-3.9-6.4-9.6-10.6-17.7l6.8-2.8c4.7 8.2 8.2 12.8 10.6 16.2z"/><linearGradient id="i" gradientUnits="userSpaceOnUse" x1="187.3" y1="104.2" x2="178.5" y2="80"><stop offset="0"/><stop offset=".1" stop-color="#3e3e3e"/><stop offset=".3" stop-color="#7b7b7b"/><stop offset=".4" stop-color="#a7a7a7"/><stop offset=".4" stop-color="#c2c2c2"/><stop offset=".5" stop-color="#ccc"/><stop offset=".6" stop-color="silver"/><stop offset=".6" stop-color="#a0a0a0"/><stop offset=".8" stop-color="#6c6c6c"/><stop offset=".9" stop-color="#252525"/><stop offset="1"/></linearGradient><path fill="url(#i)" stroke="#000" stroke-miterlimit="10" d="M190.2 103.2l-9 .6c.5-4.9-2.2-9.8-5.9-14.9l-3.4-4.6 12-6.2c2.3 2.5 4.3 5.4 5.5 9.8 1.6 5.5 1.2 10.5.8 15.3z"/><linearGradient id="j" gradientUnits="userSpaceOnUse" x1="190.8" y1="42" x2="168.7" y2="23.5"><stop offset="0"/><stop offset=".1" stop-color="#3e3e3e"/><stop offset=".3" stop-color="#7b7b7b"/><stop offset=".4" stop-color="#a7a7a7"/><stop offset=".4" stop-color="#c2c2c2"/><stop offset=".5" stop-color="#ccc"/><stop offset=".6" stop-color="silver"/><stop offset=".6" stop-color="#a0a0a0"/><stop offset=".8" stop-color="#6c6c6c"/><stop offset=".9" stop-color="#252525"/><stop offset="1"/></linearGradient><path fill="url(#j)" stroke="#000" stroke-miterlimit="10" d="M192.4 40.2l-6.3 6.1a27 27 0 0 0-4.8-8.7c-3-3.3-9-5.7-15.5-7.7l4.5-8.3c6.7 2 13 4.6 15.6 7.7 2.7 3.1 4.7 6.8 6.5 10.9z"/><linearGradient id="k" gradientUnits="userSpaceOnUse" x1="65.4" y1="161.2" x2="58.2" y2="141.3"><stop offset="0"/><stop offset=".1" stop-color="#3e3e3e"/><stop offset=".3" stop-color="#7b7b7b"/><stop offset=".4" stop-color="#a7a7a7"/><stop offset=".4" stop-color="#c2c2c2"/><stop offset=".5" stop-color="#ccc"/><stop offset=".6" stop-color="silver"/><stop offset=".6" stop-color="#a0a0a0"/><stop offset=".8" stop-color="#6c6c6c"/><stop offset=".9" stop-color="#252525"/><stop offset="1"/></linearGradient><path fill="url(#k)" stroke="#000" stroke-miterlimit="10" d="M69.8 158.7l-3.2 2c-9.5-4-9.8-9-12.6-17.6l5.2-2.1c4.2 8 7 13.8 10.6 17.7z"/><linearGradient id="l" gradientUnits="userSpaceOnUse" x1="64.4" y1="70.6" x2="72.5" y2="48.4"><stop offset="0"/><stop offset=".1" stop-color="#3e3e3e"/><stop offset=".3" stop-color="#7b7b7b"/><stop offset=".4" stop-color="#a7a7a7"/><stop offset=".4" stop-color="#c2c2c2"/><stop offset=".5" stop-color="#ccc"/><stop offset=".6" stop-color="silver"/><stop offset=".6" stop-color="#a0a0a0"/><stop offset=".8" stop-color="#6c6c6c"/><stop offset=".9" stop-color="#252525"/><stop offset="1"/></linearGradient><path fill="url(#l)" stroke="#000" stroke-miterlimit="10" d="M71 73l-10.3-4.7c-.2-6.6.4-15.3 8.3-21.1l8 6.1c-6.3 5.2-6.3 13.5-6 19.7z"/><linearGradient id="m" gradientUnits="userSpaceOnUse" x1="56.9" y1="66.9" x2="65.5" y2="43.2"><stop offset="0"/><stop offset=".1" stop-color="#3e3e3e"/><stop offset=".3" stop-color="#7b7b7b"/><stop offset=".4" stop-color="#a7a7a7"/><stop offset=".4" stop-color="#c2c2c2"/><stop offset=".5" stop-color="#ccc"/><stop offset=".6" stop-color="silver"/><stop offset=".6" stop-color="#a0a0a0"/><stop offset=".8" stop-color="#6c6c6c"/><stop offset=".9" stop-color="#252525"/><stop offset="1"/></linearGradient><path fill="url(#m)" stroke="#000" stroke-miterlimit="10" d="M60.7 68.3l-6-2.8c.6-6.6 2-16 8-23.3l6.3 5c-7.9 5.8-8.5 14.5-8.3 21z"/><linearGradient id="n" gradientUnits="userSpaceOnUse" x1="52.1" y1="64.5" x2="60.6" y2="41"><stop offset="0"/><stop offset=".1" stop-color="#3e3e3e"/><stop offset=".3" stop-color="#7b7b7b"/><stop offset=".4" stop-color="#a7a7a7"/><stop offset=".4" stop-color="#c2c2c2"/><stop offset=".5" stop-color="#ccc"/><stop offset=".6" stop-color="silver"/><stop offset=".6" stop-color="#a0a0a0"/><stop offset=".8" stop-color="#6c6c6c"/><stop offset=".9" stop-color="#252525"/><stop offset="1"/></linearGradient><path fill="url(#n)" stroke="#000" stroke-miterlimit="10" d="M62.7 42.2a42.3 42.3 0 0 0-8 23.3l-4.5-2a39 39 0 0 1 11.4-22.1l1 .8z"/><linearGradient id="o" gradientUnits="userSpaceOnUse" x1="54.8" y1="118.4" x2="54.8" y2="90"><stop offset="0"/><stop offset=".1" stop-color="#3e3e3e"/><stop offset=".3" stop-color="#7b7b7b"/><stop offset=".4" stop-color="#a7a7a7"/><stop offset=".4" stop-color="#c2c2c2"/><stop offset=".5" stop-color="#ccc"/><stop offset=".6" stop-color="silver"/><stop offset=".6" stop-color="#a0a0a0"/><stop offset=".8" stop-color="#6c6c6c"/><stop offset=".9" stop-color="#252525"/><stop offset="1"/></linearGradient><path fill="url(#o)" stroke="#000" stroke-miterlimit="10" d="M60.5 96.5c-4.8 7-4.9 15-3.2 22H48c-2.4-7.8-3.2-17 2.4-25.1l2.8-3.5 10 3.2c-1 1-1.9 2-2.8 3.4z"/><linearGradient id="p" gradientUnits="userSpaceOnUse" x1="46.7" y1="118.4" x2="46.7" y2="87.5"><stop offset="0"/><stop offset=".1" stop-color="#3e3e3e"/><stop offset=".3" stop-color="#7b7b7b"/><stop offset=".4" stop-color="#a7a7a7"/><stop offset=".4" stop-color="#c2c2c2"/><stop offset=".5" stop-color="#ccc"/><stop offset=".6" stop-color="silver"/><stop offset=".6" stop-color="#a0a0a0"/><stop offset=".8" stop-color="#6c6c6c"/><stop offset=".9" stop-color="#252525"/><stop offset="1"/></linearGradient><path fill="url(#p)" stroke="#000" stroke-miterlimit="10" d="M50.5 93.4c-5.6 8-4.8 17.3-2.4 25h-5c-3.2-9.2-5.1-20.3.6-28.6l1.8-2.3 7.8 2.5c-1 1-1.9 2-2.8 3.4z"/><linearGradient id="q" gradientUnits="userSpaceOnUse" x1="38.4" y1="118.4" x2="38.4" y2="84.8"><stop offset="0"/><stop offset=".1" stop-color="#3e3e3e"/><stop offset=".3" stop-color="#7b7b7b"/><stop offset=".4" stop-color="#a7a7a7"/><stop offset=".4" stop-color="#c2c2c2"/><stop offset=".5" stop-color="#ccc"/><stop offset=".6" stop-color="silver"/><stop offset=".6" stop-color="#a0a0a0"/><stop offset=".8" stop-color="#6c6c6c"/><stop offset=".9" stop-color="#252525"/><stop offset="1"/></linearGradient><path fill="url(#q)" stroke="#000" stroke-miterlimit="10" d="M43.7 89.8c-5.7 8.3-3.8 19.4-.5 28.6h-7c-5.8-9.8-7-22.4-.2-32.2l1-1.4 8.5 2.7-1.8 2.3z"/><linearGradient id="r" gradientUnits="userSpaceOnUse" x1="108.4" y1="69.9" x2="124.4" y2="69.9"><stop offset="0"/><stop offset=".1" stop-color="#3e3e3e"/><stop offset=".3" stop-color="#7b7b7b"/><stop offset=".4" stop-color="#a7a7a7"/><stop offset=".4" stop-color="#c2c2c2"/><stop offset=".5" stop-color="#ccc"/><stop offset=".6" stop-color="silver"/><stop offset=".6" stop-color="#a0a0a0"/><stop offset=".8" stop-color="#6c6c6c"/><stop offset=".9" stop-color="#252525"/><stop offset="1"/></linearGradient><path fill="url(#r)" stroke="#000" stroke-miterlimit="10" d="M124.4 64.7l-.4 10.5a81.1 81.1 0 0 1-15.6-4.9v-3.9c5-.5 10-2 16-1.7z"/><linearGradient id="s" gradientUnits="userSpaceOnUse" x1="197.2" y1="103.1" x2="187.2" y2="75.6"><stop offset="0"/><stop offset=".1" stop-color="#3e3e3e"/><stop offset=".3" stop-color="#7b7b7b"/><stop offset=".4" stop-color="#a7a7a7"/><stop offset=".4" stop-color="#c2c2c2"/><stop offset=".5" stop-color="#ccc"/><stop offset=".6" stop-color="silver"/><stop offset=".6" stop-color="#a0a0a0"/><stop offset=".8" stop-color="#6c6c6c"/><stop offset=".9" stop-color="#252525"/><stop offset="1"/></linearGradient><path fill="url(#s)" stroke="#000" stroke-miterlimit="10" d="M198.6 102.6l-8.4.6c.4-4.8.8-9.8-.8-15.3a22.9 22.9 0 0 0-5.6-9.8l7.3-4a25 25 0 0 1 6.4 10.8 40.4 40.4 0 0 1 1.1 17.7z"/><linearGradient id="t" gradientUnits="userSpaceOnUse" x1="171.3" y1="91.7" x2="151.2" y2="77.7"><stop offset="0"/><stop offset=".1" stop-color="#3e3e3e"/><stop offset=".3" stop-color="#7b7b7b"/><stop offset=".4" stop-color="#a7a7a7"/><stop offset=".4" stop-color="#c2c2c2"/><stop offset=".5" stop-color="#ccc"/><stop offset=".6" stop-color="silver"/><stop offset=".6" stop-color="#a0a0a0"/><stop offset=".8" stop-color="#6c6c6c"/><stop offset=".9" stop-color="#252525"/><stop offset="1"/></linearGradient><path fill="url(#t)" stroke="#000" stroke-miterlimit="10" d="M171 92.2l-2.8 2c-2.9-1.2-6.3-3-12.3-8.3-1.7-1.5-3.1-3.8-5-6.4l3-5.5c3 3.4 5.2 6.5 7 8.1 4.9 4.5 8 7.7 10 10.1z"/><linearGradient id="u" gradientUnits="userSpaceOnUse" x1="167.6" y1="95.2" x2="149" y2="82.2"><stop offset="0"/><stop offset=".1" stop-color="#3e3e3e"/><stop offset=".3" stop-color="#7b7b7b"/><stop offset=".4" stop-color="#a7a7a7"/><stop offset=".4" stop-color="#c2c2c2"/><stop offset=".5" stop-color="#ccc"/><stop offset=".6" stop-color="silver"/><stop offset=".6" stop-color="#a0a0a0"/><stop offset=".8" stop-color="#6c6c6c"/><stop offset=".9" stop-color="#252525"/><stop offset="1"/></linearGradient><path fill="url(#u)" stroke="#000" stroke-miterlimit="10" d="M168.2 94.3L166 96c-9-3.5-14.2-7.9-17.7-11.5l2.7-5c1.9 2.5 3.3 4.8 5 6.3 6 5.3 9.4 7 12.3 8.4z"/><linearGradient id="v" gradientUnits="userSpaceOnUse" x1="199.2" y1="34.3" x2="174.1" y2="13.2"><stop offset="0"/><stop offset=".1" stop-color="#3e3e3e"/><stop offset=".3" stop-color="#7b7b7b"/><stop offset=".4" stop-color="#a7a7a7"/><stop offset=".4" stop-color="#c2c2c2"/><stop offset=".5" stop-color="#ccc"/><stop offset=".6" stop-color="silver"/><stop offset=".6" stop-color="#a0a0a0"/><stop offset=".8" stop-color="#6c6c6c"/><stop offset=".9" stop-color="#252525"/><stop offset="1"/></linearGradient><path fill="url(#v)" stroke="#000" stroke-miterlimit="10" d="M203.1 29.7l-10.7 10.5a41.2 41.2 0 0 0-6.5-11c-2.7-3-8.9-5.5-15.6-7.6l5.9-11a35.5 35.5 0 0 1 27 19z"/><linearGradient id="w" gradientUnits="userSpaceOnUse" x1="206.8" y1="102.3" x2="195.6" y2="71.4"><stop offset="0"/><stop offset=".1" stop-color="#3e3e3e"/><stop offset=".3" stop-color="#7b7b7b"/><stop offset=".4" stop-color="#a7a7a7"/><stop offset=".4" stop-color="#c2c2c2"/><stop offset=".5" stop-color="#ccc"/><stop offset=".6" stop-color="silver"/><stop offset=".6" stop-color="#a0a0a0"/><stop offset=".8" stop-color="#6c6c6c"/><stop offset=".9" stop-color="#252525"/><stop offset="1"/></linearGradient><path fill="url(#w)" stroke="#000" stroke-miterlimit="10" d="M207.8 102l-9.2.6c.7-3.8 1-8.5-1-17.7a25 25 0 0 0-6.5-10.7l7.3-3.8c4 3.8 8.6 7.9 9.8 13.1 2.1 9 1 14.3-.4 18.5z"/><linearGradient id="x" gradientUnits="userSpaceOnUse" x1="215.6" y1="101.5" x2="203.2" y2="67.3"><stop offset="0"/><stop offset=".1" stop-color="#3e3e3e"/><stop offset=".3" stop-color="#7b7b7b"/><stop offset=".4" stop-color="#a7a7a7"/><stop offset=".4" stop-color="#c2c2c2"/><stop offset=".5" stop-color="#ccc"/><stop offset=".6" stop-color="silver"/><stop offset=".6" stop-color="#a0a0a0"/><stop offset=".8" stop-color="#6c6c6c"/><stop offset=".9" stop-color="#252525"/><stop offset="1"/></linearGradient><path fill="url(#x)" stroke="#000" stroke-miterlimit="10" d="M215.7 101.5l-7.9.5c1.3-4.2 2.5-9.4.4-18.5-1.2-5.2-5.7-9.3-9.8-13.1l8-4.3c3.8 3.9 7.7 8 8.8 12.6 2 8.4 1.4 16.2.5 22.8z"/><linearGradient id="y" gradientUnits="userSpaceOnUse" x1="228.3" y1="100.4" x2="214" y2="61.3"><stop offset="0"/><stop offset=".1" stop-color="#3e3e3e"/><stop offset=".3" stop-color="#7b7b7b"/><stop offset=".4" stop-color="#a7a7a7"/><stop offset=".4" stop-color="#c2c2c2"/><stop offset=".5" stop-color="#ccc"/><stop offset=".6" stop-color="silver"/><stop offset=".6" stop-color="#a0a0a0"/><stop offset=".8" stop-color="#6c6c6c"/><stop offset=".9" stop-color="#252525"/><stop offset="1"/></linearGradient><path fill="url(#y)" stroke="#000" stroke-miterlimit="10" d="M233.3 81.6c0 9-2.6 13.5-5.6 19l-12 .8c1-6.5 1.5-14.3-.5-22.7-1.1-4.7-5-8.7-8.8-12.6l12.8-6.7c6.7 6.5 14.2 13.5 14.1 22.2z"/><linearGradient id="z" gradientUnits="userSpaceOnUse" x1="219.1" y1="139.1" x2="219.1" y2="121.8"><stop offset="0"/><stop offset=".1" stop-color="#3e3e3e"/><stop offset=".3" stop-color="#7b7b7b"/><stop offset=".4" stop-color="#a7a7a7"/><stop offset=".4" stop-color="#c2c2c2"/><stop offset=".5" stop-color="#ccc"/><stop offset=".6" stop-color="silver"/><stop offset=".6" stop-color="#a0a0a0"/><stop offset=".8" stop-color="#6c6c6c"/><stop offset=".9" stop-color="#252525"/><stop offset="1"/></linearGradient><path fill="url(#z)" stroke="#000" stroke-miterlimit="10" d="M222.4 138.8l-5.5.3c.4-5.9-1.2-11.7-2.2-17l7.4-.3c.8 5.6 2.3 11.5.3 17z"/><linearGradient id="A" gradientUnits="userSpaceOnUse" x1="187.7" y1="140.6" x2="187.7" y2="123.1"><stop offset="0"/><stop offset=".1" stop-color="#3e3e3e"/><stop offset=".3" stop-color="#7b7b7b"/><stop offset=".4" stop-color="#a7a7a7"/><stop offset=".4" stop-color="#c2c2c2"/><stop offset=".5" stop-color="#ccc"/><stop offset=".6" stop-color="silver"/><stop offset=".6" stop-color="#a0a0a0"/><stop offset=".8" stop-color="#6c6c6c"/><stop offset=".9" stop-color="#252525"/><stop offset="1"/></linearGradient><path fill="url(#A)" stroke="#000" stroke-miterlimit="10" d="M191.7 140.2l-8.8.4c2.6-5.6 1.7-11.4.3-17.1l8.2-.4c1 6.3 1.7 12.2.3 17z"/><linearGradient id="B" gradientUnits="userSpaceOnUse" x1="73.9" y1="74.9" x2="81.1" y2="54.8"><stop offset="0"/><stop offset=".1" stop-color="#3e3e3e"/><stop offset=".3" stop-color="#7b7b7b"/><stop offset=".4" stop-color="#a7a7a7"/><stop offset=".4" stop-color="#c2c2c2"/><stop offset=".5" stop-color="#ccc"/><stop offset=".6" stop-color="silver"/><stop offset=".6" stop-color="#a0a0a0"/><stop offset=".8" stop-color="#6c6c6c"/><stop offset=".9" stop-color="#252525"/><stop offset="1"/></linearGradient><path fill="url(#B)" stroke="#000" stroke-miterlimit="10" d="M80 77.1L71 73c-.3-6.2-.3-14.5 6-19.7l6 4.8c-4.8 5-3.5 13.2-3 19z"/><linearGradient id="C" gradientUnits="userSpaceOnUse" x1="108.4" y1="22.6" x2="135.3" y2="22.6"><stop offset="0"/><stop offset=".1" stop-color="#3e3e3e"/><stop offset=".3" stop-color="#7b7b7b"/><stop offset=".4" stop-color="#a7a7a7"/><stop offset=".4" stop-color="#c2c2c2"/><stop offset=".5" stop-color="#ccc"/><stop offset=".6" stop-color="silver"/><stop offset=".6" stop-color="#a0a0a0"/><stop offset=".8" stop-color="#6c6c6c"/><stop offset=".9" stop-color="#252525"/><stop offset="1"/></linearGradient><path fill="url(#C)" stroke="#000" stroke-miterlimit="10" d="M135.3 19l-.5 9.4a37 37 0 0 0-8.3-2.7c-5.6-1-11.8-.6-18-.2v-8.3c7-.2 14-1.1 21.1.2 2 .4 4 1 5.7 1.6z"/><linearGradient id="D" gradientUnits="userSpaceOnUse" x1="108.4" y1="32.6" x2="134.8" y2="32.6"><stop offset="0"/><stop offset=".1" stop-color="#3e3e3e"/><stop offset=".3" stop-color="#7b7b7b"/><stop offset=".4" stop-color="#a7a7a7"/><stop offset=".4" stop-color="#c2c2c2"/><stop offset=".5" stop-color="#ccc"/><stop offset=".6" stop-color="silver"/><stop offset=".6" stop-color="#a0a0a0"/><stop offset=".8" stop-color="#6c6c6c"/><stop offset=".9" stop-color="#252525"/><stop offset="1"/></linearGradient><path fill="url(#D)" stroke="#000" stroke-miterlimit="10" d="M134.8 28.4l-.7 11.8a36 36 0 0 0-9.8-3.6c-4.4-.8-10-.9-15.9-.8V25.5c6.3-.4 12.5-.8 18 .2a37 37 0 0 1 8.4 2.7z"/><linearGradient id="E" gradientUnits="userSpaceOnUse" x1="108.4" y1="61.7" x2="124.7" y2="61.7"><stop offset="0"/><stop offset=".1" stop-color="#3e3e3e"/><stop offset=".3" stop-color="#7b7b7b"/><stop offset=".4" stop-color="#a7a7a7"/><stop offset=".4" stop-color="#c2c2c2"/><stop offset=".5" stop-color="#ccc"/><stop offset=".6" stop-color="silver"/><stop offset=".6" stop-color="#a0a0a0"/><stop offset=".8" stop-color="#6c6c6c"/><stop offset=".9" stop-color="#252525"/><stop offset="1"/></linearGradient><path fill="url(#E)" stroke="#000" stroke-miterlimit="10" d="M124.7 57.6l-.3 7c-6-.2-11 1.3-16 1.8V57c5.6 0 11.2 0 16.3.6z"/><linearGradient id="F" gradientUnits="userSpaceOnUse" x1="108.4" y1="13.2" x2="135.9" y2="13.2"><stop offset="0"/><stop offset=".1" stop-color="#3e3e3e"/><stop offset=".3" stop-color="#7b7b7b"/><stop offset=".4" stop-color="#a7a7a7"/><stop offset=".4" stop-color="#c2c2c2"/><stop offset=".5" stop-color="#ccc"/><stop offset=".6" stop-color="silver"/><stop offset=".6" stop-color="#a0a0a0"/><stop offset=".8" stop-color="#6c6c6c"/><stop offset=".9" stop-color="#252525"/><stop offset="1"/></linearGradient><path fill="url(#F)" stroke="#000" stroke-miterlimit="10" d="M135.9 9.6l-.6 9.4a33 33 0 0 0-5.7-1.6c-7-1.3-14-.4-21.2-.2V7.8c8 0 12.5-1.4 22.3.4 1.8.3 3.5.8 5.2 1.4z"/><linearGradient id="G" gradientUnits="userSpaceOnUse" x1="108.4" y1="52.2" x2="125" y2="52.2"><stop offset="0"/><stop offset=".1" stop-color="#3e3e3e"/><stop offset=".3" stop-color="#7b7b7b"/><stop offset=".4" stop-color="#a7a7a7"/><stop offset=".4" stop-color="#c2c2c2"/><stop offset=".5" stop-color="#ccc"/><stop offset=".6" stop-color="silver"/><stop offset=".6" stop-color="#a0a0a0"/><stop offset=".8" stop-color="#6c6c6c"/><stop offset=".9" stop-color="#252525"/><stop offset="1"/></linearGradient><path fill="url(#G)" stroke="#000" stroke-miterlimit="10" d="M125 48l-.3 9.6c-5-.7-10.7-.7-16.3-.6V46.8c3.7 0 7.3 0 10.7.2 2.2 0 4 .5 5.9 1z"/><linearGradient id="H" gradientUnits="userSpaceOnUse" x1="176.9" y1="55.7" x2="159.1" y2="40.8"><stop offset="0"/><stop offset=".1" stop-color="#3e3e3e"/><stop offset=".3" stop-color="#7b7b7b"/><stop offset=".4" stop-color="#a7a7a7"/><stop offset=".4" stop-color="#c2c2c2"/><stop offset=".5" stop-color="#ccc"/><stop offset=".6" stop-color="silver"/><stop offset=".6" stop-color="#a0a0a0"/><stop offset=".8" stop-color="#6c6c6c"/><stop offset=".9" stop-color="#252525"/><stop offset="1"/></linearGradient><path fill="url(#H)" stroke="#000" stroke-miterlimit="10" d="M178.7 53.6l-7.1 7c-2-4.7-3.5-8.9-5.5-10.3-3.1-2.1-6-3-9.4-3.4l4.8-8.9c4.4 1.4 8.4 3 11.7 5.4 2 1.4 3.6 5.5 5.5 10.2z"/><linearGradient id="I" gradientUnits="userSpaceOnUse" x1="184" y1="48.9" x2="164" y2="32.1"><stop offset="0"/><stop offset=".1" stop-color="#3e3e3e"/><stop offset=".3" stop-color="#7b7b7b"/><stop offset=".4" stop-color="#a7a7a7"/><stop offset=".4" stop-color="#c2c2c2"/><stop offset=".5" stop-color="#ccc"/><stop offset=".6" stop-color="silver"/><stop offset=".6" stop-color="#a0a0a0"/><stop offset=".8" stop-color="#6c6c6c"/><stop offset=".9" stop-color="#252525"/><stop offset="1"/></linearGradient><path fill="url(#I)" stroke="#000" stroke-miterlimit="10" d="M186.1 46.3l-7.4 7.3c-1.9-4.7-3.5-8.8-5.5-10.2-3.3-2.3-7.3-4-11.7-5.4l4.3-8.1c6.5 2 12.6 4.3 15.5 7.7a27 27 0 0 1 4.8 8.7z"/><linearGradient id="J" gradientUnits="userSpaceOnUse" x1="169.2" y1="63.4" x2="153.7" y2="50.4"><stop offset="0"/><stop offset=".1" stop-color="#3e3e3e"/><stop offset=".3" stop-color="#7b7b7b"/><stop offset=".4" stop-color="#a7a7a7"/><stop offset=".4" stop-color="#c2c2c2"/><stop offset=".5" stop-color="#ccc"/><stop offset=".6" stop-color="silver"/><stop offset=".6" stop-color="#a0a0a0"/><stop offset=".8" stop-color="#6c6c6c"/><stop offset=".9" stop-color="#252525"/><stop offset="1"/></linearGradient><path fill="url(#J)" stroke="#000" stroke-miterlimit="10" d="M171.6 60.6l-8.5 8.2a37 37 0 0 0-2.9-6.8c-.9-1.4-1.9-2.7-3.2-3.6a16.3 16.3 0 0 0-5.2-2.4l5-9.2c3.2.6 6.2 1.3 9.3 3.5 2 1.5 3.5 5.6 5.5 10.3z"/><linearGradient id="K" gradientUnits="userSpaceOnUse" x1="177.7" y1="85.6" x2="154.9" y2="69.6"><stop offset="0"/><stop offset=".1" stop-color="#3e3e3e"/><stop offset=".3" stop-color="#7b7b7b"/><stop offset=".4" stop-color="#a7a7a7"/><stop offset=".4" stop-color="#c2c2c2"/><stop offset=".5" stop-color="#ccc"/><stop offset=".6" stop-color="silver"/><stop offset=".6" stop-color="#a0a0a0"/><stop offset=".8" stop-color="#6c6c6c"/><stop offset=".9" stop-color="#252525"/><stop offset="1"/></linearGradient><path fill="url(#K)" stroke="#000" stroke-miterlimit="10" d="M175.3 89l-4.4 3.2c-2-2.4-5.1-5.6-10-10-1.8-1.7-4-4.8-7-8.2l6.3-12c1.2 2 2 4.4 3 6.8 1 3.2 2.1 6.4 4 9.2l4.7 6.3 3.4 4.6z"/><linearGradient id="L" gradientUnits="userSpaceOnUse" x1="196.3" y1="140.2" x2="196.3" y2="122.8"><stop offset="0"/><stop offset=".1" stop-color="#3e3e3e"/><stop offset=".3" stop-color="#7b7b7b"/><stop offset=".4" stop-color="#a7a7a7"/><stop offset=".4" stop-color="#c2c2c2"/><stop offset=".5" stop-color="#ccc"/><stop offset=".6" stop-color="silver"/><stop offset=".6" stop-color="#a0a0a0"/><stop offset=".8" stop-color="#6c6c6c"/><stop offset=".9" stop-color="#252525"/><stop offset="1"/></linearGradient><path fill="url(#L)" stroke="#000" stroke-miterlimit="10" d="M201 133.7c-.7.4-1.3.9-1.8 1.5l-3.8 4.8-3.7.2c1.4-4.9.7-10.7-.3-17l8.3-.4a27 27 0 0 1 1.3 10.9z"/><linearGradient id="M" gradientUnits="userSpaceOnUse" x1="204.6" y1="139.6" x2="204.6" y2="122.4"><stop offset="0"/><stop offset=".1" stop-color="#3e3e3e"/><stop offset=".3" stop-color="#7b7b7b"/><stop offset=".4" stop-color="#a7a7a7"/><stop offset=".4" stop-color="#c2c2c2"/><stop offset=".5" stop-color="#ccc"/><stop offset=".6" stop-color="silver"/><stop offset=".6" stop-color="#a0a0a0"/><stop offset=".8" stop-color="#6c6c6c"/><stop offset=".9" stop-color="#252525"/><stop offset="1"/></linearGradient><path fill="url(#M)" stroke="#000" stroke-miterlimit="10" d="M205 139.6c.6-1.6.7-3.3 0-4.8-1-1.9-2.6-1.9-4-1.1a27 27 0 0 0-1.3-11l7.8-.3c1 5.5 1.9 10.8 0 15.8.7.3 1.5.7 2 1.2l-4.4.2z"/><linearGradient id="N" gradientUnits="userSpaceOnUse" x1="212.2" y1="139.4" x2="212.2" y2="122.1"><stop offset="0"/><stop offset=".1" stop-color="#3e3e3e"/><stop offset=".3" stop-color="#7b7b7b"/><stop offset=".4" stop-color="#a7a7a7"/><stop offset=".4" stop-color="#c2c2c2"/><stop offset=".5" stop-color="#ccc"/><stop offset=".6" stop-color="silver"/><stop offset=".6" stop-color="#a0a0a0"/><stop offset=".8" stop-color="#6c6c6c"/><stop offset=".9" stop-color="#252525"/><stop offset="1"/></linearGradient><path fill="url(#N)" stroke="#000" stroke-miterlimit="10" d="M217 139l-7.5.4c-.5-.5-1.3-1-2-1.2 1.9-5 1-10.3 0-15.8l7.2-.3c1 5.3 2.6 11.1 2.2 17z"/></g></svg>