<svg id="Layer_1" data-name="Layer 1" xmlns="http://www.w3.org/2000/svg" xmlns:xlink="http://www.w3.org/1999/xlink" viewBox="0 0 200.4 315.2"><defs><style>.cls-1{fill:none;stroke:#000;stroke-miterlimit:10;stroke-width:.71px}</style><linearGradient id="Gradiente_sem_nome" x1="113.8" y1="86.7" x2="157.1" y2="161.5" gradientTransform="matrix(1 0 0 -1 0 316)" gradientUnits="userSpaceOnUse"><stop offset="0" stop-color="#fff"/><stop offset=".3" stop-color="#a2a2a2"/><stop offset=".7" stop-color="#4b4b4b"/><stop offset=".9" stop-color="#151515"/><stop offset="1"/></linearGradient><linearGradient id="Gradiente_sem_nome_2" x1="97.3" y1="212.4" x2="73.3" y2="170.9" gradientTransform="matrix(1 0 0 -1 0 316)" gradientUnits="userSpaceOnUse"><stop offset="0" stop-color="#fff"/><stop offset="0" stop-color="#f8f8f8"/><stop offset=".3" stop-color="#a1a1a1"/><stop offset=".6" stop-color="#5c5c5c"/><stop offset=".8" stop-color="#2a2a2a"/><stop offset=".9" stop-color="#0b0b0b"/><stop offset="1"/></linearGradient><linearGradient id="Gradiente_sem_nome_3" x1="86.3" y1="166.6" x2="86.3" y2="125.7" xlink:href="#Gradiente_sem_nome"/><linearGradient id="Gradiente_sem_nome_4" x1="85.3" y1="182" x2="85.3" y2="148.8" xlink:href="#Gradiente_sem_nome"/><linearGradient id="Gradiente_sem_nome_5" x1="29.6" y1="183.4" x2="52" y2="144.5" gradientTransform="matrix(1 0 0 -1 0 316)" gradientUnits="userSpaceOnUse"><stop offset="0" stop-color="#fff"/><stop offset="0" stop-color="#fbfbfb"/><stop offset=".2" stop-color="#b0b0b0"/><stop offset=".4" stop-color="#717171"/><stop offset=".6" stop-color="#404040"/><stop offset=".8" stop-color="#1d1d1d"/><stop offset=".9" stop-color="#080808"/><stop offset="1"/></linearGradient><linearGradient id="Gradiente_sem_nome_6" x1="24.5" y1="149.5" x2="45.4" y2="128.6" xlink:href="#Gradiente_sem_nome_5"/><linearGradient id="Gradiente_sem_nome_7" x1="92.2" y1="132.7" x2="32.8" y2="98.4" gradientTransform="matrix(1 0 0 -1 0 316)" gradientUnits="userSpaceOnUse"><stop offset="0" stop-color="#fff"/><stop offset="0" stop-color="#fcfcfc"/><stop offset=".1" stop-color="#c2c2c2"/><stop offset=".1" stop-color="#8e8e8e"/><stop offset=".2" stop-color="#636363"/><stop offset=".3" stop-color="#3f3f3f"/><stop offset=".3" stop-color="#232323"/><stop offset=".4" stop-color="#101010"/><stop offset=".5" stop-color="#040404"/><stop offset=".5"/><stop offset="1" stop-color="#616161"/></linearGradient><linearGradient id="Gradiente_sem_nome_8" x1="23.9" y1="94.2" x2="93.1" y2="94.2" xlink:href="#Gradiente_sem_nome_7"/><linearGradient id="Gradiente_sem_nome_9" x1=".7" y1="137" x2="30.4" y2="137" gradientTransform="matrix(1 0 0 -1 0 316)" gradientUnits="userSpaceOnUse"><stop offset="0" stop-color="#fff"/><stop offset=".1" stop-color="#d4d4d4"/><stop offset=".3" stop-color="#949494"/><stop offset=".5" stop-color="#5f5f5f"/><stop offset=".6" stop-color="#363636"/><stop offset=".8" stop-color="#181818"/><stop offset=".9" stop-color="#060606"/><stop offset="1"/></linearGradient><linearGradient id="Gradiente_sem_nome_10" x1="16.4" y1="33.9" x2="46" y2="85.3" xlink:href="#Gradiente_sem_nome"/><linearGradient id="Gradiente_sem_nome_11" x1="45.8" y1="155.1" x2="59.3" y2="131.7" xlink:href="#Gradiente_sem_nome_5"/><linearGradient id="Gradiente_sem_nome_12" x1="61.9" y1="173" x2="61.9" y2="139.1" gradientTransform="matrix(1 0 0 -1 0 316)" gradientUnits="userSpaceOnUse"><stop offset="0" stop-color="#fff"/><stop offset=".1" stop-color="#d9d9d9"/><stop offset=".2" stop-color="#a0a0a0"/><stop offset=".4" stop-color="#6f6f6f"/><stop offset=".5" stop-color="#474747"/><stop offset=".6" stop-color="#282828"/><stop offset=".8" stop-color="#121212"/><stop offset=".9" stop-color="#050505"/><stop offset="1"/></linearGradient><linearGradient id="Gradiente_sem_nome_13" x1="56.8" y1="145.1" x2="67" y2="127.3" xlink:href="#Gradiente_sem_nome_5"/><linearGradient id="Gradiente_sem_nome_14" x1="126.3" y1="98.5" x2="98" y2="114.8" gradientTransform="matrix(1 0 0 -1 0 316)" gradientUnits="userSpaceOnUse"><stop offset="0" stop-color="#fff"/><stop offset=".1" stop-color="#e1e1e1"/><stop offset=".3" stop-color="#9e9e9e"/><stop offset=".5" stop-color="#656565"/><stop offset=".6" stop-color="#3a3a3a"/><stop offset=".8" stop-color="#1a1a1a"/><stop offset=".9" stop-color="#070707"/><stop offset="1"/></linearGradient><linearGradient id="Gradiente_sem_nome_15" x1="133.3" y1="101.4" x2="183.7" y2="51.1" gradientTransform="matrix(1 0 0 -1 0 316)" gradientUnits="userSpaceOnUse"><stop offset=".1"/><stop offset=".5" stop-color="#b3b3b3"/><stop offset=".6" stop-color="#a2a2a2"/><stop offset=".8" stop-color="#4b4b4b"/><stop offset=".9" stop-color="#161616"/><stop offset="1"/></linearGradient><linearGradient id="Gradiente_sem_nome_16" x1="51.5" y1="72.3" x2="107.8" y2="72.3" xlink:href="#Gradiente_sem_nome_14"/><linearGradient id="Gradiente_sem_nome_17" x1="90.2" y1="1.2" x2="90.2" y2="74.8" gradientTransform="matrix(1 0 0 -1 0 316)" gradientUnits="userSpaceOnUse"><stop offset="0" stop-color="#fff"/><stop offset="0" stop-color="#fdfdfd"/><stop offset=".2" stop-color="#bbb"/><stop offset=".3" stop-color="#828282"/><stop offset=".5" stop-color="#535353"/><stop offset=".6" stop-color="#2f2f2f"/><stop offset=".8" stop-color="#151515"/><stop offset=".9" stop-color="#050505"/><stop offset="1"/></linearGradient><linearGradient id="Gradiente_sem_nome_18" x1="166.1" y1="219.9" x2="124.6" y2="178.4" xlink:href="#Gradiente_sem_nome"/><linearGradient id="Gradiente_sem_nome_19" x1="17.2" y1="210.7" x2="36" y2="178.2" gradientTransform="matrix(1 0 0 -1 0 316)" gradientUnits="userSpaceOnUse"><stop offset="0" stop-color="#fff"/><stop offset=".3" stop-color="#afafaf"/><stop offset=".5" stop-color="#656565"/><stop offset=".8" stop-color="#2e2e2e"/><stop offset=".9" stop-color="#0d0d0d"/><stop offset="1"/></linearGradient><linearGradient id="Gradiente_sem_nome_20" x1="28.4" y1="253.7" x2="60.3" y2="253.7" gradientTransform="matrix(1 0 0 -1 0 316)" gradientUnits="userSpaceOnUse"><stop offset="0" stop-color="#fff"/><stop offset=".1" stop-color="#c3c3c3"/><stop offset=".3" stop-color="#888"/><stop offset=".5" stop-color="#585858"/><stop offset=".6" stop-color="#323232"/><stop offset=".8" stop-color="#161616"/><stop offset=".9" stop-color="#060606"/><stop offset="1"/></linearGradient><linearGradient id="Gradiente_sem_nome_21" x1="51.1" y1="255.7" x2="74" y2="255.7" gradientTransform="matrix(1 0 0 -1 0 316)" gradientUnits="userSpaceOnUse"><stop offset="0" stop-color="#fff"/><stop offset=".1" stop-color="#dfdfdf"/><stop offset=".3" stop-color="#9c9c9c"/><stop offset=".5" stop-color="#646464"/><stop offset=".6" stop-color="#393939"/><stop offset=".8" stop-color="#1a1a1a"/><stop offset=".9" stop-color="#070707"/><stop offset="1"/></linearGradient><linearGradient id="Gradiente_sem_nome_22" x1="150.4" y1="276.4" x2="117.2" y2="270.5" xlink:href="#Gradiente_sem_nome_20"/><linearGradient id="Gradiente_sem_nome_23" x1="277" y1="246.6" x2="232.1" y2="291.6" gradientTransform="rotate(180 185.8 158)" xlink:href="#Gradiente_sem_nome_21"/><linearGradient id="Gradiente_sem_nome_24" x1="150.6" y1="282.8" x2="178.9" y2="266.4" xlink:href="#Gradiente_sem_nome_20"/><linearGradient id="Gradiente_sem_nome_25" x1="170.6" y1="266.5" x2="198" y2="256.6" xlink:href="#Gradiente_sem_nome_21"/></defs><path class="cls-1" d="M181 184.3c-8.3-6.1-11.2-12.7-14.7-19.2"/><path d="M181 184.3a24 24 0 0 0-8.4 9.7c-11 20.3-15.4 58.6-55 37.5 10.5-12.9 12.8-32-4.8-55.9a32.2 32.2 0 0 0 1.5-8.3v-1.5-.7-.8a1 1 0 0 0 0-.1l-.1-1.3-.2-1.3c6.8-9 10.2-17 11-23.8 42.7 13.6 28.8 47.3 56 46.5z" fill="url(#Gradiente_sem_nome)" stroke="#000" stroke-miterlimit="10" stroke-width=".7"/><path d="M124.8 137.8c-.7 6.8-4 14.7-10.9 23.8l-.1-1a21 21 0 0 0-.8-3.3 52.4 52.4 0 0 0-1.2-3.7l-.4-.7-1-2-1-1.7-.5-.8c-.1-.3-.4-.5-.6-.7l-.6-.7-.7-.7-.5-.5-.4-.3-.6-.4-.5-.5a16.2 16.2 0 0 0-1.7-1l-.7-.4-.5-.2-.4-.2-.9-.4-.6-.2-.5-.2-1.6-.4c-3-8.2-22.5-11.5-28.4-1.5 1.3-9.7-16.5-19.4-29-13.8-2.2-8 .7-16.7 6.8-22.3a23.2 23.2 0 0 1 5.8-4 23.8 23.8 0 0 1 15.3-1.6 36.4 36.4 0 0 1 15.5 8c1.4-1.3 4.4-1.8 8.3-1.4 12.9 1.1 34.8 11.6 32.4 32.8z" fill="url(#Gradiente_sem_nome_2)" stroke="#000" stroke-miterlimit="10" stroke-width=".7"/><path class="cls-1" d="M117.6 231.5"/><path d="M100.8 167.2a108.6 108.6 0 0 1-4.4 23.1c-6-3.3-15-4.5-24.4-4.5-.4 0-.2-3.7.2-8.9 3.7-1 10.8-15.2 5-27.5 5.7 8.4 11.5 17.8 23.6 17.8z" fill="url(#Gradiente_sem_nome_3)" stroke="#000" stroke-miterlimit="10" stroke-width=".7"/><path class="cls-1" d="M114.3 167.3a32.2 32.2 0 0 1-1.5 8.3c-.8 2.9-1.7 5.8-2.4 8.8-.9 4.3 0 8.8-1.6 13-3.5 9.7-11 16.8-19 28.4a2.6 2.6 0 0 0-.2-.3 22 22 0 0 1-.6-6.5c.4-8 4.1-17.5 7.3-28.5h.4l-.3-.1a108.6 108.6 0 0 0 4.4-23.1 71.5 71.5 0 0 0-2.8-25.6l1.6.4.5.2.6.2.9.3.4.2.6.3.6.3a16.2 16.2 0 0 1 1.7 1.1l.6.4.5.4.4.4.5.5.7.7.6.6.6.8.5.7 1 1.7 1 2 .4.8a25.6 25.6 0 0 1 2 7l.1 1 .2 1.3v1.2a1 1 0 0 1 0 .2v1.4c.3.5.3 1 .3 1.5zM114 161.6h-.1"/><path d="M100.8 167.2c-12.1 0-17.9-9.4-23.6-17.8a45.7 45.7 0 0 0-7.6-9.3c6-10 25.5-6.6 28.4 1.6a71.5 71.5 0 0 1 2.8 25.5z" fill="url(#Gradiente_sem_nome_4)" stroke="#000" stroke-miterlimit="10" stroke-width=".7"/><path class="cls-1" d="M100.9 167.2"/><path d="M72.5 149.4c-9.2-13.6-25-3-21 8.3-2.8 1.9-4.4 5.2-3 9.5-2.6 0-5 1.8-6.7 4.3.9-19.4-7.5-12.7-9-7.6-6.8-5.4-11.6 7.8-9 24a46.3 46.3 0 0 1-2.4-41.6c2.5-5.2 6-8.4 9.5-8.4 2-6 5.6-9.7 9.9-11.6 12.4-5.6 30.2 4.1 28.9 13.9 1.5 1.4 2.3 4.8 2.8 9.2z" fill="url(#Gradiente_sem_nome_5)" stroke="#000" stroke-miterlimit="10" stroke-width=".7"/><path class="cls-1" d="M107.8 240.4v.1M29.8 210.3h.4M89.4 219.3l-.4-.3M29.8 210.3"/><path d="M44.1 188.7a35.3 35.3 0 0 0-13 4.5c-3.2-2-5.6-3.9-7-4.5l-.4-.8c-2.6-16.1 2.2-29.3 9-24 1.5-5.1 10-11.8 9 7.6-3.2 5-3.6 13.3 2.4 17.2z" fill="url(#Gradiente_sem_nome_6)" stroke="#000" stroke-miterlimit="10" stroke-width=".7"/><path class="cls-1" d="M96.4 190.3v.1c-9-1.4-26.8 9.5-32.4 2.8-13.8 9-25.5 4.3-32.8 0 1.4-1.4 6.3-3 13-4.5 3.2-.6 6.8-1.3 10.7-1.8a136.2 136.2 0 0 1 17.1-1.1 53 53 0 0 1 24.4 4.5z"/><path d="M96.3 190.4c-3.1 11-6.9 20.5-7.3 28.6-11.3-9.3-45.1-9.6-58.8-8.7-2-.7-10.8-11.9-7.3-19.5l.4-.7a8.3 8.3 0 0 1 1-1.4c1.3.6 3.7 2.5 7 4.5 7.3 4.3 19 9 32.7 0 5.6 6.7 23.3-4.2 32.3-2.8z" fill="url(#Gradiente_sem_nome_7)" stroke="#000" stroke-miterlimit="10" stroke-width=".7"/><path class="cls-1" d="M89.6 225.5c-9.6-11.7-28.8-.8-35.7-9.2-6.9 9.7-26-.4-29.6-5v-.1c.3-.3 2.3-.6 5.5-.9-1.6 0-10.6-11.7-7-19.5-3.4 7.6 5.4 18.8 7.4 19.5 13.6-1 47.5-.6 58.8 8.6a22 22 0 0 0 .6 6.6z"/><path d="M93.1 232.4c-23-5-60.2 5-67.8-10.2A12.5 12.5 0 0 1 24 218a22.2 22.2 0 0 1 .3-6.8C28 216 47 226 54 216.2c6.9 8.5 26.1-2.4 35.7 9.3l.1.5.1-.2a20.9 20.9 0 0 1 3.3 6.6z" fill="url(#Gradiente_sem_nome_8)" stroke="#000" stroke-miterlimit="10" stroke-width=".7"/><path d="M30.4 210.3c-3.2.3-5.7.6-6 .9a22.2 22.2 0 0 0-.4 6.8 22.2 22.2 0 0 1-15.5-6.8c-6-7-6.3-19-6.3-31.3-3.7-25-.2-35.2 4.8-38.5 6.1-4 14.3 2.2 14.3 4.8a46.3 46.3 0 0 0 2.4 41.7l.5.9a8.3 8.3 0 0 0-1 1.3l-.4.7c-3.4 7.6 5.4 18.8 7.4 19.5z" fill="url(#Gradiente_sem_nome_9)" stroke="#000" stroke-miterlimit="10" stroke-width=".7"/><path d="M75.8 250.7c-2.6 32-14.4 34.9-26.9 33.4-10-1.1-20.5-5.1-26.9 1.2a7 7 0 0 0 .4-5c1.2-10.3-10.6-28.5-19.2-34.2a32.3 32.3 0 0 1 5.4-34.9c3 3.6 8.6 6.3 15.4 6.8a12.5 12.5 0 0 0 1.3 4.2c0 9.7 13.6 21.7 26.2 18.5 4.3 7 13.6 10.2 24.3 10z" fill="url(#Gradiente_sem_nome_10)" stroke="#000" stroke-miterlimit="10" stroke-width=".7"/><path class="cls-1" d="M22.4 280.4c-2-8.2-13.7-20.2-19.2-34.3 8.6 5.7 20.4 23.9 19.2 34.3zM75.8 250.7v-.1M22.4 280.4v.5M167 279.1c11.3-7.8 23-24.8 29.7-24.2M106.6 241.2"/><path d="M66.6 171c-10-6-20.8 8-11.7 16-4 .4-7.5 1-10.8 1.7-6-3.8-5.6-12.1-2.3-17.2 1.7-2.5 4-4.3 6.8-4.3-1.5-4.2.1-7.6 2.9-9.5 5.6-3.8 16.1-1.2 15 13.3z" fill="url(#Gradiente_sem_nome_11)" stroke="#000" stroke-miterlimit="10" stroke-width=".7"/><path d="M72.2 177a16.8 16.8 0 0 0-5.6-6c1-14.5-9.5-17.1-15.1-13.3-4-11.3 11.8-22 21-8.3.8 8.2.1 19.7-.3 27.5z" fill="url(#Gradiente_sem_nome_12)" stroke="#000" stroke-miterlimit="10" stroke-width=".7"/><path d="M72 185.8a136.2 136.2 0 0 0-17.2 1.1c-9-7.8 1.7-21.9 11.7-16a16.8 16.8 0 0 1 5.6 6c-.3 5.3-.5 8.9-.1 8.9z" fill="url(#Gradiente_sem_nome_13)" stroke="#000" stroke-miterlimit="10" stroke-width=".7"/><path d="M117.6 231.5a45.8 45.8 0 0 1-9.8 9 24 24 0 0 0-14.7-8.1 20.9 20.9 0 0 0-3.3-6.6c8-11.6 15.5-18.8 19-28.3 1.5-4.3.7-8.8 1.6-13.2.7-3 1.6-5.8 2.4-8.7 17.6 24 15.3 43 4.8 56z" fill="url(#Gradiente_sem_nome_14)" stroke="#000" stroke-miterlimit="10" stroke-width=".7"/><path d="M195 253.6c-9.8-5.2-25.7 13.1-28 25.5a23.2 23.2 0 0 1-6.7 3.4 43.8 43.8 0 0 1-29.8-1.6c-13.4-6-23.3-19.3-23.9-39.7l1.1-.7.4.3-.3-.3a45.8 45.8 0 0 0 9.8-9c39.5 21.1 44-17.2 55-37.5h.1c33.8-8.4 17.5 50.3 22.3 59.6z" fill="url(#Gradiente_sem_nome_15)" stroke="#000" stroke-miterlimit="10" stroke-width=".7"/><path class="cls-1" d="M196.7 254.9a2 2 0 0 1-1.7-1.3M172.6 194l-.7.2M196.7 254.9a7.7 7.7 0 0 0-1.7-1.3"/><path d="M107.8 240.5l-1.2.7a60.4 60.4 0 0 1-30.8 9.5c-10.7.2-20-3-24.3-10a17.4 17.4 0 0 0 5.6-2.6c9.4 8.9 37.5-8.6 50.7 2.4z" fill="url(#Gradiente_sem_nome_16)" stroke="#000" stroke-miterlimit="10" stroke-width=".7"/><path d="M129.7 297c-17.8 27.7-54 16.5-54 9.5-14.7 0-26.6-10.1-26.8-22.4 12.4 1.4 24.2-1.4 26.8-33.4a60.4 60.4 0 0 0 30.9-9.5c.6 20.4 10.5 33.8 23.9 39.7 1.3 6.5 1.7 12.3-.8 16.2z" fill="url(#Gradiente_sem_nome_17)" stroke="#000" stroke-miterlimit="10" stroke-width=".7"/><path class="cls-1" d="M49 284.1v-.3"/><path d="M166.3 165c-5.4-9.7-12.3-19.3-41.5-27.2 2.4-21.2-19.5-31.7-32.4-32.9 2.4-19 16.7-22.8 31.2-22.8 11.4 0 22.9 2.1 29 1l.3-.1c-3.1 14.6 11.8 21.7 24 27a34.3 34.3 0 0 1 4 7.7c5.7 15.5.1 47-14.6 47.4z" fill="url(#Gradiente_sem_nome_18)" stroke="#000" stroke-miterlimit="10" stroke-width=".7"/><path class="cls-1" d="M166.3 165h-.2M176.9 110c-12.2-5.2-27-12.4-24-27a18.3 18.3 0 0 0 3.5 5.5c3.5 4.1 8.9 8.5 13.8 13.6a63.5 63.5 0 0 1 6.7 8zM177 110.2l-.1-.1M153 82.8v.2"/><path d="M40.7 126.3a18.6 18.6 0 0 0-9.9 11.5c-3.4 0-7 3.3-9.5 8.4 0-2.6-8.2-8.9-14.3-4.8 0-15.6 4.7-28.1 10.5-28.1.4-6.1 6-12.9 12.8-15.2 5.7-2 12.2-1 17.2 5.9-6 5.6-9 14.2-6.8 22.3z" fill="url(#Gradiente_sem_nome_19)" stroke="#000" stroke-miterlimit="10" stroke-width=".7"/><path d="M53.3 100a23.2 23.2 0 0 0-5.8 4c-5-6.9-11.5-7.9-17.2-6-9.9-47.8 20.5-67 30-77.4-6 25-12.8 57.2-7 79.4z" fill="url(#Gradiente_sem_nome_20)" stroke="#000" stroke-miterlimit="10" stroke-width=".7"/><path d="M68.6 98.4a23.8 23.8 0 0 0-15.3 1.6c-5.8-22.2 1-54.5 7-79.4 5.5 23.8 22.2 28.5 8.3 77.8z" fill="url(#Gradiente_sem_nome_21)" stroke="#000" stroke-miterlimit="10" stroke-width=".7"/><path class="cls-1" d="M54.6 47L48 32.7M52.4 61.3L39.9 42.5M51.2 75.5L33.9 53M51.4 87.8L30.1 64.2M53.3 100L28.4 80.3M54.6 47l12.2-9.3M52.4 61.3L72.6 53M51.2 74.3L74 66.2M51.3 87.1l21.1-5M53.3 100l17.1-9.3"/><path d="M154.2 67.4a78.4 78.4 0 0 1-1.6 15.7 1.9 1.9 0 0 1 0 .2c-6.4 1-26-1-28.9-1.2 5.8-22.3-1-55.6-7-80.6 4.5 5 14.9 12.8 23.6 24.6a76.5 76.5 0 0 1 7.3 12l1.3 2.7a65.9 65.9 0 0 1 5.3 26.6z" fill="url(#Gradiente_sem_nome_22)" stroke="#000" stroke-miterlimit="10" stroke-width=".7"/><path d="M109 84a96.6 96.6 0 0 1 18.3-1.6c5.9-22.2-4.6-55.9-10.7-80.8-5.4 23.8-21.4 33-7.5 82.4z" fill="url(#Gradiente_sem_nome_23)" stroke="#000" stroke-miterlimit="10" stroke-width=".7"/><path class="cls-1" d="M123.1 27.3l9.3-10.5M126 40.8l14.2-14.7M127.9 54.6l19.6-16.5M129 66.5l23.3-15.3M127.9 79.8l26.3-12.4M123.1 27.3l-12.9-8.6M126 40.8l-20.7-6.4M127.9 54.6l-24.3-7.2M129 66.5L104.5 63M127.9 79.8l-21.4-4.3"/><path d="M188.6 3.2s-18.4 57.7-32.2 85.3A18.3 18.3 0 0 1 153 83h-.3a78.4 78.4 0 0 0 1.6-15.6 65.9 65.9 0 0 0-5.4-26.6C152.3 22 168.7 9 188.6 3.2z" fill="url(#Gradiente_sem_nome_24)" stroke="#000" stroke-miterlimit="10" stroke-width=".7"/><path d="M170.2 102.1c-5-5-10.3-9.5-13.8-13.6 13.8-27.6 32.2-85.3 32.2-85.3 21 42.6 12 65.4-18.4 98.9z" fill="url(#Gradiente_sem_nome_25)" stroke="#000" stroke-miterlimit="10" stroke-width=".7"/><path class="cls-1" d="M181 25.9l-7.4-16.5M175.7 41.1l-11-25.8M169.3 58.1l-13.7-33.2M162.4 75.5l-13.6-34.7M181 25.9l14.6-6.3M175.7 41.1l23.6-6.7M169.3 58.1l30.3-7.1M162.4 75.5l31.9-6.7M156.4 88.5l26.7-1.8"/></svg>