<svg xmlns="http://www.w3.org/2000/svg" width="595.3" height="841.9"><path d="M358.7 351.3v-2zM246 362.4a148.6 148.6 0 0 0-35.4 16.3 185.1 185.1 0 0 1-13.3-12.1 176.3 176.3 0 0 1-33.3-48.2 195.6 195.6 0 0 1-12.2-129l.8-2.8a4 4 0 0 1 3.5-2.2c2.5 0 4.1 1.9 4.1 3.8v.1c0 .3 0 .6-.2.8A153.2 153.2 0 0 0 195.2 328a126.2 126.2 0 0 0 16 14.8v.1l3.2 2.4a131.2 131.2 0 0 0 31.6 17.2zM471.7 243.3a192 192 0 0 1-2.7 24.3 62.1 62.1 0 0 0-43.3-31.1l.4-5.8c4-80.7-53.4-149-128-152.6-56.7-2.8-107.2 32.8-129.7 85.6-.3 1-.7 1.7-1.1 2.2-.8.9-1.8 1.1-3.3 1.1-2 0-3.8-1-3.4-3 .2-1.4.3-1.8.8-3 27.4-64 88-107.2 156.2-104 89.9 4.4 159 87.8 154.1 186.3z"/><path d="M404.6 236.3c-2.4.4-4.8.9-7 1.5-19.1-31.1-53.4-52-92.4-52A109 109 0 0 0 198 312.5c-2.9-1.3-6-2.2-9.2-2.6-2-8.1-3.1-16.6-3.1-25.3 0-60.4 51.7-109.3 115.5-109.3 45.1 0 84.3 25.5 103.4 61.1zM194.4 328.8l-.3-.8h1l.9-.7-.8.7h1-1zM204.1 337.8h2.2zM382.2 358l-1.5-1.5 1.5 1.4z"/><path d="M460.7 341l-1.6-1.4a61 61 0 0 0-54.4-102.2l-.3-2.1a62 62 0 0 1 21.5.1 62.9 62.9 0 0 1 52 62.3c0 16.1-6.2 31.5-17.2 43.3z"/><path d="M494.3 384l-.9-.4h-1v-.5a28.8 28.8 0 0 0-32.3-41.7l-.5-2.1a30.9 30.9 0 0 1 34.7 44.8z"/><path d="M513 397.7H511c0-7.3-6-14-12.6-14-1.6 0-3 .3-4.5.9l-.4-1h-1v-.8l.6-.2c1.7-.7 3.5-1 5.3-1 7.8 0 14.7 7.5 14.7 16zM196.6 367.3a176.7 176.7 0 0 1-32.9-47A28.5 28.5 0 0 0 160 353l-1.8 1a31 31 0 0 1 5.2-36.3l1-1 .7 1.3c8.4 18 19.6 34 33 47.8l-1.4 1.5zM198.5 311.5h.2l-1 2-.2-.1zM181.1 311l-.3-2.2c2.8-.4 5.5-.4 8.1 0l-.2 2c-2.5-.2-5-.2-7.6.1z"/><path d="M123.9 392.7a30.9 30.9 0 0 1 35.4-40.2l-.5 2a28.8 28.8 0 0 0-33 37.4l-2 .8zM454.5 440c0 8.5-2.2 16.7-6.2 24.4a79 79 0 0 1-19.4 23.5c-20.7 17.7-52.6 30.9-90 36.5-13 2-26.6 3-40.6 3-6.7 0-13.3-.4-19.7-1.2-69-8.1-122.2-56.4-136.8-71a85.7 85.7 0 0 1-3.7-3.7l-.2-.3s5-12 16-27.8c2.7-4 5.8-8.3 9.3-12.6l18.6-20.3c6.4-6.2 13.6-12.3 21.7-17.8l7 6.1a171.1 171.1 0 0 0-32 25.6l-1.8 1.7a117.8 117.8 0 0 0-8.3 9.2L166 418c-4.2 5.2-7.8 10-10.7 14.4l-1 1.4-.4.8-.9 1.3-1.2 1.9-.8 1.2c-2.7 4.4-4.5 7.8-5.5 9.7l-.5 1-.2.4-.1.4s2.9 3 8.2 7.6a245.3 245.3 0 0 0 25.6 19.6l3.1 2.1 2.8 1.9a261.6 261.6 0 0 0 15.9 9.4l.3.1 3.4 2a233.4 233.4 0 0 0 9.5 4.6l5.9 2.8a148.2 148.2 0 0 0 13 5.2 144 144 0 0 0 15.3 5l4.4 1.3c3.6 1 7.3 1.8 11 2.5l2.8.6a136.8 136.8 0 0 0 12.2 1.8l2.1.2 1.6.2 1.5.1 2.8.2 3 .2 2.8.2h14.7l8.3-.4 5.4-.4 7.2-.6 3.8-.5 7.9-1 3.9-.6h.4a88.3 88.3 0 0 0 7.3-1.4 205.8 205.8 0 0 0 11.1-2.5 147.8 147.8 0 0 0 16.6-4.7l3.1-1.1a186.5 186.5 0 0 0 10.1-3.9c1.3-.5 2.6-1 3.9-1.7a89.8 89.8 0 0 0 11.9-6 78 78 0 0 0 8.6-5.2 76.6 76.6 0 0 0 5.8-4.1l1.3-1 1.3-1.1 1.9-1.6 2.3-2.1a65.4 65.4 0 0 0 16-23c.7-1.8 1.2-3.5 1.6-5.2l.3-1.7.2-1.2.2-1.2.1-1 .2-1.3v-3c0-22.3-14.6-45-42.9-61.4-7.3-4.3-15.5-8-24.7-11.4-3.5.8-7.2 1.3-11 1.4h-2.2a55.8 55.8 0 0 1-29.6-7.8 46 46 0 0 1-4.6-3 41.1 41.1 0 0 1-12.1-13.9 34 34 0 0 1 .5-32.8c-.4 2-.6 4-.6 6 0 11 5.5 21 14.4 28.3a60.7 60.7 0 0 0 46.8 11.3 49.6 49.6 0 0 0 35-22.8 41 41 0 0 1-22.3 28.1c6.6 3.1 12.6 6.5 18 10 27.9 18.4 42.4 43.1 42.4 67.4zM358.7 351.3v-2zM169.6 471.2zM192.3 486.4z"/><path d="M381.5 358.3l-.8-.3.7-.8v-1l.8.3-.7.7zM268.3 358.2l-.4-2c8-1.4 16.3-2.2 24.7-2.3v2.1c-8.2.2-16.4.9-24.3 2.2zM211.1 379.6l-1-1.8a158.4 158.4 0 0 1 35.6-16.4l.7 2a148.6 148.6 0 0 0-35.3 16.2zM440.3 466.3l-1.8-1.1 1.1-1.8 1.8 1.2-1 1.7zM442.5 462.7l-1.9-1 .2-.3.8-1.4 1.9.9-.8 1.5-.2.3zM445.2 457.2l-2-.9.7-1.6 2 .7-.7 1.8zM265.3 400.4l-.6-.8h-1.2c0-.6.4-.8.7-1l.7 1h.8-.8l.6.7h-.2z"/><path d="M447.4 443.5a216.8 216.8 0 0 0-97.2-37.6 279.8 279.8 0 0 0-129.5 15.6c-32.6 11.7-57.2 26.7-67.7 36.5.6-1.8 1.6-5 1.8-7 .3-2.4 1.2-4.2 2.1-6.3 1.8-4.2 1.8-9.3 4-13.3 1.7 1.7 3.6 4.5 5.8 5.6.8-4 1.2-8.8 1-13 3.3 3 4.4 7 6.8 10.5.4-3 1.4-6.1 2-9.2.6-2.7 1.1-5.8 2.5-8.1 1.2 1.7 1.6 3.9 2.8 5.7l3.4 5.5c.5-2.3 1.3-4.7 1.8-7.2.5-3 .2-7.2 1.6-9.6 2.4 2.9 3.7 7.5 5.5 10.7.5-5 1.2-10.5 2.7-15.2 1.5 1.4 2.7 4.2 3.7 6.1.9 1.8 2.8 6 4.8 7.1 0-8.3 2.3-16 3-24.1 3 5 6.1 12.2 9.7 16.8 4.7-4-1.2-15.8 2-20.5 1.6 2.9 4 5.2 5.5 8.2.6 1 1 2.2 1.5 3.4.4 1.1 1 2.2 1.6 3l.8-7.6c.5-4.5 1-9 1-13.5a81 81 0 0 0 3.3 6.6c2.4 4.5 5 9.4 5.6 12.6.5-.4 1.4-6 1.7-8 .4-3.3 1.1-7.2.8-10.4 4.4 2.2 5.1 12.4 8.2 16.2 2.1-1.7 2.1-5.8 2.7-8.3.8-3.2 1.5-6.3 2-9.6 3 4 7.8 10 10 14.5l.1-.2c1.4-4.6-.4-11.3 1.7-15.3 5.4 1.4 7 9.9 10.6 13.1a69 69 0 0 1 2.6-16.1c1.7 1.8 3 5 4.2 7.3 1 2 2.1 5.8 4 6.9.7-4.5 1.7-10.3 3.4-14.5 1.8 1.9 2.5 4.4 4.7 6.5 1.2 1.2 3.2 4.1 4.5 6.8.7-2 4.6-7.7 6.4-17.2 3.4 4.4 4.2 10 6.3 14.7 1.9-4.2 3.4-10.7 6.8-14 2.8 3.8 4.3 10 6.1 14.4 3.5-2.7 3.7-10.3 6.3-13.8 2 3 2.6 9.4 2.5 12.9 3.2-5.4 5-10.9 9.3-15.5.6 2.9 2.6 5.3 3 7.9.5 3 1.2 6.7 1.5 9.8 1.5-5.2 3-11 5.1-15.9 1.6 5.2 4.4 10.2 5.7 15.5 2.3-4.2 5-8.3 7.4-12.5.8 2.2 1.3 4.5 1.9 6.8.5 2.4 0 5 .7 7.3 1.5-2.3 3-6 4.2-8.7l.8-1.8 1.4 4.5c1.1 3.9 2.1 7.8 2.7 11.9a134 134 0 0 0 2-5.2l.6-1.7c.8-2 2.2-4.3 2.6-6.3 2.4-.2 4.7 14.8 4.7 15.5 3.3-4 7.5-7.8 11.3-11.4-.7.9-.5 2.6-.5 3.7l-.3 4c-.2 2-.6 4.1-1 6 1.8-2.6 4.7-4.5 7.1-6.5 0 1.9.8 3.8 1 5.7.3 2.2-.1 4.4 0 6.6 1.5-3.2 5.3-5.6 7-9l2.3 6.3c.8 2.1.9 4.3 1.5 6.5.6-1.3 1.4-1.8 2.4-2.9 1.1-1.3 3-2.3 4-3.4 2.2 3.8 4.9 8.7 5.3 13 1.5-1.7 3.8-3.8 4.9-4.7.3.7 2.8 4.5 3.3 5.4 1.1 2.2 2.5 4.5 3.8 6.4 1.6 2.1 3 4.1 4.1 6.4.9 1.5 1.7 6 2.7 8.7zM387.5 402.8h2zM154.4 432.3h2zM134.9 452.8a21.6 21.6 0 0 1-17.8-34l-82.4-19.2 90-8.4.3 2.2-77 7.1 72.8 17-1 1.4a19.5 19.5 0 0 0 18.2 31.5h.1v1.2l.2.9c-1.1.2-2.3.3-3.4.3zM448.4 465.3l-.1-2c24.2-1.5 42.4-19.1 42.4-41.2v-.7l39-16.2-18.1-6.5.7-2 23.3 8.3-42.8 17.8c-.4 22.9-19.3 41.1-44.4 42.5z"/><path d="M425.5 510.2l-4.4-.2.2-2.1c13.6 1 25-3 32-11.2 7-8.3 9.2-20.5 5.9-34.3l2-.5c3.5 14.5 1.2 27.3-6.3 36.2-6.7 7.9-17 12-29.4 12zM171.6 490.3c29.1 22.3 53.7 35.4 77.3 38.4-17.4 7.7-34.3 2.5-58-15.9 17.4 19.9 27.6 25.5 61 30.4a9.5 9.5 0 0 0 0 7.6 79.3 79.3 0 0 1-58-25.4c-21.1-20.8-36.5-50.6-55.7-74l.5.6 3.1 3.2c11.5 12 20.9 24.3 30.2 35.8M181.8 502.7"/><path d="M138.2 452.5h-.7l-.3-.6v-.1l.3-.2.6-.7v-.5.5l.6-.5.3.3V451l-.9.4v1.1z"/><path d="M141 455.9l-3-3.1a12 12 0 0 0-.6-.6l-.2-.3 1.4-1.6a4.8 4.8 0 0 1 .4.5l.5.5 3 3.1-1.5 1.5zM187.6 528a41 41 0 0 1-23.4-9.2 31 31 0 0 1-5-38.9l1.8 1.2a28.9 28.9 0 0 0 4.7 36.2c4 3.7 14.8 8.9 22.6 8.6 2.7-.1 4.8-1 6-2.3l1.6 1.4c-1.6 1.9-4.2 2.9-7.5 3h-.8zM373 560.8c-11 0-21-4.3-29.5-12.9l-.2-.2-.8-2.6h1.5c9.3 0 19.4-2.1 29.2-6.2l5.7-2.2c3.5-1.2 7.2-2.6 10.3-4.3 10-5.7 10-7.5 10-7.5l2-.5c.5 2.3-2.8 5.2-10.9 9.8-3.3 1.9-7 3.2-10.6 4.5L374 541c-9.4 3.9-19 6-28.1 6.3a39.6 39.6 0 0 0 44.5 7.9c20.1-8.3 36.5-29 36.5-46h2.1c0 17.9-17 39.4-37.8 48a47.9 47.9 0 0 1-18.2 3.7z"/><path d="M364.4 548.6h-.6v-2.1c3.4.2 7.7-1.7 11.4-3.3a69 69 0 0 1 4.4-1.8 39 39 0 0 0 13.4-6.7l1.5 1.5c-3.6 3.5-9.7 5.7-14.2 7.2l-4.2 1.8c-3.8 1.6-8 3.4-11.7 3.4zM401 533.8l-.2-2.1c6-.5 12.5-7.6 16.6-14.1l1.8 1.1c-2.1 3.4-9.8 14.4-18.2 15zM376 552c-2.7 0-5.3-.3-7.5-1l.7-2.1c7.2 2.6 19.9.3 24.8-6.4l1.7 1.3c-4 5.5-12.4 8.3-19.7 8.3zM429.6 488.2l-1.2-.8a29.6 29.6 0 0 1 2.3-2.9c1.2-1.3 3-3.3 3-4.5v-.7l-.1-.2 1.3-.5v.1c.2.5.4.9.3 1.5-.2 1.6-2 3.6-3.4 5.3l-1 1.2c-.5.6-1 1-1.2 1.5z"/><path d="M376.9 528.3l-.5-1.3c4.7-1.7 8.5-3.6 12.2-5.4l4.1-2a65 65 0 0 0 12.2-8.3l3.4-2.7c5.2-4 10.5-9 15-14.5a186.5 186.5 0 0 1 5.1-6.8l1.1 1-1.5 2-3.6 4.8a98.3 98.3 0 0 1-15.2 14.6l-3.5 2.7c-3.8 3.1-7.9 6.3-12.4 8.4l-4 2c-3.8 1.9-7.6 3.8-12.4 5.5zM442.7 493.5l-.3-1.4c3.5-.7 6.5-7.3 8-10.4v-.1c1.5-3.4 3-8.3 2.2-11.6l1.4-.3c1 4.6-1.5 10.7-2.3 12.5l-.1.1c-1.6 3.6-4.7 10.3-9 11.2zM305 537.1a37 37 0 0 1-13.7-2.2l.5-1.3a44.5 44.5 0 0 0 19 2c4.7-.4 9.5-1.2 14-2l2-.3c2.6-.4 6.2-.9 7.6-2.6l1.1.9c-1.7 2.2-5.5 2.7-8.5 3l-2 .4a112.2 112.2 0 0 1-20 2.1zM286.6 545.3l-10-.1c-3.2-.2-6.4-.8-9.2-1.3-1.4-.2-2.6-.7-3.8-1.1-1.3-.5-2.5-.9-3.6-1l.2-1.5c1.3.2 2.6.7 3.9 1.2a65.5 65.5 0 0 0 12.6 2.3h10.5a36 36 0 0 0 10.3-1.4l.2 1.3-2.2.5c-2.7.6-5.2 1.1-8.3 1.1h-.3-.3zM325.2 554.4H316V553H325.2c4.5 0 8.7-1.4 13-2.8l.7-.3.5 1.4-.7.2c-4.3 1.4-8.8 3-13.5 3zM274.2 553c-1.5 0-3-.2-4.5-.6l.5-1.4c3.6 1.2 8.6.3 12.2-.9l.5 1.3c-1.4.5-5 1.6-8.7 1.6zM212.5 556.5c9.1 0 9.1-14.2 0-14.2s-9.2 14.2 0 14.2zM225.6 557c3.2 0 3.2-5 0-5s-3.2 5 0 5zM124.6 462.2c3.2 0 3.2-5 0-5s-3.2 5 0 5zM138.3 479.6c4.5 0 4.5-7 0-7s-4.6 7 0 7zM229.4 400.2v-.7h-.7l.7-.7v.7h.7-.7zM251.8 513.9a90.8 90.8 0 0 1-31.7-92.6l1.3.4a89.4 89.4 0 0 0 31.2 91.1l-.8 1zM375.4 389l-.2-.2v-.3h.7l.5-.5-.5.5h.7-.7zM362.5 512.6l-.9-1a89.8 89.8 0 0 0 27.7-96.5l1.3-.5a91.3 91.3 0 0 1-28.1 98zM307.2 507.7a60.4 60.4 0 0 1-60.4-60.4h1.5a59.3 59.3 0 0 0 59 59v1.4zM367.6 449.9l-1.5-.1.1-2.5c0-15.4-5.9-29.9-16.5-41l1-1a59.9 59.9 0 0 1 16.9 44.6zM203.6 397.4l-2-1c1.6-3.1 6.7-6.7 7.7-7.3l3.7-2.6c2.8-2 5.7-4 8.8-5.8l2.3-1.3c4-2.4 8.2-4.9 12.4-7.2a80 80 0 0 1 3.4-1.6c3-1.4 9.2-4.2 10-5 0 0-.2 0-.2.3l2.1.2c0 1.1-1.6 2.1-11 6.4l-3.3 1.6-12.4 7-2.3 1.4a129.5 129.5 0 0 0-12.3 8.3c-2.8 1.9-6 4.6-6.9 6.6zM321.5 355c-2 0-3.9-.3-5.7-.9l.6-2a19 19 0 0 0 12-.5l.7 2c-2.6 1-5.1 1.4-7.6 1.4zM357 350.3c-2 0-5.3-.5-10.8-2.3a27 27 0 0 1-10.4-6.6c-5.3-5.2-7.2-10.6-9.4-17l-1-2.6 2-.7 1 2.7c2.1 6 4 11.2 9 16.1a25 25 0 0 0 9.5 6c8.6 2.9 11.3 2.4 11.6 2l2 .9c-.3.5-.8 1.5-3.5 1.5zM377.2 352l-1.1-1.8a28 28 0 0 1 6.8-2.9l2.7-.8c1.7-.6 3.2-1.4 5-2.3 1.3-.7 2.7-1.4 4.2-2a37.3 37.3 0 0 0 10.3-6.1c1-.7 4.1-2.8 4-3.8l2-.4c.5 2.3-2.5 4.4-4.8 6l-1 .7c-3 2.4-6.2 4.1-9.7 5.6l-4.1 2-5.2 2.3-2.8.9c-2.2.7-4.4 1.4-6.3 2.6zM369.8 342.5l-5.6-.1c-6.8-.4-10.8-2.6-15.4-5l-4.7-2.5 1-2 4.7 2.5c4.6 2.6 8.2 4.5 14.5 4.9 12 .6 20.1-.8 21.7-3.5l1.9 1c-2.2 3.7-10.2 4.7-18.1 4.7zM303.4 327.1c3.2 0 3.2-5 0-5s-3.2 5 0 5zM298.1 336.6c2.3 0 2.3-3.5 0-3.5s-2.3 3.5 0 3.5zM180.8 368.7c2.3 0 2.3-3.6 0-3.6s-2.3 3.6 0 3.6zM189.7 377.9c2.3 0 2.3-3.5 0-3.5s-2.3 3.5 0 3.5zM171.3 362.7c.9 0 .9-1.4 0-1.4s-1 1.4 0 1.4zM484.3 311.2c3.2 0 3.2-5 0-5s-3.2 5 0 5zM486.6 328.7c4.6 0 4.6-7 0-7s-4.6 7 0 7z"/><path d="M347.6 452.6a39.5 39.5 0 0 1-39.3 39.6 39.4 39.4 0 0 1-38.6-47 14 14 0 0 0 14.6-24 39 39 0 0 1 24-8.3 39.5 39.5 0 0 1 39.3 39.7zM230.9 438h-1.4c0-9 .4-16.8 6.4-24l1 1c-5.6 6.7-6 14.4-6 23zM241 485.3c-.2-1-1.7-2.8-2.9-4.3l-2-2.7a52.3 52.3 0 0 1-8.8-29.8h1.4a50.9 50.9 0 0 0 8.6 29c.4.8 1.1 1.7 2 2.6 1.4 1.8 2.8 3.6 3.1 4.9l-1.4.3zM266.8 508.3c-5-1.8-7.9-5.8-10.7-9.6-1.3-1.8-2.5-3.5-4-5l1-1c1.6 1.6 2.9 3.4 4.2 5.1 2.7 3.7 5.5 7.5 10 9.1l-.5 1.4zM383 452.8l-1.3-.4a66.8 66.8 0 0 0 1.5-18.8v-.3c0-6.6-.9-15.2-4.2-19.3l1-.9c3.7 4.4 4.5 13.4 4.6 20.1v.4c0 6.3.2 13.4-1.6 19.2zM375.7 475.6l-1.1-1a34.6 34.6 0 0 0 5.8-15.4h1.4c0 4.5-3.4 13-6 16.4zM249 438.8c3.1 0 3.1-5 0-5-3.3 0-3.3 5 0 5zM251.3 431.5c3.2 0 3.2-5 0-5s-3.2 5 0 5zM254.2 424.3c3.2 0 3.2-5 0-5s-3.2 5 0 5zM259.8 416c3.2 0 3.2-5 0-5s-3.2 5 0 5zM271.2 412.5c3.2 0 3.2-5 0-5s-3.2 5 0 5zM266.6 420.3c3.2 0 3.2-5 0-5s-3.2 5 0 5zM261.1 426.3c3.2 0 3.2-5 0-5s-3.2 5 0 5z"/><path d="M268.3 422.8c3.2 0 3.2-5 0-5s-3.2 5 0 5zM278.3 418.5c3.2 0 3.2-5 0-5s-3.2 5 0 5zM281.5 418.3l.3.6v.1c.6.8.6.7 0-.4.2 1.4 1.8 2.1 3 1.8 1.4-.4 2-1.8 1.7-3a2 2 0 0 0-.2-.8c-.7-.8-.6-.7 0 .3-.2-1.3-1.8-2-3-1.7-1.4.4-2 1.7-1.8 3zM261.1 434c3.2 0 3.2-5 0-5s-3.2 5 0 5zM256.9 439.8c3.2 0 3.2-5 0-5s-3.2 5 0 5zM262.3 445c3.2 0 3.2-5 0-5s-3.2 5 0 5zM256.5 447.7v-.2c0-1.3-1.1-2.4-2.5-2.4s-2.5 1-2.5 2.4v.2c0 1.4 1.1 2.5 2.5 2.5s2.5-1.1 2.5-2.5zM252 444.6c3.3 0 3.3-5 0-5s-3.1 5 0 5zM265.6 447h-.4a2.5 2.5 0 0 0-2.5 2.5c0 1.3 1.2 2.4 2.5 2.4h.4c1.3 0 2.5-1 2.5-2.4s-1.2-2.5-2.5-2.5zM259.2 456c3.2 0 3.2-5 0-5s-3.2 5 0 5zM250.7 460.4c3.2 0 3.2-5 0-5s-3.2 5 0 5zM256 469.4l.1.2c1 1 2.6 1 3.5 0 1-1 1-2.6 0-3.5l-.2-.2c-1-1-2.5-1-3.5 0s-1 2.5 0 3.5zM256.7 463.5c3.2 0 3.2-5 0-5s-3.2 5 0 5zM264.4 460.8c3.2 0 3.2-5 0-5s-3.2 5 0 5z"/><path d="M263.3 469.7c3.2 0 3.2-5 0-5s-3.2 5 0 5zM258.6 478.6c3.2 0 3.2-5 0-5s-3.2 5 0 5zM271 473.2c3.2 0 3.2-5 0-5s-3.2 5 0 5zM268.3 472.4l-.2-.2c-1-1-2.5-1-3.5 0s-1 2.6 0 3.6l.2.1c1 1 2.6 1 3.5 0 1-1 1-2.5 0-3.5zM265.2 427c3.2 0 3.2-5 0-5s-3.2 5 0 5zM277.2 480.5c3.2 0 3.2-5 0-5s-3.2 5 0 5z"/><path d="M275.2 484.8c3.2 0 3.2-5 0-5s-3.1 5 0 5z"/><path d="M271.8 481c-.5-.5-.3 0 .5 1.3 0-1.3-1-2.5-2.5-2.5a2.5 2.5 0 0 0-2.4 2.5 3 3 0 0 0 .9 2.1c1 1 2.5 1 3.5 0s1-2.5 0-3.5zM264.2 483.8c3.2 0 3.2-5 0-5s-3.2 5 0 5zM270.6 490.6h.2c1.4 0 2.5-1.1 2.5-2.5s-1.1-2.5-2.5-2.5h-.2a2.5 2.5 0 0 0-2.5 2.5c0 1.4 1.2 2.5 2.5 2.5zM275.4 494.3c3.2 0 3.2-5 0-5s-3.2 5 0 5z"/><path d="M281.6 492.2v-.4c0-1.4-1.1-2.5-2.5-2.5a2.5 2.5 0 0 0-2.5 2.5v.4c0 1.3 1.2 2.4 2.5 2.4 1.4 0 2.5-1 2.5-2.4zM279.9 488.5c3.2 0 3.2-5 0-5s-3.2 5 0 5zM286 498.7c3.3 0 3.3-5 0-5-3.1 0-3.1 5 0 5zM288.6 489.6v-.3l-.3-.6c.2.4.2.5.2.3-.3-1.3-1.9-2-3-1.7-1.5.3-2 1.7-1.8 3v.2l.3.6-.1-.2c.2 1.3 1.8 2 3 1.7 1.4-.4 2-1.7 1.8-3zM289.6 492.5v.2c0 1.4 1.1 2.5 2.5 2.5 1.3 0 2.4-1.1 2.4-2.5v-.2c0-1.3-1-2.4-2.4-2.4a2.5 2.5 0 0 0-2.5 2.4zM292.4 497.7l-.5.7c0 .1-.3.5.1 0-.8 1-1 2.4 0 3.4s2.7 1 3.5 0l.5-.6c.1-.1.4-.5 0 0 .8-1 1-2.4 0-3.5-1-.8-2.7-1-3.6 0zM297.6 503.4l.2.2c1 1 2.6 1 3.5 0 1-1 1-2.6 0-3.5 0-.1 0-.2-.2-.2-1-1-2.5-1-3.5 0s-1 2.5 0 3.5zM302.3 496.6l.2-.2c1-1 1-2.5 0-3.5s-2.6-1-3.5 0l-.2.2c-1 1-1 2.6 0 3.5 1 1 2.6 1 3.5 0zM310.2 496.4v-.2c0-1.3-1.1-2.5-2.5-2.5a2.5 2.5 0 0 0-2.5 2.5v.2c0 1.4 1.1 2.5 2.5 2.5s2.5-1.1 2.5-2.5zM307.9 504.1c3.2 0 3.2-5 0-5s-3.2 5 0 5zM317.2 502.6l1.5.6.7 1.1c-.3-1.4-1.8-2.1-3-1.8-1.4.4-2.1 1.7-1.8 3 .2 1.3 1.4 2 2.6 2 1.3.2 2.4-1.1 2.4-2.4 0-1.4-1-2.4-2.4-2.5zM319.6 497v-.4c0-1.4-1-2.5-2.4-2.5a2.5 2.5 0 0 0-2.5 2.5v.4c0 1.3 1.1 2.5 2.5 2.5 1.3 0 2.4-1.2 2.4-2.5zM326.6 494.3c3.2 0 3.2-5 0-5s-3.2 5 0 5zM323.6 499.7v.4c0 1.3 1.1 2.5 2.4 2.5 1.4 0 2.5-1.2 2.5-2.5v-.4c0-1.4-1.1-2.5-2.5-2.5a2.5 2.5 0 0 0-2.4 2.5z"/><path d="M328.6 506.4c3.2 0 3.2-5 0-5s-3.2 5 0 5zM338.2 502.6c3.2 0 3.2-5 0-5s-3.2 5 0 5zM347.1 496.2c3.2 0 3.2-5 0-5s-3.2 5 0 5z"/><path d="M352 491.8l.5-.6c1-1 1-2.5 0-3.5s-2.5-1-3.5 0l-.6.6c-1 1-1 2.5 0 3.5s2.6 1 3.5 0zM356.8 484.8c3.2 0 3.2-5 0-5s-3.2 5 0 5z"/><path d="M359.5 481.3c3.2 0 3.2-5 0-5s-3.2 5 0 5zM361.8 475.7c3.2 0 3.2-5 0-5s-3.2 5 0 5zM367.5 460v-.1c0-1.4-1-2.5-2.4-2.5a2.5 2.5 0 0 0-2.5 2.5v.2c0 1.3 1.1 2.5 2.5 2.5 1.3 0 2.4-1.2 2.4-2.5zM366.4 454.5c3.2 0 3.2-5 0-5s-3.2 5 0 5zM360.8 463.8h-.2a2.5 2.5 0 0 0-2.5 2.5c0 1.3 1.2 2.5 2.5 2.5h.2c1.4 0 2.5-1.2 2.5-2.5 0-1.4-1.1-2.5-2.5-2.5zM354.3 474.4c3.1 0 3.1-5 0-5s-3.2 5 0 5zM348.4 475c-.7.7-1 1.5-1 2.5-.2 1.3 1.1 2.5 2.4 2.5 1.4 0 2.4-1.2 2.5-2.5 0 .2 0 .5-.2.7l-.2.3c1-1 1-2.6 0-3.5-.9-1-2.5-1-3.5 0zM340.6 485.2v.8c0 1.3 1 2.5 2.4 2.5s2.5-1.2 2.5-2.5v-.8c0-1.3-1.1-2.5-2.5-2.5a2.5 2.5 0 0 0-2.4 2.5zM338.1 488.8a2 2 0 0 0-.6.3h-.1c-.8.6-.7.5.4-.1-1.4.3-2.1 1.8-1.8 3 .4 1.4 1.8 2 3 1.8.3 0 .5-.2.8-.3.8-.6.7-.6-.3 0 1.3-.2 2-1.7 1.7-3-.4-1.3-1.7-2-3-1.7zM333.3 483.8l.2-.4.3-.3c-1 1-1 2.5 0 3.5.9.9 2.5 1 3.5 0 .3-.4.7-1 .8-1.5.2-1.3-.3-2.7-1.7-3-1.2-.4-2.8.3-3 1.7zM330.7 492.3c3.2 0 3.2-5 0-5s-3.2 5 0 5zM340.5 480.2c3.2 0 3.2-5 0-5s-3.2 5 0 5zM348.3 474.2l.6-.6c1-1 1-2.5 0-3.5s-2.6-1-3.6 0l-.5.6c-1 1-1 2.6 0 3.5 1 1 2.5 1 3.5 0zM357 462c3.2 0 3.2-5 0-5s-3.2 5 0 5zM354.8 468.8c3.2 0 3.2-5 0-5s-3.2 5 0 5zM347 457.4l-.5.6c-1 1-1 2.5 0 3.5s2.6 1 3.5 0l.6-.6c1-1 1-2.6 0-3.5-1-1-2.6-1-3.5 0zM351.5 454c1 0 1.8-.2 2.6-.8 1-1 .9-2.7 0-3.6-1-1-2.5-.8-3.5 0 .3-.3.8-.5 1.2-.5a7 7 0 0 1-.3 0 2.5 2.5 0 0 0-2.4 2.5c0 1.3 1 2.5 2.4 2.5zM356.5 449.7c3.2 0 3.2-5 0-5s-3.2 5 0 5zM360.8 452l-.2-.2c-1-1-2.5-1-3.5 0s-1 2.5 0 3.5l.2.2c1 1 2.6 1 3.5 0 1-1 1-2.6 0-3.5zM363 445.6c.6-.7.9-1.5.9-2.5 0-1.4-1.2-2.5-2.5-2.5a2.5 2.5 0 0 0-2.5 2.5v.3c0-.5.2-1 .6-1.3-1 1-1 2.5 0 3.5.9 1 2.6 1 3.5 0zM352.7 443c3.2 0 3.2-4.9 0-4.9s-3.2 5 0 5zM345.2 443.6c3.2 0 3.2-5 0-5s-3.2 5 0 5zM348 436.8c.4-.7.6-1.2.6-2 0-1.4-1.1-2.5-2.5-2.5a2.5 2.5 0 0 0-2.4 2.7v-.5l.1-.2c-.6 1.2-.4 2.7.9 3.4 1 .6 2.8.3 3.4-.9z"/><path d="M349.3 434.5c1-.2 2-1.1 2.1-2.1.3-1.4-.3-2.7-1.7-3-1.2-.4-2.8.3-3 1.6l1.3-1.3c-1.3.2-2 1.8-1.7 3 .3 1.4 1.7 2 3 1.8zM353.5 432.9c0 .5.2.1.5-1.2-.8 1-1 2.5 0 3.5 1 .9 2.7 1 3.6 0 .5-.7.9-1.4.9-2.3 0-1.4-1.2-2.5-2.5-2.5a2.5 2.5 0 0 0-2.5 2.5z"/><path d="M359.9 438.3l.2-.2c1-1 1-2.6 0-3.5-1-1-2.6-1-3.5 0l-.2.2c-1 1-1 2.5 0 3.5s2.5 1 3.5 0zM363.5 428.8c0-.9-.3-1.6-.7-2.4-.6-1.2-2.3-1.5-3.4-.9-1.3.7-1.5 2.2-1 3.4l.2.3v-.2-.2c0 1.3 1 2.5 2.4 2.5 1.3 0 2.6-1.1 2.5-2.5zM352.3 424c3.2 0 3.2-5 0-5s-3.2 5 0 5zM344 427.3l.2.2c1 1 2.5 1 3.5 0s1-2.6 0-3.5l-.2-.2c-1-1-2.5-1-3.5 0s-1 2.5 0 3.5zM342.6 427.6v-.5c0-1.4-1.1-2.5-2.4-2.5s-2.5 1.1-2.5 2.5v.5c0 1.4 1.1 2.5 2.5 2.5s2.4-1.1 2.4-2.5z"/><path d="M340.6 424a3 3 0 0 0 .9-2.2c0-1.3-1.2-2.4-2.5-2.4a2.5 2.5 0 0 0-2.5 2.4c.8-1.3 1-1.8.5-1.3-.9 1-1 2.5 0 3.5s2.6 1 3.6 0zM344.8 420.3l.2-.2c1-1 1-2.5 0-3.5s-2.6-1-3.5 0l-.2.2c-1 1-1 2.6 0 3.5 1 1 2.5 1 3.5 0zM351 414.5c3.2 0 3.2-5 0-5s-3.2 5 0 5zM343.6 413.3c3.2 0 3.2-5 0-5s-3.2 5 0 5zM332.4 421.4c3.2 0 3.2-5 0-5s-3.2 5 0 5zM327.2 409v.3c0 1.3 1.2 2.5 2.5 2.5 1.4 0 2.5-1.2 2.5-2.5v-.4c0-1.3-1.1-2.5-2.5-2.5a2.5 2.5 0 0 0-2.5 2.5z"/><path d="M329.7 417c3.2 0 3.2-5 0-5s-3.2 5 0 5zM341 414v-.8c0-1.4-1-2.5-2.4-2.5a2.5 2.5 0 0 0-2.5 2.5v.7c0 1.4 1.2 2.5 2.5 2.5 1.4 0 2.5-1.1 2.5-2.5zM337.8 408.1c.6-.7 1-1.3 1-2.3 0-1.3-1.2-2.5-2.5-2.5a2.5 2.5 0 0 0-2.5 2.5c0 .6.2.2.5-1.2-.8 1-1 2.5 0 3.5s2.7 1.1 3.5 0zM324.1 410.3l.2-.2c1-1 1-2.6 0-3.5-1-1-2.5-1-3.5 0l-.2.2c-1 1-1 2.5 0 3.5s2.6 1 3.5 0zM317.1 409.5v-.4c0-1.4-1.1-2.5-2.4-2.5a2.5 2.5 0 0 0-2.5 2.5v.4c0 1.3 1.1 2.5 2.5 2.5 1.3 0 2.4-1.2 2.4-2.5zM309.1 407l-1.3 1.4c1.3-.3 2-1.8 1.7-3-.4-1.4-1.7-2-3-1.8-1 .2-2 1.1-2.2 2.1-.2 1.4.4 2.7 1.8 3 1.2.4 2.8-.3 3-1.6zM301.3 413l.2.2c1 1 2.6 1 3.5 0 1-1 1-2.6 0-3.5l-.2-.2c-1-1-2.5-1-3.5 0s-1 2.5 0 3.5zM295.1 410.4h.4c1.4 0 2.5-1.1 2.5-2.5s-1.1-2.4-2.5-2.4h-.4c-1.3 0-2.4 1-2.4 2.4s1 2.5 2.4 2.5zM290 415.3c.5-.7.9-1.4.9-2.3 0-1.4-1.2-2.5-2.5-2.5a2.5 2.5 0 0 0-2.5 2.5c0 .5.2.1.5-1.2-.8 1-1 2.5 0 3.5 1 .9 2.7 1 3.5 0zM282.2 410.8c3.2 0 3.2-5 0-5s-3.2 5 0 5zM294 417h.2c1.3 0 2.5-1.1 2.5-2.5 0-1.3-1.2-2.5-2.5-2.5h-.2a2.5 2.5 0 0 0-2.5 2.5c0 1.4 1.1 2.5 2.5 2.5zM449.3 464.7l-1.9-.9 1.7-3.4c2.2-4.4 5-9.9 6-14.2.4-1.9.7-4.2.7-7.1v-1.6c0-2.2.1-5.3-.8-6.8l1.8-1c1.3 2 1.2 5.2 1.1 7.8v1.6c0 3.1-.3 5.6-.8 7.7-1 4.4-3.8 9.8-6.1 14.6l-1.7 3.3z"/><path d="M449.2 465l-1.7-1.4 3.3-4c3-3.6 7.3-8.6 8.2-11 .8-2.3 1.7-5.1 2.5-10.2l2.1.3c-.8 5.3-1.8 8.3-2.6 10.6-1 2.8-5.2 7.7-8.6 11.7l-3.2 4z"/><path d="M449 465.1l-1.3-1.6 1.3-1.1c11.8-9.5 18.2-15.7 19-18.4l2 .6c-1.2 4.2-11.1 12.6-19.6 19.4l-1.4 1.1z"/><path d="M449 465.1l-1.3-1.7c.8-.6 2.4-1.2 4.6-2.1 5.6-2.3 15-6 19-13.3l1.9 1c-4.4 8-14.2 11.9-20.1 14.3-1.9.7-3.5 1.4-4 1.8zM394.3 363.7l-.4-2.1 1-.2c1-.3 3-.7 3.5-1 2.1-.8 4.6-1.9 6.6-3.2 2.6-1.6 8.8-8 9.5-9.6l2 1c-1.1 2.1-7.8 8.8-10.4 10.4a27.7 27.7 0 0 1-10.8 4.4l-1 .3z"/><path d="M401.5 364c-3.2 0-6.3-.2-7.5-.3l.2-2.1c3.6.3 11.3.6 13.6-.3a27.8 27.8 0 0 0 9.2-6l1.7 1.3c-1 1.1-2.2 2.1-3 2.8a30 30 0 0 1-7.1 3.9c-1.5.5-4.3.7-7.1.7zM485.7 356.3a16.4 16.4 0 0 0-11-8.4c-3.6-.9-10.8-1-14 .9l-1-1.9c3.8-2.2 11.5-2 15.6-1 5.4 1.2 9.6 4.5 12.3 9.4l-2 1zM489.2 381.3l-1.4-1.5c1-1 1.4-4.7 1.2-8-.1-2.8-.9-5.6-2.3-8.9l2-.8a27 27 0 0 1 2.4 9.7c0 1.2.3 7.5-1.9 9.5zM483.8 370l-1-1.9c.2-.6-1.4-3.6-3.1-5.6-1.7-2-4-3.4-6.2-4.6l1-1.8c2.3 1.2 4.9 2.7 6.8 5 0 0 4 4.9 3.6 7.5a2 2 0 0 1-1 1.4zM482.2 381.5h-2.1c0-3.5-.2-7.1-2.3-9.6l1.6-1.4c2.6 3 2.8 7.1 2.8 11zM505.5 398l-2-.8c.2-.8-2-4-3.2-4.9-1.6-1.1-5.8-.9-7 .5l-1.6-1.5c2-2 7.4-2.5 9.9-.7 1.3 1 4.8 5.2 4 7.4zM453.3 341.5l-1.7-1.3c1-1.3 1.7-3 2.5-4.8.5-1.2 1-2.5 1.7-3.7 2.1-3.6 3.6-7.3 4.5-11.4.8-3.8 1.3-8 1.8-12.3 0-.9.2-1.9.4-2.9.5-2.5 1-5.3.3-7.3l2-.7c.8 2.6.3 5.6-.2 8.4l-.4 2.8c-.5 4.3-1 8.5-1.8 12.5-1 4.3-2.5 8.2-4.7 12-.6 1-1.2 2.2-1.7 3.5-.8 1.8-1.6 3.6-2.7 5.2zM445.9 343.9l-2-.6c.7-2.4 1.6-4.8 2.4-7a37.1 37.1 0 0 0 3.7-17.7l2-.3c1 6.5-1.4 12.7-3.7 18.7l-2.4 6.9zM460.3 281.7c-.9-3.4-4.6-8.5-8-9.5l.6-2c4.1 1.2 8.4 6.8 9.4 11l-2 .5zM446 259.2c-.3 0-.6 0-1-.3l.5.1v-.7l-.3.3c-1.2-1.8-3.6-3.1-5.6-4.3l-1.7-1a43.7 43.7 0 0 0-31.7-3.6l-.7-1.9a45.8 45.8 0 0 1 35 4.7c2.4 1.3 5 2.7 6.4 4.9l.3.4-.2.5c-.1.5-.4.8-.8.9h-.3zm-.4-2a1 1 0 0 0-.6.4l.6.2v-.6zM382.6 239.4c-1-3.5-7.7-16.3-25-29.1a77.6 77.6 0 0 0-34-13l-.2-2.1a78.7 78.7 0 0 1 61.3 43.6l-2 .6z"/><path d="M374.6 245.5a34.7 34.7 0 0 0-9.8-18.7c-3.4-3.5-9-8-16-9.8l.5-2c7.4 1.9 13.4 6.6 17 10.3 5 4.9 10 13.3 10.5 20l-2.2.2zM337.7 212.1c-2.2-2.4-8.4-4.4-11.3-3.2l-.9-1.9c3.8-1.7 11 .6 13.8 3.7l-1.6 1.4zM287.6 198l-1-2a14 14 0 0 1 7-1.6l-.1 2c-1.8 0-4 .6-5.9 1.6zM212.4 256.7l-2.1-.2c.3-3.8 2-8 3.6-11.6l1-2.4c1.8-4.5 4-9.2 8-13.8a111 111 0 0 1 30.1-23.2l1.1 1.8-1 .6-.7.5a109.1 109.1 0 0 0-27.9 21.7c-3.7 4.3-5.9 8.9-7.6 13.2l-1 2.5c-1.6 3.4-3.2 7.4-3.5 10.9z"/><path d="M217.7 274.2h-2.2v-1.4c.1-3.4.2-7.3 1-10.8 1-4.8 3-8.9 5.2-13.6 2.5-5 5.7-9.6 10-14.5l.3-.3c1.3-1.5 2.8-3.2 4.5-4.6a18 18 0 0 1 1.7-1.2c.8-.5 2.1-1.4 2.3-1.8l2 .9c-.5 1-1.8 1.8-3.1 2.7l-1.6 1a42.3 42.3 0 0 0-4.3 4.4l-.2.3a60.8 60.8 0 0 0-9.6 14c-2.3 4.6-4.1 8.5-5.1 13.2-.8 3.3-.8 7-1 10.3v1.4zM205 307.6c-3.1-4.8-2.3-12-1.8-16.8A51 51 0 0 1 206 279c.6-1.5 1.3-3.2 1.3-4.6h2.1c0 1.9-.7 3.7-1.4 5.4l-1 2.4a49 49 0 0 0-1.7 8.9c-.5 4.5-1.2 11.2 1.5 15.4l-1.8 1.1zM213.3 308.7a44.8 44.8 0 0 1 .4-22.7l2.1.5c-2 8.2-2.2 14.9-.5 21.7l-2 .5zM222.4 304.7a44.6 44.6 0 0 1 5.7-29.6l1.2-1.6a27 27 0 0 0 3.4-5.1l2 .2c0 1.2-1.5 3.3-3.7 6.1l-1.2 1.6a42.5 42.5 0 0 0-5.3 28l-2.1.4zM232.5 264.3l-2.1-.3c.6-4 2.7-6.8 4.8-9.5a48 48 0 0 0 2.4-3.5l1.8 1.1-2.5 3.7c-2 2.6-3.9 5.1-4.4 8.5zM131.6 391.2l-2-.2a34.5 34.5 0 0 1 23.1-28.5l.6 2a32.3 32.3 0 0 0-21.7 26.7zM137.3 400.2h-2.1c0-6.5 0-12.7 5-18.4l1.5 1.4c-4.4 5.1-4.4 10.6-4.4 17zM146.8 377.6l-1.3-1.6 4.8-4.5c2.3-2.3 4.6-4.6 7.1-6l1 1.9a33.4 33.4 0 0 0-6.6 5.6c-1.6 1.6-3.2 3.2-5 4.6zM164.4 352.5l-2-.2c.5-6.2 4.2-12.6 9.4-16.8l1.3 1.7a23.9 23.9 0 0 0-8.7 15.3zM148.3 421.7l-1.9-1c.9-1.6 1.4-3.3 2-5.1.5-1.5 1-3 1.7-4.6 2.2-4.5 5.2-8.4 8.2-12.3 3-3.6 6-6.5 9.4-9.6l.6-.6c.6-.6 1.7-1.3 2.8-2.2 1.3-1 3.8-2.8 4-3.5l2 .8c-.4 1.1-2 2.4-4.8 4.4l-2.6 2-.6.6c-3.2 3-6.3 6-9 9.5-3.1 3.8-6 7.5-8 11.9-.7 1.3-1.2 2.8-1.6 4.2-.6 1.9-1.3 3.8-2.2 5.5zM136 450.8h-2c0-3.7.1-6.5 1-9.5.3-1.3.8-2.6 1.4-3.8.6-1.5 1.3-2.8 1.5-4.2l2.1.4c-.3 1.6-1 3.2-1.7 4.7-.5 1.2-1 2.3-1.3 3.5-.8 2.7-1 5.4-1 8.9zM130.4 450.8h-2.1c0-3.6.3-6.8 1-10.3.3-2 1-3.6 1.6-5.3l1.4-3.7 2 .5-1.4 4c-.6 1.6-1.3 3.2-1.6 5a52 52 0 0 0-.9 9.8zM128 433.4l-1.7-1.3c.8-1.2 1.5-2.7 2.2-4.4.7-1.6 1.5-3.2 2.4-4.6l1.8 1.1c-.9 1.3-1.6 2.9-2.2 4.4-.8 1.7-1.5 3.4-2.5 4.8zM177 479.9c-.2 0-.5-.1-.8-.4 0 0 .2.2.5.2v-.8l-.4.3c-5.6-9.8-10.4-24.4-7.3-36.1l2 .5c-2.9 11.2 1.8 25.1 7.1 34.5l.3.4-.2.5c-.2.5-.5.8-1 .9h-.1zm-.3-2a1 1 0 0 0-.5.4l.5.1v-.6zM165.6 471.5c-4.4-8.5-5.9-16.2-4.3-22.7l2.1.5c-1.5 6-.1 13.1 4.1 21.2l-1.9 1zM425.1 484.3l-1.4-1.5c2.3-2.2 3.4-5.5 4.4-8.7l1-2.8a104.1 104.1 0 0 0 4.4-15.3c1.6-6.1 3.5-13.8 2-19.5l2-.6c1.7 6.3-.3 14.3-1.9 20.7l-.8 3.4a106 106 0 0 1-3.8 12l-.9 2.7c-1 3.5-2.2 7-5 9.6zM401.9 224.5l.2.3c2 2 5.5 2 7.6 0 2-2 2-5.5 0-7.5l-.3-.3c-2-2-5.5-2-7.5 0s-2 5.5 0 7.5zM404.8 207.5c3.2 0 3.2-5 0-5s-3.2 5 0 5zM311.5 745.5c-1.2 9.4-11.9 46.6-25.3 28.5-12.6-17-10.6-42.4-8.5-62 2-18.5 5.2-36.8 9.1-54.6 2.6-12 6-21.8 4.4-33.8 6.9 40.3 25.5 80 20.3 121.9zM417 677.6c-1.1 9-11 43.8-23.7 26.9-11.9-16-10-39.8-8-58.3 1.9-17.4 8.7-33.5 12.3-50.3 2.5-11.2 7.3-24.7 9.4-35.2 6.5 37.8 15 77.7 10 117zM218.7 665.2c-.9 7-8.8 34.8-18.9 21.3-9.4-12.7-7.9-31.7-6.3-46.4a390 390 0 0 1 6.8-40.7c2-9 4.4-16.3 3.2-25.3 5.2 30.1 19.1 59.8 15.2 91z"/><ellipse cx="309.9" cy="339" rx="6.6" ry="6.5"/></svg>