<svg id="Camada_1" data-name="Camada 1" xmlns="http://www.w3.org/2000/svg" viewBox="0 0 209.3 397.3"><defs><style>.cls-1{fill:none}.cls-1,.cls-2{stroke:#000;stroke-miterlimit:10;stroke-width:.7px}</style></defs><path class="cls-1" d="M108.7 90a22.7 22.7 0 0 1-6.7 3.3 24.4 24.4 0 0 1-5.3.5 26 26 0 0 1-6.2-.6l-.6 1a35.5 35.5 0 0 0 18.3.2l6-1.6 2.5-.4a5.3 5.3 0 0 0 2-.6 2 2 0 0 1-.1-1.4l.2-.9.8-2.3c-3.1-2.3-8 .9-10.8 2.8h-.1z"/><path class="cls-1" d="M116.7 92.7a33.4 33.4 0 0 0-5.8 1.2l-2.7.7A42.6 42.6 0 0 1 98 95.8a20 20 0 0 1-8.2-1.4l-1 1.1c.4.5 2.5 1.3 4 2l2.5 1c1.7 1.2 4.1 1 6.6.8a22.2 22.2 0 0 1 3.6 0 24.8 24.8 0 0 1 11.2 5 4.7 4.7 0 0 0 1.2-1.5l.6-1a7 7 0 0 0 1.4-3.5 8.7 8.7 0 0 0-.3-4.7l-.5-1-.4-.5a6.6 6.6 0 0 1-2 .6zM115 70.4c2.2-4.5 4.5-7.3 7-8.4l-1.7-.2-2.2-.4c-5.3-.5-10.2 5.3-13.7 9.5l-1.4 1.6c-1.4 1.6-2.5 2.8-4.5 3.3a7.5 7.5 0 0 1-2.6 0 5.3 5.3 0 0 0-2.8 0c-3.2 1.2-5.1 2.8-6 5.4a6.3 6.3 0 0 1 .5 3c2.5-3 8.9-4 10.9-4a12.2 12.2 0 0 0 5.6-1.7l2.5-1A8.3 8.3 0 0 0 110 76l.2.3a10 10 0 0 1-3.5 1.6 9.9 9.9 0 0 0-2.4.9 12.6 12.6 0 0 1-5.8 1.6c-2 .2-8.8 1-11 4.3l-.1.6a1.3 1.3 0 0 1-1 1l-.2.2 1.1 1.4a7.9 7.9 0 0 0 2.2 2.3 13 13 0 0 0 5.4 1.9c7.1.7 12.8-5.7 15.1-12 .8-2 2-4 3-6l2-3.6zM51 16.3l.2.7a78.9 78.9 0 0 1 3.1 13.7l.3 2.2a38.7 38.7 0 0 0 1.2 6.3c.6 1.8 1.3 4.2.9 5.3a52 52 0 0 1 4.3 10c1.5 4 3 8.4 5.8 12a4.8 4.8 0 0 1 2.1-.7h1A17.1 17.1 0 0 0 67 60l-.6-1a62.7 62.7 0 0 1-2.9-5.8l-.7-1.5a25.3 25.3 0 0 0-1.6-3.3 35 35 0 0 1-3.1-7.3 33.9 33.9 0 0 1 1.7-19.6 22.9 22.9 0 0 0-.2-5l-.2-2.6A15.3 15.3 0 0 0 57.2 5c-1.6-2.5-4.8-4.7-7.5-3.6-2 .8-3.7 5.3-3.2 7 2.5 2 3.6 5.2 4.5 8v-.1zm13.5 100.3c.4 1.3 2.2 7.6.7 10.4a6.5 6.5 0 0 1 2.4-.6l1.6-.3c1.2-1.1-.2-6.4-1-8.3l-.7-1.8c-1-2.4-2-4.4-2-7.4a8.6 8.6 0 0 1-2.4-5H62a35 35 0 0 0 2.5 13z"/><path class="cls-1" d="M73.9 122.5a13 13 0 0 1 3-2.7c.3-.8-1.7-3.8-3.1-5.8l-1.3-2.2a18.5 18.5 0 0 1-5-1.8l-1.7-1.2c0 2.7 1 4.7 2 7l.7 1.8c.5 1.3 2 6.5 1 8.3h.4a12.4 12.4 0 0 0 4-3.5zM87 106.7c-2-1.2-3.3-4-4-6a18.2 18.2 0 0 1-7.2 2.3l-1.7.3a18.7 18.7 0 0 0 19.6 6 29.3 29.3 0 0 1-6.7-2.6z"/><path class="cls-1" d="M114.7 103a24.5 24.5 0 0 0-9.3-3.6 22.4 22.4 0 0 0-3.5.2c-2.5.3-5 .5-6.7-.7l-2.5-1a18 18 0 0 1-4.1-2L86 98.2l-1 1a9.1 9.1 0 0 1-1.6 1.3c.6 2 2 4.8 3.8 6a29.4 29.4 0 0 0 7.2 2.6c2.3-.7 4-1.3 6.9-.8a24 24 0 0 1 5.2 1.6 38.6 38.6 0 0 0 4.8 1.7c1.8.7 3 1.2 5.1-.6a4 4 0 0 0 1.6-3.5 6 6 0 0 0-3.3-4.5zm6.4-34.3c-2 2-4.3 4.4-6.3 4.4a1.5 1.5 0 0 1-1-.1l-.5 1.2-1.5 2.7a8 8 0 0 0 10.6-4.7l1-3.4.8-2.8a15 15 0 0 0-3.1 2.8zm-31.7-44A24 24 0 0 1 93.6 14a6.6 6.6 0 0 0-4.3-.9 8 8 0 0 0-5 2.3 13.1 13.1 0 0 1 2 2.8 63.7 63.7 0 0 1 3 6.5z"/><path class="cls-1" d="M94.2 14.3l-.1.1h-.4l-.7 1a22.2 22.2 0 0 0-3.4 9.6l1 3a29 29 0 0 1 2.5 13.7 27 27 0 0 1 11.3-11.6 2.6 2.6 0 0 0 .8-.3 10.3 10.3 0 0 1 .7-2.5l.7-2c.8-3.4 1.5-10.5-1.3-13.8a4.8 4.8 0 0 0-4.4-1.5 8.8 8.8 0 0 0-7 4l.2.2zm30.2 38.5a26.7 26.7 0 0 0-3.5.7 18.3 18.3 0 0 0-6.4 4 4.3 4.3 0 0 0-1 .9 68.2 68.2 0 0 1-11 8.7l-.4.7a39.7 39.7 0 0 1-4.2 5 19.1 19.1 0 0 1-2.7 1.6l-2 1a6.2 6.2 0 0 1 2.7 0 6 6 0 0 0 2.6 0 8.3 8.3 0 0 0 4.3-3l1.4-1.8c3.4-4 8-9.6 13.2-9.6h.7l2.2.4a14.6 14.6 0 0 0 2.2.3l.6.1-.6.2c-2.5 1-5 3.8-7.3 8.6l-1.1 2.1c2 .7 4.6-2 6.8-4.2a12.3 12.3 0 0 1 3.4-3 11.5 11.5 0 0 1 1.2-2.5l.7-1.2c1.4-2.2 3.2-5 2.6-7.6a5.4 5.4 0 0 0-1-2 10.1 10.1 0 0 1-3.4.6zm-67-48c2 3 2.3 6.3 2.3 9l.2 2.6a31 31 0 0 1 .2 4l.3-.5 1-5.6.4-1.2.2-1a5.8 5.8 0 0 0 .3-2 9.9 9.9 0 0 0-.6-3l-.2-.6a3.7 3.7 0 0 0-1.3-2.3v-.3a4.6 4.6 0 0 1 1.6 2.5.7.7 0 0 0 .2.6 11 11 0 0 1 .6 3.2 10.6 10.6 0 0 1-.3 2l-.3 1-.2 1.2-.9 4.3 1.8-3.4a19 19 0 0 0 1.7-3.7l.5-2a16.7 16.7 0 0 1 .8-3 7.1 7.1 0 0 0-3.9-3.7 9.6 9.6 0 0 0-3.4-1 7.8 7.8 0 0 0-3.7.1 14.8 14.8 0 0 1 2.8 2.8v.1z"/><path class="cls-1" d="M64.7 11.7a18 18 0 0 1-1.8 3.7l-1 1.7a46.7 46.7 0 0 0-3.6 10.4 33.5 33.5 0 0 0 0 13.5 34.1 34.1 0 0 0 3 7.3q1.4 2.4 2.5 4.9a38.1 38.1 0 0 0 2.9 5.6l.6 1c1.2 2 2.6 4.3 2.9 6a4.2 4.2 0 0 1 2.6 1.4 4.3 4.3 0 0 1 .9 2.6 3.9 3.9 0 0 1 2-1.4l1-.2-.4-2-3-9.2-.6-2.3L71 50l-2.6-8.4-1.7-6C65 29.7 63.3 24.2 63.3 18h.3c0 6.2 1.6 11.8 3.4 17.6l1.8 6q1.1 4.3 2.6 8.4l1.6 4.7q1.4 4.8 3 9.5a54 54 0 0 1 1.8-15.5c.4-2 .9-4.2 1-6a56.7 56.7 0 0 0 .7-7.2 49 49 0 0 1 .4-5.4c.9-8.8-.1-10.9-.8-11.3v-.2c1.8 1 1.5 6.8 1 11.5l-.3 5.4A68.4 68.4 0 0 1 78 48.8c-1.2 5.6-2.5 12-1.5 17.3.1-5.6 2-10.2 4-15l2.4-6c.9-2.7 4.3-15.9 2.1-19.3a1.7 1.7 0 0 0-1-.7v-.3a1.7 1.7 0 0 1 1.3 1c2.2 3.4-1.2 16.7-2.1 19.3l-2.4 6a37 37 0 0 0-4 16.1l.3 1a2.2 2.2 0 0 1 1.5.6c.1-3.6 2.2-7.3 4.2-11l2.4-4.4a26.7 26.7 0 0 1 2.2-3.9c2-3.2 4.3-6.8 3.2-10l.3-.2c1.1 3.4-1.2 7.1-3.3 10.4l-2.2 3.8c-.6 1.4-1.5 3-2.3 4.5-2 3.7-4.2 7.4-4.2 11v.1a4.1 4.1 0 0 1 1.5 3 4.7 4.7 0 0 1-1.2 2.5 7.4 7.4 0 0 1 4.2-1.7c-1.8-2.8.7-7.6 2.2-10.6a70.8 70.8 0 0 0 2.9-6.9l2-5.3a24 24 0 0 0 2.2-6.7v-.2c.8-4.8 0-9.8-2.1-15.2q-2.2-5.4-4.5-9.6a11 11 0 0 0-2-2.8l-.2.2h-.2l.2-.4-.8-.9a17.2 17.2 0 0 1-3.1-4A18 18 0 0 1 78.9 7c-.7-2.5-1.3-4.9-3.9-6C72.1-.6 68 3 66.2 6a11 11 0 0 0-1 3.4l-.5 2v.1zm40.8 53l3-2.2c1.8-1.4 3.2-2.8 4.8-4.3l1-1a21 21 0 0 1 6.5-4 19.2 19.2 0 0 1 3.6-.5 25.4 25.4 0 0 0 3.3-.6 8.4 8.4 0 0 0-4.7-2.4c-4.4-1-9.5.4-11.5 3a91.6 91.6 0 0 1-8.2 13.5l2.2-1.5z"/><path class="cls-1" d="M117.2 22.1a12.9 12.9 0 0 1-5.5 5 91.3 91.3 0 0 0-7 3.3 25.6 25.6 0 0 0-3.3 2.1c1.3 2 .4 6.8-.2 9.8a42.6 42.6 0 0 1-2 8.2l-1.5 4.8c-2 8.2-5.5 14.3-11.4 19.3a2.9 2.9 0 0 1 .3 1.6 19.5 19.5 0 0 1 5-3.6c1.2-.8 2.5-1.5 3.5-2.3a36 36 0 0 0 6.4-6.5 64 64 0 0 0 9.8-18.2h.2a61.5 61.5 0 0 1-9.8 18.4 36.3 36.3 0 0 1-6.4 6.4 15 15 0 0 1-3.6 2.4c-2 1.2-4 2.4-5.2 4a2.2 2.2 0 0 1-1.6 1.6 5 5 0 0 1 2 2.3 9 9 0 0 1 5.6-5A9.8 9.8 0 0 1 95 74a10.1 10.1 0 0 0 2.6-1.6 32.1 32.1 0 0 0 4.2-4.8l.9-1.2a90.2 90.2 0 0 0 8.3-13.8l.2-.2 1.8-3.8a40 40 0 0 0 3-8v-.5l.9-4a37.4 37.4 0 0 0 .2-14z"/><path class="cls-1" d="M107 25.4l-.7 2-.7 2.3 6-3c2.8-1.1 3.8-2.5 5.6-5h-.2a14 14 0 0 0-1.5-8c-.8-1-3.2-2-5.6-2.1-1.7-.1-3 0-3.8.6 2.3 3.5 1.6 10 .9 13.2zm-11.1 67a11 11 0 0 1-5.2-1.3 2.5 2.5 0 0 1-.1 1.7 28.7 28.7 0 0 0 11.3.1 26.7 26.7 0 0 0 6.7-3.2c3-2 7.8-5.2 11-2.9a6.1 6.1 0 0 0 .1-4.4 3 3 0 0 0-1.6-1.3c-2.8-.7-4.6.8-6.6 2.4a9 9 0 0 1-4.5 2.6c-2.7 3.5-6.6 6.2-11 6.2h-.1zm1.5-37.2l1.5-4.7a42.3 42.3 0 0 0 2-8.2c.6-2.9 1.5-7.7.3-9.5a19 19 0 0 1-2.6 3.6 19.6 19.6 0 0 0-3 4.5 30.3 30.3 0 0 0-1.5 8.5l-.2 2.6-.2 2.4c-.3 3.4-.6 7-2.5 9.8l-1.3 1.7c-1.8 2.4-3.8 5.2-4 8.1l.2.4a34 34 0 0 0 11.3-19v-.1zm-31.9 27a4 4 0 0 1 2.2.4h.2l-.1.3a8.2 8.2 0 0 0-2.2 6.2 1.8 1.8 0 0 0 1.1 1.4h.8c2.1 0 2.3-3.7 2.4-5.7l.1-1 .2.6a1.9 1.9 0 0 1 .4.9c.7 1.6 1.8 4.2 3.2 4.2a1.6 1.6 0 0 0 1-.4 2.4 2.4 0 0 0 .6-1.1c0-1.4-1.6-3.2-2.5-4.3a.6.6 0 0 1-.4-.3l-.3-.4h.5a9 9 0 0 1 2.2 1.4c1 .7 2 1.5 2.9 1.5a2.1 2.1 0 0 0 1-.4 1.6 1.6 0 0 0 .6-1.5c-.1-.7-1-1.4-2.7-2h-.4l-.9-.4v-.2a10.6 10.6 0 0 1 1.4.3h.2a11.3 11.3 0 0 0 3.5 1 2.7 2.7 0 0 0 2.5-1.4 2 2 0 0 0 .3-2.1 3.3 3.3 0 0 0-3-1.3 4.7 4.7 0 0 0-2.7.8l-.2-.2.2-.1a1.5 1.5 0 0 0 .6-1.4 2.6 2.6 0 0 0-2-1.8l-.8-.2c-1.3 0-2.4 1-3.3 2.5v.2l-.3-.2v-.1a3.5 3.5 0 0 0 0-3.3 3.4 3.4 0 0 0-3-1.8 2.3 2.3 0 0 0-2.3 1.6 3.2 3.2 0 0 0 .8 3.5.6.6 0 0 1 .4.3l-.2.2-.3-.3A4.8 4.8 0 0 0 65 77a5.2 5.2 0 0 0-3.7 1.3 2.1 2.1 0 0 0-.7 1.6c0 1.9 2.7 2 4.9 2.3z"/><path class="cls-1" d="M56.7 74a1.4 1.4 0 0 0-1.2 1c-1.1 2.2 1 3.5 2.8 4.6l1 .8h.3l-.1.1-1 .6a2 2 0 0 0-1 .6 4.4 4.4 0 0 0-.7 2.7c.2 1.7 2 2.5 3.6 2.5h.4v.1a2.2 2.2 0 0 0 .8 1.8l.6.5c.5.3.5.4.6 1.3v.2c.2 2 .5 3 1 3.1a1.2 1.2 0 0 0 .8-.7l.2-.2v.3c.6 1.1 3.6.6 4.6.3a4.3 4.3 0 0 0 3.2-2.8h.2a2.4 2.4 0 0 0 2.7.6c1-.6 1.5-2.3 1.3-4h.2a3.7 3.7 0 0 0 2.4 2.5 3.4 3.4 0 0 0 3.4 0 1.1 1.1 0 0 0 .7-1c.1-.6-.5-1.4-1.2-2.3a7.5 7.5 0 0 1-1.3-1.8l-.1-.2h.3l1.9.7c1.2.5 2.4 1 3.2.7a1.2 1.2 0 0 0 .8-.9l.2-.5a6.3 6.3 0 0 0-.6-3.8 4.4 4.4 0 0 0-2.4-2.3l-.8-.3h.8a2 2 0 0 0 2-1.8 2.8 2.8 0 0 0-1.6-3c-2.1-.8-4.3.6-6 1.8l-.6.4-.1-.2c1.4-1.3 2-2.4 2-3.5a3.5 3.5 0 0 0-1.2-2.6 3 3 0 0 0-3-.7 5.1 5.1 0 0 0-3.2 3.8h-.3a3.2 3.2 0 0 1 1-2h-.1c.5-.7 0-2.4-.6-3a4.7 4.7 0 0 0-3.7-1.4 2.7 2.7 0 0 0-2.3 1.1c-1 1.3-.7 3.4-.4 5.2l.1.5-.3-.3a8.6 8.6 0 0 1-1.3-2c-.8-1.5-1.6-3-4-2.2-2 .5-2.2 2.7-1.7 4.4a7.7 7.7 0 0 0 2.3 3.4l.5.6h.1l-.2.2c-.6-.6-3-3-4.7-3h-.3v.1zm4.4 4.1a5.7 5.7 0 0 1 3.9-1.3 4.7 4.7 0 0 1 1.7.2 3.3 3.3 0 0 1-.5-3.3A2.7 2.7 0 0 1 69 72a3.6 3.6 0 0 1 2.9 2 4.3 4.3 0 0 1 .5 2.5 3.4 3.4 0 0 1 3.8-1.6 3 3 0 0 1 2.2 2 2.3 2.3 0 0 1-.2 1.1 6.5 6.5 0 0 1 2-.4 4 4 0 0 1 3.3 1.4 2.5 2.5 0 0 1-.4 2.5 3 3 0 0 1-2.7 1.5l-1.8-.3a2.4 2.4 0 0 1 1 1.3 3 3 0 0 1-.7 1.7 2 2 0 0 1-1.2.4 6 6 0 0 1-3.1-1.5l-1.6-1c1 1.1 2.6 3 2.5 4.4a1.5 1.5 0 0 1-.7 1.3 1.6 1.6 0 0 1-1.1.5c-1.6 0-2.7-2.6-3.4-4.4l-.2-.4c-.1 2.3-.4 5.9-2.7 5.9a1.5 1.5 0 0 1-.9-.2 1.9 1.9 0 0 1-1.3-1.6 9.2 9.2 0 0 1 2.1-6.3l-2-.2c-2.1-.2-5-.4-5-2.6a2.4 2.4 0 0 1 .7-1.8z"/><path class="cls-1" d="M88.7 55.5a62 62 0 0 1-3 7c-1.4 3-4 8-2 10.4a2 2 0 0 1 1 .3 1.4 1.4 0 0 1 .9.5c.3-3 2.3-5.7 4-8l1.3-1.8c2-2.8 2.2-6.3 2.5-9.6l.2-2.5.2-2.4a30.4 30.4 0 0 1 1.5-8.6 20.6 20.6 0 0 1 3-4.6 12.7 12.7 0 0 0 2.5-3.3c-3.4 2.7-7 6.6-7.8 10.3a25.9 25.9 0 0 1-2.2 7c-.8 1.8-1.4 3.6-2 5.3h-.1zM50.2 48a50.7 50.7 0 0 1 1.3 5.6c1.3 5.7 2.6 11.6 7.5 15.5a2.7 2.7 0 0 1 1.6-1c2.6-.8 3.5.9 4.4 2.4l.9 1.5c-.3-1.8-.5-3.7.4-5l.3-.3a43.6 43.6 0 0 1-6-12.3c-1.3-4-2.7-8-5.3-11.5a57.4 57.4 0 0 0-15.3-15c2.9 3.7 9.3 17.4 10.2 20.2zm38.5 62.3h-.2a31.6 31.6 0 0 1-15.7 1.5l1.3 2a22 22 0 0 1 3.2 5.8l.7-.2 2.3-.8 6.3-1.9c1.4-.3 5-3 5-4.9 0-.7-.3-1.2-1.3-1.6l-1.7.1zM29.9 84.5a7.1 7.1 0 0 0 2-.4 3.2 3.2 0 0 1 2.6-.2 5.7 5.7 0 0 1 1.9 1 4.7 4.7 0 0 0 1.8 1.2 10.2 10.2 0 0 0 7-.2 5 5 0 0 0 2.8-2.6 53.1 53.1 0 0 0-5.6-2 59 59 0 0 1-10.4-4 33.7 33.7 0 0 1-8.4-5.6 13 13 0 0 1-4.8.8c-2.8.2-6 .4-6.8 2-.4.7-.2 1.7.7 3C14.4 80 16 79.7 18 79a7.3 7.3 0 0 1 3.9-.2c1.5.3 2.7 1.6 3.8 3 1.3 1.3 2.5 2.6 4 2.6z"/><path class="cls-1" d="M40.7 91a4.2 4.2 0 0 1 1.3.8c2 1.3 6.4 4 8 3a2.1 2.1 0 0 0 .5-2.2 30.9 30.9 0 0 1-.5-8.3l-1.7-.7a5.2 5.2 0 0 1-2.8 2.7 10 10 0 0 1-4 .7 9.3 9.3 0 0 1-3.4-.6 8.6 8.6 0 0 1-2-1.1 3.5 3.5 0 0 0-1.7-1 3.3 3.3 0 0 0-2.2 0c.8.5 1.4 1.8 2 3a8.3 8.3 0 0 0 1 2 3.2 3.2 0 0 0 3 1.4 7.5 7.5 0 0 1 2.5.3z"/><path class="cls-1" d="M62.5 90.8v-.2c0-.8 0-.8-.4-1l-.6-.6a2.2 2.2 0 0 1-1-1.9h-.1c-1.8 0-3.7-.8-4-2.6a3 3 0 0 1 .2-1.3 24.9 24.9 0 0 0-4-2l-2-1a9.4 9.4 0 0 1-2.2-1.2 10.4 10.4 0 0 0-3.3-1.7c-1.7-.4-3.7 0-5.7.3a19.7 19.7 0 0 1-5.4.4 53.3 53.3 0 0 0 8.5 3.1 38.6 38.6 0 0 1 7.5 3h.3l3.2 1.9a99 99 0 0 1 9.3 6.9l-.3-2z"/><path class="cls-1" d="M61.5 93.8a2.8 2.8 0 0 1-.8-2.4l-3-2.3c-2.8 1.2-6.3 4.7-5.5 7.5a11 11 0 0 0 7 6c-.5-2.5-.4-7.4 2.3-8.8z"/><path class="cls-1" d="M42.4 110.3c1.3-2.3 2.4-2.8 4.6-3.6l1.3-.5a12 12 0 0 1 2.6-.6 6.8 6.8 0 0 0 4.7-2.1 11.1 11.1 0 0 1 1.8-1.2A11 11 0 0 1 52 97c-1.5 1.5-3.3 1.5-5 1.4a8.3 8.3 0 0 0-4.1.7v2.2a41.8 41.8 0 0 1-.2 5 26 26 0 0 0-.3 4z"/><path class="cls-1" d="M46.9 98.3c1.8 0 3.5 0 5-1.5a13.3 13.3 0 0 1-1.1-3A1.5 1.5 0 0 1 50 95a1.7 1.7 0 0 1-1 .3c-2 0-5.4-2.1-7.3-3.3a4.1 4.1 0 0 0-1.2-.7 5.4 5.4 0 0 0-2-.3c2.4 2.6 3.8 4.7 4.2 8a6.8 6.8 0 0 1 4-.8zm27 4.8l2-.4c3.3-.7 6-1 8.8-3.8l1-1c2.3-2 5.6-4.8 4.7-7l-1-.6a6.8 6.8 0 0 1-2-1.8 15.2 15.2 0 0 1-5.1 2.5l-.2.1a7.6 7.6 0 0 1 5.8 4h-.3a7.1 7.1 0 0 0-6.1-3.6q-2.6.8-5 2a10 10 0 0 1 5.4 2 2.9 2.9 0 0 1 1.3 2.5h-.3a2.5 2.5 0 0 0-1.1-2.3c-2-1.6-5.5-2.5-6.6-2a38.8 38.8 0 0 0-3.8 1c2.5.7 5 2.6 5 5.5h-.2c0-3-2.8-4.8-5.4-5.4a29 29 0 0 1-4 .6l-.7.1-1.5.2a3.2 3.2 0 0 1-1.4-.3 4.7 4.7 0 0 1-1.5-1.4c-2.6 1.2-2.7 6.1-2.1 8.6l2 .4c4.3.4 8.7.7 12.3 0z"/><path class="cls-1" d="M73.9 103.3a27 27 0 0 1-5.1.4l-5.4-.3a8.4 8.4 0 0 0 4.3 6.3c5.4 3.2 14.9 2.5 20 .6a20 20 0 0 1-14-7h.2zM57.4 89a65.2 65.2 0 0 0-7.2-4.5c-.1 4.7.4 8.5 1.6 11.4 0-2.8 3-5.8 5.6-6.9zm29.9-.7l-.2-.2-1.3-1.6a9 9 0 0 1-3-.8l-1.4-.6 1 1.5c.8.9 1.5 1.7 1.4 2.5a1.4 1.4 0 0 1-.8 1.1 3.7 3.7 0 0 1-3.7.1 4 4 0 0 1-2.2-1.8 3.7 3.7 0 0 1-1.5 3.2 2.4 2.4 0 0 1-2.8-.5c-.8 1.7-1.6 2.1-3.3 2.7a7.6 7.6 0 0 1-2.7.5 2.3 2.3 0 0 1-2-.7 1.2 1.2 0 0 1-1.1.6 1.2 1.2 0 0 1-.7-1l-2-1.6c-.1 1.3 1.5 3.1 2.3 3.5a4.1 4.1 0 0 0 2.7.1h.8l3.9-.7 4.7-1.2a26 26 0 0 0 4.2-1.5l2.3-1h.3a17 17 0 0 0 5-2.6zM45.7 65.8c-2.2-1.5-5-2.1-8-2.8l-2.6-.6a29.5 29.5 0 0 1-7.2-3.3l-3-1.7c-1.4-.7-2.8-2.5-4.3-4.5s-3.2-4.2-4.6-4.7a95 95 0 0 1 1.2 7.7l.6 4.5c.6 4.3 1.5 6.8 4.5 9.8a34.3 34.3 0 0 0 9.8 7c2.2 1.1 4.8.6 7.3.2a16.4 16.4 0 0 1 5.8-.3 10.2 10.2 0 0 1 3.4 1.8l2 1.2 2.2 1a20 20 0 0 1 3.9 1.9 4.5 4.5 0 0 1 .6-1.4 3 3 0 0 1 1-.7 1.2 1.2 0 0 0 .8-.4l-1-.6-.4-.3a28 28 0 0 1-6-3c-1.4-.8-2.8-1.7-4.3-2.4a20.9 20.9 0 0 0-7.4-1.5l-3.2-.4a31.4 31.4 0 0 1-9.2-2.8l-1-.5a9 9 0 0 1-3-1.7l-.8-1.1a3.5 3.5 0 0 0-2.2-1.8v-.3A3.6 3.6 0 0 1 23 66l1 1a6.5 6.5 0 0 0 2.8 1.8l1 .4a30.3 30.3 0 0 0 9 2.8l3.3.4a21.1 21.1 0 0 1 11.7 4 29.9 29.9 0 0 0 5 2.6c-1.3-1-2.5-2.2-1.6-4l-.7-.8a54.6 54.6 0 0 0-8.9-8.4h.1z"/><path class="cls-1" d="M15.9 47.9c1.5.4 3.3 2.7 5 4.8a16 16 0 0 0 4 4.3l3.2 1.7a30.6 30.6 0 0 0 9.8 4 22 22 0 0 1 7.9 2.8c3.4 2.4 6.2 5.5 9 8.4l.6.7a1.8 1.8 0 0 1 1.3-.8h.7a52.1 52.1 0 0 0-3.8-5 36.9 36.9 0 0 1-5-7.4c-1-1.7-1.6-3.4-2.4-5.2a58.4 58.4 0 0 0-3.6-7.7l-2-2.9a22 22 0 0 1-3.4-5.3l-2-3.4c-1.7-2.8-4.7-5-7.6-7.2l-.4-.3c-1.3-1-3.3-2.5-4.7-1.3l-.2-.3c1.6-1.2 3.7.4 5 1.4l.5.3c2.9 2 5.9 4.4 7.8 7.3a23.1 23.1 0 0 1 1.8 3.5l1 1.7a21.2 21.2 0 0 0 2.3 3.5 26 26 0 0 1 2.2 3 66.2 66.2 0 0 1 3.6 7.6l2.3 5.2a37 37 0 0 0 5 7.3 50 50 0 0 1 4 5.3 7 7 0 0 1 2 1 4.3 4.3 0 0 1-1.1-2 5 5 0 0 1 0-3.4c-5-4-6.2-10-7.4-15.7l-1.4-5.6c-1-3-8.5-19-10.8-20.9a37.4 37.4 0 0 0-4.5-2.2c-3.6-1.4-7.4-.5-11.3.6-5 1.6-7.2 4-8 8.7a27.3 27.3 0 0 0 .5 13v.4zm120.9 99.8l.7 1.3a3.6 3.6 0 0 0 3 2c2 .5 2.2.7 3.6 2.3l1.3 1.6a48.8 48.8 0 0 0-10-17.8l.3-.2 1 1.4a46.1 46.1 0 0 1 9 17 78.1 78.1 0 0 1 7.7 16.4l1.4 3.5.7-1.4a37 37 0 0 0-1-5.5 49 49 0 0 1-1.1-6.2 52 52 0 0 1-1-10.3 65.5 65.5 0 0 0-.7-9.4c-.5-4-1-8.4-3-11.5l.2-.1c2 3 2.6 7.6 3 11.5l.4 3.2c.2 1.4.3 3.7.4 6.3a73.4 73.4 0 0 0 .6 8.2c.2-4.4 1.3-9 2-12.8a25 25 0 0 1 5-10.5l.4-.5.3-.3-.3-.6a40.2 40.2 0 0 0-6-8.4 8.4 8.4 0 0 0-4.3-2.2 3.7 3.7 0 0 0-2.6.5l-1.5.5c-1.7.4-2.8-.4-4-1.2a5.5 5.5 0 0 0-4-1.4 5.3 5.3 0 0 0-4.3 3.4c-2.5 5.3-.4 15.3 1.7 18.8h-.1a7 7 0 0 1 1.2 2.3zm16.4 31.6l1-2.5a51 51 0 0 0-5.6-8.4 19.2 19.2 0 0 0-3-2.8 17.9 17.9 0 0 1-2.7-2.7 26 26 0 0 1-1.2 9v.4a42 42 0 0 0 9.6 12l1.7-4.7.2-.3zm-29.5-41.9a37 37 0 0 0-2.3-9.4v-.3l.2.1a44 44 0 0 1 2.5 9.5h1.2a3.8 3.8 0 0 1 1.6.2c.2-2.5-1.4-6.4-2.4-9l-.3-.9c-1-2.4-2.8-7.4-6-7.4a.8.8 0 0 0-.7.3c-.4.4-.2 1.4 0 2.4v1.4a22.2 22.2 0 0 0 .5 4.5c1.2 7.7 2.5 10.1 3.5 10.8a2.8 2.8 0 0 1 1-1.4 2.2 2.2 0 0 1 1.3-.8h-.1zm12.4 30.3l-2.5-1.5a9 9 0 0 1-.4 2.8v.4a30.1 30.1 0 0 1-8.8 14.9 27.8 27.8 0 0 0-5 6.3 36.8 36.8 0 0 0-3 16.6c-.2 4.3-.3 8.7-1.4 12.6a12 12 0 0 0 .3 2 24.2 24.2 0 0 0 6.2-11 50.5 50.5 0 0 0 .5-5.2c.2-2.7.3-5.4 1.4-8a26 26 0 0 1 7.5-9.2c3-3 6.4-6 7.7-10.2a12.4 12.4 0 0 1 1.2-2.2c.8-1.3 1.7-2.8 1.7-3.6v-.3a13 13 0 0 0-5.4-4.3zM172 164a28.5 28.5 0 0 1-4.7 4.1l.8 1.3a6.6 6.6 0 0 1-.2 6.8l1.8-.2a8.6 8.6 0 0 0 3-11.3l-.7-.7z"/><path class="cls-1" d="M110.8 200.3c1.6 6.3 3 12.5 4 18.7a51 51 0 0 0 1.3-11.9 37 37 0 0 1 3-16.7 27.1 27.1 0 0 1 5-6.4l3.4-3.6a29.9 29.9 0 0 0 5.8-14l-.5-.9a17.9 17.9 0 0 1-2.8-2.7l-3-4-1.6-2.5c-1.4 3.6-5 6.2-8.3 8.8a36.8 36.8 0 0 0-4.1 3.4q-4 3.7-7.2 7.5l.2 1.3c1.4 7.6 2.8 15.5 4.8 23zm53.4-34.2a5.9 5.9 0 0 1 2.9 1.7 28 28 0 0 0 4.7-4.2 13.6 13.6 0 0 0-6.6-3.3c-1.3-.2-3-.3-4.2.7l-1 6.3a5.6 5.6 0 0 1 4.2-1.2z"/><path class="cls-1" d="M160.5 136.8a24 24 0 0 0-4.8 10.4 79 79 0 0 0-2.1 12.8 37 37 0 0 0 1.2 8.2l1 5a19.1 19.1 0 0 1 3.7-5.3l.3-.3c.7-9.2 4.7-20.5 9.8-27.4a12.2 12.2 0 0 1 8.6-5.2h.5a3.3 3.3 0 0 0-.8-3.2c-2-2-6.5-2.2-7.4-2h-.4a9.8 9.8 0 0 0-5.4 2.4q-2 2-3.8 4.2l-.4.5zm1 8.7c0-2.7.2-5.4 2.4-7v.2c-2 1.5-2 4.2-2.1 6.8l-.4 3.5-1.2 5.4c-.5 2.4-1 4.7-1.7 7h-.2l1.6-7a54 54 0 0 1 1.2-5.5 17.6 17.6 0 0 0 .4-3.4zM42 29a59.8 59.8 0 0 1 14.4 15c.2-1-.5-3.2-1-4.8l-.4-1.3a43.3 43.3 0 0 1-.8-5A80 80 0 0 0 50.9 17l-.2-.6c-1-2.7-2-5.8-4.4-7.8a6.2 6.2 0 0 0-4.8-1.4A4.7 4.7 0 0 0 38 9.5c-4 6.6.8 15 4 19.5zm63.6 148.3l-.1-1-1.7 2c-3.3 4-3 9.4-2.5 14.6s3.3 9.8 5.7 14c1 1.6 2 3.7 3.2 6 1.6 3 3.2 6.1 4.6 8.4a172.8 172.8 0 0 0-4.4-20.9c-2-7.5-3.4-15.4-4.7-23z"/><path class="cls-1" d="M169.9 140.3c-4 5.1-7.1 13-8.8 20.3a5.4 5.4 0 0 1 4-.5 15 15 0 0 1 6.9 3.4l.5-.6a37.9 37.9 0 0 1 4.7-4.5 32.5 32.5 0 0 1 6.3-3.5l1.3-.6 3-1.5c2-1.3 3-6.2 3-8-.4-3.2-2.3-5.1-4.2-6.8a11.6 11.6 0 0 0-8.4-2.8 12.6 12.6 0 0 0-8.3 5zm13 5.3a1.2 1.2 0 0 0-.2-1.1l.2-.2a1.4 1.4 0 0 1 .4 1.4c-1 4.2-13.8 13.5-15.8 14l-.1-.2a42 42 0 0 0 8.2-5.7c4.3-3.5 7-6.4 7.4-8.1zm19.4 14.7a10.7 10.7 0 0 1-3.2 2.4l-1.3.5a5.5 5.5 0 0 0-2.4 1.4l-1.7 1.8a35 35 0 0 1-5.2 4.9 20 20 0 0 1-7.6 3.4l2 .5c1.6.5 3.5 1 4.6.7a12 12 0 0 1 3.2-.6 10.1 10.1 0 0 0 2.6-.4c4-1.3 9-10.4 10.3-16h-.1l-1.2 1.4z"/><path class="cls-1" d="M188.7 152.7l-1 .4-4.1 2a39.7 39.7 0 0 0-6.3 3.5 31.8 31.8 0 0 0-4.6 4.5l-.5.6.7 1a6.8 6.8 0 0 1 .8 2.4 32.8 32.8 0 0 1 7.5-3.7c1.3-3.2 8-7 10.2-8l1.3-.6 2-1a8.2 8.2 0 0 0 1.4-.5 10 10 0 0 0 2-1l.3.2a6.5 6.5 0 0 1-2.2 1l-1.4.6-3.3 1.6c-3.2 1.5-8.6 4.9-10 7.6q4.2-1.8 8.6-3.4a31.7 31.7 0 0 0 4.9-2.4l3-2c1.5-.9 3-1.9 3.9-1.9v.4c-.8 0-2.3 1-3.6 2a22.8 22.8 0 0 1-3.2 1.8 32.3 32.3 0 0 1-5 2.5l-4.1 1.6a54.5 54.5 0 0 0-12.2 5.5 9 9 0 0 1-3.6 8.5h3.8a51.2 51.2 0 0 0 5.4-1l.7-.3c3.5-.9 5.4-1.5 8.2-3.6a29.6 29.6 0 0 0 5.2-4.8l1.7-1.8a4.6 4.6 0 0 1 2.5-1.4l1.3-.5a10 10 0 0 0 3-2.4l1.3-1.3 1-.8a12 12 0 0 0 2.9-3.4 5 5 0 0 0 .3-1.7 5 5 0 0 1 .8-2.5 9.6 9.6 0 0 0-4.8-2c-5.5-.7-10.2 1.8-15 4.3h.2zm-17.1 23.5a13 13 0 0 0-4 .4c-.4.8-1 1.5-1.5 2.3l-.4.5a40 40 0 0 1-4.7 5.8 15.2 15.2 0 0 1 3 .2c2 .3 3.9.6 6.2-.8 1.7-1 2.8-3.2 4-5.2a20 20 0 0 1 2-3.6l-2.2.4h-2.4zM149.2 192a11.1 11.1 0 0 0 1-3.5l1-4c-1.7-.6-8.1-8.5-9.5-11.6a15.3 15.3 0 0 1-1.6 3l-1.2 2.3a25 25 0 0 1-7.8 10.2 27 27 0 0 0-7.5 9.3 26 26 0 0 0-1.3 7.7 38 38 0 0 1-.6 5.3c-.7 3.7-3 7.6-6.4 11.3a221 221 0 0 1 2.6 34.8c1.2-3 2.5-6 3.9-8.8l8-17.8c2.4-5.8 5-11.6 7.6-17.3a181.2 181.2 0 0 1 9.3-17l.6-.7a18 18 0 0 0 1.9-3.3z"/><path class="cls-1" d="M165.5 179.3l.4-.6c2-3 3.9-5.6 2-9.1a5.5 5.5 0 0 0-3.7-3 4 4 0 0 0-.7-.1 5.6 5.6 0 0 0-3.8 1.6c-2.3 2-4 5.7-5.3 8.9l-1 2.4-.1.4a42.9 42.9 0 0 0-3.2 10.8q1.7-2.5 3.7-4.7l2.4-3a17.4 17.4 0 0 0 1.4-2.7l1.3-2.4.6-1c1.5-2.1 4.6-6.6 3-7.8l.3-.3c1.7 1.5-1.4 6-3 8.3l-.7 1-1.2 2.3a19.7 19.7 0 0 1-3.9 5.7 44 44 0 0 0-4.5 6.1 23.4 23.4 0 0 1 4.4-2.4 25.6 25.6 0 0 0 4-2.1 36.6 36.6 0 0 0 7.6-8.3zm-35.3-16.6a22 22 0 0 0 2 2 83.4 83.4 0 0 1-5.2-9.5 16.2 16.2 0 0 1-1.3-4.5l-.3-1.7c-.3-1.2-1.5-3.3-2.8-3.4v-.3c1.5 0 2.8 2.3 3 3.5l.4 1.8a15.6 15.6 0 0 0 1.3 4.5 78 78 0 0 0 5.7 10.3 14.6 14.6 0 0 0 3.2 2 14.4 14.4 0 0 1 4.7 3.6 64.1 64.1 0 0 0-6.1-13 17.1 17.1 0 0 1-3-8.5h.2a17.7 17.7 0 0 0 3 8.4c2 2.7 4.8 8.8 6.4 13.8h.1a25.9 25.9 0 0 0 1.1-9 12.6 12.6 0 0 0-1.4-2c-1-1.5-2.4-3.5-3.9-6l.3-.1a54.8 54.8 0 0 0 3.9 5.9 9.4 9.4 0 0 1 1.1 1.7l.3.3a28.3 28.3 0 0 0 3 3l3 2.8c.4.8 4.6 6.4 5.4 8.2l.4-1-1.5-3.7a64.8 64.8 0 0 0-9.3-18.3c-1.4-1.6-1.5-1.7-3.4-2.1a4.3 4.3 0 0 1-3.2-2.2 4.6 4.6 0 0 1-.7-1.4 5 5 0 0 0-1.5-2.4 2 2 0 0 0-1.5 0c-.6.3-1.2.5-2.2-.7-.6-.8-1-1.8-1.6-2.8-1-2.2-1.9-4.3-4.5-4.3a3.6 3.6 0 0 0-2.7.9c-1.4 1.4-1.7 4-1.7 6.7a13.7 13.7 0 0 0 3.5 9.4l2.9 4a29.4 29.4 0 0 0 3 4.2h-.1zm-98.5-59.5a14.4 14.4 0 0 0 2.6-5 37.5 37.5 0 0 0 .7-6.8c-1 2.2-4.4 5.6-6.8 8l-2 2 .4.6a13.3 13.3 0 0 0 2.3 3l1 .7a22 22 0 0 1 1.8-2.5z"/><path class="cls-1" d="M28 99.3c2.6-2.5 7-6.8 7-8.8a5 5 0 0 0-.3-1.5l-.8-1.5c-.6-1.3-1.3-2.8-2.1-3a5.8 5.8 0 0 1-1.9.4h-.3c-.4 0-1.4 1.3-2.2 2.3a6 6 0 0 1-1.9 2l-1.6 1a7.5 7.5 0 0 0-2 1 25.4 25.4 0 0 0-5.4 6c2.6 0 5.3-.2 7.6 1.7a10 10 0 0 1 2 2.3l1.9-2z"/><path class="cls-1" d="M38.7 102.5a16 16 0 0 0 .5-4.4c-.1-2-1.4-4.2-2.5-6l-1-2-.6-.5.2 1a47.5 47.5 0 0 1-.7 7.8 13 13 0 0 1-2.7 5 19.5 19.5 0 0 0-1.8 2.4 10.8 10.8 0 0 0 4.7 1.1 20.2 20.2 0 0 1 3.4.6L38 106a13.5 13.5 0 0 1 .6-3.4h.1zM16 97.3l1-1a23 23 0 0 1 4.7-5.2 7.8 7.8 0 0 1 2-1.1 14 14 0 0 0 1.7-1 9.5 9.5 0 0 0 1.8-2 16.2 16.2 0 0 1 2-2.2c-1.4-.3-2.5-1.5-3.6-2.8l-.9-.9a17.1 17.1 0 0 1-13.5 8.1 7.4 7.4 0 0 1-2.6-.3 10 10 0 0 1-5.5-4c1.2 4 2.2 7.1 5.4 10.3 2.3 2.3 4.9 2.3 7.6 2.1H16z"/><path class="cls-1" d="M42.4 106.5c0-1.7.3-3.3.3-5 0-5-1.3-7.1-4.6-10.5a4.2 4.2 0 0 1-2-.5l.9 1.4c1 2 2.3 4.3 2.5 6.3a13.6 13.6 0 0 1-.6 4.5 12.8 12.8 0 0 0-.6 3.3c-.1 2.5 1.7 5.7 3.3 8.6l1.2 2-.7-3.2a32.9 32.9 0 0 1 .3-7zm-6.2-81c-1.8-2.5-3-8-3.2-9.2l-.1-.3-.6.6-.7.8a3.4 3.4 0 0 0-.5 2 17.8 17.8 0 0 0 .4 3l.4 1.8a8.8 8.8 0 0 1 2.8.6l1.5.7z"/><path class="cls-1" d="M36.7 25.9l2.5 1.3 2.2 1.4c-3-4.5-7-11.8-4.2-17.9a3.7 3.7 0 0 0-3.2 1 5.3 5.3 0 0 0-.8 4.7c.7 3.4 2 7.9 3.6 9.4zm-28 62.7c5.6 1.7 13.2-2.8 15.8-7.7a6.3 6.3 0 0 0-2.6-1.8 7.7 7.7 0 0 0-3.7.3c-2 .5-4 1-5.8-1.8-1-1.4-1.1-2.4-.7-3.2.7-1.3 2.8-1.7 5.2-2-.5-1.3-3.1-3.4-4.5-4.3s-3-1.1-5.2-.7a7.7 7.7 0 0 0-6.5 7.4c-.4 8.4 3.9 12.6 8 13.8z"/><path class="cls-1" d="M12.6 67.8s4 2.7 4.6 4.5h1.6c2-.2 3.7-.3 4.5-.8l-1.2-1c-3-3.1-4-5.7-4.6-10.1l-.6-4.5v-.2c-2.7.2-5.4.5-6.8 3.1-1 1.7-1.2 6.9 0 8a6.3 6.3 0 0 1 2.5 1zM64 159.1l.8-1.4 3.4-4.7a30.8 30.8 0 0 1 4.8-4.7l-1.4-.1-.8-.2a15.4 15.4 0 0 0-13.4 6.6q-.9 1.2-1.6 2.5a19.6 19.6 0 0 1-3 4l-1.8 1.7a40 40 0 0 0-4.6 4.6c1.7.5 4.1-.3 5.9-1l1.4-.6a57.6 57.6 0 0 0 6.2-2.6l2-1.1a10 10 0 0 0 2.1-3z"/><path class="cls-1" d="M99.7 157.7l-.7-1.4a27.1 27.1 0 0 0-5.3-6.4c-4.6-4-9.2-5.5-14-4.6-5 1-9 5-11.3 7.8a32.8 32.8 0 0 0-2.7 3.9l-.6.8-.8 1.4-1.5 2.4a33.7 33.7 0 0 1 6.9-3.3 40.9 40.9 0 0 1 18-1.7l1.7.2a54 54 0 0 1 7.2 1.5 7.5 7.5 0 0 1 2.5 1.5 9.5 9.5 0 0 0 3.2 1.8c-.8-.5-1.6-2-2.6-4zm-53.8-35.4a8 8 0 0 1 .5-3.4 11.2 11.2 0 0 1 3.5-3.8 40.8 40.8 0 0 0 5.7-5.7 21.1 21.1 0 0 0 1.8-3.3 25 25 0 0 1 1.8-3.3l-1.5-.5a9.1 9.1 0 0 0-2 1.3 12.6 12.6 0 0 1-2.7 2l-2 .4a11 11 0 0 0-2.6.6l-1.3.5c-2.4.9-3.4 1.2-4.8 4v2.3a30 30 0 0 0 2 7.3l1.2 3.3.3.7a7.1 7.1 0 0 0 0-2.5zm46.3-1.8v-3a20.3 20.3 0 0 0-.3-5.1 5 5 0 0 1-1.3 2 14 14 0 0 1-.3 5.6 4.6 4.6 0 0 1-2.6 3.5 37.5 37.5 0 0 1 5 6.2 77.2 77.2 0 0 0-.5-9.2z"/><path class="cls-1" d="M64.5 127.3c2-2.4 0-9.8-.3-10.6a3 3 0 0 0-.3-1 35 35 0 0 1-2.3-12.3 15 15 0 0 1-2-.4 26.3 26.3 0 0 0-2 3.3 13.8 13.8 0 0 1-1.8 3.4 26.6 26.6 0 0 1-5.7 5.7 10.6 10.6 0 0 0-3.4 3.6 6.9 6.9 0 0 0-.5 3.3 10.2 10.2 0 0 1-.3 3 102.4 102.4 0 0 0 4.3 11.4 2.6 2.6 0 0 0 .3.8c.9 2 2 5 3.8 5.2.8 0 1.6-.3 2.5-1.4A12.5 12.5 0 0 0 59 136a15.7 15.7 0 0 1 2.1-5 22.2 22.2 0 0 1 3.4-3.6z"/><path class="cls-1" d="M90 119.8a14.3 14.3 0 0 0 .3-5.2 10.5 10.5 0 0 1-3.6 2.4l-6.3 1.8-2.4.8c-1.7.5-2.7 1.7-3.9 3A11.3 11.3 0 0 1 70 126l-2.4.6a7 7 0 0 0-3 1 12.5 12.5 0 0 0-2 2 5.8 5.8 0 0 1 1.4.3c2 .7 4.4 1.5 6.4 1.3 2.2-.2 3.1-1.5 4.2-3l1.5-1.7c1.6-1.7 4.2-2 6.7-2.2 3.3-.4 6.4-.7 7.2-4.3v-.1z"/><path class="cls-2" d="M208.6 150.3c-1.2-1.6-4.2-2-5-2.2-5.5-.7-10.2 1.7-14.8 4a11.9 11.9 0 0 0 2.2-7.3c-.4-3.4-2.2-5.4-4.2-7a11.2 11.2 0 0 0-7.8-3 3.3 3.3 0 0 0-1-3.3c-2-2-6.6-2.3-7.5-2h-.4c-2.2.4-4 .7-5.6 2.4q-1.8 1.8-3.3 3.7l-.2-.4a40.5 40.5 0 0 0-6.2-8.5 8.8 8.8 0 0 0-4.4-2.3 4.9 4.9 0 0 0-2.8.5l-1.4.5c-1.5.4-2.6-.4-3.7-1.2a6 6 0 0 0-4.3-1.4 5.9 5.9 0 0 0-4.5 3.5c-2.6 5.5-.4 15.2 1.6 18.8h-.1a1.7 1.7 0 0 0-1.7 0c-.6.2-1 .4-2-.7a18.4 18.4 0 0 1-1.4-2.8 9 9 0 0 0-3-4c.3-2.5-1.3-6.6-2.3-9.3l-.3-.8c-1-2.5-3-7.6-6.2-7.6a1.2 1.2 0 0 0-1 .4c-.5.5-.3 1.6-.1 2.6v1.4a35.7 35.7 0 0 0 .5 4.6c1 6.4 2.3 10 3.7 11a16.2 16.2 0 0 0 2.8 14.8l1 1.4c-1.3 3.6-5 6.3-8.3 8.9a36.8 36.8 0 0 0-4.1 3.3q-3.7 3.4-7 7.3l-2.4-12.3a115.6 115.6 0 0 0-5-15.8c-2.1-5.6-4.3-11.3-5.3-17v-.3a86.8 86.8 0 0 0-.6-9.7v-3c0-2 0-4.2-.5-5.5a1.8 1.8 0 0 0-1.2-1.7l1.7-.4 2-.7c2.2-.6 4-1.2 6.7-.8a21.1 21.1 0 0 1 5.2 1.7 39 39 0 0 0 4.8 1.8 7 7 0 0 0 2.5.7 4.1 4.1 0 0 0 2.9-1.3 4.5 4.5 0 0 0 1.7-3.8 5.2 5.2 0 0 0-1.4-3 4.4 4.4 0 0 0 1.2-1.5l.7-1a7 7 0 0 0 1.3-3.7 9.2 9.2 0 0 0-.2-4.8l-.6-1a2.1 2.1 0 0 1-.5-2l.3-1c.8-2 1.9-5.2.9-7.1a2.8 2.8 0 0 0-2-1.4c-3-1-4.8.8-6.6 2.4a9.9 9.9 0 0 1-4.2 2.5 20.4 20.4 0 0 0 3-5.6l1.5-3.1a11.2 11.2 0 0 0 3 .5 8 8 0 0 0 7.9-5.4 14.6 14.6 0 0 0 1-3.4 19 19 0 0 1 2-5.6l.9-1.2c1.4-2.3 3.2-5 2.6-7.8a4.2 4.2 0 0 0-1-2c.6-.3 1-1.4 1.7-2.5l1-1.6 4.4-5 1.2-1.2a16.5 16.5 0 0 0 3.9-5.1c1-2.4 2-7.2-.2-9.8-1.7-2-5-3-10-2.8-4.1.3-8 .5-12 2v.4a35 35 0 0 1 12-2c4.8-.2 8 .7 9.7 2.6 2.2 2.4 1.3 7 .2 9.5a18.9 18.9 0 0 1-3.8 5L135 43l-4.4 5-1 1.7c-.5 1-1.2 2.2-1.6 2.3a7.2 7.2 0 0 0-3-2c1.2-2 3.4-3.2 5.6-4.5a27.8 27.8 0 0 0 3.8-2.5l-.2-.2a31.3 31.3 0 0 1-3.8 2.5 17.2 17.2 0 0 0-5.7 4.5l-1.6-.4c-4-.8-8.7.2-11.1 2.3l1.4-2.8a35.6 35.6 0 0 0 3-8.7 19 19 0 0 1 12.2-10.6v-.3a19.8 19.8 0 0 0-11.8 9.4l.5-2.4a37.7 37.7 0 0 0 .5-10.5 13.5 13.5 0 0 1-.2-4v-.6l-.3.5c.4-1.8-.4-6.7-1.6-8.1-1-1.3-3.7-2-5.8-2.2a6.6 6.6 0 0 0-4 .5l-.3-.4a5.2 5.2 0 0 0-4.7-1.7 9 9 0 0 0-7.1 4.1 6.7 6.7 0 0 0-4.5-1c-2 .3-4.1 1-5.2 2.3l-.8-.8a16.1 16.1 0 0 1-3-4 13 13 0 0 1-1.2-3.3c-.6-2.5-1.2-5-4-6.4-3-1.4-7.3 2.3-9.1 5.4l-.1.2a7.9 7.9 0 0 0-4-3.7 13.3 13.3 0 0 0-3.4-1h-.1a7.7 7.7 0 0 0-4 .2 5.5 5.5 0 0 0-4.8-.7c-1.9.8-3.7 5-3.5 7a6.4 6.4 0 0 0-4.7-1.2 5 5 0 0 0-3.5 2.5l-.6 1.1a4.4 4.4 0 0 0-3.5 1.1 5.4 5.4 0 0 0-1 4.1 7 7 0 0 1-.7.8l-.7.8a3.3 3.3 0 0 0-.6 2 13.2 13.2 0 0 0 .5 3.2l.3 1.7a24 24 0 0 0-8.4 1.4c-5 1.4-7.4 3.9-8.3 8.8a30 30 0 0 0 .6 13 58 58 0 0 1 1.3 8c-2.7.3-5.4.6-7 3.4-.9 1.6-1.2 6.5 0 8.2l-2.7.1a8 8 0 0 0-6.7 7.7 18.4 18.4 0 0 0 1.7 8.6l.4.7.2.7C4 88.9 5 92.1 8.4 95.4c2.4 2.5 5.3 2.3 8.1 2.2 2.5-.1 5.2-.3 7.4 1.6a14.3 14.3 0 0 1 2.5 3 10 10 0 0 0 2.3 3.1c1.9 1.6 4 1.8 6 2a19.7 19.7 0 0 1 3.5.6c.5 2.2 2 4.6 3.2 6.8a21.9 21.9 0 0 1 2 4.2l1.9 5.2a116 116 0 0 0 5 13.5c.9 2.2 2.1 5.1 4 5.4h.2a3.4 3.4 0 0 0 2.5-1.5 13.6 13.6 0 0 0 2.3-5.4 13.6 13.6 0 0 1 3.2-6.4l1.4.5a20.9 20.9 0 0 0 5.9 1.3h.7c2.2-.2 3.3-1.6 4.4-3a8 8 0 0 1 1.4-1.8c1.6-1.7 4-2 6.5-2.2a14 14 0 0 0 4.7-.9 41 41 0 0 1 5.3 6.6c1 5.8 3.2 11.7 5.3 17.4a139.5 139.5 0 0 1 4.6 13.8c-.8-.1-2-2.3-2.7-3.8l-.7-1.4a27.4 27.4 0 0 0-5.4-6.4c-4.7-4-9.3-5.6-14.2-4.6a15.8 15.8 0 0 0-6.2 2.7 3 3 0 0 1-1.9 0l-.7-.1c-5-.5-10.3 2-13.7 6.7l-1.5 2.4a18 18 0 0 1-4.7 5.7 34.6 34.6 0 0 0-4.8 4.8l-.1.2h.1l1.4.3a14.1 14.1 0 0 0 4.9-1.2l1.4-.6c2.1-.8 4.3-1.7 6.3-2.7l1.4-.8a.6.6 0 0 0 .5-.3l.9-.4a33.7 33.7 0 0 1 6.9-3.3 40.5 40.5 0 0 1 19.6-1.5 52.5 52.5 0 0 1 7.1 1.4 18.3 18.3 0 0 1 2.5 1.5c1.3 1 2.6 2 3.8 2l.3 1.3 2.4 12.6-1.8 2.2c-3.4 4.2-3.1 9.6-2.6 14.8s3.3 10 5.8 14.1l3.1 6c1.7 3.3 3.5 6.7 5 9a226.7 226.7 0 0 1 2.6 35.6c-7 17.2-12.3 37.5-14.1 55.3-1.2 11.2 0 23.2 1.3 34.8 1.8 16.7 3.6 34-1.9 49.3h.3c5.4-15.2 3.6-32.6 1.9-49.4a172.6 172.6 0 0 1-1.5-34.7 208.9 208.9 0 0 1 13.8-54.5c0 3.8-.2 7.8-.4 11.9-.9 18 1.7 42.7 6.9 64.6h.2a254.1 254.1 0 0 1-6.8-64.6l.4-12.6c1.3-3.3 2.7-6.5 4.1-9.5 2.9-5.8 5.5-12 8-17.8s5-11.5 7.7-17.2a158.5 158.5 0 0 1 9.3-16.9l.5-.8 1.7-2.7a17.5 17.5 0 0 1 4.8-2.9 24.9 24.9 0 0 0 4-2l2.7-2.4a12.7 12.7 0 0 1 3.4.2l2.4.3a7 7 0 0 0 3.9-1.2c1.7-1 2.9-3.2 4-5.3a22.5 22.5 0 0 1 2.3-3.8l2.7-.6.7-.2a13.6 13.6 0 0 1 2.7.6 14.4 14.4 0 0 0 3.8.8l1-.1a11.3 11.3 0 0 1 3.2-.6l2.6-.4c4.2-1.4 9.4-11 10.6-16.6l.4-.4a9.2 9.2 0 0 0 3-3.5 7 7 0 0 0 .4-1.8 4.9 4.9 0 0 1 .8-2.4v-.2h.1zm-117-38.5c0 2-3.6 4.6-5 5l-6.3 1.8-3 1c0-1-1.4-3.2-3.2-6l-1.3-1.8a31.6 31.6 0 0 0 15.7-1.4l1.8-.2a1.8 1.8 0 0 1 1.4 1.6h-.1zM35.3 89.3l-1.1-2c-.6-1.3-1.2-2.6-2-3a3.3 3.3 0 0 1 2.2-.2 7.7 7.7 0 0 1 1.8 1 4.7 4.7 0 0 0 1.9 1.2 10 10 0 0 0 7.4-.2 5.2 5.2 0 0 0 2.8-2.6l1.7.7a30.9 30.9 0 0 0 .5 8.3 2.1 2.1 0 0 1-.5 2.2c-1.6 1-6-1.7-8-3l-1.3-.8a7 7 0 0 0-2.4-.3 3.3 3.3 0 0 1-3-1.2zM22 78.8a9 9 0 0 0-4 .2c-1.9.6-3.6 1-5.3-1.6-.8-1.3-1-2.3-.7-3 .7-1.5 4-1.7 6.9-2a11.3 11.3 0 0 0 4.7-.7 33.3 33.3 0 0 0 8.4 5.6 59 59 0 0 0 10.4 4 53.1 53.1 0 0 1 5.6 2 5 5 0 0 1-2.7 2.6 9.7 9.7 0 0 1-7.1.2 7.8 7.8 0 0 1-1.8-1 3.7 3.7 0 0 0-1.9-1.1 4 4 0 0 0-2.7.2 5.8 5.8 0 0 1-1.9.4c-1.6 0-2.8-1.3-4-2.7s-2.4-2.6-3.9-3zm39.6-2l.1.1.2-.2-.6-.6a7.1 7.1 0 0 1-2.3-3.4c-.5-1.7-.3-3.9 1.7-4.4 2.4-.7 3.2.7 4 2.3l1.3 2 .3.2v-.5c-.4-1.8-.7-4 .3-5.2a2.8 2.8 0 0 1 2.3-1 4.5 4.5 0 0 1 3.7 1.3c.5.6 1.1 2.3.6 2.8a7.2 7.2 0 0 0-1 2.2h.4a5.1 5.1 0 0 1 3.2-3.7 2.7 2.7 0 0 1 3 .6 3.8 3.8 0 0 1 1.3 2.6c0 1.1-.7 2.2-2.1 3.5l.1.2a1 1 0 0 0 .6-.4c1.7-1.2 3.9-2.6 6-1.8a2.8 2.8 0 0 1 1.6 3 2.1 2.1 0 0 1-2 1.8h-.8l.8.3a3.8 3.8 0 0 1 2.4 2.3 6.2 6.2 0 0 1 .6 3.7v.1l-.2.5a1.6 1.6 0 0 1-.8 1c-.8.3-2-.3-3.2-.8a9.6 9.6 0 0 0-2-.7h-.2v.2l1.4 1.8c.7 1 1.3 1.7 1.2 2.4a1.4 1.4 0 0 1-.7 1 4.3 4.3 0 0 1-5.8-2.6h-.2c.2 1.7-.3 3.4-1.3 4a2.4 2.4 0 0 1-2.7-.6h-.1a4.6 4.6 0 0 1-3.3 2.8c-1 .3-4 .8-4.5-.3l-.1-.3-.2.2a1 1 0 0 1-.9.7c-.4 0-.7-1.2-.9-3v-.3c0-1-.1-1-.6-1.3l-.6-.5a2 2 0 0 1-.8-1.8v-.2h-.4c-1.7 0-3.4-.7-3.6-2.4a4.4 4.4 0 0 1 .7-2.7 2 2 0 0 1 1-.6l1-.6v-.2l-1.2-.8c-1.9-1-4-2.4-2.8-4.6a2 2 0 0 1 1.2-1h.3c1.7 0 4 2.4 4.6 3zm-6.3-34c2.6 3.5 4 7.6 5.4 11.5 1.5 4.2 3 8.6 6 12.3l-.4.3c-.9 1.3-.7 3.2-.4 5l-1-1.5c-.8-1.5-1.7-3.2-4.3-2.4a2.7 2.7 0 0 0-1.6 1.1c-5-3.9-6.2-9.8-7.5-15.5L50.2 48c-.9-2.8-7.3-16.5-10.2-20.2a57.4 57.4 0 0 1 15.3 15zm37.7.5c.8-3.7 4.4-7.6 7.8-10.3a18.5 18.5 0 0 1-2.4 3.3 17.1 17.1 0 0 0-3 4.6 27.9 27.9 0 0 0-1.6 8.6l-.2 2.4-.2 2.5a19 19 0 0 1-2.5 9.6l-1.2 1.7a18.4 18.4 0 0 0-4.1 8l-.8-.4a3.8 3.8 0 0 0-1-.3c-2-2.5.5-7.5 2-10.5l.5-1a56.3 56.3 0 0 0 2.4-6l2.1-5.2a25.9 25.9 0 0 0 2.2-7zM85.8 74c.3-3 2.3-5.7 4-8.1l1.4-1.7c2-2.9 2.2-6.4 2.5-9.8a9.7 9.7 0 0 1 .2-2.4l.2-2.5a30.3 30.3 0 0 1 1.5-8.5 22 22 0 0 1 3-4.5 17.2 17.2 0 0 0 2.6-3.6c1.2 1.8.3 6.6-.3 9.5a6.5 6.5 0 0 1-.3 1.6 40 40 0 0 1-1.7 6.6q-.9 2.3-1.5 4.7A34 34 0 0 1 86 74.4a3 3 0 0 0-.3-.4zm-6.1 17.9a19 19 0 0 1-4.2 1.5l-2 .5-2.6.7h-.1a28.7 28.7 0 0 1-4.7.7 4.6 4.6 0 0 1-2.6 0c-1-.5-2.5-2.2-2.5-3.6l2 1.7a1.5 1.5 0 0 0 .8.9 1.2 1.2 0 0 0 1-.6 2.7 2.7 0 0 0 2 .7 7.6 7.6 0 0 0 2.8-.5c1.7-.6 2.5-1 3.3-2.7a2.4 2.4 0 0 0 2.8.5 3.5 3.5 0 0 0 1.5-3.2 4.5 4.5 0 0 0 2.2 1.8 4 4 0 0 0 3.7 0 1.7 1.7 0 0 0 .8-1.2c0-.8-.6-1.6-1.3-2.5l-1.1-1.5 1.5.6a8.4 8.4 0 0 0 3 .8 9.6 9.6 0 0 1 1.2 1.6l.2.2a16.4 16.4 0 0 1-5.1 2.6H82zm-29.4-7.4a40.7 40.7 0 0 1 7.2 4.5c-2.6 1.2-5.6 4.2-5.6 6.9a29 29 0 0 1-1.6-11.5zm3.3 1.5q-1.6-1-3.3-1.8v-.1H50a36.3 36.3 0 0 0-7.5-2.9 71 71 0 0 1-8.5-3.1 19.7 19.7 0 0 0 5.4-.4 14 14 0 0 1 5.7-.3 10.4 10.4 0 0 1 3.3 1.7q2 1.2 4.2 2.2a24.9 24.9 0 0 1 4 2 4 4 0 0 0-.1 1.3c.2 1.8 2 2.6 3.9 2.6a2.3 2.3 0 0 0 1 1.9 1.3 1.3 0 0 0 .7.5 1.3 1.3 0 0 1 .4 1.1v.2l.3 2a99 99 0 0 0-9.3-7v.1zm3.4-7a39.3 39.3 0 0 1-5-2.6 21.1 21.1 0 0 0-11.8-4l-3.3-.4a31.8 31.8 0 0 1-10-3.2 12.2 12.2 0 0 1-2.9-1.7L23 66a3.9 3.9 0 0 0-2.3-1.9v.3a3.9 3.9 0 0 1 2.2 1.8l1 1a6.1 6.1 0 0 0 2.8 1.8l1 .5A32.1 32.1 0 0 0 40 72.7a20.8 20.8 0 0 1 7.4 1.5c1.5.7 2.9 1.6 4.3 2.4a28 28 0 0 0 6 3l.4.3 1 .6a3 3 0 0 1-.7.4 1.8 1.8 0 0 0-1 .7 4 4 0 0 0-.7 1.4 24.9 24.9 0 0 0-4-2l-2-.9-2.1-1.2a9.3 9.3 0 0 0-3.4-1.8 15 15 0 0 0-5.8.3c-2.5.4-5 .9-7.3-.2a34.7 34.7 0 0 1-9.8-7 15 15 0 0 1-4.5-9.8l-.6-4.5a69 69 0 0 0-1.2-7.7c1.4.5 3 2.6 4.6 4.7s3 3.8 4.3 4.5l3 1.7a30.8 30.8 0 0 0 10 4c2.7.6 5.6 1.2 7.7 2.7 3.4 2.4 6.2 5.5 9 8.4l.6.8c-1 1.8.3 3 1.7 4zM40.7 91.3l1.2.7c2 1.2 5.3 3.3 7.3 3.3a1.7 1.7 0 0 0 1-.3 1.5 1.5 0 0 0 .7-1.2 17 17 0 0 0 1 3c-1.4 1.5-3 1.5-4.9 1.5a9.3 9.3 0 0 0-4 .6c-.5-3.2-1.9-5.3-4.4-8a5 5 0 0 1 2 .4h.1zm2.3 8a7.2 7.2 0 0 1 4-.8c1.8 0 3.6.1 5.1-1.4a11 11 0 0 0 5.4 5.2 18.4 18.4 0 0 0-1.8 1.2 11.4 11.4 0 0 1-2.7 1.8l-2 .4a12 12 0 0 0-3.9 1.1c-2.2.8-3.3 1.3-4.6 3.6l.3-3.9c.1-1.6.3-3.3.3-5l-.1-2.3zm9.3-2.6c-.8-2.8 2.7-6.3 5.5-7.5l3 2.3a2.8 2.8 0 0 0 .8 2.4c-2.7 1.3-2.8 6.2-2.2 8.8a11 11 0 0 1-7.1-6zm7.4 6c-.6-2.5-.5-7.4 2-8.6a6 6 0 0 0 1.6 1.4 3.5 3.5 0 0 0 1.4.3l1.5-.2h.8a29 29 0 0 0 3.9-.7c2.6.6 5.4 2.5 5.4 5.4h.3c0-2.9-2.6-4.8-5.2-5.6q2-.4 3.9-1v.1c1.1-.5 4.6.4 6.6 2a2.3 2.3 0 0 1 1 2.3h.4a2.9 2.9 0 0 0-1.3-2.5 11.1 11.1 0 0 0-5.4-2.2 30.1 30.1 0 0 0 5-2 7.2 7.2 0 0 1 6.1 3.8l.3-.1a7.8 7.8 0 0 0-5.8-3.9h.2a17.5 17.5 0 0 0 5.1-2.6 6.9 6.9 0 0 0 3 2.4c.9 2.2-2.4 5-4.6 7l-1 1c-2.8 2.6-5.6 3.1-9 3.7l-1.9.4a44.6 44.6 0 0 1-14.3-.4zm28.2 7.7c-5.2 1.8-14.7 2.6-20.1-.6a8.4 8.4 0 0 1-4.3-6.3l5.4.3a27 27 0 0 0 5-.4 20 20 0 0 0 14 7zm-25.8-7l1 .1a9.9 9.9 0 0 0 2.5 5c0 3 1 5 2 7.4l.7 1.8c.8 1.9 2.2 7.2 1 8.3l-1.6.4a6.5 6.5 0 0 0-2.4.6c1.5-2.8-.3-9.1-.7-10.4a3 3 0 0 0-.3-1 34.9 34.9 0 0 1-2.2-12.2zm6.5 14.2l-.7-1.8c-1-2.3-2-4.3-2-7l1.7 1.2a15.6 15.6 0 0 0 5 1.8L74 114c1.3 2 3.3 5 3.1 5.8a9.6 9.6 0 0 0-3 2.7 13.5 13.5 0 0 1-4.1 3.3l-.3.1c1-1.8-.6-7-1-8.3h-.1zm24-8c-6.2 1.7-13.7-1-18.3-6.3a10.1 10.1 0 0 0 1.7-.3c2.6-.5 5-.9 7.2-2.4.7 2.2 2 4.9 4 6.1a31.3 31.3 0 0 0 6.7 2.6 4.3 4.3 0 0 0-1.4.4zm23.9 1.5c-2 1.8-3.3 1.3-5.1.6l-1.8-.7-3-1.1a19.5 19.5 0 0 0-5.2-1.6 12 12 0 0 0-6.9.8c-1.5-.1-6-2-7.2-2.6-1.9-1.2-3.2-3.9-3.8-6l1.5-1.3 1.1-1q1.4-1.1 2.6-2.4c.4.5 2 1.2 4.1 2l2.5 1.1c1.7 1.2 4.2 1 6.7.8a14.5 14.5 0 0 1 3.5-.2c3.2.3 6.8 2.1 9.3 3.6a5.8 5.8 0 0 1 3.3 4.5 4 4 0 0 1-1.6 3.5zm3.2-17.5c.5 1.1.5 2.6.3 4.7a7 7 0 0 1-1.4 3.5l-.6 1a4.7 4.7 0 0 1-1.2 1.5 24.8 24.8 0 0 0-11.2-5H102c-2.5.3-5 .5-6.6-.6a9.2 9.2 0 0 0-2.4-1.1 24 24 0 0 1-4.2-2 5.3 5.3 0 0 0 1-1.2 20 20 0 0 0 8.3 1.4 47.1 47.1 0 0 0 16.2-2.7l2.5-.4a6.6 6.6 0 0 0 2-.6l.4.5.5 1zm-.8-4l-.2.8a2 2 0 0 0 0 1.4 3.8 3.8 0 0 1-2 .6 34.5 34.5 0 0 0-5.8 1.3l-2.6.7c-4.6 1-13.6 2-18.3-.2l.6-1a25.9 25.9 0 0 0 6.2.6 25 25 0 0 0 5.3-.5 26.9 26.9 0 0 0 6.8-3.3c2.9-1.9 7.7-5.1 10.8-2.8l-.8 2.3v.1zm-11.8-3.4a9 9 0 0 0 4.5-2.6c2-1.6 3.8-3.1 6.6-2.4a2.6 2.6 0 0 1 1.6 1.3 6.6 6.6 0 0 1 0 4.4c-3.3-2.3-8.2 1-11 3A23.2 23.2 0 0 1 102 93a30.6 30.6 0 0 1-11.3 0 2.8 2.8 0 0 0 .1-1.8 13.5 13.5 0 0 0 5.2 1.2c4.5 0 8.4-2.7 11.1-6.2zm3-6c-2.3 6.2-8 12.6-15.1 11.9a13.1 13.1 0 0 1-5.4-2 7.7 7.7 0 0 1-2.2-2.2l-1.1-1.4.2-.1a2 2 0 0 0 1-1l.1-.7c2.2-3.2 9-4.1 11-4.3a12 12 0 0 0 5.8-1.6l2.4-1a10 10 0 0 0 3.5-1.5l-.2-.3a8.3 8.3 0 0 1-3.4 1.6l-2.5 1a12.2 12.2 0 0 1-5.6 1.5c-2 .2-8.4 1-10.9 4a6.1 6.1 0 0 0-.5-2.9c.9-2.6 2.8-4.2 6-5.4a5.3 5.3 0 0 1 2.8 0 5.7 5.7 0 0 0 2.6 0c2-.5 3.1-1.7 4.5-3.2l1.4-1.7c3.5-4.2 8.4-10 13.7-9.5a24.5 24.5 0 0 1 3.8.7c-2.4 1.1-4.7 4-7 8.4a23.7 23.7 0 0 1-1.9 3.5 59.2 59.2 0 0 0-3 6.2zm13.4-11.4l-1 3.4a8 8 0 0 1-10.6 4.7l1.5-2.7.6-1.2.9.2c2 0 4.3-2.3 6.3-4.4a18 18 0 0 1 3-2.8l-.7 2.8zm2.8-6.9l-1.9 3.7a11 11 0 0 0-3.4 3c-2.2 2.3-4.7 4.9-6.8 4.2l1.1-2.1c2.4-4.8 4.8-7.6 7.3-8.6l.6-.2h-.6l-2.2-.4a24.7 24.7 0 0 0-2.9-.4c-5.2 0-9.8 5.5-13.2 9.6l-1.4 1.7a8.3 8.3 0 0 1-4.3 3.1 6 6 0 0 1-2.6 0 6.2 6.2 0 0 0-2.7 0l2-1.1a20 20 0 0 0 2.7-1.7 32.9 32.9 0 0 0 4.2-4.9l.5-.7 3.1-2.2a45 45 0 0 0 7.8-6.5l1-1a19.6 19.6 0 0 1 6.4-3.9l3.5-.6a16 16 0 0 0 3.5-.6l1 2c.5 2.7-1.3 5.4-2.7 7.6zm-3.2-12.2a7.9 7.9 0 0 1 4.7 2.4 22.4 22.4 0 0 1-3.3.6 19.2 19.2 0 0 0-3.6.5 22.3 22.3 0 0 0-6.5 4l-1 1q-2.2 2.3-4.7 4.3l-3 2.2-2.3 1.5a87.7 87.7 0 0 0 8.2-13.6c2-2.5 7.1-3.8 11.5-3v.1zm-5.3-21a37.4 37.4 0 0 1-1.5 11.5l-.2.5a40 40 0 0 1-4.7 11.8.2.2 0 0 0-.2.2 82.8 82.8 0 0 1-8.3 13.8l-1 1.2a30.7 30.7 0 0 1-4.1 4.8 10.1 10.1 0 0 1-2.6 1.6 9.8 9.8 0 0 0-2.6 1.7c-3 1.1-4.7 2.7-5.5 5H87a5 5 0 0 0-2-2.3 2.2 2.2 0 0 0 1.6-1.6c1.2-1.6 3.2-2.8 5.2-4a36.3 36.3 0 0 0 10-8.9 60.8 60.8 0 0 0 9.8-18.2l-.2-.1a64 64 0 0 1-9.8 18.2 36 36 0 0 1-6.4 6.4 25 25 0 0 1-3.6 2.4 18.3 18.3 0 0 0-4.9 3.6 3 3 0 0 0-.3-1.6 34 34 0 0 0 11.4-19.3l1.4-4.7a42.5 42.5 0 0 0 2.1-8.3c.6-3 1.5-8 .2-9.8a18 18 0 0 1 3.3-2.1c2.2-1.2 4.5-2.3 7-3.4a12.6 12.6 0 0 0 5.5-4.9 23 23 0 0 0 .3 3.7l.2 2.8zm-7.8-17c2.4.2 4.8 1 5.6 2a14 14 0 0 1 1.5 8l.2.1c-1.8 2.4-2.8 3.8-5.6 5l-6 2.9.7-2.2.7-2.1c.7-3.2 1.4-9.7-.9-13.2a6.4 6.4 0 0 1 3.8-.6v.1zm-9-1.6a5 5 0 0 1 4.5 1.5c2.8 3.3 2 10.4 1.3 13.7l-.7 2.1a10.3 10.3 0 0 0-.7 2.5l-.8.4a27 27 0 0 0-11.3 11.5A28.9 28.9 0 0 0 90.9 28l-1.2-2.9a22.2 22.2 0 0 1 4.2-10.7h.1v.1h.2v-.3h-.1a8.8 8.8 0 0 1 7-4zm-11.6 3.1c1.9-.1 3.4.2 4.3 1l-.7 1a24 24 0 0 0-3.5 9.5q-1.4-3.3-3-6.5a14.6 14.6 0 0 0-2.1-2.7 8 8 0 0 1 5-2.4zM75.1 1c2.6 1.2 3.2 3.6 3.9 6.1l1 3.5a17.6 17.6 0 0 0 3.2 4l.8.9-.2.3.2.1.2-.2a13.1 13.1 0 0 1 2 2.8q2.2 4.2 4.5 9.6a27.6 27.6 0 0 1 2 15.2v.2a27.4 27.4 0 0 1-2 6.7l-2.1 5.3a60.3 60.3 0 0 1-3 6.9c-1.4 3-4 7.8-2 10.6a7.7 7.7 0 0 0-4.3 1.7 4.7 4.7 0 0 0 1-2.6 4 4 0 0 0-1.2-2.9c-.1-3.7 2-7.4 4-11a41.4 41.4 0 0 0 2.4-4.6 30.7 30.7 0 0 1 2.2-3.8c2-3.3 4.4-7 3.3-10.4h-.3c1 3.4-1.2 7-3.2 10.2a26.7 26.7 0 0 0-2.2 3.9l-2.6 4.4c-2 3.6-4 7.3-4.2 10.9a2.2 2.2 0 0 0-1.5-.6l-.3-1a37 37 0 0 1 4-16.1l2.3-6c1-2.6 4.4-16 2.2-19.4a2.2 2.2 0 0 0-1.4-.9v.3a1.4 1.4 0 0 1 1 .7c2.3 3.4-1.1 16.6-2 19.2l-2.4 6c-2 4.8-4 9.4-4 15-1-5.4.3-11.7 1.5-17.3a51.8 51.8 0 0 0 1.2-6.2 55.1 55.1 0 0 0 .6-7.1L80 30c.5-4.7.8-10.5-.9-11.5l-.1.2c.6.4 1.7 2.5.8 11.3l-.4 5.4a42.5 42.5 0 0 1-.6 7.1c-.2 2-.7 4-1.1 6.1a54 54 0 0 0-1.8 15.5l-4.6-14.2a132.1 132.1 0 0 1-4.4-14.4 58.5 58.5 0 0 1-3.4-17.6h-.3c0 6.3 1.7 11.8 3.5 17.7l1.7 6L71 50l1.6 4.7.7 2.3c1 3.2 2.6 8 2.9 9.3l.5 1.9a1.8 1.8 0 0 0-1 .2 4.4 4.4 0 0 0-2.2 1.4 4.5 4.5 0 0 0-.8-2.6 4.4 4.4 0 0 0-2.6-1.4c-.3-1.8-1.7-4.1-3-6l-.5-1a51.2 51.2 0 0 1-3-5.7l-.6-1.6-1.7-3.4a29.5 29.5 0 0 1-3-7.3 30.2 30.2 0 0 1 0-13.3A38.5 38.5 0 0 1 61.9 17l.9-1.7a18 18 0 0 0 1.8-3.7l.5-2a10.8 10.8 0 0 1 1-3.5c1.8-3 6-6.6 8.8-5.2zm-16.7.8a17.9 17.9 0 0 1 3.5 1 8.3 8.3 0 0 1 4 3.8 17.6 17.6 0 0 0-1 3 7.1 7.1 0 0 1-.4 2 17.6 17.6 0 0 1-1.7 3.7l-1 1.7-.8 1.6 1.1-5.6.3-.9a10.6 10.6 0 0 0 .3-2 10 10 0 0 0-.6-3.2l-.2-.6a4.3 4.3 0 0 0-1.5-2.5l-.1.3a4 4 0 0 1 1.3 2.3l.2.6a9 9 0 0 1 .6 3.1 7 7 0 0 1-.3 2l-.2 1-.3 1.1c-.3 2-1 5-1.2 5.6h.1l-.3.6a43 43 0 0 0-.4-6.5c0-2.9-.2-6-2.2-9A11 11 0 0 0 54.8 2a8.9 8.9 0 0 1 3.6-.2zm-8.6-.4c2.7-1 6 1 7.5 3.6a15.3 15.3 0 0 1 2.2 8.9l.2 2.6a22.9 22.9 0 0 1 .2 5 33.9 33.9 0 0 0-1.7 19.6 44 44 0 0 0 3 7.4l2.4 4.8a52.8 52.8 0 0 0 3 5.8l.5 1c1.2 1.8 2.6 4 2.9 5.7h-1a3.2 3.2 0 0 0-2 .7c-2.9-3.7-4.4-8-6-12.2a53.7 53.7 0 0 0-4.2-9.9c.4-1-.3-3.5-1-5.3a27.3 27.3 0 0 1-1.1-6.2l-.3-2.3a70.7 70.7 0 0 0-3.1-13.7l-.2-.6c-1-2.7-2-6-4.5-7.9-.6-1.7 1.3-6.2 3.2-7zM38.2 9.5a5 5 0 0 1 3.4-2.3 5.8 5.8 0 0 1 4.8 1.4c2.4 2 3.5 5 4.4 7.8l.2.6a70.7 70.7 0 0 1 3.1 13.7l.3 2.3a38.9 38.9 0 0 0 1.2 6.2c.5 1.6 1.2 3.8 1 4.9l-1-1.4A59.8 59.8 0 0 0 42.2 29c-3.2-4.6-8-13-4-19.6zm-4 2.3a3.3 3.3 0 0 1 3-1c-2.6 6.1 1.3 13.4 4.3 17.8l-2.1-1.4-2.5-1.4c-1.5-1.5-3-6-3.6-9.4a5.5 5.5 0 0 1 .8-4.6zm-2.6 10.6a11.3 11.3 0 0 1-.4-3 3.4 3.4 0 0 1 .5-1.9l.7-.8.6-.6v.3c.3 1.2 1.5 6.7 3.3 9.2l-1.5-.7-2.8-.6a7.2 7.2 0 0 0-.4-1.9zm-16.3 12c.9-4.7 3-7.1 8-8.6 4-1.1 7.8-2 11.4-.6a37.5 37.5 0 0 1 4.5 2.2A99.7 99.7 0 0 1 50 48.2l1.4 5.6c1.2 5.8 2.5 11.7 7.5 15.7a5 5 0 0 0-.1 3.4 5.4 5.4 0 0 0 1 2 7 7 0 0 0-2-1 50 50 0 0 0-4-5.3 39.1 39.1 0 0 1-5-7.3l-2.2-5.2a52.8 52.8 0 0 0-3.6-7.6l-2.2-3a23.8 23.8 0 0 1-2.4-3.5l-1-1.7a23.1 23.1 0 0 0-1.7-3.5c-2-3-5-5.2-7.8-7.3l-.4-.3c-1.4-1-3.5-2.6-5-1.3v.2c1.5-1.2 3.5.3 4.8 1.3l.4.3c2.9 2.2 5.9 4.3 7.7 7.2l1.9 3.5.9 1.8a22 22 0 0 0 2.4 3.5 32.1 32.1 0 0 1 2 3 51.7 51.7 0 0 1 3.7 7.5l2.3 5.2a34.8 34.8 0 0 0 5 7.3 52 52 0 0 1 3.9 5.1h-.7a1.5 1.5 0 0 0-1.3.9l-.6-.7a59.7 59.7 0 0 0-9-8.4 22 22 0 0 0-8-2.8l-2.7-.7a29.9 29.9 0 0 1-7-3.3L25 57.1c-1.3-.6-2.7-2.5-4.2-4.4-1.6-2.1-3.4-4.4-5-4.9v-.5a29.6 29.6 0 0 1-.6-12.9zm-5.1 24.5c1.5-2.6 4-3 6.8-3.2v.2l.6 4.5c.6 4.4 1.5 7 4.6 10l1.2 1.2c-.8.5-2.6.6-4.5.7l-1.6.1c-.6-1.8-4.5-4.4-4.6-4.5a7 7 0 0 0-2.5-1c-1.2-1.3-1-6.5 0-8zm-9.4 16a7.7 7.7 0 0 1 6.5-7.5c2.2-.4 4-.2 5.2.7 1.4 1 4 3 4.5 4.3-2.4.3-4.5.7-5.2 2-.4.8-.2 1.8.7 3.2 1.9 2.8 3.8 2.3 5.8 1.8a7.7 7.7 0 0 1 3.7-.3 5.8 5.8 0 0 1 2.6 1.8c-2.6 4.9-10.2 9.4-15.8 7.7-4.1-1.2-8.4-5.4-8-13.8v.1zm7.8 20.3a22.1 22.1 0 0 1-5.4-10.3 10.3 10.3 0 0 0 8 4.3 17 17 0 0 0 13.6-8l.9.8c1 1.3 2.2 2.5 3.6 2.8a11.6 11.6 0 0 0-2 2.2 9.5 9.5 0 0 1-1.8 2 9.2 9.2 0 0 1-1.7.9 7.8 7.8 0 0 0-2 1.1 26.3 26.3 0 0 0-4.8 5.2l-1 1 .2.1c-2.7.2-5.3.2-7.6-2v-.1zM24.2 99c-2.3-2-5-1.8-7.6-1.7h-.1l.7-1a32 32 0 0 1 4.7-5l2-1.2 1.7-.8a14 14 0 0 0 2-2.1c.7-1 1.7-2.3 2-2.3h.4a5.8 5.8 0 0 0 1.9-.4c.8.2 1.5 1.7 2.1 3l.8 1.5.3 1.5c0 2-4.4 6.3-7 8.8l-2 2a10 10 0 0 0-2-2.3h.1zm2.5 3.1l-.4-.5 2-2c2.4-2.5 5.9-5.9 6.8-8a37.2 37.2 0 0 1-.7 6.7 12.9 12.9 0 0 1-2.6 4.9 22 22 0 0 0-1.8 2.6l-1-.7a13.3 13.3 0 0 1-2.3-3zm8.2 5a13 13 0 0 1-4.7-1.2 19.5 19.5 0 0 1 1.8-2.5 13.5 13.5 0 0 0 2.7-5 47.8 47.8 0 0 0 .7-7.9l-.2-.9.6.5 1 2c1 2 2.4 4.2 2.5 6.1a13 13 0 0 1-.6 4.4 20.2 20.2 0 0 0-.6 3.4 4.7 4.7 0 0 0 .2 1.6 20.2 20.2 0 0 0-3.4-.6v.1zm6.8 7.5c-1.6-2.9-3.4-6-3.3-8.6a12.8 12.8 0 0 1 .6-3.3 13.6 13.6 0 0 0 .6-4.5c-.2-2-1.4-4.3-2.5-6.3l-.8-1.4a5 5 0 0 0 2 .5c3.2 3.4 4.5 5.6 4.5 10.4 0 1.8-.2 3.4-.3 5a33.4 33.4 0 0 0-.3 7l.7 3.3-1.2-2.1zm2.8 6.2a29.6 29.6 0 0 1-2-9.7c1.3-2.8 2.3-3.1 4.7-4l1.3-.5 2.5-.6a6.5 6.5 0 0 0 2-.4 11 11 0 0 0 3-1.9 8 8 0 0 1 1.8-1.3l1.5.5a25 25 0 0 0-1.8 3.3 21.1 21.1 0 0 1-1.8 3.3 26.5 26.5 0 0 1-5.7 5.7 11.2 11.2 0 0 0-3.5 3.7 8 8 0 0 0-.5 3.4l-.1 2.5-.3-.7zM61.2 131a13.8 13.8 0 0 0-2 5 12.6 12.6 0 0 1-2.3 5.3c-1 1-1.7 1.5-2.5 1.4-1.7-.3-3-3.2-3.8-5.2l-.3-.8a102.4 102.4 0 0 1-4.3-11.4 7.7 7.7 0 0 0 .3-3 7.6 7.6 0 0 1 .5-3.3 9.8 9.8 0 0 1 3.4-3.6 43.1 43.1 0 0 0 5.7-5.7 27.4 27.4 0 0 0 1.9-3.4 25.7 25.7 0 0 1 1.8-3.3 15 15 0 0 0 2.2.4c-.4 3.8 1 8.4 2.2 12.2l.3 1c.3.9 2.5 8.3.4 10.7h-.1a27.3 27.3 0 0 0-3.4 3.7zm21.7-6.7c-2.5.2-5 .5-6.7 2.2l-1.5 1.7c-1 1.5-2 2.8-4.2 3a17 17 0 0 1-6.4-1.3l-1.3-.4a8.9 8.9 0 0 1 2-1.9 7.1 7.1 0 0 1 3-1 6.8 6.8 0 0 0 2.3-.5 11.7 11.7 0 0 0 4-3.4c1.3-1.3 2.3-2.5 4-3l2.4-.8 6.3-1.8a10.1 10.1 0 0 0 3.6-2.4 14.9 14.9 0 0 1-.3 5.3c-.8 3.6-4 4-7.2 4.3zm7.5-4.3c.2-1.1.8-3.9.3-5.5a8 8 0 0 0 1.3-2.1 16.5 16.5 0 0 1 .3 5.1v3a77.2 77.2 0 0 1 .6 9.2 41.5 41.5 0 0 0-5-6.2 4.7 4.7 0 0 0 2.5-3.5zM60 163.2a57.6 57.6 0 0 1-6.2 2.6l-1.4.6c-1.8.7-4.2 1.5-5.9 1a40 40 0 0 1 4.6-4.6l1.7-1.6a17 17 0 0 0 3.1-4.1l1.6-2.5c3.4-4.5 8.5-7 13.4-6.6l.8.2h1.4a31.5 31.5 0 0 0-8.2 9.5l-.8 1.4a9.8 9.8 0 0 1-2.1 3l-2 1zm36.7-5a46 46 0 0 0-7.2-1.4l-1.7-.2a40.9 40.9 0 0 0-18 1.7 37.2 37.2 0 0 0-7 3.3 20 20 0 0 0 1.6-2.4l.8-1.4.6-.8a32.8 32.8 0 0 1 2.7-3.8c2.4-2.8 6.2-6.8 11.3-7.8 4.8-1 9.4.6 14 4.6a26 26 0 0 1 5.3 6.3l.7 1.4c1 1.9 1.8 3.4 2.6 3.9a10.6 10.6 0 0 1-3.2-1.8 7.5 7.5 0 0 0-2.5-1.5v-.1zm90-20.2c2 1.7 3.8 3.6 4.1 6.8.2 1.8-.8 6.7-3 8l-2.9 1.5-1.3.6a35.7 35.7 0 0 0-6.3 3.5 38 38 0 0 0-4.7 4.5l-.5.6a13.7 13.7 0 0 0-6.8-3.4 5.5 5.5 0 0 0-4 .6 56.4 56.4 0 0 1 8.7-20.4 11.8 11.8 0 0 1 8.3-5 10.6 10.6 0 0 1 8.4 2.7zm-17 38a4.7 4.7 0 0 0-1.7.2c1-2 1.6-4.2.2-6.8a8 8 0 0 0-.8-1.3 33.2 33.2 0 0 0 4.7-4.2l.6.9a8.4 8.4 0 0 1-3 11v.2zm-8.5-15c1-1 2.8-1 4-.6a13.3 13.3 0 0 1 6.7 3.3 28 28 0 0 1-4.7 4.2 5 5 0 0 0-2.9-1.7 5.3 5.3 0 0 0-4 1.2 29 29 0 0 1 .9-6.3zm3.6-29a10 10 0 0 1 5.4-2.2h.4c1-.2 5.5 0 7.4 2a3.5 3.5 0 0 1 .8 3h-.5a12.7 12.7 0 0 0-8.6 5.4c-5 6.9-9.1 18.2-9.8 27.5l-.3.2a18.8 18.8 0 0 0-3.8 5.4 35.5 35.5 0 0 0-.9-5 33 33 0 0 1-1.2-8.3 80.4 80.4 0 0 1 2-12.7 24.4 24.4 0 0 1 4.9-10.4l.4-.5c1.3-1.4 2.5-3 3.8-4.2v-.1zm-30.7-5.4a5.3 5.3 0 0 1 4.2-3.4 5.5 5.5 0 0 1 4.1 1.4c1.2.8 2.3 1.6 4 1.2l1.5-.5a3.7 3.7 0 0 1 2.6-.5 8.2 8.2 0 0 1 4.2 2.2 39.3 39.3 0 0 1 6.1 8.4l.3.5-.3.3-.4.5a24.3 24.3 0 0 0-5 10.5c-.7 3.8-1.8 8.4-2 12.8v.8a76.7 76.7 0 0 1-.6-9 66.2 66.2 0 0 0-.8-9.5c-.4-4-.9-8.4-3-11.5h-.3a26 26 0 0 1 3 11.6l.4 3a51.7 51.7 0 0 1 .4 6.4 47 47 0 0 0 1 10.3 47.6 47.6 0 0 0 1.1 6.2 25.8 25.8 0 0 1 1 5.5l-.7 1.4-1.4-3.5a78 78 0 0 0-7.7-16.3 46.1 46.1 0 0 0-10-18.5l-.2.2 1 1.4c3.2 4.5 8 11.2 8.9 16.4l-1.3-1.6c-1.4-1.6-1.6-1.8-3.5-2.2a3.9 3.9 0 0 1-3-2l-.8-1.4a7 7 0 0 0-1.2-2.3h.1c-2.1-3.5-4.2-13.5-1.7-18.8zm-16 2.3a32.7 32.7 0 0 1-.4-4.5v-.2a2.5 2.5 0 0 0-.2-1.2c-.1-1-.3-2 .1-2.4a1 1 0 0 1 .8-.3c3 0 5 5 6 7.4l.2.8c1 2.7 2.6 6.6 2.4 9a3.8 3.8 0 0 0-1.6-.2h-1.2a40.2 40.2 0 0 0-2.7-9.5v.3c.6.3 2.3 8 2.4 9.4a2.9 2.9 0 0 0-1.4.8 5 5 0 0 0-1 1.4c-.9-.7-2.2-3-3.4-10.8zm3 16.3c0-2.7.2-5.3 1.6-6.7a3.6 3.6 0 0 1 2.7-1c2.6 0 3.5 2.2 4.5 4.4a18.6 18.6 0 0 0 1.6 2.8c1 1.2 1.6 1 2.2.7a2 2 0 0 1 1.5 0c.6.3 1 1.4 1.5 2.4l.7 1.4a4.2 4.2 0 0 0 3.2 2.2c1.9.4 2 .5 3.4 2 4.1 5 6.9 12 9.3 18.4l1.5 3.8-.4 1c-.8-2-5-7.5-5.5-8.2a27.2 27.2 0 0 0-2.9-3 14.2 14.2 0 0 1-3-3l-.3-.3-1.1-1.6c-1-1.5-2.5-3.4-4-6l-.2.2c1.5 2.5 2.9 4.5 4 6a19.4 19.4 0 0 1 1.3 2c0 2.7 0 6-1.1 9a66.4 66.4 0 0 0-6.5-13.8 16.8 16.8 0 0 1-3-8.4h-.2a17.1 17.1 0 0 0 3 8.6 64 64 0 0 1 6.1 13 12.7 12.7 0 0 0-4.7-3.6 23.6 23.6 0 0 1-3.2-2 78 78 0 0 1-5.7-10.4 16.6 16.6 0 0 1-1.3-4.4l-.3-1.8c-.3-1.2-1.6-3.5-3-3.6v.3c1.2 0 2.4 2.2 2.7 3.4l.3 1.7a15.3 15.3 0 0 0 1.3 4.5c1 2 3 6 5.2 9.6a22.1 22.1 0 0 1-5-6.2 32.4 32.4 0 0 0-2.8-4 13.7 13.7 0 0 1-3.5-9.4h.1zm30.3 39a38.6 38.6 0 0 1-9.6-12.1 26.9 26.9 0 0 0 1.2-9.1 17.9 17.9 0 0 0 2.8 2.7l2.9 2.8c2.7 3.7 5.5 7.7 5.5 8.4l-1 2.4-.1.4-1.7 4.6zm-11.5-8.2a12.4 12.4 0 0 0-1.2 2.2c-1.3 4.2-4.6 7.2-7.7 10.2a26 26 0 0 0-7.5 9.3 26.2 26.2 0 0 0-1.4 7.9 30.4 30.4 0 0 1-.5 5c-.8 3.9-2.9 7.6-6.2 11.3l-.3-2.1c1.1-4 1.2-8.3 1.4-12.6.1-5.8.3-11.7 3-16.6a25.7 25.7 0 0 1 5-6.3c1.1-1.2 2.3-2.3 3.3-3.6a30.1 30.1 0 0 0 5.9-14.5l2.5 1.6a13 13 0 0 1 5.3 4.3v.3c.1.8-.8 2.3-1.6 3.6zm-26.8-7.5l4-3.3c3.5-2.6 7-5.2 8.4-8.8l1.6 2.4a22.3 22.3 0 0 0 5.8 6.9l.5.7a7.7 7.7 0 0 1-.4 2.5v.5a29.9 29.9 0 0 1-8.7 14.7 27.1 27.1 0 0 0-5.1 6.4 37 37 0 0 0-3 16.7 52 52 0 0 1-1.3 12 210 210 0 0 0-4-18.8q-3-12.1-5-24.4a99.9 99.9 0 0 1 7.2-7.5zm-2.7 44.3l-3.2-6c-2.4-4-5.2-8.8-5.7-14-.6-5-.8-10.4 2.5-14.5a10.6 10.6 0 0 1 1.7-2q2 12.2 5 24.2 2.7 10.2 4.3 20.8c-1.4-2.3-3-5.4-4.6-8.5zm37-17.5l-.6.9a189 189 0 0 0-9.3 16.9c-2.7 5.7-5.2 11.5-7.6 17.2-2.6 5.8-5.2 12-8 17.8-1.4 2.8-2.7 5.8-4 8.8a221 221 0 0 0-2.5-34.7c3.5-3.7 5.7-7.6 6.4-11.4a32 32 0 0 0 .6-5.2 26 26 0 0 1 1.3-7.8 27 27 0 0 1 7.5-9.2c3.1-3 6.4-6 7.8-10.3l1.2-2.2a11.5 11.5 0 0 0 1.6-3.1c1.4 3 7.8 11 9.5 11.6l-1 4a11.1 11.1 0 0 1-1 3.5 20.3 20.3 0 0 1-2 3.2h.1zm10.5-7.7a15 15 0 0 1-4 2 26.7 26.7 0 0 0-4.3 2.5 44 44 0 0 1 4.5-6l2.4-3 1.5-2.8 1.2-2.4.7-1c1.6-2.3 4.7-6.7 3-8.2l-.2.3c1.5 1.2-1.6 5.7-3 7.8l-.7 1-1.3 2.4a17.4 17.4 0 0 1-1.4 2.7l-2.4 3q-2 2.2-3.7 4.7l.4-2a45 45 0 0 1 2.8-8.8l.1-.4 1-2.4c1.3-3.2 3-6.8 5.3-9a5.7 5.7 0 0 1 3.8-1.5h.7a6 6 0 0 1 3.7 3c1.9 3.6 0 6.4-2 9.3l-.4.5a34.7 34.7 0 0 1-7.7 8.3zm16.3-8.2c-1 2-2.2 4.2-3.9 5.2-2.3 1.4-4.1 1-6 .8l-3.2-.2a40 40 0 0 0 4.7-5.8l.4-.5 1.6-2.3a11.7 11.7 0 0 1 3.9-.4h2.4a9.3 9.3 0 0 0 2.3-.4 20.2 20.2 0 0 0-2.2 3.6zm19.2-4.5l-2.6.4a12.8 12.8 0 0 0-3.2.6c-1 .4-3-.2-4.6-.7l-2-.5a20 20 0 0 0 7.6-3.4 40.6 40.6 0 0 0 5.2-5l1.7-1.7a5.5 5.5 0 0 1 2.4-1.4 3.8 3.8 0 0 0 1.3-.4 13.1 13.1 0 0 0 3.2-2.5l1.2-1.3h.1c-1.3 5.5-6.2 14.6-10.3 15.9zm14.2-22a4.7 4.7 0 0 1-.3 1.7 9.7 9.7 0 0 1-3 3.4l-1 .8-1.1 1.3a11 11 0 0 1-3 2.4l-1.4.5a4.3 4.3 0 0 0-2.5 1.4l-1.7 1.8a30 30 0 0 1-5.2 4.8 19.6 19.6 0 0 1-8.2 3.6l-.7.2a39 39 0 0 1-5.4 1h-3.8a9 9 0 0 0 3.6-8.4c2.8-2.1 8-4 12.2-5.5l4.3-1.6a46.4 46.4 0 0 0 6.2-3.2l1.8-1.2a11.4 11.4 0 0 1 3.7-2v-.2c-1 0-2.5 1-3.9 2a22.2 22.2 0 0 1-3.1 1.9 31.7 31.7 0 0 1-4.9 2.4l-4.2 1.6-4.4 1.7c1.4-2.7 6.8-6.1 10-7.6l1.3-.6 2-1 1.4-.6a5.6 5.6 0 0 0 2.2-1l-.3-.2-2 1-1.4.6-3.3 1.5c-2.2 1-8.8 4.8-10.3 8h.1a35.3 35.3 0 0 0-7.5 3.7 8 8 0 0 0-.8-2.5l-.7-1 .5-.5a37.9 37.9 0 0 1 4.6-4.5 36.6 36.6 0 0 1 7.7-4l2.8-1.5.8-.4c4.7-2.5 9.4-5 15-4.3a10 10 0 0 1 4.7 2 7.3 7.3 0 0 0-.8 2.5z"/><path class="cls-2" d="M167.4 159.4v.2c2-.5 15-9.8 15.9-14a1.4 1.4 0 0 0-.4-1.4l-.2.2a1.3 1.3 0 0 1 .3 1.2c-.4 1.7-3 4.6-7.4 8.1a42 42 0 0 1-8.2 5.7zm-9.1 2h.2a69.6 69.6 0 0 0 1.7-7l1.2-5.4.4-3.5c0-2.6.2-5.3 2.2-6.8l-.1-.3c-2.2 1.7-2.3 4.4-2.4 7a12.5 12.5 0 0 1-.4 3.5 54.1 54.1 0 0 0-1.2 5.5l-1.6 7zm-93-78.9l2 .2a8.6 8.6 0 0 0-2 6.3 1.6 1.6 0 0 0 1.3 1.6l.9.2c2.3 0 2.6-3.6 2.7-5.9l.2.4c.7 1.8 1.8 4.4 3.4 4.4a1.6 1.6 0 0 0 1-.5 1.5 1.5 0 0 0 .8-1.3c0-1.5-1.5-3.3-2.5-4.4l1.6 1a5.3 5.3 0 0 0 3 1.5 1.8 1.8 0 0 0 1.3-.4 2.2 2.2 0 0 0 .7-1.7 2.1 2.1 0 0 0-1-1.3l1.8.3a3 3 0 0 0 2.7-1.5 2.5 2.5 0 0 0 .4-2.5 3.8 3.8 0 0 0-3.3-1.4 6.5 6.5 0 0 0-2 .4 2.3 2.3 0 0 0 .2-1 3 3 0 0 0-2.2-2 3.4 3.4 0 0 0-3.8 1.5A4 4 0 0 0 72 74a3.7 3.7 0 0 0-3-2 2.8 2.8 0 0 0-2.8 1.8 3.5 3.5 0 0 0 .5 3.3 4.7 4.7 0 0 0-1.7-.2 6.4 6.4 0 0 0-4 1.3 2.9 2.9 0 0 0-.7 1.8c0 2.2 3 2.4 5.1 2.6zm-4-4.2A5.3 5.3 0 0 1 65 77a4.8 4.8 0 0 1 2.2.5l.3.3.2-.2a2 2 0 0 0-.4-.3 3 3 0 0 1-.8-3.5 2.3 2.3 0 0 1 2.3-1.6h.3a4 4 0 0 1 2.6 1.8 3.5 3.5 0 0 1 .2 3.3v.1l.2.2v-.2c.9-1.6 2-2.5 3.3-2.5a1.2 1.2 0 0 1 .8.2 2.6 2.6 0 0 1 2 1.8 1.4 1.4 0 0 1-.6 1.4h-.2l.2.3a4.5 4.5 0 0 1 2.7-.8 3.3 3.3 0 0 1 3 1.3 2 2 0 0 1-.3 2.1 2.7 2.7 0 0 1-2.5 1.4 14.7 14.7 0 0 1-3.5-.8h-.2l-1.3-.4v.1l.8.3.4.2c1.6.5 2.5 1.2 2.7 2a1.9 1.9 0 0 1-.6 1.4 2.1 2.1 0 0 1-1 .4c-1 0-2-.7-3-1.4a10 10 0 0 0-2.1-1.3h-.5l.3.3.4.3c1 1 2.5 2.9 2.5 4.3a1.7 1.7 0 0 1-.6 1 1.6 1.6 0 0 1-1 .4c-1.4 0-2.5-2.6-3.2-4.2l-.4-1-.2-.4v1c-.2 2-.4 5.7-2.5 5.7h-.8a1.4 1.4 0 0 1-1-1.4 7.7 7.7 0 0 1 2-6.2l.2-.2h-.2a7 7 0 0 0-2.2-.4c-2.2-.2-5-.4-5-2.3a2.1 2.1 0 0 1 .8-1.6z"/></svg>