<svg xmlns="http://www.w3.org/2000/svg" width="214" height="272.2"><path d="M125.5 243.7l-3.1-8.4c-2.4-6.3-1-11.7 4-16.9l9.8 12.3 1.3-.4-1.2-24.6h-23.5l-.7-1.5 5.2-6.3c5.4 8.9 13.4 5.7 20.6 6 2-9.8 9.5-13.7 17-17.6 3.8-2 7.8-1.7 10 1.5 1.4 2.2.5 6-.2 9.3-3.2-4.4-7-6.5-11.7-5.2-2.9.9-5.2 3.4-8.8 5.8 9.1 8 16.9 15.3 25 22 3.9 3 5.6 6.3 3 10.1-4.5 7-9 14.2-14.8 19.8-7.4 7-15 6.5-23.7.8-1-.7-2-1.4-3-1.3-4.2-.8-8.7-.9-12.6-2.4-2.3-1-4.3-3.8-5.5-6.3-1.8-3.6-2.7-7.7-5-11.6-.4 3.4-1 6.9-1.3 10.4l-1 11-17.6 8.6.3 1.2 21.3-3.6c7-1.1 14-2.4 21.1-3 5.3-.6 9.6 2 14 6.7l-4.2 12-1.4-.5.6-5.2c-5.7-4.1-12.2-4.2-18.8-3.3a1541 1541 0 0 0-39.9 6.3c-3.7.6-6.5 0-8.9-4.1l5.7-11.6 2.3 5.6 23.4-10.4 1-19.3c-4.3 4.4-7.8 8-11.4 11.4-6 5.9-8.8 6.4-15.3 2.5-6.7 4.8-13.9 5.9-20.5-.5-5.4-5.2-6-11.3-1.7-18l-4.5-2.7-2.2 27.2L27 261.1l.1.7c2.9-.8 5.8-1.8 8.7-2.3 7.3-1.5 14.6-3 22-3.9 3.3-.4 7.6-.2 9 3.9 1.5 4.5.3 8.8-4 12.7l-.6-5c-8.2-4.4-16-.8-23.9.7-4.4 1-8.6 3-13 3.3-3 .3-7-.8-8.8-2.8-2.5-2.7-1.8-6.8.6-10.3l4.5 1.7 20.9-8.8v-25.3l-8.1 4c-2.5 8.4 5 18.4-5 24-3.3-6.8-6.3-13-9.4-19-.7-1.3-1.8-2.5-3-3.4-6.3-4.7-6.7-6.5-3.6-13l11.7 4.6c2.8-9.2-3.6-19 6-25.8l-10.7.8 4.2-7.4-.5-3.7-17.1 7c-5.2-3.6-5.5-7.7-4.4-11.9.3-1 2-1.8 3.4-3 1.4 8.5 6.5 9.6 18.2 4.7l-.8-4.7c-2.5.2-4.8.6-7 .6s-4.5-.3-7.7-.6l1-13 3.8 2.6 6.8-4v-12.7l-10.1 8.8-1.1-1c1.8-1.8 3.5-3.7 5.5-5.3 4.3-3.5 7.3-7.5 6.9-13.5-.4-6.1 0-12.2 0-19l-8.8 2-.4-3.7L32 118 29 140.4l11.6-9 .9 1-12.7 10.9-1.5 18.7 16.5-8.2 1.6-27.5 5.5-4.1-.2-1-14.2 1-.4-1.4 15.2-7.8-12.9 1.1c1.2-10 21.5-20 33.2-17 1.7 4.4-.2 8.9-5.3 12l1.9-4.6c-6-2-18.2.8-25.1 6l18.2-2.5.8 2-15.5 8 10.6 1.5-2 3.2 4.6 30.7-3.9 5 9.2-1.6c0-10.5.3-20.6 0-30.6-.2-5.7 2.4-9.8 6-13.7a26.8 26.8 0 0 1 32.6-5.5l-10.1 9.6-1-.8 1-3.1c-5.8-3.2-14.7-2.8-19.3 1.3a7.9 7.9 0 0 0-2.4 5.1c-.3 9.5-.2 19-.2 29l3.1 3.2-5.7 6.5-20.5 4.2-.4-1 6.8-5-1.8-14.5H52l.4 9-24.8 14.7c-.3.2 0 1.5 0 3.4 7.4-1.3 14.6-2.5 21.7-3.9 8.6-1.6 17.2-2.5 26.2 3L73 179.3l-1.5-.1-.7-3.9c-14.5-6.1-28.4-1.1-42.7 2l-1.2 5.9L37 185l.7 6.2c-4.5 1-8.3 1.7-12.2 2.4l.3 1.2 7.8-.9v26.7l9-3.5v-25.3c.1-3.5.1-7 .7-10.5.9-4.8 5.4-7.7 8.6-6.7-2.8 13-2.3 26-1.7 39l5 1.2 2.6 5.3 13-10.2-10.9-1.2-.5-1.4 10.2-7.2-7.2-2.6-6.4-2.8c-1.7-6.9 4-14.1 11.8-15.3l-5.5 5.2c5.6 7 14.7 5.4 21.3 10-2.3 6-8.7 6-14 9.8h10.9l.6 1.2c-1.3 1.4-2.6 3-4.1 4.1-4.2 3.3-9 6-12.6 9.8-2.4 2.5-4.8 6.7-4.2 9.7.8 4.8 5.6 6.3 10.8 6.9 0-12 9.2-15.6 17.7-20l-8-4c4-8 9.3-14.2 16.7-17.8 2.2-1.1 5.8.6 9 1l8.6 25.3c2 6 4 12 6.4 17.8.8 2 2.9 3.4 4.3 5.1l.1.2h-.2zm-98.8-5.1l-.1.2v-.2-6.8h-5.5l5.6 6.8zm102.9-14.2a18.8 18.8 0 0 0 11.6 18.5c5.9-1 8.2-5.5 10-10.6 1.8 6.2-3.1 9-6.6 12.8 8.9 1.9 19-3.8 23.8-13.2L145 210.4l-1.4.8c.3 6.1.4 12.2 1 18.3.3 4.7-1.4 8-5.2 10.4-3-5-6-9.7-9.7-15.5zm-43.7 11.1c6 4.6 8.2 3 20.6-15.6l-3.6-9.7L75.7 226l6.5 8.2 7.3-9 1 .4-4.6 9.9zm15.3-27.7l.8-2.2-8.4-7.4-6 9 .8 1.6 12.8-1zm-73.6-22.1l-.7 5.6 7.6-2.9-.1-1.4-6.8-1.3zm-7.2-17l-.5-.7-1.4 1 .4.6 1.5-.9zM95.7 47.6C88.4 41.4 86 35 88.4 29.3c4.8-11 13.6-17.4 22.7-16.4 4.1.5 6.9 4.1 5.3 8.4-1.8 5-4.7 9.6-7 14.3l5.9 2.4-6.6 2.5v38.6l9.9-4.7V44.1c-.1-5.3-.4-10.6 6.4-12.9l-.7-1-7-.9-.2-.8 10.5-4.4-7.6-5.2C125.7 10.6 131.4 3 141.4.3a7 7 0 0 1 7.8 2.8c-4.1.8-8.8.8-12.6 2.5-4 1.9-7.2 5.5-10.8 8.4l6.1 9.6-5.2 3.4 6.7 1.7-6.4 3c-.4 8.6-1.8 17.7-1 26.7 1 10.6-2.6 16.9-12.3 20.3-1.7.6-3.2 1.7-5.2 2.8l.5 5.5 24-12V35.6l6.4-4.3-6.6-2.3 9.4-4.5-6.3-2.9a16.9 16.9 0 0 1 15.6-12.8L154 13c-7-2.2-11.6 0-15 6.8l12.6 2.2.6 1.6-10.9 4.4 6 1.8L142 34c0 10.6.2 21.7-.1 32.8-.1 2.4-1.8 5.5-3.7 6.7-5.6 3.6-11.7 6.4-17.5 9.6l-5.4 2.7 43.1-8.5c-2.2-2.4-4.8-5-7.2-7.9-10.4-12.1-8.2-21.5 5.4-29.7l2.7-1.5-4.9-4.6 6.2-3.8c-8-8-7.9-10.7 0-17 1.1 2.6 1.6 6 3.5 7.8 1.9 2 5.2 2.5 9.5 4.2-2.5 2-4.1 3.7-6.1 4.9-2 1.3-4.4 2-6.5 4L169 35c-1.9 1.8-2.9 3-4.2 4-3 2.3-6.4 4.2-9.3 6.7-3 2.6-4.5 6.2-1.7 9.7 4.8 5.9 10 11.5 15.2 17 1 1 3 1 4.2 1.4 4.3-3.5 5.8-8.2 4.1-11.7-1.8-4-5.7-5.6-11.3-4.6-4.7-5.3-1.6-14.6 4.2-18.9l-1.5 9.4 16.7-1.4c-.9-11.7 2-22.2-1.8-33.1l-5.6 3.1c0-5.8 5.6-10 12.5-8.7 5.4 11 1 23.2 2.5 35.1l16-2c4.8 4 6.6 13.6 3.8 19.3-.8 1.6-2.7 2.6-4.9 3.3 4-2.3 4.4-5.5 3-9-1.6-3.8-4.9-5-8.7-4.5-3.4.5-6.7 1.5-10.3 2.4-1.1 24-1.5 47.7-7.4 70V56.2l-4.2 1c4 11.8-2.7 18.5-11.6 24.2l2.9 3.8c.5 8.3-3.8 13.8-10.8 13l4.4-3c1.5-4.3-1.7-6.4-4.8-7-5.5-1.2-11.3-2.4-16.7-1.6-11.2 1.8-22.2 4.9-34.2 7.6l2.6 5.7 4.7-1.4.6.7-8.6 9.3-7.6-11c-4.8-.2-10.7 1.8-15.6-4l4.2-7 11.8-3.2V43.5h1.3c1.6-1.5 3.2-2.9 5.8-5h-8l-.2-1c2.3-1.5 5-2.6 7-4.4 2-1.8 3.5-4.2 5.1-6-4.2-6-13.4-6.2-18.6-1.4-5.5 5.3-5.8 10.8-1 16.9 1.1 1.5 1.8 3.3 2.7 5h.1zm5.8 37l-6.8 3.6.4 1.3 5.3.3 1.1-5.2z"/><path d="M117.5 118l11.3-7-.3-1.4-10.9-1.2c-.1-1-.5-1.5-.3-1.9 5.4-12 17.5-21.3 31.1-13.5 3 1.7 4 4.2 2.6 7.1-1.5 3-3.7 5.6-5.5 8.4l-1.2-.7 1-4a17.1 17.1 0 0 0-26.5 3.2h7.6l8-.3c.1 8.2-8.7 5.7-11.2 10.4 4.3 1.6 3 5.2 2.7 8.5l-.5 11c3.4-.6 6.3-1.1 9.4-1.8v-16c2.5-1.2 5-2.4 8.3-4.2l1 18.3 6.2 4.4 7.7-9.6h-10.3l-.7-1.3c4-2.8 8-5.6 12-8.6l-9.9-5.6c1.6-6 6.2-8.4 10.6-10.2 2.1-.9 5.2.5 7.9.9l-.2 1.7H158l-.4 2 18 7.3c-3 5-8.6 4.4-13 7l6 2.5-10.7 10c-.8 13.8 7.5 26.6 18.2 25.9 4.9-6 5.3-10.7 1.4-16.1l-.6 1.2c-3.9-2-8.4-3.4-11.3-6.4-1.3-1.3.8-5.8 1.1-7.7 4.5.6 7.5 1.3 10.5 1.3 3.3-.1 6.6-1 9.9-1.5 7.3-1.2 9.9 1.7 7.8 9-.3 1.2-1 2.3-2 4.7l-.7-6.4-12.4 4.3c4 9.2 1 16.5-4.8 23-3.8 4.2-8 5-12.3 1.4-4.7-4-8.3-9-12.3-13.6l-4 4.3c.4-3.5 1.1-6.4 1-9.4 0-.7-2.4-1.4-4.8-2.8 0 6.8-.3 12.4 0 18 .7 8-3.3 12.7-9.8 16.2a20.7 20.7 0 0 0-6.4 4.7c8-3 16-6.2 24.3-8.6 6-1.7 12.3-2.6 18.6-3 2.8-.1 5.7 1.9 8 2.8 1.6 7.7.3 13.6-4.5 19-.4-.7-.8-1-.7-1.2 3.6-7.5 2-11.2-6.5-11.1a74 74 0 0 0-19.4 3.4c-6.4 1.8-12.4 4.9-18.6 7-3 1.1-6.2 1.8-9.3 2.1-4.7.5-8.1-1.2-9-6.8l2.7-4.5c3.7 0 6.5.5 9 0 3-.9 6-2.3 8.6-4 1.8-1 4-3 4.2-4.6 1-9.8 1.4-19.8 2.2-30.8l-12 3.2v22.8c0 5.1-3.4 7.9-6.7 7.2l-11-17.8-1.7.7v34.2l-7.5-8V155H82.7c-2.3-6.5-2-7.8 2.7-13l2.6 4.4h8.3l1.2-9.8 6.4-5.3-8.5-1.4 13-8.3c-10.5 1-17.8 10.7-28 6.3-2.8-5.8-1.1-9.5 6.6-13.2l-3 6.2c3.4 0 6.3.5 8.9 0 4.8-1.2 9.5-3.2 14.3-4.4 2-.5 4.3 0 6.8 0-.3 6.8-6.6 7-9.7 10.5l4.6 3.7c-5.6 3.4-5.8 8-4.3 14l12.9-4V118zm-13.8 36l12.1 14.3 1.3-18.5c-2.6.6-4.2.9-5.7 1.4l-7.7 2.8zM11.2 68.5l21.6 5.1L34 63c-4.7-4.8-8.1.2-12.4-.6l13-7.7v-7.3l5.4-3.2a36.3 36.3 0 0 0-20.6 5.4c-4 2.3-7.9.4-8.2-3.6a7 7 0 0 1 1-4.3c1.4-2 3.4-3.8 5.1-5.6l1 .7-2 5.3 30.2-1.6-4.8 6L42 52l13.6-8.3-34.2-15.5C21.2 18.1 29 10 35 11.7l-8.4 6c5.3 2.9 9 5 12.7 6.8C44.1 27 49 29 53.8 31.3c7.3 3.6 8 9.3 1.7 14.3-4.2 3.4-9 6.2-13.8 9.5-.5 4-3 8.4 2.2 12.2l6-15.8c4.8-2.4 8.4-1.2 11.3 1.5 7.7 6.8 10.6 14 3.4 22.6-8.2 9.7-16.9 17.5-30 19-7.9.8-15.3-.4-21.4-5.9-7-6.3-7.6-10.6-2-20.2zm2 2.9c.3 5.9 6.6 11.6 15.2 13.9C39.4 88 56 81.6 61.6 72c-2-6.8-7-11.7-12.8-12.2l-4.3 11.7-3-2.5-8.2 12.1c-6.6-5.3-11.8-10.7-20-9.8zm20.9-12.7l-.8-.4-.2.3c0 .2.2.4.4.6l.6-.5z"/><path d="M95.6 47.6c4 3.7 3.8 8.6 2.9 13a98.4 98.4 0 0 1-5.6 17C88 89.5 78 92.5 66.4 92.3c-2.7 0-5.4-.5-8.7-.8l2-8.4.9.8c4.5-3 9.3-5.5 13.4-9 2-1.7 3.4-5 3.3-7.6-.4-10.7-1.4-21.5-2.2-32.8l3-3.5c-3.6.5-6.7 1.5-9.7 1.2-2.2-.1-5.4-1.6-6-3.2-.7-2 0-5.6 1.6-7 3-2.6 7-4.4 10.7-6 1.3-.5 3.4.7 5 1.5-7.7.6-10 1.6-13.3 7.5l22 1.4-5.3 6 2.2 37L68 82c8.9 4.1 21.8-2.3 26-12.1 3.2-7.3 4-14.6 1.7-22.2zM7.6 90.5l-2.5 7c11.7 4.7 22.8-3.2 34.4.6l.8 4.2-13.2 4.6 2.3 7-1.4.4-1.4-3.1-7.2-1.5-.4-1.8 16.5-6c-5.6-2.5-10.1-.8-14.6.2-4.7 1-9.3 2.6-14 3.3-2 .2-5.3-.5-6.1-1.8-1-1.8-1-5 0-7C2 94 4.4 92 6.4 89.6l1.1 1zM88.3 193.3C86.7 185.6 84 180 77 177.7l7.7-9.4 8 7.4-4.3 17.6zM168.7 1.6l4.7 7.8-3.7 9.3-5.9-8 4.9-9.1zM17.3 197.3l5.7 6.5-2.5 11.4-6.4-10 3.2-7.9zM175.7 217.6c7.2 8.3 13.3 17.3 18 28.6l-6-1.1c.5-9.6-6-15.7-9.9-23l-2.3-4.3.2-.2z"/><path d="M175.5 217.8l-9.7-11.8 1.5-1 8.4 12.6-.2.2zM66.4 44.3c-.5-.3-.3-.2 0 0-.3.1-.6.2 0 0z"/></svg>