<?xml version="1.0" encoding="utf-8"?>
<!-- Generator: Adobe Illustrator 19.2.0, SVG Export Plug-In . SVG Version: 6.00 Build 0)  -->
<svg version="1.1" id="Camada_1" xmlns="http://www.w3.org/2000/svg" xmlns:xlink="http://www.w3.org/1999/xlink" x="0px" y="0px"
	 viewBox="0 0 195.6 303" style="enable-background:new 0 0 195.6 303;" xml:space="preserve">
<style type="text/css">
	.st0{fill:none;}
</style>
<path class="st0" d="M157.1,76.6c0.7-0.2,1.3-0.6,1.8-1.1c2-2.3,2.6-7.1,2.2-10.9c-0.3-3-3.4-11.5-4.7-15
	c-2.6,5.6-7.4,16.8-7.4,19.7c0,3.5,2.4,7.3,6.7,7.4v-0.2c-0.1-2-0.3-4.9-1.2-6l1.1-0.8c1.1,1.4,1.3,4.4,1.5,6.7L157.1,76.6
	L157.1,76.6z M102.9,190.4l-1.6-2c-0.2,0.4-0.6,0.8-1,1.2l-0.6,0.8H102.9z M147.7,131.7c1.3-0.6,2.7-1.2,4.3-1.3v1.4
	c-1.3,0-2.5,0.6-3.7,1.2l-1.4,0.6l-0.4,0.2c0.5,0.8,1.2,1.5,2,2c0.9,0.6,2,1,3.3,1c2.5,0,4.9-1.4,6.1-3.6c1-1.7,4-4.8,5.8-6.6
	c-5.4,0.5-15.3,2-17,4.7c-0.3,0.4-0.4,0.7-0.5,1.1h0.2L147.7,131.7L147.7,131.7z M98.8,188.2l1-1.2l0.1-0.3l0.1-0.1v-0.1l-1.2-1.6
	l-2.3,3l-2,2.5H97c0.4-0.8,1-1.5,1.7-2.2L98.8,188.2z M169.7,77.3l0.2-0.8c0.2-1.6,0.5-3.3,0.3-4.7l1.4-0.2c0.2,1.6,0,3.5-0.4,5.1
	v0.8c-0.2,1.1-0.5,2.1-0.9,3c4.4-0.4,8.2-5.8,8.8-12.6c0.2-3-1.2-10.9-1.8-14c-3,3.2-12,13.3-12.7,19c-0.3,2.6,0.2,5,1.4,6.2
	c0.7,0.8,1.7,1.3,2.8,1.4c0.4-1,0.8-2,1-3.2L169.7,77.3z M67.8,82.2c-1.9-2-7-7.7-8.1-9.1l-0.8-0.7c2.7,3.2,5.5,6.3,8.4,9.4
	C67.3,81.8,67.8,82.2,67.8,82.2z M49.5,60.2L49.3,60c0.3,0.3,0.5,0.6,0.8,0.9l0.2,0.1C50,60.7,49.8,60.5,49.5,60.2z M60.7,71
	l-0.8-0.7c0.3,0.3,0.5,0.5,0.8,0.8c0-0.4,0-0.8,0-1.2V71L60.7,71z M99.2,267.8l-13.9-40.2h-11l23.9,69.3l28.4-69h-11L99.2,267.8z
	 M176.5,104.2c1.3,0,2.5-0.9,2.5-1.8s-1.2-1.9-2.5-1.9c-1.4,0-2.5,0.9-2.5,1.9S175.1,104.2,176.5,104.2z M148.7,92.7
	c0-1.3-1.2-2.4-2.8-2.4c-1.5,0-2.8,1-2.8,2.4s1.3,2.5,2.8,2.5C147.5,95.2,148.7,94.1,148.7,92.7z M178.1,86.6
	c-0.5,0.7-0.7,1.5-0.8,2.3l1.9-1c1.2-0.6,2.5-1.3,3.7-1.9l0.6,1.3l-3.6,1.9l-2.3,1.2c0.2,0.5,0.5,0.9,1,1.2c0.8,0.5,1.7,0.7,2.6,0.7
	c2.5,0,4.8-1.6,6.4-4.1c1-1.6,3-3.7,4.4-5C186.1,83.3,179.6,84.2,178.1,86.6L178.1,86.6z M138,126.4l-0.9,0.8l-0.2-1.1
	c-0.6-2.5-1.5-4.5-2.9-6.3c0.8,2.7,1,5.7,0.6,7.6c-0.7,4.3-3,8-5.4,11.5c-0.8,1.3-1.7,2.6-2.4,4l-4.4,7.4l-4.7,8.1
	c-3,5.2-7.2,11.5-13.5,19.6l1,1.8l2.6-4.3c1.6-2.9,3.5-5.6,5.5-8.2c1.3-1.7,2.6-3.5,3.7-5.3c0.5-0.7,0.8-1.4,1.2-2.2l1.8-3
	c0.6-0.8,1-1.8,1.5-2.8l1-1.8l1.8-3.3c0.8-1.5,1.7-3,2.4-4.6c1.1-2.1,2.6-4,4.1-5.7l1.2-1.5l2-2.4c1.8-2,3.5-4,4.8-6.3l2-5
	C139.9,124.5,139,125.5,138,126.4L138,126.4z"/>
<path class="st0" d="M99.4,261.8l28.4-69l-52.4-0.4L99.4,261.8z M103.6,181.5c-0.4-1-1-2-1.6-3l1-0.6l-1,0.6l-0.8-1.5
	c-1.7-2.9-3.5-6-4.4-9.2l-1.7-6.2c-2.2-7.7-4.6-15.8-5.3-23.8c-1.1-10.6,1.3-21.2,6.7-30.4l2.9-4.7c1.8-2.8,3.6-5.8,5-8.8
	c1.7-3.7,1-8-0.2-11.8c-0.1,6.5-2,12.7-5.5,18.2c-1.7,2.8-3.1,5.7-4.3,8.7l-0.2,0.4l-1,2.8c-0.7,2.4-1.4,4.8-3,6.5l-0.3,0.4
	l-0.6-0.1c-3.6-0.6-4.2-6.7-4.7-10.2l-0.1-1.4c-0.7-4.3-1-7.8-1.2-10.7l-0.5-4.3c-1-2-3.3-3.7-5.4-5.3l-2.7-2l-0.6-0.6l-0.4,0.3
	c0.7,0.6,1.5,1.3,2.2,2l0.9,0.9c0.8,0.8,1.6,1.7,2.3,2.6l0.4,0.5c0,0.2,0.2,0.3,0.3,0.5l0.5,0.8l0.4,0.6l0.2,0.4l0.8,1.6l0.1,0.4
	l0.3,0.8l0.2,0.8v0.5h0.1v0.7l0.1,0.3v0.5c0.2,2.5,0.4,5.8-1.4,7c-1,0.7-2,0.7-3.4,0.1c-0.7-0.2-1.3-0.5-2-0.8l1.6,1
	c2.5,1.5,5.2,3,6,6.4c1.7,6.4,2.3,13,3,19.6v1l0.7,5l0.6,5.2l0.4,2.2c0.5,2.8,1.1,6.1-2.1,8.1c-3.4,1.7-7.3,2.2-11,1.4
	c-2.6-0.7-5.3-3.5-7.6-6l-2.5-2.8c0.5,1.6,0.7,3.3,0.5,5v0.4c0,1.3-0.2,1.7-1.4,2.3c-0.9,0.3-1.5,0.5-2.3,0.5h-0.2L59,154l-1.4-0.2
	l-1-0.1c1.6,0.4,3.3,0.7,5,0.9c1.4,0.2,2.9,0.3,4.2,0.7c9.3,2.2,19.5,5.2,24.6,12.4c1.2,1.6,2,3.4,3,5c1,2,2,4,3.4,5.7l3,4l2,2.8
	l0.4,0.6l3.4,4.6h4.7c-2.4-2.2-4.5-5-6.3-8.3l-0.4-0.7L103.6,181.5z"/>
<path d="M193.9,81.8h-1c-4,0-13.7,0.4-16,4c-0.8,1.1-1.1,2.5-1,3.9l-1.1,0.5c-3,1.5-6.3,2.4-9.7,2.5l1-2.7c0.3-1,0.6-2,1-2.8l1.5-3
	l1-2.2c5.5,0,10.2-6,10.8-14c0.4-4-2-15.3-2-15.7L178,51l-1,0.9c-0.5,0.6-13.2,13.6-14,20.9c-0.3,3,0.4,5.7,1.8,7.3
	c0.9,1,2,1.5,3.2,1.8l-0.8,1.6c-1,1.9-1.9,3.9-2.6,6c-0.7,2.1-1.4,4.2-2.5,5.8l-0.3,0.4c-0.8,1.2-1.7,2.6-2.6,3.5
	c-1.2,1.3-2.6,2.6-4,3.7l-0.3,0.3c0.1-1.4,0.5-3.2,0.9-4.9l0.8-4.6l0.2-2.3l0.5-6.6c0.2-2.3,0-4.6-0.2-6.8c1-0.2,1.9-0.7,2.7-1.6
	c2.5-2.7,3-8.1,2.5-12c-0.4-4-5.1-16.4-5.3-16.9l-0.6-1.6l-0.7,1.6c-0.3,0.7-8.3,17.7-8.3,21.8c0,4.2,3,8.7,8.3,8.9
	c0.2,2.2,0.3,4.3,0.2,6.5c0,2.2-0.3,4.4-0.5,6.5l-0.3,2.4c0,1-0.4,2.7-0.7,4.4c-0.5,2.5-1,5-1,6.4c-2.6,2-6.4,4.3-8.6,4.6l0.3-3
	l0.2-2l0.3-2.6l0.5-4.1c2.5-0.2,4.6-2.2,4.6-4.6c0-2.5-2.2-4.6-5-4.6c-2.6,0-4.9,2-4.9,4.6c0,2.2,1.7,4,3.9,4.5
	c-0.1,1.3-0.3,2.7-0.5,4l-0.3,2.7l-0.2,2l-0.7,6.4l-0.2,1.2c-0.5,4.1-2.2,7.9-5,11c-1-3.6-3-6.5-6.2-9.1c-0.4-0.5-0.9-0.9-1.4-1.1
	l-0.6,1l-0.1,0.2l-0.3,0.6c2.6,1.5,3.7,7.7,3.1,11c-0.6,3.8-2.7,7.1-5,10.6l-2.5,4l-4.4,7.6l-4.7,8c-2.8,5-6.9,11-12.8,18.7
	c-1.6-2.9-3.3-5.8-4.2-8.8L97,161c-2.2-7.6-4.5-15.6-5.2-23.4c-1.3-12,1.9-24.1,9.2-33.8c1.8-2.9,3.7-5.9,5.2-9c2.1-4.8,1-10-0.6-15
	c-0.7-2-1.3-4.5-1.8-7.1c-0.2-2.3-0.2-4.6,0.2-6.5c0.8-3.8,4-7.5,7-10.6l-1.5-1.5c-3,2.8-5.4,6.2-7.1,10c-0.7-6-0.9-12-0.2-17
	l-2-0.3c-0.9,8.8-0.4,17.6,1.5,26.2v1.6l0.3,4.3c0.4,7.1-1.5,14.2-5.3,20.3c-1.8,2.9-3.1,6-4.4,9l-0.2,0.4l-1,3
	c-0.6,1.8-1.2,3.8-2.1,5c-1.6-1-2.2-6-2.4-8l-0.2-1.5c-0.6-4.2-1-7.7-1.2-10.6c-0.1-2-0.3-3.5-0.5-4.7v-0.2
	c-1.5-2.5-3.7-4.7-6.2-6.2l-2.6-2l-0.4-0.3c-1.8-1.6-4.6-3.8-8.3-6.6c-1.8-1.4-3.6-2.8-5.3-4.2c0.3-8.9-0.3-19.5-1.3-27.4l-0.3-2.3
	L60,40.4l-0.4-3.5c1-1.6,1.9-5.3,2-6.4V28c0.2-3.8,0.7-7.5,1.4-11.2l-1.4-0.4c-0.3,1.2-1,7-1.2,8.7v2.8l-0.2,2.6
	c0,0.5-0.4,2.2-0.9,3.7c-0.6-7.5-3.2-14.7-7.5-20.8l-1.2-1.8l-3.1-5.2l-3.7-5.9c-0.1-0.2-0.3-0.4-0.5-0.4L42.7,0l-0.3,0.9l0.1,0.2
	v0.1l3.8,6l3.1,5.2l1.2,1.8c1.9,3,3.7,5.7,4.8,9c1.7,5.7,2.8,11.6,3.3,17.6h0.2v0.5l0.2,1.2H59c0,0.9,0.2,1.7,0.3,2.6
	c1,8.6,1.5,17.3,1.3,26c-2.9-2.5-5.6-5.1-8.1-8c-0.7-0.7-1.4-1.4-2.2-2l-0.2-0.2c-1.5-1.4-3-2.9-4.3-4.5l-3.4-3.8L41,51l-0.9-0.9
	l-0.3-0.3c-4.9-5.6-11.4-13-12.7-15l-1.8,1c1.5,2.5,9.1,11,14.4,17l1,1.2l3.5,3.8c1.4,1.6,2.9,3.2,4.5,4.6l0.2,0.2
	c2.1,1.9,4.1,4,6,6.2l4,3.6l0.7,0.7c2.8,3.3,5.7,6.5,8.7,9.7l2.7,2.4l0.2,0.3l0.7,0.5c4,3.6,8.2,7.7,8.5,13c0,1.4,0.2,4.4-0.6,5
	c-0.3,0.2-1,0-1.3-0.1l-3.8-1.9c-2.5-1.2-5.1-2.5-7-3h-0.2l-11.1,1.2l1.5,0.2c-0.6,0.3-1,1-1,1.8c0,1.2,1,2.1,2.1,2.1s2.1-1,2.1-2.1
	c0-0.6-0.2-1.2-0.7-1.6l5.7,0.6c1.5,0.2,3.9,2,5.8,3.6l2.6,2l1.6,1c2.4,1.4,4.5,2.6,5.1,5.2c1.6,6.1,2.3,12.8,2.9,19.2l0.1,1
	l0.6,5.2l0.7,5l0.3,2.4c0.6,2.9,0.8,4.7-1,5.9c-2.9,1.4-6.2,1.7-9.4,1.1c-2.2-0.5-5.2-3.8-6.6-5.4l-2.8-3c-2-2.3-4-4.7-6.2-6.8
	l-0.3-0.3c-1.2-1.2-2.5-2.3-3.8-3.3l-1.3,1.7c1.3,1,2.6,2.2,3.9,3.4c1,1.3,2.7,3.8,3.4,5.2c1.1,2.1,1.5,4.4,1.3,6.7v0.7l-0.2,0.1
	c-0.5,0.3-1,0.4-1.5,0.4l-2.2-0.3l-1.5-0.1c-1-0.1-2-0.4-2.9-1c-1.3-0.7-2.1-1.2-3-2.2l-1.3-1l-0.4-0.4l-0.5-0.4l-1.3-1v0.1
	l-0.7-0.6c-1.1-0.8-2-1-2.8-1.2l-1.5-0.4c-1-0.5-1.9-1.2-2.8-2c-1.5-1.4-3.4-2.3-5.4-2.7l-0.3,2c1.7,0.3,3,1.4,4.4,2.5
	c1,0.8,2,1.6,3.2,2.2c0.6,0.3,1.3,0.5,2,0.6c0.7,0.2,1.3,0.3,2,0.8l1.7,1.8l1,1.3l0.9,1c1.6,1.8,3.5,3.9,5.9,4.6
	c1.7,0.6,3.6,0.8,5.5,1l4,0.7c8.8,2.2,18.7,5,23.3,11.6l2.9,4.9c1,2,2.1,4,3.5,6l2.5,3.2l-2.7,3.4l-3,3.9l-19.5-0.2l12.2,35.3
	l-13.3-0.1L98,303l31.7-77.2h-13.2l14.4-35.2h-17.4L113,190c-2.8-2.2-5.1-5-6.8-8.2l3.4-5.3c1.6-2.8,3.4-5.5,5.3-8
	c1.3-1.7,2.7-3.5,3.9-5.3l1.3-2.4c0.5-1,1-1.9,1.6-2.7c0.7-1,1.2-2.1,1.7-3.2c0.7-1.7,1.6-3.4,2.6-5l2.6-4.6l1.4-2.3
	c3.1-0.8,6-2.5,8.3-4.8c1-1,1.8-1.8,3.2-2.5l3-1.2l0.6-0.2c0.4,1,1.3,2,2.6,2.8c4,2.2,9,0.8,11.3-3.1c2.1-2.8,4.5-5.4,7-7.8l1.4-1.3
	h-2c-1.7,0.2-17.4,1.4-20.1,5.7c-0.5,0.7-0.7,1.5-0.7,2.3l-0.7,0.3l-3.1,1.2c-1.7,0.8-2.6,1.8-3.6,2.8l-1.2,1.1
	c-0.9,0.9-3,2.2-4.7,2.9l1-1.3l1.2-1.5l2-2.4c1.9-2,3.5-4.2,5-6.5c2.5-5.4,4-11.1,4.5-17v-2c3.3-0.2,9-4.4,11.2-6.6l1.7-1.5l2.3-2.2
	c1-1,2-2.4,2.8-3.7l0.3-0.4l0.9-1.5c0.7,1,2.1,1.8,3.4,2.6l0.8,0.6l2.3,1.3l2.3,1.5c-0.4,0.5-0.6,1-0.6,1.8c0,1.7,1.8,3.2,4,3.2
	c2,0,3.8-1.5,3.8-3.2c0-1.8-1.7-3.3-3.9-3.3c-0.8,0-1.5,0.2-2.1,0.5c-0.9-0.7-1.9-1.2-2.8-1.7c-0.8-0.4-1.5-0.8-2.2-1.3l-0.9-0.6
	l-2.6-1.8c3.2,0,8.4-2,9.6-2.7l0.9-0.4c0.3,0.7,0.8,1.3,1.5,1.7c1,0.6,2.1,0.9,3.3,0.9c3,0,5.8-1.8,7.6-4.8c1.4-2.2,5.6-5.8,5.6-5.8
	l1.4-1.2h-1.8L193.9,81.8z M165.9,79.2c-1.1-1.4-1.6-3.7-1.4-6.3c0.7-5.7,9.7-15.8,12.7-19c0.6,3.1,2,11,1.8,14
	c-0.6,6.9-4.4,12.3-8.8,12.7l0.9-3v-0.9c0.4-1.6,0.6-3.5,0.4-5l-1.4,0.1c0.2,1.4,0,3.1-0.3,4.7l-0.1,0.8c-0.2,1.2-0.5,2.2-1,3.3
	C167.6,80.4,166.7,79.9,165.9,79.2L165.9,79.2z M155.6,69.7l-1.2,0.9c0.9,1,1,4,1.2,5.9v0.2c-4.3-0.1-6.6-3.9-6.6-7.4
	c0-2.9,4.8-14,7.4-19.7c1.3,3.5,4.3,12,4.6,15c0.4,3.8-0.1,8.6-2.2,10.9c-0.5,0.5-1,0.9-1.7,1.1v-0.2
	C156.9,74.1,156.7,71.1,155.6,69.7z M146.6,131.3c1.7-2.7,11.6-4.2,17-4.7c-2.1,2-4,4.2-5.7,6.6c-1.9,3.4-6.1,4.6-9.5,2.7
	c-0.8-0.5-1.5-1.2-2-2l0.5-0.3l1.4-0.6c1.2-0.6,2.4-1.1,3.7-1.2v-1.4c-1.7,0-3,0.7-4.3,1.3l-1.4,0.6l-0.1,0.1c0-0.4,0.2-0.7,0.4-1
	L146.6,131.3z M96.4,187.8l2.4-3l1.1,1.7v0.2l-0.2,0.3l-1,1.2c-0.6,0.7-1.2,1.4-1.6,2.2h-2.7L96.4,187.8L96.4,187.8z M100.4,189.6
	l0.9-1.2l1.5,2h-3.2L100.4,189.6L100.4,189.6z M126.6,227.9L98,297l-24-69.3h11.2L99,267.8l16.5-40L126.6,227.9L126.6,227.9z
	 M127.7,192.7l-28.4,69l-24-69.3L127.7,192.7z M110.3,190.5h-4.8c-1.1-1.5-2.2-3-3.3-4.6l-0.5-0.6l-2-2.8l-3-4
	c-1.3-1.8-2.4-3.6-3.4-5.6c-0.9-1.7-1.8-3.5-3-5.1c-5-7.2-15.3-10.2-24.5-12.4c-1.4-0.4-2.8-0.5-4.2-0.7c-1.3-0.2-2.7-0.4-4-0.8
	c1.3,0.3,2.7,0.4,4,0.4c0.7,0,1.4-0.2,2.2-0.5c1.2-0.6,1.4-1,1.5-2.3V151c0.1-1.6-0.1-3.3-0.5-4.9l2.4,2.8c2.3,2.5,5,5.3,7.6,6
	c3.7,0.8,7.6,0.3,11-1.4c3.3-2,2.6-5.3,2.1-8l-0.3-2.3l-0.7-5.1l-0.6-5l-0.1-1c-0.6-6.6-1.3-13.4-3-19.7c-0.8-3.3-3.4-5-6-6.5
	c-0.7-0.4-1.3-0.8-2-1.2l2.5,1.1c1.3,0.6,2.4,0.5,3.3,0c1.8-1.3,1.6-4.6,1.5-7v-0.6v-0.3c0-0.2,0-0.4-0.1-0.6V97l-0.1-0.2v-0.2
	c-0.1-0.5-0.3-1.1-0.5-1.6l-0.2-0.5L80.9,93l-0.2-0.4l-0.4-0.7l-0.6-0.7c0-0.2-0.2-0.3-0.3-0.5l-0.3-0.5c-0.7-0.9-1.5-1.8-2.4-2.6
	l-0.8-0.9c-0.7-0.7-1.5-1.4-2.2-2l0.3-0.3l0.6,0.5l2.7,2.1c2.2,1.6,4.4,3.3,5.4,5.3l0.5,4.3c0.3,2.9,0.6,6.4,1.2,10.7l0.2,1.3
	c0.4,3.6,1,9.6,4.6,10.3l0.6,0.1l0.4-0.4c1.5-1.7,2.3-4.1,3-6.5c0.3-1,0.6-2,1-2.8l0.2-0.4c1.2-3,2.5-6,4.2-8.7
	c3.5-5.4,5.2-11,5.6-18.2c1,3.8,1.8,8,0.2,11.7c-1.4,3-3.3,6-5,9l-3,4.6c-5.4,9.2-7.7,19.8-6.6,30.4c0.7,8,3,16,5.2,23.8l1.8,6.1
	c0.9,3.4,2.6,6.4,4.3,9.3l0.9,1.5l0.9-0.6l-1,0.6c0.7,1,1.2,2,1.7,3l0.4,0.7C105.7,185.4,107.8,188.1,110.3,190.5L110.3,190.5z
	 M138.7,128.4c-1.3,2.3-3,4.2-4.7,6.3l-2,2.4l-1.2,1.5c-1.5,1.7-3,3.6-4.1,5.8l-2.5,4.5c-0.6,1.1-1.2,2.2-1.8,3.3l-1,1.8
	c-0.4,1-0.9,2-1.5,2.8l-1.7,3L117,162c-1.2,1.8-2.5,3.6-3.8,5.3c-2,2.6-3.8,5.4-5.5,8.2l-2.6,4.3l-1-1.8
	c6.3-8.1,10.6-14.4,13.5-19.6l4.7-8l4.4-7.6l2.5-4c2.3-3.5,4.6-7.1,5.3-11.4c0.4-1.9,0.2-5-0.6-7.6c1.4,1.8,2.4,3.8,2.9,6.3l0.3,1.1
	l0.9-0.8c1-0.9,1.9-1.9,2.7-3C140,125.6,139.3,127.4,138.7,128.4L138.7,128.4z M143.1,92.7c0-1.3,1.2-2.4,2.8-2.4
	c1.5,0,2.8,1,2.8,2.4s-1.3,2.5-2.8,2.5C144.3,95.2,143.1,94.1,143.1,92.7z M176.4,100.5c1.4,0,2.5,0.9,2.5,1.8s-1.1,1.9-2.5,1.9
	c-1.3,0-2.5-0.9-2.5-1.9S175.1,100.5,176.4,100.5z M187.5,88.2c-1.5,2.5-4,4-6.4,4c-0.9,0-1.8-0.2-2.6-0.6c-0.4-0.3-0.8-0.7-1-1.2
	l2.3-1.2l3.7-2l-0.7-1.2c-1.2,0.7-2.5,1.3-3.7,2l-1.8,1c0-0.9,0.3-1.7,0.8-2.4c1.5-2.4,8-3.3,13.9-3.4
	C190.3,84.7,188.8,86.4,187.5,88.2z"/>
<ellipse cx="46.3" cy="250.4" rx="6.1" ry="6"/>
<ellipse cx="59.9" cy="256.4" rx="3.8" ry="3.8"/>
<ellipse cx="72" cy="259.5" rx="2.9" ry="2.9"/>
<ellipse cx="29.1" cy="242.2" rx="2.1" ry="2.1"/>
<ellipse cx="19.9" cy="232" rx="2.1" ry="2.1"/>
<ellipse cx="12.8" cy="219.8" rx="2.1" ry="2.1"/>
<ellipse cx="7.2" cy="206.3" rx="2.1" ry="2.1"/>
<ellipse cx="3.9" cy="192.7" rx="2.1" ry="2.1"/>
<ellipse cx="2.1" cy="178.1" rx="2.1" ry="2.1"/>
<ellipse cx="4" cy="163.8" rx="2.1" ry="2.1"/>
<ellipse cx="6.9" cy="150" rx="2.1" ry="2.1"/>
<ellipse cx="13.5" cy="136.3" rx="2.1" ry="2.1"/>
<ellipse cx="21" cy="125.4" rx="2.1" ry="2.1"/>
<ellipse cx="32.4" cy="115.6" rx="2.1" ry="2.1"/>
<ellipse cx="44.7" cy="107.8" rx="2.1" ry="2.1"/>
<ellipse cx="111.5" cy="101" rx="2.1" ry="2.1"/>
<ellipse cx="125" cy="106.7" rx="2.1" ry="2.1"/>
<ellipse cx="161" cy="148.5" rx="2.1" ry="2.1"/>
<ellipse cx="162.5" cy="163.1" rx="2.1" ry="2.1"/>
<ellipse cx="163.8" cy="177.8" rx="2.1" ry="2.1"/>
<ellipse cx="162" cy="193.2" rx="2.1" ry="2.1"/>
<ellipse cx="159" cy="206.4" rx="2.1" ry="2.1"/>
<ellipse cx="151.6" cy="222.1" rx="2.1" ry="2.1"/>
<ellipse cx="143.5" cy="233" rx="2.1" ry="2.1"/>
<ellipse cx="130.9" cy="243.6" rx="2.1" ry="2.1"/>
<path d="M42.5,51.3l3.2,3.6c1.3,1.6,2.8,3,4.3,4.4l0.2,0.1c1.1,1,2.2,2,3.5,3.5c1.7,2,3.8,4,6,6c0.1-8.4-0.4-17.9-1.4-25v-0.1
	l-0.2-2c-6.5,0.2-12.6,3-17,8l0.7,0.7C41.8,50.5,42.5,51.3,42.5,51.3z M63.2,71.8l5,4c3.3,2.5,6,4.7,8,6.4c9-9.1,8.9-23.7-0.1-32.7
	c-3.9-3.9-9.1-6.2-14.6-6.6l0.3,1.7C62.9,53.6,63.4,62.7,63.2,71.8z M69.1,84.8l-2.5-2.3c-1-1-7.4-8.1-8.7-9.8
	c-2.6-2.2-5.1-4.6-7.4-7.2l-3.3-3.2L47,62.1c-1.6-1.4-3.2-3-4.6-4.6l-3.2-3.6l-0.8-1c-2.5,3.7-3.8,8-3.8,12.5
	c0,12.8,10.5,23.2,23.3,23.1c4.1,0,8.2-1.1,11.7-3.2L69.4,85L69.1,84.8z"/>
</svg>
