<svg xmlns="http://www.w3.org/2000/svg" width="95.5" height="82"><path d="M0 33.1V33v-.2.3zM91.4 26.3a10.4 10.4 0 0 0-9.3-1.2c.8-3 0-8-.7-10.1-1-3.6-3.7-5.3-6.2-6.4-7.5-3.5-13.6.7-18.5 5.5l-.1-.7-.6-2.7C54.2 2.7 48.5-1 40 .2a16.5 16.5 0 0 0-14 10.2c-.5 1.6-1 3.1-1 5.2-4.2-.8-8.1 2.8-11.6 5a46.4 46.4 0 0 0-7.6 5.7C4.1 27.9 1 30.7.1 33c.4.7.2 1.3 1 1.9.7.5 1.7.4 2.6.4 2.1 0 4.2.1 6.3-.4 4-1 6.5-5.9 11-5.5 2.6.3 5.1 1.8 7.6 1.6a4.9 4.9 0 0 0 4.6-4.1c.8-4-3-9-6.4-10.7a7 7 0 0 0-.8-.4c0-2 .4-3.4 1-5a15.6 15.6 0 0 1 13.1-9.6c8-1 13.2 2.3 15 9.7l.5 2.7.3 1.5.8.5.3-.3c4.7-4.7 10.6-9.1 17.8-5.8 3.2 1.5 4.9 3.2 5.7 5.8.7 2.5 1.5 8.1.3 10.4l-.3 1.4 1-.6a9.2 9.2 0 0 1 9.3.6c2.7 2 4 6.2 3.6 9.2-.6 6.6-4.3 11-10 11.8h-.2l-.6.6.5.4c2.3 1.5 3.5 4 3.4 7.1 0 3.9-2 7.9-4.8 9.6-2.5 1.5-7.6 2.7-10.2.8-2.6-2-3.4-4-4-7l-1 .1c.3 1.7-.8 3.5-3 5.1-4 2.8-11 4.5-15.5 2.2s-8.2-9-6-13.7l.2-.6-1.2-.2-.1.3c-.9 2-4.5 3.4-5.5 3.5-1.5.3-3.7.2-5.3-.3-2.7-.9-5.6-3.6-5.3-6.5h-1c0 .8 0 1.7.4 2.4l-4 18.6 1 .2L26 53.3c1.2 1.7 3 3 5 3.6 1.2.4 2.8.6 4.2.6L33.4 73l1 .1L36 57.4h.4c.8-.2 3.2-1 5-2.4-.9 5 2.7 10.7 7 13a12 12 0 0 0 5.5 1c1.7 0 3.5-.2 5.2-.7L58 79.7l1 .1L60.2 68c1.8-.6 3.5-1.4 4.8-2.4a9 9 0 0 0 3.1-3.4 9.6 9.6 0 0 0 2.3 3.9l-2.5 15.8 1 .1L71.3 67l.6.5c3 2.2 8.5 1 11.4-.8 3-1.9 5.2-6.1 5.2-10.4 0-3-1-5.6-3-7.3 5.6-1.2 9.3-6 10-12.5.2-3.4-1-8-4.1-10.1z"/></svg>