<svg xmlns="http://www.w3.org/2000/svg" width="595.3" height="841.9"><path d="M202.7 266.7l91.1 27.7-.6 2-91.1-27.7z"/><path d="M294.6 295.2l19.9 85-2 .5-20-85zM221 350l27.3 8.7-.7 2-27.3-8.7z"/><path d="M313.3 381.6l-1-.2-19.1-6.2.6-2 20.7 6.6v.7h-1zM203.4 267.5l18 83.2-2 .5-18-83.3z"/><path d="M312.5 380l1.9 1-59.8 102-1.8-1z"/><path d="M312.4 380.5l2.1.1-10 175.6-2-.1z"/><path d="M303.4 555.9c-9.5 5.4-13.7 19.7-16.2 29.7-1.4 5.8-3.5 21.2-10 11.4-3.4-5.3-6-11.3-9.8-16-1 6.5-2.2 14.3-4.5 20.6-2.9-10-11.3-19-15.3-29l.8-11.3c5.4 0 14.1 2 18.9-1-2.7-17.5-1.4-72.5 17.9-78.4 15-4.6 18.3 37.3 18.2 74z"/><path d="M262.8 605l-.9-3.1a65.5 65.5 0 0 0-8-15.7 85.8 85.8 0 0 1-7.3-13.2V572.7l.8-12.5h1l5 .3c2 .2 4.2.4 6.2.4 2.8 0 5-.4 6.5-1.2-2.4-17.3-1.3-72.7 18.8-78.9.8-.2 1.6-.4 2.5-.4 6.6 0 11.1 8.2 14 25 2 12.6 3.1 29.5 3.1 50.5v.6l-.5.3c-8.8 5-13 18.1-15.8 29l-.5 2.6c-1.3 5.7-2.8 12.8-6.6 12.8-1.5 0-3-1.2-4.7-3.6a119 119 0 0 1-3.8-6.4c-1.5-2.7-3-5.2-4.6-7.5-.8 5.6-2 12.6-4 18.3l-1.2 3zm3.9-26.6l1.5 2c2.4 2.9 4.3 6.3 6.2 9.7l3.8 6.3c1.6 2.4 2.6 2.7 2.9 2.7 2 0 3.8-7.8 4.5-11.1l.6-2.7c2.7-11 7-24.4 16.2-30 0-20.6-1-37.2-3.1-49.5-2.6-15.2-6.7-23.2-12-23.2-.5 0-1.2 0-1.8.3-18.2 5.6-19.9 59.6-17.2 77.2l.1.7-.6.4c-2 1.2-4.5 1.8-8.2 1.8-2.1 0-4.2-.2-6.3-.4l-4-.3-.6 10.2a86 86 0 0 0 7 12.6c2.6 4.2 5.4 8.6 7.2 13.2 1.7-5.8 2.7-12.4 3.4-17.5l.4-2.4z"/><path d="M246.5 572.6l2 .1-4.7 71.7-2.1-.2zM252.5 482.5l2.1.1-5.3 78.8-2-.2z"/><path d="M242.8 643.2l83.3 4.8-.2 2.1-83.2-4.8zM233.2 453.9l-.7 18-19.2-9.5c-.3-6.2-.6-12.3-.7-18.5l20.6 10z"/><path d="M233.5 473.6l-21.2-10.5v-.7c-.4-6.2-.7-12.4-.7-18.5v-1.7l22.7 11-.8 20.4zm-19.1-11.9l17 8.6.7-15.7-18.4-9c0 5.3.4 10.7.7 16.1z"/><path d="M205.1 457l8.7 4.3-1 2-8.6-4.4zM186.7 450.2l-1.6-.7-26-13 .9-2 27.6 13.8zM233 471l21.1 10.6-1 1.9-21.1-10.6z"/><path d="M219.6 350.3l1.7 1.3-61 84.5-1.7-1.3zM344.9 382.4l-1.9-1.1c2.5-4.1 6.6-8.6 10.6-13 3.6-4 7.4-8 9.8-11.7 5.4-8 4.6-13 3.3-21.7l-.5-3.3c-2-13.4-2.7-27-3.4-40.2l-.2-4c-.6-11 .2-21.1.9-31.8l.7-10.9 2.1.2-.7 10.8c-.7 10.6-1.4 20.7-.9 31.6l.3 4c.6 13.2 1.3 26.7 3.3 40l.5 3.3c1.4 9 2.2 14.4-3.6 23.2-2.6 3.9-6.3 8-10 12-4 4.2-8 8.7-10.3 12.6z"/><path d="M366.6 396.7a43 43 0 0 1-13.6 2.8c-8.5.7-15.2.1-23.8.1-1-8.8 11.6-26 18.4-13 5.7-14.3 17.8.4 19 10z"/><path d="M343.8 401l-6.9-.2h-8.7v-1c-.5-4.3 2-10.5 5.7-14.8 2.5-2.7 5.1-4.2 7.6-4.2 1.7 0 4 .7 6 3.6 2-3.9 4.6-4.8 6.5-4.8 6 0 12.7 9.5 13.7 17v.7l-.6.3a39.9 39.9 0 0 1-14 3c-3 .2-5.9.3-9.3.3zm-13.5-2.4l6.6.1 7 .1c3.2 0 6.1-.1 9-.4 7.2-.6 10.7-1.5 12.5-2.3-1.1-6.4-6.7-14.4-11.4-14.4-2.2 0-4 1.8-5.4 5.4l-.8 2.1-1.1-2c-1.5-2.8-3.2-4.2-5.2-4.2-1.8 0-4 1.2-6 3.5-3 3.4-5.2 8.4-5.2 12zM314 379l-2.1-.4a87 87 0 0 1 6.2-17.5c1.5-3.4 3-6.7 3.9-9.5l2.5-7.6 2-6.3 3.4-10.8c1.4-4.9 2.9-9.9 4.3-14 1.7-4.8 3-8.8 4.2-12.7 2-5.8 3.7-11.2 6.4-18.4 3.3-8.8 7.2-17.4 11-24 2.2-4.1 5-9.2 8.6-13.7l1.7 1.4a99.7 99.7 0 0 0-8.5 13.3c-3.7 6.6-7.5 15-10.8 23.7-2.7 7.2-4.5 12.6-6.3 18.4l-4.3 12.8c-1.4 4-2.9 9-4.3 13.8l-3.3 10.8-2.1 6.4-2.5 7.6c-1 2.9-2.4 6.2-4 9.7-2.5 5.9-5.2 12-6 17zM257.8 201l16.4 22.4-1.7 1.3-16.4-22.4z"/><path d="M347.8 221v2l-74.5 2v-2z"/><path d="M319.5 193.8l29.4 27.8-1.4 1.5-29.5-27.8zM318.3 190.7l.3 2-61.5 10-.3-2.1zM272.3 224h2.1v57.6h-2.1z"/><path d="M343.8 269.7l.3 2-70.6 11-.3-2.1z"/><path d="M347 221.7l2 .2-4 49-2.1-.2zM250.4 246.5l23.8 34.5-1.7 1.2-23.8-34.5z"/><path d="M255.9 201.5l2 .4-7.3 45.7-2.1-.4zM285.2 253.7l-1.2-1.8c4.6-3 13.6-5.3 23.4-6.2 11-1 21.4 0 29.2 2.8l-.7 2c-16.8-6-42.4-2.2-50.7 3.2z"/><path d="M307.7 260.5c-9.7 0-18.7-2.7-23.6-6.9l1.4-1.6c9.5 8.1 35.6 9.9 49.6-3.4l1.5 1.6a42 42 0 0 1-28.9 10.3zM256.6 208l17.5 20.1-1.6 1.4-17.5-20.2zM255.6 214.2l18.6 20.2-1.6 1.4-18.5-20.2zM254 219.7l20.1 22-1.5 1.5-20.1-22zM254 226.1l20.2 22.5-1.6 1.4-20.1-22.5zM252.9 232.8l21.2 22.9-1.6 1.4-21.1-23zM251.9 237l22.2 24-1.5 1.5-22.3-24.1zM251.2 241.9l23 29-1.7 1.4-23-29.1zM276.2 203.5c1 0 1-1.4 0-1.4-.9 0-.9 1.4 0 1.4zM263.4 207.2c1 0 1-1.4 0-1.4-.9 0-.9 1.4 0 1.4zM269.2 212.3c1 0 1-1.4 0-1.4-.9 0-.9 1.4 0 1.4zM270 207.4c1 0 1-1.4 0-1.4-.9 0-.9 1.4 0 1.4zM273.5 208c.9 0 .9-1.5 0-1.5-1 0-1 1.4 0 1.4zM275 212.9c1 0 1-1.4 0-1.4-.9 0-.9 1.4 0 1.4zM275 217.9c.8 0 .8-1.5 0-1.5-1 0-1 1.5 0 1.5zM277.2 217.7c.9 0 .9-1.4 0-1.4-1 0-1 1.4 0 1.4zM279.5 212.5c1 0 1-1.4 0-1.4-.9 0-.9 1.4 0 1.4zM280.8 208.3c1 0 1-1.4 0-1.4-.9 0-.9 1.4 0 1.4zM284.7 215c1 0 1-1.4 0-1.4-.9 0-.9 1.4 0 1.4zM287.7 217.6c1 0 1-1.4 0-1.4s-1 1.4 0 1.4zM289.8 213.6c1 0 1-1.4 0-1.4-.9 0-.9 1.4 0 1.4zM286.5 206.5c1 0 1-1.4 0-1.4-.9 0-.9 1.4 0 1.4zM289.5 208.3c.9 0 .9-1.4 0-1.4-1 0-1 1.4 0 1.4zM290.3 203c1 0 1-1.4 0-1.4s-1 1.5 0 1.5zM282.6 203.3c1 0 1-1.4 0-1.4s-1 1.4 0 1.4zM298.2 200.5c1 0 1-1.5 0-1.5-.9 0-.9 1.5 0 1.5zM301.8 205.2c.9 0 .9-1.4 0-1.4-1 0-1 1.4 0 1.4zM294 201.4c.9 0 .9-1.4 0-1.4-1 0-1 1.4 0 1.4zM296.1 208.2c1 0 1-1.5 0-1.5s-1 1.5 0 1.5zM291.6 207.7c1 0 1-1.4 0-1.4s-1 1.4 0 1.4zM296.2 212.3c1 0 1-1.4 0-1.4-.9 0-.9 1.4 0 1.4zM293 220.6c1 0 1-1.4 0-1.4-.9 0-.9 1.4 0 1.4zM282 218c1 0 1-1.4 0-1.4-.9 0-.9 1.4 0 1.4zM302.8 213.8c1 0 1-1.4 0-1.4-.9 0-.9 1.4 0 1.4zM300.6 218c1 0 1-1.4 0-1.4s-1 1.4 0 1.4zM295.6 216.3c1 0 1-1.4 0-1.4-.9 0-.9 1.4 0 1.4zM304.7 206.1c1 0 1-1.4 0-1.4-.9 0-.9 1.4 0 1.4zM307.6 200.1c.9 0 .9-1.4 0-1.4-1 0-1 1.4 0 1.4zM304.3 199.4c.9 0 .9-1.4 0-1.4-1 0-1 1.4 0 1.4zM312.7 199.5c.9 0 .9-1.4 0-1.4-1 0-1 1.4 0 1.4zM313 204.1c1 0 1-1.4 0-1.4-.9 0-.9 1.4 0 1.4zM314.2 209.3c1 0 1-1.4 0-1.4-.9 0-.9 1.4 0 1.4zM309.7 211.8c1 0 1-1.4 0-1.4-.9 0-.9 1.4 0 1.4zM314.4 214.8c1 0 1-1.4 0-1.4-.9 0-.9 1.4 0 1.4zM318.8 200.1c1 0 1-1.4 0-1.4-.9 0-.9 1.4 0 1.4zM320.6 203.7c1 0 1-1.5 0-1.5s-1 1.5 0 1.5zM323.8 207.6c1 0 1-1.5 0-1.5s-1 1.5 0 1.5zM321.3 212c1 0 1-1.4 0-1.4-.9 0-.9 1.5 0 1.5zM326.4 212c1 0 1-1.5 0-1.5s-1 1.4 0 1.4zM323 215.5c.9 0 .9-1.4 0-1.4-1 0-1 1.4 0 1.4zM319.3 215.6c1 0 1-1.4 0-1.4s-1 1.4 0 1.4zM318.8 208c1 0 1-1.4 0-1.4-.9 0-.9 1.4 0 1.4zM308.5 216.2c1 0 1-1.4 0-1.4-.9 0-.9 1.4 0 1.4zM334.5 217.6c.9 0 .9-1.4 0-1.4-1 0-1 1.4 0 1.4zM333.3 211.4c.9 0 .9-1.5 0-1.5-1 0-1 1.5 0 1.5zM330.4 208.6c1 0 1-1.4 0-1.4-.9 0-.9 1.4 0 1.4zM338.6 217.3c1 0 1-1.4 0-1.4s-1 1.4 0 1.4zM328.8 214.4c.9 0 .9-1.4 0-1.4-1 0-1 1.4 0 1.4zM315.6 218.8c1 0 1-1.4 0-1.4-.9 0-.9 1.4 0 1.4zM310.8 219.3c.9 0 .9-1.4 0-1.4-1 0-1 1.4 0 1.4zM310 208.2c.9 0 .9-1.5 0-1.5-1 0-1 1.5 0 1.5zM316.6 195.1c.9 0 .9-1.4 0-1.4-1 0-1 1.4 0 1.4zM265.3 203c1 0 1-1.4 0-1.4-.9 0-.9 1.5 0 1.5zM277.2 209.1c.9 0 .9-1.4 0-1.4-1 0-1 1.4 0 1.4zM273.4 222.5c.9 0 .9-1.4 0-1.4-1 0-1 1.4 0 1.4zM279 204.7c1 0 1-1.4 0-1.4-.9 0-.9 1.4 0 1.4zM271 216c1 0 1-1.3 0-1.3s-1 1.4 0 1.4zM283.6 211.4c.9 0 .9-1.5 0-1.5-1 0-1 1.5 0 1.5zM301.7 209.3c.9 0 .9-1.4 0-1.4-1 0-1 1.4 0 1.4zM283.4 222.5c1 0 1-1.4 0-1.4-.9 0-.9 1.4 0 1.4zM304.6 220.5c1 0 1-1.4 0-1.4-.9 0-.9 1.4 0 1.4zM308 204.6c.9 0 .9-1.4 0-1.4-1 0-1 1.4 0 1.4zM293.9 197.7c.9 0 .9-1.4 0-1.4-1 0-1 1.4 0 1.4zM284.9 199.6c.9 0 .9-1.4 0-1.4-1 0-1 1.4 0 1.4zM289.4 199.9c.9 0 .9-1.4 0-1.4-1 0-1 1.4 0 1.4zM310.8 196.3c.9 0 .9-1.4 0-1.4-1 0-1 1.4 0 1.4zM245.9 201.8c6.8 0 6.8-10.6 0-10.6-6.9 0-6.9 10.6 0 10.6zM197.3 179.6c6.8 0 6.8-10.6 0-10.6s-6.9 10.6 0 10.6zM224.4 158.5c6.8 0 6.8-10.6 0-10.6-6.9 0-6.9 10.6 0 10.6zM219.1 205c6.9 0 6.9-10.6 0-10.6-6.8 0-6.8 10.6 0 10.6zM185 207.5c6.9 0 6.9-10.7 0-10.7-6.8 0-6.8 10.7 0 10.7zM213.7 250.2c6.8 0 6.8-10.6 0-10.6-6.9 0-6.9 10.6 0 10.6zM182.2 256.2c6.9 0 6.9-10.6 0-10.6-6.8 0-6.8 10.6 0 10.6zM143.2 256.8c6.9 0 6.9-10.6 0-10.6-6.8 0-6.8 10.6 0 10.6zM150.2 206.3c6.9 0 6.9-10.6 0-10.6-6.8 0-6.8 10.6 0 10.6zM180.3 156.4c6.9 0 6.9-10.6 0-10.6-6.8 0-6.8 10.6 0 10.6zM260.2 151.5c6.8 0 6.8-10.6 0-10.6s-6.9 10.6 0 10.6zM263.4 126.5c6.8 0 6.8-10.6 0-10.6s-6.9 10.6 0 10.6zM298 133c6.9 0 6.9-10.5 0-10.5-6.8 0-6.8 10.6 0 10.6zM226.8 130.6c6.9 0 6.9-10.6 0-10.6-6.8 0-6.8 10.6 0 10.6zM155.7 123.5c6.8 0 6.8-10.6 0-10.6-6.9 0-6.9 10.6 0 10.6zM174.1 299.7c6.9 0 6.9-10.6 0-10.6-6.8 0-6.8 10.6 0 10.6z"/><path d="M181.2 250.7l2 .3-8 43.5-2.1-.4z"/><path d="M213.4 243.9l.4 2-31.4 6-.4-2z"/><path d="M218 199.5l2.1.3-5.4 45.2-2.1-.3z"/><path d="M245.7 195.4l.3 2-26.7 3.3-.3-2.1z"/><path d="M197.8 173.3l48.5 22.2-.8 2-48.6-22.3z"/><path d="M196.3 173.9l2 .8-12.3 27.8-2-.8z"/><path d="M219 198.6l.2 2.1-34 2.5-.2-2.1z"/><path d="M185.9 201.6l28.6 42.7-1.8 1.1-28.6-42.7z"/><path d="M149.4 200l35.6 1v2.2l-35.6-1.2z"/><path d="M148.4 200.9l2 .2-6.1 50.4-2.1-.2zM184 202l2.1.2-2.8 48.7-2.1-.1z"/><path d="M182.2 249.9v2l-39 .6v-2zM223.7 152.4l1.3 1.7-27 21-1.3-1.6z"/><path d="M198 173.5L220 199l-1.6 1.3-21.8-25.4zM260 145.2l.3 2-35.7 7-.4-2z"/><path d="M259.1 146l2 .5-14.3 50.3-2-.6zM244.8 197h2.1l-.6 31.8h-2.1z"/><path d="M220 199l26 29.1-1.6 1.4-26-29.1z"/><path d="M223.3 153l2.1.2-5.2 46.5-2.1-.2z"/><path d="M225.8 125.3l2.1.2-2.4 27.9-2.1-.2zM262.3 121.8l2.1.3-3.2 24.2-2-.2z"/><path d="M297.6 126.9l.9 1.8-38 19-.9-2z"/><path d="M297.2 127.1l1.7 1.3-52.2 68.8-1.7-1.3zM365.2 250.1c6.8 0 6.8-10.6 0-10.6-6.9 0-6.9 10.6 0 10.6z"/><path d="M299 127.2l67.2 117-1.8 1-67.3-117zM156.5 117.5l24.7 33-1.7 1.3-24.7-33z"/><path d="M181.2 150.5l17 23.2-1.7 1.2-17-23.2zM173.8 295.4c-6.1-1.6-13.3-7-19-14.2-4.8-6-10.8-16-12.6-29.6l2.1-.3c3 23 19.5 39.3 30 42l-.5 2.1z"/><path d="M151.2 201.3l-2-.6c8.7-29.4 16.8-38 30.4-50.4l1.5 1.6c-13.4 12.2-21.3 20.5-29.9 49.4z"/><path d="M181 152l-1.4-1.7c14.3-12.3 27.7-22.7 47-26l.4 2c-18.8 3.3-32 13.5-46 25.6z"/><path d="M227.8 125.6l.1-.3h-2.1c0-1.3.9-2.7 11.6-4 7-.7 16.2-1.2 26-1.2v2.1c-21.3 0-34.4 2-35.6 3.4zM298 128.6c-4.5-4.2-23-6.4-34.6-6.4v-2c11.5 0 30.9 2.1 36 6.8l-1.4 1.6zM253 221.2l1.3 1.5-51.3 45.7-1.4-1.5z"/><path d="M214.1 243.9l9.8 4-.7 2-9.9-4zM158.5 435.3l2.1.3-9.8 92.8-2-.3z"/><path d="M150.6 527.8l56.9 98.7-1.8 1-56.9-98.7z"/><path d="M207 626l36.2 17.4-.9 1.9-36.2-17.3zM270.3 409.7h2.1zM292.7 373.6l1.7 1.1-22 35.5-1.9-1.1zM233.4 472.5l-1.8-1.1L246 448l1.9 1-.1.2zM256.9 431l1.7 1-10.5 17-1.8-1.1z"/><path d="M293 373.2l1 1.8-13 7.7-1-1.9zM279.8 394.5l1 1.9-8 3.9-1-2zM270.3 409.7h2.1zM257.2 417.5h2l-.5 13.8h-2z"/><path d="M257.3 430.6l.8 2-10.6 3.9-.8-2zM246.1 448.4h2.1v.2h-2.1z"/><path d="M246.8 447.7l.8 2-14 5.1-.7-2zM244.7 357.9l.9 1.9-13.4 6.3-1-1.9z"/><path d="M280.5 381.9l-.3 13.5-47.7-17.3-.8-13z"/><path d="M281.3 397l-49.8-18.1-1-15.3 51.1 17.5-.3 15.8zm-47.8-19.6l45.7 16.5.3-11.3-46.6-16 .6 10.8z"/><path d="M232.1 377l.8 2-8.5 3.2-.7-2z"/><path d="M272.3 399.3l-1 10.3-47.2-18.4v-9.9z"/><path d="M271.4 410.7h-.2L223 392v-12.1l50.4 18.8-1 12.1h-1zm-46.2-20.2l45.2 17.7.8-8.2-46-17.2v7.7z"/><path d="M223.6 390.2l1 1.9-13 7-1-2zM256.5 435.5l.7-18.6 17.4-10.4-18.1 29zm2.8-17.4l-.4 9.5 9.2-14.8-8.8 5.3z"/><path d="M258.2 417.5l-.5 14-46.6-20.1v-13.3z"/><path d="M258.7 433.1l-48.6-21v-15.6l49.2 20.3-.6 16.3zm-46.5-22.4l44.5 19.2.5-11.7-45-18.5v11z"/><path d="M210.7 410.4l.7 2-10.3 3.4-.6-2z"/><path d="M247.2 435.5v13l-.2.1L201 427v-12.2z"/><path d="M247.4 450l-47.6-22.3V413l48.4 21.7v14l-.8 1.2zM202 426.3l44.2 20.7v-10.8l-44.2-19.8v9.9z"/><path d="M200.5 426l.7 2-13 4.7-.6-2z"/><path d="M213.3 462.4l-26.2-13.1.8-17.5 26.2 12.8"/><path d="M212.9 463.3L186 450l.8-19.8 27.7 13.5-1 2-24.7-12.1-.7 15.1 25.6 12.8zM247.5 447.7l-.9 1.9z"/><path d="M212.3 442.5l.8.4-.9 1.9-.8-.4zM308 458l.8 2-54.8 23.5-.8-2zM333.8 365.4c-2.5-3-.2-7.2 1.3-9.9l.3-.6.6-1.2c1.8-3.3 2.8-5.4 8-5.4v2.1c-3.9 0-4.4 1.1-6.1 4.3l-.6 1.2-.4.6c-1.2 2.4-3 5.6-1.4 7.6l-1.7 1.3zM347.9 367.2l-2-.6c1.5-4.9 4-5.8 8.8-5.8v2.2c-4.2 0-5.7.5-6.8 4.2zM311.4 448.9v-2.1c16.4 0 34.2-9 44.1-22.5l1.8-2.3c5.4-7.3 11.1-15 15.3-22.9 5-9.3 10-17.4 16.5-26 3.2-4.3 6.2-9 9.1-13.4l6.4-9.4c5-7.3 9-14.3 13.3-21.8l3.8-6.6 1.2-2.1c5.2-9 10.2-17.5 9.8-28l2.2-.1c.3 11.1-4.8 19.9-10.2 29.2l-1.2 2-3.7 6.7c-4.3 7.5-8.3 14.6-13.5 22l-6.3 9.3c-3 4.5-6 9-9.2 13.4a193.4 193.4 0 0 0-16.3 25.8c-4.3 8.1-10 15.8-15.5 23.2l-1.8 2.3a60 60 0 0 1-45.8 23.3z"/><path d="M347.4 412.7c-6.7 0-13.4-4.4-19-12.5l1.7-1.2c5.4 7.8 11.8 12 18 11.6 6.6-.4 12.8-5.5 17.6-14.4l1.8 1c-5.1 9.6-12 15.1-19.2 15.5h-.9zM293.5 374.2l-45.6-14.5c-3.8-34.6-5-73.8 4.6-75.2h1.6c18.2 4.5 38.1 77.2 39.4 89.7z"/><path d="M294.7 375.7L247 360.5v-.7c-2.5-22.3-7-74.5 5.4-76.4h.2l1.7.1h.2c19.4 4.8 39 80 40.1 90.6l.2 1.6zM249 359l43.3 13.8c-1.2-8-6.3-27.5-13-46-9-24.7-18-39.2-25.3-41l-1.3-.1c-7 1.2-8.4 30.6-3.7 73.3z"/><path d="M253.8 285.6h-1.1l-.3-2.2 2 .1-.6 2.1z"/><path d="M242.4 358.4c-5.2-46.5-4.8-64.6 1.6-71.6 2-2.3 4.9-3.4 8.5-3.4v2.2c-3 0-5.3.8-7 2.6-6.5 7.3-5.3 31.2-1 70l-2 .2zM439 301.7c-7.5-6.5-16-33.2-16.7-53h2.1c.8 18.9 9 45.3 16 51.3l-1.4 1.7z"/><path d="M304 557l-1.1-1.7c21.7-14.2 32.3-35.5 43.4-58 3.2-6.4 6.5-13 10-19.5 7.7-13.8 17-24.7 26-35.2 9-10.4 17.3-20.3 22.3-31.4 1.9-4 3.9-7.9 5.8-11.5 3.4-6.4 6.5-12.4 8.7-19.5 12.3-39.3 16.8-77.4 15-84.3l2-.5c2.1 8-3.3 48.4-15 85.5-2.2 7.2-5.4 13.3-8.8 19.7-2 3.7-4 7.5-5.7 11.5-5.1 11.4-13.7 21.3-22.7 31.9-8.9 10.4-18.1 21.2-25.7 34.8-3.5 6.4-6.8 13-10 19.4-11.2 22.8-21.9 44.3-44.2 58.9zM454 292.7l-1.7-1.4s4.7-5.8 4.3-15.9c-.2-4.3-1.3-9.6-2.5-15.1-1.2-5.8-2.6-12.3-3.2-19a63.1 63.1 0 0 1-.4-7h2.2v.6c0 2 0 4 .3 6.2.6 6.6 2 13 3.2 18.7 1.2 5.7 2.3 11 2.5 15.6.5 10.8-4.5 17-4.8 17.3z"/><path d="M469.7 255a122.7 122.7 0 0 0-5.8-22.3 43.5 43.5 0 0 0-8.6-13.1c-1.4-1.6-3-3.1-4.6-4.7l-1-.8-6-5.8c-2-2.1-5.3-5.5-8.8-10l-2.2-3-.3-.5c-1.7-3.3-4.4-4.7-5-4.5v.3a44.9 44.9 0 0 0 1 15v.5a43 43 0 0 0 5.4 12.9c2.9 4.6 6.5 8.4 10.5 11 2.5 1.6 5 2.7 7.5 3.3l-.5 2a26 26 0 0 1-8.1-3.5 37.3 37.3 0 0 1-14.3-17.7c-1-2.2-1.7-4.4-2.3-6.7l-.2-.8a49.5 49.5 0 0 1-1.1-16.2c.1-1.2.8-2 1.8-2.2 2.1-.4 5.3 2 7.1 5.5l.3.4a87 87 0 0 0 10.7 12.7c2.1 2.2 4.1 4 6 5.8l1 .8 4.7 4.7a44.3 44.3 0 0 1 9 13.7l2.4 6.8c1.3 4.4 2.5 9.7 3.5 16l-2 .4z"/><path d="M450.8 214.7c-6.6 0-12.5-2.4-17-7-3-3-5.4-6.8-7-11.1a33 33 0 0 1-1.5-6l2.1-.3a31 31 0 0 0 7.8 15.9c4.2 4.2 9.6 6.4 15.6 6.4v2.1zM424 420.6l-.4-2.1c15.7-3.6 21.6-48.7 26.2-85 1.5-11.2 2.9-22 4.4-30.9.7-3.9-2.4-11.1-3.4-13.3-6.1-13.9-10.4-26-13.8-35.6-3.3-9.4-5.7-16.2-8.1-19.7-1.5-2-3.1-3.5-4.9-5.1-3-2.8-6.4-6-9.4-12.9-.4-1-1-1.5-1.3-1.5-.4 0-.7.3-.7.4-3.8 9-.5 19 3.7 25.5 3.2 4.7 7.2 8 10 8v2c-3.6 0-8-3.3-11.7-8.8-4.6-6.9-8-17.7-4-27.5a3 3 0 0 1 2.6-1.7c1 0 2.3.5 3.4 2.8 2.8 6.5 5.9 9.3 8.9 12.1a33 33 0 0 1 5.1 5.5c2.6 3.7 5 10.6 8.4 20.2 3.4 9.6 7.6 21.6 13.8 35.5 1.3 2.9 4.3 10.1 3.5 14.5-1.5 8.9-3 19.6-4.4 30.9-5 38.8-10.6 82.8-27.8 86.7z"/><path d="M423.6 231.6c-2.5 0-5-.8-7.2-2.5-4-3-6.4-8-6.4-13h2c0 4.2 2.3 8.8 5.7 11.3a9.8 9.8 0 0 0 8.9 1.6l.5 2c-1.1.4-2.3.6-3.5.6zM431.2 235.6l.7 2-6.8 2.6-.7-2zM432.1 238.3l1 1.8-3.3 2-1-2zM451.5 288l.6 2-4.9 1.6-.7-2zM453.2 292l.6 2-8.6 2.7-.6-2zM445.3 424.4l-.4-2.1c12.1-1.9 20-46.4 23.8-67.8 1.2-6.7 2-11 2.5-12.6l2 .7c-.5 1.4-1.3 6.2-2.4 12.3-6.2 35-13.6 67.7-25.5 69.5zM479.8 431l1.5 1.5-175.2 175-1.5-1.5z"/><path d="M245.7 601.6l59.7 4-.1 2-59.8-4zM333 525.1l24 30.3-1.7 1.3-24-30.3zM330 182.8l-1.6-1.5c35.4-34.4 67.7-50.6 98.8-49.5 26.8 1 47.9 14.3 66.5 26.1 13.9 8.8 25.8 16.4 37 16.7v2.1c-11.8-.3-24-8-38.2-17-18.3-11.6-39.1-24.8-65.4-25.7-30.5-1.1-62.3 14.9-97.2 48.8z"/><path d="M332.9 187.1l-1.4-1.6c73-62.3 116.8-40.6 152.1-23.2 17 8.4 31.8 15.7 47 12.3l.4 2c-15.9 3.6-30.9-3.8-48.3-12.4-34.7-17.1-78-38.5-149.8 22.9z"/><path d="M335 190l-1.2-1.6c66-47.8 107-32.1 139.9-19.5 20.1 7.7 37.5 14.3 56.6 5.8l.9 2c-20 8.8-37.7 2-58.3-5.9-16.3-6.2-34.8-13.3-57-12.8-25.4.6-51.8 11.1-80.8 32z"/><path d="M339.2 197.6L338 196c55.6-38 80.5-29.8 106.8-21.1 21.7 7 44 14.4 85.6-.2l.7 2a117 117 0 0 1-87 .2c-26.9-8.9-50.2-16.5-105 20.8z"/><path d="M343 205.5l-1-1.8c52-30 77.1-23.4 101.4-17.1 22.7 5.9 44.1 11.5 86.8-11.9l1 1.9c-43.4 23.8-66.3 17.8-88.4 12-23.8-6.1-48.4-12.6-99.7 16.9z"/><path d="M461 201.5c-9.6 0-17.8-1.4-25.4-2.8l.4-2c22.2 4 47.5 8.4 94.2-22l1.1 1.8c-30.7 20-52.8 25-70.3 25zM348.7 214.8l-1.1-1.8c35.8-22.9 57.7-21.6 78.7-18.1l-.3 2c-20.7-3.4-42-4.6-77.3 17.9z"/><path d="M450.2 208.8l-5.8-.1.1-2.2c24.7 1 48.7-4 85.6-31.7l1.3 1.7c-34.6 26-58 32.3-81.2 32.3zM352.9 223.3l-1-1.9a118.1 118.1 0 0 1 75.6-16l-.1 2c-22-1.7-42.8-1.6-74.5 15.9z"/><path d="M451.4 215.2v-2c23.8-.5 45.8-6.5 75.1-35l.9-.7 2.6-2.6 1.5 1.5a155.8 155.8 0 0 1-3.5 3.4c-29.9 28.9-52.2 35-76.6 35.4zM356.2 229.8l-1-2a131.5 131.5 0 0 1 58-15.3h.7c6-.1 11.7 0 16 .2v2c-4.3 0-10-.2-16 0h-1.4c-20.1.8-37.5 5.4-56.3 15z"/><path d="M456.2 220l-.2-2.2c19-1.4 36-7.2 62.6-31.8h.1l.2-.3a282.5 282.5 0 0 0 11-10.8l1.6 1.5-1.3 1.3a280.8 280.8 0 0 1-10.2 10c-27 25-44.4 30.8-63.8 32.2zM358.5 233.9l-.3-2.1c8.3-1 29.1-6.1 35.8-7.9a162 162 0 0 1 15.8-3.3l.3 2.1c-5.2.9-10.3 2-15.6 3.3-5 1.3-27 6.8-36 7.9zM418.2 221.6v-1.1l-.1-1c4.6-.5 9.3-.8 14.8-1v2.1c-5.3.2-10 .5-14.6 1zM428.7 233.1V231c6-.3 10.7-.7 15-1.1l.2 2c-4.3.5-9.1.9-15.2 1.2zM359.7 236l-.2-2.1c6.3-.8 21.2-1.3 34.3-1.6a2139.3 2139.3 0 0 0 17.6-.6v2.1a2694.8 2694.8 0 0 1-17.5.6c-13 .4-27.9.8-34.2 1.6z"/><path d="M462.8 228.4l-.6-2c18-5.3 32.4-17.2 56.2-40.2v-.2l.3-.1.6-.6a789 789 0 0 0 7.2-7l.9-.8 1.3-1.3 1.3-1.3 1.5 1.5a322.7 322.7 0 0 0-3.5 3.4 798.8 798.8 0 0 1-7.7 7.6l-.1.2-.4.2c-24 23.2-38.7 35.2-57 40.6zM434 243.1l-.1-2.1c7-.2 12.7-.4 18-.9l.1 2.2c-5.3.4-11 .6-18 .8zM407 243.8c-7.7 0-17.5-2-26.3-3.6-8-1.6-15.7-3-19.6-2.5l-.2-2.2c4.1-.5 11.6 1 20.2 2.6 9.3 1.8 19.7 3.8 27.3 3.5l8-.2.1 2.1a620.5 620.5 0 0 0-9.6.3z"/><path d="M467.5 239.9l-.5-2c22.5-5.6 38.4-21.4 62.8-62.8l1.9 1c-24.8 42-41 58.1-64.2 63.8z"/><path d="M465.2 233.3l-.6-2c20.4-6 35.7-19.1 65.3-56.3l1.7 1.3c-30 37.6-45.5 50.9-66.4 57zM403.5 238.9a398 398 0 0 1-20.6-.8c-9-.5-17.5-1-21.8-.4l-.2-2.2c4.4-.5 13 0 22 .5 8.8.4 17.8 1 24.8.7l5.5-.2h.2v2l-.1.1-5.6.2h-4.2zM431 237.9l-.1-2.1a7.8 7.8 0 0 1 .6 0c8.2-.5 14.5-1 20-1.8l.3 2a220.3 220.3 0 0 1-20.5 1.9h-.2zM364.8 263.9l-1.5-1.5a62.2 62.2 0 0 1 58.2-16.1l-.6 2a59.8 59.8 0 0 0-56 15.6zM399.4 297.5a146 146 0 0 1-35.1-4.3l-.5-.2.2-1-.7-.9c.4-.3.7-.2 1.5 0a137 137 0 0 0 68.7-.4l.6 2a126 126 0 0 1-34.7 4.8zM396.3 330c-11.1 0-23-2.5-31.6-7.8l1.1-1.8c16.1 10 45.8 9.2 56.1 1.2l1.3 1.7a47.2 47.2 0 0 1-26.9 6.7zM310.8 646.9c-1.1 0-2.2-.7-3.2-2.1-2.7-3.8-3-8.4-3.2-12.9-.1-2-.2-4-.6-6-.7-4-2.4-8.9-3.4-9.5-.5.6-.4 3.5-.4 4.7v2.6c-1.8 9.4-4.6 15.8-8.6 19.6l-1.4 1.2-.4-1.7c-.5-2.4-.7-5-.8-7.3-.2-2.4-.3-4.9-.9-7.2-1.1-5-3.8-12.7-5.2-13.7-.5.7-1.7 3.5-3.1 10.4-.2.8-.3 2.4-.4 4.3-.6 8.1-1.3 15-4.8 15.4h-.8l-.3-.6c-.7-1.4-1.7-2.7-2.7-4a26.4 26.4 0 0 1-3.4-5c-1.5-3.4-2.5-7-3.4-10.5l-.6-2.3v3.6a51.2 51.2 0 0 1-.8 11.3l-.3 1.4c-.4 2.4-1 5.3-2.6 6.4l-1 .7-.6-1.1c-.6-1.3-1-2.6-1.4-4l-1-2.8c-.6-1.7-1.4-3.3-2.2-4.9a68 68 0 0 1-2.4-5.3c-.8-2-1.1-4-1.4-6l-.5-3.3c-.3-1.3-.7-2.3-1.3-3.4-.3-.7-.8-1.4-1.4-2.1-.8-1.2-1.7-2.4-2.1-4l2-.5c.3 1.2 1 2.2 1.8 3.2.6.8 1.2 1.5 1.6 2.4.8 1.5 1.1 2.7 1.4 4 .3 1.1.4 2.3.6 3.4.3 1.9.6 3.8 1.2 5.6.7 1.7 1.6 3.4 2.4 5l2.3 5.1 1 3 .6 2c.5-1.1.7-2.6 1-3.7l.2-1.6c.7-2.9.9-5.8.9-9.1V626c-.3-4-.3-7.6 1-8.9l1.2-1.2.5 1.6c.8 2.2 1.4 4.4 2 6.5.9 3.4 1.8 7 3.3 10.2.7 1.6 1.9 3 3 4.6.9 1 1.7 2.2 2.5 3.4 1.6-1.8 2.1-9.8 2.4-13 .1-2 .2-3.7.4-4.6 2.4-12 4-12.1 4.9-12.2 3.7-.5 7 12.8 7.6 15.4.6 2.5.7 5 .9 7.5 0 1.7.2 3.4.4 5 3-3.6 5-9.2 6.5-17v-2.2c0-3.1 0-5.4 1.3-6.4a2 2 0 0 1 2-.4c2.8 1 4.5 9.5 4.8 11.2.4 2 .5 4.2.6 6.3.2 4.3.5 8.4 2.9 11.8.5.7 1 1.2 1.4 1.1.4 0 1.2-.8 1.9-2.8a21 21 0 0 0-1-16.3c-3.3-6.7-5.6-13.4-7.3-18.6l2-.6c1.7 5 4 11.7 7.3 18.2a23.2 23.2 0 0 1 1 18c-1 2.6-2.1 4-3.6 4.2h-.3z"/><path d="M263.4 688.7l-1-1.1c-1.2-1.5-1.1-3.6-1-5.4v-1.6c0-3.1-.4-6.5-2-10-1.7-4-3.8-8.4-6-12.4-1.3-2.6-3.8-5-6.2-7.5-2-1.9-3.9-3.8-5.3-5.8l1.8-1.2c1.2 1.8 3 3.6 5 5.5 2.5 2.5 5.2 5.2 6.6 8 2.2 4 4.4 8.4 6.1 12.5a28.7 28.7 0 0 1 2 14.2c.9-2.7 1-6.2 1-9.6 0-2.3 0-4.4.3-6.3l.4-2.5c.4-3.2.9-6.9 2.1-9.7l1.2-2.6.8 2.7c1 3.2 1.6 6.6 2.2 9.9.6 3.3 1.1 6.7 2.2 9.8l.5 1.7c.5 1.9 1 3.7 2.2 4.8 2.3-4.3 4.3-8.5 5.8-12.5l.6-2c.8-2.2 1.6-4.9 3.2-6.7l.7-.9.8.9c2.7 2.7 4.3 6.4 5.8 10 1.4 3.3 2.7 6.5 4.7 8.8 1.4-2.7 2.2-6.4 3-9.7a111.4 111.4 0 0 1 1.1-5.3c.3-2 .7-4.1 2.1-5.7l.7-.7.8.7c1.2 1 2 3.6 3 6.6 1 2.7 2.5 7.2 3.7 7.3.4 0 1.2-.6 2.3-2.5 1.1-2 2.2-5 3.3-8.2 2-5.5 4-11.1 6.9-13.9l1.4 1.5c-2.5 2.5-4.5 8.1-6.3 13.1-1.1 3.3-2.2 6.4-3.5 8.6-.9 1.6-2.3 3.7-4.3 3.6-2.6-.3-4-4.4-5.4-8.8-.6-1.6-1.2-3.4-1.8-4.6-.4 1-.6 2.2-.8 3.4l-.4 2-.8 3.4c-.8 4-1.8 8.5-3.9 11.6l-.7 1-.9-.8c-3-2.8-4.6-6.7-6.1-10.5-1.4-3.2-2.6-6.2-4.5-8.5-.9 1.4-1.5 3.3-2 5l-.8 2c-1.6 4.4-3.8 9.1-6.5 14l-.5.9-1-.6c-2.4-1.4-3.3-4.2-4-6.7l-.4-1.6c-1.1-3.3-1.7-6.8-2.3-10.2-.4-2-.7-4.1-1.2-6.1l-1 5.8c0 .9-.1 1.7-.3 2.5-.2 1.7-.3 3.8-.3 6 0 4.9-.1 9.8-2.4 13.2l-.7 1.2zM218.3 574.8c0 7.7 4.6 15.8 5.2 24 .5 7.1 1.9 14.2 2.3 21.3.2 3.3 0 6.7-3.8 8-3.2 1.1-6.3-.6-8.6-2.8-7.7-7.4-6.5-20.4-2.5-29.2 2.8-6.2 6.7-14.6 7.4-21.3zM225.5 513.4c0 8.1.6 16.8 2.3 24.7 1 5.1 3.7 12.6 1.1 17.7-3.1 6.3-13 4.2-13.7-2.6a55.3 55.3 0 0 1 5.8-31.6c1.5-2.5 4-5.1 4.5-8v-.2zM189.2 536.5c-.2 6.5 4 12.9 5.7 19 .9 3.3 1.5 6.5 1.7 9.8.3 6 1.2 14.4-1.2 20-2.6 6.3-13.7 6-17 0-2-3.9-1-12 .5-16 2-5.5 3.9-10.8 5-16.6 1-5.7 2.4-11.6 5.3-16.2zM144.4 518.8c1 3.2 4.7 6 6.3 9.2 1.1 2.2 2.4 4.5 3.6 6.5 2.9 4.7 4.2 9.7 6.2 14.8 1.6 4.3 2.2 11.5-3.2 13.5-8.4 3-12.5-12.2-13.6-17.7-1.8-8.4-1-18.2.7-26.3zM134 452.7c0 7.5 2.2 14.3 4.8 21.7 1.8 5 3.4 10 4.5 15.3.6 3.3 2.6 13-3 13.1-3.9.2-6.2-5.8-7.5-8.6-2.3-5.2-2.2-10.3-2.2-16 0-8.7 3.4-17 3.4-25.5zM209 522c-2.8 2.6-6.5 1.8-9-.7-4-4.2-3.8-10.5-2-15.8a131 131 0 0 1 10-23.7l2.5-4.8.7-1.4v1.8c0 6.2.4 12.4.8 18.5l.5 9.7c.2 4.9.2 12.8-3.6 16.4zM171 458.5c-.2 2.5 1 4.8 1.8 7.1.8 2.5 1.1 5.4 1.7 8 .6 3.1 1.1 6.2 1.3 9.4.2 6 1 13.7-1 19.3-1.2 3-4.6 5.2-8 4-4.6-1.8-5.2-8.6-5.2-12.7 0-9.9 4.3-19.6 8-28.7.9-2 1.4-3.8 1.4-6v-.4zM159.6 410.6c0 10.3 1.2 20.6 1.2 30.9 0 4.3 1.6 14.3-3 17-8.3 4.9-5.1-22.2-4.7-25.2.7-4.5 1.7-9 3-13.4.8-2.7 3-6.7 3.5-9.3zM150.9 389.3c0 7.3-1.5 14.4-3 21.6-.7 4-1.5 8.4-3.5 12-1.4 2.7-9.2 10.2-12 5.4-1-1.4-.2-6.2-.1-7.8.2-2.5.8-4.3 2-6.5a42 42 0 0 1 7.8-11.3c2.9-2.8 9.2-8.6 8.8-13v-.4zM116 425l.2 33.7c0 4.6 1.2 11.8-2.3 15.4-4.3 4.6-11.3 8.6-11.9-1a40 40 0 0 1 4.4-20.8c3-6.2 5-12.2 7.4-18.5 1.1-3 1.4-5.9 2.1-8.8zM139.2 370.2c0 10.8-.4 22.1-4.7 32.1-1.8 4.3-3.7 11.2-9.2 11.5-10.3.5-.7-23.8 2-28.1 2-3 4.8-4.7 7-7.3 1.4-1.7 2.1-3.7 3-5.7.3-.7 1.8-1.8 2-2.5zM190.8 337.2c-1.3 3-3.6 5.6-5.2 8.5-1.5 2.6-2.4 5.5-4 8.1-2 3.7-5.3 6-7.8 9.4-3 3.9-5.9 8.7-11.5 8.2-12-1.1 7.4-19.2 10.3-21.9 3.3-3 6.2-5.7 10-7.8 1.7-.8 3.7-1.6 5.2-2.6l3-1.9zM213.4 338.2c-7.3 6.7-9.6 16.6-15.4 24.2-3 4-7.2 7-10.7 10.6-1.4 1.4-3.7 3.2-6 2.2-2.3-1.2-2.5-6-2-8.2 1.7-9.7 11.8-12 18.9-16.2 5.2-3 10.5-9.1 15.2-12.6zM419.3 283.8c0 21.5 1.1 43.8-1 65-.5 6-3 24.3-12.3 17.2-13.1-10-1.8-39.2 1.1-51.9a144 144 0 0 1 12.2-30.3zM35.3 248l-.8-1.9c26.8-10.2 43-29 57.3-45.5 19-21.9 35.4-40.8 69.5-30.3l-.6 2c-32.8-10-48 7.5-67.3 29.7-14.4 16.7-30.8 35.7-58.2 46z"/><path d="M35.3 248l-.8-1.9c27.7-10.6 45.1-28 60.5-43.5 19.3-19.4 36-36.2 66.2-31.3l-.4 2.1c-29.1-4.7-44.6 11-64.3 30.7-15.5 15.6-33.1 33.3-61.3 44z"/><path d="M35.3 248l-.8-1.9c29-11 47.4-26.5 63.5-40.1 18.8-15.8 35-29.5 61.5-30.6l.1 2.1c-25.8 1.1-41.8 14.5-60.2 30-16.3 13.8-34.8 29.4-64.2 40.6z"/><path d="M37 247.4l-1-1.9c32.6-16.2 53.3-27.4 69.8-36.4 18-9.8 31-16.9 49.5-25.1l.8 2c-18.4 8.1-31.3 15.2-49.3 25-16.5 9-37.2 20.2-69.8 36.4z"/><path d="M36.8 247.5l-.6-2c28.2-7.8 58.9-23.6 83.5-36.4a389 389 0 0 1 32.1-15.6l.8 2c-7.9 3-19 8.8-32 15.5-24.7 12.8-55.4 28.7-83.8 36.5z"/><path d="M36.8 247.5l-.6-2c60.7-15.8 93-25.8 112-39.9l1.2 1.8c-19.3 14.2-51.7 24.2-112.6 40z"/><path d="M35.1 248.1l-.5-2c24.3-6.4 43.8-9.4 59.4-11.8 24.4-3.7 40.5-6.2 52.8-18l1.4 1.4c-12.7 12.4-29 15-53.9 18.7-15.6 2.4-35 5.4-59.2 11.7z"/><path d="M36 248l-.4-2.2c5.2-.9 14.6-1.6 25.5-2.4 29.7-2.4 74.5-5.9 83.9-16.3l1.5 1.4c-9.8 11-53.4 14.5-85.3 17-10.8.8-20.2 1.6-25.3 2.4z"/><path d="M106.8 248.3c-9.5 0-19.7-.6-29.5-1-16.4-1-32-1.7-40.6.2l-.4-2c8.9-2 24.5-1.2 41.1-.4 26.7 1.4 57 3 66.6-6.5l1.5 1.5c-6.6 6.5-21.6 8.2-38.7 8.2zM303.8 557h-.3v-1.1l-.6-1 1.5-.7.9 2-1.3.6-.2.2z"/><path d="M302.4 555.9h2.1v.3h-2.1z"/><g><path d="M260.8 724.8c-2.2-.4-5-4-6.1-5.6-.8-1.2-1.3-2.3-2.3-3.3-1.3-1.2-2.8-2.1-4.3-3-1.7-1.2-3.6-1.6-5.1-2.9l.9-5 .2-1.2c5.3 1.5 8.3 8.7 11.4 12.8 2 2.7 3.8 5.3 5.3 8.2z"/><path d="M262.6 726.3l-2-.4c-3-.6-6.2-5.2-6.8-6.1l-.5-.8c-.5-.9-1-1.6-1.7-2.3-1.1-1.1-2.6-2-4-2.9-.7-.5-1.5-.8-2.2-1.2-1-.5-2.1-1-3-1.7l-.6-.4.4-2 .7-3.6a33.4 33.4 0 0 0 .2-1.3l.2-1 1.1.2c4.4 1.3 7.2 5.7 9.7 9.7l2.2 3.5c2.1 2.8 4 5.4 5.4 8.4l1 1.9zm-7.5-8.5v.1l.5.7a22.8 22.8 0 0 0-.5-.8zm-11-8.2l2.2 1c.8.5 1.6.8 2.4 1.4 1.6 1 3.1 1.9 4.4 3.2l.5.5-1.3-2c-2-3.3-4.3-7-7.4-8.4l-.6 3.5-.1.8z"/></g><path d="M256.3 763.8h-2.1c0-7 0-14.4-3-21.6-1-2.5-2.6-5-4.2-7.7-2.6-4.4-5.4-9-5.8-13.6-.3-3.8.2-7.5.7-11l2.1.3c-.5 3.4-1 7-.7 10.6.4 4 3 8.4 5.5 12.6 1.6 2.6 3.3 5.3 4.3 8a56.2 56.2 0 0 1 3.2 22.4z"/><g><path d="M266.3 715.6c-8-1-14.1-13.5-21.5-16.7l.1-3.4c0-25.9-2.1-45.3-2.1-51.2.8 1.7 3.5 5.8 4.1 7.6.6 2 2 3.5 2.8 5.4 2.4 6.5 0 15.3.6 22.2.6 7.2 6 12 7.6 18.5 1.5 6.1 4 10.1 7.2 15.6l1.2 2z"/><path d="M268.4 717l-2.3-.4c-4.8-.6-8.9-5-12.8-9.1a31.7 31.7 0 0 0-9-7.6l-.7-.3.1-.8.2-3.3c0-17.3-1-31.7-1.6-41.2-.3-4.7-.6-8-.6-10v-4.5l2 4 1.4 2.4c1.1 2 2.4 4.1 2.8 5.4.3.9.8 1.7 1.3 2.5.6 1 1.1 1.8 1.5 2.8 1.5 4.2 1.2 9.3.8 14.2-.2 3-.4 5.7-.2 8.3.3 3.8 2.1 6.9 4 10.1 1.4 2.6 3 5.3 3.7 8.3 1.3 5.6 3.5 9.3 6.5 14.4l.5.9 1.2 2 1.2 1.8zm-22.5-18.8c3.2 1.7 6.1 4.8 9 7.8 2.9 3.1 5.9 6.3 9 7.8l-.3-.6c-3-5-5.3-9-6.7-15-.6-2.6-2-5-3.5-7.6a26.6 26.6 0 0 1-4.2-11c-.2-2.7 0-5.8.2-8.7.3-4.6.7-9.4-.7-13.2a14 14 0 0 0-1.3-2.4l-1.5-3c-.3-.9-1-2.3-1.9-3.7l.4 5.5a626.4 626.4 0 0 1 1.5 44.1z"/></g><path d="M277.3 736.2c-.5-1-.6-2.2-.6-3.4a8 8 0 0 0-.7-3.2c-.6-1.3-1.7-2.5-2.8-3.6a58.4 58.4 0 0 1-7.8-9.8l1.8-1.2a66 66 0 0 0 6.5 8.5l1 1c1.2 1.3 2.4 2.6 3.2 4.2.7 1.3.8 2.7.9 4 0 1 .1 2 .4 2.7l-2 .8zM270 737.8l-1-1.4c-.7-1.1-1.5-2.2-2.7-3.2l-.5-.3c-2.6-2.1-4-3.1-5.5-6.6l-.5-1 2-1c0 .4.3.8.4 1 1.3 3.1 2.3 3.9 5 5.9l.4.4c1.5 1.1 2.4 2.4 3.2 3.6l1 1.3-1.7 1.3zM244.1 704.9v-2.1z"/><g><path d="M245 695.5a37.3 37.3 0 0 1-.9 8.3l-.2 1.2c-1 1.7-4.4 2.5-6.2 2.9-4.5 1-8.4 3.5-12.9 4.6 6.4-6.3 11.6-17.2 20.1-17z"/><path d="M221.3 714.4l2.8-2.7c1.8-1.7 3.5-4 5.2-6 4.4-5.6 9-11.2 15.4-11.2h1.3v1a38.6 38.6 0 0 1-.8 8.5l-.1.6-.2.6v.4c-1.2 1.9-4.3 2.8-7 3.3-2.2.5-4.3 1.4-6.5 2.3-2 .9-4.1 1.8-6.3 2.3l-3.8.9zm22.6-17.8c-5 .6-9 5.5-13 10.4l-2.5 3.2 2.2-1c2.2-.9 4.5-1.9 7-2.4 2.9-.6 4.7-1.3 5.3-2.2v-.4l.2-.6a67.4 67.4 0 0 0 .8-7z"/></g><path d="M196 728.6l-2-1c2-3.7 6.8-10.2 11.7-11.5 2.6-.8 4.8-.6 7-.4 2.7.2 5 .4 8-1.4 1.1-.6 2.2-1.5 3.4-2.6l1.5 1.5a19.5 19.5 0 0 1-3.8 3c-3.6 2-6.5 1.8-9.3 1.6-2-.2-4-.3-6.3.3-3.9 1-8.4 7-10.3 10.5z"/><path d="M206.2 728.6c-.5-4.3 2.6-11 6.8-12.4l.6 2c-3 1-5.6 6.8-5.3 10.2l-2 .2zM224.5 746.5l-1.7-1.3.3-.5c1.6-2 3.5-4.5 3.8-7 .2-1.6-.3-3-.8-4.7-.4-1.4-.9-3-.8-4.6 0-3.6 1.9-4.5 4.2-5.6l1.2-.6c3.6-1.8 10.6-8 11.2-12.3l2.2.3c-.8 5.4-8.5 11.9-12.4 14l-1.3.5c-2.2 1-3 1.4-3 3.7 0 1.3.4 2.6.8 4 .5 1.8 1 3.5.8 5.5-.3 3-2.5 5.9-4.2 8.1l-.3.5zM277 721.2c-1 0-2-.3-3.5-1.1l-.7-.5c-1.5-1-4-2.6-6.6-3l.2-2c3.2.3 6 2.1 7.6 3.2l.7.5c2 1.2 2.9.8 4.4.3 1.3-.5 3-1 5.4-.5l-.5 2.1c-1.9-.4-3 0-4.2.4-.8.3-1.7.6-2.8.6z"/></svg>