<svg xmlns="http://www.w3.org/2000/svg" width="595.3" height="841.9"><path d="M562.1 589.5l-2 1.4a57.2 57.2 0 0 1-12.8 6.4c-5 1.8-10.7 3.3-17 4.4-.6.7-1.2 1-1.7 1h-.3v-.6l-.7.1a172.7 172.7 0 0 1-72.8-4.4l-.3-.1c-2.3-.8-4.6-1.7-6.7-2.8h-.2l-3.1-1.7a118 118 0 0 1-5.4-3.6l-.8-.5-1-.7c-20.4-14.8-27.9-31.8-34.5-46.8-6.4-14.7-12-27.3-27.7-36.4-7.1-4-15.8-6-26.7-6-4.3 0-9 .3-14.6 1 2.6 1.3 5.7 3.2 9 5.4l4 2.7h-.2a158 158 0 0 1 28 26.2l.2.1c2.7-.5 8.5 3.5 8.6 3.5 5.8 4 15 15.3 15.7 17l1.3 3-2.8-1.7c-2.4-1.5-5.6-2.5-8.5-3.4l-.8-.3c1.5 4.4 5 8.3 8.4 12l2.8 3.2 3 3.4-4.2-1.8c-3-1.3-5.4-2.5-8.2-4h-.1c-2.3-1.2-4-2.5-5.6-3.8.8 2.9 2 5.6 3 7.5 2.4 4.6 5 9.3 9 12.3l4.6 3.7-5.7-1.9a20.7 20.7 0 0 1-10.8-7.8l-3.1-4-1.2-1.5-1.3-1.6-2-2.2c.2 2 .6 4 1 5.8l.2 1.9c.7 3.9 3 8.3 4.8 11.2l3.3 5.8-5-4.4a71 71 0 0 1-10-11.8l-.6-.9-2-2.8-.5-.8c-.5-.7-1-1.4-1.4-2.4-.5-1.1-.9-2.3-1.2-3.5-2 3.4-3.6 9-4.3 11.4-.3 1.4-.5 2-1.5 2l-.9-.2v-.9c-.2-4.5-1.1-10.4-2-16.2-.8-4.4-1.2-10.8 3-16v-.2a101.4 101.4 0 0 0-33.3-14.2l-1.7-.5-.9-.3.2.1-3.5-1-1.5-.5h-.2c-12-3.8-20-8.7-23.4-21.4h-.2l-1.3.3-2.8.5h-.5c-6.5 1.1-12.4 2-18 2.6h-.6l-.5.1-1.7.2c-4.5.4-8.9.8-13.1 1h-.7l-8.3.2h-3.6c-5.2-.2-10.2-.5-15-1l-.6-.1-2-.3a135.3 135.3 0 0 1-60.6-23.7c-3.1-2.4-6-5.2-8.8-8.1l-.7-.8-.7-.8c-2.6-3-5.2-6.3-7.6-9.9l-.2-.3-1-1.5-3-5c-5 2.6-9 5.8-12.2 9.6-15.4 18.4-11.5 31.5-4.5 42.8 1-.7 2-1.2 3-1.6h-.1c3.4-3.6 16.5-4.5 20.3-3.1 5 1.8 11.6 5.6 14.6 9.6l1.4 2-2.4-.3c-1.5-.2-3.3-.7-5-1.2l-3-.8c-1.4-.3-3.2-.1-4.8.5 1.3 1.2 4.2 2.5 6 3.4a149.3 149.3 0 0 0 12.6 6.2l4.4 2-5.1.4a38.2 38.2 0 0 1-14.6-1.3c1.2 1.4 2.6 2.5 4.1 3.6l2.7 2c2.6 2.2 9.8 6.2 13.6 7l2.5.4-2.1 1.5c-2.6 1.7-6.2 2-10.8 1a34.6 34.6 0 0 1-16.8-10c.6 1.9 1.7 3.1 3.3 5l.5.7 3 3 2.4 2.5a33 33 0 0 0 2 2l2.9 2.9 1.4 1.6-2.2.2a28 28 0 0 1-23.6-12.3c-.2 4.2 1.9 8.9 3.6 12.8l.9 2 1 2.7-2.5-1.2a34.1 34.1 0 0 1-11.3-10.8c-2.3-3.2-9.4-18-6-23.8l.1-2.1a71.3 71.3 0 0 1-12.1-11l-.7-.7-.7-.8c-19-22.6-14.4-41.7-9.9-51 5-10.6 16.9-16.5 33-22-1.6-5.4-3.8-19.8-3.8-19.8-1.8-17.5-4.5-36.2-10-45.8l-1-1.2a81.6 81.6 0 0 0-6.8-7l-2.2-2-.6-.6c-9.1-8.8-18.1-20-23-41.3l-.1-.4c-4.2-18.7-4.7-40.1-1.3-58.8C87.5 237.8 94 225 102 221c5.4-2.7 18.8 4.7 32.7 17.8 7.4 7 18.1 18.7 27.3 34.8 2.5 4.4 4.5 9.2 6 14.2l-2 .6a64 64 0 0 0-5.9-13.8c-8.5-15-18.5-26.1-25.7-33.1-1.8 5-1.8 11.2 0 17.7l-2 .6c-2-7.3-1.9-14.3.3-20-13.8-13-26-18.8-29.8-17-7.1 3.6-13.3 15.9-16.5 33l1.9 1.2c4.3 3 8 8.6 10.1 15.3a73.1 73.1 0 0 1 4.6-14l2 .7c-6.1 18.5-3 45.4 18.4 60.7l.8.6-10.5 17.8-7.7 13 3.6 3.7 21-37.1L168 340a123 123 0 0 1-.5-8.1h2.1a101.8 101.8 0 0 0 .7 10 156 156 0 0 0 3.5 19.6l.2 1c5.8 21 12.4 30.8 22.5 44.3a65 65 0 0 0 10.3-9.7c7-8.1 11.2-21 12.9-38.5v-.9c.3-3.6.5-7.3.6-11.2-2 0-3.8-.7-5.4-1.8-5.1 0-14-8.1-15.8-11.4a34.8 34.8 0 0 1-5-16.8l.2-2.4 1.7 1.8c1 1.1 2 2.7 3 4.1l1.8 2.6c.8 1.1 2.3 2.1 4 2.7-.2-1.8-1.6-4.6-2.4-6.5-.5-1-1-1.8-1.2-2.5-1.3-3.5-2.9-7-4.4-10.3l-2-4.4 4 3a39 39 0 0 1 10.4 10.4 22 22 0 0 0-.9-5.4l-.7-3.3c-.6-3.4-3.5-11-5.9-14l-1.6-2 2.6.2c3 .4 6 2.5 8.8 6.2a34.4 34.4 0 0 1 6.4 18.4c.7-1.8.8-3.4.8-6v-.7l-.3-4.2-.3-3.5c0-.9 0-1.8-.2-2.8-.1-1.2-.3-2.6-.3-4.1v-2.1l1.7 1.2a28 28 0 0 1 10 24.6c3-3 4.4-8 5.6-12l.7-2.2.8-2.7 1.2 2.6c2 4.8 2 11 1.7 15.5 0 .1-1.4 15.1-8.2 18 0 1-.2 2-.6 2.9 10.6 18.2 16.7 55-9.4 83a93 93 0 0 1-2.6 2.8l2 1.1c4 2.2 8.7 4 14.1 5.3 3.7 1 7.6 1.7 11.8 2.2h.3l6.7.8c6.3.5 13.4.8 21.8.8h13v-.1h1.5l13.2-.4 5.5-.2c5.3-.1 12.3-.3 19.2-.3 23.3 0 50 1.5 70.7 12.5 20.2 10.6 29 30.6 38.3 51.7 8.3 18.9 17 38.4 34.3 53a81 81 0 0 0 10 7.1l.8.5a142.7 142.7 0 0 0 7.4 4.2c11.6 6.2 26 12.2 41.5 17.2l.7.3c9.6 3 19.5 5.8 28.6 7.8l2.3.5zM530 591v-1.6H527c-2.7 0-5.4 0-8.2-.6l-2.5-.5c-3.8-.7-7.5-1.4-11.2-2.6l-3-1c-7.3-2.3-14.8-4.7-21.7-7.6a281 281 0 0 0-9.7 13.2l4.8 1.3c2 .5 4.2 1.1 6.3 1.4l16.3 3c10.5 1.9 22.1 2 31.3 0h.1v-.4l.1-.6v-.4-.7-.3l.1-.7v-.4-.6-.5-.4zM527 587h2.9a199 199 0 0 0-.1-4.2c-15.3-5-29.4-10.8-41-16.9a355 355 0 0 1-7 9.3c6.7 2.7 14 5 21.1 7.4l3 1c3.6 1 7.1 1.7 10.9 2.4l2.5.5c2.6.5 5.1.5 7.7.5zm2.2 11.6l.1-.5a93.3 93.3 0 0 1-31.5-.3c-5-1-10.4-1.9-16.2-2.8-2.3-.4-4.4-1-6.5-1.6-1.9-.5-3.8-1-5.7-1.3a64.8 64.8 0 0 0-4 6.3 168.4 168.4 0 0 0 63.5 1.3l.1-.3.2-.5v-.3zM487 565l-4-2.2c-2 1.7-4.2 4.5-6.2 7l-2.6 3.1c-1.7 2-3.4 4-7 8.8l-4.4 6.4c-1.8 2.6-3.7 5.4-5.8 8.1 2 .7 4.2 1.3 6.4 1.8l3.2-5.3c1.4-2.2 3-4.4 4.6-6.4l2.4-3.4 7.5-10a418 418 0 0 0 6-7.9zm-5.9-3.3l-.5-.4-.9-.5-3.5-2.3a25.9 25.9 0 0 0-6.3 6.3l-.8 1.1a231 231 0 0 0-8.2 11l-6 8.8-5.2 7.8 5.1 2c2.4-2.9 4.3-5.8 6.3-8.6l4.5-6.5c3.6-4.8 5.3-6.9 7-8.9.8-.8 1.6-2 2.5-3 2-2.4 4-5 6-6.8zm-12.8 1.8c1.7-2.2 3.8-4.8 6-6.3L470 554l-.3.3-.4.4-.3.3-.4.5-.3.3-.4.4-.3.4-.4.5-.3.3-.4.6-.2.3-.5.6-.1.2a33.3 33.3 0 0 0-2 2.6l-.9 1.1-.3.5-.4.4v.1l-.6.7a99.8 99.8 0 0 1-5.8 6.5c-2.8 2.7-5.4 5.5-7.8 8.2l-.9 1.1-3.6 4.3-3 3.4a98.3 98.3 0 0 0 7.2 4.5 289 289 0 0 0 5.4-8 279.6 279.6 0 0 1 14.2-19.9l.9-1zm-.2-10.4l.5-.4c-17.1-14.9-25.7-34.2-34-53-9.1-20.7-17.8-40.4-37.3-50.7-20.3-10.7-46.6-12.2-69.7-12.2-6.9 0-13.9.2-19.2.3l-5.5.2-11.4.3a106 106 0 0 0 4.7 7.8c2.3 3 4 4.3 7 6.2h.2c.5 0 .9-.2 1.3-.3l2-.4 2.2-.5 1.3-.3a126.7 126.7 0 0 1 13.9-1.9h.8l2.6-.2h1.8v-.1h8.5l2.1.1 2 .1 2.1.2 2.1.2c.7 0 1.3.2 2 .3l2.2.3 1.7.2 2.4.5c.6 0 1.2.2 1.7.3l2.5.5 1.6.4 2.4.6 1.8.5.8.2 1.2.3 1.1.4 1.3.4.4.1 1.2.4 2 .7 1.2.4 1.9.8 1.3.5 1.6.6 1.5.7 1.3.6 1.9.8.8.4a126.4 126.4 0 0 1 8.4 4.4l1.3.8.4.2a40.2 40.2 0 0 1 1.3.9l1.3 1h.1l1.2 1 .9.7.1.1 1.1 1 .2.2.9.8.4.4.7.7.4.4.7.8.4.4.7.8.4.5.7.8.4.5.7.8.4.6.7.8.4.6.7 1 .4.5.8 1a113.7 113.7 0 0 1 1.4 2l.2.4a51.2 51.2 0 0 1 1.4 2.1l.7 1c0 .3.2.5.4.7l.5 1 .7 1 .6 1a43.4 43.4 0 0 1 1.8 3.1l.6 1.1 1 1.8.6 1 1.2 2.2.3.6 1.5 2.8.3.6 1.2 2.3.4.7 1 2.2.2.3.6 1 .2.4c0 .3.2.5.3.7l.6 1 .2.5.4.9.5 1 .4.6c3.3 6.6 6.7 13.3 10.2 19.4l.5 1c3.9 6.8 7.5 12.2 11 16.5l.6.7a86 86 0 0 0 1.9 2.2l.4.4.7.8.6.5.7.7.6.6.6.5a22.3 22.3 0 0 0 2.5 2.1l.9.6.5.3.3.3 1-1.3 1.4-1.8.6-.8.1-.2.6-.7.2-.3.5-.6.2-.3.5-.6.2-.3.6-.7h.1l.8-.9.1-.1zm-8.5 10.6l.3-.4h-.2l-.5-.4-.8-.6-.5-.4-1-.8c-.2 0-.2-.1-.3-.2l-1.3-1.1-.3-.3a48 48 0 0 1-1-1l-.3-.3-1.2-1.2h-.1l-1.3-1.5-3.1 20.7c2-2.2 4.1-4.5 6.4-6.7l.3-.3 1.2-1.3.5-.5 1-1 .6-.7.8-1 .8-1zm-14 14.2l3.5-23.7-9.5.7-12.9 1 .5.6.7 1 1 1.4.6.8a88.6 88.6 0 0 0 3.3 4.3l.5.6 1 1.4.7.7 1 1.1.5.7 1 1.1.4.6 1.4 1.5 1.3 1.4.4.4.8.8.4.4.7.7.4.4a37 37 0 0 0 .9.9l.8.7.2.1.4.4zm-3.7 5.3l2.9-3.3a14 14 0 0 1-1.7-1.4l-.2-.2-.7-.6-.4-.4-.7-.7-.5-.4a44 44 0 0 1-.6-.7l-.6-.6-.6-.7-.6-.6-.7-.7-.7-.7-.7-.8-.6-.8-.7-.8-.7-.9-.8-.8-.7-.9-.7-1-.7-.8-.8-1-.7-1-.8-1-.7-1-.9-1-.6-1-.9-1.2-.6-.9-.4-.5-.5-.8-.8-1.1-.6-1-.4-.6-.6-1a68.9 68.9 0 0 1-1.6-2.5l-1-1.7-.5-.8-1.4-2.5a150 150 0 0 1-5.8-12l-.5-1.1-.5-1.2a546 546 0 0 1-2.1-4.9c-2.3-5.4-4.7-11-7.4-16.2l-.5-1c-3.2-6.2-6.9-12-11.4-16.6l-.8-.7a38.7 38.7 0 0 0-4.9-4.1 74.4 74.4 0 0 0-11-6.4l-1-.4c-8-3.5-16.7-5.9-26.2-7l-.6.5-.4-.6c-10-1-20.6-.7-31.6 1l-.1.7a45 45 0 0 1-.3 2.3l-.3 1.2-.2 1.1-.3 1.1-.4 1.2-.3 1-.4 1.2-.4 1-.6 1.3-.4.7-1 1.8-.1.3-1.3 2.2-3.6 5.6-2 3.3-.2.3-2.2 3.3h.8c2.4-.5 4.7-1 7-1.3h.1l6.2-1.2 1.5-.2 4.4-.8 1.8-.3 9.5-1.4h.3c7-1 13-1.4 18.3-1.4 11.3 0 20.3 2 27.7 6.3 16.3 9.4 22.3 23 28.7 37.4 6.8 15.5 13.8 31.5 34 46l3-3.6zM429 547l7.7-10.7-7-1-15.7-2.2.3.8a66.9 66.9 0 0 0 2.9 6l.5 1 1.5 2.8 1.4 2.5.5 1a322.7 322.7 0 0 0 1.6 2.5l.9 1.5.7 1 .5.8 4.2-6zm-16.5-17.4l12-16.7-21-3.1c2.5 4.9 4.7 10 6.9 15l2 4.9zm-10.7-23.3l10.1-15.8-20 1.2c3.8 4.2 7 9.3 10 14.7zM389 488.8l5.2-19.2-12.6 6.4-6.9 3.5a74.9 74.9 0 0 1 14.3 9.3zm2.1 75l3.3 1.7c-3.7-4-7.6-8.7-8.7-14.1l-.4-1.8 1.8.6 2.6.8c1.7.5 3.4 1.1 5 1.8-3-3.9-8.5-10-12.5-12.9-.9-.6-2.1-1.3-3.4-1.9a10.6 10.6 0 0 1 .2 12.4 10.6 10.6 0 0 1-18.6-3c-2.6 4.2-2.2 9.2-1.6 12.7.7 3.7 1.2 7.5 1.6 11a29 29 0 0 1 4.8-9.8l1.2-1.4.5 1.8.6 2c.3 1.1.6 2.3 1.1 3.4.3.7.7 1.2 1.2 1.9l.6 1 2 2.7.6.8c1.4 2 3 4.2 4.7 6.3-.7-1.8-1.3-3.7-1.7-5.5l-.3-1.9c-.5-3-1.2-6.6-1-9.7l.3-3.6 1.8 3.2c1 1.7 2.2 3.1 3.7 4.7l1.4 1.9 1 1.4 3.3 4c1.5 2 2.9 3.3 4.5 4.5a56.3 56.3 0 0 1-9.2-20l-.5-3.3 2.3 2.4c2.3 2.3 4.4 4 7.6 5.8h.2zM377.2 549c1.3-1.8 1.8-4 1.5-6.2a8.4 8.4 0 0 0-8.3-7 8.4 8.4 0 0 0-6.8 3.5l-.4.6a8.1 8.1 0 0 0-1.2 4.8 8.4 8.4 0 0 0 15.2 4.3zm-6.8-15.4h.7c-11.3-13-23-21.8-29.3-26.1l-3.6-1-2.1-.6a60.6 60.6 0 0 0-9.4-1.3c-1.7 0-3.2.3-4.8 1a9 9 0 0 0-5 6c-1.2 4.3.8 12.1 3 14.3l3.2.9a20 20 0 0 1-.3-5.8c0-1.4.6-6.3 2.5-7.9a10 10 0 0 1 6.2-1.7c2.6 0 5.5.6 7.7 1.6 6.5 2.9 13 9 19.5 18.2l.6.9a35 35 0 0 1 3.3 5c2-2.2 4.8-3.5 7.8-3.5zm.4-56l-5-21.8-18.4 15.6a90.2 90.2 0 0 1 23.4 6.2zm-28-6.7L331 450.8l-2.9 3.6-13.9 17.3c10-1.4 19.6-1.7 28.8-.8zm-32.7 1.4l-3.1-7.4-.4.1-.7.2-1 .2-.7.2-1 .2-.8.2-1 .2-.8.2c-.4 0-.8 0-1.1.2h-.8l-1.1.3a147 147 0 0 1-2.7.3l-1.1.2h-.8l-1.2.2h-.8l-1 .2h-.9l-1 .1-.9.1h-1l-.8.1h-1l-.8.1h-1l-.8.1H277c-2.3 0-4.8.3-7.2.6l-5.1.5-2.7.1a132.3 132.3 0 0 1-15.4.3h-.5l-.9-.1-1-.1-1.4-.2-2.2-.3h-.6l-1-.2-.4-.1a89.4 89.4 0 0 1-2.7-.5l-2.7-.6h-.2l-5.3-1.2-3.7-.8-4.4-1.2c-3.4-1-7.4-2.3-10.7-2.3-2.6 0-4.5.8-5.7 2.3-.4.5-.8 1.1-1 1.8a18 18 0 0 0-1 9v.2a31.6 31.6 0 0 0 8 15.2h.2a10 10 0 0 0 .6.5l.3.2 1 .7.3.2.8.5a15.5 15.5 0 0 0 3.5 1.3 11.2 11.2 0 0 0 4 .3h.2c3.7-.6 5.5-4.2 6.8-7.7l.6-1.4.2-.5.4-1.2.4-1v-.2l.1-.1 1.8-2.6.2-.1 1.3-.7h.2l.5-.2 1.5-.2c1 0 2.2.2 3.2.4l2.2.3h1.7l4.7.3h2.7l.2.1 4.6.1c2.6 0 5.2-.1 8.6-.5l5.2-.6 1.2-.2a101.3 101.3 0 0 1 12.9-1l3.5-.3h.1l6.3-.9 2.2-.3 1-.1 1-.3c2.3-.6 7.5-2 14.7-3.2zm-1.4 9.7c.9-2.4 1.4-5 1.7-7.6-7.1 1.1-12.3 2.5-14.5 3.2l-1.3.3h-.5l.4 1.5.1.4a31.7 31.7 0 0 1 .4 1.9l.2 1v.8l.2 1a12.5 12.5 0 0 1 .2 1.9v1l.1 1v4.9l-.1 1.8-.1.7-.2 1.2v.7l-.3 1.2-.1.7-.3 1-.1.7-.3 1-.2.6-.4 1-.2.5-.2.3 1.8-.3.6-.1 5.5-8.6 2.5-3.8 1.1-1.8c1.6-2.5 2.8-4.9 3.7-7.3l.2-.4v-.4zm-2.5-19l-3.4-8-.4-1a214.1 214.1 0 0 0-9.7 2.6l-.6.2h-.6l-1.7.3h-.3a306 306 0 0 1-17.2 1.4h-3l-1.6.1-2.7.1h-16.3c-6.3-.1-13.8-.3-21.3-1.3a15 15 0 0 1-4.4 4.2l-2.3 1 3.8 1 3.5.8 2.5.6 3 .6h.1a132.4 132.4 0 0 0 6.8 1.3l.4.1 4.6.6h.8l2.4.2h6.3l6.6-.4 3-.1h.4l4.6-.5c2.5-.3 5-.6 7.5-.6h3.8c3.8 0 8.2-.4 12.6-1 .7 0 1.3 0 1.9-.2h.2l1.7-.2h.4c.4-.2 1-.2 1.4-.3l.6-.1 1.2-.2.7-.2 1-.2.8-.2 1-.2.8-.2.8-.2h.3zm-12.5 28.4v-1.7-.4l-.1-1.6v-.3l-.2-1.7v-.2l-.2-1.7v-.2l-.3-1.6v-.1l-1-3.7h-.1l-6 .9c-.1 1.5-.5 3.1-.9 4.8A61.1 61.1 0 0 1 279 499v.2l-.6 1-.3.7-.4.6-.5 1-.3.5-.7 1-.2.5-.8 1.3-.3.4-.7 1.3c5-.6 10.4-1.4 16.3-2.4l.7-1.1v-.1c.3-.4.5-.8.6-1.3v-.1a20.8 20.8 0 0 0 1-3.1v-.2c.2-.5.3-1 .3-1.6v-.3a38.2 38.2 0 0 0 .3-2l.2-1.5v-.4a43.8 43.8 0 0 0 0-2zm-10.2-35.9l3.4-.3c-2-2-4.4-5.4-5.2-6.8a47 47 0 0 1-3.7-10.6h-8.7a99 99 0 0 1 1 4c1.3 5.4 2.6 11 6.8 14.2 1 0 1.9 0 2.8-.2h.5l2.6-.2h.5zm-11.6.8h2.3a30 30 0 0 1-6-14.1l-1-4.5c-4.8 0-9.2-.3-13.2-.6-1.8 7.5 2.4 16 4.5 19.5h8.8l3.5-.2h1.1zm-10.7 28.9v-3.8c-2.7.3-5 .4-7.1.4h-4.5c-.2 1.9 0 3.8.4 5.9a33.5 33.5 0 0 1 .2 8.4 119.4 119.4 0 0 0-1 6l-.2 1.3v.2l-.3 1.2v.2l-.4 1.3v.1c-.3 1-.5 1.9-.9 2.8 2.6 0 5.2 0 8-.2v-.3l.7-1.4c0-.2 0-.4.2-.6l.5-1.3.2-.6a36.3 36.3 0 0 0 1.3-3.8l.4-1.3.1-.6.4-1.3.1-.5.4-1.4v-.5l.4-1.4v-.5c.2-.4.3-.9.3-1.3l.1-.5.2-1.4v-.5l.2-1.2.1-.8.1-1v-1l.1-.6zm-6.6-28.6h1.4c-2.3-4.2-5.8-12.2-4.1-19.7-1.8-.2-3.5-.3-5-.6l-.2.3-.2.6-.2.7-.1.5-.2.7v.5l-.2.8v3a12.8 12.8 0 0 0 .2 1.3l.1 1v.3a16.1 16.1 0 0 0 .3 1.3l.3 1.1v.2c.8 2.6 1.8 5.2 2.7 7.7l.2.3h5zm-7.3 0l-2-5.7-.1-.2a20 20 0 0 1-.3-1l-.1-.4-.3-.9v-.5l-.3-.8v-.6l-.2-.8-.1-.6-.1-.8v-.6l-.1-.8v-.6-.8-.6-.8l.1-.6.1-.7.2-.7.1-.7.2-.7.2-.7c-3.4-.5-6.7-1-9.9-1.8-2 3-3.5 6.2-4.2 9.2a17.8 17.8 0 0 1-1.8 12c6.5.8 12.9 1 18.6 1.1zm-27.8-35.3a69.5 69.5 0 0 0 9.8-79.4l-.2.3a9 9 0 0 1-.7.8l-.1.2-.6.6-.1.1-.9.7-.9.5-.1.1-1.7.8 5.7 3.8.8 1.4-8 6.8 12.5 7.3-10.8 8.1 6.7 10.4.5 1.2-11.7 5.2 5.5 9.8-1.3.5-9.9 1.8 2 8.5.2 1.4-13-1.2 3 14-2-.5-13.4-3.5 1.5 13.3-1.4.3-.4-.2-11-6.1-2.6 12-10.4-6.5-5.8 12.3-9.6-7.6-4.6 10.3-11.2-7.1-3.5 14-1.4.3-8.4-6-1 15.4-.4 1.3-9.7-1.4 2.5 12.6-8.6 4.3 10.7 6.7-7.4 7.2 10.3 4.3-.4 1.3-5.2 4.7c3.4 3.8 7.3 7.4 11.1 10.1l.1-.2.3-.5.2-.4a10.8 10.8 0 0 1 1.2-1.7c-7.2-11.6-12-26 4.5-45.6 3.4-4 7.6-7.4 12.8-10.2l1-.5c7-3.5 14.8-5.7 23.1-8 5.3-1.6 10.7-3 16.2-5l.2-.1c2.8-1 5.7-2.1 8.5-3.4l-.1-.5h1.2a84.6 84.6 0 0 0 26.4-19zM237 318.6c.2-3.3.3-7.5-.6-11.4-1.5 5.2-3.6 11.3-8.3 14l-2.4 1.5.8-2.6a26 26 0 0 0-6.8-23.8l.1 1.5.3 2.9.2 3.3.3 4.5v.8c0 3.8 0 6.2-2.8 10l-1.6 2.4-.3-2.9-.2-2.4c-.3-3.7-.7-7.8-2.3-11.5-1-2.3-2.1-4.7-3.8-6.8-1.5-2-3.2-3.6-4.7-4.5a49.8 49.8 0 0 1 5.3 15.6c.7 3 1.4 5.8.4 9.4l-.8 3-1.2-2.9c-.9-2.2-3.6-5.4-4.7-6.7a26.8 26.8 0 0 0-4-3.7c1.1 2.4 2.2 4.9 3.1 7.4l1 2.3c1.9 3.9 3.2 7 2.6 9l-.3 1-1-.2c-2.6-.6-5-2-6.4-3.8a52.6 52.6 0 0 1-2.6-3.9c.6 4.1 2.5 9 4.4 12.3 1.4 2.4 6.9 7.4 11 9.4a10.4 10.4 0 0 1 .2-11.8 10.5 10.5 0 0 1 14.7-2.5c2.3 1.7 3.8 4.2 4.2 7 3.7-2.5 5.7-10.8 6.2-16zM230.4 500v-.4-.9-.3-1-.3l-.1-1.1v-.1l-1-6.6-.3-2-.2.5-.1.4-.2.4-.2.4-.2.4-.1.4-.2.4-.3.4-.1.3-.4.7-.1.2a9.8 9.8 0 0 1-.6.9l-.3.4-.3.3-.3.4-.3.2-.3.4-.3.2-.4.3-.3.2a6.3 6.3 0 0 1-.7.5l-.5.2a3 3 0 0 1-.3.2l-.6.2h-.3a13 13 0 0 1-2 .3l-.3.1H218 217.4h-.2-.1l-.6-.2h-.6c-.3-.2-.6-.2-1-.3l-.6-.2a17 17 0 0 1-.9-.3l-.3-.1-.3-.1-.4-.2-.8-.4h-.1c-.3-.3-.6-.4-1-.6l-.5-.4a9.3 9.3 0 0 1-1-.7l-.5-.4-.2-.1-.6-.6-.4-.4-.3-.3-.5-.6-.4-.4-.1-.1-.1-.2-.6-.7-.1-.2-.1-.1-.2-.3a29.7 29.7 0 0 1-4.1-7.1l-.1-.2v-.1l-.4-.9v-.1l-.3-.7-.2-.9-.3-1-.1-.7a14 14 0 0 1-.3-1.7v-.1-.4l-.1-.1v-.6-.3-.3l-.1-1.7c-1-.4-1.9-.8-2.8-1.4A111.6 111.6 0 0 1 190 483c-1.1 2.2-2.9 4.9-4.6 7.5l-2.4 3.7a133.5 133.5 0 0 0 45.3 13.9l.2-.2c0-.2.2-.3.3-.5l.3-.5.2-.4.2-.6.2-.4.2-.6.1-.5.2-.6v-.5l.2-.7v-.5-.7l.1-.4v-.8zm-1.1-59.9a33 33 0 0 1 3.3-6.5 63.1 63.1 0 0 1-12.3-4.7l-.2.3-.3.3-.6.7-.3.3-.5.7-.3.2-.8.9a30.1 30.1 0 0 0-4 4.7c-1.1 2-1.9 3.7-2.6 5.5l-.6 1.4c1-.8 2.1-1.6 3.3-2.3l1.3-.8c3-1.9 7.6-4.7 11-3.7 1.6.6 2.8 1.7 3.6 3zm-1-101c.5-1 .7-2 .6-3a8.4 8.4 0 1 0-8.6 8.3h1.3a8.4 8.4 0 0 0 5.8-3.5l.3-.4.6-1.1v-.4zm.3 109.8c.4-3.2-.2-8.7-3.6-9.7-2.4-.8-6.7 1.8-9.2 3.4l-1.3.8a30 30 0 0 0-3.2 2.3l-3.2 2.2-.2.2c-1.3.7-2.4 1.2-3.5 1.5a4.8 4.8 0 0 1-2.2 0h-.5l-.3-.1-.5-.2h-.3l-.5-.2-.3-.2-.5-.2-.3-.1-.5-.3-.3-.2c-.2 0-.3-.2-.5-.3l-.3-.1-.5-.4-.3-.2a12 12 0 0 1-.5-.4l-.2-.1-.7-.6-.2-.2-.4-.4-.2-.3-.4-.4-.2-.3-.3-.3-.2-.4-.3-.3-.1-.3-.1-.2-1 .4-1 .4-1.3.6-.9.3-1.5.6-.8.3-.4.2 2.1 1.5a71 71 0 0 0 22.2 12.6c4 1 8.4 1.9 11.7 0 3.4-2 6.2-6.5 6.7-10.9zm-23.3 11.7h.4a89 89 0 0 1-19-11.7l-3.2-2.4a166.7 166.7 0 0 1-12.4 4l1.7 1 .7.4a46 46 0 0 1 6.4 4.4l1.3 1 3.6 2.6 4.2 3 4.1 3c1.8 1.3 4 2.8 6 3.7l.2-1.3v-.4l.2-.1v-.4l.3-.6v-.2l.4-1c1-2.6 2.7-4.2 5.1-5zm-11 8.7l-2.4-1.7-4.1-3-3.2-2.2a68.3 68.3 0 0 1-9.9 14.8c-2 2.8-4.2 5.7-6.5 8a66.8 66.8 0 0 0 12.8 8l2.5-4c1.7-2.5 3.5-5.1 4.5-7.2l1.9-3.7c1.6-3 3.4-6.4 4.4-9zm.4-61.2l-5.6-7.7-25.8 7.9c2.4 4.1 5 8.2 8 12.2l8.8-3.9a92.8 92.8 0 0 0 14.6-8.5zm-32.5-1.8l25.6-7.7c-3-4.3-5.5-8.6-8-13.5l-24 7.4c1.8 4.7 4 9.4 6.4 13.9zm20.7 54.8l-3-2.1-.4-.4c-1 1.3-2.4 2.6-3.7 3.8l-2 2c-1.9 2-3.4 3.3-5 4.6l-4.8 3.7-1.3 1-.6.5-.8.6-.7.6-.6.4-.9.7-.2.2c2.4 2.6 5 5 7.6 7.2 2.3-2.3 4.4-5.2 6.5-8a190 190 0 0 1 2.6-3.4c3.2-4 5.8-8.2 7.3-11.4zM155 390.5l24-7.4-3-7-23.3 7.5 2.3 7zm-2.9-9l23.2-7.4c-1-3-2.1-6.2-3.1-9.8l-22.4 7.1c.6 3.4 1.4 6.8 2.3 10.2zM138 341.7l33.2 19.2-1-4.9-34.9-18.8-15 28.3c1.3 2 2.3 4.2 3.3 6.8 1.2.2 6.1.9 12 .3l-.1-1.6c-.5-3-1-7.4-1.4-10.8v-.1l-.5-5v.1l-.4-1-1-.4 5.8-12zM171.3 453l-2-1.2-1.1-.6-.5.2-2.2.6-.7.2-1.2.3-1.8.5-1.1.4-1.8.5-1.2.4-1.6.5-1.2.4-1.6.6-1.2.4-1.5.6-1.2.5-1.4.6-1.2.5-.9.4 3 5 .6-.3.9-.4.9-.5.8-.4 1-.5.8-.4.9-.4.7-.4 1-.5.7-.3 1-.5c.3 0 .5-.2.7-.3l1.3-.5.5-.3 1.8-.7 1.7-.7c2.4-1 5.2-2 7-3.7zm-21.9-83.7l20.8-6.7-22.4-12.9c0 6.7.6 13.2 1.6 19.6zm15.7 172.1c2.5.6 4.7.7 6.5.3a49.5 49.5 0 0 1-11.6-6.4c-.8-.8-1.7-1.4-2.5-2-2.5-1.8-4.8-3.5-6.4-7l-1.4-2.8 2.8 1.5c2.2 1.1 6.3 1.8 8 2 1.7.4 3.5.4 5.4.3a120.1 120.1 0 0 1-9.4-4.7c-4-1.8-7-3.3-7.8-5.3l-.3-.9.8-.4c2.3-1.3 5.2-1.8 7.4-1.3l3.1.8 1.4.5a38.4 38.4 0 0 0-11.3-6.5 33 33 0 0 0-14.3.7 10.5 10.5 0 0 1 8.5 8.7 10.5 10.5 0 0 1-19.6 6.7 49.5 49.5 0 0 0 6.6 17.7c1.9 2.7 4.6 6 7.7 8.4-2.1-5-4.5-11-2.7-16.1l.9-2.6 1 2.5a25.9 25.9 0 0 0 20.7 13.7l-1.1-1-2-2-2.4-2.4c-1.1-1-2.2-2.1-3.2-3.3l-.4-.6c-2.5-3-4-4.7-4.4-9.4l-.3-2.9 2 2 1.8 1.7c2.6 2.6 5.6 5.6 9.2 7.4 2.2 1 4.6 2.1 7.3 2.7zm4-120a132 132 0 0 1-8.8-13.6l.2-.1a118 118 0 0 1-13-37.2s-2.4-13.5-2.2-19.9l-9.6 3.7c2.2 25.8 5.3 33.7 11.2 49.2l2.1 5.5 2.7 5.1c0 .3.2.5.3.7l.4.8c1.7 3.4 3.5 6.7 5.4 9.7 4-1.3 7.7-2.6 11.2-4zm-16.4 5.6l3-1-.8-1.4-1-1.7-1.3-2.3-.8-1.5-2-4-.4-.7-1.4-3-16.8 3.8a130 130 0 0 0 3.7 17.4l1.2-.4 1.2-.4 1.7-.5 1.2-.4 1.5-.5 4.4-1.4 5-1.5 1.6-.5zm-21.5-14l15.7-3.5a3865 3865 0 0 0-5.2-13.8l-12.2 2.8 1.7 14.4zm4-60.8l10-4-6.3-3.6-3.6 7.6zm5.3 173.3a8.3 8.3 0 0 0-2-11.7 8.3 8.3 0 0 0-10.6.7l-.5.5-.2.2a9.1 9.1 0 0 0-.8 1c-.4.8-.7 1.5-.9 2.3a8.4 8.4 0 0 0 8.1 10.5c2.7 0 5.3-1.3 6.9-3.5zM129 396.4l11.9-2.7a129 129 0 0 1-2.2-7l-10.8 2.7 1.1 7zm-1.5-9.1l10.6-2.6c-.8-3-1.5-6.4-2.2-10.1a53.3 53.3 0 0 1-11.6-.1c1.2 3.8 2.3 8.1 3.2 12.8zm-3.7-14.3a1 1 0 0 0-.3-.7l.3.7zm-19.4-23.4l6.9-11.7c-8.5-6.4-14-18.3-15.4-33.2-2.4 4.1-5.2 7.6-8.4 10.5 4 17 10.4 27 17 34.4zm-8.7-49.2a38 38 0 0 0 1.7-23.3A31 31 0 0 0 86 258c-3 17.5-2.6 37.2 1 54.7a43.1 43.1 0 0 0 8.7-12.2l.1-.2z"/><path d="M459.8 563.4l-.3.3-.8 1-.8 1-.6.6-1 1.1-.5.5a38 38 0 0 1-1.5 1.6c-2.3 2.2-4.4 4.5-6.4 6.7l3-20.7 1.4 1.4.1.1 1.2 1.2.3.3a48 48 0 0 0 3.9 3.4l.5.4.8.5.5.4.2.1zM374.7 361.7l-2.5 5.2-2 4c-2 4.7-4.5 10-7.4 13.6a28.1 28.1 0 0 1-6.5 6.5l-.3.2a15.2 15.2 0 0 1-6.8 2.9 10.5 10.5 0 0 1-16.7-6.6v-.1c-4.3-2.9-7.1-9.4-7.6-14.4a35.7 35.7 0 0 1 5.7-22.3l3-3.8-1.1 4.7c-.7 3.1-.4 10.2.3 14 .7-1.4 1.3-3.1 2-4.9.7-2 1.4-4 2.3-5.8l1-2.1c1.7-3.6 3.5-7.3 6.7-9.9l2.8-2.3-1.1 3.5a60 60 0 0 0-2.6 11.3c-.4 2.5-.3 4.2 0 6.4l3.2-5 2.4-3.5c1.7-2.5 3.5-4.8 5.5-7.4 2.2-2.7 4.2-4.8 6.1-6l3.4-2.4-3 6-2.1 4.4a47.3 47.3 0 0 0-4.3 11 78.6 78.6 0 0 0-1.8 6c1.3-1.2 2.5-2.4 3.6-4l3.7-5.5 2-3 1.4-2.3.5 2.6c.8 4.1-.2 9-1.2 12.9-.6 2.4-1.6 5.6-2.8 8.7 3.6-2.7 7.6-6.4 10-8.7l4.2-4zm-13.5 21.5c2.5-3.2 4.8-8 6.8-12.4-3 2.6-6.4 5.5-9.2 7.2l-2.8 1.6 1.3-3a87 87 0 0 0 4-11.5c.6-2.5 1.3-5.9 1.3-9l-.2.4c-1.2 2-2.5 3.8-3.8 5.7-1.3 1.8-2.8 3.2-4.2 4.6l-2.2 2.1-2.5 2.7.7-3.6 1.5-6c.3-1.3.8-2.5 1.2-3.7l1.2-3.6c.9-3 2-5.4 3.2-7.7l.8-1.7-1.7 2A91.2 91.2 0 0 0 349 358a59.2 59.2 0 0 0-4.6 7.4l-1.5 3-.6-3.8c-.6-3.7-1-6-.4-9.7l1.3-7.1a43 43 0 0 0-3 5.8l-1 2.1c-1 1.7-1.7 3.7-2.4 5.7-1 2.9-2 5.6-3.4 7.4l-1 1.3-.8-1.5c-1-2-1.6-8-1.5-12.8a36.3 36.3 0 0 0-3 16.9c.5 4.5 2.7 9.2 5.4 11.8.2-1.8.8-3.5 2-5a10.6 10.6 0 0 1 14.6-2.4c4.5 3.2 5.7 9.3 2.9 14l2.9-1.7.3-.2c2.5-1.7 4.4-4 6-6zm-11.5 7.4A8.4 8.4 0 1 0 336 381a8.4 8.4 0 0 0 13.7 9.7zM274.2 456.2l-2.3.1h-1.1c-1.2.2-2.4.2-3.5.2h-1.5l-3 .1h-4.3c-2.1-3.5-6.3-12-4.5-19.5 4 .3 8.4.5 13.1.6l1.2 4.5a30 30 0 0 0 5.9 14zM245.3 451l2 5.5c-5.7 0-12.1-.3-18.6-1.1a17.8 17.8 0 0 0 1.8-12c.7-3 2.2-6.2 4.2-9.2 3.2.7 6.5 1.3 10 1.8l-.3.7-.2.7-.1.7-.2.7-.1.7v.6l-.1.8v2a11 11 0 0 0 0 1.4l.2.8v.6l.2.8.1.6.2.8.1.5.3 1v.3l.4 1v.2zM191.9 467.6l2.4 1.7c-1 2.6-2.8 6-4.4 9l-2 3.7c-1 2-2.7 4.7-4.4 7.2l-2.5 4-6.6-3.7c-2-1.3-4.1-2.7-6.2-4.3 2.3-2.3 4.4-5.2 6.5-8a68.3 68.3 0 0 0 10-14.8l3 2.3 4.2 3zM187.8 398.6l-25.6 7.7c-2.4-4.5-4.6-9-6.4-13.8l24-7.4c2.5 4.8 5 9.2 8 13.5zM175.3 374.1l-23.2 7.5c-.9-3.4-1.7-6.8-2.3-10.2l22.4-7.1c1 3.6 2 6.8 3.1 9.8zM152.3 268c2.2 4.1-4 7.7-6.1 3.7-1.4-2.6-2.2-5.8-4.4-7.7-1.4-1.3-1.3-3.7 0-5 1.5-1.4 3.6-1.3 5 0 2.8 2.4 3.8 6 5.5 9zM147 409.5l-15.8 3.4c-.5-4.8-1-9.7-1.7-14.4l12.2-2.8a362.4 362.4 0 0 0 5.2 13.8zM145.3 348.3l-10 3.9 3.6-7.6zM138.2 384.7l-10.6 2.6c-.9-4.7-2-9-3.2-12.8a43 43 0 0 0 11.6 0c.7 3.8 1.4 7.1 2.2 10.2zM133.6 355l.5 5-.6-4.9h.1zM94.3 287.6c1.3 4.4-5.6 6.3-6.8 1.9-.4-1.3-.6-2.7-.9-4a16.2 16.2 0 0 0-.7-2.2c-3.3-3.3 1.7-8.3 5-5.1 2.5 2.5 2.5 6.2 3.4 9.4z"/><g><path fill="none" d="M153.5 285.6c5.7 11.7 9.4 28.4 6 40l7.8 4.5.5-5.2c.9-9.1 2.2-22.9-1.7-35.6a33 33 0 0 1-12.6-3.7z"/><path fill="none" d="M153.5 285.6c5.7 11.7 9.4 28.4 6 40l7.8 4.5.5-5.2c.9-9.1 2.2-22.9-1.7-35.6a33 33 0 0 1-12.6-3.7z"/><path d="M167.9 287.9l-.8.2v-.9c-7.4.4-27.9-7.3-32.6-27.8v-.3l-.3-.3c-1.3-1-2.4-2-3.4-3-2.4-2.2-4.5-4.2-8.5-6.4L121 251c23.8 29.2 21.9 51.7 18.2 63.2l-10.5-6-7 12 1.8 1.2 6-10.3 38 21.5.2-.4h1.7c0-1.8.2-4.2.5-7 .9-9.6 2.3-24-2-37.3zm-.1 37l-.5 5.2-7.8-4.4c3.4-11.7-.3-28.4-6-40a33 33 0 0 0 12.6 3.6 93.2 93.2 0 0 1 1.7 35.6z"/></g><g><path d="M344.8 394.8c-5.4 13.1-25.7 31.8-36.3 40.2l2.3.8c10.8-8.6 30.4-26.6 36-40.2l-2-.8zM325.8 412.7c0 .3 0 1-.5 1.6a67 67 0 0 1-37 17.3l-3.2-.3c-3.8-.6-6.7-2.4-8.6-5.3-.3.4-.4.8-.6 1.3-1 2.9-.7 5.9 1 9l-2 1a13.6 13.6 0 0 1-1-10.7c3.3-9.7 17.8-16.6 33-23.9 9.4-4.5 19-9 25.9-14.3l1.2 1.7a82.3 82.3 0 0 1-9.8 6.3l-2.9 3.3c-2.5 2.8-4.1 4.6-4 7 0 1.8 3 2.9 5 3.7 1.9.7 3.2 1.2 3.5 2.3z"/></g></svg>