<svg data-name="Camada 1" xmlns="http://www.w3.org/2000/svg" viewBox="0 0 237.1 311.2"><path d="M208 198c15 26.8 29.3 52 29.1 76v1l-.9.4-18 11-1.2.1-.5-.6c-3-3.8-7.4-8.6-12.4-14.3a778 778 0 0 1-22-25.3l-.2-.3a321 321 0 0 1-50.5-81.5 194.6 194.6 0 0 1-11.4-39.6l-.4-1.8c-6.8-41.8 2.2-82.4 26.8-121.2l.8-1.2.4.2V.8A191.8 191.8 0 0 1 166.9 4c13.6 3 21.7 6.9 24 11.3l.3.7-.4.7c-2.5 4.1-4.7 8.3-6.7 12.3l-.1.4a136.6 136.6 0 0 0-13.7 45.8l-.2 1.8c-4.2 43.5 15.4 81 34.6 115.2l.8 1.4 2.5 4.4zm10 85.2l16.2-10a65 65 0 0 0-.6-8.6l-19.8 13.6 4.1 4.9zm-3.8-8.6l18.8-13.2-.7-3.3-16 9.2-2 7.3h-.1zm2.5-8.7l15.4-8.8-1.6-5.8-11.3 6-2.5 8.6zm2.9-10l10.6-5.5-2-5.5-6.3 2.8-2.3 8.2zm2.7-9.4l5.6-2.6c-.9-2.3-1.8-4.7-2.9-7zm-37.8-3.8l38.5-10.2-3-6-31.1 5.8-4.4 10.4zm26.6 32.4l11.2-39.4-37 9.7q12.5 15.2 25.8 29.7zm-21.7-44l30.2-5.6-3.5-6.9-23 3.9-3.7 8.7v-.1zm4.2-9.7l22-3.7-3.4-6.2-14.8 1-3.8 8.9zm4.2-10l13.8-.9-6.2-11-1.4-2.6-6.2 14.5zm-15.9 30l19.8-46.4-52.8-1.2a363.2 363.2 0 0 0 33 47.5v.1zm-33.1-50.6l52.5 1.2-6-11-38.5-2.5zm8.6-13.3l37.3 2.4-5.9-11.2-24.2-2.3-7.2 11.1zm7.8-12l23.1 2-3.7-7.7-13.6-3.2-5.8 8.8v.1zm22-148.3l.7-1.4a16.2 16.2 0 0 0-6.7-4.5zm-.6 1l-7.8-7.9a96.8 96.8 0 0 0-10.7-3.1l16.7 14.2 1.8-3.3v.1zm-2.3 4.1L165.8 6.8c-4.8-1-9.6-1.9-13.5-2.5l30.2 21.3 1.7-3.2zm-12.7 133.3l12.4 3c-2-4.3-4-8.8-5.7-13.4l-6.7 10.4zM129.3 43.3l51-16L148 4.7a192.7 192.7 0 0 0-18.7 38.6zm50.9-12.9l-11.4 3.8 7.4 5.8q1.9-4.8 4-9.4v-.2zm-33.8 158.8l30-46.5-53.3-16.9a199 199 0 0 0 11 37.5 246.3 246.3 0 0 0 12.3 25.9zm-22.6-66.1l52.4 16.6c-1.5-4.1-2.8-8.3-4-12.5L134 112.9l-10.2 10.2zm52-82.2l-8.2-6.4-11.2 3.5 16.2 12.3c1-3.2 2-6.3 3.2-9.4zm-3.5 10.4l-17-13-11.4 3.6 25.7 19.9a101.2 101.2 0 0 1 2.7-10.5zm-37.5 60.8l37 13.9q-1.6-6.1-2.7-12.3l-24.7-11.2-9.6 9.6zm34.6-49.2l-26.7-20.7-12.6 4 37.5 27c.5-3.5 1-7 1.8-10.4v.1zm-24.2 38.9l23.6 10.7a135.1 135.1 0 0 1-1.7-13.9l-12.5-6.1-9.4 9.3zM167 80.1l-11.7 11.6 11.7 5.8a130 130 0 0 1 0-17.4zm-44.8 40.5l44.5-44.3-39-28.2a159.7 159.7 0 0 0-5.5 72.5z"/><path d="M205.8 286.3v1.3a35 35 0 0 1-5.5 2.7l-.2-8-.6-.3-7.4-.6-1.5-10.3-.2-.2-16-7-1.7-12.6-.3-.3-15.1-6.6-1.7-13.9-.3-.3-17.3-8.5.2-14.5-.3-.3-18.6-12.3 1.2-15.3-.2-.4-13.4-12.6 1.3-14.9v-.4l-10-12.5.4.2 3.6-18.8v-.4l-6.3-11 6-17.2v-.4l-4.7-12 9-20.1v-.4l-3.3-15.3 12-13 .2-.4-4.7-22.6v-.3l-.7-.5-28.6 21.9 1.8 14.4-15.7 17 6 16.5-11 18 7.3 16.8-7 15 13 14.7L69 162l14.5 12.4-2.5 18.4L99.6 205l.4 22 18.7 7.7 2.9 19.9 18.8 4.7 2.7 13.8 16.6 3.7 2.9 15 15.3 3.5c-4.4.5-8.7.8-12.6 1C101.3 246.3-2 139.8 91.2 8l44.5-8c-76.7 134 16.8 222 70 286.3h.1z"/><path d="M198.7 283.4l.1 7.4a91.7 91.7 0 0 1-19.6 4.3l.2-.7-1.3-.3-.7-12.5 13.7 1.1 1.2.1 6.4.6z"/><path d="M189.6 271.7l1.3 9.6-14-1.2-5.4-7-1.1 1 5.5 7.1.7 12.6-13-3-2.9-14.6v-.4l-3.6-18.1z"/><path d="M171.5 251.9l1.6 11.5-16.3-7.2-4.9-6.4-1 .4 4.9 6.6 3.6 18.6-15.2-3.5-2.7-13.6v-.3l-4.1-21 18.5 8v.2h.3z"/><path d="M154.3 231.2l1.5 12.6-18.8-8.2-6.4-5.8-1.2.5 6.5 6 4.2 21.4-17.3-4.3L117 213z"/><path d="M151.8 301.1l-1.4 1.6-.3-.3v.2c-.8.1-77.4 8.6-110 8.6h-4.3V309c27 .8 99.9-7 112.3-8.3q-14.2-12.2-27.3-25.6l-13.2 11 9 11-18.3 1.1 5.4-11.4-13.3-8.5-11.5 10.9 10 10-19.8 1.9 4.8-11.2-14.5-8.8 31.2-3v.1l30-3.3-7-7.3-.8.1c-14 2-46.7 6.6-101.9 6.6v-1h7.3l-1.5-15.4-1-10.9-.7-6.7q-7.5.3-15 .2v-2.2a344 344 0 0 0 39-1.9h.2l-1.3-1.4a100.6 100.6 0 0 1-7.6-9.4l-.3-.4q-3.5-5-6.6-10.5l-.7-1.4a164 164 0 0 1-16-46.1A220.7 220.7 0 0 1 6.3 85h.1l7-9.1a182 182 0 0 1 46.4-47.7l.6-1 1.9 1a172 172 0 0 0-20 93.7 202 202 0 0 0 31 90.9h.1q5.4 9 12 18v.2a405 405 0 0 0 66.3 70zm-39-34.4c-8.3-9-16-18-23-27.1l.1.9 2.2 28.8c9.1-1 16-2 20.7-2.6zm-21.4 2.7h-.3l-1.3-15.2-12-12-7-6.7.7 7.4 2.4 28c6.5-.5 12.3-1 17.4-1.6zm-2.5-28.7l-.2-2.6-3.7-5-13.3 1.8 7.4 7.2 9.8-1.4zm-6.8-9.4l1.5-.2c-4.1-5.7-8-11.4-11.5-17.2l-15 11.7c2.7 4 5 6.8 6 8.2l1.4-.2 2.4-.3 1.4-.1 2.5-.4 3.5-.4 2-.3 1.7-.2.7-.1.6-.1h.3l1.7-.3zm-9 39.8l-1.6-17.7-11.1-9.2-8.1-6.8.7 7.4 2.5 27.4 17.5-1.1h.1zm-22-54.7l20.5-3.3q-5.8-9.6-10.8-19.6l-15.3 12.7a157 157 0 0 0 5.5 10.2h.1zm19.5 26.7l-.7-8c-4.8.7-10.4 1.3-16.4 2l7.9 6.6c3-.3 6.5-.2 9.2-.6zm-14.1-18.3l13.3-10.4-18.1 3-21.9 3.5 3 4.3 12.6-.1-7.4 6.6a55 55 0 0 0 4 4.3l14.5-11.2zM40.8 196l19.3-3.4c-3-6.2-5.8-12.5-8.3-18.8L37 185.6c1.2 3.7 2.5 7.1 3.8 10.4zm4.1 9.3L58.5 194l-17.3 3-22.1 4 2.1 4.8 13-1-9.2 8.4a55.1 55.1 0 0 0 3.4 5.8l16.5-13.7zm9.3 67l-1.8-20.6-10-6.1-10.1-6.3.7 6.9 3 26.8 18.2-.7zm-2.6-28.5l-.5-6.4-10.9 1-.2.2-5.9.4h-.2l7.9 5c2.6-.2 7.4 0 9.8-.2zM34 175.7l17.6-2.7a212 212 0 0 1-5.7-17l-14.4 10c.7 3.3 1.6 6.5 2.5 9.7zM49.8 50.9a197.4 197.4 0 0 1 9.1-20.7A198 198 0 0 0 39 46.7zm-13 133.7l12.8-10.2-15.2 2.3-22.4 3.4 1.8 6 12-2-9.4 9.8 2 5.3 18.4-14.6zM49.3 52.5L37 55.9l-.1 2.7 9.9 1.3c.7-2.4 1.6-5 2.5-7.4zm-14.7 3l14.2-4-10.6-4-1.5 1.5c-2.7 2.7-5.1 5.4-7.5 8zm11.6 6.2l-14 5.7c-.4 1.8 0 4.2-.3 6.2l11.2.3c.9-4 2-8.1 3.1-12.2zm-16.4 95.5l16-2c-1.3-5.1-2.5-10.2-3.5-15.3l-13.2 7.7.1 9.7h.6v-.1zm2-90.7l14-5.7-12.1-1.6-5.6-.7c-3.8 4.5-7.3 9-10.8 13.9l14.5-6v.1zm-.4 98.4l12.4-8.4-14 1.7-22 2.8 1 5.9 12-1-10.5 7.8 1.2 4.7 19.7-13.5h.2zm11.4-89.7l-14.1 6.6-1.4 9.6h13a161 161 0 0 1 2.5-16.2zM27.2 141l14.9-2q-1.4-7.8-2.2-15.6l-12.3 7.5zm1.7-60.4l12.2-5.7-11.1-.3-14.2-.4-1.7 2.3-1.3 2 10.5.7-15 7.2-.8 4.3 21.4-10v-.1zm11.2 12L28 98.2a82.2 82.2 0 0 0 0 8.6l11.3-.6c.1-4.6.4-9 .8-13.6zm-13 30.7l12.8-1.2c-.5-5-.6-10-.6-14.9l-12.2 6.6v9.5zM28 147l11.3-6.5-12 1.5-21.5 2.8.4 3.9L18 148l-11 7.8.5 3.1L28 147zm-1.8-16.4l12-7.3-12.3 1.1-21 1.9.1 6.1 12.7-1.3-12.4 8.1.3 4 20.6-12.6zm.5-33l11.2-5.1H27.2l-20-.2-.5 3.8 12.4.7-13.3 6.6-.3 4 21.2-9.7v-.1zm-.9 15.7l11.1-6-11 .6-20.5 1-.3 5.2 12.2-.2-12.4 7.2v3.4l21-11.2h-.1zM35.1 273l-2-17.6-10-8.7-7-6 .6 6.3 2 21 .6 5.3c5.5 0 10.7-.2 15.8-.3zm-3-26.8l-.7-7c-4.9.5-9.7.8-14.3 1l6.7 5.8c2.6 0 6 .4 8.3.2zm-26.3-121l5.1-.5-4.9.4h-.2v.1z"/><path d="M136.8 207.8l-.3 13.2-19.9-9.7-4.2-8-1.3.4 4.3 8.4 3 21-17.2-6.9-.3-22-.3-20.3z"/><path d="M118.9 179.6l-1 14-17.4-11.5-2.6-8.1-1.4.3 2.8 8.2.3 20.8-17-11.2 2.2-16.6 3.5-25 17.2 16.4zM109.2 8.5l4.4 21-11.1 12-3.3-14.8 3.5-7.8-1.3-.6-3.6 8.1-13.6 14.8-1.6-12.4z"/><path d="M82.8 121.4l23.9 30-1 13.6-17.3-16.2-1.3-8.3h-1.3l1.3 8.6-3.3 23.6-13-11.2 6-20.1.8-.7-.4-.5zm18.7-78.5l3.3 15.5L96.5 77l-8.6-22 3.4-7.8-1.3-.6-3.6 8v.1L74.2 74.5 69 59.6l29.3-31.3 3 14.3z"/><path d="M94.9 109.7l5.8 10-3.3 17.9-14.2-18-.1-8.2-1.4-.2v8.6L75.9 139l-11.8-13.3 18.2-38.5 12 21.4z"/><path d="M86.9 56.6l13.5 34.3-5.5 16-12-21.4 1.3-8.5-1.4-.4-1.4 8.9-11 23.7-6.6-15 10.8-17.6.3-.2v-.1zM59.4 281.2l-11.2 10.5 11 9.8-21.7 1.3 5.7-10.8-15.8-9.2z"/></svg>